<svg xmlns="http://www.w3.org/2000/svg" width="962.4" height="591.142" viewBox="0 0 962.4 591.142"><defs><clipPath id="a" clipPathUnits="userSpaceOnUse"><path d="M55.138 42.544H711.1v390.112H55.138Z"/></clipPath><clipPath id="b" clipPathUnits="userSpaceOnUse"><path d="M55.138 42.544H711.1v390.112H55.138Z"/></clipPath><clipPath id="c" clipPathUnits="userSpaceOnUse"><path d="M55.138 42.544H711.1v390.112H55.138Z"/></clipPath><clipPath id="d" clipPathUnits="userSpaceOnUse"><path d="M55.138 42.544H711.1v390.112H55.138Z"/></clipPath><clipPath id="e" clipPathUnits="userSpaceOnUse"><path d="M55.138 42.544H711.1v390.112H55.138Z"/></clipPath><clipPath id="f" clipPathUnits="userSpaceOnUse"><path d="M55.138 42.544H711.1v390.112H55.138Z"/></clipPath><clipPath id="g" clipPathUnits="userSpaceOnUse"><path d="M55.138 42.544H711.1v390.112H55.138Z"/></clipPath><clipPath id="h" clipPathUnits="userSpaceOnUse"><path d="M55.138 42.544H711.1v390.112H55.138Z"/></clipPath><clipPath id="i" clipPathUnits="userSpaceOnUse"><path d="M55.138 42.544H711.1v390.112H55.138Z"/></clipPath><clipPath id="j" clipPathUnits="userSpaceOnUse"><path d="M55.138 42.544H711.1v390.112H55.138Z"/></clipPath><clipPath id="k" clipPathUnits="userSpaceOnUse"><path d="M55.138 42.544H711.1v390.112H55.138Z"/></clipPath><clipPath id="l" clipPathUnits="userSpaceOnUse"><path d="M55.138 42.544H711.1v390.112H55.138Z"/></clipPath><clipPath id="m" clipPathUnits="userSpaceOnUse"><path d="M55.138 42.544H711.1v390.112H55.138Z"/></clipPath><clipPath id="n" clipPathUnits="userSpaceOnUse"><path d="M55.138 42.544H711.1v390.112H55.138Z"/></clipPath><clipPath id="o" clipPathUnits="userSpaceOnUse"><path d="M55.138 42.544H711.1v390.112H55.138Z"/></clipPath><clipPath id="p" clipPathUnits="userSpaceOnUse"><path d="M55.138 42.544H711.1v390.112H55.138Z"/></clipPath><clipPath id="q" clipPathUnits="userSpaceOnUse"><path d="M55.138 42.544H711.1v390.112H55.138Z"/></clipPath><clipPath id="r" clipPathUnits="userSpaceOnUse"><path d="M55.138 42.544H711.1v390.112H55.138Z"/></clipPath><clipPath id="s" clipPathUnits="userSpaceOnUse"><path d="M55.138 42.544H711.1v390.112H55.138Z"/></clipPath><clipPath id="t" clipPathUnits="userSpaceOnUse"><path d="M55.138 42.544H711.1v390.112H55.138Z"/></clipPath><clipPath id="u" clipPathUnits="userSpaceOnUse"><path d="M55.138 42.544H711.1v390.112H55.138Z"/></clipPath><clipPath id="v" clipPathUnits="userSpaceOnUse"><path d="M55.138 42.544H711.1v390.112H55.138Z"/></clipPath><clipPath id="w" clipPathUnits="userSpaceOnUse"><path d="M55.138 42.544H711.1v390.112H55.138Z"/></clipPath><clipPath id="x" clipPathUnits="userSpaceOnUse"><path d="M55.138 42.544H711.1v390.112H55.138Z"/></clipPath></defs><path d="M81.273 42.544v390.112" clip-path="url(#a)" style="fill:none;stroke:#e6e6e6;stroke-width:1;stroke-linecap:square;stroke-linejoin:round;stroke-miterlimit:10;stroke-dasharray:none;stroke-opacity:1" transform="matrix(1.33333 0 0 -1.33333 0 591.142)"/><path d="M81.273 37.544v-3.5" style="fill:#000;fill-opacity:1;fill-rule:nonzero;stroke:#000;stroke-width:.8;stroke-linecap:butt;stroke-linejoin:round;stroke-miterlimit:10;stroke-dasharray:none;stroke-opacity:1" transform="matrix(1.33333 0 0 -1.33333 0 591.142)"/><text xml:space="preserve" transform="translate(104.124 560.542)scale(1.33333)"><tspan x="0" y="0" style="font-variant:normal;font-weight:400;font-size:10px;font-family:&quot;DejaVu Sans&quot;;writing-mode:lr-tb;fill:#000;fill-opacity:1;fill-rule:nonzero;stroke:none">0</tspan></text><path d="M154.894 42.544v390.112" clip-path="url(#b)" style="fill:none;stroke:#e6e6e6;stroke-width:1;stroke-linecap:square;stroke-linejoin:round;stroke-miterlimit:10;stroke-dasharray:none;stroke-opacity:1" transform="matrix(1.33333 0 0 -1.33333 0 591.142)"/><path d="M154.894 37.544v-3.5" style="fill:#000;fill-opacity:1;fill-rule:nonzero;stroke:#000;stroke-width:.8;stroke-linecap:butt;stroke-linejoin:round;stroke-miterlimit:10;stroke-dasharray:none;stroke-opacity:1" transform="matrix(1.33333 0 0 -1.33333 0 591.142)"/><text xml:space="preserve" transform="translate(198.046 560.542)scale(1.33333)"><tspan x="0" y="0" style="font-variant:normal;font-weight:400;font-size:10px;font-family:&quot;DejaVu Sans&quot;;writing-mode:lr-tb;fill:#000;fill-opacity:1;fill-rule:nonzero;stroke:none">20</tspan></text><path d="M228.515 42.544v390.112" clip-path="url(#c)" style="fill:none;stroke:#e6e6e6;stroke-width:1;stroke-linecap:square;stroke-linejoin:round;stroke-miterlimit:10;stroke-dasharray:none;stroke-opacity:1" transform="matrix(1.33333 0 0 -1.33333 0 591.142)"/><path d="M228.515 37.544v-3.5" style="fill:#000;fill-opacity:1;fill-rule:nonzero;stroke:#000;stroke-width:.8;stroke-linecap:butt;stroke-linejoin:round;stroke-miterlimit:10;stroke-dasharray:none;stroke-opacity:1" transform="matrix(1.33333 0 0 -1.33333 0 591.142)"/><text xml:space="preserve" transform="translate(296.207 560.542)scale(1.33333)"><tspan x="0" y="0" style="font-variant:normal;font-weight:400;font-size:10px;font-family:&quot;DejaVu Sans&quot;;writing-mode:lr-tb;fill:#000;fill-opacity:1;fill-rule:nonzero;stroke:none">40</tspan></text><path d="M302.136 42.544v390.112" clip-path="url(#d)" style="fill:none;stroke:#e6e6e6;stroke-width:1;stroke-linecap:square;stroke-linejoin:round;stroke-miterlimit:10;stroke-dasharray:none;stroke-opacity:1" transform="matrix(1.33333 0 0 -1.33333 0 591.142)"/><path d="M302.136 37.544v-3.5" style="fill:#000;fill-opacity:1;fill-rule:nonzero;stroke:#000;stroke-width:.8;stroke-linecap:butt;stroke-linejoin:round;stroke-miterlimit:10;stroke-dasharray:none;stroke-opacity:1" transform="matrix(1.33333 0 0 -1.33333 0 591.142)"/><text xml:space="preserve" transform="translate(394.368 560.542)scale(1.33333)"><tspan x="0" y="0" style="font-variant:normal;font-weight:400;font-size:10px;font-family:&quot;DejaVu Sans&quot;;writing-mode:lr-tb;fill:#000;fill-opacity:1;fill-rule:nonzero;stroke:none">60</tspan></text><path d="M375.757 42.544v390.112" clip-path="url(#e)" style="fill:none;stroke:#e6e6e6;stroke-width:1;stroke-linecap:square;stroke-linejoin:round;stroke-miterlimit:10;stroke-dasharray:none;stroke-opacity:1" transform="matrix(1.33333 0 0 -1.33333 0 591.142)"/><path d="M375.757 37.544v-3.5" style="fill:#000;fill-opacity:1;fill-rule:nonzero;stroke:#000;stroke-width:.8;stroke-linecap:butt;stroke-linejoin:round;stroke-miterlimit:10;stroke-dasharray:none;stroke-opacity:1" transform="matrix(1.33333 0 0 -1.33333 0 591.142)"/><text xml:space="preserve" transform="translate(492.53 560.542)scale(1.33333)"><tspan x="0" y="0" style="font-variant:normal;font-weight:400;font-size:10px;font-family:&quot;DejaVu Sans&quot;;writing-mode:lr-tb;fill:#000;fill-opacity:1;fill-rule:nonzero;stroke:none">80</tspan></text><path d="M449.378 42.544v390.112" clip-path="url(#f)" style="fill:none;stroke:#e6e6e6;stroke-width:1;stroke-linecap:square;stroke-linejoin:round;stroke-miterlimit:10;stroke-dasharray:none;stroke-opacity:1" transform="matrix(1.33333 0 0 -1.33333 0 591.142)"/><path d="M449.378 37.544v-3.5" style="fill:#000;fill-opacity:1;fill-rule:nonzero;stroke:#000;stroke-width:.8;stroke-linecap:butt;stroke-linejoin:round;stroke-miterlimit:10;stroke-dasharray:none;stroke-opacity:1" transform="matrix(1.33333 0 0 -1.33333 0 591.142)"/><text xml:space="preserve" transform="translate(586.451 560.542)scale(1.33333)"><tspan x="0" y="0" style="font-variant:normal;font-weight:400;font-size:10px;font-family:&quot;DejaVu Sans&quot;;writing-mode:lr-tb;fill:#000;fill-opacity:1;fill-rule:nonzero;stroke:none">100</tspan></text><path d="M522.999 42.544v390.112" clip-path="url(#g)" style="fill:none;stroke:#e6e6e6;stroke-width:1;stroke-linecap:square;stroke-linejoin:round;stroke-miterlimit:10;stroke-dasharray:none;stroke-opacity:1" transform="matrix(1.33333 0 0 -1.33333 0 591.142)"/><path d="M522.999 37.544v-3.5" style="fill:#000;fill-opacity:1;fill-rule:nonzero;stroke:#000;stroke-width:.8;stroke-linecap:butt;stroke-linejoin:round;stroke-miterlimit:10;stroke-dasharray:none;stroke-opacity:1" transform="matrix(1.33333 0 0 -1.33333 0 591.142)"/><text xml:space="preserve" transform="translate(684.613 560.542)scale(1.33333)"><tspan x="0" y="0" style="font-variant:normal;font-weight:400;font-size:10px;font-family:&quot;DejaVu Sans&quot;;writing-mode:lr-tb;fill:#000;fill-opacity:1;fill-rule:nonzero;stroke:none">120</tspan></text><path d="M596.62 42.544v390.112" clip-path="url(#h)" style="fill:none;stroke:#e6e6e6;stroke-width:1;stroke-linecap:square;stroke-linejoin:round;stroke-miterlimit:10;stroke-dasharray:none;stroke-opacity:1" transform="matrix(1.33333 0 0 -1.33333 0 591.142)"/><path d="M596.62 37.544v-3.5" style="fill:#000;fill-opacity:1;fill-rule:nonzero;stroke:#000;stroke-width:.8;stroke-linecap:butt;stroke-linejoin:round;stroke-miterlimit:10;stroke-dasharray:none;stroke-opacity:1" transform="matrix(1.33333 0 0 -1.33333 0 591.142)"/><text xml:space="preserve" transform="translate(782.774 560.542)scale(1.33333)"><tspan x="0" y="0" style="font-variant:normal;font-weight:400;font-size:10px;font-family:&quot;DejaVu Sans&quot;;writing-mode:lr-tb;fill:#000;fill-opacity:1;fill-rule:nonzero;stroke:none">140</tspan></text><path d="M670.24 42.544v390.112" clip-path="url(#i)" style="fill:none;stroke:#e6e6e6;stroke-width:1;stroke-linecap:square;stroke-linejoin:round;stroke-miterlimit:10;stroke-dasharray:none;stroke-opacity:1" transform="matrix(1.33333 0 0 -1.33333 0 591.142)"/><path d="M670.24 37.544v-3.5" style="fill:#000;fill-opacity:1;fill-rule:nonzero;stroke:#000;stroke-width:.8;stroke-linecap:butt;stroke-linejoin:round;stroke-miterlimit:10;stroke-dasharray:none;stroke-opacity:1" transform="matrix(1.33333 0 0 -1.33333 0 591.142)"/><text xml:space="preserve" transform="translate(880.935 560.542)scale(1.33333)"><tspan x="0" y="0" style="font-variant:normal;font-weight:400;font-size:10px;font-family:&quot;DejaVu Sans&quot;;writing-mode:lr-tb;fill:#000;fill-opacity:1;fill-rule:nonzero;stroke:none">160</tspan></text><text xml:space="preserve" transform="translate(473.617 578.77)scale(1.33333)"><tspan x="0" y="0" style="font-variant:normal;font-weight:400;font-size:10px;font-family:&quot;DejaVu Sans&quot;;writing-mode:lr-tb;fill:#000;fill-opacity:1;fill-rule:nonzero;stroke:none">Generation</tspan></text><path d="M55.138 53.756H711.1" clip-path="url(#j)" style="fill:none;stroke:#e6e6e6;stroke-width:1;stroke-linecap:square;stroke-linejoin:round;stroke-miterlimit:10;stroke-dasharray:none;stroke-opacity:1" transform="matrix(1.33333 0 0 -1.33333 0 591.142)"/><path d="M50.138 53.756h-3.5" style="fill:#000;fill-opacity:1;fill-rule:nonzero;stroke:#000;stroke-width:.8;stroke-linecap:butt;stroke-linejoin:round;stroke-miterlimit:10;stroke-dasharray:none;stroke-opacity:1" transform="matrix(1.33333 0 0 -1.33333 0 591.142)"/><text xml:space="preserve" transform="translate(27.83 524.53)scale(1.33333)"><tspan x="0" y="0" style="font-variant:normal;font-weight:400;font-size:10px;font-family:&quot;DejaVu Sans&quot;;writing-mode:lr-tb;fill:#000;fill-opacity:1;fill-rule:nonzero;stroke:none">0.26</tspan></text><path d="M55.138 97.895H711.1" clip-path="url(#k)" style="fill:none;stroke:#e6e6e6;stroke-width:1;stroke-linecap:square;stroke-linejoin:round;stroke-miterlimit:10;stroke-dasharray:none;stroke-opacity:1" transform="matrix(1.33333 0 0 -1.33333 0 591.142)"/><path d="M50.138 97.895h-3.5" style="fill:#000;fill-opacity:1;fill-rule:nonzero;stroke:#000;stroke-width:.8;stroke-linecap:butt;stroke-linejoin:round;stroke-miterlimit:10;stroke-dasharray:none;stroke-opacity:1" transform="matrix(1.33333 0 0 -1.33333 0 591.142)"/><text xml:space="preserve" transform="translate(27.83 465.677)scale(1.33333)"><tspan x="0" y="0" style="font-variant:normal;font-weight:400;font-size:10px;font-family:&quot;DejaVu Sans&quot;;writing-mode:lr-tb;fill:#000;fill-opacity:1;fill-rule:nonzero;stroke:none">0.28</tspan></text><path d="M55.138 142.035H711.1" clip-path="url(#l)" style="fill:none;stroke:#e6e6e6;stroke-width:1;stroke-linecap:square;stroke-linejoin:round;stroke-miterlimit:10;stroke-dasharray:none;stroke-opacity:1" transform="matrix(1.33333 0 0 -1.33333 0 591.142)"/><path d="M50.138 142.035h-3.5" style="fill:#000;fill-opacity:1;fill-rule:nonzero;stroke:#000;stroke-width:.8;stroke-linecap:butt;stroke-linejoin:round;stroke-miterlimit:10;stroke-dasharray:none;stroke-opacity:1" transform="matrix(1.33333 0 0 -1.33333 0 591.142)"/><text xml:space="preserve" transform="translate(27.83 406.824)scale(1.33333)"><tspan x="0" y="0" style="font-variant:normal;font-weight:400;font-size:10px;font-family:&quot;DejaVu Sans&quot;;writing-mode:lr-tb;fill:#000;fill-opacity:1;fill-rule:nonzero;stroke:none">0.30</tspan></text><path d="M55.138 186.175H711.1" clip-path="url(#m)" style="fill:none;stroke:#e6e6e6;stroke-width:1;stroke-linecap:square;stroke-linejoin:round;stroke-miterlimit:10;stroke-dasharray:none;stroke-opacity:1" transform="matrix(1.33333 0 0 -1.33333 0 591.142)"/><path d="M50.138 186.175h-3.5" style="fill:#000;fill-opacity:1;fill-rule:nonzero;stroke:#000;stroke-width:.8;stroke-linecap:butt;stroke-linejoin:round;stroke-miterlimit:10;stroke-dasharray:none;stroke-opacity:1" transform="matrix(1.33333 0 0 -1.33333 0 591.142)"/><text xml:space="preserve" transform="translate(27.83 347.97)scale(1.33333)"><tspan x="0" y="0" style="font-variant:normal;font-weight:400;font-size:10px;font-family:&quot;DejaVu Sans&quot;;writing-mode:lr-tb;fill:#000;fill-opacity:1;fill-rule:nonzero;stroke:none">0.32</tspan></text><path d="M55.138 230.315H711.1" clip-path="url(#n)" style="fill:none;stroke:#e6e6e6;stroke-width:1;stroke-linecap:square;stroke-linejoin:round;stroke-miterlimit:10;stroke-dasharray:none;stroke-opacity:1" transform="matrix(1.33333 0 0 -1.33333 0 591.142)"/><path d="M50.138 230.315h-3.5" style="fill:#000;fill-opacity:1;fill-rule:nonzero;stroke:#000;stroke-width:.8;stroke-linecap:butt;stroke-linejoin:round;stroke-miterlimit:10;stroke-dasharray:none;stroke-opacity:1" transform="matrix(1.33333 0 0 -1.33333 0 591.142)"/><text xml:space="preserve" transform="translate(27.83 289.118)scale(1.33333)"><tspan x="0" y="0" style="font-variant:normal;font-weight:400;font-size:10px;font-family:&quot;DejaVu Sans&quot;;writing-mode:lr-tb;fill:#000;fill-opacity:1;fill-rule:nonzero;stroke:none">0.34</tspan></text><path d="M55.138 274.454H711.1" clip-path="url(#o)" style="fill:none;stroke:#e6e6e6;stroke-width:1;stroke-linecap:square;stroke-linejoin:round;stroke-miterlimit:10;stroke-dasharray:none;stroke-opacity:1" transform="matrix(1.33333 0 0 -1.33333 0 591.142)"/><path d="M50.138 274.454h-3.5" style="fill:#000;fill-opacity:1;fill-rule:nonzero;stroke:#000;stroke-width:.8;stroke-linecap:butt;stroke-linejoin:round;stroke-miterlimit:10;stroke-dasharray:none;stroke-opacity:1" transform="matrix(1.33333 0 0 -1.33333 0 591.142)"/><text xml:space="preserve" transform="translate(27.83 230.265)scale(1.33333)"><tspan x="0" y="0" style="font-variant:normal;font-weight:400;font-size:10px;font-family:&quot;DejaVu Sans&quot;;writing-mode:lr-tb;fill:#000;fill-opacity:1;fill-rule:nonzero;stroke:none">0.36</tspan></text><path d="M55.138 318.594H711.1" clip-path="url(#p)" style="fill:none;stroke:#e6e6e6;stroke-width:1;stroke-linecap:square;stroke-linejoin:round;stroke-miterlimit:10;stroke-dasharray:none;stroke-opacity:1" transform="matrix(1.33333 0 0 -1.33333 0 591.142)"/><path d="M50.138 318.594h-3.5" style="fill:#000;fill-opacity:1;fill-rule:nonzero;stroke:#000;stroke-width:.8;stroke-linecap:butt;stroke-linejoin:round;stroke-miterlimit:10;stroke-dasharray:none;stroke-opacity:1" transform="matrix(1.33333 0 0 -1.33333 0 591.142)"/><text xml:space="preserve" transform="translate(27.83 171.412)scale(1.33333)"><tspan x="0" y="0" style="font-variant:normal;font-weight:400;font-size:10px;font-family:&quot;DejaVu Sans&quot;;writing-mode:lr-tb;fill:#000;fill-opacity:1;fill-rule:nonzero;stroke:none">0.38</tspan></text><path d="M55.138 362.734H711.1" clip-path="url(#q)" style="fill:none;stroke:#e6e6e6;stroke-width:1;stroke-linecap:square;stroke-linejoin:round;stroke-miterlimit:10;stroke-dasharray:none;stroke-opacity:1" transform="matrix(1.33333 0 0 -1.33333 0 591.142)"/><path d="M50.138 362.734h-3.5" style="fill:#000;fill-opacity:1;fill-rule:nonzero;stroke:#000;stroke-width:.8;stroke-linecap:butt;stroke-linejoin:round;stroke-miterlimit:10;stroke-dasharray:none;stroke-opacity:1" transform="matrix(1.33333 0 0 -1.33333 0 591.142)"/><text xml:space="preserve" transform="translate(27.83 112.559)scale(1.33333)"><tspan x="0" y="0" style="font-variant:normal;font-weight:400;font-size:10px;font-family:&quot;DejaVu Sans&quot;;writing-mode:lr-tb;fill:#000;fill-opacity:1;fill-rule:nonzero;stroke:none">0.40</tspan></text><path d="M55.138 406.874H711.1" clip-path="url(#r)" style="fill:none;stroke:#e6e6e6;stroke-width:1;stroke-linecap:square;stroke-linejoin:round;stroke-miterlimit:10;stroke-dasharray:none;stroke-opacity:1" transform="matrix(1.33333 0 0 -1.33333 0 591.142)"/><path d="M50.138 406.874h-3.5" style="fill:#000;fill-opacity:1;fill-rule:nonzero;stroke:#000;stroke-width:.8;stroke-linecap:butt;stroke-linejoin:round;stroke-miterlimit:10;stroke-dasharray:none;stroke-opacity:1" transform="matrix(1.33333 0 0 -1.33333 0 591.142)"/><text xml:space="preserve" transform="translate(27.83 53.706)scale(1.33333)"><tspan x="0" y="0" style="font-variant:normal;font-weight:400;font-size:10px;font-family:&quot;DejaVu Sans&quot;;writing-mode:lr-tb;fill:#000;fill-opacity:1;fill-rule:nonzero;stroke:none">0.42</tspan></text><text xml:space="preserve" transform="rotate(-90 160.56 140.834)scale(1.33333)"><tspan x="0" y="0" style="font-variant:normal;font-weight:400;font-size:10px;font-family:&quot;DejaVu Sans&quot;;writing-mode:lr-tb;fill:#000;fill-opacity:1;fill-rule:nonzero;stroke:none">Log loss</tspan></text><path d="M84.954 230.627h11.043l3.681-69.362 3.681-11.313h7.362l3.681-33.931h47.853l3.682-4.387 3.681-16.732h80.983l3.681-18.353h7.362l3.681-5.46 3.681-3.132h25.768" clip-path="url(#s)" style="fill:none;stroke:#1f77b4;stroke-width:1.5;stroke-linecap:square;stroke-linejoin:round;stroke-miterlimit:10;stroke-dasharray:none;stroke-opacity:1" transform="matrix(1.33333 0 0 -1.33333 0 591.142)"/><path d="m84.954 230.627 3.681 57.012 3.681-50.056 3.681 4.355 3.681-80.673 3.681-11.313 3.681 45.344 3.681 28.237 3.681-107.512 3.681 21.246 3.681 4.59 3.681-17.315 3.682 43.335 3.68-31.755 3.682 25.449 3.68-33.435 3.682-9.06 3.68 4.241 3.682 72.31 3.68-44.091 3.682 2.103 3.68-1.366 3.682-40.64 3.681-16.731 3.681 30.37 3.681 39.567 3.681-27.844 3.681 33.846 3.681-67.503 3.681 58.447 3.681-32.302 3.681-7.063 3.681-7.418 3.682-2.52 3.68 31.128 3.682-11.217 3.68 1.792 3.682 8.77 3.68-21.706 3.682 18.31 3.68-44.43 3.682 9.818 3.68 22.857 3.682-3.505 3.681.541 3.681-25.64 3.681-22.65 3.681 31.679 3.681-15.469 3.681-21.67 3.681-3.133 3.681 39.421 3.681 10.59 3.681-17.617 3.681-14.755 3.682 17.588 3.68 11.565 3.682-29.42" clip-path="url(#t)" style="fill:none;stroke:#1f77b4;stroke-width:1.5;stroke-linecap:butt;stroke-linejoin:round;stroke-miterlimit:10;stroke-dasharray:5.55,2.4;stroke-dashoffset:0;stroke-opacity:1" transform="matrix(1.33333 0 0 -1.33333 0 591.142)"/><path d="m84.954 200.996 3.681-8.942 3.681-16.278h22.086l3.681-8.669h7.362l3.682-53.317h147.241l3.681-20.055h69.94l3.681-3.24h25.768l3.68-17.993h62.579l3.68-5.575h139.88l3.681-6.65h88.346v0" clip-path="url(#u)" style="fill:none;stroke:#ff7f0e;stroke-width:1.5;stroke-linecap:square;stroke-linejoin:round;stroke-miterlimit:10;stroke-dasharray:none;stroke-opacity:1" transform="matrix(1.33333 0 0 -1.33333 0 591.142)"/><path d="m84.954 200.996 3.681-8.942 3.681-16.278 3.681 56.09 3.681 66.757 3.681-65.638 3.681-45.346 3.681 64.532 3.681 162.753 3.681-247.817 3.681 1.644 3.681 48.096 3.682-103.057 3.68 37.129 3.682-8.442 7.362 41.921 3.68 2.956 3.682-57.382 3.68 70.49 3.682-34.688 3.68 13.472 3.682-4.087 3.681-10.18 3.681 14.458 3.681-10.807 3.681 54.845 3.681-34.857 3.681-23.415 3.681 7.47 3.681-18.594 3.681-4.31 3.681 20.617 3.682-37.544 3.68 41.335 3.682 15.753 3.68-38.188 3.682 75.468 3.68-94.874 3.682 20.091 3.68-12.263 3.682 22.605 3.68-16.07 3.682 20.879 3.681-5.747 3.681-3.334 3.681 6.01 3.681-8.658 3.681 16.576 3.681-16.54 3.681-15.54 3.681 38.454 3.681-7.926 3.681-77.138 3.681 79.948 3.682-40.93 3.68 4.205 3.682 32.57 3.68-22.076 3.682-6.116 3.68-27.876 3.682 43.549 3.68-50.157 3.682 13.348 3.681 2.923 3.681 50.3 3.681-4.003 3.681-32.261 3.681 24.788 3.681-34.372 3.681-.916 3.681-28.006 3.681 57.666 3.681-65.824 3.681 37.14 3.681-19.999 3.682 22.559 3.68 23.752 3.682-2.662 3.68.907 3.682-23.039 3.68-56.651 3.682 87.91 3.68-63.864 3.682 22.43 3.68 11.226 3.682-10.433 3.681 16.001 3.681-7.916 3.681 10.956 3.681-25.891 3.681 70.71 3.681-17.166 3.681-19.405 3.681 1.34 3.681-39.342 3.681 5.525 3.681 8.63 3.682-5.276 3.68-51.01 3.682 98.713 3.68-41.348 3.682 13.97 3.68 34.069 3.682-30.488 3.68 13.344 3.682-46.02 3.681 50.065 3.681-23.426 3.681 21.621 3.681-27.458 3.681-19.46 3.681 26.189 3.681 12.275 3.681-41.431 3.681 36.268 3.681-15.58 3.681-21.971 3.681-2.624L523 112.71l3.68 43.274 3.682-55.214 3.68 6.013 3.682 63.789 3.68-66.814 3.682 40.754 3.68 15.482 3.682-5.534 7.362-64.093 3.681 89.947 3.681-39.447 3.681-2.598 3.681-48.565 3.681 31.789 3.681-27.133 3.681-7.687 3.681 86.966 3.681-113.364 3.681 91.09 3.682 11.852 3.68-35.634 3.682 8.272 3.68-33.437 3.682 28.724 3.68-15.661 3.682-26.51 3.68-18.86 3.682 46.884 3.68 2.03 3.682-6.187 3.681-35.389 3.681 45.22 3.681-40.847 3.681 83.635 3.681-55.769 3.681 34.18 3.681 4.879 3.681-11.294 3.681-71.971 3.681 88.58 3.681-42.728 3.682-28.708" clip-path="url(#v)" style="fill:none;stroke:#ff7f0e;stroke-width:1.5;stroke-linecap:butt;stroke-linejoin:round;stroke-miterlimit:10;stroke-dasharray:5.55,2.4;stroke-dashoffset:0;stroke-opacity:1" transform="matrix(1.33333 0 0 -1.33333 0 591.142)"/><path d="m84.954 160.646 3.681-36.72h18.405l3.681-11.02h3.681l3.681-2.642h7.362l3.682-4.583h11.042l3.682-6.351h44.172l3.681-7.889h58.897" clip-path="url(#w)" style="fill:none;stroke:#2ca02c;stroke-width:1.5;stroke-linecap:square;stroke-linejoin:round;stroke-miterlimit:10;stroke-dasharray:none;stroke-opacity:1" transform="matrix(1.33333 0 0 -1.33333 0 591.142)"/><path d="m84.954 160.646 3.681-36.72 3.681 27.576 3.681 8 3.681-35.483 3.681 27.098 3.681-25.67 3.681-12.54 3.681 29.314 3.681-31.957 3.681 46.15 3.681-40.924 3.682-9.81 3.68 4.583 3.682 4.447 3.68-1.482 3.682-13.898 3.68 74.177 3.682 26.63 3.68-25.789 3.682-4.386 3.68-36.442 3.682-22.277 3.681 64.272 3.681 11.284 3.681-30.602 3.681 80.934 3.681-34.262 3.681-43.92 3.681-67.508 3.681 68.365 3.681 22.39 3.681 36.955 3.682-35.639 3.68-21.657 3.682 49.716 3.68-39.167 3.682-37.16 3.68 33.44 3.682 35.798 3.68-20.484 3.682 14.745 3.68-43.323 3.682-.331 3.681 77.621 3.681 8.334" clip-path="url(#x)" style="fill:none;stroke:#2ca02c;stroke-width:1.5;stroke-linecap:butt;stroke-linejoin:round;stroke-miterlimit:10;stroke-dasharray:5.55,2.4;stroke-dashoffset:0;stroke-opacity:1" transform="matrix(1.33333 0 0 -1.33333 0 591.142)"/><path d="M538.131 336.625H704.1q2 0 2 2v87.031q0 2-2 2H538.131q-2 0-2-2v-87.031q0-2 2-2z" style="fill:#fff;fill-opacity:.8;fill-rule:nonzero;stroke:#ccc;stroke-width:1;stroke-linecap:butt;stroke-linejoin:miter;stroke-miterlimit:10;stroke-dasharray:none;stroke-opacity:.8" transform="matrix(1.33333 0 0 -1.33333 0 591.142)"/><path d="M540.131 419.562h20" style="fill:none;stroke:#1f77b4;stroke-width:1.5;stroke-linecap:square;stroke-linejoin:round;stroke-miterlimit:10;stroke-dasharray:none;stroke-opacity:1" transform="matrix(1.33333 0 0 -1.33333 0 591.142)"/><text xml:space="preserve" transform="translate(757.508 36.392)scale(1.33333)"><tspan x="0" y="0" style="font-variant:normal;font-weight:400;font-size:10px;font-family:&quot;DejaVu Sans&quot;;writing-mode:lr-tb;fill:#000;fill-opacity:1;fill-rule:nonzero;stroke:none">DES Best</tspan></text><path d="M540.131 404.89h20" style="fill:none;stroke:#1f77b4;stroke-width:1.5;stroke-linecap:butt;stroke-linejoin:round;stroke-miterlimit:10;stroke-dasharray:5.55,2.4;stroke-dashoffset:0;stroke-opacity:1" transform="matrix(1.33333 0 0 -1.33333 0 591.142)"/><text xml:space="preserve" transform="translate(757.508 55.954)scale(1.33333)"><tspan x="0" y="0" style="font-variant:normal;font-weight:400;font-size:10px;font-family:&quot;DejaVu Sans&quot;;writing-mode:lr-tb;fill:#000;fill-opacity:1;fill-rule:nonzero;stroke:none">DES Best in generation</tspan></text><path d="M540.131 390.219h20" style="fill:none;stroke:#ff7f0e;stroke-width:1.5;stroke-linecap:square;stroke-linejoin:round;stroke-miterlimit:10;stroke-dasharray:none;stroke-opacity:1" transform="matrix(1.33333 0 0 -1.33333 0 591.142)"/><text xml:space="preserve" transform="translate(757.508 75.517)scale(1.33333)"><tspan x="0" y="0" style="font-variant:normal;font-weight:400;font-size:10px;font-family:&quot;DejaVu Sans&quot;;writing-mode:lr-tb;fill:#000;fill-opacity:1;fill-rule:nonzero;stroke:none">CMA-ES Best</tspan></text><path d="M540.131 375.547h20" style="fill:none;stroke:#ff7f0e;stroke-width:1.5;stroke-linecap:butt;stroke-linejoin:round;stroke-miterlimit:10;stroke-dasharray:5.55,2.4;stroke-dashoffset:0;stroke-opacity:1" transform="matrix(1.33333 0 0 -1.33333 0 591.142)"/><text xml:space="preserve" transform="translate(757.508 95.08)scale(1.33333)"><tspan x="0" y="0" style="font-variant:normal;font-weight:400;font-size:10px;font-family:&quot;DejaVu Sans&quot;;writing-mode:lr-tb;fill:#000;fill-opacity:1;fill-rule:nonzero;stroke:none">CMA-ES Best in generation</tspan></text><path d="M540.131 360.875h20" style="fill:none;stroke:#2ca02c;stroke-width:1.5;stroke-linecap:square;stroke-linejoin:round;stroke-miterlimit:10;stroke-dasharray:none;stroke-opacity:1" transform="matrix(1.33333 0 0 -1.33333 0 591.142)"/><text xml:space="preserve" transform="translate(757.508 114.642)scale(1.33333)"><tspan x="0" y="0" style="font-variant:normal;font-weight:400;font-size:10px;font-family:&quot;DejaVu Sans&quot;;writing-mode:lr-tb;fill:#000;fill-opacity:1;fill-rule:nonzero;stroke:none">jSO Best</tspan></text><path d="M540.131 346.203h20" style="fill:none;stroke:#2ca02c;stroke-width:1.5;stroke-linecap:butt;stroke-linejoin:round;stroke-miterlimit:10;stroke-dasharray:5.55,2.4;stroke-dashoffset:0;stroke-opacity:1" transform="matrix(1.33333 0 0 -1.33333 0 591.142)"/><text xml:space="preserve" transform="translate(757.508 134.204)scale(1.33333)"><tspan x="0" y="0" style="font-variant:normal;font-weight:400;font-size:10px;font-family:&quot;DejaVu Sans&quot;;writing-mode:lr-tb;fill:#000;fill-opacity:1;fill-rule:nonzero;stroke:none">jSO Best in generation</tspan></text></svg>