<svg xmlns="http://www.w3.org/2000/svg" width="962.4" height="591.142" viewBox="0 0 962.4 591.142"><defs><clipPath id="a" clipPathUnits="userSpaceOnUse"><path d="M45.278 42.544H711.1v391.612H45.278Z"/></clipPath><clipPath id="b" clipPathUnits="userSpaceOnUse"><path d="M45.278 42.544H711.1v391.612H45.278Z"/></clipPath><clipPath id="c" clipPathUnits="userSpaceOnUse"><path d="M45.278 42.544H711.1v391.612H45.278Z"/></clipPath><clipPath id="d" clipPathUnits="userSpaceOnUse"><path d="M45.278 42.544H711.1v391.612H45.278Z"/></clipPath><clipPath id="e" clipPathUnits="userSpaceOnUse"><path d="M45.278 42.544H711.1v391.612H45.278Z"/></clipPath><clipPath id="f" clipPathUnits="userSpaceOnUse"><path d="M45.278 42.544H711.1v391.612H45.278Z"/></clipPath><clipPath id="g" clipPathUnits="userSpaceOnUse"><path d="M45.278 42.544H711.1v391.612H45.278Z"/></clipPath><clipPath id="h" clipPathUnits="userSpaceOnUse"><path d="M45.278 42.544H711.1v391.612H45.278Z"/></clipPath><clipPath id="i" clipPathUnits="userSpaceOnUse"><path d="M45.278 42.544H711.1v391.612H45.278Z"/></clipPath><clipPath id="j" clipPathUnits="userSpaceOnUse"><path d="M45.278 42.544H711.1v391.612H45.278Z"/></clipPath><clipPath id="k" clipPathUnits="userSpaceOnUse"><path d="M45.278 42.544H711.1v391.612H45.278Z"/></clipPath><clipPath id="l" clipPathUnits="userSpaceOnUse"><path d="M45.278 42.544H711.1v391.612H45.278Z"/></clipPath><clipPath id="m" clipPathUnits="userSpaceOnUse"><path d="M45.278 42.544H711.1v391.612H45.278Z"/></clipPath><clipPath id="n" clipPathUnits="userSpaceOnUse"><path d="M45.278 42.544H711.1v391.612H45.278Z"/></clipPath><clipPath id="o" clipPathUnits="userSpaceOnUse"><path d="M45.278 42.544H711.1v391.612H45.278Z"/></clipPath><clipPath id="q" clipPathUnits="userSpaceOnUse"><path d="M-4.743-4.743h9.486v9.486h-9.486Z"/></clipPath><clipPath id="p" clipPathUnits="userSpaceOnUse"><path d="M60.37 534.417h887.763V12.267H60.371Z"/></clipPath><clipPath id="s" clipPathUnits="userSpaceOnUse"><path d="M-4.743-4.743h9.486v9.486h-9.486Z"/></clipPath><clipPath id="r" clipPathUnits="userSpaceOnUse"><path d="M60.37 534.417h887.763V12.267H60.371Z"/></clipPath><clipPath id="u" clipPathUnits="userSpaceOnUse"><path d="M-4.743-4.743h9.486v9.486h-9.486Z"/></clipPath><clipPath id="t" clipPathUnits="userSpaceOnUse"><path d="M60.37 534.417h887.763V12.267H60.371Z"/></clipPath><clipPath id="w" clipPathUnits="userSpaceOnUse"><path d="M-4.743-4.743h9.486v9.486h-9.486Z"/></clipPath><clipPath id="v" clipPathUnits="userSpaceOnUse"><path d="M60.37 534.417h887.763V12.267H60.371Z"/></clipPath><clipPath id="y" clipPathUnits="userSpaceOnUse"><path d="M-4.743-4.743h9.486v9.486h-9.486Z"/></clipPath><clipPath id="x" clipPathUnits="userSpaceOnUse"><path d="M60.37 534.417h887.763V12.267H60.371Z"/></clipPath><clipPath id="A" clipPathUnits="userSpaceOnUse"><path d="M-4.743-4.743h9.486v9.486h-9.486Z"/></clipPath><clipPath id="z" clipPathUnits="userSpaceOnUse"><path d="M60.37 534.417h887.763V12.267H60.371Z"/></clipPath><clipPath id="C" clipPathUnits="userSpaceOnUse"><path d="M-4.743-4.743h9.486v9.486h-9.486Z"/></clipPath><clipPath id="B" clipPathUnits="userSpaceOnUse"><path d="M60.37 534.417h887.763V12.267H60.371Z"/></clipPath><clipPath id="E" clipPathUnits="userSpaceOnUse"><path d="M-4.743-4.743h9.486v9.486h-9.486Z"/></clipPath><clipPath id="D" clipPathUnits="userSpaceOnUse"><path d="M60.37 534.417h887.763V12.267H60.371Z"/></clipPath><clipPath id="G" clipPathUnits="userSpaceOnUse"><path d="M-4.743-4.743h9.486v9.486h-9.486Z"/></clipPath><clipPath id="F" clipPathUnits="userSpaceOnUse"><path d="M60.37 534.417h887.763V12.267H60.371Z"/></clipPath><clipPath id="I" clipPathUnits="userSpaceOnUse"><path d="M-4.743-4.743h9.486v9.486h-9.486Z"/></clipPath><clipPath id="H" clipPathUnits="userSpaceOnUse"><path d="M60.37 534.417h887.763V12.267H60.371Z"/></clipPath><clipPath id="K" clipPathUnits="userSpaceOnUse"><path d="M-4.743-4.743h9.486v9.486h-9.486Z"/></clipPath><clipPath id="J" clipPathUnits="userSpaceOnUse"><path d="M60.37 534.417h887.763V12.267H60.371Z"/></clipPath><clipPath id="M" clipPathUnits="userSpaceOnUse"><path d="M-4.743-4.743h9.486v9.486h-9.486Z"/></clipPath><clipPath id="L" clipPathUnits="userSpaceOnUse"><path d="M60.37 534.417h887.763V12.267H60.371Z"/></clipPath><clipPath id="O" clipPathUnits="userSpaceOnUse"><path d="M-4.743-4.743h9.486v9.486h-9.486Z"/></clipPath><clipPath id="N" clipPathUnits="userSpaceOnUse"><path d="M60.37 534.417h887.763V12.267H60.371Z"/></clipPath><clipPath id="Q" clipPathUnits="userSpaceOnUse"><path d="M-4.743-4.743h9.486v9.486h-9.486Z"/></clipPath><clipPath id="P" clipPathUnits="userSpaceOnUse"><path d="M60.37 534.417h887.763V12.267H60.371Z"/></clipPath><clipPath id="R" clipPathUnits="userSpaceOnUse"><path d="M45.278 42.544H711.1v391.612H45.278Z"/></clipPath><clipPath id="T" clipPathUnits="userSpaceOnUse"><path d="M-3.5-3.5h7v7h-7z"/></clipPath><clipPath id="S" clipPathUnits="userSpaceOnUse"><path d="M60.37 534.417h887.763V12.267H60.371Z"/></clipPath><clipPath id="V" clipPathUnits="userSpaceOnUse"><path d="M-3.5-3.5h7v7h-7z"/></clipPath><clipPath id="U" clipPathUnits="userSpaceOnUse"><path d="M60.37 534.417h887.763V12.267H60.371Z"/></clipPath><clipPath id="X" clipPathUnits="userSpaceOnUse"><path d="M-3.5-3.5h7v7h-7z"/></clipPath><clipPath id="W" clipPathUnits="userSpaceOnUse"><path d="M60.37 534.417h887.763V12.267H60.371Z"/></clipPath><clipPath id="Z" clipPathUnits="userSpaceOnUse"><path d="M-3.5-3.5h7v7h-7z"/></clipPath><clipPath id="Y" clipPathUnits="userSpaceOnUse"><path d="M60.37 534.417h887.763V12.267H60.371Z"/></clipPath><clipPath id="ab" clipPathUnits="userSpaceOnUse"><path d="M-3.5-3.5h7v7h-7z"/></clipPath><clipPath id="aa" clipPathUnits="userSpaceOnUse"><path d="M60.37 534.417h887.763V12.267H60.371Z"/></clipPath><clipPath id="ad" clipPathUnits="userSpaceOnUse"><path d="M-3.5-3.5h7v7h-7z"/></clipPath><clipPath id="ac" clipPathUnits="userSpaceOnUse"><path d="M60.37 534.417h887.763V12.267H60.371Z"/></clipPath><clipPath id="af" clipPathUnits="userSpaceOnUse"><path d="M-3.5-3.5h7v7h-7z"/></clipPath><clipPath id="ae" clipPathUnits="userSpaceOnUse"><path d="M60.37 534.417h887.763V12.267H60.371Z"/></clipPath><clipPath id="ah" clipPathUnits="userSpaceOnUse"><path d="M-3.5-3.5h7v7h-7z"/></clipPath><clipPath id="ag" clipPathUnits="userSpaceOnUse"><path d="M60.37 534.417h887.763V12.267H60.371Z"/></clipPath><clipPath id="aj" clipPathUnits="userSpaceOnUse"><path d="M-3.5-3.5h7v7h-7z"/></clipPath><clipPath id="ai" clipPathUnits="userSpaceOnUse"><path d="M60.37 534.417h887.763V12.267H60.371Z"/></clipPath><clipPath id="al" clipPathUnits="userSpaceOnUse"><path d="M-3.5-3.5h7v7h-7z"/></clipPath><clipPath id="ak" clipPathUnits="userSpaceOnUse"><path d="M60.37 534.417h887.763V12.267H60.371Z"/></clipPath><clipPath id="an" clipPathUnits="userSpaceOnUse"><path d="M-3.5-3.5h7v7h-7z"/></clipPath><clipPath id="am" clipPathUnits="userSpaceOnUse"><path d="M60.37 534.417h887.763V12.267H60.371Z"/></clipPath><clipPath id="ap" clipPathUnits="userSpaceOnUse"><path d="M-3.5-3.5h7v7h-7z"/></clipPath><clipPath id="ao" clipPathUnits="userSpaceOnUse"><path d="M60.37 534.417h887.763V12.267H60.371Z"/></clipPath><clipPath id="ar" clipPathUnits="userSpaceOnUse"><path d="M-3.5-3.5h7v7h-7z"/></clipPath><clipPath id="aq" clipPathUnits="userSpaceOnUse"><path d="M60.37 534.417h887.763V12.267H60.371Z"/></clipPath><clipPath id="at" clipPathUnits="userSpaceOnUse"><path d="M-3.5-3.5h7v7h-7z"/></clipPath><clipPath id="as" clipPathUnits="userSpaceOnUse"><path d="M60.37 534.417h887.763V12.267H60.371Z"/></clipPath><clipPath id="au" clipPathUnits="userSpaceOnUse"><path d="M45.278 42.544H711.1v391.612H45.278Z"/></clipPath><clipPath id="aw" clipPathUnits="userSpaceOnUse"><path d="M-3.5-3.5h7v7h-7z"/></clipPath><clipPath id="av" clipPathUnits="userSpaceOnUse"><path d="M60.37 534.417h887.763V12.267H60.371Z"/></clipPath><clipPath id="ay" clipPathUnits="userSpaceOnUse"><path d="M-3.5-3.5h7v7h-7z"/></clipPath><clipPath id="ax" clipPathUnits="userSpaceOnUse"><path d="M60.37 534.417h887.763V12.267H60.371Z"/></clipPath><clipPath id="aA" clipPathUnits="userSpaceOnUse"><path d="M-3.5-3.5h7v7h-7z"/></clipPath><clipPath id="az" clipPathUnits="userSpaceOnUse"><path d="M60.37 534.417h887.763V12.267H60.371Z"/></clipPath><clipPath id="aC" clipPathUnits="userSpaceOnUse"><path d="M-3.5-3.5h7v7h-7z"/></clipPath><clipPath id="aB" clipPathUnits="userSpaceOnUse"><path d="M60.37 534.417h887.763V12.267H60.371Z"/></clipPath><clipPath id="aE" clipPathUnits="userSpaceOnUse"><path d="M-3.5-3.5h7v7h-7z"/></clipPath><clipPath id="aD" clipPathUnits="userSpaceOnUse"><path d="M60.37 534.417h887.763V12.267H60.371Z"/></clipPath><clipPath id="aG" clipPathUnits="userSpaceOnUse"><path d="M-3.5-3.5h7v7h-7z"/></clipPath><clipPath id="aF" clipPathUnits="userSpaceOnUse"><path d="M60.37 534.417h887.763V12.267H60.371Z"/></clipPath><clipPath id="aI" clipPathUnits="userSpaceOnUse"><path d="M-3.5-3.5h7v7h-7z"/></clipPath><clipPath id="aH" clipPathUnits="userSpaceOnUse"><path d="M60.37 534.417h887.763V12.267H60.371Z"/></clipPath><clipPath id="aK" clipPathUnits="userSpaceOnUse"><path d="M-3.5-3.5h7v7h-7z"/></clipPath><clipPath id="aJ" clipPathUnits="userSpaceOnUse"><path d="M60.37 534.417h887.763V12.267H60.371Z"/></clipPath><clipPath id="aM" clipPathUnits="userSpaceOnUse"><path d="M-3.5-3.5h7v7h-7z"/></clipPath><clipPath id="aL" clipPathUnits="userSpaceOnUse"><path d="M60.37 534.417h887.763V12.267H60.371Z"/></clipPath><clipPath id="aO" clipPathUnits="userSpaceOnUse"><path d="M-3.5-3.5h7v7h-7z"/></clipPath><clipPath id="aN" clipPathUnits="userSpaceOnUse"><path d="M60.37 534.417h887.763V12.267H60.371Z"/></clipPath><clipPath id="aQ" clipPathUnits="userSpaceOnUse"><path d="M-3.5-3.5h7v7h-7z"/></clipPath><clipPath id="aP" clipPathUnits="userSpaceOnUse"><path d="M60.37 534.417h887.763V12.267H60.371Z"/></clipPath><clipPath id="aS" clipPathUnits="userSpaceOnUse"><path d="M-3.5-3.5h7v7h-7z"/></clipPath><clipPath id="aR" clipPathUnits="userSpaceOnUse"><path d="M60.37 534.417h887.763V12.267H60.371Z"/></clipPath><clipPath id="aU" clipPathUnits="userSpaceOnUse"><path d="M-3.5-3.5h7v7h-7z"/></clipPath><clipPath id="aT" clipPathUnits="userSpaceOnUse"><path d="M60.37 534.417h887.763V12.267H60.371Z"/></clipPath><clipPath id="aW" clipPathUnits="userSpaceOnUse"><path d="M-3.5-3.5h7v7h-7z"/></clipPath><clipPath id="aV" clipPathUnits="userSpaceOnUse"><path d="M60.37 534.417h887.763V12.267H60.371Z"/></clipPath></defs><path d="M69.429 42.544v391.612" clip-path="url(#a)" style="fill:none;stroke:#e6e6e6;stroke-width:1;stroke-linecap:square;stroke-linejoin:round;stroke-miterlimit:10;stroke-dasharray:none;stroke-opacity:1" transform="matrix(1.33333 0 0 -1.33333 0 591.142)"/><path d="M69.429 37.544v-3.5" style="fill:#000;fill-opacity:1;fill-rule:nonzero;stroke:#000;stroke-width:.8;stroke-linecap:butt;stroke-linejoin:round;stroke-miterlimit:10;stroke-dasharray:none;stroke-opacity:1" transform="matrix(1.33333 0 0 -1.33333 0 591.142)"/><text xml:space="preserve" transform="translate(88.332 560.542)scale(1.33333)"><tspan x="0" y="0" style="font-variant:normal;font-weight:400;font-size:10px;font-family:&quot;DejaVu Sans&quot;;writing-mode:lr-tb;fill:#000;fill-opacity:1;fill-rule:nonzero;stroke:none">0</tspan></text><path d="M156.773 42.544v391.612" clip-path="url(#b)" style="fill:none;stroke:#e6e6e6;stroke-width:1;stroke-linecap:square;stroke-linejoin:round;stroke-miterlimit:10;stroke-dasharray:none;stroke-opacity:1" transform="matrix(1.33333 0 0 -1.33333 0 591.142)"/><path d="M156.773 37.544v-3.5" style="fill:#000;fill-opacity:1;fill-rule:nonzero;stroke:#000;stroke-width:.8;stroke-linecap:butt;stroke-linejoin:round;stroke-miterlimit:10;stroke-dasharray:none;stroke-opacity:1" transform="matrix(1.33333 0 0 -1.33333 0 591.142)"/><text xml:space="preserve" transform="translate(196.311 560.542)scale(1.33333)"><tspan x="0" y="0" style="font-variant:normal;font-weight:400;font-size:10px;font-family:&quot;DejaVu Sans&quot;;writing-mode:lr-tb;fill:#000;fill-opacity:1;fill-rule:nonzero;stroke:none">100</tspan></text><path d="M244.116 42.544v391.612" clip-path="url(#c)" style="fill:none;stroke:#e6e6e6;stroke-width:1;stroke-linecap:square;stroke-linejoin:round;stroke-miterlimit:10;stroke-dasharray:none;stroke-opacity:1" transform="matrix(1.33333 0 0 -1.33333 0 591.142)"/><path d="M244.116 37.544v-3.5" style="fill:#000;fill-opacity:1;fill-rule:nonzero;stroke:#000;stroke-width:.8;stroke-linecap:butt;stroke-linejoin:round;stroke-miterlimit:10;stroke-dasharray:none;stroke-opacity:1" transform="matrix(1.33333 0 0 -1.33333 0 591.142)"/><text xml:space="preserve" transform="translate(312.77 560.542)scale(1.33333)"><tspan x="0" y="0" style="font-variant:normal;font-weight:400;font-size:10px;font-family:&quot;DejaVu Sans&quot;;writing-mode:lr-tb;fill:#000;fill-opacity:1;fill-rule:nonzero;stroke:none">200</tspan></text><path d="M331.46 42.544v391.612" clip-path="url(#d)" style="fill:none;stroke:#e6e6e6;stroke-width:1;stroke-linecap:square;stroke-linejoin:round;stroke-miterlimit:10;stroke-dasharray:none;stroke-opacity:1" transform="matrix(1.33333 0 0 -1.33333 0 591.142)"/><path d="M331.46 37.544v-3.5" style="fill:#000;fill-opacity:1;fill-rule:nonzero;stroke:#000;stroke-width:.8;stroke-linecap:butt;stroke-linejoin:round;stroke-miterlimit:10;stroke-dasharray:none;stroke-opacity:1" transform="matrix(1.33333 0 0 -1.33333 0 591.142)"/><text xml:space="preserve" transform="translate(429.228 560.542)scale(1.33333)"><tspan x="0" y="0" style="font-variant:normal;font-weight:400;font-size:10px;font-family:&quot;DejaVu Sans&quot;;writing-mode:lr-tb;fill:#000;fill-opacity:1;fill-rule:nonzero;stroke:none">300</tspan></text><path d="M418.804 42.544v391.612" clip-path="url(#e)" style="fill:none;stroke:#e6e6e6;stroke-width:1;stroke-linecap:square;stroke-linejoin:round;stroke-miterlimit:10;stroke-dasharray:none;stroke-opacity:1" transform="matrix(1.33333 0 0 -1.33333 0 591.142)"/><path d="M418.804 37.544v-3.5" style="fill:#000;fill-opacity:1;fill-rule:nonzero;stroke:#000;stroke-width:.8;stroke-linecap:butt;stroke-linejoin:round;stroke-miterlimit:10;stroke-dasharray:none;stroke-opacity:1" transform="matrix(1.33333 0 0 -1.33333 0 591.142)"/><text xml:space="preserve" transform="translate(545.687 560.542)scale(1.33333)"><tspan x="0" y="0" style="font-variant:normal;font-weight:400;font-size:10px;font-family:&quot;DejaVu Sans&quot;;writing-mode:lr-tb;fill:#000;fill-opacity:1;fill-rule:nonzero;stroke:none">400</tspan></text><path d="M506.148 42.544v391.612" clip-path="url(#f)" style="fill:none;stroke:#e6e6e6;stroke-width:1;stroke-linecap:square;stroke-linejoin:round;stroke-miterlimit:10;stroke-dasharray:none;stroke-opacity:1" transform="matrix(1.33333 0 0 -1.33333 0 591.142)"/><path d="M506.148 37.544v-3.5" style="fill:#000;fill-opacity:1;fill-rule:nonzero;stroke:#000;stroke-width:.8;stroke-linecap:butt;stroke-linejoin:round;stroke-miterlimit:10;stroke-dasharray:none;stroke-opacity:1" transform="matrix(1.33333 0 0 -1.33333 0 591.142)"/><text xml:space="preserve" transform="translate(662.145 560.542)scale(1.33333)"><tspan x="0" y="0" style="font-variant:normal;font-weight:400;font-size:10px;font-family:&quot;DejaVu Sans&quot;;writing-mode:lr-tb;fill:#000;fill-opacity:1;fill-rule:nonzero;stroke:none">500</tspan></text><path d="M593.492 42.544v391.612" clip-path="url(#g)" style="fill:none;stroke:#e6e6e6;stroke-width:1;stroke-linecap:square;stroke-linejoin:round;stroke-miterlimit:10;stroke-dasharray:none;stroke-opacity:1" transform="matrix(1.33333 0 0 -1.33333 0 591.142)"/><path d="M593.492 37.544v-3.5" style="fill:#000;fill-opacity:1;fill-rule:nonzero;stroke:#000;stroke-width:.8;stroke-linecap:butt;stroke-linejoin:round;stroke-miterlimit:10;stroke-dasharray:none;stroke-opacity:1" transform="matrix(1.33333 0 0 -1.33333 0 591.142)"/><text xml:space="preserve" transform="translate(778.603 560.542)scale(1.33333)"><tspan x="0" y="0" style="font-variant:normal;font-weight:400;font-size:10px;font-family:&quot;DejaVu Sans&quot;;writing-mode:lr-tb;fill:#000;fill-opacity:1;fill-rule:nonzero;stroke:none">600</tspan></text><path d="M680.835 42.544v391.612" clip-path="url(#h)" style="fill:none;stroke:#e6e6e6;stroke-width:1;stroke-linecap:square;stroke-linejoin:round;stroke-miterlimit:10;stroke-dasharray:none;stroke-opacity:1" transform="matrix(1.33333 0 0 -1.33333 0 591.142)"/><path d="M680.835 37.544v-3.5" style="fill:#000;fill-opacity:1;fill-rule:nonzero;stroke:#000;stroke-width:.8;stroke-linecap:butt;stroke-linejoin:round;stroke-miterlimit:10;stroke-dasharray:none;stroke-opacity:1" transform="matrix(1.33333 0 0 -1.33333 0 591.142)"/><text xml:space="preserve" transform="translate(895.062 560.542)scale(1.33333)"><tspan x="0" y="0" style="font-variant:normal;font-weight:400;font-size:10px;font-family:&quot;DejaVu Sans&quot;;writing-mode:lr-tb;fill:#000;fill-opacity:1;fill-rule:nonzero;stroke:none">700</tspan></text><text xml:space="preserve" transform="translate(434.825 578.77)scale(1.33333)"><tspan x="0" y="0" style="font-variant:normal;font-weight:400;font-size:10px;font-family:&quot;DejaVu Sans&quot;;writing-mode:lr-tb;fill:#000;fill-opacity:1;fill-rule:nonzero;stroke:none">Function evaluations</tspan></text><path d="M45.278 60.344H711.1" clip-path="url(#i)" style="fill:none;stroke:#e6e6e6;stroke-width:1;stroke-linecap:square;stroke-linejoin:round;stroke-miterlimit:10;stroke-dasharray:none;stroke-opacity:1" transform="matrix(1.33333 0 0 -1.33333 0 591.142)"/><text xml:space="preserve" transform="translate(27.83 515.745)scale(1.33333)"><tspan x="0" y="0" style="font-variant:normal;font-weight:400;font-size:10px;font-family:&quot;DejaVu Sans&quot;;writing-mode:lr-tb;fill:#000;fill-opacity:1;fill-rule:nonzero;stroke:none">0.0</tspan></text><path d="M45.278 133H711.1" clip-path="url(#j)" style="fill:none;stroke:#e6e6e6;stroke-width:1;stroke-linecap:square;stroke-linejoin:round;stroke-miterlimit:10;stroke-dasharray:none;stroke-opacity:1" transform="matrix(1.33333 0 0 -1.33333 0 591.142)"/><text xml:space="preserve" transform="translate(27.83 418.871)scale(1.33333)"><tspan x="0" y="0" style="font-variant:normal;font-weight:400;font-size:10px;font-family:&quot;DejaVu Sans&quot;;writing-mode:lr-tb;fill:#000;fill-opacity:1;fill-rule:nonzero;stroke:none">0.2</tspan></text><path d="M45.278 205.655H711.1" clip-path="url(#k)" style="fill:none;stroke:#e6e6e6;stroke-width:1;stroke-linecap:square;stroke-linejoin:round;stroke-miterlimit:10;stroke-dasharray:none;stroke-opacity:1" transform="matrix(1.33333 0 0 -1.33333 0 591.142)"/><text xml:space="preserve" transform="translate(27.83 321.997)scale(1.33333)"><tspan x="0" y="0" style="font-variant:normal;font-weight:400;font-size:10px;font-family:&quot;DejaVu Sans&quot;;writing-mode:lr-tb;fill:#000;fill-opacity:1;fill-rule:nonzero;stroke:none">0.4</tspan></text><path d="M45.278 278.31H711.1" clip-path="url(#l)" style="fill:none;stroke:#e6e6e6;stroke-width:1;stroke-linecap:square;stroke-linejoin:round;stroke-miterlimit:10;stroke-dasharray:none;stroke-opacity:1" transform="matrix(1.33333 0 0 -1.33333 0 591.142)"/><text xml:space="preserve" transform="translate(27.83 225.124)scale(1.33333)"><tspan x="0" y="0" style="font-variant:normal;font-weight:400;font-size:10px;font-family:&quot;DejaVu Sans&quot;;writing-mode:lr-tb;fill:#000;fill-opacity:1;fill-rule:nonzero;stroke:none">0.6</tspan></text><path d="M45.278 350.966H711.1" clip-path="url(#m)" style="fill:none;stroke:#e6e6e6;stroke-width:1;stroke-linecap:square;stroke-linejoin:round;stroke-miterlimit:10;stroke-dasharray:none;stroke-opacity:1" transform="matrix(1.33333 0 0 -1.33333 0 591.142)"/><text xml:space="preserve" transform="translate(27.83 128.25)scale(1.33333)"><tspan x="0" y="0" style="font-variant:normal;font-weight:400;font-size:10px;font-family:&quot;DejaVu Sans&quot;;writing-mode:lr-tb;fill:#000;fill-opacity:1;fill-rule:nonzero;stroke:none">0.8</tspan></text><path d="M45.278 423.621H711.1" clip-path="url(#n)" style="fill:none;stroke:#e6e6e6;stroke-width:1;stroke-linecap:square;stroke-linejoin:round;stroke-miterlimit:10;stroke-dasharray:none;stroke-opacity:1" transform="matrix(1.33333 0 0 -1.33333 0 591.142)"/><text xml:space="preserve" transform="translate(27.83 31.376)scale(1.33333)"><tspan x="0" y="0" style="font-variant:normal;font-weight:400;font-size:10px;font-family:&quot;DejaVu Sans&quot;;writing-mode:lr-tb;fill:#000;fill-opacity:1;fill-rule:nonzero;stroke:none">1.0</tspan></text><text xml:space="preserve" transform="rotate(-90 207.2 187.475)scale(1.33333)"><tspan x="0" y="0" style="font-variant:normal;font-weight:400;font-size:10px;font-family:&quot;DejaVu Sans&quot;;writing-mode:lr-tb;fill:#000;fill-opacity:1;fill-rule:nonzero;stroke:none">Proportion of function + target pairs</tspan></text><path d="M75.543 198.39h24.456l30.57 101.717 61.141 50.859h122.281l61.141 21.796h122.281l61.141 29.063 61.14 7.265h61.141" clip-path="url(#o)" style="fill:none;stroke:#1f77b4;stroke-width:1.5;stroke-linecap:square;stroke-linejoin:round;stroke-miterlimit:10;stroke-dasharray:none;stroke-opacity:1" transform="matrix(1.33333 0 0 -1.33333 0 591.142)"/><g clip-path="url(#p)"><path d="M0-4.243 4.243 0 0 4.243-4.243 0Z" clip-path="url(#q)" style="fill:#1f77b4;fill-opacity:1;fill-rule:nonzero;stroke:#1f77b4;stroke-width:1;stroke-linecap:butt;stroke-linejoin:miter;stroke-miterlimit:10;stroke-dasharray:none;stroke-opacity:1" transform="matrix(1.33333 0 0 -1.33333 100.724 326.622)"/></g><g clip-path="url(#r)"><path d="M0-4.243 4.243 0 0 4.243-4.243 0Z" clip-path="url(#s)" style="fill:#1f77b4;fill-opacity:1;fill-rule:nonzero;stroke:#1f77b4;stroke-width:1;stroke-linecap:butt;stroke-linejoin:miter;stroke-miterlimit:10;stroke-dasharray:none;stroke-opacity:1" transform="matrix(1.33333 0 0 -1.33333 108.876 326.622)"/></g><g clip-path="url(#t)"><path d="M0-4.243 4.243 0 0 4.243-4.243 0Z" clip-path="url(#u)" style="fill:#1f77b4;fill-opacity:1;fill-rule:nonzero;stroke:#1f77b4;stroke-width:1;stroke-linecap:butt;stroke-linejoin:miter;stroke-miterlimit:10;stroke-dasharray:none;stroke-opacity:1" transform="matrix(1.33333 0 0 -1.33333 117.028 326.622)"/></g><g clip-path="url(#v)"><path d="M0-4.243 4.243 0 0 4.243-4.243 0Z" clip-path="url(#w)" style="fill:#1f77b4;fill-opacity:1;fill-rule:nonzero;stroke:#1f77b4;stroke-width:1;stroke-linecap:butt;stroke-linejoin:miter;stroke-miterlimit:10;stroke-dasharray:none;stroke-opacity:1" transform="matrix(1.33333 0 0 -1.33333 133.332 326.622)"/></g><g clip-path="url(#x)"><path d="M0-4.243 4.243 0 0 4.243-4.243 0Z" clip-path="url(#y)" style="fill:#1f77b4;fill-opacity:1;fill-rule:nonzero;stroke:#1f77b4;stroke-width:1;stroke-linecap:butt;stroke-linejoin:miter;stroke-miterlimit:10;stroke-dasharray:none;stroke-opacity:1" transform="matrix(1.33333 0 0 -1.33333 174.092 190.999)"/></g><g clip-path="url(#z)"><path d="M0-4.243 4.243 0 0 4.243-4.243 0Z" clip-path="url(#A)" style="fill:#1f77b4;fill-opacity:1;fill-rule:nonzero;stroke:#1f77b4;stroke-width:1;stroke-linecap:butt;stroke-linejoin:miter;stroke-miterlimit:10;stroke-dasharray:none;stroke-opacity:1" transform="matrix(1.33333 0 0 -1.33333 255.613 123.187)"/></g><g clip-path="url(#B)"><path d="M0-4.243 4.243 0 0 4.243-4.243 0Z" clip-path="url(#C)" style="fill:#1f77b4;fill-opacity:1;fill-rule:nonzero;stroke:#1f77b4;stroke-width:1;stroke-linecap:butt;stroke-linejoin:miter;stroke-miterlimit:10;stroke-dasharray:none;stroke-opacity:1" transform="matrix(1.33333 0 0 -1.33333 337.134 123.187)"/></g><g clip-path="url(#D)"><path d="M0-4.243 4.243 0 0 4.243-4.243 0Z" clip-path="url(#E)" style="fill:#1f77b4;fill-opacity:1;fill-rule:nonzero;stroke:#1f77b4;stroke-width:1;stroke-linecap:butt;stroke-linejoin:miter;stroke-miterlimit:10;stroke-dasharray:none;stroke-opacity:1" transform="matrix(1.33333 0 0 -1.33333 418.655 123.187)"/></g><g clip-path="url(#F)"><path d="M0-4.243 4.243 0 0 4.243-4.243 0Z" clip-path="url(#G)" style="fill:#1f77b4;fill-opacity:1;fill-rule:nonzero;stroke:#1f77b4;stroke-width:1;stroke-linecap:butt;stroke-linejoin:miter;stroke-miterlimit:10;stroke-dasharray:none;stroke-opacity:1" transform="matrix(1.33333 0 0 -1.33333 500.176 94.125)"/></g><g clip-path="url(#H)"><path d="M0-4.243 4.243 0 0 4.243-4.243 0Z" clip-path="url(#I)" style="fill:#1f77b4;fill-opacity:1;fill-rule:nonzero;stroke:#1f77b4;stroke-width:1;stroke-linecap:butt;stroke-linejoin:miter;stroke-miterlimit:10;stroke-dasharray:none;stroke-opacity:1" transform="matrix(1.33333 0 0 -1.33333 581.697 94.125)"/></g><g clip-path="url(#J)"><path d="M0-4.243 4.243 0 0 4.243-4.243 0Z" clip-path="url(#K)" style="fill:#1f77b4;fill-opacity:1;fill-rule:nonzero;stroke:#1f77b4;stroke-width:1;stroke-linecap:butt;stroke-linejoin:miter;stroke-miterlimit:10;stroke-dasharray:none;stroke-opacity:1" transform="matrix(1.33333 0 0 -1.33333 663.218 94.125)"/></g><g clip-path="url(#L)"><path d="M0-4.243 4.243 0 0 4.243-4.243 0Z" clip-path="url(#M)" style="fill:#1f77b4;fill-opacity:1;fill-rule:nonzero;stroke:#1f77b4;stroke-width:1;stroke-linecap:butt;stroke-linejoin:miter;stroke-miterlimit:10;stroke-dasharray:none;stroke-opacity:1" transform="matrix(1.33333 0 0 -1.33333 744.739 55.376)"/></g><g clip-path="url(#N)"><path d="M0-4.243 4.243 0 0 4.243-4.243 0Z" clip-path="url(#O)" style="fill:#1f77b4;fill-opacity:1;fill-rule:nonzero;stroke:#1f77b4;stroke-width:1;stroke-linecap:butt;stroke-linejoin:miter;stroke-miterlimit:10;stroke-dasharray:none;stroke-opacity:1" transform="matrix(1.33333 0 0 -1.33333 826.26 45.688)"/></g><g clip-path="url(#P)"><path d="M0-4.243 4.243 0 0 4.243-4.243 0Z" clip-path="url(#Q)" style="fill:#1f77b4;fill-opacity:1;fill-rule:nonzero;stroke:#1f77b4;stroke-width:1;stroke-linecap:butt;stroke-linejoin:miter;stroke-miterlimit:10;stroke-dasharray:none;stroke-opacity:1" transform="matrix(1.33333 0 0 -1.33333 907.78 45.688)"/></g><path d="m75.543 234.717 6.114 36.328h18.342l30.57 79.92H252.85l61.141 29.063 61.141 21.797h61.14l61.141 7.265h61.141l61.14 7.266h61.141" clip-path="url(#R)" style="fill:none;stroke:#ff7f0e;stroke-width:1.5;stroke-linecap:butt;stroke-linejoin:round;stroke-miterlimit:10;stroke-dasharray:5.55,2.4;stroke-dashoffset:0;stroke-opacity:1" transform="matrix(1.33333 0 0 -1.33333 0 591.142)"/><g clip-path="url(#S)"><path d="M0-3a3 3 0 1 1 0 6 3 3 0 0 1 0-6Z" clip-path="url(#T)" style="fill:#ff7f0e;fill-opacity:1;fill-rule:nonzero;stroke:#ff7f0e;stroke-width:1;stroke-linecap:butt;stroke-linejoin:round;stroke-miterlimit:10;stroke-dasharray:none;stroke-opacity:1" transform="matrix(1.33333 0 0 -1.33333 100.724 278.185)"/></g><g clip-path="url(#U)"><path d="M0-3a3 3 0 1 1 0 6 3 3 0 0 1 0-6Z" clip-path="url(#V)" style="fill:#ff7f0e;fill-opacity:1;fill-rule:nonzero;stroke:#ff7f0e;stroke-width:1;stroke-linecap:butt;stroke-linejoin:round;stroke-miterlimit:10;stroke-dasharray:none;stroke-opacity:1" transform="matrix(1.33333 0 0 -1.33333 108.876 229.748)"/></g><g clip-path="url(#W)"><path d="M0-3a3 3 0 1 1 0 6 3 3 0 0 1 0-6Z" clip-path="url(#X)" style="fill:#ff7f0e;fill-opacity:1;fill-rule:nonzero;stroke:#ff7f0e;stroke-width:1;stroke-linecap:butt;stroke-linejoin:round;stroke-miterlimit:10;stroke-dasharray:none;stroke-opacity:1" transform="matrix(1.33333 0 0 -1.33333 117.028 229.748)"/></g><g clip-path="url(#Y)"><path d="M0-3a3 3 0 1 1 0 6 3 3 0 0 1 0-6Z" clip-path="url(#Z)" style="fill:#ff7f0e;fill-opacity:1;fill-rule:nonzero;stroke:#ff7f0e;stroke-width:1;stroke-linecap:butt;stroke-linejoin:round;stroke-miterlimit:10;stroke-dasharray:none;stroke-opacity:1" transform="matrix(1.33333 0 0 -1.33333 133.332 229.748)"/></g><g clip-path="url(#aa)"><path d="M0-3a3 3 0 1 1 0 6 3 3 0 0 1 0-6Z" clip-path="url(#ab)" style="fill:#ff7f0e;fill-opacity:1;fill-rule:nonzero;stroke:#ff7f0e;stroke-width:1;stroke-linecap:butt;stroke-linejoin:round;stroke-miterlimit:10;stroke-dasharray:none;stroke-opacity:1" transform="matrix(1.33333 0 0 -1.33333 174.092 123.187)"/></g><g clip-path="url(#ac)"><path d="M0-3a3 3 0 1 1 0 6 3 3 0 0 1 0-6Z" clip-path="url(#ad)" style="fill:#ff7f0e;fill-opacity:1;fill-rule:nonzero;stroke:#ff7f0e;stroke-width:1;stroke-linecap:butt;stroke-linejoin:round;stroke-miterlimit:10;stroke-dasharray:none;stroke-opacity:1" transform="matrix(1.33333 0 0 -1.33333 255.613 123.187)"/></g><g clip-path="url(#ae)"><path d="M0-3a3 3 0 1 1 0 6 3 3 0 0 1 0-6Z" clip-path="url(#af)" style="fill:#ff7f0e;fill-opacity:1;fill-rule:nonzero;stroke:#ff7f0e;stroke-width:1;stroke-linecap:butt;stroke-linejoin:round;stroke-miterlimit:10;stroke-dasharray:none;stroke-opacity:1" transform="matrix(1.33333 0 0 -1.33333 337.134 123.187)"/></g><g clip-path="url(#ag)"><path d="M0-3a3 3 0 1 1 0 6 3 3 0 0 1 0-6Z" clip-path="url(#ah)" style="fill:#ff7f0e;fill-opacity:1;fill-rule:nonzero;stroke:#ff7f0e;stroke-width:1;stroke-linecap:butt;stroke-linejoin:round;stroke-miterlimit:10;stroke-dasharray:none;stroke-opacity:1" transform="matrix(1.33333 0 0 -1.33333 418.655 84.438)"/></g><g clip-path="url(#ai)"><path d="M0-3a3 3 0 1 1 0 6 3 3 0 0 1 0-6Z" clip-path="url(#aj)" style="fill:#ff7f0e;fill-opacity:1;fill-rule:nonzero;stroke:#ff7f0e;stroke-width:1;stroke-linecap:butt;stroke-linejoin:round;stroke-miterlimit:10;stroke-dasharray:none;stroke-opacity:1" transform="matrix(1.33333 0 0 -1.33333 500.176 55.376)"/></g><g clip-path="url(#ak)"><path d="M0-3a3 3 0 1 1 0 6 3 3 0 0 1 0-6Z" clip-path="url(#al)" style="fill:#ff7f0e;fill-opacity:1;fill-rule:nonzero;stroke:#ff7f0e;stroke-width:1;stroke-linecap:butt;stroke-linejoin:round;stroke-miterlimit:10;stroke-dasharray:none;stroke-opacity:1" transform="matrix(1.33333 0 0 -1.33333 581.697 55.376)"/></g><g clip-path="url(#am)"><path d="M0-3a3 3 0 1 1 0 6 3 3 0 0 1 0-6Z" clip-path="url(#an)" style="fill:#ff7f0e;fill-opacity:1;fill-rule:nonzero;stroke:#ff7f0e;stroke-width:1;stroke-linecap:butt;stroke-linejoin:round;stroke-miterlimit:10;stroke-dasharray:none;stroke-opacity:1" transform="matrix(1.33333 0 0 -1.33333 663.218 45.688)"/></g><g clip-path="url(#ao)"><path d="M0-3a3 3 0 1 1 0 6 3 3 0 0 1 0-6Z" clip-path="url(#ap)" style="fill:#ff7f0e;fill-opacity:1;fill-rule:nonzero;stroke:#ff7f0e;stroke-width:1;stroke-linecap:butt;stroke-linejoin:round;stroke-miterlimit:10;stroke-dasharray:none;stroke-opacity:1" transform="matrix(1.33333 0 0 -1.33333 744.739 45.688)"/></g><g clip-path="url(#aq)"><path d="M0-3a3 3 0 1 1 0 6 3 3 0 0 1 0-6Z" clip-path="url(#ar)" style="fill:#ff7f0e;fill-opacity:1;fill-rule:nonzero;stroke:#ff7f0e;stroke-width:1;stroke-linecap:butt;stroke-linejoin:round;stroke-miterlimit:10;stroke-dasharray:none;stroke-opacity:1" transform="matrix(1.33333 0 0 -1.33333 826.26 36)"/></g><g clip-path="url(#as)"><path d="M0-3a3 3 0 1 1 0 6 3 3 0 0 1 0-6Z" clip-path="url(#at)" style="fill:#ff7f0e;fill-opacity:1;fill-rule:nonzero;stroke:#ff7f0e;stroke-width:1;stroke-linecap:butt;stroke-linejoin:round;stroke-miterlimit:10;stroke-dasharray:none;stroke-opacity:1" transform="matrix(1.33333 0 0 -1.33333 907.78 36)"/></g><path d="M75.543 60.344h6.114l6.114 159.842 12.228 72.656h30.57l61.141 43.593h122.281l61.141 14.53 61.14 7.266h61.141l61.141 14.531h61.14l61.141 7.266" clip-path="url(#au)" style="fill:none;stroke:#2ca02c;stroke-width:1.5;stroke-linecap:butt;stroke-linejoin:round;stroke-miterlimit:10;stroke-dasharray:9.6,2.4,1.5,2.4;stroke-dashoffset:0;stroke-opacity:1" transform="matrix(1.33333 0 0 -1.33333 0 591.142)"/><g clip-path="url(#av)"><path d="m0 3-3-6h6Z" clip-path="url(#aw)" style="fill:#2ca02c;fill-opacity:1;fill-rule:nonzero;stroke:#2ca02c;stroke-width:1;stroke-linecap:butt;stroke-linejoin:miter;stroke-miterlimit:10;stroke-dasharray:none;stroke-opacity:1" transform="matrix(1.33333 0 0 -1.33333 100.724 510.683)"/></g><g clip-path="url(#ax)"><path d="m0 3-3-6h6Z" clip-path="url(#ay)" style="fill:#2ca02c;fill-opacity:1;fill-rule:nonzero;stroke:#2ca02c;stroke-width:1;stroke-linecap:butt;stroke-linejoin:miter;stroke-miterlimit:10;stroke-dasharray:none;stroke-opacity:1" transform="matrix(1.33333 0 0 -1.33333 108.876 510.683)"/></g><g clip-path="url(#az)"><path d="m0 3-3-6h6Z" clip-path="url(#aA)" style="fill:#2ca02c;fill-opacity:1;fill-rule:nonzero;stroke:#2ca02c;stroke-width:1;stroke-linecap:butt;stroke-linejoin:miter;stroke-miterlimit:10;stroke-dasharray:none;stroke-opacity:1" transform="matrix(1.33333 0 0 -1.33333 117.028 297.56)"/></g><g clip-path="url(#aB)"><path d="m0 3-3-6h6Z" clip-path="url(#aC)" style="fill:#2ca02c;fill-opacity:1;fill-rule:nonzero;stroke:#2ca02c;stroke-width:1;stroke-linecap:butt;stroke-linejoin:miter;stroke-miterlimit:10;stroke-dasharray:none;stroke-opacity:1" transform="matrix(1.33333 0 0 -1.33333 133.332 200.686)"/></g><g clip-path="url(#aD)"><path d="m0 3-3-6h6Z" clip-path="url(#aE)" style="fill:#2ca02c;fill-opacity:1;fill-rule:nonzero;stroke:#2ca02c;stroke-width:1;stroke-linecap:butt;stroke-linejoin:miter;stroke-miterlimit:10;stroke-dasharray:none;stroke-opacity:1" transform="matrix(1.33333 0 0 -1.33333 174.092 200.686)"/></g><g clip-path="url(#aF)"><path d="m0 3-3-6h6Z" clip-path="url(#aG)" style="fill:#2ca02c;fill-opacity:1;fill-rule:nonzero;stroke:#2ca02c;stroke-width:1;stroke-linecap:butt;stroke-linejoin:miter;stroke-miterlimit:10;stroke-dasharray:none;stroke-opacity:1" transform="matrix(1.33333 0 0 -1.33333 255.613 142.562)"/></g><g clip-path="url(#aH)"><path d="m0 3-3-6h6Z" clip-path="url(#aI)" style="fill:#2ca02c;fill-opacity:1;fill-rule:nonzero;stroke:#2ca02c;stroke-width:1;stroke-linecap:butt;stroke-linejoin:miter;stroke-miterlimit:10;stroke-dasharray:none;stroke-opacity:1" transform="matrix(1.33333 0 0 -1.33333 337.134 142.562)"/></g><g clip-path="url(#aJ)"><path d="m0 3-3-6h6Z" clip-path="url(#aK)" style="fill:#2ca02c;fill-opacity:1;fill-rule:nonzero;stroke:#2ca02c;stroke-width:1;stroke-linecap:butt;stroke-linejoin:miter;stroke-miterlimit:10;stroke-dasharray:none;stroke-opacity:1" transform="matrix(1.33333 0 0 -1.33333 418.655 142.562)"/></g><g clip-path="url(#aL)"><path d="m0 3-3-6h6Z" clip-path="url(#aM)" style="fill:#2ca02c;fill-opacity:1;fill-rule:nonzero;stroke:#2ca02c;stroke-width:1;stroke-linecap:butt;stroke-linejoin:miter;stroke-miterlimit:10;stroke-dasharray:none;stroke-opacity:1" transform="matrix(1.33333 0 0 -1.33333 500.176 123.187)"/></g><g clip-path="url(#aN)"><path d="m0 3-3-6h6Z" clip-path="url(#aO)" style="fill:#2ca02c;fill-opacity:1;fill-rule:nonzero;stroke:#2ca02c;stroke-width:1;stroke-linecap:butt;stroke-linejoin:miter;stroke-miterlimit:10;stroke-dasharray:none;stroke-opacity:1" transform="matrix(1.33333 0 0 -1.33333 581.697 113.5)"/></g><g clip-path="url(#aP)"><path d="m0 3-3-6h6Z" clip-path="url(#aQ)" style="fill:#2ca02c;fill-opacity:1;fill-rule:nonzero;stroke:#2ca02c;stroke-width:1;stroke-linecap:butt;stroke-linejoin:miter;stroke-miterlimit:10;stroke-dasharray:none;stroke-opacity:1" transform="matrix(1.33333 0 0 -1.33333 663.218 113.5)"/></g><g clip-path="url(#aR)"><path d="m0 3-3-6h6Z" clip-path="url(#aS)" style="fill:#2ca02c;fill-opacity:1;fill-rule:nonzero;stroke:#2ca02c;stroke-width:1;stroke-linecap:butt;stroke-linejoin:miter;stroke-miterlimit:10;stroke-dasharray:none;stroke-opacity:1" transform="matrix(1.33333 0 0 -1.33333 744.739 94.125)"/></g><g clip-path="url(#aT)"><path d="m0 3-3-6h6Z" clip-path="url(#aU)" style="fill:#2ca02c;fill-opacity:1;fill-rule:nonzero;stroke:#2ca02c;stroke-width:1;stroke-linecap:butt;stroke-linejoin:miter;stroke-miterlimit:10;stroke-dasharray:none;stroke-opacity:1" transform="matrix(1.33333 0 0 -1.33333 826.26 94.125)"/></g><g clip-path="url(#aV)"><path d="m0 3-3-6h6Z" clip-path="url(#aW)" style="fill:#2ca02c;fill-opacity:1;fill-rule:nonzero;stroke:#2ca02c;stroke-width:1;stroke-linecap:butt;stroke-linejoin:miter;stroke-miterlimit:10;stroke-dasharray:none;stroke-opacity:1" transform="matrix(1.33333 0 0 -1.33333 907.78 84.438)"/></g><path d="M633.381 47.544H704.1q2 0 2 2v43.015q0 2-2 2h-70.719q-2 0-2-2V49.544q0-2 2-2z" style="fill:#fff;fill-opacity:.8;fill-rule:nonzero;stroke:#ccc;stroke-width:1;stroke-linecap:butt;stroke-linejoin:miter;stroke-miterlimit:10;stroke-dasharray:none;stroke-opacity:.8" transform="matrix(1.33333 0 0 -1.33333 0 591.142)"/><path d="M635.381 86.466h20" style="fill:none;stroke:#1f77b4;stroke-width:1.5;stroke-linecap:square;stroke-linejoin:round;stroke-miterlimit:10;stroke-dasharray:none;stroke-opacity:1" transform="matrix(1.33333 0 0 -1.33333 0 591.142)"/><path d="m645.381 82.223 4.243 4.243-4.243 4.242-4.242-4.242z" style="fill:#1f77b4;fill-opacity:1;fill-rule:nonzero;stroke:#1f77b4;stroke-width:1;stroke-linecap:butt;stroke-linejoin:miter;stroke-miterlimit:10;stroke-dasharray:none;stroke-opacity:1" transform="matrix(1.33333 0 0 -1.33333 0 591.142)"/><text xml:space="preserve" transform="translate(884.508 480.52)scale(1.33333)"><tspan x="0" y="0" style="font-variant:normal;font-weight:400;font-size:10px;font-family:&quot;DejaVu Sans&quot;;writing-mode:lr-tb;fill:#000;fill-opacity:1;fill-rule:nonzero;stroke:none">DES</tspan></text><path d="M635.381 71.794h20" style="fill:none;stroke:#ff7f0e;stroke-width:1.5;stroke-linecap:butt;stroke-linejoin:round;stroke-miterlimit:10;stroke-dasharray:5.55,2.4;stroke-dashoffset:0;stroke-opacity:1" transform="matrix(1.33333 0 0 -1.33333 0 591.142)"/><path d="M645.381 68.794a3 3 0 1 1 0 6 3 3 0 0 1 0-6z" style="fill:#ff7f0e;fill-opacity:1;fill-rule:nonzero;stroke:#ff7f0e;stroke-width:1;stroke-linecap:butt;stroke-linejoin:round;stroke-miterlimit:10;stroke-dasharray:none;stroke-opacity:1" transform="matrix(1.33333 0 0 -1.33333 0 591.142)"/><text xml:space="preserve" transform="translate(884.508 500.083)scale(1.33333)"><tspan x="0" y="0" style="font-variant:normal;font-weight:400;font-size:10px;font-family:&quot;DejaVu Sans&quot;;writing-mode:lr-tb;fill:#000;fill-opacity:1;fill-rule:nonzero;stroke:none">CMA-ES</tspan></text><path d="M635.381 57.122h20" style="fill:none;stroke:#2ca02c;stroke-width:1.5;stroke-linecap:butt;stroke-linejoin:round;stroke-miterlimit:10;stroke-dasharray:9.6,2.4,1.5,2.4;stroke-dashoffset:0;stroke-opacity:1" transform="matrix(1.33333 0 0 -1.33333 0 591.142)"/><path d="m645.381 60.122-3-6h6z" style="fill:#2ca02c;fill-opacity:1;fill-rule:nonzero;stroke:#2ca02c;stroke-width:1;stroke-linecap:butt;stroke-linejoin:miter;stroke-miterlimit:10;stroke-dasharray:none;stroke-opacity:1" transform="matrix(1.33333 0 0 -1.33333 0 591.142)"/><text xml:space="preserve" transform="translate(884.508 519.646)scale(1.33333)"><tspan x="0" y="0" style="font-variant:normal;font-weight:400;font-size:10px;font-family:&quot;DejaVu Sans&quot;;writing-mode:lr-tb;fill:#000;fill-opacity:1;fill-rule:nonzero;stroke:none">jSO</tspan></text></svg>