<?xml version="1.0" encoding="UTF-8" standalone="no"?>
<!-- Created with Inkscape (http://www.inkscape.org/) -->

<svg
   version="1.1"
   id="svg1"
   width="962.40002"
   height="591.14166"
   viewBox="0 0 962.40002 591.14166"
   xmlns="http://www.w3.org/2000/svg"
   xmlns:svg="http://www.w3.org/2000/svg">
  <defs
     id="defs1">
    <clipPath
       clipPathUnits="userSpaceOnUse"
       id="clipPath2">
      <path
         d="M 48.778125,42.54375 H 711.1 V 432.65624 H 48.778125 Z"
         id="path2" />
    </clipPath>
    <clipPath
       clipPathUnits="userSpaceOnUse"
       id="clipPath5">
      <path
         d="M 48.778125,42.54375 H 711.1 V 432.65624 H 48.778125 Z"
         id="path5" />
    </clipPath>
    <clipPath
       clipPathUnits="userSpaceOnUse"
       id="clipPath8">
      <path
         d="M 48.778125,42.54375 H 711.1 V 432.65624 H 48.778125 Z"
         id="path8" />
    </clipPath>
    <clipPath
       clipPathUnits="userSpaceOnUse"
       id="clipPath11">
      <path
         d="M 48.778125,42.54375 H 711.1 V 432.65624 H 48.778125 Z"
         id="path11" />
    </clipPath>
    <clipPath
       clipPathUnits="userSpaceOnUse"
       id="clipPath14">
      <path
         d="M 48.778125,42.54375 H 711.1 V 432.65624 H 48.778125 Z"
         id="path14" />
    </clipPath>
    <clipPath
       clipPathUnits="userSpaceOnUse"
       id="clipPath17">
      <path
         d="M 48.778125,42.54375 H 711.1 V 432.65624 H 48.778125 Z"
         id="path17" />
    </clipPath>
    <clipPath
       clipPathUnits="userSpaceOnUse"
       id="clipPath20">
      <path
         d="M 48.778125,42.54375 H 711.1 V 432.65624 H 48.778125 Z"
         id="path20" />
    </clipPath>
    <clipPath
       clipPathUnits="userSpaceOnUse"
       id="clipPath23">
      <path
         d="M 48.778125,42.54375 H 711.1 V 432.65624 H 48.778125 Z"
         id="path23" />
    </clipPath>
    <clipPath
       clipPathUnits="userSpaceOnUse"
       id="clipPath26">
      <path
         d="M 48.778125,42.54375 H 711.1 V 432.65624 H 48.778125 Z"
         id="path26" />
    </clipPath>
    <clipPath
       clipPathUnits="userSpaceOnUse"
       id="clipPath29">
      <path
         d="M 48.778125,42.54375 H 711.1 V 432.65624 H 48.778125 Z"
         id="path29" />
    </clipPath>
    <clipPath
       clipPathUnits="userSpaceOnUse"
       id="clipPath32">
      <path
         d="M 48.778125,42.54375 H 711.1 V 432.65624 H 48.778125 Z"
         id="path32" />
    </clipPath>
    <clipPath
       clipPathUnits="userSpaceOnUse"
       id="clipPath34">
      <path
         d="M 48.778125,42.54375 H 711.1 V 432.65624 H 48.778125 Z"
         id="path34" />
    </clipPath>
    <clipPath
       clipPathUnits="userSpaceOnUse"
       id="clipPath36">
      <path
         d="M 48.778125,42.54375 H 711.1 V 432.65624 H 48.778125 Z"
         id="path36" />
    </clipPath>
    <clipPath
       clipPathUnits="userSpaceOnUse"
       id="clipPath38">
      <path
         d="M 48.778125,42.54375 H 711.1 V 432.65624 H 48.778125 Z"
         id="path38" />
    </clipPath>
    <clipPath
       clipPathUnits="userSpaceOnUse"
       id="clipPath40">
      <path
         d="M 48.778125,42.54375 H 711.1 V 432.65624 H 48.778125 Z"
         id="path40" />
    </clipPath>
    <clipPath
       clipPathUnits="userSpaceOnUse"
       id="clipPath42">
      <path
         d="M 48.778125,42.54375 H 711.1 V 432.65624 H 48.778125 Z"
         id="path42" />
    </clipPath>
  </defs>
  <g
     id="g1">
    <path
       id="path1"
       d="M 78.883665,42.54375 V 432.65624"
       style="fill:none;stroke:#e6e6e6;stroke-width:1;stroke-linecap:square;stroke-linejoin:round;stroke-miterlimit:10;stroke-dasharray:none;stroke-opacity:1"
       transform="matrix(1.3333333,0,0,-1.3333333,0,591.14166)"
       clip-path="url(#clipPath2)" />
    <path
       id="path3"
       d="m 78.883665,37.54375 v -3.5"
       style="fill:#000000;fill-opacity:1;fill-rule:nonzero;stroke:#000000;stroke-width:0.8;stroke-linecap:butt;stroke-linejoin:round;stroke-miterlimit:10;stroke-dasharray:none;stroke-opacity:1"
       transform="matrix(1.3333333,0,0,-1.3333333,0,591.14166)" />
    <text
       id="text3"
       xml:space="preserve"
       transform="matrix(1.3333333,0,0,1.3333333,100.93864,560.54166)"><tspan
         id="tspan3"
         style="font-variant:normal;font-weight:normal;font-size:10px;font-family:'DejaVu Sans';writing-mode:lr-tb;fill:#000000;fill-opacity:1;fill-rule:nonzero;stroke:none"
         x="0"
         y="0">0</tspan></text>
    <path
       id="path4"
       d="M 215.72703,42.54375 V 432.65624"
       style="fill:none;stroke:#e6e6e6;stroke-width:1;stroke-linecap:square;stroke-linejoin:round;stroke-miterlimit:10;stroke-dasharray:none;stroke-opacity:1"
       transform="matrix(1.3333333,0,0,-1.3333333,0,591.14166)"
       clip-path="url(#clipPath5)" />
    <path
       id="path6"
       d="m 215.72703,37.54375 v -3.5"
       style="fill:#000000;fill-opacity:1;fill-rule:nonzero;stroke:#000000;stroke-width:0.8;stroke-linecap:butt;stroke-linejoin:round;stroke-miterlimit:10;stroke-dasharray:none;stroke-opacity:1"
       transform="matrix(1.3333333,0,0,-1.3333333,0,591.14166)" />
    <text
       id="text6"
       xml:space="preserve"
       transform="matrix(1.3333333,0,0,1.3333333,283.39645,560.54166)"><tspan
         id="tspan6"
         style="font-variant:normal;font-weight:normal;font-size:10px;font-family:'DejaVu Sans';writing-mode:lr-tb;fill:#000000;fill-opacity:1;fill-rule:nonzero;stroke:none"
         x="0"
         y="0">5</tspan></text>
    <path
       id="path7"
       d="M 352.57039,42.54375 V 432.65624"
       style="fill:none;stroke:#e6e6e6;stroke-width:1;stroke-linecap:square;stroke-linejoin:round;stroke-miterlimit:10;stroke-dasharray:none;stroke-opacity:1"
       transform="matrix(1.3333333,0,0,-1.3333333,0,591.14166)"
       clip-path="url(#clipPath8)" />
    <path
       id="path9"
       d="m 352.57039,37.54375 v -3.5"
       style="fill:#000000;fill-opacity:1;fill-rule:nonzero;stroke:#000000;stroke-width:0.8;stroke-linecap:butt;stroke-linejoin:round;stroke-miterlimit:10;stroke-dasharray:none;stroke-opacity:1"
       transform="matrix(1.3333333,0,0,-1.3333333,0,591.14166)" />
    <text
       id="text9"
       xml:space="preserve"
       transform="matrix(1.3333333,0,0,1.3333333,461.61469,560.54166)"><tspan
         id="tspan9"
         style="font-variant:normal;font-weight:normal;font-size:10px;font-family:'DejaVu Sans';writing-mode:lr-tb;fill:#000000;fill-opacity:1;fill-rule:nonzero;stroke:none"
         x="0"
         y="0">10</tspan></text>
    <path
       id="path10"
       d="M 489.41375,42.54375 V 432.65624"
       style="fill:none;stroke:#e6e6e6;stroke-width:1;stroke-linecap:square;stroke-linejoin:round;stroke-miterlimit:10;stroke-dasharray:none;stroke-opacity:1"
       transform="matrix(1.3333333,0,0,-1.3333333,0,591.14166)"
       clip-path="url(#clipPath11)" />
    <path
       id="path12"
       d="m 489.41375,37.54375 v -3.5"
       style="fill:#000000;fill-opacity:1;fill-rule:nonzero;stroke:#000000;stroke-width:0.8;stroke-linecap:butt;stroke-linejoin:round;stroke-miterlimit:10;stroke-dasharray:none;stroke-opacity:1"
       transform="matrix(1.3333333,0,0,-1.3333333,0,591.14166)" />
    <text
       id="text12"
       xml:space="preserve"
       transform="matrix(1.3333333,0,0,1.3333333,644.0725,560.54166)"><tspan
         id="tspan12"
         style="font-variant:normal;font-weight:normal;font-size:10px;font-family:'DejaVu Sans';writing-mode:lr-tb;fill:#000000;fill-opacity:1;fill-rule:nonzero;stroke:none"
         x="0"
         y="0">15</tspan></text>
    <path
       id="path13"
       d="M 626.25711,42.54375 V 432.65624"
       style="fill:none;stroke:#e6e6e6;stroke-width:1;stroke-linecap:square;stroke-linejoin:round;stroke-miterlimit:10;stroke-dasharray:none;stroke-opacity:1"
       transform="matrix(1.3333333,0,0,-1.3333333,0,591.14166)"
       clip-path="url(#clipPath14)" />
    <path
       id="path15"
       d="m 626.25711,37.54375 v -3.5"
       style="fill:#000000;fill-opacity:1;fill-rule:nonzero;stroke:#000000;stroke-width:0.8;stroke-linecap:butt;stroke-linejoin:round;stroke-miterlimit:10;stroke-dasharray:none;stroke-opacity:1"
       transform="matrix(1.3333333,0,0,-1.3333333,0,591.14166)" />
    <text
       id="text15"
       xml:space="preserve"
       transform="matrix(1.3333333,0,0,1.3333333,826.53032,560.54166)"><tspan
         id="tspan15"
         style="font-variant:normal;font-weight:normal;font-size:10px;font-family:'DejaVu Sans';writing-mode:lr-tb;fill:#000000;fill-opacity:1;fill-rule:nonzero;stroke:none"
         x="0"
         y="0">20</tspan></text>
    <text
       id="text16"
       xml:space="preserve"
       transform="matrix(1.3333333,0,0,1.3333333,486.27292,578.77082)"><tspan
         id="tspan16"
         style="font-variant:normal;font-weight:normal;font-size:10px;font-family:'DejaVu Sans';writing-mode:lr-tb;fill:#000000;fill-opacity:1;fill-rule:nonzero;stroke:none"
         x="0"
         y="0">epoch</tspan></text>
    <path
       id="path16"
       d="M 48.778125,72.481397 H 711.1"
       style="fill:none;stroke:#e6e6e6;stroke-width:1;stroke-linecap:square;stroke-linejoin:round;stroke-miterlimit:10;stroke-dasharray:none;stroke-opacity:1"
       transform="matrix(1.3333333,0,0,-1.3333333,0,591.14166)"
       clip-path="url(#clipPath17)" />
    <path
       id="path18"
       d="m 43.778125,72.481397 h -3.5"
       style="fill:#000000;fill-opacity:1;fill-rule:nonzero;stroke:#000000;stroke-width:0.8;stroke-linecap:butt;stroke-linejoin:round;stroke-miterlimit:10;stroke-dasharray:none;stroke-opacity:1"
       transform="matrix(1.3333333,0,0,-1.3333333,0,591.14166)" />
    <text
       id="text18"
       xml:space="preserve"
       transform="matrix(1.3333333,0,0,1.3333333,27.829167,499.56229)"><tspan
         id="tspan18"
         style="font-variant:normal;font-weight:normal;font-size:10px;font-family:'DejaVu Sans';writing-mode:lr-tb;fill:#000000;fill-opacity:1;fill-rule:nonzero;stroke:none"
         x="0"
         y="0">0.3</tspan></text>
    <path
       id="path19"
       d="M 48.778125,155.23171 H 711.1"
       style="fill:none;stroke:#e6e6e6;stroke-width:1;stroke-linecap:square;stroke-linejoin:round;stroke-miterlimit:10;stroke-dasharray:none;stroke-opacity:1"
       transform="matrix(1.3333333,0,0,-1.3333333,0,591.14166)"
       clip-path="url(#clipPath20)" />
    <path
       id="path21"
       d="m 43.778125,155.23171 h -3.5"
       style="fill:#000000;fill-opacity:1;fill-rule:nonzero;stroke:#000000;stroke-width:0.8;stroke-linecap:butt;stroke-linejoin:round;stroke-miterlimit:10;stroke-dasharray:none;stroke-opacity:1"
       transform="matrix(1.3333333,0,0,-1.3333333,0,591.14166)" />
    <text
       id="text21"
       xml:space="preserve"
       transform="matrix(1.3333333,0,0,1.3333333,27.829167,389.22855)"><tspan
         id="tspan21"
         style="font-variant:normal;font-weight:normal;font-size:10px;font-family:'DejaVu Sans';writing-mode:lr-tb;fill:#000000;fill-opacity:1;fill-rule:nonzero;stroke:none"
         x="0"
         y="0">0.4</tspan></text>
    <path
       id="path22"
       d="M 48.778125,237.98202 H 711.1"
       style="fill:none;stroke:#e6e6e6;stroke-width:1;stroke-linecap:square;stroke-linejoin:round;stroke-miterlimit:10;stroke-dasharray:none;stroke-opacity:1"
       transform="matrix(1.3333333,0,0,-1.3333333,0,591.14166)"
       clip-path="url(#clipPath23)" />
    <path
       id="path24"
       d="m 43.778125,237.98202 h -3.5"
       style="fill:#000000;fill-opacity:1;fill-rule:nonzero;stroke:#000000;stroke-width:0.8;stroke-linecap:butt;stroke-linejoin:round;stroke-miterlimit:10;stroke-dasharray:none;stroke-opacity:1"
       transform="matrix(1.3333333,0,0,-1.3333333,0,591.14166)" />
    <text
       id="text24"
       xml:space="preserve"
       transform="matrix(1.3333333,0,0,1.3333333,27.829167,278.8948)"><tspan
         id="tspan24"
         style="font-variant:normal;font-weight:normal;font-size:10px;font-family:'DejaVu Sans';writing-mode:lr-tb;fill:#000000;fill-opacity:1;fill-rule:nonzero;stroke:none"
         x="0"
         y="0">0.5</tspan></text>
    <path
       id="path25"
       d="M 48.778125,320.73233 H 711.1"
       style="fill:none;stroke:#e6e6e6;stroke-width:1;stroke-linecap:square;stroke-linejoin:round;stroke-miterlimit:10;stroke-dasharray:none;stroke-opacity:1"
       transform="matrix(1.3333333,0,0,-1.3333333,0,591.14166)"
       clip-path="url(#clipPath26)" />
    <path
       id="path27"
       d="m 43.778125,320.73233 h -3.5"
       style="fill:#000000;fill-opacity:1;fill-rule:nonzero;stroke:#000000;stroke-width:0.8;stroke-linecap:butt;stroke-linejoin:round;stroke-miterlimit:10;stroke-dasharray:none;stroke-opacity:1"
       transform="matrix(1.3333333,0,0,-1.3333333,0,591.14166)" />
    <text
       id="text27"
       xml:space="preserve"
       transform="matrix(1.3333333,0,0,1.3333333,27.829167,168.56105)"><tspan
         id="tspan27"
         style="font-variant:normal;font-weight:normal;font-size:10px;font-family:'DejaVu Sans';writing-mode:lr-tb;fill:#000000;fill-opacity:1;fill-rule:nonzero;stroke:none"
         x="0"
         y="0">0.6</tspan></text>
    <path
       id="path28"
       d="M 48.778125,403.48264 H 711.1"
       style="fill:none;stroke:#e6e6e6;stroke-width:1;stroke-linecap:square;stroke-linejoin:round;stroke-miterlimit:10;stroke-dasharray:none;stroke-opacity:1"
       transform="matrix(1.3333333,0,0,-1.3333333,0,591.14166)"
       clip-path="url(#clipPath29)" />
    <path
       id="path30"
       d="m 43.778125,403.48264 h -3.5"
       style="fill:#000000;fill-opacity:1;fill-rule:nonzero;stroke:#000000;stroke-width:0.8;stroke-linecap:butt;stroke-linejoin:round;stroke-miterlimit:10;stroke-dasharray:none;stroke-opacity:1"
       transform="matrix(1.3333333,0,0,-1.3333333,0,591.14166)" />
    <text
       id="text30"
       xml:space="preserve"
       transform="matrix(1.3333333,0,0,1.3333333,27.829167,58.227304)"><tspan
         id="tspan30"
         style="font-variant:normal;font-weight:normal;font-size:10px;font-family:'DejaVu Sans';writing-mode:lr-tb;fill:#000000;fill-opacity:1;fill-rule:nonzero;stroke:none"
         x="0"
         y="0">0.7</tspan></text>
    <text
       id="text31"
       xml:space="preserve"
       transform="matrix(0,-1.3333333,1.3333333,0,19.725,301.39374)"><tspan
         id="tspan31"
         style="font-variant:normal;font-weight:normal;font-size:10px;font-family:'DejaVu Sans';writing-mode:lr-tb;fill:#000000;fill-opacity:1;fill-rule:nonzero;stroke:none"
         x="0"
         y="0">Log loss</tspan></text>
    <path
       id="path31"
       d="m 78.883665,397.53215 27.368675,-9.56251 27.36867,-4.82048 27.36867,0.0283 27.36868,-18.55642 27.36867,-18.48603 27.36867,-15.54574 27.36867,-29.72208 27.36867,-25.62037 27.36868,3.43274 27.36867,-27.96287 27.36867,-41.92481 27.36867,-1.13638 27.36868,-28.45419 27.36867,1.02624 27.36867,-21.74668 27.36867,-13.49117 27.36868,-9.39565 27.36867,-10.03209 27.36867,-21.15011 27.36867,-12.501844 27.36868,-7.931849 27.36867,-8.783079"
       style="fill:none;stroke:#1f77b4;stroke-width:1.5;stroke-linecap:square;stroke-linejoin:round;stroke-miterlimit:10;stroke-dasharray:none;stroke-opacity:1"
       transform="matrix(1.3333333,0,0,-1.3333333,0,591.14166)"
       clip-path="url(#clipPath32)" />
    <path
       id="path33"
       d="m 78.883665,395.13471 27.368675,-3.43027 27.36867,0.99909 27.36867,-6.7944 27.36868,-13.96039 27.36867,23.5937 27.36867,-61.10247 27.36867,-41.50129 27.36867,-2.23732 27.36868,-21.91306 27.36867,-44.75372 27.36867,29.25306 27.36867,-55.80361 27.36868,32.10828 27.36867,-31.43258 27.36867,-25.51992 27.36867,63.01375 27.36868,-91.13261 27.36867,6.65892 27.36867,13.67912 27.36867,-3.71235 27.36868,-44.24591 27.36867,-7.67097"
       style="fill:none;stroke:#1f77b4;stroke-width:1.5;stroke-linecap:butt;stroke-linejoin:round;stroke-miterlimit:10;stroke-dasharray:9.6, 2.4, 1.5, 2.4;stroke-dashoffset:0;stroke-opacity:1"
       transform="matrix(1.3333333,0,0,-1.3333333,0,591.14166)"
       clip-path="url(#clipPath34)" />
    <path
       id="path35"
       d="m 78.883665,414.92386 27.368675,-14.90044 27.36867,-4.76629 27.36867,-7.99733 27.36868,-22.50824 27.36867,4.09933 27.36867,-28.67033 27.36867,-14.64991 27.36867,-21.68878 27.36868,-37.70488 27.36867,-29.1682 27.36867,-14.18851 27.36867,-6.43235 27.36868,-13.03931 27.36867,-38.42911 27.36867,-13.15528 27.36867,-5.5419 27.36868,-16.47075 27.36867,9.27842 27.36867,-16.63477 27.36867,-29.345474 27.36868,17.542374 27.36867,-10.35913"
       style="fill:none;stroke:#ff7f0e;stroke-width:1.5;stroke-linecap:square;stroke-linejoin:round;stroke-miterlimit:10;stroke-dasharray:none;stroke-opacity:1"
       transform="matrix(1.3333333,0,0,-1.3333333,0,591.14166)"
       clip-path="url(#clipPath36)" />
    <path
       id="path37"
       d="m 78.883665,406.64833 27.368675,-3.94566 27.36867,-4.41881 27.36867,-4.84964 27.36868,-11.05512 27.36867,-6.52226 27.36867,-5.13706 27.36867,-14.20456 27.36867,-58.34614 27.36868,-15.12192 27.36867,-39.69674 27.36867,-13.69279 27.36867,16.76655 27.36868,-41.13386 27.36867,17.29219 27.36867,-64.7421 27.36867,2.21118 27.36868,-11.85515 27.36867,20.99367 27.36867,-39.64709 27.36867,10.74165 27.36868,-15.88277 27.36867,-10.74661"
       style="fill:none;stroke:#ff7f0e;stroke-width:1.5;stroke-linecap:butt;stroke-linejoin:round;stroke-miterlimit:10;stroke-dasharray:9.6, 2.4, 1.5, 2.4;stroke-dashoffset:0;stroke-opacity:1"
       transform="matrix(1.3333333,0,0,-1.3333333,0,591.14166)"
       clip-path="url(#clipPath38)" />
    <path
       id="path39"
       d="m 78.883665,385.14333 27.368675,-8.8714 27.36867,-8.42529 27.36867,-8.34269 27.36868,-9.65923 27.36867,-32.08046 27.36867,-40.11586 27.36867,-17.35784 27.36867,-48.5594 27.36868,-31.54548 27.36867,1.10105 27.36867,-42.87413 27.36867,-6.94863 27.36868,-32.644402 27.36867,7.317632 27.36867,9.64593 27.36867,-34.923073 27.36868,-20.583921"
       style="fill:none;stroke:#2ca02c;stroke-width:1.5;stroke-linecap:square;stroke-linejoin:round;stroke-miterlimit:10;stroke-dasharray:none;stroke-opacity:1"
       transform="matrix(1.3333333,0,0,-1.3333333,0,591.14166)"
       clip-path="url(#clipPath40)" />
    <path
       id="path41"
       d="m 78.883665,379.65948 27.368675,-3.5023 27.36867,-2.97069 27.36867,-4.35391 27.36868,-11.30642 27.36867,-17.48357 27.36867,-32.04455 27.36867,-61.24234 27.36867,-38.26496 27.36868,46.54545 27.36867,-84.38523 27.36867,-26.0311 27.36867,14.71661 27.36868,-42.35167 27.36867,3.64667 27.36867,-13.2374 27.36867,-10.056804 27.36868,-15.782291"
       style="fill:none;stroke:#2ca02c;stroke-width:1.5;stroke-linecap:butt;stroke-linejoin:round;stroke-miterlimit:10;stroke-dasharray:9.6, 2.4, 1.5, 2.4;stroke-dashoffset:0;stroke-opacity:1"
       transform="matrix(1.3333333,0,0,-1.3333333,0,591.14166)"
       clip-path="url(#clipPath42)" />
    <path
       id="path43"
       d="M 558.4125,336.62499 H 704.1 c 1.33333,0 2,0.66667 2,2 v 87.03125 c 0,1.33334 -0.66667,2 -2,2 H 558.4125 c -1.33333,0 -2,-0.66666 -2,-2 v -87.03125 c 0,-1.33333 0.66667,-2 2,-2 z"
       style="fill:#ffffff;fill-opacity:0.8;fill-rule:nonzero;stroke:#cccccc;stroke-width:1;stroke-linecap:butt;stroke-linejoin:miter;stroke-miterlimit:10;stroke-dasharray:none;stroke-opacity:0.8"
       transform="matrix(1.3333333,0,0,-1.3333333,0,591.14166)" />
    <path
       id="path44"
       d="m 560.4125,419.56249 h 20"
       style="fill:none;stroke:#1f77b4;stroke-width:1.5;stroke-linecap:square;stroke-linejoin:round;stroke-miterlimit:10;stroke-dasharray:none;stroke-opacity:1"
       transform="matrix(1.3333333,0,0,-1.3333333,0,591.14166)" />
    <text
       id="text44"
       xml:space="preserve"
       transform="matrix(1.3333333,0,0,1.3333333,784.55,36.391667)"><tspan
         id="tspan44"
         style="font-variant:normal;font-weight:normal;font-size:10px;font-family:'DejaVu Sans';writing-mode:lr-tb;fill:#000000;fill-opacity:1;fill-rule:nonzero;stroke:none"
         x="0"
         y="0">DES train loss</tspan></text>
    <path
       id="path45"
       d="m 560.4125,404.89062 h 20"
       style="fill:none;stroke:#1f77b4;stroke-width:1.5;stroke-linecap:butt;stroke-linejoin:round;stroke-miterlimit:10;stroke-dasharray:9.6, 2.4, 1.5, 2.4;stroke-dashoffset:0;stroke-opacity:1"
       transform="matrix(1.3333333,0,0,-1.3333333,0,591.14166)" />
    <text
       id="text45"
       xml:space="preserve"
       transform="matrix(1.3333333,0,0,1.3333333,784.55,55.954167)"><tspan
         id="tspan45"
         style="font-variant:normal;font-weight:normal;font-size:10px;font-family:'DejaVu Sans';writing-mode:lr-tb;fill:#000000;fill-opacity:1;fill-rule:nonzero;stroke:none"
         x="0"
         y="0">DES validation loss</tspan></text>
    <path
       id="path46"
       d="m 560.4125,390.21874 h 20"
       style="fill:none;stroke:#ff7f0e;stroke-width:1.5;stroke-linecap:square;stroke-linejoin:round;stroke-miterlimit:10;stroke-dasharray:none;stroke-opacity:1"
       transform="matrix(1.3333333,0,0,-1.3333333,0,591.14166)" />
    <text
       id="text46"
       xml:space="preserve"
       transform="matrix(1.3333333,0,0,1.3333333,784.55,75.516667)"><tspan
         id="tspan46"
         style="font-variant:normal;font-weight:normal;font-size:10px;font-family:'DejaVu Sans';writing-mode:lr-tb;fill:#000000;fill-opacity:1;fill-rule:nonzero;stroke:none"
         x="0"
         y="0">CMA-ES train loss</tspan></text>
    <path
       id="path47"
       d="m 560.4125,375.54687 h 20"
       style="fill:none;stroke:#ff7f0e;stroke-width:1.5;stroke-linecap:butt;stroke-linejoin:round;stroke-miterlimit:10;stroke-dasharray:9.6, 2.4, 1.5, 2.4;stroke-dashoffset:0;stroke-opacity:1"
       transform="matrix(1.3333333,0,0,-1.3333333,0,591.14166)" />
    <text
       id="text47"
       xml:space="preserve"
       transform="matrix(1.3333333,0,0,1.3333333,784.55,95.079167)"><tspan
         id="tspan47"
         style="font-variant:normal;font-weight:normal;font-size:10px;font-family:'DejaVu Sans';writing-mode:lr-tb;fill:#000000;fill-opacity:1;fill-rule:nonzero;stroke:none"
         x="0"
         y="0">CMA-ES validation loss</tspan></text>
    <path
       id="path48"
       d="m 560.4125,360.87499 h 20"
       style="fill:none;stroke:#2ca02c;stroke-width:1.5;stroke-linecap:square;stroke-linejoin:round;stroke-miterlimit:10;stroke-dasharray:none;stroke-opacity:1"
       transform="matrix(1.3333333,0,0,-1.3333333,0,591.14166)" />
    <text
       id="text48"
       xml:space="preserve"
       transform="matrix(1.3333333,0,0,1.3333333,784.55,114.64167)"><tspan
         id="tspan48"
         style="font-variant:normal;font-weight:normal;font-size:10px;font-family:'DejaVu Sans';writing-mode:lr-tb;fill:#000000;fill-opacity:1;fill-rule:nonzero;stroke:none"
         x="0"
         y="0">jSO train loss</tspan></text>
    <path
       id="path49"
       d="m 560.4125,346.20312 h 20"
       style="fill:none;stroke:#2ca02c;stroke-width:1.5;stroke-linecap:butt;stroke-linejoin:round;stroke-miterlimit:10;stroke-dasharray:9.6, 2.4, 1.5, 2.4;stroke-dashoffset:0;stroke-opacity:1"
       transform="matrix(1.3333333,0,0,-1.3333333,0,591.14166)" />
    <text
       id="text49"
       xml:space="preserve"
       transform="matrix(1.3333333,0,0,1.3333333,784.55,134.20417)"><tspan
         id="tspan49"
         style="font-variant:normal;font-weight:normal;font-size:10px;font-family:'DejaVu Sans';writing-mode:lr-tb;fill:#000000;fill-opacity:1;fill-rule:nonzero;stroke:none"
         x="0"
         y="0">jSO validation loss</tspan></text>
  </g>
</svg>
