<?xml version="1.0" encoding="UTF-8" standalone="no"?>
<!-- Created with Inkscape (http://www.inkscape.org/) -->

<svg
   version="1.1"
   id="svg1"
   width="962.40002"
   height="591.14166"
   viewBox="0 0 962.40002 591.14166"
   xmlns="http://www.w3.org/2000/svg"
   xmlns:svg="http://www.w3.org/2000/svg">
  <defs
     id="defs1">
    <clipPath
       clipPathUnits="userSpaceOnUse"
       id="clipPath2">
      <path
         d="M 48.778125,42.54375 H 711.1 V 432.65624 H 48.778125 Z"
         id="path2" />
    </clipPath>
    <clipPath
       clipPathUnits="userSpaceOnUse"
       id="clipPath5">
      <path
         d="M 48.778125,42.54375 H 711.1 V 432.65624 H 48.778125 Z"
         id="path5" />
    </clipPath>
    <clipPath
       clipPathUnits="userSpaceOnUse"
       id="clipPath8">
      <path
         d="M 48.778125,42.54375 H 711.1 V 432.65624 H 48.778125 Z"
         id="path8" />
    </clipPath>
    <clipPath
       clipPathUnits="userSpaceOnUse"
       id="clipPath11">
      <path
         d="M 48.778125,42.54375 H 711.1 V 432.65624 H 48.778125 Z"
         id="path11" />
    </clipPath>
    <clipPath
       clipPathUnits="userSpaceOnUse"
       id="clipPath14">
      <path
         d="M 48.778125,42.54375 H 711.1 V 432.65624 H 48.778125 Z"
         id="path14" />
    </clipPath>
    <clipPath
       clipPathUnits="userSpaceOnUse"
       id="clipPath17">
      <path
         d="M 48.778125,42.54375 H 711.1 V 432.65624 H 48.778125 Z"
         id="path17" />
    </clipPath>
    <clipPath
       clipPathUnits="userSpaceOnUse"
       id="clipPath20">
      <path
         d="M 48.778125,42.54375 H 711.1 V 432.65624 H 48.778125 Z"
         id="path20" />
    </clipPath>
    <clipPath
       clipPathUnits="userSpaceOnUse"
       id="clipPath23">
      <path
         d="M 48.778125,42.54375 H 711.1 V 432.65624 H 48.778125 Z"
         id="path23" />
    </clipPath>
    <clipPath
       clipPathUnits="userSpaceOnUse"
       id="clipPath26">
      <path
         d="M 48.778125,42.54375 H 711.1 V 432.65624 H 48.778125 Z"
         id="path26" />
    </clipPath>
    <clipPath
       clipPathUnits="userSpaceOnUse"
       id="clipPath29">
      <path
         d="M 48.778125,42.54375 H 711.1 V 432.65624 H 48.778125 Z"
         id="path29" />
    </clipPath>
    <clipPath
       clipPathUnits="userSpaceOnUse"
       id="clipPath32">
      <path
         d="M 48.778125,42.54375 H 711.1 V 432.65624 H 48.778125 Z"
         id="path32" />
    </clipPath>
    <clipPath
       clipPathUnits="userSpaceOnUse"
       id="clipPath34">
      <path
         d="M 48.778125,42.54375 H 711.1 V 432.65624 H 48.778125 Z"
         id="path34" />
    </clipPath>
    <clipPath
       clipPathUnits="userSpaceOnUse"
       id="clipPath36">
      <path
         d="M 48.778125,42.54375 H 711.1 V 432.65624 H 48.778125 Z"
         id="path36" />
    </clipPath>
    <clipPath
       clipPathUnits="userSpaceOnUse"
       id="clipPath38">
      <path
         d="M 48.778125,42.54375 H 711.1 V 432.65624 H 48.778125 Z"
         id="path38" />
    </clipPath>
    <clipPath
       clipPathUnits="userSpaceOnUse"
       id="clipPath40">
      <path
         d="M 48.778125,42.54375 H 711.1 V 432.65624 H 48.778125 Z"
         id="path40" />
    </clipPath>
    <clipPath
       clipPathUnits="userSpaceOnUse"
       id="clipPath42">
      <path
         d="M 48.778125,42.54375 H 711.1 V 432.65624 H 48.778125 Z"
         id="path42" />
    </clipPath>
  </defs>
  <g
     id="g1">
    <path
       id="path1"
       d="M 160.56952,42.54375 V 432.65624"
       style="fill:none;stroke:#e6e6e6;stroke-width:1;stroke-linecap:square;stroke-linejoin:round;stroke-miterlimit:10;stroke-dasharray:none;stroke-opacity:1"
       transform="matrix(1.3333333,0,0,-1.3333333,0,591.14166)"
       clip-path="url(#clipPath2)" />
    <path
       id="path3"
       d="m 160.56952,37.54375 v -3.5"
       style="fill:#000000;fill-opacity:1;fill-rule:nonzero;stroke:#000000;stroke-width:0.8;stroke-linecap:butt;stroke-linejoin:round;stroke-miterlimit:10;stroke-dasharray:none;stroke-opacity:1"
       transform="matrix(1.3333333,0,0,-1.3333333,0,591.14166)" />
    <text
       id="text3"
       xml:space="preserve"
       transform="matrix(1.3333333,0,0,1.3333333,205.61352,560.54166)"><tspan
         id="tspan3"
         style="font-variant:normal;font-weight:normal;font-size:10px;font-family:'DejaVu Sans';writing-mode:lr-tb;fill:#000000;fill-opacity:1;fill-rule:nonzero;stroke:none"
         x="0"
         y="0">10</tspan></text>
    <path
       id="path4"
       d="M 272.92268,42.54375 V 432.65624"
       style="fill:none;stroke:#e6e6e6;stroke-width:1;stroke-linecap:square;stroke-linejoin:round;stroke-miterlimit:10;stroke-dasharray:none;stroke-opacity:1"
       transform="matrix(1.3333333,0,0,-1.3333333,0,591.14166)"
       clip-path="url(#clipPath5)" />
    <path
       id="path6"
       d="m 272.92268,37.54375 v -3.5"
       style="fill:#000000;fill-opacity:1;fill-rule:nonzero;stroke:#000000;stroke-width:0.8;stroke-linecap:butt;stroke-linejoin:round;stroke-miterlimit:10;stroke-dasharray:none;stroke-opacity:1"
       transform="matrix(1.3333333,0,0,-1.3333333,0,591.14166)" />
    <text
       id="text6"
       xml:space="preserve"
       transform="matrix(1.3333333,0,0,1.3333333,355.41774,560.54166)"><tspan
         id="tspan6"
         style="font-variant:normal;font-weight:normal;font-size:10px;font-family:'DejaVu Sans';writing-mode:lr-tb;fill:#000000;fill-opacity:1;fill-rule:nonzero;stroke:none"
         x="0"
         y="0">20</tspan></text>
    <path
       id="path7"
       d="M 385.27584,42.54375 V 432.65624"
       style="fill:none;stroke:#e6e6e6;stroke-width:1;stroke-linecap:square;stroke-linejoin:round;stroke-miterlimit:10;stroke-dasharray:none;stroke-opacity:1"
       transform="matrix(1.3333333,0,0,-1.3333333,0,591.14166)"
       clip-path="url(#clipPath8)" />
    <path
       id="path9"
       d="m 385.27584,37.54375 v -3.5"
       style="fill:#000000;fill-opacity:1;fill-rule:nonzero;stroke:#000000;stroke-width:0.8;stroke-linecap:butt;stroke-linejoin:round;stroke-miterlimit:10;stroke-dasharray:none;stroke-opacity:1"
       transform="matrix(1.3333333,0,0,-1.3333333,0,591.14166)" />
    <text
       id="text9"
       xml:space="preserve"
       transform="matrix(1.3333333,0,0,1.3333333,505.22195,560.54166)"><tspan
         id="tspan9"
         style="font-variant:normal;font-weight:normal;font-size:10px;font-family:'DejaVu Sans';writing-mode:lr-tb;fill:#000000;fill-opacity:1;fill-rule:nonzero;stroke:none"
         x="0"
         y="0">30</tspan></text>
    <path
       id="path10"
       d="M 497.629,42.54375 V 432.65624"
       style="fill:none;stroke:#e6e6e6;stroke-width:1;stroke-linecap:square;stroke-linejoin:round;stroke-miterlimit:10;stroke-dasharray:none;stroke-opacity:1"
       transform="matrix(1.3333333,0,0,-1.3333333,0,591.14166)"
       clip-path="url(#clipPath11)" />
    <path
       id="path12"
       d="m 497.629,37.54375 v -3.5"
       style="fill:#000000;fill-opacity:1;fill-rule:nonzero;stroke:#000000;stroke-width:0.8;stroke-linecap:butt;stroke-linejoin:round;stroke-miterlimit:10;stroke-dasharray:none;stroke-opacity:1"
       transform="matrix(1.3333333,0,0,-1.3333333,0,591.14166)" />
    <text
       id="text12"
       xml:space="preserve"
       transform="matrix(1.3333333,0,0,1.3333333,655.02616,560.54166)"><tspan
         id="tspan12"
         style="font-variant:normal;font-weight:normal;font-size:10px;font-family:'DejaVu Sans';writing-mode:lr-tb;fill:#000000;fill-opacity:1;fill-rule:nonzero;stroke:none"
         x="0"
         y="0">40</tspan></text>
    <path
       id="path13"
       d="M 609.98216,42.54375 V 432.65624"
       style="fill:none;stroke:#e6e6e6;stroke-width:1;stroke-linecap:square;stroke-linejoin:round;stroke-miterlimit:10;stroke-dasharray:none;stroke-opacity:1"
       transform="matrix(1.3333333,0,0,-1.3333333,0,591.14166)"
       clip-path="url(#clipPath14)" />
    <path
       id="path15"
       d="m 609.98216,37.54375 v -3.5"
       style="fill:#000000;fill-opacity:1;fill-rule:nonzero;stroke:#000000;stroke-width:0.8;stroke-linecap:butt;stroke-linejoin:round;stroke-miterlimit:10;stroke-dasharray:none;stroke-opacity:1"
       transform="matrix(1.3333333,0,0,-1.3333333,0,591.14166)" />
    <text
       id="text15"
       xml:space="preserve"
       transform="matrix(1.3333333,0,0,1.3333333,804.83038,560.54166)"><tspan
         id="tspan15"
         style="font-variant:normal;font-weight:normal;font-size:10px;font-family:'DejaVu Sans';writing-mode:lr-tb;fill:#000000;fill-opacity:1;fill-rule:nonzero;stroke:none"
         x="0"
         y="0">50</tspan></text>
    <text
       id="text16"
       xml:space="preserve"
       transform="matrix(1.3333333,0,0,1.3333333,469.37708,578.77082)"><tspan
         id="tspan16"
         style="font-variant:normal;font-weight:normal;font-size:10px;font-family:'DejaVu Sans';writing-mode:lr-tb;fill:#000000;fill-opacity:1;fill-rule:nonzero;stroke:none"
         x="0"
         y="0">Generation</tspan></text>
    <path
       id="path16"
       d="M 48.778125,105.35847 H 711.1"
       style="fill:none;stroke:#e6e6e6;stroke-width:1;stroke-linecap:square;stroke-linejoin:round;stroke-miterlimit:10;stroke-dasharray:none;stroke-opacity:1"
       transform="matrix(1.3333333,0,0,-1.3333333,0,591.14166)"
       clip-path="url(#clipPath17)" />
    <path
       id="path18"
       d="m 43.778125,105.35847 h -3.5"
       style="fill:#000000;fill-opacity:1;fill-rule:nonzero;stroke:#000000;stroke-width:0.8;stroke-linecap:butt;stroke-linejoin:round;stroke-miterlimit:10;stroke-dasharray:none;stroke-opacity:1"
       transform="matrix(1.3333333,0,0,-1.3333333,0,591.14166)" />
    <text
       id="text18"
       xml:space="preserve"
       transform="matrix(1.3333333,0,0,1.3333333,27.829167,455.72619)"><tspan
         id="tspan18"
         style="font-variant:normal;font-weight:normal;font-size:10px;font-family:'DejaVu Sans';writing-mode:lr-tb;fill:#000000;fill-opacity:1;fill-rule:nonzero;stroke:none"
         x="0"
         y="0">0.2</tspan></text>
    <path
       id="path19"
       d="M 48.778125,171.47923 H 711.1"
       style="fill:none;stroke:#e6e6e6;stroke-width:1;stroke-linecap:square;stroke-linejoin:round;stroke-miterlimit:10;stroke-dasharray:none;stroke-opacity:1"
       transform="matrix(1.3333333,0,0,-1.3333333,0,591.14166)"
       clip-path="url(#clipPath20)" />
    <path
       id="path21"
       d="m 43.778125,171.47923 h -3.5"
       style="fill:#000000;fill-opacity:1;fill-rule:nonzero;stroke:#000000;stroke-width:0.8;stroke-linecap:butt;stroke-linejoin:round;stroke-miterlimit:10;stroke-dasharray:none;stroke-opacity:1"
       transform="matrix(1.3333333,0,0,-1.3333333,0,591.14166)" />
    <text
       id="text21"
       xml:space="preserve"
       transform="matrix(1.3333333,0,0,1.3333333,27.829167,367.56518)"><tspan
         id="tspan21"
         style="font-variant:normal;font-weight:normal;font-size:10px;font-family:'DejaVu Sans';writing-mode:lr-tb;fill:#000000;fill-opacity:1;fill-rule:nonzero;stroke:none"
         x="0"
         y="0">0.4</tspan></text>
    <path
       id="path22"
       d="M 48.778125,237.6 H 711.1"
       style="fill:none;stroke:#e6e6e6;stroke-width:1;stroke-linecap:square;stroke-linejoin:round;stroke-miterlimit:10;stroke-dasharray:none;stroke-opacity:1"
       transform="matrix(1.3333333,0,0,-1.3333333,0,591.14166)"
       clip-path="url(#clipPath23)" />
    <path
       id="path24"
       d="m 43.778125,237.6 h -3.5"
       style="fill:#000000;fill-opacity:1;fill-rule:nonzero;stroke:#000000;stroke-width:0.8;stroke-linecap:butt;stroke-linejoin:round;stroke-miterlimit:10;stroke-dasharray:none;stroke-opacity:1"
       transform="matrix(1.3333333,0,0,-1.3333333,0,591.14166)" />
    <text
       id="text24"
       xml:space="preserve"
       transform="matrix(1.3333333,0,0,1.3333333,27.829167,279.40416)"><tspan
         id="tspan24"
         style="font-variant:normal;font-weight:normal;font-size:10px;font-family:'DejaVu Sans';writing-mode:lr-tb;fill:#000000;fill-opacity:1;fill-rule:nonzero;stroke:none"
         x="0"
         y="0">0.6</tspan></text>
    <path
       id="path25"
       d="M 48.778125,303.72076 H 711.1"
       style="fill:none;stroke:#e6e6e6;stroke-width:1;stroke-linecap:square;stroke-linejoin:round;stroke-miterlimit:10;stroke-dasharray:none;stroke-opacity:1"
       transform="matrix(1.3333333,0,0,-1.3333333,0,591.14166)"
       clip-path="url(#clipPath26)" />
    <path
       id="path27"
       d="m 43.778125,303.72076 h -3.5"
       style="fill:#000000;fill-opacity:1;fill-rule:nonzero;stroke:#000000;stroke-width:0.8;stroke-linecap:butt;stroke-linejoin:round;stroke-miterlimit:10;stroke-dasharray:none;stroke-opacity:1"
       transform="matrix(1.3333333,0,0,-1.3333333,0,591.14166)" />
    <text
       id="text27"
       xml:space="preserve"
       transform="matrix(1.3333333,0,0,1.3333333,27.829167,191.24315)"><tspan
         id="tspan27"
         style="font-variant:normal;font-weight:normal;font-size:10px;font-family:'DejaVu Sans';writing-mode:lr-tb;fill:#000000;fill-opacity:1;fill-rule:nonzero;stroke:none"
         x="0"
         y="0">0.8</tspan></text>
    <path
       id="path28"
       d="M 48.778125,369.84152 H 711.1"
       style="fill:none;stroke:#e6e6e6;stroke-width:1;stroke-linecap:square;stroke-linejoin:round;stroke-miterlimit:10;stroke-dasharray:none;stroke-opacity:1"
       transform="matrix(1.3333333,0,0,-1.3333333,0,591.14166)"
       clip-path="url(#clipPath29)" />
    <path
       id="path30"
       d="m 43.778125,369.84152 h -3.5"
       style="fill:#000000;fill-opacity:1;fill-rule:nonzero;stroke:#000000;stroke-width:0.8;stroke-linecap:butt;stroke-linejoin:round;stroke-miterlimit:10;stroke-dasharray:none;stroke-opacity:1"
       transform="matrix(1.3333333,0,0,-1.3333333,0,591.14166)" />
    <text
       id="text30"
       xml:space="preserve"
       transform="matrix(1.3333333,0,0,1.3333333,27.829167,103.08213)"><tspan
         id="tspan30"
         style="font-variant:normal;font-weight:normal;font-size:10px;font-family:'DejaVu Sans';writing-mode:lr-tb;fill:#000000;fill-opacity:1;fill-rule:nonzero;stroke:none"
         x="0"
         y="0">1.0</tspan></text>
    <text
       id="text31"
       xml:space="preserve"
       transform="matrix(0,-1.3333333,1.3333333,0,19.725,301.39374)"><tspan
         id="tspan31"
         style="font-variant:normal;font-weight:normal;font-size:10px;font-family:'DejaVu Sans';writing-mode:lr-tb;fill:#000000;fill-opacity:1;fill-rule:nonzero;stroke:none"
         x="0"
         y="0">Log loss</tspan></text>
    <path
       id="path31"
       d="m 59.451675,273.5929 v -79.04438 l 11.235316,21.40658 11.235316,-25.39636 11.235316,-92.439633 11.235317,87.753813 11.23531,-33.96166 11.23532,8.4802 11.23532,3.00192 11.23531,-8.93599 11.23532,-12.4038 11.23531,4.06118 11.23532,-2.28692 11.23532,-6.49655 11.23531,3.42518 11.23532,5.02567 11.23531,-109.508712 11.23532,97.388862 11.23532,10.55345 11.23531,-105.541887 11.23532,100.992127 11.23531,-1.3071 11.23532,-2.58995 11.23532,1.59787 11.23531,0.72885 11.23532,-9.49195 11.23531,13.58513 11.23532,1.08144 11.23532,0.36347 11.23531,-5.40279 11.23532,3.91484 11.23531,-1.84934 11.23532,0.70346 11.23531,-1.5822 11.23532,1.46184 11.23532,2.18111 11.23531,-10.84852 11.23532,4.63196 11.23531,1.94219 11.23532,2.80324 11.23532,-1.32094 11.23531,-0.1032 11.23532,-2.93763 11.23531,5.53765 11.23532,0.16032 11.23532,-1.95134 11.23531,-4.49138 11.23532,0.0287 11.23531,2.22768 11.23532,-5.13344 11.23532,-0.59739 11.23531,-1.69886 11.23532,6.04896 11.23531,0.34777 11.23532,-1.90037 11.23532,-1.35311 11.23531,-7.67595 11.23532,10.86418 11.23531,-2.70856 v 23.58688 0 l -11.23531,2.4412 -11.23532,14.85029 -11.23531,-19.5521 -11.23532,-0.25668 -11.23532,4.81489 -11.23531,-3.44022 -11.23532,8.46282 -11.23531,4.978 -11.23532,-6.58825 -11.23532,2.98935 -11.23531,-3.62835 -11.23532,5.47654 -11.23531,-8.45591 -11.23532,2.82959 -11.23532,2.01153 -11.23531,0.24144 -11.23532,-11.3338 -11.23531,6.44368 -11.23532,6.33174 -11.23532,1.65667 -11.23531,13.03886 -11.23532,-7.16334 -11.23531,-17.47696 -11.23532,13.50503 -11.23532,1.20175 -11.23531,5.91809 -11.23532,-1.24512 -11.23531,-12.40392 -11.23532,32.85133 -11.23531,-33.16055 -11.23532,7.05353 -11.23532,13.72898 -11.23531,18.76662 -11.23532,-42.73272 -11.23531,36.26323 -11.23532,3.26801 -11.23532,7.47896 -11.23531,16.93068 -11.23532,192.07664 -11.23531,-230.63744 -11.23532,28.27309 -11.23532,202.05407 -11.23531,-248.3721 -11.23532,67.76834 -11.23531,-7.61995 -11.23532,8.59109 -11.23532,8.13844 -11.23531,-13.26965 -11.23532,13.5069 -11.23531,4.70192 -11.23532,3.68907 -11.23532,5.06723 -11.23531,14.91103 -11.235317,178.76436 -11.235316,-181.65266 -11.235316,9.9548 -11.235316,-6.96665 z"
       style="fill:#1f77b4;fill-opacity:0.3;fill-rule:nonzero;stroke:none"
       transform="matrix(1.3333333,0,0,-1.3333333,0,591.14166)"
       clip-path="url(#clipPath32)" />
    <path
       id="path33"
       d="m 59.451675,244.10774 v -90.46937 l 11.235316,-2.09654 11.235316,-1.99324 11.235316,-31.26866 11.235317,175.01451 11.23531,-271.181704 11.23532,78.798844 11.23532,51.31195 11.23531,153.34269 11.23532,-150.28741 11.23531,-170.745995 11.23532,159.266465 11.23532,-26.71647 11.23531,24.35141 11.23532,-172.306518 11.23531,179.781338 11.23532,-13.35263 11.23532,-153.774753 11.23531,-4.842706 11.23532,88.65462 11.23531,-64.052743 11.23532,62.401424 11.23532,-65.646542 11.23531,-26.364622 11.23532,168.137042 11.23531,-156.992955 11.23532,168.068305 11.23532,-2.09964 11.23531,-8.90558 11.23532,-12.15063 11.23531,18.51235 11.23532,-4.53038 11.23531,0.62701 11.23532,-13.32941 11.23532,-147.965975 11.23531,164.945305 11.23532,-1.16496 11.23531,5.7922 11.23532,-11.21453 11.23532,-2.12021 11.23531,2.50147 11.23532,-4.17175 11.23531,3.14374 11.23532,7.70486 11.23532,-4.1145 11.23531,-174.97696 11.23532,178.21657 11.23531,2.70929 11.23532,-5.46396 11.23532,-0.35828 11.23531,-2.08333 11.23532,2.67521 11.23531,-7.09258 11.23532,-6.27749 11.23532,13.1667 11.23531,-3.24747 11.23532,0.39063 11.23531,0.17801 11.23532,1.72382 11.23532,-6.10606 11.23531,0.0875 11.23532,0.62358 11.23531,-5.44968 11.23532,6.70395 11.23532,-0.0121 11.23531,5.20899 11.23532,-6.86362 11.23531,5.92443 11.23532,1.13335 11.23532,-3.81148 11.23531,-3.15682 11.23532,-3.64457 11.23531,4.1273 11.23532,3.31372 11.23531,-2.26208 11.23532,-1.23215 11.23532,1.18957 11.23531,1.80338 11.23532,-1.29406 11.23531,5.64 11.23532,-6.99505 11.23532,-1.22779 11.23531,-5.45232 11.23532,5.69563 11.2353,0.91123 11.2353,1.71606 11.2353,-0.7723 11.2354,1.61208 11.2353,2.23772 11.2353,-2.32544 11.2353,1.90645 11.2353,2.63336 11.2353,-7.67867 11.2354,4.03169 11.2353,-2.15221 11.2353,1.23365 11.2353,-2.39478 11.2353,5.20498 11.2353,-5.1551 11.2354,-2.60115 11.2353,3.49988 11.2353,-3.07992 11.2353,7.26012 11.2353,0.89704 11.2353,-1.73338 11.2353,-0.35329 11.2354,-2.94074 11.2353,4.05186 11.2353,-2.63177 11.2353,1.47547 11.2353,-1.11788 11.2353,-5.68072 11.2354,4.27602 11.2353,4.61723 11.2353,-4.07719 11.2353,0.58295 11.2353,-0.45699 11.2353,-0.1578 11.2354,0.0583 11.2353,-170.229928 11.2353,20.129204 11.2353,144.290274 11.2353,6.63415 11.2353,5.30335 11.2354,-7.47007 11.2353,-141.728463 11.2353,67.253045 11.2353,76.969198 11.2353,-164.601689 11.2353,159.349339 11.2353,11.27685 11.2354,-6.43558 11.2353,1.29956 11.2353,-7.81032 11.2353,5.34657 11.2353,-3.6611 11.2353,1.23845 11.2354,3.76112 11.2353,-8.29828 11.2353,12.81583 11.2353,-3.44171 11.2353,-0.80545 11.2353,-1.34689 11.2354,-2.15635 11.2353,2.75622 11.2353,-2.24999 11.2353,-177.07921 11.2353,171.96114 11.2353,4.38815 11.2354,1.01071 11.2353,0.168 11.2353,-5.88138 11.2353,7.00782 11.2353,-4.99511 11.2353,8.96585 11.2353,-7.58245 11.2354,5.71168 11.2353,-1.02904 11.2353,0.59695 11.2353,-7.35354 11.2353,5.61855 11.2353,-5.29883 11.2354,0.76079 v 25.23219 0 l -11.2354,20.77526 -11.2353,-10.33225 -11.2353,-7.08847 -11.2353,2.18416 -11.2353,0.0649 -11.2353,-8.64392 -11.2354,3.61769 -11.2353,-8.68702 -11.2353,5.78266 -11.2353,1.2876 -11.2353,-4.69023 -11.2353,-2.57224 -11.2353,16.43095 -11.2354,-18.67722 -11.2353,-2.63916 -11.2353,401.54815 -11.2353,-389.80916 -11.2353,2.521 -11.2353,1.86059 -11.2354,-10.26219 -11.2353,12.23465 -11.2353,10.44041 -11.2353,-16.93278 -11.2353,19.73957 -11.2353,4.01107 -11.2354,-36.37763 -11.2353,5.92354 -11.2353,-2.0626 -11.2353,-2.38848 -11.2353,19.53557 -11.2353,-5.05844 -11.2354,-4.69538 -11.2353,2.01829 -11.2353,396.61109 -11.2353,-391.39055 -11.2353,744.88559 -11.2353,-153.56244 -11.2353,-600.44564 -11.2354,4.49728 -11.2353,-4.06075 -11.2353,11.48539 -11.2353,585.45642 -11.2353,-200.23354 -11.2353,-401.00701 -11.2354,7.06661 -11.2353,-2.33611 -11.2353,1.81238 -11.2353,-7.69183 -11.2353,5.27763 -11.2353,9.28526 -11.2354,-9.78615 -11.2353,-2.23099 -11.2353,2.10615 -11.2353,-0.29463 -11.2353,-1.01493 -11.2353,4.59554 -11.2354,3.6806 -11.2353,-6.99975 -11.2353,10.50728 -11.2353,-8.83763 -11.2353,12.93729 -11.2353,-3.72783 -11.2353,2.64448 -11.2354,-10.2848 -11.2353,5.16349 -11.2353,-2.65546 -11.2353,-6.7486 -11.2353,3.61639 -11.2353,-5.71089 -11.2354,25.77609 -11.2353,-16.04059 -11.2353,-2.93269 -11.2353,-5.15432 -11.2353,6.27686 -11.2353,-8.92526 -11.2354,-0.62961 -11.2353,9.29696 -11.2353,-10.93412 -11.2353,3.25898 -11.23532,31.19853 -11.23531,-23.31517 -11.23532,1.65394 -11.23532,-2.73476 -11.23531,28.60232 -11.23532,-35.64619 -11.23531,0.0471 -11.23532,-3.25373 -11.23532,8.42612 -11.23531,-0.35599 -11.23532,14.79418 -11.23531,-4.71684 -11.23532,-6.19668 -11.23531,1.324 -11.23532,1.18201 -11.23532,8.78144 -11.23531,1.40735 -11.23532,-14.91728 -11.23531,4.17404 -11.23532,15.94572 -11.23532,-7.26669 -11.23531,-2.75492 -11.23532,1.30458 -11.23531,3.34036 -11.23532,-14.25769 -11.23532,7.9644 -11.23531,-0.27656 -11.23532,-6.82717 -11.23531,-0.61472 -11.23532,11.17907 -11.23532,17.59839 -11.23531,-20.75407 -11.23532,2.79039 -11.23531,-16.5331 -11.23532,23.31594 -11.23532,1.11508 -11.23531,-11.38462 -11.23532,385.6851 -11.23531,-387.93315 -11.23532,16.38537 -11.23532,-16.37137 -11.23531,10.34052 -11.23532,-18.49544 -11.23531,3.58564 -11.23532,-7.73262 -11.23532,14.17988 -11.23531,4.01622 -11.23532,-7.45666 -11.23531,395.9601 -11.23532,-381.20826 -11.23532,13.54378 -11.23531,-24.9294 -11.23532,1.39344 -11.23531,42.43412 -11.23532,-41.12472 -11.23531,32.12709 L 351.56989,164.56241 340.33457,558.32384 329.09926,171.12732 317.86394,553.21981 306.62863,754.51404 295.39331,908.35211 284.15799,755.42936 272.92268,908.61466 261.68736,556.43594 250.45205,557.80655 239.21673,181.06671 227.98141,169.95446 216.7461,551.88264 205.51078,178.38949 194.27547,201.04346 183.04015,184.00423 171.80483,558.99622 160.56952,1031.166 149.3342,1123.2246 138.09889,220.90148 126.86357,914.68215 115.62825,762.74501 104.39294,1124.7839 93.157623,917.45994 81.922307,212.67276 70.686991,244.51987 Z"
       style="fill:#ff7f0e;fill-opacity:0.3;fill-rule:nonzero;stroke:none"
       transform="matrix(1.3333333,0,0,-1.3333333,0,591.14166)"
       clip-path="url(#clipPath34)" />
    <path
       id="path35"
       d="m 59.451675,283.20683 v -76.25805 l 11.235316,-21.98306 11.235316,-12.7686 11.235316,-1.02037 11.235317,-10.30284 11.23531,-9.75459 11.23532,15.23575 11.23532,-7.26111 11.23531,-6.54992 11.23532,-2.18353 11.23531,-1.67426 11.23532,-9.48628 11.23532,-0.0279 11.23531,-8.67477 11.23532,2.99386 11.23531,6.04668 11.23532,6.33085 11.23532,-1.22201 11.23531,29.78511 11.23532,-25.46628 11.23531,-14.34316 11.23532,25.16089 11.23532,-22.47546 11.23531,4.66573 11.23532,21.02489 11.23531,10.74509 11.23532,-8.95433 11.23532,-17.43883 11.23531,-4.59135 11.23532,-2.71998 11.23531,-3.38176 11.23532,10.24489 11.23531,3.56512 11.23532,-1.66467 11.23532,-10.24667 11.23531,11.4317 11.23532,-8.02214 11.23531,3.81354 11.23532,7.33803 11.23532,-5.00186 11.23531,-8.33232 11.23532,2.33521 11.23531,-7.53687 11.23532,3.29771 11.23532,16.99863 11.23531,-0.78822 v 5.81068 0 l -11.23531,10.21112 -11.23532,40.17111 -11.23532,17.06733 -11.23531,1.82405 -11.23532,-49.50139 -11.23531,-6.79961 -11.23532,4.28321 -11.23532,-6.92814 -11.23531,67.75657 -11.23532,7.32084 -11.23531,-14.21052 -11.23532,6.82107 -11.23532,-4.54137 -11.23531,-57.04087 -11.23532,50.26519 -11.23531,-0.28641 -11.23532,24.16404 -11.23531,-23.19545 -11.23532,28.62264 -11.23532,20.32456 -11.23531,-8.0677 -11.23532,-41.37443 -11.23531,14.68615 -11.23532,9.61905 -11.23532,-32.0272 -11.23531,17.11064 -11.23532,24.32536 -11.23531,-28.35507 -11.23532,17.87463 -11.23532,-20.05019 -11.23531,-6.06906 -11.23532,2.56086 -11.23531,2.63685 -11.23532,-18.19081 -11.23532,9.9619 -11.23531,11.82608 -11.23532,11.78284 -11.23531,4.30657 -11.23532,7.72167 -11.23532,-14.9774 -11.23531,13.82988 -11.235317,8.87909 -11.235316,5.08507 -11.235316,7.28736 -11.235316,6.59668 z"
       style="fill:#2ca02c;fill-opacity:0.3;fill-rule:nonzero;stroke:none"
       transform="matrix(1.3333333,0,0,-1.3333333,0,591.14166)"
       clip-path="url(#clipPath36)" />
    <path
       id="path37"
       d="m 59.451675,234.07071 11.235316,14.18661 11.235316,-17.67558 11.235316,44.60652 11.235317,-45.50527 11.23531,-24.43635 11.23532,1.70648 11.23532,-0.34357 11.23531,-6.81896 11.23532,-12.95534 11.23531,8.66541 11.23532,-5.21268 11.23532,-7.54382 11.23531,5.52257 11.23532,-31.37134 11.23531,69.4317 11.23532,-52.33261 11.23532,-8.85982 11.23531,62.54778 11.23532,-45.54226 11.23531,-9.11889 11.23532,-5.03445 11.23532,-0.83508 11.23531,-17.76719 11.23532,16.62039 11.23531,-2.59074 11.23532,-6.32377 11.23532,-3.34503 11.23531,13.87888 11.23532,-14.46825 11.23531,5.27729 11.23532,0.97429 11.23531,-3.75014 11.23532,0.13004 11.23532,-5.66196 11.23531,3.31422 11.23532,5.89765 11.23531,-5.54834 11.23532,0.57329 11.23532,-3.82634 11.23531,-3.27344 11.23532,4.19808 11.23531,2.64811 11.23532,-0.9256 11.23532,-2.39047 11.23531,1.98227 11.23532,-2.72394 11.23531,2.92802 11.23532,-4.0614 11.23532,2.99543 11.23531,-3.33843 11.23532,-1.20693 11.23531,1.894 11.23532,-3.35764 11.23532,-0.54821 11.23531,5.93808 11.23532,-1.99306 11.23531,-2.57488"
       style="fill:none;stroke:#1f77b4;stroke-width:1.5;stroke-linecap:square;stroke-linejoin:round;stroke-miterlimit:10;stroke-dasharray:none;stroke-opacity:1"
       transform="matrix(1.3333333,0,0,-1.3333333,0,591.14166)"
       clip-path="url(#clipPath38)" />
    <path
       id="path39"
       d="m 59.451675,198.87306 11.235316,-0.84221 11.235316,-16.92018 8.782675,263.24557 m 23.080568,0 1.8427,-51.92737 5.05704,51.92737 m 8.39715,0 9.01645,-257.79374 5.48733,257.79374 m 22.18634,0 6.03227,-172.59172 11.23532,-107.86277 11.23532,-4.83862 11.23531,0.84873 11.23532,100.59331 11.23531,-101.07342 11.23532,-1.12019 11.23532,111.48254 11.23531,-3.10665 9.05633,177.66879 m 6.60074,0 6.81356,-65.87115 6.87413,65.87115 m 8.63971,0 6.9568,-67.95136 11.23531,-113.82943 11.23532,-106.97773 11.23531,115.10179 11.23532,-112.84656 11.23532,16.56498 11.23531,-20.51633 11.23532,14.48704 11.23531,-11.96089 11.23532,-2.9619 11.23531,12.7782 11.23532,-13.43659 11.23532,116.62114 11.23531,-115.5074 11.23532,3.14585 11.23531,0.88799 11.23532,-12.6972 11.23532,2.8062 11.23531,-0.54209 11.23532,7.16185 11.23531,-3.59839 11.23532,12.03811 11.23532,-10.24993 11.23531,106.47809 11.23532,-103.73426 11.23531,7.04696 11.23532,-3.28952 11.23532,-11.83711 11.23531,7.22488 11.23532,-0.0576 11.23531,6.83075 11.23532,-11.93795 11.23532,0.99382 11.23531,-1.31638 11.23532,3.60891 11.23531,0.22728 11.23532,-3.12029 11.23532,4.07581 0.46468,-0.0673 v 0"
       style="fill:none;stroke:#ff7f0e;stroke-width:1.5;stroke-linecap:square;stroke-linejoin:round;stroke-miterlimit:10;stroke-dasharray:none;stroke-opacity:1"
       transform="matrix(1.3333333,0,0,-1.3333333,0,591.14166)"
       clip-path="url(#clipPath40)" />
    <path
       id="path41"
       d="m 59.451675,245.0778 11.235316,-14.28987 11.235316,-10.02798 11.235316,-3.05272 11.235317,-9.59096 11.23531,-11.79223 11.23532,15.10657 11.23532,-7.49139 11.23531,-5.42824 11.23532,-6.98319 11.23531,-6.75017 11.23532,-9.72409 11.23532,9.08147 11.23531,-5.6558 11.23532,0.21649 11.23531,6.05787 11.23532,13.19052 11.23532,-9.54832 11.23531,29.0701 11.23532,-24.89583 11.23531,-15.72689 11.23532,28.59404 11.23532,-16.04725 11.23531,-5.01021 11.23532,31.19966 11.23531,9.40639 11.23532,-14.63945 11.23532,-23.03073 11.23531,9.30205 11.23532,-13.44201 11.23531,-1.54767 11.23532,-20.01016 11.23531,30.303 11.23532,1.43835 11.23532,-8.53387 11.23531,12.82111 11.23532,-7.67149 11.23531,-31.97152 11.23532,7.13309 11.23532,-4.64254 11.23531,-0.76635 11.23532,25.9183 11.23531,-4.68046 11.23532,-6.88481 11.23532,-11.58624 11.23531,-5.49967"
       style="fill:none;stroke:#2ca02c;stroke-width:1.5;stroke-linecap:square;stroke-linejoin:round;stroke-miterlimit:10;stroke-dasharray:none;stroke-opacity:1"
       transform="matrix(1.3333333,0,0,-1.3333333,0,591.14166)"
       clip-path="url(#clipPath42)" />
    <path
       id="path43"
       d="m 565.1,335.29687 h 139 c 1.33333,0 2,0.66666 2,2 v 88.35937 c 0,1.33334 -0.66667,2 -2,2 h -139 c -1.33333,0 -2,-0.66666 -2,-2 v -88.35937 c 0,-1.33334 0.66667,-2 2,-2 z"
       style="fill:#ffffff;fill-opacity:0.8;fill-rule:nonzero;stroke:#cccccc;stroke-width:1;stroke-linecap:butt;stroke-linejoin:miter;stroke-miterlimit:10;stroke-dasharray:none;stroke-opacity:0.8"
       transform="matrix(1.3333333,0,0,-1.3333333,0,591.14166)" />
    <path
       id="path44"
       d="m 567.1,419.56249 h 20"
       style="fill:none;stroke:#1f77b4;stroke-width:1.5;stroke-linecap:square;stroke-linejoin:round;stroke-miterlimit:10;stroke-dasharray:none;stroke-opacity:1"
       transform="matrix(1.3333333,0,0,-1.3333333,0,591.14166)" />
    <text
       id="text44"
       xml:space="preserve"
       transform="matrix(1.3333333,0,0,1.3333333,793.46667,36.391667)"><tspan
         id="tspan44"
         style="font-variant:normal;font-weight:normal;font-size:10px;font-family:'DejaVu Sans';writing-mode:lr-tb;fill:#000000;fill-opacity:1;fill-rule:nonzero;stroke:none"
         x="0"
         y="0">DES Mean</tspan></text>
    <path
       id="path45"
       d="m 567.1,404.89062 h 20"
       style="fill:none;stroke:#ff7f0e;stroke-width:1.5;stroke-linecap:square;stroke-linejoin:round;stroke-miterlimit:10;stroke-dasharray:none;stroke-opacity:1"
       transform="matrix(1.3333333,0,0,-1.3333333,0,591.14166)" />
    <text
       id="text45"
       xml:space="preserve"
       transform="matrix(1.3333333,0,0,1.3333333,793.46667,55.954167)"><tspan
         id="tspan45"
         style="font-variant:normal;font-weight:normal;font-size:10px;font-family:'DejaVu Sans';writing-mode:lr-tb;fill:#000000;fill-opacity:1;fill-rule:nonzero;stroke:none"
         x="0"
         y="0">CMA-ES Mean</tspan></text>
    <path
       id="path46"
       d="m 567.1,390.21874 h 20"
       style="fill:none;stroke:#2ca02c;stroke-width:1.5;stroke-linecap:square;stroke-linejoin:round;stroke-miterlimit:10;stroke-dasharray:none;stroke-opacity:1"
       transform="matrix(1.3333333,0,0,-1.3333333,0,591.14166)" />
    <text
       id="text46"
       xml:space="preserve"
       transform="matrix(1.3333333,0,0,1.3333333,793.46667,75.516667)"><tspan
         id="tspan46"
         style="font-variant:normal;font-weight:normal;font-size:10px;font-family:'DejaVu Sans';writing-mode:lr-tb;fill:#000000;fill-opacity:1;fill-rule:nonzero;stroke:none"
         x="0"
         y="0">jSO Mean</tspan></text>
    <path
       id="path47"
       d="m 567.1,372.04687 h 20 v 7 h -20 z"
       style="fill:#1f77b4;fill-opacity:0.3;fill-rule:nonzero;stroke:none"
       transform="matrix(1.3333333,0,0,-1.3333333,0,591.14166)" />
    <text
       id="text47"
       xml:space="preserve"
       transform="matrix(1.3333333,0,0,1.3333333,793.46667,94.5375)"><tspan
         id="tspan47"
         style="font-variant:normal;font-weight:normal;font-size:10px;font-family:'DejaVu Sans';writing-mode:lr-tb;fill:#000000;fill-opacity:1;fill-rule:nonzero;stroke:none"
         x="0"
         y="0">DES ± 1 std. dev.</tspan></text>
    <path
       id="path48"
       d="m 567.1,357.37499 h 20 v 7 h -20 z"
       style="fill:#ff7f0e;fill-opacity:0.3;fill-rule:nonzero;stroke:none"
       transform="matrix(1.3333333,0,0,-1.3333333,0,591.14166)" />
    <text
       id="text48"
       xml:space="preserve"
       transform="matrix(1.3333333,0,0,1.3333333,793.46667,114.1)"><tspan
         id="tspan48"
         style="font-variant:normal;font-weight:normal;font-size:10px;font-family:'DejaVu Sans';writing-mode:lr-tb;fill:#000000;fill-opacity:1;fill-rule:nonzero;stroke:none"
         x="0"
         y="0">CMA-ES ± 1 std. dev.</tspan></text>
    <path
       id="path49"
       d="m 567.1,342.29687 h 20 v 7 h -20 z"
       style="fill:#2ca02c;fill-opacity:0.3;fill-rule:nonzero;stroke:none"
       transform="matrix(1.3333333,0,0,-1.3333333,0,591.14166)" />
    <text
       id="text49"
       xml:space="preserve"
       transform="matrix(1.3333333,0,0,1.3333333,793.46667,134.20417)"><tspan
         id="tspan49"
         style="font-variant:normal;font-weight:normal;font-size:10px;font-family:'DejaVu Sans';writing-mode:lr-tb;fill:#000000;fill-opacity:1;fill-rule:nonzero;stroke:none"
         x="0"
         y="0">jSO ± 1 std. dev.</tspan></text>
  </g>
</svg>
