<svg xmlns="http://www.w3.org/2000/svg" width="962.4" height="591.142" viewBox="0 0 962.4 591.142"><defs><clipPath id="a" clipPathUnits="userSpaceOnUse"><path d="M48.778 42.544H711.1v390.112H48.778Z"/></clipPath><clipPath id="b" clipPathUnits="userSpaceOnUse"><path d="M48.778 42.544H711.1v390.112H48.778Z"/></clipPath><clipPath id="c" clipPathUnits="userSpaceOnUse"><path d="M48.778 42.544H711.1v390.112H48.778Z"/></clipPath><clipPath id="d" clipPathUnits="userSpaceOnUse"><path d="M48.778 42.544H711.1v390.112H48.778Z"/></clipPath><clipPath id="e" clipPathUnits="userSpaceOnUse"><path d="M48.778 42.544H711.1v390.112H48.778Z"/></clipPath><clipPath id="f" clipPathUnits="userSpaceOnUse"><path d="M48.778 42.544H711.1v390.112H48.778Z"/></clipPath><clipPath id="g" clipPathUnits="userSpaceOnUse"><path d="M48.778 42.544H711.1v390.112H48.778Z"/></clipPath><clipPath id="h" clipPathUnits="userSpaceOnUse"><path d="M48.778 42.544H711.1v390.112H48.778Z"/></clipPath><clipPath id="i" clipPathUnits="userSpaceOnUse"><path d="M48.778 42.544H711.1v390.112H48.778Z"/></clipPath><clipPath id="j" clipPathUnits="userSpaceOnUse"><path d="M48.778 42.544H711.1v390.112H48.778Z"/></clipPath><clipPath id="k" clipPathUnits="userSpaceOnUse"><path d="M48.778 42.544H711.1v390.112H48.778Z"/></clipPath><clipPath id="l" clipPathUnits="userSpaceOnUse"><path d="M48.778 42.544H711.1v390.112H48.778Z"/></clipPath><clipPath id="m" clipPathUnits="userSpaceOnUse"><path d="M48.778 42.544H711.1v390.112H48.778Z"/></clipPath><clipPath id="n" clipPathUnits="userSpaceOnUse"><path d="M48.778 42.544H711.1v390.112H48.778Z"/></clipPath><clipPath id="o" clipPathUnits="userSpaceOnUse"><path d="M48.778 42.544H711.1v390.112H48.778Z"/></clipPath><clipPath id="p" clipPathUnits="userSpaceOnUse"><path d="M48.778 42.544H711.1v390.112H48.778Z"/></clipPath></defs><path d="M160.57 42.544v390.112" clip-path="url(#a)" style="fill:none;stroke:#e6e6e6;stroke-width:1;stroke-linecap:square;stroke-linejoin:round;stroke-miterlimit:10;stroke-dasharray:none;stroke-opacity:1" transform="matrix(1.33333 0 0 -1.33333 0 591.142)"/><path d="M160.57 37.544v-3.5" style="fill:#000;fill-opacity:1;fill-rule:nonzero;stroke:#000;stroke-width:.8;stroke-linecap:butt;stroke-linejoin:round;stroke-miterlimit:10;stroke-dasharray:none;stroke-opacity:1" transform="matrix(1.33333 0 0 -1.33333 0 591.142)"/><text xml:space="preserve" transform="translate(205.614 560.542)scale(1.33333)"><tspan x="0" y="0" style="font-variant:normal;font-weight:400;font-size:10px;font-family:&quot;DejaVu Sans&quot;;writing-mode:lr-tb;fill:#000;fill-opacity:1;fill-rule:nonzero;stroke:none">10</tspan></text><path d="M272.923 42.544v390.112" clip-path="url(#b)" style="fill:none;stroke:#e6e6e6;stroke-width:1;stroke-linecap:square;stroke-linejoin:round;stroke-miterlimit:10;stroke-dasharray:none;stroke-opacity:1" transform="matrix(1.33333 0 0 -1.33333 0 591.142)"/><path d="M272.923 37.544v-3.5" style="fill:#000;fill-opacity:1;fill-rule:nonzero;stroke:#000;stroke-width:.8;stroke-linecap:butt;stroke-linejoin:round;stroke-miterlimit:10;stroke-dasharray:none;stroke-opacity:1" transform="matrix(1.33333 0 0 -1.33333 0 591.142)"/><text xml:space="preserve" transform="translate(355.418 560.542)scale(1.33333)"><tspan x="0" y="0" style="font-variant:normal;font-weight:400;font-size:10px;font-family:&quot;DejaVu Sans&quot;;writing-mode:lr-tb;fill:#000;fill-opacity:1;fill-rule:nonzero;stroke:none">20</tspan></text><path d="M385.276 42.544v390.112" clip-path="url(#c)" style="fill:none;stroke:#e6e6e6;stroke-width:1;stroke-linecap:square;stroke-linejoin:round;stroke-miterlimit:10;stroke-dasharray:none;stroke-opacity:1" transform="matrix(1.33333 0 0 -1.33333 0 591.142)"/><path d="M385.276 37.544v-3.5" style="fill:#000;fill-opacity:1;fill-rule:nonzero;stroke:#000;stroke-width:.8;stroke-linecap:butt;stroke-linejoin:round;stroke-miterlimit:10;stroke-dasharray:none;stroke-opacity:1" transform="matrix(1.33333 0 0 -1.33333 0 591.142)"/><text xml:space="preserve" transform="translate(505.222 560.542)scale(1.33333)"><tspan x="0" y="0" style="font-variant:normal;font-weight:400;font-size:10px;font-family:&quot;DejaVu Sans&quot;;writing-mode:lr-tb;fill:#000;fill-opacity:1;fill-rule:nonzero;stroke:none">30</tspan></text><path d="M497.629 42.544v390.112" clip-path="url(#d)" style="fill:none;stroke:#e6e6e6;stroke-width:1;stroke-linecap:square;stroke-linejoin:round;stroke-miterlimit:10;stroke-dasharray:none;stroke-opacity:1" transform="matrix(1.33333 0 0 -1.33333 0 591.142)"/><path d="M497.629 37.544v-3.5" style="fill:#000;fill-opacity:1;fill-rule:nonzero;stroke:#000;stroke-width:.8;stroke-linecap:butt;stroke-linejoin:round;stroke-miterlimit:10;stroke-dasharray:none;stroke-opacity:1" transform="matrix(1.33333 0 0 -1.33333 0 591.142)"/><text xml:space="preserve" transform="translate(655.026 560.542)scale(1.33333)"><tspan x="0" y="0" style="font-variant:normal;font-weight:400;font-size:10px;font-family:&quot;DejaVu Sans&quot;;writing-mode:lr-tb;fill:#000;fill-opacity:1;fill-rule:nonzero;stroke:none">40</tspan></text><path d="M609.982 42.544v390.112" clip-path="url(#e)" style="fill:none;stroke:#e6e6e6;stroke-width:1;stroke-linecap:square;stroke-linejoin:round;stroke-miterlimit:10;stroke-dasharray:none;stroke-opacity:1" transform="matrix(1.33333 0 0 -1.33333 0 591.142)"/><path d="M609.982 37.544v-3.5" style="fill:#000;fill-opacity:1;fill-rule:nonzero;stroke:#000;stroke-width:.8;stroke-linecap:butt;stroke-linejoin:round;stroke-miterlimit:10;stroke-dasharray:none;stroke-opacity:1" transform="matrix(1.33333 0 0 -1.33333 0 591.142)"/><text xml:space="preserve" transform="translate(804.83 560.542)scale(1.33333)"><tspan x="0" y="0" style="font-variant:normal;font-weight:400;font-size:10px;font-family:&quot;DejaVu Sans&quot;;writing-mode:lr-tb;fill:#000;fill-opacity:1;fill-rule:nonzero;stroke:none">50</tspan></text><text xml:space="preserve" transform="translate(469.377 578.77)scale(1.33333)"><tspan x="0" y="0" style="font-variant:normal;font-weight:400;font-size:10px;font-family:&quot;DejaVu Sans&quot;;writing-mode:lr-tb;fill:#000;fill-opacity:1;fill-rule:nonzero;stroke:none">Generation</tspan></text><path d="M48.778 105.358H711.1" clip-path="url(#f)" style="fill:none;stroke:#e6e6e6;stroke-width:1;stroke-linecap:square;stroke-linejoin:round;stroke-miterlimit:10;stroke-dasharray:none;stroke-opacity:1" transform="matrix(1.33333 0 0 -1.33333 0 591.142)"/><path d="M43.778 105.358h-3.5" style="fill:#000;fill-opacity:1;fill-rule:nonzero;stroke:#000;stroke-width:.8;stroke-linecap:butt;stroke-linejoin:round;stroke-miterlimit:10;stroke-dasharray:none;stroke-opacity:1" transform="matrix(1.33333 0 0 -1.33333 0 591.142)"/><text xml:space="preserve" transform="translate(27.83 455.726)scale(1.33333)"><tspan x="0" y="0" style="font-variant:normal;font-weight:400;font-size:10px;font-family:&quot;DejaVu Sans&quot;;writing-mode:lr-tb;fill:#000;fill-opacity:1;fill-rule:nonzero;stroke:none">0.2</tspan></text><path d="M48.778 171.48H711.1" clip-path="url(#g)" style="fill:none;stroke:#e6e6e6;stroke-width:1;stroke-linecap:square;stroke-linejoin:round;stroke-miterlimit:10;stroke-dasharray:none;stroke-opacity:1" transform="matrix(1.33333 0 0 -1.33333 0 591.142)"/><path d="M43.778 171.48h-3.5" style="fill:#000;fill-opacity:1;fill-rule:nonzero;stroke:#000;stroke-width:.8;stroke-linecap:butt;stroke-linejoin:round;stroke-miterlimit:10;stroke-dasharray:none;stroke-opacity:1" transform="matrix(1.33333 0 0 -1.33333 0 591.142)"/><text xml:space="preserve" transform="translate(27.83 367.565)scale(1.33333)"><tspan x="0" y="0" style="font-variant:normal;font-weight:400;font-size:10px;font-family:&quot;DejaVu Sans&quot;;writing-mode:lr-tb;fill:#000;fill-opacity:1;fill-rule:nonzero;stroke:none">0.4</tspan></text><path d="M48.778 237.6H711.1" clip-path="url(#h)" style="fill:none;stroke:#e6e6e6;stroke-width:1;stroke-linecap:square;stroke-linejoin:round;stroke-miterlimit:10;stroke-dasharray:none;stroke-opacity:1" transform="matrix(1.33333 0 0 -1.33333 0 591.142)"/><path d="M43.778 237.6h-3.5" style="fill:#000;fill-opacity:1;fill-rule:nonzero;stroke:#000;stroke-width:.8;stroke-linecap:butt;stroke-linejoin:round;stroke-miterlimit:10;stroke-dasharray:none;stroke-opacity:1" transform="matrix(1.33333 0 0 -1.33333 0 591.142)"/><text xml:space="preserve" transform="translate(27.83 279.404)scale(1.33333)"><tspan x="0" y="0" style="font-variant:normal;font-weight:400;font-size:10px;font-family:&quot;DejaVu Sans&quot;;writing-mode:lr-tb;fill:#000;fill-opacity:1;fill-rule:nonzero;stroke:none">0.6</tspan></text><path d="M48.778 303.72H711.1" clip-path="url(#i)" style="fill:none;stroke:#e6e6e6;stroke-width:1;stroke-linecap:square;stroke-linejoin:round;stroke-miterlimit:10;stroke-dasharray:none;stroke-opacity:1" transform="matrix(1.33333 0 0 -1.33333 0 591.142)"/><path d="M43.778 303.72h-3.5" style="fill:#000;fill-opacity:1;fill-rule:nonzero;stroke:#000;stroke-width:.8;stroke-linecap:butt;stroke-linejoin:round;stroke-miterlimit:10;stroke-dasharray:none;stroke-opacity:1" transform="matrix(1.33333 0 0 -1.33333 0 591.142)"/><text xml:space="preserve" transform="translate(27.83 191.243)scale(1.33333)"><tspan x="0" y="0" style="font-variant:normal;font-weight:400;font-size:10px;font-family:&quot;DejaVu Sans&quot;;writing-mode:lr-tb;fill:#000;fill-opacity:1;fill-rule:nonzero;stroke:none">0.8</tspan></text><path d="M48.778 369.842H711.1" clip-path="url(#j)" style="fill:none;stroke:#e6e6e6;stroke-width:1;stroke-linecap:square;stroke-linejoin:round;stroke-miterlimit:10;stroke-dasharray:none;stroke-opacity:1" transform="matrix(1.33333 0 0 -1.33333 0 591.142)"/><path d="M43.778 369.842h-3.5" style="fill:#000;fill-opacity:1;fill-rule:nonzero;stroke:#000;stroke-width:.8;stroke-linecap:butt;stroke-linejoin:round;stroke-miterlimit:10;stroke-dasharray:none;stroke-opacity:1" transform="matrix(1.33333 0 0 -1.33333 0 591.142)"/><text xml:space="preserve" transform="translate(27.83 103.082)scale(1.33333)"><tspan x="0" y="0" style="font-variant:normal;font-weight:400;font-size:10px;font-family:&quot;DejaVu Sans&quot;;writing-mode:lr-tb;fill:#000;fill-opacity:1;fill-rule:nonzero;stroke:none">1.0</tspan></text><text xml:space="preserve" transform="rotate(-90 160.56 140.834)scale(1.33333)"><tspan x="0" y="0" style="font-variant:normal;font-weight:400;font-size:10px;font-family:&quot;DejaVu Sans&quot;;writing-mode:lr-tb;fill:#000;fill-opacity:1;fill-rule:nonzero;stroke:none">Log loss</tspan></text><path d="M59.452 273.593v-79.044l11.235 21.406 11.235-25.396 11.236-92.44 11.235 87.754 11.235-33.962 11.236 8.48 11.235 3.002 11.235-8.936 11.236-12.403 11.235 4.06 11.235-2.286 11.235-6.497 11.236 3.425 11.235 5.026 11.235-109.509 11.236 97.39 11.235 10.553 11.235-105.542 11.236 100.992 11.235-1.307 11.235-2.59 11.236 1.598 11.235.729 11.235-9.492 11.236 13.585 11.235 1.081 11.235.364 11.236-5.403 11.235 3.915 11.235-1.85 11.235.704 11.236-1.582 11.235 1.462 11.235 2.18 11.236-10.848 11.235 4.632 11.235 1.942 11.236 2.804 11.235-1.321 11.235-.104 11.236-2.937 11.235 5.537 11.235.16 11.236-1.95 11.235-4.492 11.235.029 11.236 2.227 11.235-5.133 11.235-.597 11.235-1.7 11.236 6.05 11.235.347 11.235-1.9 11.236-1.353 11.235-7.676 11.235 10.864 11.236-2.708v23.587l-11.236 2.44-11.235 14.851-11.235-19.552-11.236-.257-11.235 4.815-11.235-3.44-11.236 8.463-11.235 4.978-11.235-6.589-11.235 2.99-11.236-3.629-11.235 5.477-11.235-8.456-11.236 2.83-11.235 2.011-11.235.242-11.236-11.334-11.235 6.444-11.235 6.331-11.236 1.657-11.235 13.039-11.235-7.164-11.236-17.476-11.235 13.505-11.235 1.201-11.236 5.918-11.235-1.245-11.235-12.404-11.235 32.852-11.236-33.16-11.235 7.053-11.235 13.729-11.236 18.766-11.235-42.732-11.235 36.263-11.236 3.268-11.235 7.479-11.235 16.93-11.236 192.077-11.235-230.637-11.235 28.273L227.98 416.38l-11.235-248.372-11.235 67.768-11.236-7.62-11.235 8.591-11.235 8.139-11.235-13.27-11.236 13.507-11.235 4.702-11.235 3.689-11.236 5.067-11.235 14.911-11.235 178.764-11.236-181.652-11.235 9.955z" clip-path="url(#k)" style="fill:#1f77b4;fill-opacity:.3;fill-rule:nonzero;stroke:none" transform="matrix(1.33333 0 0 -1.33333 0 591.142)"/><path d="M59.452 244.108v-90.47l11.235-2.096 11.235-1.993 11.236-31.27 11.235 175.015 11.235-271.181 11.236 78.799 11.235 51.312 11.235 153.342L160.57 155.28l11.235-170.746 11.235 159.266 11.235-26.716 11.236 24.351 11.235-172.306 11.235 179.781 11.236-13.353 11.235-153.774 11.235-4.843 11.236 88.655L284.158 1.54l11.235 62.401L306.63-1.704l11.235-26.365 11.235 168.137 11.236-156.993 11.235 168.068 11.235-2.1 11.236-8.905 11.235-12.15L396.51 146.5l11.235-4.53 11.236.627 11.235-13.33 11.235-147.966 11.236 164.946 11.235-1.165 11.235 5.792 11.236-11.215 11.235-2.12 11.235 2.502 11.236-4.172 11.235 3.143 11.235 7.705 11.236-4.114L565.04-32.374l11.235 178.216 11.236 2.71 11.235-5.464 11.235-.358 11.235-2.084 11.236 2.675 11.235-7.092 11.235-6.278 11.236 13.167 11.235-3.247 11.235.39 11.236.178 11.235 1.724 11.235-6.106 11.236.087 11.235.624 11.235-5.45 11.236 6.704 11.235-.012 11.235 5.21 11.236-6.864 11.235 5.924 11.235 1.133 11.235-3.811 11.236-3.157 11.235-3.645 11.235 4.128 11.236 3.314 11.235-2.263 11.235-1.232 11.236 1.19 11.235 1.803 11.235-1.294 11.236 5.64 11.235-6.995 11.235-1.228 11.236-5.452 11.235 5.696 11.235.91 11.236 1.717 11.235-.772 11.235 1.612 11.236 2.237 11.235-2.325 11.235 1.906 11.235 2.634 11.236-7.679 11.235 4.032 11.235-2.152 11.236 1.233 11.235-2.395 11.235 5.205 11.236-5.155 11.235-2.6 11.235 3.5 11.236-3.08 11.235 7.26 11.235.896 11.236-1.733 11.235-.353 11.235-2.941 11.236 4.052 11.235-2.632 11.235 1.475 11.235-1.117 11.236-5.681 11.235 4.276 11.235 4.617 11.236-4.077 11.235.583 11.235-.457 11.236-.158 11.235.058 11.235-170.23 11.236 20.13 11.235 144.29 11.235 6.634 11.236 5.303 11.235-7.47 11.235-141.728 11.236 67.253 11.235 76.97 11.235-164.603 11.235 159.35 11.236 11.277 11.235-6.436 11.235 1.3 11.236-7.81 11.235 5.346 11.235-3.661 11.236 1.238 11.235 3.761 11.235-8.298 11.236 12.816 11.235-3.442 11.235-.805 11.236-1.347 11.235-2.156 11.235 2.756 11.236-2.25 11.235-177.08 11.235 171.962 11.235 4.388 11.236 1.01 11.235.169 11.235-5.882 11.236 7.008 11.235-4.995 11.235 8.966 11.236-7.583 11.235 5.712 11.235-1.03 11.236.598 11.235-7.354 11.235 5.619 11.236-5.299 11.235.76v25.233l-11.235 20.775-11.236-10.332-11.235-7.088-11.235 2.184-11.236.065-11.235-8.644-11.235 3.617-11.236-8.687-11.235 5.783-11.235 1.288-11.236-4.69-11.235-2.573-11.235 16.431-11.236-18.677-11.235-2.64-11.235 401.549-11.235-389.81-11.236 2.522-11.235 1.86-11.235-10.262-11.236 12.235-11.235 10.44-11.235-16.933-11.236 19.74-11.235 4.011-11.235-36.378-11.236 5.924-11.235-2.063-11.235-2.388-11.236 19.535-11.235-5.058-11.235-4.695-11.236 2.018-11.235 396.611-11.235-391.39-11.235 744.885-11.236-153.562-11.235-600.446-11.235 4.497-11.236-4.06-11.235 11.485-11.235 585.456-11.236-200.233-11.235-401.007-11.235 7.066-11.236-2.336-11.235 1.813-11.235-7.692-11.236 5.277-11.235 9.286-11.235-9.786-11.236-2.231-11.235 2.106-11.235-.295-11.235-1.015-11.236 4.596-11.235 3.68-11.235-7-11.236 10.508-11.235-8.838-11.235 12.937-11.236-3.727-11.235 2.644-11.235-10.285-11.236 5.164-11.235-2.656-11.235-6.748-11.236 3.616-11.235-5.71-11.235 25.775-11.236-16.04-11.235-2.933-11.235-5.154-11.235 6.277-11.236-8.926-11.235-.63-11.235 9.298-11.236-10.934-11.235 3.259-11.235 31.198-11.236-23.315-11.235 1.654-11.235-2.735-11.236 28.602-11.235-35.646-11.235.047-11.236-3.253-11.235 8.426-11.235-.356-11.236 14.794-11.235-4.717-11.235-6.197-11.236 1.324-11.235 1.182-11.235 8.782-11.235 1.407-11.236-14.917-11.235 4.174-11.235 15.946-11.236-7.267-11.235-2.755-11.235 1.305-11.236 3.34-11.235-14.258-11.235 7.965-11.236-.277-11.235-6.827-11.235-.615-11.236 11.18-11.235 17.598-11.235-20.754-11.236 2.79-11.235-16.533-11.235 23.316-11.235 1.115-11.236-11.385-11.235 385.685-11.235-387.933-11.236 16.386-11.235-16.372-11.235 10.34-11.236-18.495-11.235 3.586-11.235-7.733-11.236 14.18-11.235 4.016-11.235-7.456-11.236 395.96-11.235-381.208-11.235 13.543-11.236-24.929-11.235 1.393-11.235 42.435-11.235-41.125-11.236 32.127-11.235-35.23-11.235 393.762-11.236-387.197-11.235 382.093-11.235 201.294-11.236 153.838-11.235-152.923-11.235 153.186-11.236-352.18-11.235 1.372-11.235-376.74-11.236-11.113-11.235 381.929-11.235-373.494-11.236 22.654-11.235-17.039-11.235 374.992-11.235 472.17-11.236 92.059L138.1 220.9l-11.235 693.781-11.236-151.937-11.235 362.039L93.158 917.46 81.922 212.673 70.687 244.52Z" clip-path="url(#l)" style="fill:#ff7f0e;fill-opacity:.3;fill-rule:nonzero;stroke:none" transform="matrix(1.33333 0 0 -1.33333 0 591.142)"/><path d="M59.452 283.207v-76.258l11.235-21.983 11.235-12.769 11.236-1.02 11.235-10.303 11.235-9.755 11.236 15.236 11.235-7.261 11.235-6.55 11.236-2.183 11.235-1.675 11.235-9.486 11.235-.028 11.236-8.675 11.235 2.994 11.235 6.047 11.236 6.33 11.235-1.221 11.235 29.785 11.236-25.466 11.235-14.344 11.235 25.161 11.236-22.475 11.235 4.666 11.235 21.024 11.236 10.745 11.235-8.954 11.235-17.439 11.236-4.591 11.235-2.72 11.235-3.382 11.235 10.245 11.236 3.565 11.235-1.664 11.235-10.247 11.236 11.432 11.235-8.023 11.235 3.814 11.236 7.338 11.235-5.002 11.235-8.332 11.236 2.335 11.235-7.537 11.235 3.298 11.236 16.999 11.235-.789v5.811l-11.235 10.211-11.236 40.171-11.235 17.068-11.235 1.824-11.236-49.502-11.235-6.8-11.235 4.284-11.236-6.928-11.235 67.756-11.235 7.321-11.236-14.21-11.235 6.82-11.235-4.54-11.236-57.042-11.235 50.266-11.235-.287-11.235 24.164-11.236-23.195-11.235 28.622-11.235 20.325-11.236-8.068-11.235-41.374-11.235 14.686-11.236 9.619-11.235-32.027-11.235 17.11-11.236 24.326-11.235-28.355-11.235 17.874-11.236-20.05-11.235-6.069-11.235 2.561-11.236 2.637-11.235-18.191-11.235 9.962-11.235 11.826-11.236 11.783-11.235 4.306-11.235 7.722-11.236-14.977-11.235 13.83-11.235 8.879-11.236 5.085-11.235 7.287z" clip-path="url(#m)" style="fill:#2ca02c;fill-opacity:.3;fill-rule:nonzero;stroke:none" transform="matrix(1.33333 0 0 -1.33333 0 591.142)"/><path d="m59.452 234.07 11.235 14.187 11.235-17.675 11.236 44.606 11.235-45.505 11.235-24.436 11.236 1.706 11.235-.343 11.235-6.82 11.236-12.955 11.235 8.666 11.235-5.213 11.235-7.544 11.236 5.523 11.235-31.372 11.235 69.432 11.236-52.333 11.235-8.86 11.235 62.548 11.236-45.542 11.235-9.119 11.235-5.034 11.236-.835 11.235-17.767 11.235 16.62 11.236-2.59 11.235-6.325 11.235-3.345 11.236 13.88 11.235-14.469 11.235 5.277 11.235.975 11.236-3.75 11.235.13 11.235-5.662 11.236 3.314 11.235 5.897 11.235-5.548 11.236.573 11.235-3.826 11.235-3.273 11.236 4.198 11.235 2.648 11.235-.926 11.236-2.39 11.235 1.982 11.235-2.724 11.236 2.928 11.235-4.061 11.235 2.995 11.235-3.338 11.236-1.207 11.235 1.894 11.235-3.358 11.236-.548 11.235 5.938 11.235-1.993 11.236-2.575" clip-path="url(#n)" style="fill:none;stroke:#1f77b4;stroke-width:1.5;stroke-linecap:square;stroke-linejoin:round;stroke-miterlimit:10;stroke-dasharray:none;stroke-opacity:1" transform="matrix(1.33333 0 0 -1.33333 0 591.142)"/><path d="m59.452 198.873 11.235-.842 11.235-16.92 8.783 263.245m23.08 0 1.843-51.927 5.057 51.927m8.397 0 9.017-257.793 5.487 257.793m22.187 0 6.032-172.591 11.235-107.863 11.235-4.839 11.236.849 11.235 100.593 11.235-101.073 11.236-1.12 11.235 111.482 11.235-3.107 9.057 177.67m6.6 0 6.814-65.872 6.874 65.871m8.64 0 6.957-67.951 11.235-113.83 11.235-106.977L340.335 270.7l11.235-112.847 11.235 16.565 11.236-20.516 11.235 14.487 11.235-11.961 11.235-2.962 11.236 12.778 11.235-13.437 11.235 116.622 11.236-115.508 11.235 3.146 11.235.888 11.236-12.697 11.235 2.806 11.235-.542 11.236 7.162 11.235-3.599 11.235 12.039 11.236-10.25 11.235 106.478 11.235-103.735 11.236 7.047 11.235-3.29 11.235-11.836 11.235 7.225 11.236-.058 11.235 6.83 11.235-11.937 11.236.994 11.235-1.317 11.235 3.61 11.236.226 11.235-3.12 11.235 4.076.465-.067v0" clip-path="url(#o)" style="fill:none;stroke:#ff7f0e;stroke-width:1.5;stroke-linecap:square;stroke-linejoin:round;stroke-miterlimit:10;stroke-dasharray:none;stroke-opacity:1" transform="matrix(1.33333 0 0 -1.33333 0 591.142)"/><path d="m59.452 245.078 11.235-14.29 11.235-10.028 11.236-3.053 11.235-9.59 11.235-11.793 11.236 15.107 11.235-7.492 11.235-5.428 11.236-6.983 11.235-6.75 11.235-9.724 11.235 9.081 11.236-5.656 11.235.217 11.235 6.058 11.236 13.19 11.235-9.548 11.235 29.07 11.236-24.896 11.235-15.727 11.235 28.594 11.236-16.047 11.235-5.01 11.235 31.2 11.236 9.406 11.235-14.64 11.235-23.03 11.236 9.302 11.235-13.442 11.235-1.548 11.235-20.01 11.236 30.303 11.235 1.438 11.235-8.534 11.236 12.821 11.235-7.671 11.235-31.972 11.236 7.133 11.235-4.642 11.235-.766 11.236 25.918 11.235-4.68 11.235-6.885 11.236-11.587 11.235-5.5" clip-path="url(#p)" style="fill:none;stroke:#2ca02c;stroke-width:1.5;stroke-linecap:square;stroke-linejoin:round;stroke-miterlimit:10;stroke-dasharray:none;stroke-opacity:1" transform="matrix(1.33333 0 0 -1.33333 0 591.142)"/><path d="M565.1 335.297h139q2 0 2 2v88.36q0 2-2 2h-139q-2 0-2-2v-88.36q0-2 2-2z" style="fill:#fff;fill-opacity:.8;fill-rule:nonzero;stroke:#ccc;stroke-width:1;stroke-linecap:butt;stroke-linejoin:miter;stroke-miterlimit:10;stroke-dasharray:none;stroke-opacity:.8" transform="matrix(1.33333 0 0 -1.33333 0 591.142)"/><path d="M567.1 419.562h20" style="fill:none;stroke:#1f77b4;stroke-width:1.5;stroke-linecap:square;stroke-linejoin:round;stroke-miterlimit:10;stroke-dasharray:none;stroke-opacity:1" transform="matrix(1.33333 0 0 -1.33333 0 591.142)"/><text xml:space="preserve" transform="translate(793.467 36.392)scale(1.33333)"><tspan x="0" y="0" style="font-variant:normal;font-weight:400;font-size:10px;font-family:&quot;DejaVu Sans&quot;;writing-mode:lr-tb;fill:#000;fill-opacity:1;fill-rule:nonzero;stroke:none">DES Mean</tspan></text><path d="M567.1 404.89h20" style="fill:none;stroke:#ff7f0e;stroke-width:1.5;stroke-linecap:square;stroke-linejoin:round;stroke-miterlimit:10;stroke-dasharray:none;stroke-opacity:1" transform="matrix(1.33333 0 0 -1.33333 0 591.142)"/><text xml:space="preserve" transform="translate(793.467 55.954)scale(1.33333)"><tspan x="0" y="0" style="font-variant:normal;font-weight:400;font-size:10px;font-family:&quot;DejaVu Sans&quot;;writing-mode:lr-tb;fill:#000;fill-opacity:1;fill-rule:nonzero;stroke:none">CMA-ES Mean</tspan></text><path d="M567.1 390.219h20" style="fill:none;stroke:#2ca02c;stroke-width:1.5;stroke-linecap:square;stroke-linejoin:round;stroke-miterlimit:10;stroke-dasharray:none;stroke-opacity:1" transform="matrix(1.33333 0 0 -1.33333 0 591.142)"/><text xml:space="preserve" transform="translate(793.467 75.517)scale(1.33333)"><tspan x="0" y="0" style="font-variant:normal;font-weight:400;font-size:10px;font-family:&quot;DejaVu Sans&quot;;writing-mode:lr-tb;fill:#000;fill-opacity:1;fill-rule:nonzero;stroke:none">jSO Mean</tspan></text><path d="M567.1 372.047h20v7h-20z" style="fill:#1f77b4;fill-opacity:.3;fill-rule:nonzero;stroke:none" transform="matrix(1.33333 0 0 -1.33333 0 591.142)"/><text xml:space="preserve" transform="translate(793.467 94.537)scale(1.33333)"><tspan x="0" y="0" style="font-variant:normal;font-weight:400;font-size:10px;font-family:&quot;DejaVu Sans&quot;;writing-mode:lr-tb;fill:#000;fill-opacity:1;fill-rule:nonzero;stroke:none">DES ± 1 std. dev.</tspan></text><path d="M567.1 357.375h20v7h-20z" style="fill:#ff7f0e;fill-opacity:.3;fill-rule:nonzero;stroke:none" transform="matrix(1.33333 0 0 -1.33333 0 591.142)"/><text xml:space="preserve" transform="translate(793.467 114.1)scale(1.33333)"><tspan x="0" y="0" style="font-variant:normal;font-weight:400;font-size:10px;font-family:&quot;DejaVu Sans&quot;;writing-mode:lr-tb;fill:#000;fill-opacity:1;fill-rule:nonzero;stroke:none">CMA-ES ± 1 std. dev.</tspan></text><path d="M567.1 342.297h20v7h-20z" style="fill:#2ca02c;fill-opacity:.3;fill-rule:nonzero;stroke:none" transform="matrix(1.33333 0 0 -1.33333 0 591.142)"/><text xml:space="preserve" transform="translate(793.467 134.204)scale(1.33333)"><tspan x="0" y="0" style="font-variant:normal;font-weight:400;font-size:10px;font-family:&quot;DejaVu Sans&quot;;writing-mode:lr-tb;fill:#000;fill-opacity:1;fill-rule:nonzero;stroke:none">jSO ± 1 std. dev.</tspan></text></svg>