<svg xmlns="http://www.w3.org/2000/svg" width="962.4" height="591.142" viewBox="0 0 962.4 591.142"><defs><clipPath id="a" clipPathUnits="userSpaceOnUse"><path d="M48.778 42.544H711.1v390.112H48.778Z"/></clipPath><clipPath id="b" clipPathUnits="userSpaceOnUse"><path d="M48.778 42.544H711.1v390.112H48.778Z"/></clipPath><clipPath id="c" clipPathUnits="userSpaceOnUse"><path d="M48.778 42.544H711.1v390.112H48.778Z"/></clipPath><clipPath id="d" clipPathUnits="userSpaceOnUse"><path d="M48.778 42.544H711.1v390.112H48.778Z"/></clipPath><clipPath id="e" clipPathUnits="userSpaceOnUse"><path d="M48.778 42.544H711.1v390.112H48.778Z"/></clipPath><clipPath id="f" clipPathUnits="userSpaceOnUse"><path d="M48.778 42.544H711.1v390.112H48.778Z"/></clipPath><clipPath id="g" clipPathUnits="userSpaceOnUse"><path d="M48.778 42.544H711.1v390.112H48.778Z"/></clipPath><clipPath id="h" clipPathUnits="userSpaceOnUse"><path d="M48.778 42.544H711.1v390.112H48.778Z"/></clipPath><clipPath id="i" clipPathUnits="userSpaceOnUse"><path d="M48.778 42.544H711.1v390.112H48.778Z"/></clipPath><clipPath id="j" clipPathUnits="userSpaceOnUse"><path d="M48.778 42.544H711.1v390.112H48.778Z"/></clipPath><clipPath id="k" clipPathUnits="userSpaceOnUse"><path d="M48.778 42.544H711.1v390.112H48.778Z"/></clipPath><clipPath id="l" clipPathUnits="userSpaceOnUse"><path d="M48.778 42.544H711.1v390.112H48.778Z"/></clipPath><clipPath id="m" clipPathUnits="userSpaceOnUse"><path d="M48.778 42.544H711.1v390.112H48.778Z"/></clipPath><clipPath id="n" clipPathUnits="userSpaceOnUse"><path d="M48.778 42.544H711.1v390.112H48.778Z"/></clipPath><clipPath id="o" clipPathUnits="userSpaceOnUse"><path d="M48.778 42.544H711.1v390.112H48.778Z"/></clipPath><clipPath id="p" clipPathUnits="userSpaceOnUse"><path d="M48.778 42.544H711.1v390.112H48.778Z"/></clipPath><clipPath id="q" clipPathUnits="userSpaceOnUse"><path d="M48.778 42.544H711.1v390.112H48.778Z"/></clipPath><clipPath id="r" clipPathUnits="userSpaceOnUse"><path d="M48.778 42.544H711.1v390.112H48.778Z"/></clipPath><clipPath id="s" clipPathUnits="userSpaceOnUse"><path d="M48.778 42.544H711.1v390.112H48.778Z"/></clipPath><clipPath id="t" clipPathUnits="userSpaceOnUse"><path d="M48.778 42.544H711.1v390.112H48.778Z"/></clipPath><clipPath id="u" clipPathUnits="userSpaceOnUse"><path d="M48.778 42.544H711.1v390.112H48.778Z"/></clipPath><clipPath id="v" clipPathUnits="userSpaceOnUse"><path d="M48.778 42.544H711.1v390.112H48.778Z"/></clipPath></defs><path d="M75.167 42.544v390.112" clip-path="url(#a)" style="fill:none;stroke:#e6e6e6;stroke-width:1;stroke-linecap:square;stroke-linejoin:round;stroke-miterlimit:10;stroke-dasharray:none;stroke-opacity:1" transform="matrix(1.33333 0 0 -1.33333 0 591.142)"/><path d="M75.167 37.544v-3.5" style="fill:#000;fill-opacity:1;fill-rule:nonzero;stroke:#000;stroke-width:.8;stroke-linecap:butt;stroke-linejoin:round;stroke-miterlimit:10;stroke-dasharray:none;stroke-opacity:1" transform="matrix(1.33333 0 0 -1.33333 0 591.142)"/><text xml:space="preserve" transform="translate(95.983 560.542)scale(1.33333)"><tspan x="0" y="0" style="font-variant:normal;font-weight:400;font-size:10px;font-family:&quot;DejaVu Sans&quot;;writing-mode:lr-tb;fill:#000;fill-opacity:1;fill-rule:nonzero;stroke:none">0</tspan></text><path d="M149.502 42.544v390.112" clip-path="url(#b)" style="fill:none;stroke:#e6e6e6;stroke-width:1;stroke-linecap:square;stroke-linejoin:round;stroke-miterlimit:10;stroke-dasharray:none;stroke-opacity:1" transform="matrix(1.33333 0 0 -1.33333 0 591.142)"/><path d="M149.502 37.544v-3.5" style="fill:#000;fill-opacity:1;fill-rule:nonzero;stroke:#000;stroke-width:.8;stroke-linecap:butt;stroke-linejoin:round;stroke-miterlimit:10;stroke-dasharray:none;stroke-opacity:1" transform="matrix(1.33333 0 0 -1.33333 0 591.142)"/><text xml:space="preserve" transform="translate(190.856 560.542)scale(1.33333)"><tspan x="0" y="0" style="font-variant:normal;font-weight:400;font-size:10px;font-family:&quot;DejaVu Sans&quot;;writing-mode:lr-tb;fill:#000;fill-opacity:1;fill-rule:nonzero;stroke:none">20</tspan></text><path d="M223.836 42.544v390.112" clip-path="url(#c)" style="fill:none;stroke:#e6e6e6;stroke-width:1;stroke-linecap:square;stroke-linejoin:round;stroke-miterlimit:10;stroke-dasharray:none;stroke-opacity:1" transform="matrix(1.33333 0 0 -1.33333 0 591.142)"/><path d="M223.836 37.544v-3.5" style="fill:#000;fill-opacity:1;fill-rule:nonzero;stroke:#000;stroke-width:.8;stroke-linecap:butt;stroke-linejoin:round;stroke-miterlimit:10;stroke-dasharray:none;stroke-opacity:1" transform="matrix(1.33333 0 0 -1.33333 0 591.142)"/><text xml:space="preserve" transform="translate(289.97 560.542)scale(1.33333)"><tspan x="0" y="0" style="font-variant:normal;font-weight:400;font-size:10px;font-family:&quot;DejaVu Sans&quot;;writing-mode:lr-tb;fill:#000;fill-opacity:1;fill-rule:nonzero;stroke:none">40</tspan></text><path d="M298.17 42.544v390.112" clip-path="url(#d)" style="fill:none;stroke:#e6e6e6;stroke-width:1;stroke-linecap:square;stroke-linejoin:round;stroke-miterlimit:10;stroke-dasharray:none;stroke-opacity:1" transform="matrix(1.33333 0 0 -1.33333 0 591.142)"/><path d="M298.17 37.544v-3.5" style="fill:#000;fill-opacity:1;fill-rule:nonzero;stroke:#000;stroke-width:.8;stroke-linecap:butt;stroke-linejoin:round;stroke-miterlimit:10;stroke-dasharray:none;stroke-opacity:1" transform="matrix(1.33333 0 0 -1.33333 0 591.142)"/><text xml:space="preserve" transform="translate(389.082 560.542)scale(1.33333)"><tspan x="0" y="0" style="font-variant:normal;font-weight:400;font-size:10px;font-family:&quot;DejaVu Sans&quot;;writing-mode:lr-tb;fill:#000;fill-opacity:1;fill-rule:nonzero;stroke:none">60</tspan></text><path d="M372.506 42.544v390.112" clip-path="url(#e)" style="fill:none;stroke:#e6e6e6;stroke-width:1;stroke-linecap:square;stroke-linejoin:round;stroke-miterlimit:10;stroke-dasharray:none;stroke-opacity:1" transform="matrix(1.33333 0 0 -1.33333 0 591.142)"/><path d="M372.506 37.544v-3.5" style="fill:#000;fill-opacity:1;fill-rule:nonzero;stroke:#000;stroke-width:.8;stroke-linecap:butt;stroke-linejoin:round;stroke-miterlimit:10;stroke-dasharray:none;stroke-opacity:1" transform="matrix(1.33333 0 0 -1.33333 0 591.142)"/><text xml:space="preserve" transform="translate(488.195 560.542)scale(1.33333)"><tspan x="0" y="0" style="font-variant:normal;font-weight:400;font-size:10px;font-family:&quot;DejaVu Sans&quot;;writing-mode:lr-tb;fill:#000;fill-opacity:1;fill-rule:nonzero;stroke:none">80</tspan></text><path d="M446.84 42.544v390.112" clip-path="url(#f)" style="fill:none;stroke:#e6e6e6;stroke-width:1;stroke-linecap:square;stroke-linejoin:round;stroke-miterlimit:10;stroke-dasharray:none;stroke-opacity:1" transform="matrix(1.33333 0 0 -1.33333 0 591.142)"/><path d="M446.84 37.544v-3.5" style="fill:#000;fill-opacity:1;fill-rule:nonzero;stroke:#000;stroke-width:.8;stroke-linecap:butt;stroke-linejoin:round;stroke-miterlimit:10;stroke-dasharray:none;stroke-opacity:1" transform="matrix(1.33333 0 0 -1.33333 0 591.142)"/><text xml:space="preserve" transform="translate(583.068 560.542)scale(1.33333)"><tspan x="0" y="0" style="font-variant:normal;font-weight:400;font-size:10px;font-family:&quot;DejaVu Sans&quot;;writing-mode:lr-tb;fill:#000;fill-opacity:1;fill-rule:nonzero;stroke:none">100</tspan></text><path d="M521.175 42.544v390.112" clip-path="url(#g)" style="fill:none;stroke:#e6e6e6;stroke-width:1;stroke-linecap:square;stroke-linejoin:round;stroke-miterlimit:10;stroke-dasharray:none;stroke-opacity:1" transform="matrix(1.33333 0 0 -1.33333 0 591.142)"/><path d="M521.175 37.544v-3.5" style="fill:#000;fill-opacity:1;fill-rule:nonzero;stroke:#000;stroke-width:.8;stroke-linecap:butt;stroke-linejoin:round;stroke-miterlimit:10;stroke-dasharray:none;stroke-opacity:1" transform="matrix(1.33333 0 0 -1.33333 0 591.142)"/><text xml:space="preserve" transform="translate(682.181 560.542)scale(1.33333)"><tspan x="0" y="0" style="font-variant:normal;font-weight:400;font-size:10px;font-family:&quot;DejaVu Sans&quot;;writing-mode:lr-tb;fill:#000;fill-opacity:1;fill-rule:nonzero;stroke:none">120</tspan></text><path d="M595.51 42.544v390.112" clip-path="url(#h)" style="fill:none;stroke:#e6e6e6;stroke-width:1;stroke-linecap:square;stroke-linejoin:round;stroke-miterlimit:10;stroke-dasharray:none;stroke-opacity:1" transform="matrix(1.33333 0 0 -1.33333 0 591.142)"/><path d="M595.51 37.544v-3.5" style="fill:#000;fill-opacity:1;fill-rule:nonzero;stroke:#000;stroke-width:.8;stroke-linecap:butt;stroke-linejoin:round;stroke-miterlimit:10;stroke-dasharray:none;stroke-opacity:1" transform="matrix(1.33333 0 0 -1.33333 0 591.142)"/><text xml:space="preserve" transform="translate(781.294 560.542)scale(1.33333)"><tspan x="0" y="0" style="font-variant:normal;font-weight:400;font-size:10px;font-family:&quot;DejaVu Sans&quot;;writing-mode:lr-tb;fill:#000;fill-opacity:1;fill-rule:nonzero;stroke:none">140</tspan></text><path d="M669.844 42.544v390.112" clip-path="url(#i)" style="fill:none;stroke:#e6e6e6;stroke-width:1;stroke-linecap:square;stroke-linejoin:round;stroke-miterlimit:10;stroke-dasharray:none;stroke-opacity:1" transform="matrix(1.33333 0 0 -1.33333 0 591.142)"/><path d="M669.844 37.544v-3.5" style="fill:#000;fill-opacity:1;fill-rule:nonzero;stroke:#000;stroke-width:.8;stroke-linecap:butt;stroke-linejoin:round;stroke-miterlimit:10;stroke-dasharray:none;stroke-opacity:1" transform="matrix(1.33333 0 0 -1.33333 0 591.142)"/><text xml:space="preserve" transform="translate(880.407 560.542)scale(1.33333)"><tspan x="0" y="0" style="font-variant:normal;font-weight:400;font-size:10px;font-family:&quot;DejaVu Sans&quot;;writing-mode:lr-tb;fill:#000;fill-opacity:1;fill-rule:nonzero;stroke:none">160</tspan></text><text xml:space="preserve" transform="translate(469.377 578.77)scale(1.33333)"><tspan x="0" y="0" style="font-variant:normal;font-weight:400;font-size:10px;font-family:&quot;DejaVu Sans&quot;;writing-mode:lr-tb;fill:#000;fill-opacity:1;fill-rule:nonzero;stroke:none">Generation</tspan></text><path d="M48.778 84.37H711.1" clip-path="url(#j)" style="fill:none;stroke:#e6e6e6;stroke-width:1;stroke-linecap:square;stroke-linejoin:round;stroke-miterlimit:10;stroke-dasharray:none;stroke-opacity:1" transform="matrix(1.33333 0 0 -1.33333 0 591.142)"/><path d="M43.778 84.37h-3.5" style="fill:#000;fill-opacity:1;fill-rule:nonzero;stroke:#000;stroke-width:.8;stroke-linecap:butt;stroke-linejoin:round;stroke-miterlimit:10;stroke-dasharray:none;stroke-opacity:1" transform="matrix(1.33333 0 0 -1.33333 0 591.142)"/><text xml:space="preserve" transform="translate(27.83 483.71)scale(1.33333)"><tspan x="0" y="0" style="font-variant:normal;font-weight:400;font-size:10px;font-family:&quot;DejaVu Sans&quot;;writing-mode:lr-tb;fill:#000;fill-opacity:1;fill-rule:nonzero;stroke:none">0.0</tspan></text><path d="M48.778 134.706H711.1" clip-path="url(#k)" style="fill:none;stroke:#e6e6e6;stroke-width:1;stroke-linecap:square;stroke-linejoin:round;stroke-miterlimit:10;stroke-dasharray:none;stroke-opacity:1" transform="matrix(1.33333 0 0 -1.33333 0 591.142)"/><path d="M43.778 134.706h-3.5" style="fill:#000;fill-opacity:1;fill-rule:nonzero;stroke:#000;stroke-width:.8;stroke-linecap:butt;stroke-linejoin:round;stroke-miterlimit:10;stroke-dasharray:none;stroke-opacity:1" transform="matrix(1.33333 0 0 -1.33333 0 591.142)"/><text xml:space="preserve" transform="translate(27.83 416.597)scale(1.33333)"><tspan x="0" y="0" style="font-variant:normal;font-weight:400;font-size:10px;font-family:&quot;DejaVu Sans&quot;;writing-mode:lr-tb;fill:#000;fill-opacity:1;fill-rule:nonzero;stroke:none">0.5</tspan></text><path d="M48.778 185.04H711.1" clip-path="url(#l)" style="fill:none;stroke:#e6e6e6;stroke-width:1;stroke-linecap:square;stroke-linejoin:round;stroke-miterlimit:10;stroke-dasharray:none;stroke-opacity:1" transform="matrix(1.33333 0 0 -1.33333 0 591.142)"/><path d="M43.778 185.04h-3.5" style="fill:#000;fill-opacity:1;fill-rule:nonzero;stroke:#000;stroke-width:.8;stroke-linecap:butt;stroke-linejoin:round;stroke-miterlimit:10;stroke-dasharray:none;stroke-opacity:1" transform="matrix(1.33333 0 0 -1.33333 0 591.142)"/><text xml:space="preserve" transform="translate(27.83 349.483)scale(1.33333)"><tspan x="0" y="0" style="font-variant:normal;font-weight:400;font-size:10px;font-family:&quot;DejaVu Sans&quot;;writing-mode:lr-tb;fill:#000;fill-opacity:1;fill-rule:nonzero;stroke:none">1.0</tspan></text><path d="M48.778 235.376H711.1" clip-path="url(#m)" style="fill:none;stroke:#e6e6e6;stroke-width:1;stroke-linecap:square;stroke-linejoin:round;stroke-miterlimit:10;stroke-dasharray:none;stroke-opacity:1" transform="matrix(1.33333 0 0 -1.33333 0 591.142)"/><path d="M43.778 235.376h-3.5" style="fill:#000;fill-opacity:1;fill-rule:nonzero;stroke:#000;stroke-width:.8;stroke-linecap:butt;stroke-linejoin:round;stroke-miterlimit:10;stroke-dasharray:none;stroke-opacity:1" transform="matrix(1.33333 0 0 -1.33333 0 591.142)"/><text xml:space="preserve" transform="translate(27.83 282.37)scale(1.33333)"><tspan x="0" y="0" style="font-variant:normal;font-weight:400;font-size:10px;font-family:&quot;DejaVu Sans&quot;;writing-mode:lr-tb;fill:#000;fill-opacity:1;fill-rule:nonzero;stroke:none">1.5</tspan></text><path d="M48.778 285.711H711.1" clip-path="url(#n)" style="fill:none;stroke:#e6e6e6;stroke-width:1;stroke-linecap:square;stroke-linejoin:round;stroke-miterlimit:10;stroke-dasharray:none;stroke-opacity:1" transform="matrix(1.33333 0 0 -1.33333 0 591.142)"/><path d="M43.778 285.711h-3.5" style="fill:#000;fill-opacity:1;fill-rule:nonzero;stroke:#000;stroke-width:.8;stroke-linecap:butt;stroke-linejoin:round;stroke-miterlimit:10;stroke-dasharray:none;stroke-opacity:1" transform="matrix(1.33333 0 0 -1.33333 0 591.142)"/><text xml:space="preserve" transform="translate(27.83 215.256)scale(1.33333)"><tspan x="0" y="0" style="font-variant:normal;font-weight:400;font-size:10px;font-family:&quot;DejaVu Sans&quot;;writing-mode:lr-tb;fill:#000;fill-opacity:1;fill-rule:nonzero;stroke:none">2.0</tspan></text><path d="M48.778 336.046H711.1" clip-path="url(#o)" style="fill:none;stroke:#e6e6e6;stroke-width:1;stroke-linecap:square;stroke-linejoin:round;stroke-miterlimit:10;stroke-dasharray:none;stroke-opacity:1" transform="matrix(1.33333 0 0 -1.33333 0 591.142)"/><path d="M43.778 336.046h-3.5" style="fill:#000;fill-opacity:1;fill-rule:nonzero;stroke:#000;stroke-width:.8;stroke-linecap:butt;stroke-linejoin:round;stroke-miterlimit:10;stroke-dasharray:none;stroke-opacity:1" transform="matrix(1.33333 0 0 -1.33333 0 591.142)"/><text xml:space="preserve" transform="translate(27.83 148.143)scale(1.33333)"><tspan x="0" y="0" style="font-variant:normal;font-weight:400;font-size:10px;font-family:&quot;DejaVu Sans&quot;;writing-mode:lr-tb;fill:#000;fill-opacity:1;fill-rule:nonzero;stroke:none">2.5</tspan></text><path d="M48.778 386.381H711.1" clip-path="url(#p)" style="fill:none;stroke:#e6e6e6;stroke-width:1;stroke-linecap:square;stroke-linejoin:round;stroke-miterlimit:10;stroke-dasharray:none;stroke-opacity:1" transform="matrix(1.33333 0 0 -1.33333 0 591.142)"/><path d="M43.778 386.381h-3.5" style="fill:#000;fill-opacity:1;fill-rule:nonzero;stroke:#000;stroke-width:.8;stroke-linecap:butt;stroke-linejoin:round;stroke-miterlimit:10;stroke-dasharray:none;stroke-opacity:1" transform="matrix(1.33333 0 0 -1.33333 0 591.142)"/><text xml:space="preserve" transform="translate(27.83 81.03)scale(1.33333)"><tspan x="0" y="0" style="font-variant:normal;font-weight:400;font-size:10px;font-family:&quot;DejaVu Sans&quot;;writing-mode:lr-tb;fill:#000;fill-opacity:1;fill-rule:nonzero;stroke:none">3.0</tspan></text><text xml:space="preserve" transform="rotate(-90 160.56 140.834)scale(1.33333)"><tspan x="0" y="0" style="font-variant:normal;font-weight:400;font-size:10px;font-family:&quot;DejaVu Sans&quot;;writing-mode:lr-tb;fill:#000;fill-opacity:1;fill-rule:nonzero;stroke:none">Log loss</tspan></text><path d="M78.884 155.733v-24.07l3.716 6.519 3.717-7.734 3.717-28.148 3.717 26.721 3.716-10.341 3.717 2.582 3.717.914 3.717-2.72 3.716-3.778 3.717 1.237 3.717-.696 3.716-1.979 3.717 1.043 3.717 1.53 3.717-33.345 3.716 29.655 3.717 3.214 3.717-32.138 3.717 30.752 3.716-.398 3.717-.788 3.717.486 3.717.222 3.716-2.89 3.717 4.136 3.717.33 3.716.11 3.717-1.645 3.717 1.192 3.717-.563 3.716.214 3.717-.481 3.717.445 3.717.664 3.716-3.303 3.717 1.41 3.717.591 3.717.854 3.716-.402 3.717-.032 3.717-.894 3.716 1.686 3.717.049 3.717-.594 3.717-1.368 3.716.009 3.717.678 3.717-1.563 3.717-.182 3.716-.517 3.717 1.842 3.717.106 3.717-.579 3.716-.412 3.717-2.337 3.717 3.308 3.716-.825v7.182l-3.716.744-3.717 4.522-3.717-5.954-3.716-.078-3.717 1.466-3.717-1.047-3.717 2.576-3.716 1.516-3.717-2.006-3.717.91-3.717-1.104-3.716 1.667-3.717-2.575-3.717.862-3.717.612-3.716.074-3.717-3.451-3.717 1.962-3.716 1.928-3.717.504-3.717 3.97-3.717-2.18-3.716-5.322-3.717 4.112-3.717.366-3.717 1.802-3.716-.379-3.717-3.777-3.717 10.003-3.717-10.097-3.716 2.148-3.717 4.18-3.717 5.715-3.716-13.013-3.717 11.043-3.717.995-3.717 2.277-3.716 5.156-3.717 58.488-3.717-70.23-3.717 8.609-3.716 61.526-3.717-75.63-3.717 20.636-3.717-2.32-3.716 2.615-3.717 2.479-3.717-4.041-3.716 4.113-3.717 1.432-3.717 1.123-3.717 1.543-3.716 4.54-3.717 54.435-3.717-55.314-3.717 3.031z" clip-path="url(#q)" style="fill:#1f77b4;fill-opacity:.3;fill-rule:nonzero;stroke:none" transform="matrix(1.33333 0 0 -1.33333 0 591.142)"/><path d="M78.884 146.754v-27.548l3.716-.639 3.717-.606 3.717-9.522 3.717 53.293 3.716-82.576 3.717 23.994 3.717 15.625 3.717 46.694 3.716-45.764 3.717-51.992 3.717 48.497 3.716-8.135 3.717 7.415 3.717-52.468 3.717 54.744 3.716-4.066 3.717-46.825 3.717-1.475 3.717 26.996 3.716-19.504 3.717 19.001 3.717-19.99 3.717-8.028 3.716 51.199 3.717-47.805 3.717 51.177 3.716-.64 3.717-2.711 3.717-3.7 3.717 5.637 3.716-1.38 3.717.192 3.717-4.06 3.717-45.056 3.716 50.227 3.717-.355 3.717 1.764 3.717-3.415 3.716-.645 3.717.761 3.717-1.27 3.716.957 3.717 2.346 3.717-1.252 3.717-53.282 3.716 54.268 3.717.825 3.717-1.664 3.717-.109 3.716-.634 3.717.814 3.717-2.16 3.717-1.91 3.716 4.008 3.717-.988 3.717.118 3.716.055 3.717.525 3.717-1.86 3.717.027 3.716.19 3.717-1.66 3.717 2.042 3.717-.004 3.716 1.586 3.717-2.09 3.717 1.804 3.717.345 3.716-1.16 3.717-.962 3.717-1.11 3.716 1.257 3.717 1.01 3.717-.69 3.717-.375 3.716.362 3.717.55 3.717-.394 3.717 1.717 3.716-2.13 3.717-.374 3.717-1.66 3.717 1.734 3.716.278 3.717.522 3.717-.235 3.716.49 3.717.682 3.717-.708 3.717.58 3.716.803 3.717-2.339 3.717 1.228 3.717-.655 3.716.375 3.717-.729 3.717 1.585 3.717-1.57 3.716-.792 3.717 1.066 3.717-.938 3.716 2.21 3.717.274 3.717-.528 3.717-.107 3.716-.896 3.717 1.234 3.717-.801 3.717.449 3.716-.34 3.717-1.73 3.717 1.302 3.717 1.406 3.716-1.242 3.717.178 3.717-.14 3.716-.048 3.717.018 3.717-51.836 3.717 6.13 3.716 43.937 3.717 2.02 3.717 1.615 3.717-2.275 3.716-43.157 3.717 20.48 3.717 23.437 3.717-50.122 3.716 48.522 3.717 3.434 3.717-1.96 3.716.396 3.717-2.378 3.717 1.628 3.717-1.115 3.716.377 3.717 1.146 3.717-2.527 3.717 3.902 3.716-1.048 3.717-.245 3.717-.41 3.717-.657 3.716.84 3.717-.686 3.717-53.921 3.716 52.363 3.717 1.336 3.717.308 3.717.05 3.716-1.79 3.717 2.134 3.717-1.521 3.717 2.73 3.716-2.309 3.717 1.74 3.717-.314 3.717.182 3.716-2.24 3.717 1.712 3.717-1.614 3.716.232v7.683l-3.716 6.326-3.717-3.146-3.717-2.159-3.716.666-3.717.02-3.717-2.633-3.717 1.102-3.716-2.645-3.717 1.76-3.717.393-3.717-1.429-3.716-.783-3.717 5.003-3.717-5.687-3.717-.804-3.716 122.274-3.717-118.699-3.717.768-3.716.566-3.717-3.125-3.717 3.726-3.717 3.179-3.716-5.156-3.717 6.01-3.717 1.222-3.717-11.077-3.716 1.804-3.717-.628-3.717-.728-3.717 5.949-3.716-1.54-3.717-1.43-3.717.614-3.716 120.77-3.717-119.18-3.717 226.821-3.717-46.76-3.716-182.839-3.717 1.37-3.717-1.237-3.717 3.498-3.716 178.274-3.717-60.972-3.717-122.109-3.717 2.152-3.716-.711-3.717.552-3.717-2.343-3.716 1.607-3.717 2.828-3.717-2.98-3.717-.68-3.716.642-3.717-.09-3.717-.309-3.717 1.4-3.716 1.12-3.717-2.131-3.717 3.2-3.717-2.692-3.716 3.94-3.717-1.135-3.717.805-3.716-3.132-3.717 1.572-3.717-.808-3.717-2.055-3.716 1.101-3.717-1.739-3.717 7.849-3.717-4.885-3.716-.893-3.717-1.57-3.717 1.912-3.717-2.718-3.716-.191-3.717 2.83-3.717-3.329-3.716.993-3.717 9.5-3.717-7.1-3.717.504-3.716-.833-3.717 8.71-3.717-10.855-3.717.015-3.716-.991-3.717 2.566-3.717-.109-3.717 4.505-3.716-1.436-3.717-1.887-3.717.403-3.716.36-3.717 2.674-3.717.428-3.717-4.542-3.716 1.271-3.717 4.856-3.717-2.213-3.717-.839-3.716.397-3.717 1.017-3.717-4.341-3.717 2.425-3.716-.084-3.717-2.079-3.717-.187-3.716 3.404-3.717 5.359-3.717-6.32-3.717.85-3.716-5.035-3.717 7.1-3.717.34-3.717-3.467-3.716 117.443L242.42 122.1l-3.717 4.99-3.717-4.985-3.716 3.148-3.717-5.632-3.717 1.092-3.716-2.354-3.717 4.317-3.717 1.223-3.717-2.27-3.716 120.571-3.717-116.08-3.717 4.125-3.717-7.591-3.716.424L186.669 136l-3.717-12.523-3.717 9.783-3.716-10.728-3.717 119.902-3.717-117.903-3.716 116.349-3.717 61.295-3.717 46.844-3.717-46.565-3.716 46.645-3.717-107.24-3.717.418-3.717-114.72-3.716-3.383-3.717 116.299-3.717-113.73-3.717 6.898-3.716-5.189-3.717 114.187-3.717 143.778-3.716 28.032-3.717-274.761-3.717 211.259-3.717-46.266-3.716 110.243-3.717-63.131-3.717-214.611-3.717 9.698z" clip-path="url(#r)" style="fill:#ff7f0e;fill-opacity:.3;fill-rule:nonzero;stroke:none" transform="matrix(1.33333 0 0 -1.33333 0 591.142)"/><path d="M78.884 158.66v-23.22l3.716-6.695 3.717-3.888 3.717-.31 3.717-3.138 3.716-2.97 3.717 4.64 3.717-2.212 3.717-1.994 3.716-.665 3.717-.51 3.717-2.889 3.716-.008 3.717-2.641 3.717.911 3.717 1.842 3.716 1.927 3.717-.372 3.717 9.07 3.717-7.755 3.716-4.367 3.717 7.662 3.717-6.844 3.717 1.42 3.716 6.403 3.717 3.271 3.717-2.726 3.716-5.31 3.717-1.398 3.717-.829 3.717-1.03 3.716 3.12 3.717 1.086 3.717-.507 3.717-3.12 3.716 3.48 3.717-2.442 3.717 1.161 3.717 2.235 3.716-1.523 3.717-2.538 3.717.711 3.716-2.295 3.717 1.005 3.717 5.176 3.717-.24v1.77l-3.717 3.108-3.717 12.233-3.717 5.197-3.716.555-3.717-15.073-3.717-2.07-3.716 1.304-3.717-2.11-3.717 20.632-3.717 2.23-3.716-4.328-3.717 2.077-3.717-1.383-3.717-17.369-3.716 15.306-3.717-.087-3.717 7.358-3.717-7.063-3.716 8.716-3.717 6.188-3.717-2.456-3.716-12.599-3.717 4.472-3.717 2.93-3.717-9.753-3.716 5.21-3.717 7.407-3.717-8.634-3.717 5.443-3.716-6.106-3.717-1.848-3.717.78-3.717.803-3.716-5.539-3.717 3.033-3.717 3.601-3.716 3.588-3.717 1.312-3.717 2.351-3.717-4.56-3.716 4.21-3.717 2.704-3.717 1.549-3.717 2.219z" clip-path="url(#s)" style="fill:#2ca02c;fill-opacity:.3;fill-rule:nonzero;stroke:none" transform="matrix(1.33333 0 0 -1.33333 0 591.142)"/><path d="m78.884 143.698 3.716 4.32 3.717-5.383 3.717 13.583 3.717-13.856 3.716-7.441 3.717.52 3.717-.105 3.717-2.077 3.716-3.945 3.717 2.64 3.717-1.588 3.716-2.297 3.717 1.681 3.717-9.552 3.717 21.142 3.716-15.936 3.717-2.697 3.717 19.046 3.717-13.868 3.716-2.777 3.717-1.533 3.717-.254 3.717-5.41 3.716 5.06 3.717-.788 3.717-1.926 3.716-1.019 3.717 4.227 3.717-4.406 3.717 1.607 3.716.297 3.717-1.142 3.717.04 3.717-1.725 3.716 1.01 3.717 1.795 3.717-1.69 3.717.175 3.716-1.165 3.717-.997 3.717 1.279 3.716.806 3.717-.282 3.717-.728 3.717.604 3.716-.83 3.717.892 3.717-1.237 3.717.913 3.716-1.017 3.717-.368 3.717.577 3.717-1.022 3.716-.167 3.717 1.808 3.717-.607 3.716-.784" clip-path="url(#t)" style="fill:none;stroke:#1f77b4;stroke-width:1.5;stroke-linecap:square;stroke-linejoin:round;stroke-miterlimit:10;stroke-dasharray:none;stroke-opacity:1" transform="matrix(1.33333 0 0 -1.33333 0 591.142)"/><path d="m78.884 132.98 3.716-.256 3.717-5.153 3.717 102.545 3.717 58.212 3.716-96.41 3.717 35.13 3.717-97.817 3.717 160.728 3.716-36.898 3.717-97.885 3.717-32.845 3.716-1.473 3.717.258 3.717 30.631 3.717-30.777 3.716-.341 3.717 33.947 3.717-.946 3.717 67.118 3.716-33.075 3.717 32.783 3.717-33.417 3.717-34.661 3.716-32.575 3.717 35.049 3.717-34.363 3.716 5.044 3.717-6.247 3.717 4.411 3.717-3.642 3.716-.902 3.717 3.891 3.717-4.091 3.717 35.512 3.716-35.173 3.717.958 3.717.27 3.717-3.866 3.716.854 3.717-.165 3.717 2.181 3.716-1.096 3.717 3.666 3.717-3.121 3.717 32.423 3.716-31.587 3.717 2.145 3.717-1.001 3.717-3.605 3.716 2.2 3.717-.017 3.717 2.08 3.717-3.635 3.716.302 3.717-.4 3.717 1.098 3.716.07 3.717-.95 3.717 1.24 3.717-.495 3.716-.104 3.717-.41 3.717 2.127 3.717-2.43 3.716.158 3.717 1.226 3.717.688 3.717-1.164 7.433-1.443 3.717.389 3.716 1.346 3.717-1.748 3.717-.29 3.717-1.47 3.716.676 3.717.268 3.717 5.23 3.717-3.496 3.716-.649 3.717-.439 3.717 2.72 3.717-3.883 3.716-.357 3.717 1.926 3.717-1.533 3.716.34 3.717 1.7 3.717-1.31 3.717 1.076 3.716.847 3.717 1.273 3.717-3.31 3.717.542 3.716-.363 3.717.663 3.717 1.196 3.717-1.57 3.716 1.17 7.434.228 3.716-.864 3.717 1.482 3.717-1.864 3.717 1.012 3.716-1.008 3.717-.083 3.717-.246 3.717.27 7.433-1.017 3.717 2.141 3.717-.71 3.716-1.425 3.717 1.26 3.717-.345 3.716.331 3.717-1.067 3.717 35.137 3.717 33.55 3.716-67.168 3.717-.739 3.717 1.426 3.717-1.822 3.716 69.84 3.717 33.62 3.717-101.691 3.717 34.529 3.716-36.124 3.717 1.41 3.717-.265 3.716.968 3.717-4.164 3.717 1.178 3.717-.243 3.716-.714 3.717 6.112 3.717-1.875 3.717-1.054 3.716 2.054 3.717-1.712 3.717-2.068 3.717 1.234 3.716.137 3.717-.727 3.717 32.389 3.716-34.955 3.717 1.07 3.717 2.997 3.717-2.476 3.716-.504 3.717 1.781 3.717-.956 3.717.485 3.716.168 3.717.319 3.717 1.159 3.717.08 3.716-1.451 3.717 1.934 3.717.767 3.716-3.047v0" clip-path="url(#u)" style="fill:none;stroke:#ff7f0e;stroke-width:1.5;stroke-linecap:square;stroke-linejoin:round;stroke-miterlimit:10;stroke-dasharray:none;stroke-opacity:1" transform="matrix(1.33333 0 0 -1.33333 0 591.142)"/><path d="m78.884 147.05 3.716-4.352 3.717-3.053 3.717-.93 3.717-2.92 3.716-3.591 3.717 4.6 3.717-2.281 3.717-1.653 3.716-2.127 3.717-2.055 3.717-2.961 3.716 2.765 3.717-1.722 3.717.066 3.717 1.845 3.716 4.016 3.717-2.907 3.717 8.852 3.717-7.581 3.716-4.79 3.717 8.708 3.717-4.887 3.717-1.525 3.716 9.5 3.717 2.864 3.717-4.457 3.716-7.013 3.717 2.832 3.717-4.093 3.717-.471 3.716-6.093 3.717 9.227 3.717.438 3.717-2.599 3.716 3.904 3.717-2.336 3.717-9.735 3.717 2.172 3.716-1.414 3.717-.233 3.717 7.892 3.716-1.425 3.717-2.096 3.717-3.528 3.717-1.675" clip-path="url(#v)" style="fill:none;stroke:#2ca02c;stroke-width:1.5;stroke-linecap:square;stroke-linejoin:round;stroke-miterlimit:10;stroke-dasharray:none;stroke-opacity:1" transform="matrix(1.33333 0 0 -1.33333 0 591.142)"/><path d="M565.1 335.297h139q2 0 2 2v88.36q0 2-2 2h-139q-2 0-2-2v-88.36q0-2 2-2z" style="fill:#fff;fill-opacity:.8;fill-rule:nonzero;stroke:#ccc;stroke-width:1;stroke-linecap:butt;stroke-linejoin:miter;stroke-miterlimit:10;stroke-dasharray:none;stroke-opacity:.8" transform="matrix(1.33333 0 0 -1.33333 0 591.142)"/><path d="M567.1 419.562h20" style="fill:none;stroke:#1f77b4;stroke-width:1.5;stroke-linecap:square;stroke-linejoin:round;stroke-miterlimit:10;stroke-dasharray:none;stroke-opacity:1" transform="matrix(1.33333 0 0 -1.33333 0 591.142)"/><text xml:space="preserve" transform="translate(793.467 36.392)scale(1.33333)"><tspan x="0" y="0" style="font-variant:normal;font-weight:400;font-size:10px;font-family:&quot;DejaVu Sans&quot;;writing-mode:lr-tb;fill:#000;fill-opacity:1;fill-rule:nonzero;stroke:none">DES Mean</tspan></text><path d="M567.1 404.89h20" style="fill:none;stroke:#ff7f0e;stroke-width:1.5;stroke-linecap:square;stroke-linejoin:round;stroke-miterlimit:10;stroke-dasharray:none;stroke-opacity:1" transform="matrix(1.33333 0 0 -1.33333 0 591.142)"/><text xml:space="preserve" transform="translate(793.467 55.954)scale(1.33333)"><tspan x="0" y="0" style="font-variant:normal;font-weight:400;font-size:10px;font-family:&quot;DejaVu Sans&quot;;writing-mode:lr-tb;fill:#000;fill-opacity:1;fill-rule:nonzero;stroke:none">CMA-ES Mean</tspan></text><path d="M567.1 390.219h20" style="fill:none;stroke:#2ca02c;stroke-width:1.5;stroke-linecap:square;stroke-linejoin:round;stroke-miterlimit:10;stroke-dasharray:none;stroke-opacity:1" transform="matrix(1.33333 0 0 -1.33333 0 591.142)"/><text xml:space="preserve" transform="translate(793.467 75.517)scale(1.33333)"><tspan x="0" y="0" style="font-variant:normal;font-weight:400;font-size:10px;font-family:&quot;DejaVu Sans&quot;;writing-mode:lr-tb;fill:#000;fill-opacity:1;fill-rule:nonzero;stroke:none">jSO Mean</tspan></text><path d="M567.1 372.047h20v7h-20z" style="fill:#1f77b4;fill-opacity:.3;fill-rule:nonzero;stroke:none" transform="matrix(1.33333 0 0 -1.33333 0 591.142)"/><text xml:space="preserve" transform="translate(793.467 94.537)scale(1.33333)"><tspan x="0" y="0" style="font-variant:normal;font-weight:400;font-size:10px;font-family:&quot;DejaVu Sans&quot;;writing-mode:lr-tb;fill:#000;fill-opacity:1;fill-rule:nonzero;stroke:none">DES ± 1 std. dev.</tspan></text><path d="M567.1 357.375h20v7h-20z" style="fill:#ff7f0e;fill-opacity:.3;fill-rule:nonzero;stroke:none" transform="matrix(1.33333 0 0 -1.33333 0 591.142)"/><text xml:space="preserve" transform="translate(793.467 114.1)scale(1.33333)"><tspan x="0" y="0" style="font-variant:normal;font-weight:400;font-size:10px;font-family:&quot;DejaVu Sans&quot;;writing-mode:lr-tb;fill:#000;fill-opacity:1;fill-rule:nonzero;stroke:none">CMA-ES ± 1 std. dev.</tspan></text><path d="M567.1 342.297h20v7h-20z" style="fill:#2ca02c;fill-opacity:.3;fill-rule:nonzero;stroke:none" transform="matrix(1.33333 0 0 -1.33333 0 591.142)"/><text xml:space="preserve" transform="translate(793.467 134.204)scale(1.33333)"><tspan x="0" y="0" style="font-variant:normal;font-weight:400;font-size:10px;font-family:&quot;DejaVu Sans&quot;;writing-mode:lr-tb;fill:#000;fill-opacity:1;fill-rule:nonzero;stroke:none">jSO ± 1 std. dev.</tspan></text></svg>