<?xml version="1.0" encoding="UTF-8" standalone="no"?>
<!-- Created with Inkscape (http://www.inkscape.org/) -->

<svg
   version="1.1"
   id="svg1"
   width="962.40002"
   height="591.14166"
   viewBox="0 0 962.40002 591.14166"
   xmlns="http://www.w3.org/2000/svg"
   xmlns:svg="http://www.w3.org/2000/svg">
  <defs
     id="defs1">
    <clipPath
       clipPathUnits="userSpaceOnUse"
       id="clipPath2">
      <path
         d="M 48.778125,42.54375 H 711.1 V 432.65624 H 48.778125 Z"
         id="path2" />
    </clipPath>
    <clipPath
       clipPathUnits="userSpaceOnUse"
       id="clipPath5">
      <path
         d="M 48.778125,42.54375 H 711.1 V 432.65624 H 48.778125 Z"
         id="path5" />
    </clipPath>
    <clipPath
       clipPathUnits="userSpaceOnUse"
       id="clipPath8">
      <path
         d="M 48.778125,42.54375 H 711.1 V 432.65624 H 48.778125 Z"
         id="path8" />
    </clipPath>
    <clipPath
       clipPathUnits="userSpaceOnUse"
       id="clipPath11">
      <path
         d="M 48.778125,42.54375 H 711.1 V 432.65624 H 48.778125 Z"
         id="path11" />
    </clipPath>
    <clipPath
       clipPathUnits="userSpaceOnUse"
       id="clipPath14">
      <path
         d="M 48.778125,42.54375 H 711.1 V 432.65624 H 48.778125 Z"
         id="path14" />
    </clipPath>
    <clipPath
       clipPathUnits="userSpaceOnUse"
       id="clipPath17">
      <path
         d="M 48.778125,42.54375 H 711.1 V 432.65624 H 48.778125 Z"
         id="path17" />
    </clipPath>
    <clipPath
       clipPathUnits="userSpaceOnUse"
       id="clipPath20">
      <path
         d="M 48.778125,42.54375 H 711.1 V 432.65624 H 48.778125 Z"
         id="path20" />
    </clipPath>
    <clipPath
       clipPathUnits="userSpaceOnUse"
       id="clipPath23">
      <path
         d="M 48.778125,42.54375 H 711.1 V 432.65624 H 48.778125 Z"
         id="path23" />
    </clipPath>
    <clipPath
       clipPathUnits="userSpaceOnUse"
       id="clipPath26">
      <path
         d="M 48.778125,42.54375 H 711.1 V 432.65624 H 48.778125 Z"
         id="path26" />
    </clipPath>
    <clipPath
       clipPathUnits="userSpaceOnUse"
       id="clipPath29">
      <path
         d="M 48.778125,42.54375 H 711.1 V 432.65624 H 48.778125 Z"
         id="path29" />
    </clipPath>
    <clipPath
       clipPathUnits="userSpaceOnUse"
       id="clipPath32">
      <path
         d="M 48.778125,42.54375 H 711.1 V 432.65624 H 48.778125 Z"
         id="path32" />
    </clipPath>
    <clipPath
       clipPathUnits="userSpaceOnUse"
       id="clipPath35">
      <path
         d="M 48.778125,42.54375 H 711.1 V 432.65624 H 48.778125 Z"
         id="path35" />
    </clipPath>
    <clipPath
       clipPathUnits="userSpaceOnUse"
       id="clipPath38">
      <path
         d="M 48.778125,42.54375 H 711.1 V 432.65624 H 48.778125 Z"
         id="path38" />
    </clipPath>
    <clipPath
       clipPathUnits="userSpaceOnUse"
       id="clipPath41">
      <path
         d="M 48.778125,42.54375 H 711.1 V 432.65624 H 48.778125 Z"
         id="path41" />
    </clipPath>
    <clipPath
       clipPathUnits="userSpaceOnUse"
       id="clipPath44">
      <path
         d="M 48.778125,42.54375 H 711.1 V 432.65624 H 48.778125 Z"
         id="path44" />
    </clipPath>
    <clipPath
       clipPathUnits="userSpaceOnUse"
       id="clipPath47">
      <path
         d="M 48.778125,42.54375 H 711.1 V 432.65624 H 48.778125 Z"
         id="path47" />
    </clipPath>
    <clipPath
       clipPathUnits="userSpaceOnUse"
       id="clipPath50">
      <path
         d="M 48.778125,42.54375 H 711.1 V 432.65624 H 48.778125 Z"
         id="path50" />
    </clipPath>
    <clipPath
       clipPathUnits="userSpaceOnUse"
       id="clipPath52">
      <path
         d="M 48.778125,42.54375 H 711.1 V 432.65624 H 48.778125 Z"
         id="path52" />
    </clipPath>
    <clipPath
       clipPathUnits="userSpaceOnUse"
       id="clipPath54">
      <path
         d="M 48.778125,42.54375 H 711.1 V 432.65624 H 48.778125 Z"
         id="path54" />
    </clipPath>
    <clipPath
       clipPathUnits="userSpaceOnUse"
       id="clipPath56">
      <path
         d="M 48.778125,42.54375 H 711.1 V 432.65624 H 48.778125 Z"
         id="path56" />
    </clipPath>
    <clipPath
       clipPathUnits="userSpaceOnUse"
       id="clipPath58">
      <path
         d="M 48.778125,42.54375 H 711.1 V 432.65624 H 48.778125 Z"
         id="path58" />
    </clipPath>
    <clipPath
       clipPathUnits="userSpaceOnUse"
       id="clipPath60">
      <path
         d="M 48.778125,42.54375 H 711.1 V 432.65624 H 48.778125 Z"
         id="path60" />
    </clipPath>
  </defs>
  <g
     id="g1">
    <path
       id="path1"
       d="M 75.166931,42.54375 V 432.65624"
       style="fill:none;stroke:#e6e6e6;stroke-width:1;stroke-linecap:square;stroke-linejoin:round;stroke-miterlimit:10;stroke-dasharray:none;stroke-opacity:1"
       transform="matrix(1.3333333,0,0,-1.3333333,0,591.14166)"
       clip-path="url(#clipPath2)" />
    <path
       id="path3"
       d="m 75.166931,37.54375 v -3.5"
       style="fill:#000000;fill-opacity:1;fill-rule:nonzero;stroke:#000000;stroke-width:0.8;stroke-linecap:butt;stroke-linejoin:round;stroke-miterlimit:10;stroke-dasharray:none;stroke-opacity:1"
       transform="matrix(1.3333333,0,0,-1.3333333,0,591.14166)" />
    <text
       id="text3"
       xml:space="preserve"
       transform="matrix(1.3333333,0,0,1.3333333,95.982992,560.54166)"><tspan
         id="tspan3"
         style="font-variant:normal;font-weight:normal;font-size:10px;font-family:'DejaVu Sans';writing-mode:lr-tb;fill:#000000;fill-opacity:1;fill-rule:nonzero;stroke:none"
         x="0"
         y="0">0</tspan></text>
    <path
       id="path4"
       d="M 149.5016,42.54375 V 432.65624"
       style="fill:none;stroke:#e6e6e6;stroke-width:1;stroke-linecap:square;stroke-linejoin:round;stroke-miterlimit:10;stroke-dasharray:none;stroke-opacity:1"
       transform="matrix(1.3333333,0,0,-1.3333333,0,591.14166)"
       clip-path="url(#clipPath5)" />
    <path
       id="path6"
       d="m 149.5016,37.54375 v -3.5"
       style="fill:#000000;fill-opacity:1;fill-rule:nonzero;stroke:#000000;stroke-width:0.8;stroke-linecap:butt;stroke-linejoin:round;stroke-miterlimit:10;stroke-dasharray:none;stroke-opacity:1"
       transform="matrix(1.3333333,0,0,-1.3333333,0,591.14166)" />
    <text
       id="text6"
       xml:space="preserve"
       transform="matrix(1.3333333,0,0,1.3333333,190.8563,560.54166)"><tspan
         id="tspan6"
         style="font-variant:normal;font-weight:normal;font-size:10px;font-family:'DejaVu Sans';writing-mode:lr-tb;fill:#000000;fill-opacity:1;fill-rule:nonzero;stroke:none"
         x="0"
         y="0">20</tspan></text>
    <path
       id="path7"
       d="M 223.83626,42.54375 V 432.65624"
       style="fill:none;stroke:#e6e6e6;stroke-width:1;stroke-linecap:square;stroke-linejoin:round;stroke-miterlimit:10;stroke-dasharray:none;stroke-opacity:1"
       transform="matrix(1.3333333,0,0,-1.3333333,0,591.14166)"
       clip-path="url(#clipPath8)" />
    <path
       id="path9"
       d="m 223.83626,37.54375 v -3.5"
       style="fill:#000000;fill-opacity:1;fill-rule:nonzero;stroke:#000000;stroke-width:0.8;stroke-linecap:butt;stroke-linejoin:round;stroke-miterlimit:10;stroke-dasharray:none;stroke-opacity:1"
       transform="matrix(1.3333333,0,0,-1.3333333,0,591.14166)" />
    <text
       id="text9"
       xml:space="preserve"
       transform="matrix(1.3333333,0,0,1.3333333,289.96918,560.54166)"><tspan
         id="tspan9"
         style="font-variant:normal;font-weight:normal;font-size:10px;font-family:'DejaVu Sans';writing-mode:lr-tb;fill:#000000;fill-opacity:1;fill-rule:nonzero;stroke:none"
         x="0"
         y="0">40</tspan></text>
    <path
       id="path10"
       d="M 298.17093,42.54375 V 432.65624"
       style="fill:none;stroke:#e6e6e6;stroke-width:1;stroke-linecap:square;stroke-linejoin:round;stroke-miterlimit:10;stroke-dasharray:none;stroke-opacity:1"
       transform="matrix(1.3333333,0,0,-1.3333333,0,591.14166)"
       clip-path="url(#clipPath11)" />
    <path
       id="path12"
       d="m 298.17093,37.54375 v -3.5"
       style="fill:#000000;fill-opacity:1;fill-rule:nonzero;stroke:#000000;stroke-width:0.8;stroke-linecap:butt;stroke-linejoin:round;stroke-miterlimit:10;stroke-dasharray:none;stroke-opacity:1"
       transform="matrix(1.3333333,0,0,-1.3333333,0,591.14166)" />
    <text
       id="text12"
       xml:space="preserve"
       transform="matrix(1.3333333,0,0,1.3333333,389.08207,560.54166)"><tspan
         id="tspan12"
         style="font-variant:normal;font-weight:normal;font-size:10px;font-family:'DejaVu Sans';writing-mode:lr-tb;fill:#000000;fill-opacity:1;fill-rule:nonzero;stroke:none"
         x="0"
         y="0">60</tspan></text>
    <path
       id="path13"
       d="M 372.5056,42.54375 V 432.65624"
       style="fill:none;stroke:#e6e6e6;stroke-width:1;stroke-linecap:square;stroke-linejoin:round;stroke-miterlimit:10;stroke-dasharray:none;stroke-opacity:1"
       transform="matrix(1.3333333,0,0,-1.3333333,0,591.14166)"
       clip-path="url(#clipPath14)" />
    <path
       id="path15"
       d="m 372.5056,37.54375 v -3.5"
       style="fill:#000000;fill-opacity:1;fill-rule:nonzero;stroke:#000000;stroke-width:0.8;stroke-linecap:butt;stroke-linejoin:round;stroke-miterlimit:10;stroke-dasharray:none;stroke-opacity:1"
       transform="matrix(1.3333333,0,0,-1.3333333,0,591.14166)" />
    <text
       id="text15"
       xml:space="preserve"
       transform="matrix(1.3333333,0,0,1.3333333,488.19496,560.54166)"><tspan
         id="tspan15"
         style="font-variant:normal;font-weight:normal;font-size:10px;font-family:'DejaVu Sans';writing-mode:lr-tb;fill:#000000;fill-opacity:1;fill-rule:nonzero;stroke:none"
         x="0"
         y="0">80</tspan></text>
    <path
       id="path16"
       d="M 446.84026,42.54375 V 432.65624"
       style="fill:none;stroke:#e6e6e6;stroke-width:1;stroke-linecap:square;stroke-linejoin:round;stroke-miterlimit:10;stroke-dasharray:none;stroke-opacity:1"
       transform="matrix(1.3333333,0,0,-1.3333333,0,591.14166)"
       clip-path="url(#clipPath17)" />
    <path
       id="path18"
       d="m 446.84026,37.54375 v -3.5"
       style="fill:#000000;fill-opacity:1;fill-rule:nonzero;stroke:#000000;stroke-width:0.8;stroke-linecap:butt;stroke-linejoin:round;stroke-miterlimit:10;stroke-dasharray:none;stroke-opacity:1"
       transform="matrix(1.3333333,0,0,-1.3333333,0,591.14166)" />
    <text
       id="text18"
       xml:space="preserve"
       transform="matrix(1.3333333,0,0,1.3333333,583.06827,560.54166)"><tspan
         id="tspan18"
         style="font-variant:normal;font-weight:normal;font-size:10px;font-family:'DejaVu Sans';writing-mode:lr-tb;fill:#000000;fill-opacity:1;fill-rule:nonzero;stroke:none"
         x="0"
         y="0">100</tspan></text>
    <path
       id="path19"
       d="M 521.17493,42.54375 V 432.65624"
       style="fill:none;stroke:#e6e6e6;stroke-width:1;stroke-linecap:square;stroke-linejoin:round;stroke-miterlimit:10;stroke-dasharray:none;stroke-opacity:1"
       transform="matrix(1.3333333,0,0,-1.3333333,0,591.14166)"
       clip-path="url(#clipPath20)" />
    <path
       id="path21"
       d="m 521.17493,37.54375 v -3.5"
       style="fill:#000000;fill-opacity:1;fill-rule:nonzero;stroke:#000000;stroke-width:0.8;stroke-linecap:butt;stroke-linejoin:round;stroke-miterlimit:10;stroke-dasharray:none;stroke-opacity:1"
       transform="matrix(1.3333333,0,0,-1.3333333,0,591.14166)" />
    <text
       id="text21"
       xml:space="preserve"
       transform="matrix(1.3333333,0,0,1.3333333,682.18115,560.54166)"><tspan
         id="tspan21"
         style="font-variant:normal;font-weight:normal;font-size:10px;font-family:'DejaVu Sans';writing-mode:lr-tb;fill:#000000;fill-opacity:1;fill-rule:nonzero;stroke:none"
         x="0"
         y="0">120</tspan></text>
    <path
       id="path22"
       d="M 595.50959,42.54375 V 432.65624"
       style="fill:none;stroke:#e6e6e6;stroke-width:1;stroke-linecap:square;stroke-linejoin:round;stroke-miterlimit:10;stroke-dasharray:none;stroke-opacity:1"
       transform="matrix(1.3333333,0,0,-1.3333333,0,591.14166)"
       clip-path="url(#clipPath23)" />
    <path
       id="path24"
       d="m 595.50959,37.54375 v -3.5"
       style="fill:#000000;fill-opacity:1;fill-rule:nonzero;stroke:#000000;stroke-width:0.8;stroke-linecap:butt;stroke-linejoin:round;stroke-miterlimit:10;stroke-dasharray:none;stroke-opacity:1"
       transform="matrix(1.3333333,0,0,-1.3333333,0,591.14166)" />
    <text
       id="text24"
       xml:space="preserve"
       transform="matrix(1.3333333,0,0,1.3333333,781.29404,560.54166)"><tspan
         id="tspan24"
         style="font-variant:normal;font-weight:normal;font-size:10px;font-family:'DejaVu Sans';writing-mode:lr-tb;fill:#000000;fill-opacity:1;fill-rule:nonzero;stroke:none"
         x="0"
         y="0">140</tspan></text>
    <path
       id="path25"
       d="M 669.84426,42.54375 V 432.65624"
       style="fill:none;stroke:#e6e6e6;stroke-width:1;stroke-linecap:square;stroke-linejoin:round;stroke-miterlimit:10;stroke-dasharray:none;stroke-opacity:1"
       transform="matrix(1.3333333,0,0,-1.3333333,0,591.14166)"
       clip-path="url(#clipPath26)" />
    <path
       id="path27"
       d="m 669.84426,37.54375 v -3.5"
       style="fill:#000000;fill-opacity:1;fill-rule:nonzero;stroke:#000000;stroke-width:0.8;stroke-linecap:butt;stroke-linejoin:round;stroke-miterlimit:10;stroke-dasharray:none;stroke-opacity:1"
       transform="matrix(1.3333333,0,0,-1.3333333,0,591.14166)" />
    <text
       id="text27"
       xml:space="preserve"
       transform="matrix(1.3333333,0,0,1.3333333,880.40693,560.54166)"><tspan
         id="tspan27"
         style="font-variant:normal;font-weight:normal;font-size:10px;font-family:'DejaVu Sans';writing-mode:lr-tb;fill:#000000;fill-opacity:1;fill-rule:nonzero;stroke:none"
         x="0"
         y="0">160</tspan></text>
    <text
       id="text28"
       xml:space="preserve"
       transform="matrix(1.3333333,0,0,1.3333333,469.37708,578.77082)"><tspan
         id="tspan28"
         style="font-variant:normal;font-weight:normal;font-size:10px;font-family:'DejaVu Sans';writing-mode:lr-tb;fill:#000000;fill-opacity:1;fill-rule:nonzero;stroke:none"
         x="0"
         y="0">Generation</tspan></text>
    <path
       id="path28"
       d="M 48.778125,84.370387 H 711.1"
       style="fill:none;stroke:#e6e6e6;stroke-width:1;stroke-linecap:square;stroke-linejoin:round;stroke-miterlimit:10;stroke-dasharray:none;stroke-opacity:1"
       transform="matrix(1.3333333,0,0,-1.3333333,0,591.14166)"
       clip-path="url(#clipPath29)" />
    <path
       id="path30"
       d="m 43.778125,84.370387 h -3.5"
       style="fill:#000000;fill-opacity:1;fill-rule:nonzero;stroke:#000000;stroke-width:0.8;stroke-linecap:butt;stroke-linejoin:round;stroke-miterlimit:10;stroke-dasharray:none;stroke-opacity:1"
       transform="matrix(1.3333333,0,0,-1.3333333,0,591.14166)" />
    <text
       id="text30"
       xml:space="preserve"
       transform="matrix(1.3333333,0,0,1.3333333,27.829167,483.71031)"><tspan
         id="tspan30"
         style="font-variant:normal;font-weight:normal;font-size:10px;font-family:'DejaVu Sans';writing-mode:lr-tb;fill:#000000;fill-opacity:1;fill-rule:nonzero;stroke:none"
         x="0"
         y="0">0.0</tspan></text>
    <path
       id="path31"
       d="M 48.778125,134.70553 H 711.1"
       style="fill:none;stroke:#e6e6e6;stroke-width:1;stroke-linecap:square;stroke-linejoin:round;stroke-miterlimit:10;stroke-dasharray:none;stroke-opacity:1"
       transform="matrix(1.3333333,0,0,-1.3333333,0,591.14166)"
       clip-path="url(#clipPath32)" />
    <path
       id="path33"
       d="m 43.778125,134.70553 h -3.5"
       style="fill:#000000;fill-opacity:1;fill-rule:nonzero;stroke:#000000;stroke-width:0.8;stroke-linecap:butt;stroke-linejoin:round;stroke-miterlimit:10;stroke-dasharray:none;stroke-opacity:1"
       transform="matrix(1.3333333,0,0,-1.3333333,0,591.14166)" />
    <text
       id="text33"
       xml:space="preserve"
       transform="matrix(1.3333333,0,0,1.3333333,27.829167,416.59679)"><tspan
         id="tspan33"
         style="font-variant:normal;font-weight:normal;font-size:10px;font-family:'DejaVu Sans';writing-mode:lr-tb;fill:#000000;fill-opacity:1;fill-rule:nonzero;stroke:none"
         x="0"
         y="0">0.5</tspan></text>
    <path
       id="path34"
       d="M 48.778125,185.04067 H 711.1"
       style="fill:none;stroke:#e6e6e6;stroke-width:1;stroke-linecap:square;stroke-linejoin:round;stroke-miterlimit:10;stroke-dasharray:none;stroke-opacity:1"
       transform="matrix(1.3333333,0,0,-1.3333333,0,591.14166)"
       clip-path="url(#clipPath35)" />
    <path
       id="path36"
       d="m 43.778125,185.04067 h -3.5"
       style="fill:#000000;fill-opacity:1;fill-rule:nonzero;stroke:#000000;stroke-width:0.8;stroke-linecap:butt;stroke-linejoin:round;stroke-miterlimit:10;stroke-dasharray:none;stroke-opacity:1"
       transform="matrix(1.3333333,0,0,-1.3333333,0,591.14166)" />
    <text
       id="text36"
       xml:space="preserve"
       transform="matrix(1.3333333,0,0,1.3333333,27.829167,349.48327)"><tspan
         id="tspan36"
         style="font-variant:normal;font-weight:normal;font-size:10px;font-family:'DejaVu Sans';writing-mode:lr-tb;fill:#000000;fill-opacity:1;fill-rule:nonzero;stroke:none"
         x="0"
         y="0">1.0</tspan></text>
    <path
       id="path37"
       d="M 48.778125,235.37581 H 711.1"
       style="fill:none;stroke:#e6e6e6;stroke-width:1;stroke-linecap:square;stroke-linejoin:round;stroke-miterlimit:10;stroke-dasharray:none;stroke-opacity:1"
       transform="matrix(1.3333333,0,0,-1.3333333,0,591.14166)"
       clip-path="url(#clipPath38)" />
    <path
       id="path39"
       d="m 43.778125,235.37581 h -3.5"
       style="fill:#000000;fill-opacity:1;fill-rule:nonzero;stroke:#000000;stroke-width:0.8;stroke-linecap:butt;stroke-linejoin:round;stroke-miterlimit:10;stroke-dasharray:none;stroke-opacity:1"
       transform="matrix(1.3333333,0,0,-1.3333333,0,591.14166)" />
    <text
       id="text39"
       xml:space="preserve"
       transform="matrix(1.3333333,0,0,1.3333333,27.829167,282.36975)"><tspan
         id="tspan39"
         style="font-variant:normal;font-weight:normal;font-size:10px;font-family:'DejaVu Sans';writing-mode:lr-tb;fill:#000000;fill-opacity:1;fill-rule:nonzero;stroke:none"
         x="0"
         y="0">1.5</tspan></text>
    <path
       id="path40"
       d="M 48.778125,285.71095 H 711.1"
       style="fill:none;stroke:#e6e6e6;stroke-width:1;stroke-linecap:square;stroke-linejoin:round;stroke-miterlimit:10;stroke-dasharray:none;stroke-opacity:1"
       transform="matrix(1.3333333,0,0,-1.3333333,0,591.14166)"
       clip-path="url(#clipPath41)" />
    <path
       id="path42"
       d="m 43.778125,285.71095 h -3.5"
       style="fill:#000000;fill-opacity:1;fill-rule:nonzero;stroke:#000000;stroke-width:0.8;stroke-linecap:butt;stroke-linejoin:round;stroke-miterlimit:10;stroke-dasharray:none;stroke-opacity:1"
       transform="matrix(1.3333333,0,0,-1.3333333,0,591.14166)" />
    <text
       id="text42"
       xml:space="preserve"
       transform="matrix(1.3333333,0,0,1.3333333,27.829167,215.25622)"><tspan
         id="tspan42"
         style="font-variant:normal;font-weight:normal;font-size:10px;font-family:'DejaVu Sans';writing-mode:lr-tb;fill:#000000;fill-opacity:1;fill-rule:nonzero;stroke:none"
         x="0"
         y="0">2.0</tspan></text>
    <path
       id="path43"
       d="M 48.778125,336.04609 H 711.1"
       style="fill:none;stroke:#e6e6e6;stroke-width:1;stroke-linecap:square;stroke-linejoin:round;stroke-miterlimit:10;stroke-dasharray:none;stroke-opacity:1"
       transform="matrix(1.3333333,0,0,-1.3333333,0,591.14166)"
       clip-path="url(#clipPath44)" />
    <path
       id="path45"
       d="m 43.778125,336.04609 h -3.5"
       style="fill:#000000;fill-opacity:1;fill-rule:nonzero;stroke:#000000;stroke-width:0.8;stroke-linecap:butt;stroke-linejoin:round;stroke-miterlimit:10;stroke-dasharray:none;stroke-opacity:1"
       transform="matrix(1.3333333,0,0,-1.3333333,0,591.14166)" />
    <text
       id="text45"
       xml:space="preserve"
       transform="matrix(1.3333333,0,0,1.3333333,27.829167,148.1427)"><tspan
         id="tspan45"
         style="font-variant:normal;font-weight:normal;font-size:10px;font-family:'DejaVu Sans';writing-mode:lr-tb;fill:#000000;fill-opacity:1;fill-rule:nonzero;stroke:none"
         x="0"
         y="0">2.5</tspan></text>
    <path
       id="path46"
       d="M 48.778125,386.38123 H 711.1"
       style="fill:none;stroke:#e6e6e6;stroke-width:1;stroke-linecap:square;stroke-linejoin:round;stroke-miterlimit:10;stroke-dasharray:none;stroke-opacity:1"
       transform="matrix(1.3333333,0,0,-1.3333333,0,591.14166)"
       clip-path="url(#clipPath47)" />
    <path
       id="path48"
       d="m 43.778125,386.38123 h -3.5"
       style="fill:#000000;fill-opacity:1;fill-rule:nonzero;stroke:#000000;stroke-width:0.8;stroke-linecap:butt;stroke-linejoin:round;stroke-miterlimit:10;stroke-dasharray:none;stroke-opacity:1"
       transform="matrix(1.3333333,0,0,-1.3333333,0,591.14166)" />
    <text
       id="text48"
       xml:space="preserve"
       transform="matrix(1.3333333,0,0,1.3333333,27.829167,81.029183)"><tspan
         id="tspan48"
         style="font-variant:normal;font-weight:normal;font-size:10px;font-family:'DejaVu Sans';writing-mode:lr-tb;fill:#000000;fill-opacity:1;fill-rule:nonzero;stroke:none"
         x="0"
         y="0">3.0</tspan></text>
    <text
       id="text49"
       xml:space="preserve"
       transform="matrix(0,-1.3333333,1.3333333,0,19.725,301.39374)"><tspan
         id="tspan49"
         style="font-variant:normal;font-weight:normal;font-size:10px;font-family:'DejaVu Sans';writing-mode:lr-tb;fill:#000000;fill-opacity:1;fill-rule:nonzero;stroke:none"
         x="0"
         y="0">Log loss</tspan></text>
    <path
       id="path49"
       d="m 78.883665,155.73255 v -24.06936 l 3.716733,6.5184 3.716733,-7.7333 3.716734,-28.14826 3.716733,26.72141 3.716733,-10.34147 3.716739,2.58225 3.71673,0.9141 3.71673,-2.72105 3.71674,-3.77701 3.71673,1.23665 3.71673,-0.69638 3.71673,-1.97822 3.71674,1.04298 3.71673,1.53034 3.71673,-33.345878 3.71674,29.655328 3.71673,3.21357 3.71673,-32.137958 3.71674,30.752538 3.71673,-0.39802 3.71673,-0.78865 3.71674,0.48656 3.71673,0.22194 3.71673,-2.89034 3.71674,4.13673 3.71673,0.3293 3.71673,0.11068 3.71674,-1.64517 3.71673,1.19208 3.71673,-0.56313 3.71674,0.21421 3.71673,-0.48179 3.71673,0.44514 3.71674,0.66416 3.71673,-3.30343 3.71673,1.41046 3.71674,0.5914 3.71673,0.8536 3.71673,-0.40223 3.71674,-0.0314 3.71673,-0.89452 3.71673,1.68624 3.71674,0.0488 3.71673,-0.59419 3.71673,-1.36765 3.71674,0.009 3.71673,0.67834 3.71673,-1.56315 3.71674,-0.18191 3.71673,-0.51731 3.71673,1.84193 3.71674,0.1059 3.71673,-0.57867 3.71673,-0.41203 3.71674,-2.33736 3.71673,3.30819 3.71673,-0.82477 v 7.18231 0 l -3.71673,0.74335 -3.71673,4.52198 -3.71674,-5.9537 -3.71673,-0.0782 -3.71673,1.46616 -3.71674,-1.04757 -3.71673,2.57697 -3.71673,1.51582 -3.71674,-2.00615 -3.71673,0.91027 -3.71673,-1.10485 -3.71674,1.66763 -3.71673,-2.57486 -3.71673,0.86163 -3.71674,0.61251 -3.71673,0.0735 -3.71673,-3.45119 -3.71674,1.96213 -3.71673,1.92804 -3.71673,0.50447 -3.71674,3.97039 -3.71673,-2.18127 -3.71673,-5.32181 -3.71674,4.11234 -3.71673,0.36594 -3.71673,1.80208 -3.71674,-0.37914 -3.71673,-3.77705 -3.71673,10.00337 -3.71674,-10.09753 -3.71673,2.14783 -3.71673,4.18053 -3.71674,5.71452 -3.71673,-13.0123 -3.71673,11.04231 -3.71674,0.99513 -3.71673,2.27737 -3.71673,5.15546 -3.71674,58.48817 -3.71673,-70.23009 -3.71673,8.60927 -3.71674,61.52634 -3.71673,-75.63037 -3.71673,20.63575 -3.71674,-2.32031 -3.71673,2.61602 -3.71673,2.47819 -3.71673,-4.04066 -3.71674,4.1129 -3.71673,1.43176 -3.71673,1.12334 -3.716739,1.54299 -3.716733,4.54047 -3.716733,54.43452 -3.716734,-55.31402 -3.716733,3.03128 -3.716733,-2.12137 z"
       style="fill:#1f77b4;fill-opacity:0.3;fill-rule:nonzero;stroke:none"
       transform="matrix(1.3333333,0,0,-1.3333333,0,591.14166)"
       clip-path="url(#clipPath50)" />
    <path
       id="path51"
       d="m 78.883665,146.75419 v -27.54831 l 3.716733,-0.63841 3.716733,-0.60694 3.716734,-9.52145 3.716733,53.29267 3.716733,-82.575992 3.716739,23.994582 3.71673,15.62471 3.71673,46.69351 3.71674,-45.76316 3.71673,-51.99289 3.71673,48.49732 3.71673,-8.13528 3.71674,7.41511 3.71673,-52.468073 3.71673,54.744193 3.71674,-4.06594 3.71673,-46.825069 3.71673,-1.474625 3.71674,26.995713 3.71673,-19.504336 3.71673,19.001502 3.71674,-19.989654 3.71673,-8.028141 3.71673,51.19845 3.71674,-47.805028 3.71673,51.177528 3.71673,-0.63935 3.71674,-2.71179 3.71673,-3.69992 3.71673,5.63709 3.71674,-1.37952 3.71673,0.19093 3.71673,-4.05887 3.71674,-45.056273 3.71673,50.226553 3.71673,-0.35473 3.71674,1.76375 3.71673,-3.41487 3.71673,-0.64562 3.71674,0.76171 3.71673,-1.27032 3.71673,0.95729 3.71674,2.34616 3.71673,-1.25288 3.71673,-53.281241 3.71674,54.267711 3.71673,0.82499 3.71673,-1.6638 3.71674,-0.10909 3.71673,-0.63439 3.71673,0.81461 3.71674,-2.15972 3.71673,-1.91152 3.71673,4.00932 3.71674,-0.98887 3.71673,0.11895 3.71673,0.0542 3.71674,0.52491 3.71673,-1.85932 3.71673,0.0267 3.71674,0.18988 3.71673,-1.65945 3.71673,2.04138 3.71674,-0.004 3.71673,1.58616 3.71673,-2.09 3.71674,1.80402 3.71673,0.3451 3.71673,-1.16061 3.71674,-0.96126 3.71673,-1.10979 3.71673,1.25678 3.71674,1.00904 3.71673,-0.68881 3.71673,-0.37519 3.71674,0.36223 3.71673,0.54913 3.71673,-0.39405 3.71674,1.71741 3.71673,-2.13002 3.71673,-0.37387 3.71674,-1.66025 3.71673,1.73434 3.71673,0.27747 3.71674,0.52255 3.71673,-0.23517 3.71673,0.49089 3.71674,0.68139 3.71673,-0.7081 3.71673,0.58052 3.71674,0.80187 3.71673,-2.33819 3.71673,1.22767 3.71673,-0.65536 3.71674,0.37565 3.71673,-0.72922 3.71673,1.58494 3.71674,-1.56975 3.71673,-0.79206 3.71673,1.06573 3.71674,-0.93785 3.71673,2.21073 3.71673,0.27316 3.71674,-0.52783 3.71673,-0.10757 3.71673,-0.89547 3.71674,1.23381 3.71673,-0.80139 3.71673,0.44929 3.71674,-0.3404 3.71673,-1.7298 3.71674,1.30206 3.71673,1.40597 3.71673,-1.24152 3.71673,0.17751 3.71674,-0.13916 3.71673,-0.0481 3.71673,0.0178 3.71674,-51.835745 3.71673,6.129429 3.71674,43.937006 3.71673,2.02013 3.71673,1.61489 3.71674,-2.27466 3.71673,-43.156932 3.71673,20.478841 3.71674,23.437451 3.71673,-50.121921 3.71673,48.522561 3.71673,3.43385 3.71674,-1.95966 3.71673,0.39572 3.71673,-2.37828 3.71674,1.62806 3.71673,-1.11483 3.71673,0.37712 3.71674,1.14528 3.71673,-2.52687 3.71673,3.90248 3.71674,-1.04802 3.71673,-0.24526 3.71673,-0.41013 3.71674,-0.65662 3.71673,0.83928 3.71673,-0.68513 3.71674,-53.921384 3.71673,52.362904 3.71673,1.33622 3.71674,0.30776 3.71673,0.0512 3.71673,-1.79091 3.71674,2.13391 3.71673,-1.52103 3.71673,2.73014 3.71674,-2.30889 3.71673,1.73923 3.71673,-0.31335 3.71674,0.18178 3.71673,-2.23919 3.71673,1.71088 3.71674,-1.61352 3.71673,0.23166 v 7.68331 0 l -3.71673,6.32616 -3.71674,-3.14621 -3.71673,-2.15847 -3.71673,0.66508 -3.71674,0.0198 -3.71673,-2.63211 -3.71673,1.1016 -3.71674,-2.64524 -3.71673,1.76085 -3.71673,0.39208 -3.71674,-1.4282 -3.71673,-0.78325 -3.71673,5.00329 -3.71674,-5.68729 -3.71673,-0.80364 -3.71673,122.27314 -3.71674,-118.69857 -3.71673,0.76766 -3.71673,0.56656 -3.71674,-3.12488 -3.71673,3.7255 -3.71673,3.17915 -3.71674,-5.1561 -3.71673,6.01078 -3.71673,1.22139 -3.71674,-11.07715 -3.71673,1.80375 -3.71673,-0.62807 -3.71674,-0.72731 -3.71673,5.94867 -3.71673,-1.54032 -3.71674,-1.42976 -3.71673,0.61458 -3.71673,120.76978 -3.71673,-119.18011 -3.71674,226.82087 -3.71673,-46.76043 -3.71673,-182.83828 -3.71674,1.36945 -3.71673,-1.23652 -3.71673,3.49735 -3.71674,178.274 -3.71673,-60.97198 -3.71674,-122.10835 -3.71673,2.15181 -3.71673,-0.71136 -3.71674,0.55188 -3.71673,-2.34219 -3.71673,1.60706 -3.71673,2.8274 -3.71674,-2.97993 -3.71673,-0.67934 -3.71674,0.64133 -3.71673,-0.0897 -3.71673,-0.30905 -3.71674,1.39936 -3.71673,1.12076 -3.71673,-2.13145 -3.71674,3.19951 -3.71673,-2.6911 -3.71673,3.93947 -3.71674,-1.13515 -3.71673,0.80526 -3.71673,-3.13177 -3.71674,1.57231 -3.71673,-0.8086 -3.71673,-2.05498 -3.71674,1.10121 -3.71673,-1.73899 -3.71673,7.84893 -3.71673,-4.88443 -3.71674,-0.89302 -3.71673,-1.56951 -3.71673,1.91133 -3.71674,-2.71778 -3.71673,-0.19172 -3.71673,2.83097 -3.71674,-3.32949 -3.71673,0.99237 -3.71673,9.50009 -3.71674,-7.09957 -3.71673,0.50363 -3.71673,-0.83274 -3.71674,8.70952 -3.71673,-10.85441 -3.71673,0.0144 -3.71674,-0.99077 -3.71673,2.56579 -3.71673,-0.1084 -3.71674,4.50489 -3.71673,-1.4363 -3.71673,-1.88691 -3.71674,0.40316 -3.71673,0.35993 -3.71673,2.67398 -3.71674,0.42855 -3.71673,-4.54238 -3.71673,1.27101 -3.71674,4.85554 -3.71673,-2.21274 -3.71673,-0.83888 -3.71674,0.39725 -3.71673,1.01715 -3.71673,-4.34152 -3.71674,2.42519 -3.71673,-0.0842 -3.71673,-2.07891 -3.71674,-0.18718 -3.71673,3.40407 -3.71673,5.35879 -3.71674,-6.3197 -3.71673,0.84968 -3.71673,-5.0344 -3.71674,7.0998 -3.71673,0.33955 -3.71673,-3.46667 -3.71674,117.44278 -3.71673,-118.12732 -3.71673,4.98942 -3.71674,-4.98515 -3.71673,3.14873 -3.71673,-5.63194 -3.71674,1.09184 -3.71673,-2.35461 -3.71673,4.31783 -3.71674,1.22296 -3.71673,-2.27059 -3.71673,120.57156 -3.71674,-116.07956 -3.71673,4.12414 -3.71673,-7.59111 -3.71674,0.42431 -3.71673,12.92137 -3.71673,-12.52265 -3.71674,9.78283 -3.71673,-10.72756 -3.71673,119.90205 -3.71674,-117.90301 -3.71673,116.3488 -3.71673,61.29497 -3.71674,46.84435 -3.71673,-46.56564 -3.71673,46.64558 -3.71674,-107.23993 -3.71673,0.41736 -3.71673,-114.7189 -3.71674,-3.38373 -3.71673,116.29877 -3.71673,-113.73027 -3.71674,6.89823 -3.71673,-5.18852 -3.71673,114.18668 -3.71673,143.77773 -3.71674,28.03222 -3.71673,-274.76126 -3.71673,211.2592 -3.716739,-46.26551 -3.716733,110.24239 -3.716733,-63.13103 -3.716734,-214.61073 -3.716733,9.69758 -3.716733,-0.12549 z"
       style="fill:#ff7f0e;fill-opacity:0.3;fill-rule:nonzero;stroke:none"
       transform="matrix(1.3333333,0,0,-1.3333333,0,591.14166)"
       clip-path="url(#clipPath52)" />
    <path
       id="path53"
       d="m 78.883665,158.66003 v -23.2209 l 3.716733,-6.69394 3.716733,-3.88809 3.716734,-0.31071 3.716733,-3.13726 3.716733,-2.97031 3.716739,4.63935 3.71673,-2.21104 3.71673,-1.99448 3.71674,-0.66489 3.71673,-0.50982 3.71673,-2.88861 3.71673,-0.008 3.71674,-2.64151 3.71673,0.91165 3.71673,1.84124 3.71674,1.92777 3.71673,-0.37211 3.71673,9.0697 3.71674,-7.7546 3.71673,-4.36755 3.71673,7.6616 3.71674,-6.84387 3.71673,1.42073 3.71673,6.40217 3.71674,3.27193 3.71673,-2.72664 3.71673,-5.31019 3.71674,-1.39809 3.71673,-0.82825 3.71673,-1.02976 3.71674,3.11962 3.71673,1.08559 3.71673,-0.5069 3.71674,-3.12015 3.71673,3.481 3.71673,-2.44278 3.71674,1.16124 3.71673,2.23447 3.71673,-1.52309 3.71674,-2.53723 3.71673,0.71108 3.71673,-2.29501 3.71674,1.00417 3.71673,5.17615 3.71673,-0.24001 v 1.76937 0 l -3.71673,3.10933 -3.71673,12.23228 -3.71674,5.19707 -3.71673,0.55544 -3.71673,-15.07339 -3.71674,-2.07051 -3.71673,1.30426 -3.71673,-2.10965 -3.71674,20.63216 -3.71673,2.22923 -3.71673,-4.32716 -3.71674,2.07704 -3.71673,-1.38287 -3.71673,-17.36919 -3.71674,15.30597 -3.71673,-0.0872 -3.71673,7.35805 -3.71674,-7.06311 -3.71673,8.71571 -3.71673,6.18892 -3.71674,-2.45665 -3.71673,-12.59869 -3.71673,4.472 -3.71674,2.92904 -3.71673,-9.75242 -3.71673,5.21026 -3.71674,7.40718 -3.71673,-8.63424 -3.71673,5.4429 -3.71674,-6.10537 -3.71673,-1.84806 -3.71673,0.7798 -3.71674,0.80293 -3.71673,-5.53918 -3.71673,3.03344 -3.71673,3.60109 -3.71674,3.58793 -3.71673,1.31137 -3.71673,2.35128 -3.716739,-4.56068 -3.716733,4.21125 -3.716733,2.70373 -3.716734,1.54842 -3.716733,2.21903 -3.716733,2.00872 z"
       style="fill:#2ca02c;fill-opacity:0.3;fill-rule:nonzero;stroke:none"
       transform="matrix(1.3333333,0,0,-1.3333333,0,591.14166)"
       clip-path="url(#clipPath54)" />
    <path
       id="path55"
       d="m 78.883665,143.69787 3.716733,4.31989 3.716733,-5.38229 3.716734,13.58287 3.716733,-13.85655 3.716733,-7.44097 3.716739,0.51963 3.71673,-0.10462 3.71673,-2.0764 3.71674,-3.94496 3.71673,2.63866 3.71673,-1.58729 3.71673,-2.29712 3.71674,1.68164 3.71673,-9.5527 3.71673,21.14225 3.71674,-15.93551 3.71673,-2.69785 3.71673,19.04606 3.71674,-13.86781 3.71673,-2.77674 3.71673,-1.53301 3.71674,-0.25429 3.71673,-5.41018 3.71673,5.06098 3.71674,-0.78889 3.71673,-1.92562 3.71673,-1.01858 3.71674,4.22618 3.71673,-4.40564 3.71673,1.60696 3.71674,0.29667 3.71673,-1.14193 3.71673,0.0396 3.71674,-1.72409 3.71673,1.00919 3.71673,1.79586 3.71674,-1.68949 3.71673,0.17457 3.71673,-1.16514 3.71674,-0.99678 3.71673,1.27834 3.71673,0.80636 3.71674,-0.28185 3.71673,-0.72791 3.71673,0.60361 3.71674,-0.82945 3.71673,0.89159 3.71673,-1.23671 3.71674,0.91212 3.71673,-1.01657 3.71673,-0.36751 3.71674,0.57673 3.71673,-1.02242 3.71673,-0.16693 3.71674,1.80817 3.71673,-0.60689 3.71673,-0.78406"
       style="fill:none;stroke:#1f77b4;stroke-width:1.5;stroke-linecap:square;stroke-linejoin:round;stroke-miterlimit:10;stroke-dasharray:none;stroke-opacity:1"
       transform="matrix(1.3333333,0,0,-1.3333333,0,591.14166)"
       clip-path="url(#clipPath56)" />
    <path
       id="path57"
       d="m 78.883665,132.98004 3.716733,-0.25646 3.716733,-5.15227 3.716734,102.54465 3.716733,58.21184 3.716733,-96.40919 3.716739,35.13005 3.71673,-97.81724 3.71673,160.72738 3.71674,-36.89769 3.71673,-97.88531 3.71673,-32.84468 3.71673,-1.47338 3.71674,0.25844 3.71673,30.6311 3.71673,-30.77729 3.71674,-0.34111 3.71673,33.94692 3.71673,-0.94599 3.71674,67.11782 3.71673,-33.07496 3.71673,32.78357 3.71674,-33.417 3.71673,-34.66155 3.71673,-32.57518 3.71674,35.04899 3.71673,-34.36226 3.71673,5.04411 3.71674,-6.24732 3.71673,4.41137 3.71673,-3.64214 3.71674,-0.90192 3.71673,3.89102 3.71673,-4.0915 3.71674,35.51164 3.71673,-35.1725 3.71673,0.95793 3.71674,0.27039 3.71673,-3.86635 3.71673,0.8545 3.71674,-0.16507 3.71673,2.18082 3.71673,-1.09573 3.71674,3.66566 3.71673,-3.12115 3.71673,32.42304 3.71674,-31.58753 3.71673,2.14583 3.71673,-1.00168 3.71674,-3.60445 3.71673,2.20001 3.71673,-0.0175 3.71674,2.08 3.71673,-3.63516 3.71673,0.30262 3.71674,-0.40084 3.71673,1.09893 3.71673,0.0692 3.71674,-0.95014 3.71673,1.2411 3.71673,-0.49525 3.71674,-0.10369 3.71673,-0.41028 3.71673,2.12706 3.71674,-2.42961 3.71673,0.15757 3.71673,1.22619 3.71674,0.68773 3.71673,-1.16443 7.43347,-1.44249 3.71673,0.38856 3.71673,1.34654 3.71674,-1.74792 3.71673,-0.29021 3.71673,-1.47049 3.71674,0.6765 3.71673,0.26739 3.71673,5.23019 3.71674,-3.49606 3.71673,-0.64864 3.71673,-0.43875 3.71674,2.71966 3.71673,-3.88287 3.71673,-0.35745 3.71674,1.92601 3.71673,-1.53306 3.71673,0.3413 3.71674,1.69959 3.71673,-1.30972 3.71673,1.07501 3.71674,0.84745 3.71673,1.27312 3.71673,-3.31063 3.71673,0.54181 3.71674,-0.36277 3.71673,0.66287 3.71673,1.19677 3.71674,-1.57102 3.71673,1.16985 7.43347,0.22888 3.71673,-0.86436 3.71673,1.48212 3.71674,-1.86366 3.71673,1.01194 3.71673,-1.00812 3.71674,-0.0828 3.71673,-0.24617 3.71673,0.2695 7.43347,-1.0161 3.71674,2.141 3.71673,-0.71072 3.71673,-1.42429 3.71673,1.25985 3.71674,-0.34551 3.71673,0.33165 3.71673,-1.06703 3.71674,35.13631 3.71673,33.5507 3.71674,-67.16849 3.71673,-0.73862 3.71673,1.42571 3.71674,-1.82205 3.71673,69.84067 3.71673,33.61963 3.71674,-101.6917 3.71673,34.52909 3.71673,-36.12361 3.71673,1.40963 3.71674,-0.26494 3.71673,0.96801 3.71673,-4.16347 3.71674,1.17768 3.71673,-0.24338 3.71673,-0.71331 3.71674,6.11121 3.71673,-1.87412 3.71673,-1.05416 3.71674,2.05405 3.71673,-1.71221 3.71673,-2.06782 3.71674,1.23413 3.71673,0.13636 3.71673,-0.72639 3.71674,32.38859 3.71673,-34.95511 3.71673,1.06992 3.71674,2.99753 3.71673,-2.47607 3.71673,-0.50382 3.71674,1.78105 3.71673,-0.95656 3.71673,0.48465 3.71674,0.16818 3.71673,0.31881 3.71673,1.15938 3.71674,0.081 3.71673,-1.45214 3.71673,1.93468 3.71674,0.76635 3.71673,-3.04725 v 0"
       style="fill:none;stroke:#ff7f0e;stroke-width:1.5;stroke-linecap:square;stroke-linejoin:round;stroke-miterlimit:10;stroke-dasharray:none;stroke-opacity:1"
       transform="matrix(1.3333333,0,0,-1.3333333,0,591.14166)"
       clip-path="url(#clipPath58)" />
    <path
       id="path59"
       d="m 78.883665,147.04958 3.716733,-4.35133 3.716733,-3.05356 3.716734,-0.92957 3.716733,-2.92049 3.716733,-3.59078 3.716739,4.60001 3.71673,-2.28116 3.71673,-1.65292 3.71674,-2.12641 3.71673,-2.05546 3.71673,-2.96102 3.71673,2.76535 3.71674,-1.72222 3.71673,0.0659 3.71673,1.84465 3.71674,4.01657 3.71673,-2.90751 3.71673,8.85197 3.71674,-7.58088 3.71673,-4.78891 3.71673,8.70701 3.71674,-4.88646 3.71673,-1.52563 3.71673,9.50043 3.71674,2.86429 3.71673,-4.45778 3.71673,-7.01295 3.71674,2.83251 3.71673,-4.09315 3.71673,-0.47127 3.71674,-6.09318 3.71673,9.22739 3.71673,0.43799 3.71674,-2.5986 3.71673,3.90408 3.71673,-2.336 3.71674,-9.73547 3.71673,2.17206 3.71673,-1.41367 3.71674,-0.23336 3.71673,7.89223 3.71673,-1.42522 3.71674,-2.09645 3.71673,-3.52806 3.71673,-1.67467"
       style="fill:none;stroke:#2ca02c;stroke-width:1.5;stroke-linecap:square;stroke-linejoin:round;stroke-miterlimit:10;stroke-dasharray:none;stroke-opacity:1"
       transform="matrix(1.3333333,0,0,-1.3333333,0,591.14166)"
       clip-path="url(#clipPath60)" />
    <path
       id="path61"
       d="m 565.1,335.29687 h 139 c 1.33333,0 2,0.66666 2,2 v 88.35937 c 0,1.33334 -0.66667,2 -2,2 h -139 c -1.33333,0 -2,-0.66666 -2,-2 v -88.35937 c 0,-1.33334 0.66667,-2 2,-2 z"
       style="fill:#ffffff;fill-opacity:0.8;fill-rule:nonzero;stroke:#cccccc;stroke-width:1;stroke-linecap:butt;stroke-linejoin:miter;stroke-miterlimit:10;stroke-dasharray:none;stroke-opacity:0.8"
       transform="matrix(1.3333333,0,0,-1.3333333,0,591.14166)" />
    <path
       id="path62"
       d="m 567.1,419.56249 h 20"
       style="fill:none;stroke:#1f77b4;stroke-width:1.5;stroke-linecap:square;stroke-linejoin:round;stroke-miterlimit:10;stroke-dasharray:none;stroke-opacity:1"
       transform="matrix(1.3333333,0,0,-1.3333333,0,591.14166)" />
    <text
       id="text62"
       xml:space="preserve"
       transform="matrix(1.3333333,0,0,1.3333333,793.46667,36.391667)"><tspan
         id="tspan62"
         style="font-variant:normal;font-weight:normal;font-size:10px;font-family:'DejaVu Sans';writing-mode:lr-tb;fill:#000000;fill-opacity:1;fill-rule:nonzero;stroke:none"
         x="0"
         y="0">DES Mean</tspan></text>
    <path
       id="path63"
       d="m 567.1,404.89062 h 20"
       style="fill:none;stroke:#ff7f0e;stroke-width:1.5;stroke-linecap:square;stroke-linejoin:round;stroke-miterlimit:10;stroke-dasharray:none;stroke-opacity:1"
       transform="matrix(1.3333333,0,0,-1.3333333,0,591.14166)" />
    <text
       id="text63"
       xml:space="preserve"
       transform="matrix(1.3333333,0,0,1.3333333,793.46667,55.954167)"><tspan
         id="tspan63"
         style="font-variant:normal;font-weight:normal;font-size:10px;font-family:'DejaVu Sans';writing-mode:lr-tb;fill:#000000;fill-opacity:1;fill-rule:nonzero;stroke:none"
         x="0"
         y="0">CMA-ES Mean</tspan></text>
    <path
       id="path64"
       d="m 567.1,390.21874 h 20"
       style="fill:none;stroke:#2ca02c;stroke-width:1.5;stroke-linecap:square;stroke-linejoin:round;stroke-miterlimit:10;stroke-dasharray:none;stroke-opacity:1"
       transform="matrix(1.3333333,0,0,-1.3333333,0,591.14166)" />
    <text
       id="text64"
       xml:space="preserve"
       transform="matrix(1.3333333,0,0,1.3333333,793.46667,75.516667)"><tspan
         id="tspan64"
         style="font-variant:normal;font-weight:normal;font-size:10px;font-family:'DejaVu Sans';writing-mode:lr-tb;fill:#000000;fill-opacity:1;fill-rule:nonzero;stroke:none"
         x="0"
         y="0">jSO Mean</tspan></text>
    <path
       id="path65"
       d="m 567.1,372.04687 h 20 v 7 h -20 z"
       style="fill:#1f77b4;fill-opacity:0.3;fill-rule:nonzero;stroke:none"
       transform="matrix(1.3333333,0,0,-1.3333333,0,591.14166)" />
    <text
       id="text65"
       xml:space="preserve"
       transform="matrix(1.3333333,0,0,1.3333333,793.46667,94.5375)"><tspan
         id="tspan65"
         style="font-variant:normal;font-weight:normal;font-size:10px;font-family:'DejaVu Sans';writing-mode:lr-tb;fill:#000000;fill-opacity:1;fill-rule:nonzero;stroke:none"
         x="0"
         y="0">DES ± 1 std. dev.</tspan></text>
    <path
       id="path66"
       d="m 567.1,357.37499 h 20 v 7 h -20 z"
       style="fill:#ff7f0e;fill-opacity:0.3;fill-rule:nonzero;stroke:none"
       transform="matrix(1.3333333,0,0,-1.3333333,0,591.14166)" />
    <text
       id="text66"
       xml:space="preserve"
       transform="matrix(1.3333333,0,0,1.3333333,793.46667,114.1)"><tspan
         id="tspan66"
         style="font-variant:normal;font-weight:normal;font-size:10px;font-family:'DejaVu Sans';writing-mode:lr-tb;fill:#000000;fill-opacity:1;fill-rule:nonzero;stroke:none"
         x="0"
         y="0">CMA-ES ± 1 std. dev.</tspan></text>
    <path
       id="path67"
       d="m 567.1,342.29687 h 20 v 7 h -20 z"
       style="fill:#2ca02c;fill-opacity:0.3;fill-rule:nonzero;stroke:none"
       transform="matrix(1.3333333,0,0,-1.3333333,0,591.14166)" />
    <text
       id="text67"
       xml:space="preserve"
       transform="matrix(1.3333333,0,0,1.3333333,793.46667,134.20417)"><tspan
         id="tspan67"
         style="font-variant:normal;font-weight:normal;font-size:10px;font-family:'DejaVu Sans';writing-mode:lr-tb;fill:#000000;fill-opacity:1;fill-rule:nonzero;stroke:none"
         x="0"
         y="0">jSO ± 1 std. dev.</tspan></text>
  </g>
</svg>
