<?xml version="1.0" encoding="UTF-8" standalone="no"?>
<!-- Created with Inkscape (http://www.inkscape.org/) -->

<svg
   version="1.1"
   id="svg1"
   width="600.22681"
   height="591.14166"
   viewBox="0 0 600.22681 591.14166"
   xmlns="http://www.w3.org/2000/svg"
   xmlns:svg="http://www.w3.org/2000/svg">
  <defs
     id="defs1">
    <clipPath
       clipPathUnits="userSpaceOnUse"
       id="clipPath2">
      <path
         d="M 43.778125,37.54375 H 438.89062 V 432.65624 H 43.778125 Z"
         id="path2" />
    </clipPath>
    <clipPath
       clipPathUnits="userSpaceOnUse"
       id="clipPath5">
      <path
         d="M 43.778125,37.54375 H 438.89062 V 432.65624 H 43.778125 Z"
         id="path5" />
    </clipPath>
    <clipPath
       clipPathUnits="userSpaceOnUse"
       id="clipPath8">
      <path
         d="M 43.778125,37.54375 H 438.89062 V 432.65624 H 43.778125 Z"
         id="path8" />
    </clipPath>
    <clipPath
       clipPathUnits="userSpaceOnUse"
       id="clipPath11">
      <path
         d="M 43.778125,37.54375 H 438.89062 V 432.65624 H 43.778125 Z"
         id="path11" />
    </clipPath>
    <clipPath
       clipPathUnits="userSpaceOnUse"
       id="clipPath14">
      <path
         d="M 43.778125,37.54375 H 438.89062 V 432.65624 H 43.778125 Z"
         id="path14" />
    </clipPath>
    <clipPath
       clipPathUnits="userSpaceOnUse"
       id="clipPath17">
      <path
         d="M 43.778125,37.54375 H 438.89062 V 432.65624 H 43.778125 Z"
         id="path17" />
    </clipPath>
    <clipPath
       clipPathUnits="userSpaceOnUse"
       id="clipPath20">
      <path
         d="M 43.778125,37.54375 H 438.89062 V 432.65624 H 43.778125 Z"
         id="path20" />
    </clipPath>
    <clipPath
       clipPathUnits="userSpaceOnUse"
       id="clipPath23">
      <path
         d="M 43.778125,37.54375 H 438.89062 V 432.65624 H 43.778125 Z"
         id="path23" />
    </clipPath>
    <clipPath
       clipPathUnits="userSpaceOnUse"
       id="clipPath26">
      <path
         d="M 43.778125,37.54375 H 438.89062 V 432.65624 H 43.778125 Z"
         id="path26" />
    </clipPath>
    <clipPath
       clipPathUnits="userSpaceOnUse"
       id="clipPath29">
      <path
         d="M 43.778125,37.54375 H 438.89062 V 432.65624 H 43.778125 Z"
         id="path29" />
    </clipPath>
    <clipPath
       clipPathUnits="userSpaceOnUse"
       id="clipPath32">
      <path
         d="M 43.778125,37.54375 H 438.89062 V 432.65624 H 43.778125 Z"
         id="path32" />
    </clipPath>
    <clipPath
       clipPathUnits="userSpaceOnUse"
       id="clipPath35">
      <path
         d="M 43.778125,37.54375 H 438.89062 V 432.65624 H 43.778125 Z"
         id="path35" />
    </clipPath>
    <clipPath
       clipPathUnits="userSpaceOnUse"
       id="clipPath38">
      <path
         d="M 43.778125,37.54375 H 438.89062 V 432.65624 H 43.778125 Z"
         id="path38" />
    </clipPath>
    <clipPath
       clipPathUnits="userSpaceOnUse"
       id="clipPath41">
      <path
         d="M 43.778125,37.54375 H 438.89062 V 432.65624 H 43.778125 Z"
         id="path41" />
    </clipPath>
    <clipPath
       clipPathUnits="userSpaceOnUse"
       id="clipPath44">
      <path
         d="M 43.778125,37.54375 H 438.89062 V 432.65624 H 43.778125 Z"
         id="path44" />
    </clipPath>
    <clipPath
       clipPathUnits="userSpaceOnUse"
       id="clipPath47">
      <path
         d="M 43.778125,37.54375 H 438.89062 V 432.65624 H 43.778125 Z"
         id="path47" />
    </clipPath>
    <clipPath
       clipPathUnits="userSpaceOnUse"
       id="clipPath50">
      <path
         d="M 43.778125,37.54375 H 438.89062 V 432.65624 H 43.778125 Z"
         id="path50" />
    </clipPath>
    <clipPath
       clipPathUnits="userSpaceOnUse"
       id="clipPath53">
      <path
         d="M 43.778125,37.54375 H 438.89062 V 432.65624 H 43.778125 Z"
         id="path53" />
    </clipPath>
    <clipPath
       clipPathUnits="userSpaceOnUse"
       id="clipPath56">
      <path
         d="M 43.778125,37.54375 H 438.89062 V 432.65624 H 43.778125 Z"
         id="path56" />
    </clipPath>
    <clipPath
       clipPathUnits="userSpaceOnUse"
       id="clipPath59">
      <path
         d="M 43.778125,37.54375 H 438.89062 V 432.65624 H 43.778125 Z"
         id="path59" />
    </clipPath>
    <clipPath
       clipPathUnits="userSpaceOnUse"
       id="clipPath62">
      <path
         d="M 43.778125,37.54375 H 438.89062 V 432.65624 H 43.778125 Z"
         id="path62" />
    </clipPath>
    <clipPath
       clipPathUnits="userSpaceOnUse"
       id="clipPath65">
      <path
         d="M 43.778125,37.54375 H 438.89062 V 432.65624 H 43.778125 Z"
         id="path65" />
    </clipPath>
    <clipPath
       clipPathUnits="userSpaceOnUse"
       id="clipPath68">
      <path
         d="M 43.778125,37.54375 H 438.89062 V 432.65624 H 43.778125 Z"
         id="path68" />
    </clipPath>
    <clipPath
       clipPathUnits="userSpaceOnUse"
       id="clipPath70">
      <path
         d="M 43.778125,37.54375 H 438.89062 V 432.65624 H 43.778125 Z"
         id="path70" />
    </clipPath>
    <clipPath
       clipPathUnits="userSpaceOnUse"
       id="clipPath72">
      <path
         d="M 43.778125,37.54375 H 438.89062 V 432.65624 H 43.778125 Z"
         id="path72" />
    </clipPath>
    <clipPath
       clipPathUnits="userSpaceOnUse"
       id="clipPath74">
      <path
         d="M 43.778125,37.54375 H 438.89062 V 432.65624 H 43.778125 Z"
         id="path74" />
    </clipPath>
    <clipPath
       clipPathUnits="userSpaceOnUse"
       id="clipPath76">
      <path
         d="M 43.778125,37.54375 H 438.89062 V 432.65624 H 43.778125 Z"
         id="path76" />
    </clipPath>
    <clipPath
       clipPathUnits="userSpaceOnUse"
       id="clipPath78">
      <path
         d="M 43.778125,37.54375 H 438.89062 V 432.65624 H 43.778125 Z"
         id="path78" />
    </clipPath>
    <clipPath
       clipPathUnits="userSpaceOnUse"
       id="clipPath80">
      <path
         d="M 43.778125,37.54375 H 438.89062 V 432.65624 H 43.778125 Z"
         id="path80" />
    </clipPath>
  </defs>
  <g
     id="g1">
    <path
       id="path1"
       d="M 47.651777,37.54375 V 432.65624"
       style="fill:none;stroke:#b0b0b0;stroke-width:0.8;stroke-linecap:square;stroke-linejoin:round;stroke-miterlimit:10;stroke-dasharray:none;stroke-opacity:1"
       transform="matrix(1.3333333,0,0,-1.3333333,0,591.14166)"
       clip-path="url(#clipPath2)" />
    <path
       id="path3"
       d="m 47.651777,37.54375 v -3.5"
       style="fill:#000000;fill-opacity:1;fill-rule:nonzero;stroke:#000000;stroke-width:0.8;stroke-linecap:butt;stroke-linejoin:round;stroke-miterlimit:10;stroke-dasharray:none;stroke-opacity:1"
       transform="matrix(1.3333333,0,0,-1.3333333,0,591.14166)" />
    <text
       id="text3"
       xml:space="preserve"
       transform="matrix(1.3333333,0,0,1.3333333,52.931536,560.54166)"><tspan
         id="tspan3"
         style="font-variant:normal;font-weight:normal;font-size:10px;font-family:'DejaVu Sans';writing-mode:lr-tb;fill:#000000;fill-opacity:1;fill-rule:nonzero;stroke:none"
         x="0"
         y="0">0.0</tspan></text>
    <path
       id="path4"
       d="M 86.388296,37.54375 V 432.65624"
       style="fill:none;stroke:#b0b0b0;stroke-width:0.8;stroke-linecap:square;stroke-linejoin:round;stroke-miterlimit:10;stroke-dasharray:none;stroke-opacity:1"
       transform="matrix(1.3333333,0,0,-1.3333333,0,591.14166)"
       clip-path="url(#clipPath5)" />
    <path
       id="path6"
       d="m 86.388296,37.54375 v -3.5"
       style="fill:#000000;fill-opacity:1;fill-rule:nonzero;stroke:#000000;stroke-width:0.8;stroke-linecap:butt;stroke-linejoin:round;stroke-miterlimit:10;stroke-dasharray:none;stroke-opacity:1"
       transform="matrix(1.3333333,0,0,-1.3333333,0,591.14166)" />
    <text
       id="text6"
       xml:space="preserve"
       transform="matrix(1.3333333,0,0,1.3333333,104.58023,560.54166)"><tspan
         id="tspan6"
         style="font-variant:normal;font-weight:normal;font-size:10px;font-family:'DejaVu Sans';writing-mode:lr-tb;fill:#000000;fill-opacity:1;fill-rule:nonzero;stroke:none"
         x="0"
         y="0">0.1</tspan></text>
    <path
       id="path7"
       d="M 125.12481,37.54375 V 432.65624"
       style="fill:none;stroke:#b0b0b0;stroke-width:0.8;stroke-linecap:square;stroke-linejoin:round;stroke-miterlimit:10;stroke-dasharray:none;stroke-opacity:1"
       transform="matrix(1.3333333,0,0,-1.3333333,0,591.14166)"
       clip-path="url(#clipPath8)" />
    <path
       id="path9"
       d="m 125.12481,37.54375 v -3.5"
       style="fill:#000000;fill-opacity:1;fill-rule:nonzero;stroke:#000000;stroke-width:0.8;stroke-linecap:butt;stroke-linejoin:round;stroke-miterlimit:10;stroke-dasharray:none;stroke-opacity:1"
       transform="matrix(1.3333333,0,0,-1.3333333,0,591.14166)" />
    <text
       id="text9"
       xml:space="preserve"
       transform="matrix(1.3333333,0,0,1.3333333,156.22892,560.54166)"><tspan
         id="tspan9"
         style="font-variant:normal;font-weight:normal;font-size:10px;font-family:'DejaVu Sans';writing-mode:lr-tb;fill:#000000;fill-opacity:1;fill-rule:nonzero;stroke:none"
         x="0"
         y="0">0.2</tspan></text>
    <path
       id="path10"
       d="M 163.86133,37.54375 V 432.65624"
       style="fill:none;stroke:#b0b0b0;stroke-width:0.8;stroke-linecap:square;stroke-linejoin:round;stroke-miterlimit:10;stroke-dasharray:none;stroke-opacity:1"
       transform="matrix(1.3333333,0,0,-1.3333333,0,591.14166)"
       clip-path="url(#clipPath11)" />
    <path
       id="path12"
       d="m 163.86133,37.54375 v -3.5"
       style="fill:#000000;fill-opacity:1;fill-rule:nonzero;stroke:#000000;stroke-width:0.8;stroke-linecap:butt;stroke-linejoin:round;stroke-miterlimit:10;stroke-dasharray:none;stroke-opacity:1"
       transform="matrix(1.3333333,0,0,-1.3333333,0,591.14166)" />
    <text
       id="text12"
       xml:space="preserve"
       transform="matrix(1.3333333,0,0,1.3333333,207.87761,560.54166)"><tspan
         id="tspan12"
         style="font-variant:normal;font-weight:normal;font-size:10px;font-family:'DejaVu Sans';writing-mode:lr-tb;fill:#000000;fill-opacity:1;fill-rule:nonzero;stroke:none"
         x="0"
         y="0">0.3</tspan></text>
    <path
       id="path13"
       d="M 202.59785,37.54375 V 432.65624"
       style="fill:none;stroke:#b0b0b0;stroke-width:0.8;stroke-linecap:square;stroke-linejoin:round;stroke-miterlimit:10;stroke-dasharray:none;stroke-opacity:1"
       transform="matrix(1.3333333,0,0,-1.3333333,0,591.14166)"
       clip-path="url(#clipPath14)" />
    <path
       id="path15"
       d="m 202.59785,37.54375 v -3.5"
       style="fill:#000000;fill-opacity:1;fill-rule:nonzero;stroke:#000000;stroke-width:0.8;stroke-linecap:butt;stroke-linejoin:round;stroke-miterlimit:10;stroke-dasharray:none;stroke-opacity:1"
       transform="matrix(1.3333333,0,0,-1.3333333,0,591.14166)" />
    <text
       id="text15"
       xml:space="preserve"
       transform="matrix(1.3333333,0,0,1.3333333,259.5263,560.54166)"><tspan
         id="tspan15"
         style="font-variant:normal;font-weight:normal;font-size:10px;font-family:'DejaVu Sans';writing-mode:lr-tb;fill:#000000;fill-opacity:1;fill-rule:nonzero;stroke:none"
         x="0"
         y="0">0.4</tspan></text>
    <path
       id="path16"
       d="M 241.33437,37.54375 V 432.65624"
       style="fill:none;stroke:#b0b0b0;stroke-width:0.8;stroke-linecap:square;stroke-linejoin:round;stroke-miterlimit:10;stroke-dasharray:none;stroke-opacity:1"
       transform="matrix(1.3333333,0,0,-1.3333333,0,591.14166)"
       clip-path="url(#clipPath17)" />
    <path
       id="path18"
       d="m 241.33437,37.54375 v -3.5"
       style="fill:#000000;fill-opacity:1;fill-rule:nonzero;stroke:#000000;stroke-width:0.8;stroke-linecap:butt;stroke-linejoin:round;stroke-miterlimit:10;stroke-dasharray:none;stroke-opacity:1"
       transform="matrix(1.3333333,0,0,-1.3333333,0,591.14166)" />
    <text
       id="text18"
       xml:space="preserve"
       transform="matrix(1.3333333,0,0,1.3333333,311.17499,560.54166)"><tspan
         id="tspan18"
         style="font-variant:normal;font-weight:normal;font-size:10px;font-family:'DejaVu Sans';writing-mode:lr-tb;fill:#000000;fill-opacity:1;fill-rule:nonzero;stroke:none"
         x="0"
         y="0">0.5</tspan></text>
    <path
       id="path19"
       d="M 280.07089,37.54375 V 432.65624"
       style="fill:none;stroke:#b0b0b0;stroke-width:0.8;stroke-linecap:square;stroke-linejoin:round;stroke-miterlimit:10;stroke-dasharray:none;stroke-opacity:1"
       transform="matrix(1.3333333,0,0,-1.3333333,0,591.14166)"
       clip-path="url(#clipPath20)" />
    <path
       id="path21"
       d="m 280.07089,37.54375 v -3.5"
       style="fill:#000000;fill-opacity:1;fill-rule:nonzero;stroke:#000000;stroke-width:0.8;stroke-linecap:butt;stroke-linejoin:round;stroke-miterlimit:10;stroke-dasharray:none;stroke-opacity:1"
       transform="matrix(1.3333333,0,0,-1.3333333,0,591.14166)" />
    <text
       id="text21"
       xml:space="preserve"
       transform="matrix(1.3333333,0,0,1.3333333,362.82369,560.54166)"><tspan
         id="tspan21"
         style="font-variant:normal;font-weight:normal;font-size:10px;font-family:'DejaVu Sans';writing-mode:lr-tb;fill:#000000;fill-opacity:1;fill-rule:nonzero;stroke:none"
         x="0"
         y="0">0.6</tspan></text>
    <path
       id="path22"
       d="M 318.80741,37.54375 V 432.65624"
       style="fill:none;stroke:#b0b0b0;stroke-width:0.8;stroke-linecap:square;stroke-linejoin:round;stroke-miterlimit:10;stroke-dasharray:none;stroke-opacity:1"
       transform="matrix(1.3333333,0,0,-1.3333333,0,591.14166)"
       clip-path="url(#clipPath23)" />
    <path
       id="path24"
       d="m 318.80741,37.54375 v -3.5"
       style="fill:#000000;fill-opacity:1;fill-rule:nonzero;stroke:#000000;stroke-width:0.8;stroke-linecap:butt;stroke-linejoin:round;stroke-miterlimit:10;stroke-dasharray:none;stroke-opacity:1"
       transform="matrix(1.3333333,0,0,-1.3333333,0,591.14166)" />
    <text
       id="text24"
       xml:space="preserve"
       transform="matrix(1.3333333,0,0,1.3333333,414.47238,560.54166)"><tspan
         id="tspan24"
         style="font-variant:normal;font-weight:normal;font-size:10px;font-family:'DejaVu Sans';writing-mode:lr-tb;fill:#000000;fill-opacity:1;fill-rule:nonzero;stroke:none"
         x="0"
         y="0">0.7</tspan></text>
    <path
       id="path25"
       d="M 357.54393,37.54375 V 432.65624"
       style="fill:none;stroke:#b0b0b0;stroke-width:0.8;stroke-linecap:square;stroke-linejoin:round;stroke-miterlimit:10;stroke-dasharray:none;stroke-opacity:1"
       transform="matrix(1.3333333,0,0,-1.3333333,0,591.14166)"
       clip-path="url(#clipPath26)" />
    <path
       id="path27"
       d="m 357.54393,37.54375 v -3.5"
       style="fill:#000000;fill-opacity:1;fill-rule:nonzero;stroke:#000000;stroke-width:0.8;stroke-linecap:butt;stroke-linejoin:round;stroke-miterlimit:10;stroke-dasharray:none;stroke-opacity:1"
       transform="matrix(1.3333333,0,0,-1.3333333,0,591.14166)" />
    <text
       id="text27"
       xml:space="preserve"
       transform="matrix(1.3333333,0,0,1.3333333,466.12107,560.54166)"><tspan
         id="tspan27"
         style="font-variant:normal;font-weight:normal;font-size:10px;font-family:'DejaVu Sans';writing-mode:lr-tb;fill:#000000;fill-opacity:1;fill-rule:nonzero;stroke:none"
         x="0"
         y="0">0.8</tspan></text>
    <path
       id="path28"
       d="M 396.28045,37.54375 V 432.65624"
       style="fill:none;stroke:#b0b0b0;stroke-width:0.8;stroke-linecap:square;stroke-linejoin:round;stroke-miterlimit:10;stroke-dasharray:none;stroke-opacity:1"
       transform="matrix(1.3333333,0,0,-1.3333333,0,591.14166)"
       clip-path="url(#clipPath29)" />
    <path
       id="path30"
       d="m 396.28045,37.54375 v -3.5"
       style="fill:#000000;fill-opacity:1;fill-rule:nonzero;stroke:#000000;stroke-width:0.8;stroke-linecap:butt;stroke-linejoin:round;stroke-miterlimit:10;stroke-dasharray:none;stroke-opacity:1"
       transform="matrix(1.3333333,0,0,-1.3333333,0,591.14166)" />
    <text
       id="text30"
       xml:space="preserve"
       transform="matrix(1.3333333,0,0,1.3333333,517.76976,560.54166)"><tspan
         id="tspan30"
         style="font-variant:normal;font-weight:normal;font-size:10px;font-family:'DejaVu Sans';writing-mode:lr-tb;fill:#000000;fill-opacity:1;fill-rule:nonzero;stroke:none"
         x="0"
         y="0">0.9</tspan></text>
    <path
       id="path31"
       d="M 435.01696,37.54375 V 432.65624"
       style="fill:none;stroke:#b0b0b0;stroke-width:0.8;stroke-linecap:square;stroke-linejoin:round;stroke-miterlimit:10;stroke-dasharray:none;stroke-opacity:1"
       transform="matrix(1.3333333,0,0,-1.3333333,0,591.14166)"
       clip-path="url(#clipPath32)" />
    <path
       id="path33"
       d="m 435.01696,37.54375 v -3.5"
       style="fill:#000000;fill-opacity:1;fill-rule:nonzero;stroke:#000000;stroke-width:0.8;stroke-linecap:butt;stroke-linejoin:round;stroke-miterlimit:10;stroke-dasharray:none;stroke-opacity:1"
       transform="matrix(1.3333333,0,0,-1.3333333,0,591.14166)" />
    <text
       id="text33"
       xml:space="preserve"
       transform="matrix(1.3333333,0,0,1.3333333,569.41845,560.54166)"><tspan
         id="tspan33"
         style="font-variant:normal;font-weight:normal;font-size:10px;font-family:'DejaVu Sans';writing-mode:lr-tb;fill:#000000;fill-opacity:1;fill-rule:nonzero;stroke:none"
         x="0"
         y="0">1.0</tspan></text>
    <text
       id="text34"
       xml:space="preserve"
       transform="matrix(1.3333333,0,0,1.3333333,258.77916,578.77082)"><tspan
         id="tspan34"
         style="font-variant:normal;font-weight:normal;font-size:10px;font-family:'DejaVu Sans';writing-mode:lr-tb;fill:#000000;fill-opacity:1;fill-rule:nonzero;stroke:none"
         x="0"
         y="0">False Positive Rate</tspan></text>
    <path
       id="path34"
       d="M 43.778125,41.417402 H 438.89062"
       style="fill:none;stroke:#b0b0b0;stroke-width:0.8;stroke-linecap:square;stroke-linejoin:round;stroke-miterlimit:10;stroke-dasharray:none;stroke-opacity:1"
       transform="matrix(1.3333333,0,0,-1.3333333,0,591.14166)"
       clip-path="url(#clipPath35)" />
    <path
       id="path36"
       d="m 43.778125,41.417402 h -3.5"
       style="fill:#000000;fill-opacity:1;fill-rule:nonzero;stroke:#000000;stroke-width:0.8;stroke-linecap:butt;stroke-linejoin:round;stroke-miterlimit:10;stroke-dasharray:none;stroke-opacity:1"
       transform="matrix(1.3333333,0,0,-1.3333333,0,591.14166)" />
    <text
       id="text36"
       xml:space="preserve"
       transform="matrix(1.3333333,0,0,1.3333333,27.829167,540.98095)"><tspan
         id="tspan36"
         style="font-variant:normal;font-weight:normal;font-size:10px;font-family:'DejaVu Sans';writing-mode:lr-tb;fill:#000000;fill-opacity:1;fill-rule:nonzero;stroke:none"
         x="0"
         y="0">0.0</tspan></text>
    <path
       id="path37"
       d="M 43.778125,80.153921 H 438.89062"
       style="fill:none;stroke:#b0b0b0;stroke-width:0.8;stroke-linecap:square;stroke-linejoin:round;stroke-miterlimit:10;stroke-dasharray:none;stroke-opacity:1"
       transform="matrix(1.3333333,0,0,-1.3333333,0,591.14166)"
       clip-path="url(#clipPath38)" />
    <path
       id="path39"
       d="m 43.778125,80.153921 h -3.5"
       style="fill:#000000;fill-opacity:1;fill-rule:nonzero;stroke:#000000;stroke-width:0.8;stroke-linecap:butt;stroke-linejoin:round;stroke-miterlimit:10;stroke-dasharray:none;stroke-opacity:1"
       transform="matrix(1.3333333,0,0,-1.3333333,0,591.14166)" />
    <text
       id="text39"
       xml:space="preserve"
       transform="matrix(1.3333333,0,0,1.3333333,27.829167,489.33226)"><tspan
         id="tspan39"
         style="font-variant:normal;font-weight:normal;font-size:10px;font-family:'DejaVu Sans';writing-mode:lr-tb;fill:#000000;fill-opacity:1;fill-rule:nonzero;stroke:none"
         x="0"
         y="0">0.1</tspan></text>
    <path
       id="path40"
       d="M 43.778125,118.89044 H 438.89062"
       style="fill:none;stroke:#b0b0b0;stroke-width:0.8;stroke-linecap:square;stroke-linejoin:round;stroke-miterlimit:10;stroke-dasharray:none;stroke-opacity:1"
       transform="matrix(1.3333333,0,0,-1.3333333,0,591.14166)"
       clip-path="url(#clipPath41)" />
    <path
       id="path42"
       d="m 43.778125,118.89044 h -3.5"
       style="fill:#000000;fill-opacity:1;fill-rule:nonzero;stroke:#000000;stroke-width:0.8;stroke-linecap:butt;stroke-linejoin:round;stroke-miterlimit:10;stroke-dasharray:none;stroke-opacity:1"
       transform="matrix(1.3333333,0,0,-1.3333333,0,591.14166)" />
    <text
       id="text42"
       xml:space="preserve"
       transform="matrix(1.3333333,0,0,1.3333333,27.829167,437.68357)"><tspan
         id="tspan42"
         style="font-variant:normal;font-weight:normal;font-size:10px;font-family:'DejaVu Sans';writing-mode:lr-tb;fill:#000000;fill-opacity:1;fill-rule:nonzero;stroke:none"
         x="0"
         y="0">0.2</tspan></text>
    <path
       id="path43"
       d="M 43.778125,157.62696 H 438.89062"
       style="fill:none;stroke:#b0b0b0;stroke-width:0.8;stroke-linecap:square;stroke-linejoin:round;stroke-miterlimit:10;stroke-dasharray:none;stroke-opacity:1"
       transform="matrix(1.3333333,0,0,-1.3333333,0,591.14166)"
       clip-path="url(#clipPath44)" />
    <path
       id="path45"
       d="m 43.778125,157.62696 h -3.5"
       style="fill:#000000;fill-opacity:1;fill-rule:nonzero;stroke:#000000;stroke-width:0.8;stroke-linecap:butt;stroke-linejoin:round;stroke-miterlimit:10;stroke-dasharray:none;stroke-opacity:1"
       transform="matrix(1.3333333,0,0,-1.3333333,0,591.14166)" />
    <text
       id="text45"
       xml:space="preserve"
       transform="matrix(1.3333333,0,0,1.3333333,27.829167,386.03488)"><tspan
         id="tspan45"
         style="font-variant:normal;font-weight:normal;font-size:10px;font-family:'DejaVu Sans';writing-mode:lr-tb;fill:#000000;fill-opacity:1;fill-rule:nonzero;stroke:none"
         x="0"
         y="0">0.3</tspan></text>
    <path
       id="path46"
       d="M 43.778125,196.36348 H 438.89062"
       style="fill:none;stroke:#b0b0b0;stroke-width:0.8;stroke-linecap:square;stroke-linejoin:round;stroke-miterlimit:10;stroke-dasharray:none;stroke-opacity:1"
       transform="matrix(1.3333333,0,0,-1.3333333,0,591.14166)"
       clip-path="url(#clipPath47)" />
    <path
       id="path48"
       d="m 43.778125,196.36348 h -3.5"
       style="fill:#000000;fill-opacity:1;fill-rule:nonzero;stroke:#000000;stroke-width:0.8;stroke-linecap:butt;stroke-linejoin:round;stroke-miterlimit:10;stroke-dasharray:none;stroke-opacity:1"
       transform="matrix(1.3333333,0,0,-1.3333333,0,591.14166)" />
    <text
       id="text48"
       xml:space="preserve"
       transform="matrix(1.3333333,0,0,1.3333333,27.829167,334.38619)"><tspan
         id="tspan48"
         style="font-variant:normal;font-weight:normal;font-size:10px;font-family:'DejaVu Sans';writing-mode:lr-tb;fill:#000000;fill-opacity:1;fill-rule:nonzero;stroke:none"
         x="0"
         y="0">0.4</tspan></text>
    <path
       id="path49"
       d="M 43.778125,235.1 H 438.89062"
       style="fill:none;stroke:#b0b0b0;stroke-width:0.8;stroke-linecap:square;stroke-linejoin:round;stroke-miterlimit:10;stroke-dasharray:none;stroke-opacity:1"
       transform="matrix(1.3333333,0,0,-1.3333333,0,591.14166)"
       clip-path="url(#clipPath50)" />
    <path
       id="path51"
       d="m 43.778125,235.1 h -3.5"
       style="fill:#000000;fill-opacity:1;fill-rule:nonzero;stroke:#000000;stroke-width:0.8;stroke-linecap:butt;stroke-linejoin:round;stroke-miterlimit:10;stroke-dasharray:none;stroke-opacity:1"
       transform="matrix(1.3333333,0,0,-1.3333333,0,591.14166)" />
    <text
       id="text51"
       xml:space="preserve"
       transform="matrix(1.3333333,0,0,1.3333333,27.829167,282.73749)"><tspan
         id="tspan51"
         style="font-variant:normal;font-weight:normal;font-size:10px;font-family:'DejaVu Sans';writing-mode:lr-tb;fill:#000000;fill-opacity:1;fill-rule:nonzero;stroke:none"
         x="0"
         y="0">0.5</tspan></text>
    <path
       id="path52"
       d="M 43.778125,273.83651 H 438.89062"
       style="fill:none;stroke:#b0b0b0;stroke-width:0.8;stroke-linecap:square;stroke-linejoin:round;stroke-miterlimit:10;stroke-dasharray:none;stroke-opacity:1"
       transform="matrix(1.3333333,0,0,-1.3333333,0,591.14166)"
       clip-path="url(#clipPath53)" />
    <path
       id="path54"
       d="m 43.778125,273.83651 h -3.5"
       style="fill:#000000;fill-opacity:1;fill-rule:nonzero;stroke:#000000;stroke-width:0.8;stroke-linecap:butt;stroke-linejoin:round;stroke-miterlimit:10;stroke-dasharray:none;stroke-opacity:1"
       transform="matrix(1.3333333,0,0,-1.3333333,0,591.14166)" />
    <text
       id="text54"
       xml:space="preserve"
       transform="matrix(1.3333333,0,0,1.3333333,27.829167,231.0888)"><tspan
         id="tspan54"
         style="font-variant:normal;font-weight:normal;font-size:10px;font-family:'DejaVu Sans';writing-mode:lr-tb;fill:#000000;fill-opacity:1;fill-rule:nonzero;stroke:none"
         x="0"
         y="0">0.6</tspan></text>
    <path
       id="path55"
       d="M 43.778125,312.57303 H 438.89062"
       style="fill:none;stroke:#b0b0b0;stroke-width:0.8;stroke-linecap:square;stroke-linejoin:round;stroke-miterlimit:10;stroke-dasharray:none;stroke-opacity:1"
       transform="matrix(1.3333333,0,0,-1.3333333,0,591.14166)"
       clip-path="url(#clipPath56)" />
    <path
       id="path57"
       d="m 43.778125,312.57303 h -3.5"
       style="fill:#000000;fill-opacity:1;fill-rule:nonzero;stroke:#000000;stroke-width:0.8;stroke-linecap:butt;stroke-linejoin:round;stroke-miterlimit:10;stroke-dasharray:none;stroke-opacity:1"
       transform="matrix(1.3333333,0,0,-1.3333333,0,591.14166)" />
    <text
       id="text57"
       xml:space="preserve"
       transform="matrix(1.3333333,0,0,1.3333333,27.829167,179.44011)"><tspan
         id="tspan57"
         style="font-variant:normal;font-weight:normal;font-size:10px;font-family:'DejaVu Sans';writing-mode:lr-tb;fill:#000000;fill-opacity:1;fill-rule:nonzero;stroke:none"
         x="0"
         y="0">0.7</tspan></text>
    <path
       id="path58"
       d="M 43.778125,351.30955 H 438.89062"
       style="fill:none;stroke:#b0b0b0;stroke-width:0.8;stroke-linecap:square;stroke-linejoin:round;stroke-miterlimit:10;stroke-dasharray:none;stroke-opacity:1"
       transform="matrix(1.3333333,0,0,-1.3333333,0,591.14166)"
       clip-path="url(#clipPath59)" />
    <path
       id="path60"
       d="m 43.778125,351.30955 h -3.5"
       style="fill:#000000;fill-opacity:1;fill-rule:nonzero;stroke:#000000;stroke-width:0.8;stroke-linecap:butt;stroke-linejoin:round;stroke-miterlimit:10;stroke-dasharray:none;stroke-opacity:1"
       transform="matrix(1.3333333,0,0,-1.3333333,0,591.14166)" />
    <text
       id="text60"
       xml:space="preserve"
       transform="matrix(1.3333333,0,0,1.3333333,27.829167,127.79142)"><tspan
         id="tspan60"
         style="font-variant:normal;font-weight:normal;font-size:10px;font-family:'DejaVu Sans';writing-mode:lr-tb;fill:#000000;fill-opacity:1;fill-rule:nonzero;stroke:none"
         x="0"
         y="0">0.8</tspan></text>
    <path
       id="path61"
       d="M 43.778125,390.04607 H 438.89062"
       style="fill:none;stroke:#b0b0b0;stroke-width:0.8;stroke-linecap:square;stroke-linejoin:round;stroke-miterlimit:10;stroke-dasharray:none;stroke-opacity:1"
       transform="matrix(1.3333333,0,0,-1.3333333,0,591.14166)"
       clip-path="url(#clipPath62)" />
    <path
       id="path63"
       d="m 43.778125,390.04607 h -3.5"
       style="fill:#000000;fill-opacity:1;fill-rule:nonzero;stroke:#000000;stroke-width:0.8;stroke-linecap:butt;stroke-linejoin:round;stroke-miterlimit:10;stroke-dasharray:none;stroke-opacity:1"
       transform="matrix(1.3333333,0,0,-1.3333333,0,591.14166)" />
    <text
       id="text63"
       xml:space="preserve"
       transform="matrix(1.3333333,0,0,1.3333333,27.829167,76.142728)"><tspan
         id="tspan63"
         style="font-variant:normal;font-weight:normal;font-size:10px;font-family:'DejaVu Sans';writing-mode:lr-tb;fill:#000000;fill-opacity:1;fill-rule:nonzero;stroke:none"
         x="0"
         y="0">0.9</tspan></text>
    <path
       id="path64"
       d="M 43.778125,428.78259 H 438.89062"
       style="fill:none;stroke:#b0b0b0;stroke-width:0.8;stroke-linecap:square;stroke-linejoin:round;stroke-miterlimit:10;stroke-dasharray:none;stroke-opacity:1"
       transform="matrix(1.3333333,0,0,-1.3333333,0,591.14166)"
       clip-path="url(#clipPath65)" />
    <path
       id="path66"
       d="m 43.778125,428.78259 h -3.5"
       style="fill:#000000;fill-opacity:1;fill-rule:nonzero;stroke:#000000;stroke-width:0.8;stroke-linecap:butt;stroke-linejoin:round;stroke-miterlimit:10;stroke-dasharray:none;stroke-opacity:1"
       transform="matrix(1.3333333,0,0,-1.3333333,0,591.14166)" />
    <text
       id="text66"
       xml:space="preserve"
       transform="matrix(1.3333333,0,0,1.3333333,27.829167,24.494036)"><tspan
         id="tspan66"
         style="font-variant:normal;font-weight:normal;font-size:10px;font-family:'DejaVu Sans';writing-mode:lr-tb;fill:#000000;fill-opacity:1;fill-rule:nonzero;stroke:none"
         x="0"
         y="0">1.0</tspan></text>
    <text
       id="text67"
       xml:space="preserve"
       transform="matrix(0,-1.3333333,1.3333333,0,19.725,338.45624)"><tspan
         id="tspan67"
         style="font-variant:normal;font-weight:normal;font-size:10px;font-family:'DejaVu Sans';writing-mode:lr-tb;fill:#000000;fill-opacity:1;fill-rule:nonzero;stroke:none"
         x="0"
         y="0">True Positive Rate</tspan></text>
    <path
       id="path67"
       d="M 47.651777,46.514312 V 286.0691 h 4.557237 v 20.38764 h 4.557238 v 15.29073 h 4.557237 v 20.38764 h 9.114475 v 5.09691 h 9.114475 v 30.58147 h 4.557238 v 10.19382 H 97.78139 v 5.09691 h 22.78619 v 5.09691 h 9.11447 v 5.09691 h 22.78619 v 5.09691 h 54.68685 v 5.09691 h 4.55724 v 5.09691 h 13.67171 v 5.09691 h 68.35856 v 5.09691 h 141.27436"
       style="fill:none;stroke:#1f77b4;stroke-width:1.5;stroke-linecap:square;stroke-linejoin:round;stroke-miterlimit:10;stroke-dasharray:none;stroke-opacity:0.8"
       transform="matrix(1.3333333,0,0,-1.3333333,0,591.14166)"
       clip-path="url(#clipPath68)" />
    <path
       id="path69"
       d="m 84.109677,386.00731 c 0.530406,0 1.03916,0.21073 1.414214,0.58578 0.375053,0.37506 0.585786,0.88381 0.585786,1.41422 0,0.5304 -0.210733,1.03916 -0.585786,1.41421 -0.375054,0.37505 -0.883808,0.58579 -1.414214,0.58579 -0.530406,0 -1.03916,-0.21074 -1.414214,-0.58579 -0.375053,-0.37505 -0.585786,-0.88381 -0.585786,-1.41421 0,-0.53041 0.210733,-1.03916 0.585786,-1.41422 0.375054,-0.37505 0.883808,-0.58578 1.414214,-0.58578 z"
       style="fill:#1f77b4;fill-opacity:0.8;fill-rule:nonzero;stroke:#1f77b4;stroke-width:1;stroke-linecap:butt;stroke-linejoin:round;stroke-miterlimit:10;stroke-dasharray:none;stroke-opacity:0.8"
       transform="matrix(1.3333333,0,0,-1.3333333,0,591.14166)"
       clip-path="url(#clipPath70)" />
    <path
       id="path71"
       d="M 47.651777,46.514312 V 168.84016 h 4.557237 v 5.09691 h 4.557238 v 5.09691 h 4.557237 v 66.25984 h 4.557238 v 20.38764 h 9.114475 v 25.48455 h 4.557237 v 30.58146 H 97.78139 v 15.29073 h 4.55724 v 15.29073 h 9.11447 v 5.09691 h 4.55724 v 20.38765 h 4.55724 v 10.19382 h 4.55723 v 5.09691 h 13.67172 v 10.19382 h 27.34342 v 5.09691 h 13.67171 v 10.19382 h 41.01514 v 10.19382 h 214.19016"
       style="fill:none;stroke:#ff7f0e;stroke-width:1.5;stroke-linecap:square;stroke-linejoin:round;stroke-miterlimit:10;stroke-dasharray:none;stroke-opacity:0.8"
       transform="matrix(1.3333333,0,0,-1.3333333,0,591.14166)"
       clip-path="url(#clipPath72)" />
    <path
       id="path73"
       d="m 116.01034,355.42584 c 0.53041,0 1.03916,0.21074 1.41421,0.58579 0.37506,0.37505 0.58579,0.88381 0.58579,1.41421 0,0.53041 -0.21073,1.03916 -0.58579,1.41422 -0.37505,0.37505 -0.8838,0.58578 -1.41421,0.58578 -0.53041,0 -1.03916,-0.21073 -1.41421,-0.58578 -0.37506,-0.37506 -0.58579,-0.88381 -0.58579,-1.41422 0,-0.5304 0.21073,-1.03916 0.58579,-1.41421 0.37505,-0.37505 0.8838,-0.58579 1.41421,-0.58579 z"
       style="fill:#ff7f0e;fill-opacity:0.8;fill-rule:nonzero;stroke:#ff7f0e;stroke-width:1;stroke-linecap:butt;stroke-linejoin:round;stroke-miterlimit:10;stroke-dasharray:none;stroke-opacity:0.8"
       transform="matrix(1.3333333,0,0,-1.3333333,0,591.14166)"
       clip-path="url(#clipPath74)" />
    <path
       id="path75"
       d="M 47.651777,46.514312 V 204.51853 h 4.557237 v 15.29073 h 4.557238 v 5.09691 h 9.114475 v 25.48456 h 4.557237 v 5.09691 h 9.114475 v 5.09691 h 4.557238 v 25.48455 h 4.557237 v 15.29073 h 18.228956 v 20.38764 h 4.55723 v 5.09691 h 4.55724 v 35.67838 h 4.55724 v 5.09691 h 4.55723 v 15.29073 h 9.11448 v 5.09691 h 4.55724 v 5.09691 h 4.55723 v 20.38764 h 27.34343 v 5.09691 h 9.11447 v 5.09691 h 86.58752 v 5.09691 h 168.61778"
       style="fill:none;stroke:#2ca02c;stroke-width:1.5;stroke-linecap:square;stroke-linejoin:round;stroke-miterlimit:10;stroke-dasharray:none;stroke-opacity:0.8"
       transform="matrix(1.3333333,0,0,-1.3333333,0,591.14166)"
       clip-path="url(#clipPath76)" />
    <path
       id="path77"
       d="m 116.01034,360.52276 c 0.53041,0 1.03916,0.21073 1.41421,0.58578 0.37506,0.37506 0.58579,0.88381 0.58579,1.41422 0,0.5304 -0.21073,1.03915 -0.58579,1.41421 -0.37505,0.37505 -0.8838,0.58579 -1.41421,0.58579 -0.53041,0 -1.03916,-0.21074 -1.41421,-0.58579 -0.37506,-0.37506 -0.58579,-0.88381 -0.58579,-1.41421 0,-0.53041 0.21073,-1.03916 0.58579,-1.41422 0.37505,-0.37505 0.8838,-0.58578 1.41421,-0.58578 z"
       style="fill:#2ca02c;fill-opacity:0.8;fill-rule:nonzero;stroke:#2ca02c;stroke-width:1;stroke-linecap:butt;stroke-linejoin:round;stroke-miterlimit:10;stroke-dasharray:none;stroke-opacity:0.8"
       transform="matrix(1.3333333,0,0,-1.3333333,0,591.14166)"
       clip-path="url(#clipPath78)" />
    <path
       id="path79"
       d="M 47.651777,41.417402 435.01696,428.78259"
       style="fill:none;stroke:#cc3311;stroke-width:2;stroke-linecap:butt;stroke-linejoin:round;stroke-miterlimit:10;stroke-dasharray:7.4, 3.2;stroke-dashoffset:0;stroke-opacity:0.8"
       transform="matrix(1.3333333,0,0,-1.3333333,0,591.14166)"
       clip-path="url(#clipPath80)" />
    <path
       id="path81"
       d="m 361.17187,42.54375 h 70.71875 c 1.33333,0 2,0.666667 2,2 v 57.6875 c 0,1.33333 -0.66667,2 -2,2 h -70.71875 c -1.33334,0 -2,-0.66667 -2,-2 v -57.6875 c 0,-1.333333 0.66666,-2 2,-2 z"
       style="fill:#ffffff;fill-opacity:0.8;fill-rule:nonzero;stroke:#cccccc;stroke-width:1;stroke-linecap:butt;stroke-linejoin:miter;stroke-miterlimit:10;stroke-dasharray:none;stroke-opacity:0.8"
       transform="matrix(1.3333333,0,0,-1.3333333,0,591.14166)" />
    <path
       id="path82"
       d="m 363.17187,96.1375 h 20"
       style="fill:none;stroke:#1f77b4;stroke-width:1.5;stroke-linecap:square;stroke-linejoin:round;stroke-miterlimit:10;stroke-dasharray:none;stroke-opacity:0.8"
       transform="matrix(1.3333333,0,0,-1.3333333,0,591.14166)" />
    <path
       id="path83"
       d="m 373.17187,94.1375 c 0.5304,0 1.03916,0.210733 1.41421,0.585786 0.37505,0.375054 0.58579,0.883808 0.58579,1.414214 0,0.530406 -0.21074,1.03916 -0.58579,1.414214 -0.37505,0.375053 -0.88381,0.585786 -1.41421,0.585786 -0.53041,0 -1.03916,-0.210733 -1.41422,-0.585786 -0.37505,-0.375054 -0.58578,-0.883808 -0.58578,-1.414214 0,-0.530406 0.21073,-1.03916 0.58578,-1.414214 0.37506,-0.375053 0.88381,-0.585786 1.41422,-0.585786 z"
       style="fill:#1f77b4;fill-opacity:0.8;fill-rule:nonzero;stroke:#1f77b4;stroke-width:1;stroke-linecap:butt;stroke-linejoin:round;stroke-miterlimit:10;stroke-dasharray:none;stroke-opacity:0.8"
       transform="matrix(1.3333333,0,0,-1.3333333,0,591.14166)" />
    <text
       id="text83"
       xml:space="preserve"
       transform="matrix(1.3333333,0,0,1.3333333,521.56249,467.62499)"><tspan
         id="tspan83"
         style="font-variant:normal;font-weight:normal;font-size:10px;font-family:'DejaVu Sans';writing-mode:lr-tb;fill:#000000;fill-opacity:1;fill-rule:nonzero;stroke:none"
         x="0"
         y="0">DES</tspan></text>
    <path
       id="path84"
       d="m 363.17187,81.465625 h 20"
       style="fill:none;stroke:#ff7f0e;stroke-width:1.5;stroke-linecap:square;stroke-linejoin:round;stroke-miterlimit:10;stroke-dasharray:none;stroke-opacity:0.8"
       transform="matrix(1.3333333,0,0,-1.3333333,0,591.14166)" />
    <path
       id="path85"
       d="m 373.17187,79.465625 c 0.5304,0 1.03916,0.210733 1.41421,0.585786 0.37505,0.375054 0.58579,0.883808 0.58579,1.414214 0,0.530406 -0.21074,1.03916 -0.58579,1.414214 -0.37505,0.375053 -0.88381,0.585786 -1.41421,0.585786 -0.53041,0 -1.03916,-0.210733 -1.41422,-0.585786 -0.37505,-0.375054 -0.58578,-0.883808 -0.58578,-1.414214 0,-0.530406 0.21073,-1.03916 0.58578,-1.414214 0.37506,-0.375053 0.88381,-0.585786 1.41422,-0.585786 z"
       style="fill:#ff7f0e;fill-opacity:0.8;fill-rule:nonzero;stroke:#ff7f0e;stroke-width:1;stroke-linecap:butt;stroke-linejoin:round;stroke-miterlimit:10;stroke-dasharray:none;stroke-opacity:0.8"
       transform="matrix(1.3333333,0,0,-1.3333333,0,591.14166)" />
    <text
       id="text85"
       xml:space="preserve"
       transform="matrix(1.3333333,0,0,1.3333333,521.56249,487.18749)"><tspan
         id="tspan85"
         style="font-variant:normal;font-weight:normal;font-size:10px;font-family:'DejaVu Sans';writing-mode:lr-tb;fill:#000000;fill-opacity:1;fill-rule:nonzero;stroke:none"
         x="0"
         y="0">CMA-ES</tspan></text>
    <path
       id="path86"
       d="m 363.17187,66.79375 h 20"
       style="fill:none;stroke:#2ca02c;stroke-width:1.5;stroke-linecap:square;stroke-linejoin:round;stroke-miterlimit:10;stroke-dasharray:none;stroke-opacity:0.8"
       transform="matrix(1.3333333,0,0,-1.3333333,0,591.14166)" />
    <path
       id="path87"
       d="m 373.17187,64.79375 c 0.5304,0 1.03916,0.210733 1.41421,0.585786 0.37505,0.375054 0.58579,0.883808 0.58579,1.414214 0,0.530406 -0.21074,1.03916 -0.58579,1.414214 -0.37505,0.375053 -0.88381,0.585786 -1.41421,0.585786 -0.53041,0 -1.03916,-0.210733 -1.41422,-0.585786 -0.37505,-0.375054 -0.58578,-0.883808 -0.58578,-1.414214 0,-0.530406 0.21073,-1.03916 0.58578,-1.414214 0.37506,-0.375053 0.88381,-0.585786 1.41422,-0.585786 z"
       style="fill:#2ca02c;fill-opacity:0.8;fill-rule:nonzero;stroke:#2ca02c;stroke-width:1;stroke-linecap:butt;stroke-linejoin:round;stroke-miterlimit:10;stroke-dasharray:none;stroke-opacity:0.8"
       transform="matrix(1.3333333,0,0,-1.3333333,0,591.14166)" />
    <text
       id="text87"
       xml:space="preserve"
       transform="matrix(1.3333333,0,0,1.3333333,521.56249,506.74999)"><tspan
         id="tspan87"
         style="font-variant:normal;font-weight:normal;font-size:10px;font-family:'DejaVu Sans';writing-mode:lr-tb;fill:#000000;fill-opacity:1;fill-rule:nonzero;stroke:none"
         x="0"
         y="0">jSO</tspan></text>
    <path
       id="path88"
       d="m 363.17187,52.121875 h 20"
       style="fill:none;stroke:#cc3311;stroke-width:2;stroke-linecap:butt;stroke-linejoin:round;stroke-miterlimit:10;stroke-dasharray:7.4, 3.2;stroke-dashoffset:0;stroke-opacity:0.8"
       transform="matrix(1.3333333,0,0,-1.3333333,0,591.14166)" />
    <text
       id="text88"
       xml:space="preserve"
       transform="matrix(1.3333333,0,0,1.3333333,521.56249,526.31249)"><tspan
         id="tspan88"
         style="font-variant:normal;font-weight:normal;font-size:10px;font-family:'DejaVu Sans';writing-mode:lr-tb;fill:#000000;fill-opacity:1;fill-rule:nonzero;stroke:none"
         x="0"
         y="0">Luck</tspan></text>
  </g>
</svg>
