<svg xmlns="http://www.w3.org/2000/svg" width="600.227" height="591.142" viewBox="0 0 600.227 591.142"><defs><clipPath id="a" clipPathUnits="userSpaceOnUse"><path d="M43.778 37.544h395.113v395.112H43.778Z"/></clipPath><clipPath id="b" clipPathUnits="userSpaceOnUse"><path d="M43.778 37.544h395.113v395.112H43.778Z"/></clipPath><clipPath id="c" clipPathUnits="userSpaceOnUse"><path d="M43.778 37.544h395.113v395.112H43.778Z"/></clipPath><clipPath id="d" clipPathUnits="userSpaceOnUse"><path d="M43.778 37.544h395.113v395.112H43.778Z"/></clipPath><clipPath id="e" clipPathUnits="userSpaceOnUse"><path d="M43.778 37.544h395.113v395.112H43.778Z"/></clipPath><clipPath id="f" clipPathUnits="userSpaceOnUse"><path d="M43.778 37.544h395.113v395.112H43.778Z"/></clipPath><clipPath id="g" clipPathUnits="userSpaceOnUse"><path d="M43.778 37.544h395.113v395.112H43.778Z"/></clipPath><clipPath id="h" clipPathUnits="userSpaceOnUse"><path d="M43.778 37.544h395.113v395.112H43.778Z"/></clipPath><clipPath id="i" clipPathUnits="userSpaceOnUse"><path d="M43.778 37.544h395.113v395.112H43.778Z"/></clipPath><clipPath id="j" clipPathUnits="userSpaceOnUse"><path d="M43.778 37.544h395.113v395.112H43.778Z"/></clipPath><clipPath id="k" clipPathUnits="userSpaceOnUse"><path d="M43.778 37.544h395.113v395.112H43.778Z"/></clipPath><clipPath id="l" clipPathUnits="userSpaceOnUse"><path d="M43.778 37.544h395.113v395.112H43.778Z"/></clipPath><clipPath id="m" clipPathUnits="userSpaceOnUse"><path d="M43.778 37.544h395.113v395.112H43.778Z"/></clipPath><clipPath id="n" clipPathUnits="userSpaceOnUse"><path d="M43.778 37.544h395.113v395.112H43.778Z"/></clipPath><clipPath id="o" clipPathUnits="userSpaceOnUse"><path d="M43.778 37.544h395.113v395.112H43.778Z"/></clipPath><clipPath id="p" clipPathUnits="userSpaceOnUse"><path d="M43.778 37.544h395.113v395.112H43.778Z"/></clipPath><clipPath id="q" clipPathUnits="userSpaceOnUse"><path d="M43.778 37.544h395.113v395.112H43.778Z"/></clipPath><clipPath id="r" clipPathUnits="userSpaceOnUse"><path d="M43.778 37.544h395.113v395.112H43.778Z"/></clipPath><clipPath id="s" clipPathUnits="userSpaceOnUse"><path d="M43.778 37.544h395.113v395.112H43.778Z"/></clipPath><clipPath id="t" clipPathUnits="userSpaceOnUse"><path d="M43.778 37.544h395.113v395.112H43.778Z"/></clipPath><clipPath id="u" clipPathUnits="userSpaceOnUse"><path d="M43.778 37.544h395.113v395.112H43.778Z"/></clipPath><clipPath id="v" clipPathUnits="userSpaceOnUse"><path d="M43.778 37.544h395.113v395.112H43.778Z"/></clipPath><clipPath id="w" clipPathUnits="userSpaceOnUse"><path d="M43.778 37.544h395.113v395.112H43.778Z"/></clipPath><clipPath id="x" clipPathUnits="userSpaceOnUse"><path d="M43.778 37.544h395.113v395.112H43.778Z"/></clipPath><clipPath id="y" clipPathUnits="userSpaceOnUse"><path d="M43.778 37.544h395.113v395.112H43.778Z"/></clipPath><clipPath id="z" clipPathUnits="userSpaceOnUse"><path d="M43.778 37.544h395.113v395.112H43.778Z"/></clipPath><clipPath id="A" clipPathUnits="userSpaceOnUse"><path d="M43.778 37.544h395.113v395.112H43.778Z"/></clipPath><clipPath id="B" clipPathUnits="userSpaceOnUse"><path d="M43.778 37.544h395.113v395.112H43.778Z"/></clipPath><clipPath id="C" clipPathUnits="userSpaceOnUse"><path d="M43.778 37.544h395.113v395.112H43.778Z"/></clipPath></defs><path d="M47.652 37.544v395.112" clip-path="url(#a)" style="fill:none;stroke:#b0b0b0;stroke-width:.8;stroke-linecap:square;stroke-linejoin:round;stroke-miterlimit:10;stroke-dasharray:none;stroke-opacity:1" transform="matrix(1.33333 0 0 -1.33333 0 591.142)"/><path d="M47.652 37.544v-3.5" style="fill:#000;fill-opacity:1;fill-rule:nonzero;stroke:#000;stroke-width:.8;stroke-linecap:butt;stroke-linejoin:round;stroke-miterlimit:10;stroke-dasharray:none;stroke-opacity:1" transform="matrix(1.33333 0 0 -1.33333 0 591.142)"/><text xml:space="preserve" transform="translate(52.932 560.542)scale(1.33333)"><tspan x="0" y="0" style="font-variant:normal;font-weight:400;font-size:10px;font-family:&quot;DejaVu Sans&quot;;writing-mode:lr-tb;fill:#000;fill-opacity:1;fill-rule:nonzero;stroke:none">0.0</tspan></text><path d="M86.388 37.544v395.112" clip-path="url(#b)" style="fill:none;stroke:#b0b0b0;stroke-width:.8;stroke-linecap:square;stroke-linejoin:round;stroke-miterlimit:10;stroke-dasharray:none;stroke-opacity:1" transform="matrix(1.33333 0 0 -1.33333 0 591.142)"/><path d="M86.388 37.544v-3.5" style="fill:#000;fill-opacity:1;fill-rule:nonzero;stroke:#000;stroke-width:.8;stroke-linecap:butt;stroke-linejoin:round;stroke-miterlimit:10;stroke-dasharray:none;stroke-opacity:1" transform="matrix(1.33333 0 0 -1.33333 0 591.142)"/><text xml:space="preserve" transform="translate(104.58 560.542)scale(1.33333)"><tspan x="0" y="0" style="font-variant:normal;font-weight:400;font-size:10px;font-family:&quot;DejaVu Sans&quot;;writing-mode:lr-tb;fill:#000;fill-opacity:1;fill-rule:nonzero;stroke:none">0.1</tspan></text><path d="M125.125 37.544v395.112" clip-path="url(#c)" style="fill:none;stroke:#b0b0b0;stroke-width:.8;stroke-linecap:square;stroke-linejoin:round;stroke-miterlimit:10;stroke-dasharray:none;stroke-opacity:1" transform="matrix(1.33333 0 0 -1.33333 0 591.142)"/><path d="M125.125 37.544v-3.5" style="fill:#000;fill-opacity:1;fill-rule:nonzero;stroke:#000;stroke-width:.8;stroke-linecap:butt;stroke-linejoin:round;stroke-miterlimit:10;stroke-dasharray:none;stroke-opacity:1" transform="matrix(1.33333 0 0 -1.33333 0 591.142)"/><text xml:space="preserve" transform="translate(156.229 560.542)scale(1.33333)"><tspan x="0" y="0" style="font-variant:normal;font-weight:400;font-size:10px;font-family:&quot;DejaVu Sans&quot;;writing-mode:lr-tb;fill:#000;fill-opacity:1;fill-rule:nonzero;stroke:none">0.2</tspan></text><path d="M163.861 37.544v395.112" clip-path="url(#d)" style="fill:none;stroke:#b0b0b0;stroke-width:.8;stroke-linecap:square;stroke-linejoin:round;stroke-miterlimit:10;stroke-dasharray:none;stroke-opacity:1" transform="matrix(1.33333 0 0 -1.33333 0 591.142)"/><path d="M163.861 37.544v-3.5" style="fill:#000;fill-opacity:1;fill-rule:nonzero;stroke:#000;stroke-width:.8;stroke-linecap:butt;stroke-linejoin:round;stroke-miterlimit:10;stroke-dasharray:none;stroke-opacity:1" transform="matrix(1.33333 0 0 -1.33333 0 591.142)"/><text xml:space="preserve" transform="translate(207.878 560.542)scale(1.33333)"><tspan x="0" y="0" style="font-variant:normal;font-weight:400;font-size:10px;font-family:&quot;DejaVu Sans&quot;;writing-mode:lr-tb;fill:#000;fill-opacity:1;fill-rule:nonzero;stroke:none">0.3</tspan></text><path d="M202.598 37.544v395.112" clip-path="url(#e)" style="fill:none;stroke:#b0b0b0;stroke-width:.8;stroke-linecap:square;stroke-linejoin:round;stroke-miterlimit:10;stroke-dasharray:none;stroke-opacity:1" transform="matrix(1.33333 0 0 -1.33333 0 591.142)"/><path d="M202.598 37.544v-3.5" style="fill:#000;fill-opacity:1;fill-rule:nonzero;stroke:#000;stroke-width:.8;stroke-linecap:butt;stroke-linejoin:round;stroke-miterlimit:10;stroke-dasharray:none;stroke-opacity:1" transform="matrix(1.33333 0 0 -1.33333 0 591.142)"/><text xml:space="preserve" transform="translate(259.526 560.542)scale(1.33333)"><tspan x="0" y="0" style="font-variant:normal;font-weight:400;font-size:10px;font-family:&quot;DejaVu Sans&quot;;writing-mode:lr-tb;fill:#000;fill-opacity:1;fill-rule:nonzero;stroke:none">0.4</tspan></text><path d="M241.334 37.544v395.112" clip-path="url(#f)" style="fill:none;stroke:#b0b0b0;stroke-width:.8;stroke-linecap:square;stroke-linejoin:round;stroke-miterlimit:10;stroke-dasharray:none;stroke-opacity:1" transform="matrix(1.33333 0 0 -1.33333 0 591.142)"/><path d="M241.334 37.544v-3.5" style="fill:#000;fill-opacity:1;fill-rule:nonzero;stroke:#000;stroke-width:.8;stroke-linecap:butt;stroke-linejoin:round;stroke-miterlimit:10;stroke-dasharray:none;stroke-opacity:1" transform="matrix(1.33333 0 0 -1.33333 0 591.142)"/><text xml:space="preserve" transform="translate(311.175 560.542)scale(1.33333)"><tspan x="0" y="0" style="font-variant:normal;font-weight:400;font-size:10px;font-family:&quot;DejaVu Sans&quot;;writing-mode:lr-tb;fill:#000;fill-opacity:1;fill-rule:nonzero;stroke:none">0.5</tspan></text><path d="M280.07 37.544v395.112" clip-path="url(#g)" style="fill:none;stroke:#b0b0b0;stroke-width:.8;stroke-linecap:square;stroke-linejoin:round;stroke-miterlimit:10;stroke-dasharray:none;stroke-opacity:1" transform="matrix(1.33333 0 0 -1.33333 0 591.142)"/><path d="M280.07 37.544v-3.5" style="fill:#000;fill-opacity:1;fill-rule:nonzero;stroke:#000;stroke-width:.8;stroke-linecap:butt;stroke-linejoin:round;stroke-miterlimit:10;stroke-dasharray:none;stroke-opacity:1" transform="matrix(1.33333 0 0 -1.33333 0 591.142)"/><text xml:space="preserve" transform="translate(362.824 560.542)scale(1.33333)"><tspan x="0" y="0" style="font-variant:normal;font-weight:400;font-size:10px;font-family:&quot;DejaVu Sans&quot;;writing-mode:lr-tb;fill:#000;fill-opacity:1;fill-rule:nonzero;stroke:none">0.6</tspan></text><path d="M318.807 37.544v395.112" clip-path="url(#h)" style="fill:none;stroke:#b0b0b0;stroke-width:.8;stroke-linecap:square;stroke-linejoin:round;stroke-miterlimit:10;stroke-dasharray:none;stroke-opacity:1" transform="matrix(1.33333 0 0 -1.33333 0 591.142)"/><path d="M318.807 37.544v-3.5" style="fill:#000;fill-opacity:1;fill-rule:nonzero;stroke:#000;stroke-width:.8;stroke-linecap:butt;stroke-linejoin:round;stroke-miterlimit:10;stroke-dasharray:none;stroke-opacity:1" transform="matrix(1.33333 0 0 -1.33333 0 591.142)"/><text xml:space="preserve" transform="translate(414.472 560.542)scale(1.33333)"><tspan x="0" y="0" style="font-variant:normal;font-weight:400;font-size:10px;font-family:&quot;DejaVu Sans&quot;;writing-mode:lr-tb;fill:#000;fill-opacity:1;fill-rule:nonzero;stroke:none">0.7</tspan></text><path d="M357.544 37.544v395.112" clip-path="url(#i)" style="fill:none;stroke:#b0b0b0;stroke-width:.8;stroke-linecap:square;stroke-linejoin:round;stroke-miterlimit:10;stroke-dasharray:none;stroke-opacity:1" transform="matrix(1.33333 0 0 -1.33333 0 591.142)"/><path d="M357.544 37.544v-3.5" style="fill:#000;fill-opacity:1;fill-rule:nonzero;stroke:#000;stroke-width:.8;stroke-linecap:butt;stroke-linejoin:round;stroke-miterlimit:10;stroke-dasharray:none;stroke-opacity:1" transform="matrix(1.33333 0 0 -1.33333 0 591.142)"/><text xml:space="preserve" transform="translate(466.121 560.542)scale(1.33333)"><tspan x="0" y="0" style="font-variant:normal;font-weight:400;font-size:10px;font-family:&quot;DejaVu Sans&quot;;writing-mode:lr-tb;fill:#000;fill-opacity:1;fill-rule:nonzero;stroke:none">0.8</tspan></text><path d="M396.28 37.544v395.112" clip-path="url(#j)" style="fill:none;stroke:#b0b0b0;stroke-width:.8;stroke-linecap:square;stroke-linejoin:round;stroke-miterlimit:10;stroke-dasharray:none;stroke-opacity:1" transform="matrix(1.33333 0 0 -1.33333 0 591.142)"/><path d="M396.28 37.544v-3.5" style="fill:#000;fill-opacity:1;fill-rule:nonzero;stroke:#000;stroke-width:.8;stroke-linecap:butt;stroke-linejoin:round;stroke-miterlimit:10;stroke-dasharray:none;stroke-opacity:1" transform="matrix(1.33333 0 0 -1.33333 0 591.142)"/><text xml:space="preserve" transform="translate(517.77 560.542)scale(1.33333)"><tspan x="0" y="0" style="font-variant:normal;font-weight:400;font-size:10px;font-family:&quot;DejaVu Sans&quot;;writing-mode:lr-tb;fill:#000;fill-opacity:1;fill-rule:nonzero;stroke:none">0.9</tspan></text><path d="M435.017 37.544v395.112" clip-path="url(#k)" style="fill:none;stroke:#b0b0b0;stroke-width:.8;stroke-linecap:square;stroke-linejoin:round;stroke-miterlimit:10;stroke-dasharray:none;stroke-opacity:1" transform="matrix(1.33333 0 0 -1.33333 0 591.142)"/><path d="M435.017 37.544v-3.5" style="fill:#000;fill-opacity:1;fill-rule:nonzero;stroke:#000;stroke-width:.8;stroke-linecap:butt;stroke-linejoin:round;stroke-miterlimit:10;stroke-dasharray:none;stroke-opacity:1" transform="matrix(1.33333 0 0 -1.33333 0 591.142)"/><text xml:space="preserve" transform="translate(569.418 560.542)scale(1.33333)"><tspan x="0" y="0" style="font-variant:normal;font-weight:400;font-size:10px;font-family:&quot;DejaVu Sans&quot;;writing-mode:lr-tb;fill:#000;fill-opacity:1;fill-rule:nonzero;stroke:none">1.0</tspan></text><text xml:space="preserve" transform="translate(258.78 578.77)scale(1.33333)"><tspan x="0" y="0" style="font-variant:normal;font-weight:400;font-size:10px;font-family:&quot;DejaVu Sans&quot;;writing-mode:lr-tb;fill:#000;fill-opacity:1;fill-rule:nonzero;stroke:none">False Positive Rate</tspan></text><path d="M43.778 41.417h395.113" clip-path="url(#l)" style="fill:none;stroke:#b0b0b0;stroke-width:.8;stroke-linecap:square;stroke-linejoin:round;stroke-miterlimit:10;stroke-dasharray:none;stroke-opacity:1" transform="matrix(1.33333 0 0 -1.33333 0 591.142)"/><path d="M43.778 41.417h-3.5" style="fill:#000;fill-opacity:1;fill-rule:nonzero;stroke:#000;stroke-width:.8;stroke-linecap:butt;stroke-linejoin:round;stroke-miterlimit:10;stroke-dasharray:none;stroke-opacity:1" transform="matrix(1.33333 0 0 -1.33333 0 591.142)"/><text xml:space="preserve" transform="translate(27.83 540.98)scale(1.33333)"><tspan x="0" y="0" style="font-variant:normal;font-weight:400;font-size:10px;font-family:&quot;DejaVu Sans&quot;;writing-mode:lr-tb;fill:#000;fill-opacity:1;fill-rule:nonzero;stroke:none">0.0</tspan></text><path d="M43.778 80.154h395.113" clip-path="url(#m)" style="fill:none;stroke:#b0b0b0;stroke-width:.8;stroke-linecap:square;stroke-linejoin:round;stroke-miterlimit:10;stroke-dasharray:none;stroke-opacity:1" transform="matrix(1.33333 0 0 -1.33333 0 591.142)"/><path d="M43.778 80.154h-3.5" style="fill:#000;fill-opacity:1;fill-rule:nonzero;stroke:#000;stroke-width:.8;stroke-linecap:butt;stroke-linejoin:round;stroke-miterlimit:10;stroke-dasharray:none;stroke-opacity:1" transform="matrix(1.33333 0 0 -1.33333 0 591.142)"/><text xml:space="preserve" transform="translate(27.83 489.332)scale(1.33333)"><tspan x="0" y="0" style="font-variant:normal;font-weight:400;font-size:10px;font-family:&quot;DejaVu Sans&quot;;writing-mode:lr-tb;fill:#000;fill-opacity:1;fill-rule:nonzero;stroke:none">0.1</tspan></text><path d="M43.778 118.89h395.113" clip-path="url(#n)" style="fill:none;stroke:#b0b0b0;stroke-width:.8;stroke-linecap:square;stroke-linejoin:round;stroke-miterlimit:10;stroke-dasharray:none;stroke-opacity:1" transform="matrix(1.33333 0 0 -1.33333 0 591.142)"/><path d="M43.778 118.89h-3.5" style="fill:#000;fill-opacity:1;fill-rule:nonzero;stroke:#000;stroke-width:.8;stroke-linecap:butt;stroke-linejoin:round;stroke-miterlimit:10;stroke-dasharray:none;stroke-opacity:1" transform="matrix(1.33333 0 0 -1.33333 0 591.142)"/><text xml:space="preserve" transform="translate(27.83 437.684)scale(1.33333)"><tspan x="0" y="0" style="font-variant:normal;font-weight:400;font-size:10px;font-family:&quot;DejaVu Sans&quot;;writing-mode:lr-tb;fill:#000;fill-opacity:1;fill-rule:nonzero;stroke:none">0.2</tspan></text><path d="M43.778 157.627h395.113" clip-path="url(#o)" style="fill:none;stroke:#b0b0b0;stroke-width:.8;stroke-linecap:square;stroke-linejoin:round;stroke-miterlimit:10;stroke-dasharray:none;stroke-opacity:1" transform="matrix(1.33333 0 0 -1.33333 0 591.142)"/><path d="M43.778 157.627h-3.5" style="fill:#000;fill-opacity:1;fill-rule:nonzero;stroke:#000;stroke-width:.8;stroke-linecap:butt;stroke-linejoin:round;stroke-miterlimit:10;stroke-dasharray:none;stroke-opacity:1" transform="matrix(1.33333 0 0 -1.33333 0 591.142)"/><text xml:space="preserve" transform="translate(27.83 386.035)scale(1.33333)"><tspan x="0" y="0" style="font-variant:normal;font-weight:400;font-size:10px;font-family:&quot;DejaVu Sans&quot;;writing-mode:lr-tb;fill:#000;fill-opacity:1;fill-rule:nonzero;stroke:none">0.3</tspan></text><path d="M43.778 196.363h395.113" clip-path="url(#p)" style="fill:none;stroke:#b0b0b0;stroke-width:.8;stroke-linecap:square;stroke-linejoin:round;stroke-miterlimit:10;stroke-dasharray:none;stroke-opacity:1" transform="matrix(1.33333 0 0 -1.33333 0 591.142)"/><path d="M43.778 196.363h-3.5" style="fill:#000;fill-opacity:1;fill-rule:nonzero;stroke:#000;stroke-width:.8;stroke-linecap:butt;stroke-linejoin:round;stroke-miterlimit:10;stroke-dasharray:none;stroke-opacity:1" transform="matrix(1.33333 0 0 -1.33333 0 591.142)"/><text xml:space="preserve" transform="translate(27.83 334.386)scale(1.33333)"><tspan x="0" y="0" style="font-variant:normal;font-weight:400;font-size:10px;font-family:&quot;DejaVu Sans&quot;;writing-mode:lr-tb;fill:#000;fill-opacity:1;fill-rule:nonzero;stroke:none">0.4</tspan></text><path d="M43.778 235.1h395.113" clip-path="url(#q)" style="fill:none;stroke:#b0b0b0;stroke-width:.8;stroke-linecap:square;stroke-linejoin:round;stroke-miterlimit:10;stroke-dasharray:none;stroke-opacity:1" transform="matrix(1.33333 0 0 -1.33333 0 591.142)"/><path d="M43.778 235.1h-3.5" style="fill:#000;fill-opacity:1;fill-rule:nonzero;stroke:#000;stroke-width:.8;stroke-linecap:butt;stroke-linejoin:round;stroke-miterlimit:10;stroke-dasharray:none;stroke-opacity:1" transform="matrix(1.33333 0 0 -1.33333 0 591.142)"/><text xml:space="preserve" transform="translate(27.83 282.737)scale(1.33333)"><tspan x="0" y="0" style="font-variant:normal;font-weight:400;font-size:10px;font-family:&quot;DejaVu Sans&quot;;writing-mode:lr-tb;fill:#000;fill-opacity:1;fill-rule:nonzero;stroke:none">0.5</tspan></text><path d="M43.778 273.837h395.113" clip-path="url(#r)" style="fill:none;stroke:#b0b0b0;stroke-width:.8;stroke-linecap:square;stroke-linejoin:round;stroke-miterlimit:10;stroke-dasharray:none;stroke-opacity:1" transform="matrix(1.33333 0 0 -1.33333 0 591.142)"/><path d="M43.778 273.837h-3.5" style="fill:#000;fill-opacity:1;fill-rule:nonzero;stroke:#000;stroke-width:.8;stroke-linecap:butt;stroke-linejoin:round;stroke-miterlimit:10;stroke-dasharray:none;stroke-opacity:1" transform="matrix(1.33333 0 0 -1.33333 0 591.142)"/><text xml:space="preserve" transform="translate(27.83 231.089)scale(1.33333)"><tspan x="0" y="0" style="font-variant:normal;font-weight:400;font-size:10px;font-family:&quot;DejaVu Sans&quot;;writing-mode:lr-tb;fill:#000;fill-opacity:1;fill-rule:nonzero;stroke:none">0.6</tspan></text><path d="M43.778 312.573h395.113" clip-path="url(#s)" style="fill:none;stroke:#b0b0b0;stroke-width:.8;stroke-linecap:square;stroke-linejoin:round;stroke-miterlimit:10;stroke-dasharray:none;stroke-opacity:1" transform="matrix(1.33333 0 0 -1.33333 0 591.142)"/><path d="M43.778 312.573h-3.5" style="fill:#000;fill-opacity:1;fill-rule:nonzero;stroke:#000;stroke-width:.8;stroke-linecap:butt;stroke-linejoin:round;stroke-miterlimit:10;stroke-dasharray:none;stroke-opacity:1" transform="matrix(1.33333 0 0 -1.33333 0 591.142)"/><text xml:space="preserve" transform="translate(27.83 179.44)scale(1.33333)"><tspan x="0" y="0" style="font-variant:normal;font-weight:400;font-size:10px;font-family:&quot;DejaVu Sans&quot;;writing-mode:lr-tb;fill:#000;fill-opacity:1;fill-rule:nonzero;stroke:none">0.7</tspan></text><path d="M43.778 351.31h395.113" clip-path="url(#t)" style="fill:none;stroke:#b0b0b0;stroke-width:.8;stroke-linecap:square;stroke-linejoin:round;stroke-miterlimit:10;stroke-dasharray:none;stroke-opacity:1" transform="matrix(1.33333 0 0 -1.33333 0 591.142)"/><path d="M43.778 351.31h-3.5" style="fill:#000;fill-opacity:1;fill-rule:nonzero;stroke:#000;stroke-width:.8;stroke-linecap:butt;stroke-linejoin:round;stroke-miterlimit:10;stroke-dasharray:none;stroke-opacity:1" transform="matrix(1.33333 0 0 -1.33333 0 591.142)"/><text xml:space="preserve" transform="translate(27.83 127.791)scale(1.33333)"><tspan x="0" y="0" style="font-variant:normal;font-weight:400;font-size:10px;font-family:&quot;DejaVu Sans&quot;;writing-mode:lr-tb;fill:#000;fill-opacity:1;fill-rule:nonzero;stroke:none">0.8</tspan></text><path d="M43.778 390.046h395.113" clip-path="url(#u)" style="fill:none;stroke:#b0b0b0;stroke-width:.8;stroke-linecap:square;stroke-linejoin:round;stroke-miterlimit:10;stroke-dasharray:none;stroke-opacity:1" transform="matrix(1.33333 0 0 -1.33333 0 591.142)"/><path d="M43.778 390.046h-3.5" style="fill:#000;fill-opacity:1;fill-rule:nonzero;stroke:#000;stroke-width:.8;stroke-linecap:butt;stroke-linejoin:round;stroke-miterlimit:10;stroke-dasharray:none;stroke-opacity:1" transform="matrix(1.33333 0 0 -1.33333 0 591.142)"/><text xml:space="preserve" transform="translate(27.83 76.143)scale(1.33333)"><tspan x="0" y="0" style="font-variant:normal;font-weight:400;font-size:10px;font-family:&quot;DejaVu Sans&quot;;writing-mode:lr-tb;fill:#000;fill-opacity:1;fill-rule:nonzero;stroke:none">0.9</tspan></text><path d="M43.778 428.783h395.113" clip-path="url(#v)" style="fill:none;stroke:#b0b0b0;stroke-width:.8;stroke-linecap:square;stroke-linejoin:round;stroke-miterlimit:10;stroke-dasharray:none;stroke-opacity:1" transform="matrix(1.33333 0 0 -1.33333 0 591.142)"/><path d="M43.778 428.783h-3.5" style="fill:#000;fill-opacity:1;fill-rule:nonzero;stroke:#000;stroke-width:.8;stroke-linecap:butt;stroke-linejoin:round;stroke-miterlimit:10;stroke-dasharray:none;stroke-opacity:1" transform="matrix(1.33333 0 0 -1.33333 0 591.142)"/><text xml:space="preserve" transform="translate(27.83 24.494)scale(1.33333)"><tspan x="0" y="0" style="font-variant:normal;font-weight:400;font-size:10px;font-family:&quot;DejaVu Sans&quot;;writing-mode:lr-tb;fill:#000;fill-opacity:1;fill-rule:nonzero;stroke:none">1.0</tspan></text><text xml:space="preserve" transform="rotate(-90 179.09 159.366)scale(1.33333)"><tspan x="0" y="0" style="font-variant:normal;font-weight:400;font-size:10px;font-family:&quot;DejaVu Sans&quot;;writing-mode:lr-tb;fill:#000;fill-opacity:1;fill-rule:nonzero;stroke:none">True Positive Rate</tspan></text><path d="M47.652 46.514V286.07h4.557v20.388h4.557v15.29h4.557v20.388h9.115v5.097h9.114v30.581h4.558v10.194H97.78v5.097h22.787v5.097h9.114v5.097h22.786v5.097h54.687v5.097h4.557v5.097h13.672v5.097h68.359v5.097h141.274" clip-path="url(#w)" style="fill:none;stroke:#1f77b4;stroke-width:1.5;stroke-linecap:square;stroke-linejoin:round;stroke-miterlimit:10;stroke-dasharray:none;stroke-opacity:.8" transform="matrix(1.33333 0 0 -1.33333 0 591.142)"/><path d="M84.11 386.007a2 2 0 1 1 0 4 2 2 0 0 1 0-4z" clip-path="url(#x)" style="fill:#1f77b4;fill-opacity:.8;fill-rule:nonzero;stroke:#1f77b4;stroke-width:1;stroke-linecap:butt;stroke-linejoin:round;stroke-miterlimit:10;stroke-dasharray:none;stroke-opacity:.8" transform="matrix(1.33333 0 0 -1.33333 0 591.142)"/><path d="M47.652 46.514V168.84h4.557v5.097h4.557v5.097h4.557v66.26h4.558v20.387h9.114v25.485h4.557v30.581h18.23v15.291h4.557v15.29h9.114v5.098h4.557v20.387h4.558v10.194h4.557v5.097h13.672v10.194h27.343v5.097h13.672v10.194h41.015v10.194h214.19" clip-path="url(#y)" style="fill:none;stroke:#ff7f0e;stroke-width:1.5;stroke-linecap:square;stroke-linejoin:round;stroke-miterlimit:10;stroke-dasharray:none;stroke-opacity:.8" transform="matrix(1.33333 0 0 -1.33333 0 591.142)"/><path d="M116.01 355.426a2 2 0 1 1 0 4 2 2 0 0 1 0-4z" clip-path="url(#z)" style="fill:#ff7f0e;fill-opacity:.8;fill-rule:nonzero;stroke:#ff7f0e;stroke-width:1;stroke-linecap:butt;stroke-linejoin:round;stroke-miterlimit:10;stroke-dasharray:none;stroke-opacity:.8" transform="matrix(1.33333 0 0 -1.33333 0 591.142)"/><path d="M47.652 46.514V204.52h4.557v15.29h4.557v5.097h9.115v25.485h4.557v5.097h9.114v5.097h4.558v25.484h4.557v15.29h18.229v20.388h4.557v5.097h4.557v35.679h4.558v5.097h4.557v15.29h9.114v5.097h4.558v5.097h4.557v20.388h27.343v5.097h9.115v5.097h86.587v5.097h168.618" clip-path="url(#A)" style="fill:none;stroke:#2ca02c;stroke-width:1.5;stroke-linecap:square;stroke-linejoin:round;stroke-miterlimit:10;stroke-dasharray:none;stroke-opacity:.8" transform="matrix(1.33333 0 0 -1.33333 0 591.142)"/><path d="M116.01 360.523a2 2 0 1 1 0 4 2 2 0 0 1 0-4z" clip-path="url(#B)" style="fill:#2ca02c;fill-opacity:.8;fill-rule:nonzero;stroke:#2ca02c;stroke-width:1;stroke-linecap:butt;stroke-linejoin:round;stroke-miterlimit:10;stroke-dasharray:none;stroke-opacity:.8" transform="matrix(1.33333 0 0 -1.33333 0 591.142)"/><path d="m47.652 41.417 387.365 387.366" clip-path="url(#C)" style="fill:none;stroke:#c31;stroke-width:2;stroke-linecap:butt;stroke-linejoin:round;stroke-miterlimit:10;stroke-dasharray:7.4,3.2;stroke-dashoffset:0;stroke-opacity:.8" transform="matrix(1.33333 0 0 -1.33333 0 591.142)"/><path d="M361.172 42.544h70.719q2 0 2 2v57.687q0 2-2 2h-70.72q-1.999 0-2-2V44.544q.001-2 2-2z" style="fill:#fff;fill-opacity:.8;fill-rule:nonzero;stroke:#ccc;stroke-width:1;stroke-linecap:butt;stroke-linejoin:miter;stroke-miterlimit:10;stroke-dasharray:none;stroke-opacity:.8" transform="matrix(1.33333 0 0 -1.33333 0 591.142)"/><path d="M363.172 96.138h20" style="fill:none;stroke:#1f77b4;stroke-width:1.5;stroke-linecap:square;stroke-linejoin:round;stroke-miterlimit:10;stroke-dasharray:none;stroke-opacity:.8" transform="matrix(1.33333 0 0 -1.33333 0 591.142)"/><path d="M373.172 94.138a2 2 0 1 1 0 4 2 2 0 0 1 0-4z" style="fill:#1f77b4;fill-opacity:.8;fill-rule:nonzero;stroke:#1f77b4;stroke-width:1;stroke-linecap:butt;stroke-linejoin:round;stroke-miterlimit:10;stroke-dasharray:none;stroke-opacity:.8" transform="matrix(1.33333 0 0 -1.33333 0 591.142)"/><text xml:space="preserve" transform="translate(521.562 467.625)scale(1.33333)"><tspan x="0" y="0" style="font-variant:normal;font-weight:400;font-size:10px;font-family:&quot;DejaVu Sans&quot;;writing-mode:lr-tb;fill:#000;fill-opacity:1;fill-rule:nonzero;stroke:none">DES</tspan></text><path d="M363.172 81.466h20" style="fill:none;stroke:#ff7f0e;stroke-width:1.5;stroke-linecap:square;stroke-linejoin:round;stroke-miterlimit:10;stroke-dasharray:none;stroke-opacity:.8" transform="matrix(1.33333 0 0 -1.33333 0 591.142)"/><path d="M373.172 79.466a2 2 0 1 1 0 4 2 2 0 0 1 0-4z" style="fill:#ff7f0e;fill-opacity:.8;fill-rule:nonzero;stroke:#ff7f0e;stroke-width:1;stroke-linecap:butt;stroke-linejoin:round;stroke-miterlimit:10;stroke-dasharray:none;stroke-opacity:.8" transform="matrix(1.33333 0 0 -1.33333 0 591.142)"/><text xml:space="preserve" transform="translate(521.562 487.187)scale(1.33333)"><tspan x="0" y="0" style="font-variant:normal;font-weight:400;font-size:10px;font-family:&quot;DejaVu Sans&quot;;writing-mode:lr-tb;fill:#000;fill-opacity:1;fill-rule:nonzero;stroke:none">CMA-ES</tspan></text><path d="M363.172 66.794h20" style="fill:none;stroke:#2ca02c;stroke-width:1.5;stroke-linecap:square;stroke-linejoin:round;stroke-miterlimit:10;stroke-dasharray:none;stroke-opacity:.8" transform="matrix(1.33333 0 0 -1.33333 0 591.142)"/><path d="M373.172 64.794a2 2 0 1 1 0 4 2 2 0 0 1 0-4z" style="fill:#2ca02c;fill-opacity:.8;fill-rule:nonzero;stroke:#2ca02c;stroke-width:1;stroke-linecap:butt;stroke-linejoin:round;stroke-miterlimit:10;stroke-dasharray:none;stroke-opacity:.8" transform="matrix(1.33333 0 0 -1.33333 0 591.142)"/><text xml:space="preserve" transform="translate(521.562 506.75)scale(1.33333)"><tspan x="0" y="0" style="font-variant:normal;font-weight:400;font-size:10px;font-family:&quot;DejaVu Sans&quot;;writing-mode:lr-tb;fill:#000;fill-opacity:1;fill-rule:nonzero;stroke:none">jSO</tspan></text><path d="M363.172 52.122h20" style="fill:none;stroke:#c31;stroke-width:2;stroke-linecap:butt;stroke-linejoin:round;stroke-miterlimit:10;stroke-dasharray:7.4,3.2;stroke-dashoffset:0;stroke-opacity:.8" transform="matrix(1.33333 0 0 -1.33333 0 591.142)"/><text xml:space="preserve" transform="translate(521.562 526.312)scale(1.33333)"><tspan x="0" y="0" style="font-variant:normal;font-weight:400;font-size:10px;font-family:&quot;DejaVu Sans&quot;;writing-mode:lr-tb;fill:#000;fill-opacity:1;fill-rule:nonzero;stroke:none">Luck</tspan></text></svg>