<svg xmlns="http://www.w3.org/2000/svg" width="962.4" height="591.142" viewBox="0 0 962.4 591.142"><defs><clipPath id="a" clipPathUnits="userSpaceOnUse"><path d="M51.638 42.544H711.1v391.612H51.638Z"/></clipPath><clipPath id="b" clipPathUnits="userSpaceOnUse"><path d="M51.638 42.544H711.1v391.612H51.638Z"/></clipPath><clipPath id="c" clipPathUnits="userSpaceOnUse"><path d="M51.638 42.544H711.1v391.612H51.638Z"/></clipPath><clipPath id="d" clipPathUnits="userSpaceOnUse"><path d="M51.638 42.544H711.1v391.612H51.638Z"/></clipPath><clipPath id="e" clipPathUnits="userSpaceOnUse"><path d="M51.638 42.544H711.1v391.612H51.638Z"/></clipPath><clipPath id="f" clipPathUnits="userSpaceOnUse"><path d="M51.638 42.544H711.1v391.612H51.638Z"/></clipPath><clipPath id="g" clipPathUnits="userSpaceOnUse"><path d="M51.638 42.544H711.1v391.612H51.638Z"/></clipPath><clipPath id="h" clipPathUnits="userSpaceOnUse"><path d="M51.638 42.544H711.1v391.612H51.638Z"/></clipPath><clipPath id="i" clipPathUnits="userSpaceOnUse"><path d="M51.638 42.544H711.1v391.612H51.638Z"/></clipPath><clipPath id="j" clipPathUnits="userSpaceOnUse"><path d="M51.638 42.544H711.1v391.612H51.638Z"/></clipPath><clipPath id="k" clipPathUnits="userSpaceOnUse"><path d="M51.638 42.544H711.1v391.612H51.638Z"/></clipPath><clipPath id="l" clipPathUnits="userSpaceOnUse"><path d="M51.638 42.544H711.1v391.612H51.638Z"/></clipPath><clipPath id="m" clipPathUnits="userSpaceOnUse"><path d="M51.638 42.544H711.1v391.612H51.638Z"/></clipPath><clipPath id="n" clipPathUnits="userSpaceOnUse"><path d="M51.638 42.544H711.1v391.612H51.638Z"/></clipPath><clipPath id="o" clipPathUnits="userSpaceOnUse"><path d="M51.638 42.544H711.1v391.612H51.638Z"/></clipPath><clipPath id="p" clipPathUnits="userSpaceOnUse"><path d="M51.638 42.544H711.1v391.612H51.638Z"/></clipPath><clipPath id="q" clipPathUnits="userSpaceOnUse"><path d="M51.638 42.544H711.1v391.612H51.638Z"/></clipPath><clipPath id="r" clipPathUnits="userSpaceOnUse"><path d="M51.638 42.544H711.1v391.612H51.638Z"/></clipPath><clipPath id="s" clipPathUnits="userSpaceOnUse"><path d="M51.638 42.544H711.1v391.612H51.638Z"/></clipPath><clipPath id="t" clipPathUnits="userSpaceOnUse"><path d="M51.638 42.544H711.1v391.612H51.638Z"/></clipPath><clipPath id="u" clipPathUnits="userSpaceOnUse"><path d="M51.638 42.544H711.1v391.612H51.638Z"/></clipPath></defs><path d="M81.613 42.544v391.612" clip-path="url(#a)" style="fill:none;stroke:#e6e6e6;stroke-width:1;stroke-linecap:square;stroke-linejoin:round;stroke-miterlimit:10;stroke-dasharray:none;stroke-opacity:1" transform="matrix(1.33333 0 0 -1.33333 0 591.142)"/><path d="M81.613 37.544v-3.5" style="fill:#000;fill-opacity:1;fill-rule:nonzero;stroke:#000;stroke-width:.8;stroke-linecap:butt;stroke-linejoin:round;stroke-miterlimit:10;stroke-dasharray:none;stroke-opacity:1" transform="matrix(1.33333 0 0 -1.33333 0 591.142)"/><text xml:space="preserve" transform="translate(104.578 560.542)scale(1.33333)"><tspan x="0" y="0" style="font-variant:normal;font-weight:400;font-size:10px;font-family:&quot;DejaVu Sans&quot;;writing-mode:lr-tb;fill:#000;fill-opacity:1;fill-rule:nonzero;stroke:none">0</tspan></text><path d="M190.615 42.544v391.612" clip-path="url(#b)" style="fill:none;stroke:#e6e6e6;stroke-width:1;stroke-linecap:square;stroke-linejoin:round;stroke-miterlimit:10;stroke-dasharray:none;stroke-opacity:1" transform="matrix(1.33333 0 0 -1.33333 0 591.142)"/><path d="M190.615 37.544v-3.5" style="fill:#000;fill-opacity:1;fill-rule:nonzero;stroke:#000;stroke-width:.8;stroke-linecap:butt;stroke-linejoin:round;stroke-miterlimit:10;stroke-dasharray:none;stroke-opacity:1" transform="matrix(1.33333 0 0 -1.33333 0 591.142)"/><text xml:space="preserve" transform="translate(245.674 560.542)scale(1.33333)"><tspan x="0" y="0" style="font-variant:normal;font-weight:400;font-size:10px;font-family:&quot;DejaVu Sans&quot;;writing-mode:lr-tb;fill:#000;fill-opacity:1;fill-rule:nonzero;stroke:none">10</tspan></text><path d="M299.617 42.544v391.612" clip-path="url(#c)" style="fill:none;stroke:#e6e6e6;stroke-width:1;stroke-linecap:square;stroke-linejoin:round;stroke-miterlimit:10;stroke-dasharray:none;stroke-opacity:1" transform="matrix(1.33333 0 0 -1.33333 0 591.142)"/><path d="M299.617 37.544v-3.5" style="fill:#000;fill-opacity:1;fill-rule:nonzero;stroke:#000;stroke-width:.8;stroke-linecap:butt;stroke-linejoin:round;stroke-miterlimit:10;stroke-dasharray:none;stroke-opacity:1" transform="matrix(1.33333 0 0 -1.33333 0 591.142)"/><text xml:space="preserve" transform="translate(391.01 560.542)scale(1.33333)"><tspan x="0" y="0" style="font-variant:normal;font-weight:400;font-size:10px;font-family:&quot;DejaVu Sans&quot;;writing-mode:lr-tb;fill:#000;fill-opacity:1;fill-rule:nonzero;stroke:none">20</tspan></text><path d="M408.62 42.544v391.612" clip-path="url(#d)" style="fill:none;stroke:#e6e6e6;stroke-width:1;stroke-linecap:square;stroke-linejoin:round;stroke-miterlimit:10;stroke-dasharray:none;stroke-opacity:1" transform="matrix(1.33333 0 0 -1.33333 0 591.142)"/><path d="M408.62 37.544v-3.5" style="fill:#000;fill-opacity:1;fill-rule:nonzero;stroke:#000;stroke-width:.8;stroke-linecap:butt;stroke-linejoin:round;stroke-miterlimit:10;stroke-dasharray:none;stroke-opacity:1" transform="matrix(1.33333 0 0 -1.33333 0 591.142)"/><text xml:space="preserve" transform="translate(536.347 560.542)scale(1.33333)"><tspan x="0" y="0" style="font-variant:normal;font-weight:400;font-size:10px;font-family:&quot;DejaVu Sans&quot;;writing-mode:lr-tb;fill:#000;fill-opacity:1;fill-rule:nonzero;stroke:none">30</tspan></text><path d="M517.621 42.544v391.612" clip-path="url(#e)" style="fill:none;stroke:#e6e6e6;stroke-width:1;stroke-linecap:square;stroke-linejoin:round;stroke-miterlimit:10;stroke-dasharray:none;stroke-opacity:1" transform="matrix(1.33333 0 0 -1.33333 0 591.142)"/><path d="M517.621 37.544v-3.5" style="fill:#000;fill-opacity:1;fill-rule:nonzero;stroke:#000;stroke-width:.8;stroke-linecap:butt;stroke-linejoin:round;stroke-miterlimit:10;stroke-dasharray:none;stroke-opacity:1" transform="matrix(1.33333 0 0 -1.33333 0 591.142)"/><text xml:space="preserve" transform="translate(681.683 560.542)scale(1.33333)"><tspan x="0" y="0" style="font-variant:normal;font-weight:400;font-size:10px;font-family:&quot;DejaVu Sans&quot;;writing-mode:lr-tb;fill:#000;fill-opacity:1;fill-rule:nonzero;stroke:none">40</tspan></text><path d="M626.623 42.544v391.612" clip-path="url(#f)" style="fill:none;stroke:#e6e6e6;stroke-width:1;stroke-linecap:square;stroke-linejoin:round;stroke-miterlimit:10;stroke-dasharray:none;stroke-opacity:1" transform="matrix(1.33333 0 0 -1.33333 0 591.142)"/><path d="M626.623 37.544v-3.5" style="fill:#000;fill-opacity:1;fill-rule:nonzero;stroke:#000;stroke-width:.8;stroke-linecap:butt;stroke-linejoin:round;stroke-miterlimit:10;stroke-dasharray:none;stroke-opacity:1" transform="matrix(1.33333 0 0 -1.33333 0 591.142)"/><text xml:space="preserve" transform="translate(827.019 560.542)scale(1.33333)"><tspan x="0" y="0" style="font-variant:normal;font-weight:400;font-size:10px;font-family:&quot;DejaVu Sans&quot;;writing-mode:lr-tb;fill:#000;fill-opacity:1;fill-rule:nonzero;stroke:none">50</tspan></text><text xml:space="preserve" transform="translate(488.18 578.77)scale(1.33333)"><tspan x="0" y="0" style="font-variant:normal;font-weight:400;font-size:10px;font-family:&quot;DejaVu Sans&quot;;writing-mode:lr-tb;fill:#000;fill-opacity:1;fill-rule:nonzero;stroke:none">epoch</tspan></text><path d="M51.638 67.707H711.1" clip-path="url(#g)" style="fill:none;stroke:#e6e6e6;stroke-width:1;stroke-linecap:square;stroke-linejoin:round;stroke-miterlimit:10;stroke-dasharray:none;stroke-opacity:1" transform="matrix(1.33333 0 0 -1.33333 0 591.142)"/><text xml:space="preserve" transform="translate(27.83 505.928)scale(1.33333)"><tspan x="0" y="0" style="font-variant:normal;font-weight:400;font-size:10px;font-family:&quot;DejaVu Sans&quot;;writing-mode:lr-tb;fill:#000;fill-opacity:1;fill-rule:nonzero;stroke:none">0.74</tspan></text><path d="M51.638 112.1H711.1" clip-path="url(#h)" style="fill:none;stroke:#e6e6e6;stroke-width:1;stroke-linecap:square;stroke-linejoin:round;stroke-miterlimit:10;stroke-dasharray:none;stroke-opacity:1" transform="matrix(1.33333 0 0 -1.33333 0 591.142)"/><text xml:space="preserve" transform="translate(27.83 446.738)scale(1.33333)"><tspan x="0" y="0" style="font-variant:normal;font-weight:400;font-size:10px;font-family:&quot;DejaVu Sans&quot;;writing-mode:lr-tb;fill:#000;fill-opacity:1;fill-rule:nonzero;stroke:none">0.76</tspan></text><path d="M51.638 156.491H711.1" clip-path="url(#i)" style="fill:none;stroke:#e6e6e6;stroke-width:1;stroke-linecap:square;stroke-linejoin:round;stroke-miterlimit:10;stroke-dasharray:none;stroke-opacity:1" transform="matrix(1.33333 0 0 -1.33333 0 591.142)"/><text xml:space="preserve" transform="translate(27.83 387.55)scale(1.33333)"><tspan x="0" y="0" style="font-variant:normal;font-weight:400;font-size:10px;font-family:&quot;DejaVu Sans&quot;;writing-mode:lr-tb;fill:#000;fill-opacity:1;fill-rule:nonzero;stroke:none">0.78</tspan></text><path d="M51.638 200.883H711.1" clip-path="url(#j)" style="fill:none;stroke:#e6e6e6;stroke-width:1;stroke-linecap:square;stroke-linejoin:round;stroke-miterlimit:10;stroke-dasharray:none;stroke-opacity:1" transform="matrix(1.33333 0 0 -1.33333 0 591.142)"/><text xml:space="preserve" transform="translate(27.83 328.36)scale(1.33333)"><tspan x="0" y="0" style="font-variant:normal;font-weight:400;font-size:10px;font-family:&quot;DejaVu Sans&quot;;writing-mode:lr-tb;fill:#000;fill-opacity:1;fill-rule:nonzero;stroke:none">0.80</tspan></text><path d="M51.638 245.275H711.1" clip-path="url(#k)" style="fill:none;stroke:#e6e6e6;stroke-width:1;stroke-linecap:square;stroke-linejoin:round;stroke-miterlimit:10;stroke-dasharray:none;stroke-opacity:1" transform="matrix(1.33333 0 0 -1.33333 0 591.142)"/><text xml:space="preserve" transform="translate(27.83 269.17)scale(1.33333)"><tspan x="0" y="0" style="font-variant:normal;font-weight:400;font-size:10px;font-family:&quot;DejaVu Sans&quot;;writing-mode:lr-tb;fill:#000;fill-opacity:1;fill-rule:nonzero;stroke:none">0.82</tspan></text><path d="M51.638 289.667H711.1" clip-path="url(#l)" style="fill:none;stroke:#e6e6e6;stroke-width:1;stroke-linecap:square;stroke-linejoin:round;stroke-miterlimit:10;stroke-dasharray:none;stroke-opacity:1" transform="matrix(1.33333 0 0 -1.33333 0 591.142)"/><text xml:space="preserve" transform="translate(27.83 209.982)scale(1.33333)"><tspan x="0" y="0" style="font-variant:normal;font-weight:400;font-size:10px;font-family:&quot;DejaVu Sans&quot;;writing-mode:lr-tb;fill:#000;fill-opacity:1;fill-rule:nonzero;stroke:none">0.84</tspan></text><path d="M51.638 334.059H711.1" clip-path="url(#m)" style="fill:none;stroke:#e6e6e6;stroke-width:1;stroke-linecap:square;stroke-linejoin:round;stroke-miterlimit:10;stroke-dasharray:none;stroke-opacity:1" transform="matrix(1.33333 0 0 -1.33333 0 591.142)"/><text xml:space="preserve" transform="translate(27.83 150.793)scale(1.33333)"><tspan x="0" y="0" style="font-variant:normal;font-weight:400;font-size:10px;font-family:&quot;DejaVu Sans&quot;;writing-mode:lr-tb;fill:#000;fill-opacity:1;fill-rule:nonzero;stroke:none">0.86</tspan></text><path d="M51.638 378.45H711.1" clip-path="url(#n)" style="fill:none;stroke:#e6e6e6;stroke-width:1;stroke-linecap:square;stroke-linejoin:round;stroke-miterlimit:10;stroke-dasharray:none;stroke-opacity:1" transform="matrix(1.33333 0 0 -1.33333 0 591.142)"/><text xml:space="preserve" transform="translate(27.83 91.603)scale(1.33333)"><tspan x="0" y="0" style="font-variant:normal;font-weight:400;font-size:10px;font-family:&quot;DejaVu Sans&quot;;writing-mode:lr-tb;fill:#000;fill-opacity:1;fill-rule:nonzero;stroke:none">0.88</tspan></text><path d="M51.638 422.842H711.1" clip-path="url(#o)" style="fill:none;stroke:#e6e6e6;stroke-width:1;stroke-linecap:square;stroke-linejoin:round;stroke-miterlimit:10;stroke-dasharray:none;stroke-opacity:1" transform="matrix(1.33333 0 0 -1.33333 0 591.142)"/><text xml:space="preserve" transform="translate(27.83 32.414)scale(1.33333)"><tspan x="0" y="0" style="font-variant:normal;font-weight:400;font-size:10px;font-family:&quot;DejaVu Sans&quot;;writing-mode:lr-tb;fill:#000;fill-opacity:1;fill-rule:nonzero;stroke:none">0.90</tspan></text><text xml:space="preserve" transform="rotate(-90 155.903 136.178)scale(1.33333)"><tspan x="0" y="0" style="font-variant:normal;font-weight:400;font-size:10px;font-family:&quot;DejaVu Sans&quot;;writing-mode:lr-tb;fill:#000;fill-opacity:1;fill-rule:nonzero;stroke:none">RAUC</tspan></text><path d="m81.613 300.25 10.9 37.124 10.9-.63 10.9 13.939 10.9.02 10.901 2.126 10.9 6.534 10.9 2.885 10.9-1.543 10.9 10.183 10.901.617 10.9-4.065 10.9 1.18 10.9-.603 10.901 13.711 10.9-10.41 10.9 13.523 10.9 1.704 10.9-6.628 10.901 8.291 10.9-5.527 10.9 5.997 10.9-.242 10.9 1.02 10.901 7.272 10.9-1.597 10.9 2.361 10.9-5.205 10.9-1.208 10.901.55 10.9 6.024 10.9-21.922 10.9 23.492 10.9-4.105 10.901-1.168 10.9 10.519 10.9-5.97 10.9 4.333 10.9-1.462 10.901 4.051 10.9-8.881 10.9 12.034 10.9-15.979 10.901 11.94 10.9 2.926 10.9.429 10.9-6.977 10.9 3.958 10.901-.268 10.9 3.488 10.9 8.265" clip-path="url(#p)" style="fill:none;stroke:#1f77b4;stroke-width:1.5;stroke-linecap:square;stroke-linejoin:round;stroke-miterlimit:10;stroke-dasharray:none;stroke-opacity:1" transform="matrix(1.33333 0 0 -1.33333 0 591.142)"/><path d="m81.613 60.344 10.9 141.5 10.9-2.988 10.9 44.818 10.9-24.543 10.901-6.403 10.9 32.013 10.9-27.531 10.9 33.507 10.9 11.738 10.901-8.75 10.9-7.256 10.9 19.635 10.9-30.52 10.901-22.196 10.9 62.533 10.9-31.16 10.9 27.959 10.9-29.453 10.901 54.85 10.9-51.435 10.9 35.001 10.9-12.165 10.9-1.707 10.901-15.153 10.9 8.323 10.9 10.672 10.9-4.91 10.9-67.014 10.901 76.619 10.9 14.513 10.9-90.065 10.9 61.68 10.9-2.135 10.901-29.666 10.9 58.692 10.9-33.935 10.9-5.762 10.9 13.446 10.901 1.067 10.9-4.695 10.9-9.391 10.9-61.893 10.901 110.553 10.9-59.758 10.9 47.38 10.9-110.34 10.9 64.667 10.901 49.728 10.9-79.393 10.9 96.893" clip-path="url(#q)" style="fill:none;stroke:#1f77b4;stroke-width:1.5;stroke-linecap:butt;stroke-linejoin:round;stroke-miterlimit:10;stroke-dasharray:9.6,2.4,1.5,2.4;stroke-dashoffset:0;stroke-opacity:1" transform="matrix(1.33333 0 0 -1.33333 0 591.142)"/><path d="m81.613 288.123 10.9 43.978 10.9 6.641 10.9-.563 10.9 3.327 10.901 1.301 10.9-13.148 10.9 13.631 10.9 6.87 10.9 4.615 10.901-4.95 10.9-2.04 10.9 11.954 10.9-4.065 10.901-1.57 10.9 9.056 10.9-7.822 10.9 5.045 10.9-10.21 10.901 12.772 10.9-1.784 10.9-1.878 10.9 6.493 10.9-1.596 10.901 2.441 10.9-.912 10.9 6.789 10.9 1.502 10.9-13.027 10.901 4.079 10.9 13.067" clip-path="url(#r)" style="fill:none;stroke:#ff7f0e;stroke-width:1.5;stroke-linecap:square;stroke-linejoin:round;stroke-miterlimit:10;stroke-dasharray:none;stroke-opacity:1" transform="matrix(1.33333 0 0 -1.33333 0 591.142)"/><path d="m81.613 81.687 10.9 115.248 10.9-33.721 10.9 56.13 10.9 26.891 10.901 11.098 10.9-69.789 10.9 3.201 10.9 48.874 10.9 20.702 10.901 11.312 10.9-72.35 10.9 35 10.9-32.653 10.901-1.707 10.9 50.58 10.9-13.658 10.9 32.653 10.9-72.99 10.901 81.954 10.9-48.447 10.9 18.355 10.9 9.817 10.9-12.805 10.901-39.91 10.9 13.018 10.9 37.776 10.9-6.19 10.9-55.702 10.901 45.032 10.9 62.533" clip-path="url(#s)" style="fill:none;stroke:#ff7f0e;stroke-width:1.5;stroke-linecap:butt;stroke-linejoin:round;stroke-miterlimit:10;stroke-dasharray:9.6,2.4,1.5,2.4;stroke-dashoffset:0;stroke-opacity:1" transform="matrix(1.33333 0 0 -1.33333 0 591.142)"/><path d="m81.613 283.48 10.9 31.475 10.9 12.357 10.9 6.278 10.9 7.54 10.901 1.382 10.9-10.585 10.9 15.147 10.9 3.797 10.9 1.408 10.901-1.395 10.9 1.865 10.9 4.105 10.9.094 10.901-1.207 10.9 6.332 10.9-2.066 10.9-.308 10.9-2.254 10.901 9.66 10.9-1.96 10.9-2.897 10.9 4.87 10.9 1.395 10.901-8.13 10.9 10.773 10.9 3.837 10.9-.416 10.9-4.736 10.901-.899 10.9 11.66 10.9-18.18 10.9 13.188 10.9-3.032 10.901-17.843 10.9 25.678 10.9-1.663 10.9-.255 10.9-10.8 10.901 12.182 10.9-2.469 10.9 5.286 10.9-18.253 10.901 16.697h10.9l10.9-4.293 10.9-6.28 10.9 9.084 10.901 2.67 10.9.952 10.9 5.97 10.9-8.774 10.9-.362 10.901 2.562 10.9 1.798 10.9 6.427" clip-path="url(#t)" style="fill:none;stroke:#2ca02c;stroke-width:1.5;stroke-linecap:square;stroke-linejoin:round;stroke-miterlimit:10;stroke-dasharray:none;stroke-opacity:1" transform="matrix(1.33333 0 0 -1.33333 0 591.142)"/><path d="m81.613 86.382 10.9 12.805 10.9 25.61 10.9 94.76 10.9 11.739 10.901 8.323 10.9-61.892 10.9 28.171 10.9 36.71 10.9-5.123 10.901 19.421 10.9-49.94 10.9 6.83 10.9-7.257 10.901-8.11 10.9 40.123 10.9-30.733 10.9 48.447 10.9-49.087 10.901 76.832 10.9-60.185 10.9 24.544 10.9 20.061 10.9-9.604 10.901-62.746 10.9 44.392 10.9 18.781 10.9-15.58 10.9-20.702 10.901 16.22 10.9 57.198 10.9-99.455 10.9 60.398 10.9-32.653 10.901-34.575 10.9 86.863 10.9 3.202 10.9 5.975 10.9-61.892 10.901 46.74 10.9-11.952 10.9 12.592 10.9-70.643 10.901 77.899 10.9-74.698 10.9 42.258 10.9-9.604 10.9-23.477 10.901 57.197 10.9-21.769 10.9 37.563 10.9-.64 10.9-81.741 10.901 8.75 10.9 64.667 10.9 22.623" clip-path="url(#u)" style="fill:none;stroke:#2ca02c;stroke-width:1.5;stroke-linecap:butt;stroke-linejoin:round;stroke-miterlimit:10;stroke-dasharray:9.6,2.4,1.5,2.4;stroke-dashoffset:0;stroke-opacity:1" transform="matrix(1.33333 0 0 -1.33333 0 591.142)"/><path d="M549.647 47.544H704.1q2 0 2 2v87.031q0 2-2 2H549.647q-2 0-2-2V49.544q0-2 2-2z" style="fill:#fff;fill-opacity:.8;fill-rule:nonzero;stroke:#ccc;stroke-width:1;stroke-linecap:butt;stroke-linejoin:miter;stroke-miterlimit:10;stroke-dasharray:none;stroke-opacity:.8" transform="matrix(1.33333 0 0 -1.33333 0 591.142)"/><path d="M551.647 130.481h20" style="fill:none;stroke:#1f77b4;stroke-width:1.5;stroke-linecap:square;stroke-linejoin:round;stroke-miterlimit:10;stroke-dasharray:none;stroke-opacity:1" transform="matrix(1.33333 0 0 -1.33333 0 591.142)"/><text xml:space="preserve" transform="translate(772.862 421.833)scale(1.33333)"><tspan x="0" y="0" style="font-variant:normal;font-weight:400;font-size:10px;font-family:&quot;DejaVu Sans&quot;;writing-mode:lr-tb;fill:#000;fill-opacity:1;fill-rule:nonzero;stroke:none">DES train RAUC</tspan></text><path d="M551.647 115.81h20" style="fill:none;stroke:#1f77b4;stroke-width:1.5;stroke-linecap:butt;stroke-linejoin:round;stroke-miterlimit:10;stroke-dasharray:9.6,2.4,1.5,2.4;stroke-dashoffset:0;stroke-opacity:1" transform="matrix(1.33333 0 0 -1.33333 0 591.142)"/><text xml:space="preserve" transform="translate(772.862 441.396)scale(1.33333)"><tspan x="0" y="0" style="font-variant:normal;font-weight:400;font-size:10px;font-family:&quot;DejaVu Sans&quot;;writing-mode:lr-tb;fill:#000;fill-opacity:1;fill-rule:nonzero;stroke:none">DES validation RAUC</tspan></text><path d="M551.647 101.138h20" style="fill:none;stroke:#ff7f0e;stroke-width:1.5;stroke-linecap:square;stroke-linejoin:round;stroke-miterlimit:10;stroke-dasharray:none;stroke-opacity:1" transform="matrix(1.33333 0 0 -1.33333 0 591.142)"/><text xml:space="preserve" transform="translate(772.862 460.958)scale(1.33333)"><tspan x="0" y="0" style="font-variant:normal;font-weight:400;font-size:10px;font-family:&quot;DejaVu Sans&quot;;writing-mode:lr-tb;fill:#000;fill-opacity:1;fill-rule:nonzero;stroke:none">CMA-ES train RAUC</tspan></text><path d="M551.647 86.466h20" style="fill:none;stroke:#ff7f0e;stroke-width:1.5;stroke-linecap:butt;stroke-linejoin:round;stroke-miterlimit:10;stroke-dasharray:9.6,2.4,1.5,2.4;stroke-dashoffset:0;stroke-opacity:1" transform="matrix(1.33333 0 0 -1.33333 0 591.142)"/><text xml:space="preserve" transform="translate(772.862 480.52)scale(1.33333)"><tspan x="0" y="0" style="font-variant:normal;font-weight:400;font-size:10px;font-family:&quot;DejaVu Sans&quot;;writing-mode:lr-tb;fill:#000;fill-opacity:1;fill-rule:nonzero;stroke:none">CMA-ES validation RAUC</tspan></text><path d="M551.647 71.794h20" style="fill:none;stroke:#2ca02c;stroke-width:1.5;stroke-linecap:square;stroke-linejoin:round;stroke-miterlimit:10;stroke-dasharray:none;stroke-opacity:1" transform="matrix(1.33333 0 0 -1.33333 0 591.142)"/><text xml:space="preserve" transform="translate(772.862 500.083)scale(1.33333)"><tspan x="0" y="0" style="font-variant:normal;font-weight:400;font-size:10px;font-family:&quot;DejaVu Sans&quot;;writing-mode:lr-tb;fill:#000;fill-opacity:1;fill-rule:nonzero;stroke:none">jSO train RAUC</tspan></text><path d="M551.647 57.122h20" style="fill:none;stroke:#2ca02c;stroke-width:1.5;stroke-linecap:butt;stroke-linejoin:round;stroke-miterlimit:10;stroke-dasharray:9.6,2.4,1.5,2.4;stroke-dashoffset:0;stroke-opacity:1" transform="matrix(1.33333 0 0 -1.33333 0 591.142)"/><text xml:space="preserve" transform="translate(772.862 519.646)scale(1.33333)"><tspan x="0" y="0" style="font-variant:normal;font-weight:400;font-size:10px;font-family:&quot;DejaVu Sans&quot;;writing-mode:lr-tb;fill:#000;fill-opacity:1;fill-rule:nonzero;stroke:none">jSO validation RAUC</tspan></text></svg>