<?xml version="1.0" encoding="UTF-8" standalone="no"?>
<!-- Created with Inkscape (http://www.inkscape.org/) -->

<svg
   version="1.1"
   id="svg1"
   width="962.40002"
   height="591.14166"
   viewBox="0 0 962.40002 591.14166"
   xmlns="http://www.w3.org/2000/svg"
   xmlns:svg="http://www.w3.org/2000/svg">
  <defs
     id="defs1">
    <clipPath
       clipPathUnits="userSpaceOnUse"
       id="clipPath2">
      <path
         d="M 57.996875,42.54375 H 711.1 V 434.15624 H 57.996875 Z"
         id="path2" />
    </clipPath>
    <clipPath
       clipPathUnits="userSpaceOnUse"
       id="clipPath5">
      <path
         d="M 57.996875,42.54375 H 711.1 V 434.15624 H 57.996875 Z"
         id="path5" />
    </clipPath>
    <clipPath
       clipPathUnits="userSpaceOnUse"
       id="clipPath8">
      <path
         d="M 57.996875,42.54375 H 711.1 V 434.15624 H 57.996875 Z"
         id="path8" />
    </clipPath>
    <clipPath
       clipPathUnits="userSpaceOnUse"
       id="clipPath11">
      <path
         d="M 57.996875,42.54375 H 711.1 V 434.15624 H 57.996875 Z"
         id="path11" />
    </clipPath>
    <clipPath
       clipPathUnits="userSpaceOnUse"
       id="clipPath14">
      <path
         d="M 57.996875,42.54375 H 711.1 V 434.15624 H 57.996875 Z"
         id="path14" />
    </clipPath>
    <clipPath
       clipPathUnits="userSpaceOnUse"
       id="clipPath17">
      <path
         d="M 57.996875,42.54375 H 711.1 V 434.15624 H 57.996875 Z"
         id="path17" />
    </clipPath>
    <clipPath
       clipPathUnits="userSpaceOnUse"
       id="clipPath20">
      <path
         d="M 57.996875,42.54375 H 711.1 V 434.15624 H 57.996875 Z"
         id="path20" />
    </clipPath>
    <clipPath
       clipPathUnits="userSpaceOnUse"
       id="clipPath22">
      <path
         d="M 57.996875,42.54375 H 711.1 V 434.15624 H 57.996875 Z"
         id="path22" />
    </clipPath>
    <clipPath
       clipPathUnits="userSpaceOnUse"
       id="clipPath24">
      <path
         d="M 57.996875,42.54375 H 711.1 V 434.15624 H 57.996875 Z"
         id="path24" />
    </clipPath>
    <clipPath
       clipPathUnits="userSpaceOnUse"
       id="clipPath26">
      <path
         d="M 57.996875,42.54375 H 711.1 V 434.15624 H 57.996875 Z"
         id="path26" />
    </clipPath>
    <clipPath
       clipPathUnits="userSpaceOnUse"
       id="clipPath28">
      <path
         d="M 57.996875,42.54375 H 711.1 V 434.15624 H 57.996875 Z"
         id="path28" />
    </clipPath>
    <clipPath
       clipPathUnits="userSpaceOnUse"
       id="clipPath30">
      <path
         d="M 57.996875,42.54375 H 711.1 V 434.15624 H 57.996875 Z"
         id="path30" />
    </clipPath>
    <clipPath
       clipPathUnits="userSpaceOnUse"
       id="clipPath32">
      <path
         d="M 57.996875,42.54375 H 711.1 V 434.15624 H 57.996875 Z"
         id="path32" />
    </clipPath>
    <clipPath
       clipPathUnits="userSpaceOnUse"
       id="clipPath34">
      <path
         d="M 57.996875,42.54375 H 711.1 V 434.15624 H 57.996875 Z"
         id="path34" />
    </clipPath>
    <clipPath
       clipPathUnits="userSpaceOnUse"
       id="clipPath36">
      <path
         d="M 57.996875,42.54375 H 711.1 V 434.15624 H 57.996875 Z"
         id="path36" />
    </clipPath>
    <clipPath
       clipPathUnits="userSpaceOnUse"
       id="clipPath38">
      <path
         d="M 57.996875,42.54375 H 711.1 V 434.15624 H 57.996875 Z"
         id="path38" />
    </clipPath>
    <clipPath
       clipPathUnits="userSpaceOnUse"
       id="clipPath40">
      <path
         d="M 57.996875,42.54375 H 711.1 V 434.15624 H 57.996875 Z"
         id="path40" />
    </clipPath>
    <clipPath
       clipPathUnits="userSpaceOnUse"
       id="clipPath42">
      <path
         d="M 57.996875,42.54375 H 711.1 V 434.15624 H 57.996875 Z"
         id="path42" />
    </clipPath>
    <clipPath
       clipPathUnits="userSpaceOnUse"
       id="clipPath44">
      <path
         d="M 57.996875,42.54375 H 711.1 V 434.15624 H 57.996875 Z"
         id="path44" />
    </clipPath>
    <clipPath
       clipPathUnits="userSpaceOnUse"
       id="clipPath46">
      <path
         d="M 57.996875,42.54375 H 711.1 V 434.15624 H 57.996875 Z"
         id="path46" />
    </clipPath>
    <clipPath
       clipPathUnits="userSpaceOnUse"
       id="clipPath48">
      <path
         d="M 57.996875,42.54375 H 711.1 V 434.15624 H 57.996875 Z"
         id="path48" />
    </clipPath>
  </defs>
  <g
     id="g1">
    <path
       id="path1"
       d="M 87.683381,42.54375 V 434.15624"
       style="fill:none;stroke:#e6e6e6;stroke-width:1;stroke-linecap:square;stroke-linejoin:round;stroke-miterlimit:10;stroke-dasharray:none;stroke-opacity:1"
       transform="matrix(1.3333333,0,0,-1.3333333,0,591.14166)"
       clip-path="url(#clipPath2)" />
    <path
       id="path3"
       d="m 87.683381,37.54375 v -3.5"
       style="fill:#000000;fill-opacity:1;fill-rule:nonzero;stroke:#000000;stroke-width:0.8;stroke-linecap:butt;stroke-linejoin:round;stroke-miterlimit:10;stroke-dasharray:none;stroke-opacity:1"
       transform="matrix(1.3333333,0,0,-1.3333333,0,591.14166)" />
    <text
       id="text3"
       xml:space="preserve"
       transform="matrix(1.3333333,0,0,1.3333333,112.67159,560.54166)"><tspan
         id="tspan3"
         style="font-variant:normal;font-weight:normal;font-size:10px;font-family:'DejaVu Sans';writing-mode:lr-tb;fill:#000000;fill-opacity:1;fill-rule:nonzero;stroke:none"
         x="0"
         y="0">0</tspan></text>
    <path
       id="path4"
       d="M 195.63431,42.54375 V 434.15624"
       style="fill:none;stroke:#e6e6e6;stroke-width:1;stroke-linecap:square;stroke-linejoin:round;stroke-miterlimit:10;stroke-dasharray:none;stroke-opacity:1"
       transform="matrix(1.3333333,0,0,-1.3333333,0,591.14166)"
       clip-path="url(#clipPath5)" />
    <path
       id="path6"
       d="m 195.63431,37.54375 v -3.5"
       style="fill:#000000;fill-opacity:1;fill-rule:nonzero;stroke:#000000;stroke-width:0.8;stroke-linecap:butt;stroke-linejoin:round;stroke-miterlimit:10;stroke-dasharray:none;stroke-opacity:1"
       transform="matrix(1.3333333,0,0,-1.3333333,0,591.14166)" />
    <text
       id="text6"
       xml:space="preserve"
       transform="matrix(1.3333333,0,0,1.3333333,252.36658,560.54166)"><tspan
         id="tspan6"
         style="font-variant:normal;font-weight:normal;font-size:10px;font-family:'DejaVu Sans';writing-mode:lr-tb;fill:#000000;fill-opacity:1;fill-rule:nonzero;stroke:none"
         x="0"
         y="0">10</tspan></text>
    <path
       id="path7"
       d="M 303.58524,42.54375 V 434.15624"
       style="fill:none;stroke:#e6e6e6;stroke-width:1;stroke-linecap:square;stroke-linejoin:round;stroke-miterlimit:10;stroke-dasharray:none;stroke-opacity:1"
       transform="matrix(1.3333333,0,0,-1.3333333,0,591.14166)"
       clip-path="url(#clipPath8)" />
    <path
       id="path9"
       d="m 303.58524,37.54375 v -3.5"
       style="fill:#000000;fill-opacity:1;fill-rule:nonzero;stroke:#000000;stroke-width:0.8;stroke-linecap:butt;stroke-linejoin:round;stroke-miterlimit:10;stroke-dasharray:none;stroke-opacity:1"
       transform="matrix(1.3333333,0,0,-1.3333333,0,591.14166)" />
    <text
       id="text9"
       xml:space="preserve"
       transform="matrix(1.3333333,0,0,1.3333333,396.30115,560.54166)"><tspan
         id="tspan9"
         style="font-variant:normal;font-weight:normal;font-size:10px;font-family:'DejaVu Sans';writing-mode:lr-tb;fill:#000000;fill-opacity:1;fill-rule:nonzero;stroke:none"
         x="0"
         y="0">20</tspan></text>
    <path
       id="path10"
       d="M 411.53617,42.54375 V 434.15624"
       style="fill:none;stroke:#e6e6e6;stroke-width:1;stroke-linecap:square;stroke-linejoin:round;stroke-miterlimit:10;stroke-dasharray:none;stroke-opacity:1"
       transform="matrix(1.3333333,0,0,-1.3333333,0,591.14166)"
       clip-path="url(#clipPath11)" />
    <path
       id="path12"
       d="m 411.53617,37.54375 v -3.5"
       style="fill:#000000;fill-opacity:1;fill-rule:nonzero;stroke:#000000;stroke-width:0.8;stroke-linecap:butt;stroke-linejoin:round;stroke-miterlimit:10;stroke-dasharray:none;stroke-opacity:1"
       transform="matrix(1.3333333,0,0,-1.3333333,0,591.14166)" />
    <text
       id="text12"
       xml:space="preserve"
       transform="matrix(1.3333333,0,0,1.3333333,540.23573,560.54166)"><tspan
         id="tspan12"
         style="font-variant:normal;font-weight:normal;font-size:10px;font-family:'DejaVu Sans';writing-mode:lr-tb;fill:#000000;fill-opacity:1;fill-rule:nonzero;stroke:none"
         x="0"
         y="0">30</tspan></text>
    <path
       id="path13"
       d="M 519.4871,42.54375 V 434.15624"
       style="fill:none;stroke:#e6e6e6;stroke-width:1;stroke-linecap:square;stroke-linejoin:round;stroke-miterlimit:10;stroke-dasharray:none;stroke-opacity:1"
       transform="matrix(1.3333333,0,0,-1.3333333,0,591.14166)"
       clip-path="url(#clipPath14)" />
    <path
       id="path15"
       d="m 519.4871,37.54375 v -3.5"
       style="fill:#000000;fill-opacity:1;fill-rule:nonzero;stroke:#000000;stroke-width:0.8;stroke-linecap:butt;stroke-linejoin:round;stroke-miterlimit:10;stroke-dasharray:none;stroke-opacity:1"
       transform="matrix(1.3333333,0,0,-1.3333333,0,591.14166)" />
    <text
       id="text15"
       xml:space="preserve"
       transform="matrix(1.3333333,0,0,1.3333333,684.1703,560.54166)"><tspan
         id="tspan15"
         style="font-variant:normal;font-weight:normal;font-size:10px;font-family:'DejaVu Sans';writing-mode:lr-tb;fill:#000000;fill-opacity:1;fill-rule:nonzero;stroke:none"
         x="0"
         y="0">40</tspan></text>
    <path
       id="path16"
       d="M 627.43803,42.54375 V 434.15624"
       style="fill:none;stroke:#e6e6e6;stroke-width:1;stroke-linecap:square;stroke-linejoin:round;stroke-miterlimit:10;stroke-dasharray:none;stroke-opacity:1"
       transform="matrix(1.3333333,0,0,-1.3333333,0,591.14166)"
       clip-path="url(#clipPath17)" />
    <path
       id="path18"
       d="m 627.43803,37.54375 v -3.5"
       style="fill:#000000;fill-opacity:1;fill-rule:nonzero;stroke:#000000;stroke-width:0.8;stroke-linecap:butt;stroke-linejoin:round;stroke-miterlimit:10;stroke-dasharray:none;stroke-opacity:1"
       transform="matrix(1.3333333,0,0,-1.3333333,0,591.14166)" />
    <text
       id="text18"
       xml:space="preserve"
       transform="matrix(1.3333333,0,0,1.3333333,828.10487,560.54166)"><tspan
         id="tspan18"
         style="font-variant:normal;font-weight:normal;font-size:10px;font-family:'DejaVu Sans';writing-mode:lr-tb;fill:#000000;fill-opacity:1;fill-rule:nonzero;stroke:none"
         x="0"
         y="0">50</tspan></text>
    <text
       id="text19"
       xml:space="preserve"
       transform="matrix(1.3333333,0,0,1.3333333,492.41875,578.77082)"><tspan
         id="tspan19"
         style="font-variant:normal;font-weight:normal;font-size:10px;font-family:'DejaVu Sans';writing-mode:lr-tb;fill:#000000;fill-opacity:1;fill-rule:nonzero;stroke:none"
         x="0"
         y="0">epoch</tspan></text>
    <path
       id="path19"
       d="M 57.996875,61.158462 H 711.1"
       style="fill:none;stroke:#e6e6e6;stroke-width:1;stroke-linecap:square;stroke-linejoin:round;stroke-miterlimit:10;stroke-dasharray:none;stroke-opacity:1"
       transform="matrix(1.3333333,0,0,-1.3333333,0,591.14166)"
       clip-path="url(#clipPath20)" />
    <text
       id="text20"
       xml:space="preserve"
       transform="matrix(1.3333333,0,0,1.3333333,27.829167,514.65954)"><tspan
         id="tspan20"
         style="font-variant:normal;font-weight:normal;font-size:10px;font-family:'DejaVu Sans';writing-mode:lr-tb;fill:#000000;fill-opacity:1;fill-rule:nonzero;stroke:none"
         x="0"
         y="0">0.400</tspan></text>
    <path
       id="path21"
       d="M 57.996875,105.93981 H 711.1"
       style="fill:none;stroke:#e6e6e6;stroke-width:1;stroke-linecap:square;stroke-linejoin:round;stroke-miterlimit:10;stroke-dasharray:none;stroke-opacity:1"
       transform="matrix(1.3333333,0,0,-1.3333333,0,591.14166)"
       clip-path="url(#clipPath22)" />
    <text
       id="text22"
       xml:space="preserve"
       transform="matrix(1.3333333,0,0,1.3333333,27.829167,454.95108)"><tspan
         id="tspan22"
         style="font-variant:normal;font-weight:normal;font-size:10px;font-family:'DejaVu Sans';writing-mode:lr-tb;fill:#000000;fill-opacity:1;fill-rule:nonzero;stroke:none"
         x="0"
         y="0">0.425</tspan></text>
    <path
       id="path23"
       d="M 57.996875,150.72115 H 711.1"
       style="fill:none;stroke:#e6e6e6;stroke-width:1;stroke-linecap:square;stroke-linejoin:round;stroke-miterlimit:10;stroke-dasharray:none;stroke-opacity:1"
       transform="matrix(1.3333333,0,0,-1.3333333,0,591.14166)"
       clip-path="url(#clipPath24)" />
    <text
       id="text24"
       xml:space="preserve"
       transform="matrix(1.3333333,0,0,1.3333333,27.829167,395.24262)"><tspan
         id="tspan24"
         style="font-variant:normal;font-weight:normal;font-size:10px;font-family:'DejaVu Sans';writing-mode:lr-tb;fill:#000000;fill-opacity:1;fill-rule:nonzero;stroke:none"
         x="0"
         y="0">0.450</tspan></text>
    <path
       id="path25"
       d="M 57.996875,195.5025 H 711.1"
       style="fill:none;stroke:#e6e6e6;stroke-width:1;stroke-linecap:square;stroke-linejoin:round;stroke-miterlimit:10;stroke-dasharray:none;stroke-opacity:1"
       transform="matrix(1.3333333,0,0,-1.3333333,0,591.14166)"
       clip-path="url(#clipPath26)" />
    <text
       id="text26"
       xml:space="preserve"
       transform="matrix(1.3333333,0,0,1.3333333,27.829167,335.53416)"><tspan
         id="tspan26"
         style="font-variant:normal;font-weight:normal;font-size:10px;font-family:'DejaVu Sans';writing-mode:lr-tb;fill:#000000;fill-opacity:1;fill-rule:nonzero;stroke:none"
         x="0"
         y="0">0.475</tspan></text>
    <path
       id="path27"
       d="M 57.996875,240.28384 H 711.1"
       style="fill:none;stroke:#e6e6e6;stroke-width:1;stroke-linecap:square;stroke-linejoin:round;stroke-miterlimit:10;stroke-dasharray:none;stroke-opacity:1"
       transform="matrix(1.3333333,0,0,-1.3333333,0,591.14166)"
       clip-path="url(#clipPath28)" />
    <text
       id="text28"
       xml:space="preserve"
       transform="matrix(1.3333333,0,0,1.3333333,27.829167,275.8257)"><tspan
         id="tspan28"
         style="font-variant:normal;font-weight:normal;font-size:10px;font-family:'DejaVu Sans';writing-mode:lr-tb;fill:#000000;fill-opacity:1;fill-rule:nonzero;stroke:none"
         x="0"
         y="0">0.500</tspan></text>
    <path
       id="path29"
       d="M 57.996875,285.06519 H 711.1"
       style="fill:none;stroke:#e6e6e6;stroke-width:1;stroke-linecap:square;stroke-linejoin:round;stroke-miterlimit:10;stroke-dasharray:none;stroke-opacity:1"
       transform="matrix(1.3333333,0,0,-1.3333333,0,591.14166)"
       clip-path="url(#clipPath30)" />
    <text
       id="text30"
       xml:space="preserve"
       transform="matrix(1.3333333,0,0,1.3333333,27.829167,216.11724)"><tspan
         id="tspan30"
         style="font-variant:normal;font-weight:normal;font-size:10px;font-family:'DejaVu Sans';writing-mode:lr-tb;fill:#000000;fill-opacity:1;fill-rule:nonzero;stroke:none"
         x="0"
         y="0">0.525</tspan></text>
    <path
       id="path31"
       d="M 57.996875,329.84653 H 711.1"
       style="fill:none;stroke:#e6e6e6;stroke-width:1;stroke-linecap:square;stroke-linejoin:round;stroke-miterlimit:10;stroke-dasharray:none;stroke-opacity:1"
       transform="matrix(1.3333333,0,0,-1.3333333,0,591.14166)"
       clip-path="url(#clipPath32)" />
    <text
       id="text32"
       xml:space="preserve"
       transform="matrix(1.3333333,0,0,1.3333333,27.829167,156.40878)"><tspan
         id="tspan32"
         style="font-variant:normal;font-weight:normal;font-size:10px;font-family:'DejaVu Sans';writing-mode:lr-tb;fill:#000000;fill-opacity:1;fill-rule:nonzero;stroke:none"
         x="0"
         y="0">0.550</tspan></text>
    <path
       id="path33"
       d="M 57.996875,374.62788 H 711.1"
       style="fill:none;stroke:#e6e6e6;stroke-width:1;stroke-linecap:square;stroke-linejoin:round;stroke-miterlimit:10;stroke-dasharray:none;stroke-opacity:1"
       transform="matrix(1.3333333,0,0,-1.3333333,0,591.14166)"
       clip-path="url(#clipPath34)" />
    <text
       id="text34"
       xml:space="preserve"
       transform="matrix(1.3333333,0,0,1.3333333,27.829167,96.700315)"><tspan
         id="tspan34"
         style="font-variant:normal;font-weight:normal;font-size:10px;font-family:'DejaVu Sans';writing-mode:lr-tb;fill:#000000;fill-opacity:1;fill-rule:nonzero;stroke:none"
         x="0"
         y="0">0.575</tspan></text>
    <path
       id="path35"
       d="M 57.996875,419.40923 H 711.1"
       style="fill:none;stroke:#e6e6e6;stroke-width:1;stroke-linecap:square;stroke-linejoin:round;stroke-miterlimit:10;stroke-dasharray:none;stroke-opacity:1"
       transform="matrix(1.3333333,0,0,-1.3333333,0,591.14166)"
       clip-path="url(#clipPath36)" />
    <text
       id="text36"
       xml:space="preserve"
       transform="matrix(1.3333333,0,0,1.3333333,27.829167,36.991854)"><tspan
         id="tspan36"
         style="font-variant:normal;font-weight:normal;font-size:10px;font-family:'DejaVu Sans';writing-mode:lr-tb;fill:#000000;fill-opacity:1;fill-rule:nonzero;stroke:none"
         x="0"
         y="0">0.600</tspan></text>
    <text
       id="text37"
       xml:space="preserve"
       transform="matrix(0,-1.3333333,1.3333333,0,19.725,286.23749)"><tspan
         id="tspan37"
         style="font-variant:normal;font-weight:normal;font-size:10px;font-family:'DejaVu Sans';writing-mode:lr-tb;fill:#000000;fill-opacity:1;fill-rule:nonzero;stroke:none"
         x="0"
         y="0">loss</tspan></text>
    <path
       id="path37"
       d="m 87.683381,320.01445 10.795093,-142.15773 10.795096,-37.76905 10.79509,-10.7846 10.79509,-21.00487 10.7951,41.06499 10.79509,-31.88674 10.79509,3.03948 10.79509,-1.74669 10.7951,-19.149747 10.79509,-6.044738 10.79509,10.011015 10.7951,1.78964 10.79509,1.6022 10.79509,-29.184581 10.79509,12.681857 10.7951,7.047839 10.79509,-9.62402 10.79509,-5.531818 10.7951,-3.825076 10.79509,-6.681487 10.79509,13.279533 10.7951,-3.069141 10.79509,-11.420807 10.79509,3.358702 10.79509,1.436237 10.7951,9.190055 10.79509,15.829777 10.79509,-9.558638 10.7951,-3.099762 10.79509,-2.149354 10.79509,14.857024 10.7951,-19.487772 10.79509,-10.479142 10.79509,0.661774 10.79509,5.048391 10.7951,-8.259075 10.79509,10.570773 10.79509,-7.680074 10.7951,17.059899 10.79509,0.488851 10.79509,-12.434804 10.7951,-8.435923 10.79509,5.111668 10.79509,-12.334198 10.79509,5.16968 10.7951,-2.905396 10.79509,20.007147 10.79509,-15.101489 10.7951,-2.730175 10.79509,-0.04184"
       style="fill:none;stroke:#1f77b4;stroke-width:1.5;stroke-linecap:square;stroke-linejoin:round;stroke-miterlimit:10;stroke-dasharray:none;stroke-opacity:1"
       transform="matrix(1.3333333,0,0,-1.3333333,0,591.14166)"
       clip-path="url(#clipPath38)" />
    <path
       id="path39"
       d="m 87.683381,416.35567 10.795093,-116.48447 10.795096,31.04504 10.79509,-26.77794 10.79509,45.22933 10.7951,-25.89131 10.79509,-43.23865 10.79509,12.44834 10.79509,17.72089 10.7951,-37.84445 10.79509,14.81637 10.79509,17.62903 10.7951,-8.37763 10.79509,-3.29273 10.79509,8.47891 10.79509,-38.13872 10.7951,34.86233 10.79509,-36.65476 10.79509,17.13933 10.7951,-22.12145 10.79509,59.07815 10.79509,-47.42325 10.7951,24.19582 10.79509,-19.57497 10.79509,18.46076 10.79509,-7.2266 10.7951,38.43852 10.79509,-42.4362 10.79509,17.08568 10.7951,-28.88901 10.79509,-15.08968 10.79509,55.92987 10.7951,-34.08844 10.79509,-3.3121 10.79509,20.19237 10.79509,-39.2719 10.7951,53.15247 10.79509,-32.65149 10.79509,6.99287 10.7951,7.75531 10.79509,-18.22615 10.79509,14.74051 10.7951,49.44717 10.79509,-73.60542 10.79509,43.05262 10.79509,-42.37544 10.7951,75.32379 10.79509,-23.48695 10.79509,-38.71076 10.7951,17.84955 10.79509,-28.85072"
       style="fill:none;stroke:#1f77b4;stroke-width:1.5;stroke-linecap:butt;stroke-linejoin:round;stroke-miterlimit:10;stroke-dasharray:9.6, 2.4, 1.5, 2.4;stroke-dashoffset:0;stroke-opacity:1"
       transform="matrix(1.3333333,0,0,-1.3333333,0,591.14166)"
       clip-path="url(#clipPath40)" />
    <path
       id="path41"
       d="m 87.683381,323.94451 10.795093,-107.21064 10.795096,-34.03903 10.79509,-9.39351 10.79509,5.69592 10.7951,5.55122 10.79509,-10.14821 10.79509,6.68757 10.79509,-17.35812 10.7951,-3.52012 10.79509,-22.37436 10.79509,12.72811 10.7951,24.02999 10.79509,-19.39526 10.79509,-2.25511 10.79509,-10.07318 10.7951,27.03293 10.79509,-24.94727 10.79509,8.39346 10.7951,-11.38596 10.79509,4.05941 10.79509,-1.24733 10.7951,3.33815 10.79509,-18.21577 10.79509,6.00656 10.79509,3.93034 10.7951,-2.49321 10.79509,5.38905 10.79509,-10.71698 10.7951,4.60795 10.79509,7.10111"
       style="fill:none;stroke:#ff7f0e;stroke-width:1.5;stroke-linecap:square;stroke-linejoin:round;stroke-miterlimit:10;stroke-dasharray:none;stroke-opacity:1"
       transform="matrix(1.3333333,0,0,-1.3333333,0,591.14166)"
       clip-path="url(#clipPath42)" />
    <path
       id="path43"
       d="m 87.683381,395.02162 10.795093,-57.69138 10.795096,12.73284 10.79509,-0.39079 10.79509,-15.24025 10.7951,-18.79626 10.79509,14.99191 10.79509,-10.41223 10.79509,-19.93032 10.7951,-3.33676 10.79509,-10.42043 10.79509,57.064 10.7951,-15.16122 10.79509,-13.01764 10.79509,19.56138 10.79509,-33.05029 10.7951,8.51412 10.79509,-21.89514 10.79509,29.22288 10.7951,-24.92381 10.79509,38.86523 10.79509,-25.3546 10.7951,7.23942 10.79509,-15.19188 10.79509,20.47553 10.79509,4.65901 10.7951,-1.56893 10.79509,-24.87591 10.79509,39.83202 10.7951,-41.33414 10.79509,-6.06683"
       style="fill:none;stroke:#ff7f0e;stroke-width:1.5;stroke-linecap:butt;stroke-linejoin:round;stroke-miterlimit:10;stroke-dasharray:9.6, 2.4, 1.5, 2.4;stroke-dashoffset:0;stroke-opacity:1"
       transform="matrix(1.3333333,0,0,-1.3333333,0,591.14166)"
       clip-path="url(#clipPath44)" />
    <path
       id="path45"
       d="m 87.683381,328.10852 10.795093,-127.72997 10.795096,-37.5026 10.79509,-17.70864 10.79509,-3.71496 10.7951,8.42561 10.79509,-9.77021 10.79509,-1.81113 10.79509,1.13181 10.7951,1.33453 10.79509,-10.52633 10.79509,-1.11907 10.7951,1.30366 10.79509,-19.22841 10.79509,5.51835 10.79509,-3.83777 10.7951,14.59687 10.79509,-8.0702 10.79509,-11.347 10.7951,12.74816 10.79509,-1.24309 10.79509,-13.96593 10.7951,6.5698 10.79509,-12.661689 10.79509,3.134329 10.79509,6.0985 10.7951,-6.91102 10.79509,3.50886 10.79509,-24.56928 10.7951,20.25675 10.79509,0.59163 10.79509,5.42483 10.7951,-2.67802 10.79509,16.15853 10.79509,-24.558791 10.79509,1.029747 10.7951,5.033644 10.79509,-12.85412 10.79509,5.905746 10.7951,8.512694 10.79509,-4.006777 10.79509,10.630457 10.7951,-21.188815 10.79509,5.379445 10.79509,-11.077295 10.79509,7.183699 10.7951,-2.877388 10.79509,-9.213631 10.79509,4.428083 10.7951,9.310907 10.79509,-4.099661 10.79509,-1.442343 10.79509,14.467949 10.7951,-9.112251 10.79509,2.104459 10.79509,-14.493272"
       style="fill:none;stroke:#2ca02c;stroke-width:1.5;stroke-linecap:square;stroke-linejoin:round;stroke-miterlimit:10;stroke-dasharray:none;stroke-opacity:1"
       transform="matrix(1.3333333,0,0,-1.3333333,0,591.14166)"
       clip-path="url(#clipPath46)" />
    <path
       id="path47"
       d="m 87.683381,361.69647 10.795093,-24.98847 10.795096,7.60411 10.79509,-8.80294 10.79509,-15.44192 10.7951,-17.04078 10.79509,8.60963 10.79509,-6.68369 10.79509,-18.52502 10.7951,5.73343 10.79509,-14.32716 10.79509,44.70858 10.7951,9.2867 10.79509,-22.35712 10.79509,11.63029 10.79509,-25.44095 10.7951,13.30516 10.79509,-27.60294 10.79509,13.10926 10.7951,-9.71768 10.79509,18.45049 10.79509,-15.17734 10.7951,4.16594 10.79509,-20.30393 10.79509,41.62677 10.79509,-14.39482 10.7951,5.24664 10.79509,-24.31863 10.79509,19.80596 10.7951,-18.01624 10.79509,2.13067 10.79509,31.44006 10.7951,-5.44617 10.79509,-27.07163 10.79509,49.89638 10.79509,-67.83098 10.7951,1.40464 10.79509,5.48299 10.79509,73.2882 10.7951,-58.53143 10.79509,-2.26222 10.79509,-4.40535 10.7951,16.66079 10.79509,-29.19328 10.79509,51.56128 10.79509,-11.98884 10.7951,-12.0023 10.79509,13.08258 10.79509,-35.15965 10.7951,11.31797 10.79509,-17.27704 10.79509,15.01185 10.79509,45.95946 10.7951,-24.83473 10.79509,-30.51281 10.79509,-6.08528"
       style="fill:none;stroke:#2ca02c;stroke-width:1.5;stroke-linecap:butt;stroke-linejoin:round;stroke-miterlimit:10;stroke-dasharray:9.6, 2.4, 1.5, 2.4;stroke-dashoffset:0;stroke-opacity:1"
       transform="matrix(1.3333333,0,0,-1.3333333,0,591.14166)"
       clip-path="url(#clipPath48)" />
    <path
       id="path49"
       d="M 558.4125,338.12499 H 704.1 c 1.33333,0 2,0.66667 2,2 v 87.03125 c 0,1.33334 -0.66667,2 -2,2 H 558.4125 c -1.33333,0 -2,-0.66666 -2,-2 v -87.03125 c 0,-1.33333 0.66667,-2 2,-2 z"
       style="fill:#ffffff;fill-opacity:0.8;fill-rule:nonzero;stroke:#cccccc;stroke-width:1;stroke-linecap:butt;stroke-linejoin:miter;stroke-miterlimit:10;stroke-dasharray:none;stroke-opacity:0.8"
       transform="matrix(1.3333333,0,0,-1.3333333,0,591.14166)" />
    <path
       id="path50"
       d="m 560.4125,421.06249 h 20"
       style="fill:none;stroke:#1f77b4;stroke-width:1.5;stroke-linecap:square;stroke-linejoin:round;stroke-miterlimit:10;stroke-dasharray:none;stroke-opacity:1"
       transform="matrix(1.3333333,0,0,-1.3333333,0,591.14166)" />
    <text
       id="text50"
       xml:space="preserve"
       transform="matrix(1.3333333,0,0,1.3333333,784.55,34.391667)"><tspan
         id="tspan50"
         style="font-variant:normal;font-weight:normal;font-size:10px;font-family:'DejaVu Sans';writing-mode:lr-tb;fill:#000000;fill-opacity:1;fill-rule:nonzero;stroke:none"
         x="0"
         y="0">DES train loss</tspan></text>
    <path
       id="path51"
       d="m 560.4125,406.39062 h 20"
       style="fill:none;stroke:#1f77b4;stroke-width:1.5;stroke-linecap:butt;stroke-linejoin:round;stroke-miterlimit:10;stroke-dasharray:9.6, 2.4, 1.5, 2.4;stroke-dashoffset:0;stroke-opacity:1"
       transform="matrix(1.3333333,0,0,-1.3333333,0,591.14166)" />
    <text
       id="text51"
       xml:space="preserve"
       transform="matrix(1.3333333,0,0,1.3333333,784.55,53.954167)"><tspan
         id="tspan51"
         style="font-variant:normal;font-weight:normal;font-size:10px;font-family:'DejaVu Sans';writing-mode:lr-tb;fill:#000000;fill-opacity:1;fill-rule:nonzero;stroke:none"
         x="0"
         y="0">DES validation loss</tspan></text>
    <path
       id="path52"
       d="m 560.4125,391.71874 h 20"
       style="fill:none;stroke:#ff7f0e;stroke-width:1.5;stroke-linecap:square;stroke-linejoin:round;stroke-miterlimit:10;stroke-dasharray:none;stroke-opacity:1"
       transform="matrix(1.3333333,0,0,-1.3333333,0,591.14166)" />
    <text
       id="text52"
       xml:space="preserve"
       transform="matrix(1.3333333,0,0,1.3333333,784.55,73.516667)"><tspan
         id="tspan52"
         style="font-variant:normal;font-weight:normal;font-size:10px;font-family:'DejaVu Sans';writing-mode:lr-tb;fill:#000000;fill-opacity:1;fill-rule:nonzero;stroke:none"
         x="0"
         y="0">CMA-ES train loss</tspan></text>
    <path
       id="path53"
       d="m 560.4125,377.04687 h 20"
       style="fill:none;stroke:#ff7f0e;stroke-width:1.5;stroke-linecap:butt;stroke-linejoin:round;stroke-miterlimit:10;stroke-dasharray:9.6, 2.4, 1.5, 2.4;stroke-dashoffset:0;stroke-opacity:1"
       transform="matrix(1.3333333,0,0,-1.3333333,0,591.14166)" />
    <text
       id="text53"
       xml:space="preserve"
       transform="matrix(1.3333333,0,0,1.3333333,784.55,93.079167)"><tspan
         id="tspan53"
         style="font-variant:normal;font-weight:normal;font-size:10px;font-family:'DejaVu Sans';writing-mode:lr-tb;fill:#000000;fill-opacity:1;fill-rule:nonzero;stroke:none"
         x="0"
         y="0">CMA-ES validation loss</tspan></text>
    <path
       id="path54"
       d="m 560.4125,362.37499 h 20"
       style="fill:none;stroke:#2ca02c;stroke-width:1.5;stroke-linecap:square;stroke-linejoin:round;stroke-miterlimit:10;stroke-dasharray:none;stroke-opacity:1"
       transform="matrix(1.3333333,0,0,-1.3333333,0,591.14166)" />
    <text
       id="text54"
       xml:space="preserve"
       transform="matrix(1.3333333,0,0,1.3333333,784.55,112.64167)"><tspan
         id="tspan54"
         style="font-variant:normal;font-weight:normal;font-size:10px;font-family:'DejaVu Sans';writing-mode:lr-tb;fill:#000000;fill-opacity:1;fill-rule:nonzero;stroke:none"
         x="0"
         y="0">jSO train loss</tspan></text>
    <path
       id="path55"
       d="m 560.4125,347.70312 h 20"
       style="fill:none;stroke:#2ca02c;stroke-width:1.5;stroke-linecap:butt;stroke-linejoin:round;stroke-miterlimit:10;stroke-dasharray:9.6, 2.4, 1.5, 2.4;stroke-dashoffset:0;stroke-opacity:1"
       transform="matrix(1.3333333,0,0,-1.3333333,0,591.14166)" />
    <text
       id="text55"
       xml:space="preserve"
       transform="matrix(1.3333333,0,0,1.3333333,784.55,132.20417)"><tspan
         id="tspan55"
         style="font-variant:normal;font-weight:normal;font-size:10px;font-family:'DejaVu Sans';writing-mode:lr-tb;fill:#000000;fill-opacity:1;fill-rule:nonzero;stroke:none"
         x="0"
         y="0">jSO validation loss</tspan></text>
  </g>
</svg>
