<?xml version="1.0" encoding="UTF-8" standalone="no"?>
<!-- Created with Inkscape (http://www.inkscape.org/) -->

<svg
   version="1.1"
   id="svg1"
   width="962.40002"
   height="591.14166"
   viewBox="0 0 962.40002 591.14166"
   xmlns="http://www.w3.org/2000/svg"
   xmlns:svg="http://www.w3.org/2000/svg">
  <defs
     id="defs1">
    <clipPath
       clipPathUnits="userSpaceOnUse"
       id="clipPath2">
      <path
         d="M 51.6375,42.54375 H 711.1 V 434.15624 H 51.6375 Z"
         id="path2" />
    </clipPath>
    <clipPath
       clipPathUnits="userSpaceOnUse"
       id="clipPath5">
      <path
         d="M 51.6375,42.54375 H 711.1 V 434.15624 H 51.6375 Z"
         id="path5" />
    </clipPath>
    <clipPath
       clipPathUnits="userSpaceOnUse"
       id="clipPath8">
      <path
         d="M 51.6375,42.54375 H 711.1 V 434.15624 H 51.6375 Z"
         id="path8" />
    </clipPath>
    <clipPath
       clipPathUnits="userSpaceOnUse"
       id="clipPath11">
      <path
         d="M 51.6375,42.54375 H 711.1 V 434.15624 H 51.6375 Z"
         id="path11" />
    </clipPath>
    <clipPath
       clipPathUnits="userSpaceOnUse"
       id="clipPath14">
      <path
         d="M 51.6375,42.54375 H 711.1 V 434.15624 H 51.6375 Z"
         id="path14" />
    </clipPath>
    <clipPath
       clipPathUnits="userSpaceOnUse"
       id="clipPath17">
      <path
         d="M 51.6375,42.54375 H 711.1 V 434.15624 H 51.6375 Z"
         id="path17" />
    </clipPath>
    <clipPath
       clipPathUnits="userSpaceOnUse"
       id="clipPath20">
      <path
         d="M 51.6375,42.54375 H 711.1 V 434.15624 H 51.6375 Z"
         id="path20" />
    </clipPath>
    <clipPath
       clipPathUnits="userSpaceOnUse"
       id="clipPath22">
      <path
         d="M 51.6375,42.54375 H 711.1 V 434.15624 H 51.6375 Z"
         id="path22" />
    </clipPath>
    <clipPath
       clipPathUnits="userSpaceOnUse"
       id="clipPath24">
      <path
         d="M 51.6375,42.54375 H 711.1 V 434.15624 H 51.6375 Z"
         id="path24" />
    </clipPath>
    <clipPath
       clipPathUnits="userSpaceOnUse"
       id="clipPath26">
      <path
         d="M 51.6375,42.54375 H 711.1 V 434.15624 H 51.6375 Z"
         id="path26" />
    </clipPath>
    <clipPath
       clipPathUnits="userSpaceOnUse"
       id="clipPath28">
      <path
         d="M 51.6375,42.54375 H 711.1 V 434.15624 H 51.6375 Z"
         id="path28" />
    </clipPath>
    <clipPath
       clipPathUnits="userSpaceOnUse"
       id="clipPath30">
      <path
         d="M 51.6375,42.54375 H 711.1 V 434.15624 H 51.6375 Z"
         id="path30" />
    </clipPath>
    <clipPath
       clipPathUnits="userSpaceOnUse"
       id="clipPath32">
      <path
         d="M 51.6375,42.54375 H 711.1 V 434.15624 H 51.6375 Z"
         id="path32" />
    </clipPath>
    <clipPath
       clipPathUnits="userSpaceOnUse"
       id="clipPath34">
      <path
         d="M 51.6375,42.54375 H 711.1 V 434.15624 H 51.6375 Z"
         id="path34" />
    </clipPath>
    <clipPath
       clipPathUnits="userSpaceOnUse"
       id="clipPath36">
      <path
         d="M 51.6375,42.54375 H 711.1 V 434.15624 H 51.6375 Z"
         id="path36" />
    </clipPath>
    <clipPath
       clipPathUnits="userSpaceOnUse"
       id="clipPath38">
      <path
         d="M 51.6375,42.54375 H 711.1 V 434.15624 H 51.6375 Z"
         id="path38" />
    </clipPath>
    <clipPath
       clipPathUnits="userSpaceOnUse"
       id="clipPath40">
      <path
         d="M 51.6375,42.54375 H 711.1 V 434.15624 H 51.6375 Z"
         id="path40" />
    </clipPath>
    <clipPath
       clipPathUnits="userSpaceOnUse"
       id="clipPath42">
      <path
         d="M 51.6375,42.54375 H 711.1 V 434.15624 H 51.6375 Z"
         id="path42" />
    </clipPath>
    <clipPath
       clipPathUnits="userSpaceOnUse"
       id="clipPath44">
      <path
         d="M 51.6375,42.54375 H 711.1 V 434.15624 H 51.6375 Z"
         id="path44" />
    </clipPath>
    <clipPath
       clipPathUnits="userSpaceOnUse"
       id="clipPath46">
      <path
         d="M 51.6375,42.54375 H 711.1 V 434.15624 H 51.6375 Z"
         id="path46" />
    </clipPath>
    <clipPath
       clipPathUnits="userSpaceOnUse"
       id="clipPath48">
      <path
         d="M 51.6375,42.54375 H 711.1 V 434.15624 H 51.6375 Z"
         id="path48" />
    </clipPath>
  </defs>
  <g
     id="g1">
    <path
       id="path1"
       d="M 81.613068,42.54375 V 434.15624"
       style="fill:none;stroke:#e6e6e6;stroke-width:1;stroke-linecap:square;stroke-linejoin:round;stroke-miterlimit:10;stroke-dasharray:none;stroke-opacity:1"
       transform="matrix(1.3333333,0,0,-1.3333333,0,591.14166)"
       clip-path="url(#clipPath2)" />
    <path
       id="path3"
       d="m 81.613068,37.54375 v -3.5"
       style="fill:#000000;fill-opacity:1;fill-rule:nonzero;stroke:#000000;stroke-width:0.8;stroke-linecap:butt;stroke-linejoin:round;stroke-miterlimit:10;stroke-dasharray:none;stroke-opacity:1"
       transform="matrix(1.3333333,0,0,-1.3333333,0,591.14166)" />
    <text
       id="text3"
       xml:space="preserve"
       transform="matrix(1.3333333,0,0,1.3333333,104.57784,560.54166)"><tspan
         id="tspan3"
         style="font-variant:normal;font-weight:normal;font-size:10px;font-family:'DejaVu Sans';writing-mode:lr-tb;fill:#000000;fill-opacity:1;fill-rule:nonzero;stroke:none"
         x="0"
         y="0">0</tspan></text>
    <path
       id="path4"
       d="M 190.61513,42.54375 V 434.15624"
       style="fill:none;stroke:#e6e6e6;stroke-width:1;stroke-linecap:square;stroke-linejoin:round;stroke-miterlimit:10;stroke-dasharray:none;stroke-opacity:1"
       transform="matrix(1.3333333,0,0,-1.3333333,0,591.14166)"
       clip-path="url(#clipPath5)" />
    <path
       id="path6"
       d="m 190.61513,37.54375 v -3.5"
       style="fill:#000000;fill-opacity:1;fill-rule:nonzero;stroke:#000000;stroke-width:0.8;stroke-linecap:butt;stroke-linejoin:round;stroke-miterlimit:10;stroke-dasharray:none;stroke-opacity:1"
       transform="matrix(1.3333333,0,0,-1.3333333,0,591.14166)" />
    <text
       id="text6"
       xml:space="preserve"
       transform="matrix(1.3333333,0,0,1.3333333,245.67435,560.54166)"><tspan
         id="tspan6"
         style="font-variant:normal;font-weight:normal;font-size:10px;font-family:'DejaVu Sans';writing-mode:lr-tb;fill:#000000;fill-opacity:1;fill-rule:nonzero;stroke:none"
         x="0"
         y="0">10</tspan></text>
    <path
       id="path7"
       d="M 299.6172,42.54375 V 434.15624"
       style="fill:none;stroke:#e6e6e6;stroke-width:1;stroke-linecap:square;stroke-linejoin:round;stroke-miterlimit:10;stroke-dasharray:none;stroke-opacity:1"
       transform="matrix(1.3333333,0,0,-1.3333333,0,591.14166)"
       clip-path="url(#clipPath8)" />
    <path
       id="path9"
       d="m 299.6172,37.54375 v -3.5"
       style="fill:#000000;fill-opacity:1;fill-rule:nonzero;stroke:#000000;stroke-width:0.8;stroke-linecap:butt;stroke-linejoin:round;stroke-miterlimit:10;stroke-dasharray:none;stroke-opacity:1"
       transform="matrix(1.3333333,0,0,-1.3333333,0,591.14166)" />
    <text
       id="text9"
       xml:space="preserve"
       transform="matrix(1.3333333,0,0,1.3333333,391.01043,560.54166)"><tspan
         id="tspan9"
         style="font-variant:normal;font-weight:normal;font-size:10px;font-family:'DejaVu Sans';writing-mode:lr-tb;fill:#000000;fill-opacity:1;fill-rule:nonzero;stroke:none"
         x="0"
         y="0">20</tspan></text>
    <path
       id="path10"
       d="M 408.61927,42.54375 V 434.15624"
       style="fill:none;stroke:#e6e6e6;stroke-width:1;stroke-linecap:square;stroke-linejoin:round;stroke-miterlimit:10;stroke-dasharray:none;stroke-opacity:1"
       transform="matrix(1.3333333,0,0,-1.3333333,0,591.14166)"
       clip-path="url(#clipPath11)" />
    <path
       id="path12"
       d="m 408.61927,37.54375 v -3.5"
       style="fill:#000000;fill-opacity:1;fill-rule:nonzero;stroke:#000000;stroke-width:0.8;stroke-linecap:butt;stroke-linejoin:round;stroke-miterlimit:10;stroke-dasharray:none;stroke-opacity:1"
       transform="matrix(1.3333333,0,0,-1.3333333,0,591.14166)" />
    <text
       id="text12"
       xml:space="preserve"
       transform="matrix(1.3333333,0,0,1.3333333,536.34652,560.54166)"><tspan
         id="tspan12"
         style="font-variant:normal;font-weight:normal;font-size:10px;font-family:'DejaVu Sans';writing-mode:lr-tb;fill:#000000;fill-opacity:1;fill-rule:nonzero;stroke:none"
         x="0"
         y="0">30</tspan></text>
    <path
       id="path13"
       d="M 517.62133,42.54375 V 434.15624"
       style="fill:none;stroke:#e6e6e6;stroke-width:1;stroke-linecap:square;stroke-linejoin:round;stroke-miterlimit:10;stroke-dasharray:none;stroke-opacity:1"
       transform="matrix(1.3333333,0,0,-1.3333333,0,591.14166)"
       clip-path="url(#clipPath14)" />
    <path
       id="path15"
       d="m 517.62133,37.54375 v -3.5"
       style="fill:#000000;fill-opacity:1;fill-rule:nonzero;stroke:#000000;stroke-width:0.8;stroke-linecap:butt;stroke-linejoin:round;stroke-miterlimit:10;stroke-dasharray:none;stroke-opacity:1"
       transform="matrix(1.3333333,0,0,-1.3333333,0,591.14166)" />
    <text
       id="text15"
       xml:space="preserve"
       transform="matrix(1.3333333,0,0,1.3333333,681.68261,560.54166)"><tspan
         id="tspan15"
         style="font-variant:normal;font-weight:normal;font-size:10px;font-family:'DejaVu Sans';writing-mode:lr-tb;fill:#000000;fill-opacity:1;fill-rule:nonzero;stroke:none"
         x="0"
         y="0">40</tspan></text>
    <path
       id="path16"
       d="M 626.6234,42.54375 V 434.15624"
       style="fill:none;stroke:#e6e6e6;stroke-width:1;stroke-linecap:square;stroke-linejoin:round;stroke-miterlimit:10;stroke-dasharray:none;stroke-opacity:1"
       transform="matrix(1.3333333,0,0,-1.3333333,0,591.14166)"
       clip-path="url(#clipPath17)" />
    <path
       id="path18"
       d="m 626.6234,37.54375 v -3.5"
       style="fill:#000000;fill-opacity:1;fill-rule:nonzero;stroke:#000000;stroke-width:0.8;stroke-linecap:butt;stroke-linejoin:round;stroke-miterlimit:10;stroke-dasharray:none;stroke-opacity:1"
       transform="matrix(1.3333333,0,0,-1.3333333,0,591.14166)" />
    <text
       id="text18"
       xml:space="preserve"
       transform="matrix(1.3333333,0,0,1.3333333,827.0187,560.54166)"><tspan
         id="tspan18"
         style="font-variant:normal;font-weight:normal;font-size:10px;font-family:'DejaVu Sans';writing-mode:lr-tb;fill:#000000;fill-opacity:1;fill-rule:nonzero;stroke:none"
         x="0"
         y="0">50</tspan></text>
    <text
       id="text19"
       xml:space="preserve"
       transform="matrix(1.3333333,0,0,1.3333333,488.17917,578.77082)"><tspan
         id="tspan19"
         style="font-variant:normal;font-weight:normal;font-size:10px;font-family:'DejaVu Sans';writing-mode:lr-tb;fill:#000000;fill-opacity:1;fill-rule:nonzero;stroke:none"
         x="0"
         y="0">epoch</tspan></text>
    <path
       id="path19"
       d="M 51.6375,67.707395 H 711.1"
       style="fill:none;stroke:#e6e6e6;stroke-width:1;stroke-linecap:square;stroke-linejoin:round;stroke-miterlimit:10;stroke-dasharray:none;stroke-opacity:1"
       transform="matrix(1.3333333,0,0,-1.3333333,0,591.14166)"
       clip-path="url(#clipPath20)" />
    <text
       id="text20"
       xml:space="preserve"
       transform="matrix(1.3333333,0,0,1.3333333,27.829167,505.92763)"><tspan
         id="tspan20"
         style="font-variant:normal;font-weight:normal;font-size:10px;font-family:'DejaVu Sans';writing-mode:lr-tb;fill:#000000;fill-opacity:1;fill-rule:nonzero;stroke:none"
         x="0"
         y="0">0.74</tspan></text>
    <path
       id="path21"
       d="M 51.6375,112.09928 H 711.1"
       style="fill:none;stroke:#e6e6e6;stroke-width:1;stroke-linecap:square;stroke-linejoin:round;stroke-miterlimit:10;stroke-dasharray:none;stroke-opacity:1"
       transform="matrix(1.3333333,0,0,-1.3333333,0,591.14166)"
       clip-path="url(#clipPath22)" />
    <text
       id="text22"
       xml:space="preserve"
       transform="matrix(1.3333333,0,0,1.3333333,27.829167,446.73845)"><tspan
         id="tspan22"
         style="font-variant:normal;font-weight:normal;font-size:10px;font-family:'DejaVu Sans';writing-mode:lr-tb;fill:#000000;fill-opacity:1;fill-rule:nonzero;stroke:none"
         x="0"
         y="0">0.76</tspan></text>
    <path
       id="path23"
       d="M 51.6375,156.49116 H 711.1"
       style="fill:none;stroke:#e6e6e6;stroke-width:1;stroke-linecap:square;stroke-linejoin:round;stroke-miterlimit:10;stroke-dasharray:none;stroke-opacity:1"
       transform="matrix(1.3333333,0,0,-1.3333333,0,591.14166)"
       clip-path="url(#clipPath24)" />
    <text
       id="text24"
       xml:space="preserve"
       transform="matrix(1.3333333,0,0,1.3333333,27.829167,387.54928)"><tspan
         id="tspan24"
         style="font-variant:normal;font-weight:normal;font-size:10px;font-family:'DejaVu Sans';writing-mode:lr-tb;fill:#000000;fill-opacity:1;fill-rule:nonzero;stroke:none"
         x="0"
         y="0">0.78</tspan></text>
    <path
       id="path25"
       d="M 51.6375,200.88304 H 711.1"
       style="fill:none;stroke:#e6e6e6;stroke-width:1;stroke-linecap:square;stroke-linejoin:round;stroke-miterlimit:10;stroke-dasharray:none;stroke-opacity:1"
       transform="matrix(1.3333333,0,0,-1.3333333,0,591.14166)"
       clip-path="url(#clipPath26)" />
    <text
       id="text26"
       xml:space="preserve"
       transform="matrix(1.3333333,0,0,1.3333333,27.829167,328.3601)"><tspan
         id="tspan26"
         style="font-variant:normal;font-weight:normal;font-size:10px;font-family:'DejaVu Sans';writing-mode:lr-tb;fill:#000000;fill-opacity:1;fill-rule:nonzero;stroke:none"
         x="0"
         y="0">0.80</tspan></text>
    <path
       id="path27"
       d="M 51.6375,245.27493 H 711.1"
       style="fill:none;stroke:#e6e6e6;stroke-width:1;stroke-linecap:square;stroke-linejoin:round;stroke-miterlimit:10;stroke-dasharray:none;stroke-opacity:1"
       transform="matrix(1.3333333,0,0,-1.3333333,0,591.14166)"
       clip-path="url(#clipPath28)" />
    <text
       id="text28"
       xml:space="preserve"
       transform="matrix(1.3333333,0,0,1.3333333,27.829167,269.17092)"><tspan
         id="tspan28"
         style="font-variant:normal;font-weight:normal;font-size:10px;font-family:'DejaVu Sans';writing-mode:lr-tb;fill:#000000;fill-opacity:1;fill-rule:nonzero;stroke:none"
         x="0"
         y="0">0.82</tspan></text>
    <path
       id="path29"
       d="M 51.6375,289.66681 H 711.1"
       style="fill:none;stroke:#e6e6e6;stroke-width:1;stroke-linecap:square;stroke-linejoin:round;stroke-miterlimit:10;stroke-dasharray:none;stroke-opacity:1"
       transform="matrix(1.3333333,0,0,-1.3333333,0,591.14166)"
       clip-path="url(#clipPath30)" />
    <text
       id="text30"
       xml:space="preserve"
       transform="matrix(1.3333333,0,0,1.3333333,27.829167,209.98174)"><tspan
         id="tspan30"
         style="font-variant:normal;font-weight:normal;font-size:10px;font-family:'DejaVu Sans';writing-mode:lr-tb;fill:#000000;fill-opacity:1;fill-rule:nonzero;stroke:none"
         x="0"
         y="0">0.84</tspan></text>
    <path
       id="path31"
       d="M 51.6375,334.05869 H 711.1"
       style="fill:none;stroke:#e6e6e6;stroke-width:1;stroke-linecap:square;stroke-linejoin:round;stroke-miterlimit:10;stroke-dasharray:none;stroke-opacity:1"
       transform="matrix(1.3333333,0,0,-1.3333333,0,591.14166)"
       clip-path="url(#clipPath32)" />
    <text
       id="text32"
       xml:space="preserve"
       transform="matrix(1.3333333,0,0,1.3333333,27.829167,150.79256)"><tspan
         id="tspan32"
         style="font-variant:normal;font-weight:normal;font-size:10px;font-family:'DejaVu Sans';writing-mode:lr-tb;fill:#000000;fill-opacity:1;fill-rule:nonzero;stroke:none"
         x="0"
         y="0">0.86</tspan></text>
    <path
       id="path33"
       d="M 51.6375,378.45058 H 711.1"
       style="fill:none;stroke:#e6e6e6;stroke-width:1;stroke-linecap:square;stroke-linejoin:round;stroke-miterlimit:10;stroke-dasharray:none;stroke-opacity:1"
       transform="matrix(1.3333333,0,0,-1.3333333,0,591.14166)"
       clip-path="url(#clipPath34)" />
    <text
       id="text34"
       xml:space="preserve"
       transform="matrix(1.3333333,0,0,1.3333333,27.829167,91.603387)"><tspan
         id="tspan34"
         style="font-variant:normal;font-weight:normal;font-size:10px;font-family:'DejaVu Sans';writing-mode:lr-tb;fill:#000000;fill-opacity:1;fill-rule:nonzero;stroke:none"
         x="0"
         y="0">0.88</tspan></text>
    <path
       id="path35"
       d="M 51.6375,422.84246 H 711.1"
       style="fill:none;stroke:#e6e6e6;stroke-width:1;stroke-linecap:square;stroke-linejoin:round;stroke-miterlimit:10;stroke-dasharray:none;stroke-opacity:1"
       transform="matrix(1.3333333,0,0,-1.3333333,0,591.14166)"
       clip-path="url(#clipPath36)" />
    <text
       id="text36"
       xml:space="preserve"
       transform="matrix(1.3333333,0,0,1.3333333,27.829167,32.41421)"><tspan
         id="tspan36"
         style="font-variant:normal;font-weight:normal;font-size:10px;font-family:'DejaVu Sans';writing-mode:lr-tb;fill:#000000;fill-opacity:1;fill-rule:nonzero;stroke:none"
         x="0"
         y="0">0.90</tspan></text>
    <text
       id="text37"
       xml:space="preserve"
       transform="matrix(0,-1.3333333,1.3333333,0,19.725,292.08124)"><tspan
         id="tspan37"
         style="font-variant:normal;font-weight:normal;font-size:10px;font-family:'DejaVu Sans';writing-mode:lr-tb;fill:#000000;fill-opacity:1;fill-rule:nonzero;stroke:none"
         x="0"
         y="0">RAUC</tspan></text>
    <path
       id="path37"
       d="m 81.613068,300.25094 10.900207,37.12292 10.900205,-0.63056 10.90021,13.93954 10.90021,0.0201 10.9002,2.12648 10.90021,6.53374 10.9002,2.88451 10.90021,-1.54287 10.90021,10.18297 10.9002,0.61715 10.90021,-4.06514 10.90021,1.18064 10.9002,-0.60374 10.90021,13.71147 10.90021,-10.41106 10.9002,13.52365 10.90021,1.70387 10.90021,-6.62766 10.9002,8.29128 10.90021,-5.52752 10.90021,5.99709 10.9002,-0.2415 10.90021,1.01964 10.90021,7.27164 10.9002,-1.59654 10.90021,2.36127 10.90021,-5.20552 10.9002,-1.20747 10.90021,0.55007 10.90021,6.02392 10.9002,-21.92225 10.90021,23.49196 10.90021,-4.10539 10.9002,-1.16722 10.90021,10.51838 10.90021,-5.97025 10.9002,4.33346 10.90021,-1.46237 10.90021,4.05172 10.9002,-8.88159 10.90021,12.03442 10.90021,-15.97882 10.9002,11.94052 10.90021,2.92475 10.90021,0.42932 10.9002,-6.97648 10.90021,3.95781 10.90021,-0.26832 10.9002,3.48824 10.90021,8.26444"
       style="fill:none;stroke:#1f77b4;stroke-width:1.5;stroke-linecap:square;stroke-linejoin:round;stroke-miterlimit:10;stroke-dasharray:none;stroke-opacity:1"
       transform="matrix(1.3333333,0,0,-1.3333333,0,591.14166)"
       clip-path="url(#clipPath38)" />
    <path
       id="path39"
       d="m 81.613068,60.344318 10.900207,141.499122 10.900205,-2.98791 10.90021,44.81873 10.90021,-24.54359 10.9002,-6.40268 10.90021,32.01338 10.9002,-27.5315 10.90021,33.50733 10.90021,11.73824 10.9002,-8.75032 10.90021,-7.25637 10.90021,19.63487 10.9002,-30.51942 10.90021,-22.19594 10.90021,62.5328 10.9002,-31.15969 10.90021,27.95835 10.90021,-29.45231 10.9002,54.84959 10.90021,-51.43483 10.90021,35.0013 10.9002,-12.16509 10.90021,-1.70738 10.90021,-15.153 10.9002,8.32348 10.90021,10.67113 10.90021,-4.90872 10.9002,-67.01467 10.90021,76.61868 10.90021,14.51273 10.9002,-90.0643 10.90021,61.67911 10.90021,-2.13423 10.9002,-29.66573 10.90021,58.6912 10.90021,-33.93418 10.9002,-5.76241 10.90021,13.44562 10.90021,1.06711 10.9002,-4.6953 10.90021,-9.39059 10.90021,-61.89253 10.9002,110.55287 10.90021,-59.75831 10.90021,47.3798 10.9002,-110.33944 10.90021,64.66702 10.90021,49.72745 10.9002,-79.39318 10.90021,96.89382"
       style="fill:none;stroke:#1f77b4;stroke-width:1.5;stroke-linecap:butt;stroke-linejoin:round;stroke-miterlimit:10;stroke-dasharray:9.6, 2.4, 1.5, 2.4;stroke-dashoffset:0;stroke-opacity:1"
       transform="matrix(1.3333333,0,0,-1.3333333,0,591.14166)"
       clip-path="url(#clipPath40)" />
    <path
       id="path41"
       d="m 81.613068,288.12259 10.900207,43.97866 10.900205,6.64108 10.90021,-0.56349 10.90021,3.32725 10.9002,1.30138 10.90021,-13.14798 10.9002,13.63097 10.90021,6.86915 10.90021,4.61521 10.9002,-4.95062 10.90021,-2.03928 10.90021,11.95393 10.9002,-4.06514 10.90021,-1.56971 10.90021,9.05601 10.9002,-7.82171 10.90021,5.04453 10.90021,-10.20981 10.9002,12.77233 10.90021,-1.78437 10.90021,-1.87828 10.9002,6.49349 10.90021,-1.59654 10.90021,2.44177 10.9002,-0.91231 10.90021,6.78865 10.90021,1.50263 10.9002,-13.02724 10.90021,4.07856 10.90021,13.06748"
       style="fill:none;stroke:#ff7f0e;stroke-width:1.5;stroke-linecap:square;stroke-linejoin:round;stroke-miterlimit:10;stroke-dasharray:none;stroke-opacity:1"
       transform="matrix(1.3333333,0,0,-1.3333333,0,591.14166)"
       clip-path="url(#clipPath42)" />
    <path
       id="path43"
       d="m 81.613068,81.686569 10.900207,115.248161 10.900205,-33.72076 10.90021,56.13012 10.90021,26.89124 10.9002,11.09797 10.90021,-69.78916 10.9002,3.20133 10.90021,48.87376 10.90021,20.70198 10.9002,11.3114 10.90021,-72.35024 10.90021,35.0013 10.9002,-32.65365 10.90021,-1.70738 10.90021,50.58114 10.9002,-13.65904 10.90021,32.65364 10.90021,-72.9905 10.9002,81.95425 10.90021,-48.44691 10.90021,18.35433 10.9002,9.81744 10.90021,-12.80535 10.90021,-39.91001 10.9002,13.01877 10.90021,37.77579 10.90021,-6.18926 10.9002,-55.70327 10.90021,45.03215 10.90021,62.53279"
       style="fill:none;stroke:#ff7f0e;stroke-width:1.5;stroke-linecap:butt;stroke-linejoin:round;stroke-miterlimit:10;stroke-dasharray:9.6, 2.4, 1.5, 2.4;stroke-dashoffset:0;stroke-opacity:1"
       transform="matrix(1.3333333,0,0,-1.3333333,0,591.14166)"
       clip-path="url(#clipPath44)" />
    <path
       id="path45"
       d="m 81.613068,283.48055 10.900207,31.47466 10.900205,12.35642 10.90021,6.27883 10.90021,7.53997 10.9002,1.38188 10.90021,-10.58547 10.9002,15.14701 10.90021,3.79682 10.90021,1.40871 10.9002,-1.39529 10.90021,1.86486 10.90021,4.10539 10.9002,0.0939 10.90021,-1.20747 10.90021,6.3325 10.9002,-2.06611 10.90021,-0.30858 10.90021,-2.25394 10.9002,9.65974 10.90021,-1.95878 10.90021,-2.89792 10.9002,4.87012 10.90021,1.3953 10.90021,-8.13029 10.9002,10.7733 10.90021,3.83706 10.90021,-0.4159 10.9002,-4.73596 10.90021,-0.89889 10.90021,11.65877 10.9002,-18.1791 10.90021,13.18823 10.90021,-3.03208 10.9002,-17.84369 10.90021,25.67881 10.90021,-1.66362 10.9002,-0.25491 10.90021,-10.80013 10.90021,12.18201 10.9002,-2.4686 10.90021,5.28602 10.90021,-18.25288 10.9002,16.69659 h 10.90021 l 10.90021,-4.29322 10.9002,-6.27883 10.90021,9.08284 10.90021,2.66985 10.9002,0.95256 10.90021,5.97025 10.9002,-8.77426 10.90021,-0.36224 10.90021,2.56251 10.9002,1.79779 10.90021,6.42641"
       style="fill:none;stroke:#2ca02c;stroke-width:1.5;stroke-linecap:square;stroke-linejoin:round;stroke-miterlimit:10;stroke-dasharray:none;stroke-opacity:1"
       transform="matrix(1.3333333,0,0,-1.3333333,0,591.14166)"
       clip-path="url(#clipPath46)" />
    <path
       id="path47"
       d="m 81.613068,86.381865 10.900207,12.805351 10.900205,25.610704 10.90021,94.75959 10.90021,11.73824 10.9002,8.32348 10.90021,-61.89253 10.9002,28.17177 10.90021,36.70868 10.90021,-5.12215 10.9002,19.42145 10.90021,-49.94086 10.90021,6.82952 10.9002,-7.25637 10.90021,-8.11006 10.90021,40.12344 10.9002,-30.73284 10.90021,48.44691 10.90021,-49.08718 10.9002,76.8321 10.90021,-60.18515 10.90021,24.54359 10.9002,20.06172 10.90021,-9.60401 10.90021,-62.74622 10.9002,44.39188 10.90021,18.78118 10.90021,-15.57984 10.9002,-20.70199 10.90021,16.22012 10.90021,57.19723 10.9002,-99.45489 10.90021,60.39857 10.90021,-32.65365 10.9002,-34.57444 10.90021,86.86296 10.90021,3.20134 10.9002,5.97583 10.90021,-61.89253 10.90021,46.73953 10.9002,-11.95166 10.90021,12.59193 10.90021,-70.64286 10.9002,77.89922 10.90021,-74.69788 10.90021,42.25766 10.9002,-9.60401 10.90021,-23.47648 10.90021,57.19723 10.9002,-21.76909 10.90021,37.56236 10.9002,-0.64027 10.90021,-81.74082 10.90021,8.75032 10.9002,64.66703 10.90021,22.62278"
       style="fill:none;stroke:#2ca02c;stroke-width:1.5;stroke-linecap:butt;stroke-linejoin:round;stroke-miterlimit:10;stroke-dasharray:9.6, 2.4, 1.5, 2.4;stroke-dashoffset:0;stroke-opacity:1"
       transform="matrix(1.3333333,0,0,-1.3333333,0,591.14166)"
       clip-path="url(#clipPath48)" />
    <path
       id="path49"
       d="M 549.64688,47.54375 H 704.1 c 1.33333,0 2,0.666667 2,2 V 136.575 c 0,1.33333 -0.66667,2 -2,2 H 549.64688 c -1.33334,0 -2,-0.66667 -2,-2 V 49.54375 c 0,-1.333333 0.66666,-2 2,-2 z"
       style="fill:#ffffff;fill-opacity:0.8;fill-rule:nonzero;stroke:#cccccc;stroke-width:1;stroke-linecap:butt;stroke-linejoin:miter;stroke-miterlimit:10;stroke-dasharray:none;stroke-opacity:0.8"
       transform="matrix(1.3333333,0,0,-1.3333333,0,591.14166)" />
    <path
       id="path50"
       d="m 551.64688,130.48125 h 20"
       style="fill:none;stroke:#1f77b4;stroke-width:1.5;stroke-linecap:square;stroke-linejoin:round;stroke-miterlimit:10;stroke-dasharray:none;stroke-opacity:1"
       transform="matrix(1.3333333,0,0,-1.3333333,0,591.14166)" />
    <text
       id="text50"
       xml:space="preserve"
       transform="matrix(1.3333333,0,0,1.3333333,772.8625,421.83332)"><tspan
         id="tspan50"
         style="font-variant:normal;font-weight:normal;font-size:10px;font-family:'DejaVu Sans';writing-mode:lr-tb;fill:#000000;fill-opacity:1;fill-rule:nonzero;stroke:none"
         x="0"
         y="0">DES train RAUC</tspan></text>
    <path
       id="path51"
       d="m 551.64688,115.80937 h 20"
       style="fill:none;stroke:#1f77b4;stroke-width:1.5;stroke-linecap:butt;stroke-linejoin:round;stroke-miterlimit:10;stroke-dasharray:9.6, 2.4, 1.5, 2.4;stroke-dashoffset:0;stroke-opacity:1"
       transform="matrix(1.3333333,0,0,-1.3333333,0,591.14166)" />
    <text
       id="text51"
       xml:space="preserve"
       transform="matrix(1.3333333,0,0,1.3333333,772.8625,441.39582)"><tspan
         id="tspan51"
         style="font-variant:normal;font-weight:normal;font-size:10px;font-family:'DejaVu Sans';writing-mode:lr-tb;fill:#000000;fill-opacity:1;fill-rule:nonzero;stroke:none"
         x="0"
         y="0">DES validation RAUC</tspan></text>
    <path
       id="path52"
       d="m 551.64688,101.1375 h 20"
       style="fill:none;stroke:#ff7f0e;stroke-width:1.5;stroke-linecap:square;stroke-linejoin:round;stroke-miterlimit:10;stroke-dasharray:none;stroke-opacity:1"
       transform="matrix(1.3333333,0,0,-1.3333333,0,591.14166)" />
    <text
       id="text52"
       xml:space="preserve"
       transform="matrix(1.3333333,0,0,1.3333333,772.8625,460.95832)"><tspan
         id="tspan52"
         style="font-variant:normal;font-weight:normal;font-size:10px;font-family:'DejaVu Sans';writing-mode:lr-tb;fill:#000000;fill-opacity:1;fill-rule:nonzero;stroke:none"
         x="0"
         y="0">CMA-ES train RAUC</tspan></text>
    <path
       id="path53"
       d="m 551.64688,86.465625 h 20"
       style="fill:none;stroke:#ff7f0e;stroke-width:1.5;stroke-linecap:butt;stroke-linejoin:round;stroke-miterlimit:10;stroke-dasharray:9.6, 2.4, 1.5, 2.4;stroke-dashoffset:0;stroke-opacity:1"
       transform="matrix(1.3333333,0,0,-1.3333333,0,591.14166)" />
    <text
       id="text53"
       xml:space="preserve"
       transform="matrix(1.3333333,0,0,1.3333333,772.8625,480.52082)"><tspan
         id="tspan53"
         style="font-variant:normal;font-weight:normal;font-size:10px;font-family:'DejaVu Sans';writing-mode:lr-tb;fill:#000000;fill-opacity:1;fill-rule:nonzero;stroke:none"
         x="0"
         y="0">CMA-ES validation RAUC</tspan></text>
    <path
       id="path54"
       d="m 551.64688,71.79375 h 20"
       style="fill:none;stroke:#2ca02c;stroke-width:1.5;stroke-linecap:square;stroke-linejoin:round;stroke-miterlimit:10;stroke-dasharray:none;stroke-opacity:1"
       transform="matrix(1.3333333,0,0,-1.3333333,0,591.14166)" />
    <text
       id="text54"
       xml:space="preserve"
       transform="matrix(1.3333333,0,0,1.3333333,772.8625,500.08332)"><tspan
         id="tspan54"
         style="font-variant:normal;font-weight:normal;font-size:10px;font-family:'DejaVu Sans';writing-mode:lr-tb;fill:#000000;fill-opacity:1;fill-rule:nonzero;stroke:none"
         x="0"
         y="0">jSO train RAUC</tspan></text>
    <path
       id="path55"
       d="m 551.64688,57.121875 h 20"
       style="fill:none;stroke:#2ca02c;stroke-width:1.5;stroke-linecap:butt;stroke-linejoin:round;stroke-miterlimit:10;stroke-dasharray:9.6, 2.4, 1.5, 2.4;stroke-dashoffset:0;stroke-opacity:1"
       transform="matrix(1.3333333,0,0,-1.3333333,0,591.14166)" />
    <text
       id="text55"
       xml:space="preserve"
       transform="matrix(1.3333333,0,0,1.3333333,772.8625,519.64582)"><tspan
         id="tspan55"
         style="font-variant:normal;font-weight:normal;font-size:10px;font-family:'DejaVu Sans';writing-mode:lr-tb;fill:#000000;fill-opacity:1;fill-rule:nonzero;stroke:none"
         x="0"
         y="0">jSO validation RAUC</tspan></text>
  </g>
</svg>
