<svg xmlns="http://www.w3.org/2000/svg" width="962.4" height="591.142" viewBox="0 0 962.4 591.142"><defs><clipPath id="a" clipPathUnits="userSpaceOnUse"><path d="M57.997 42.544H711.1v391.612H57.997Z"/></clipPath><clipPath id="b" clipPathUnits="userSpaceOnUse"><path d="M57.997 42.544H711.1v391.612H57.997Z"/></clipPath><clipPath id="c" clipPathUnits="userSpaceOnUse"><path d="M57.997 42.544H711.1v391.612H57.997Z"/></clipPath><clipPath id="d" clipPathUnits="userSpaceOnUse"><path d="M57.997 42.544H711.1v391.612H57.997Z"/></clipPath><clipPath id="e" clipPathUnits="userSpaceOnUse"><path d="M57.997 42.544H711.1v391.612H57.997Z"/></clipPath><clipPath id="f" clipPathUnits="userSpaceOnUse"><path d="M57.997 42.544H711.1v391.612H57.997Z"/></clipPath><clipPath id="g" clipPathUnits="userSpaceOnUse"><path d="M57.997 42.544H711.1v391.612H57.997Z"/></clipPath><clipPath id="h" clipPathUnits="userSpaceOnUse"><path d="M57.997 42.544H711.1v391.612H57.997Z"/></clipPath><clipPath id="i" clipPathUnits="userSpaceOnUse"><path d="M57.997 42.544H711.1v391.612H57.997Z"/></clipPath><clipPath id="j" clipPathUnits="userSpaceOnUse"><path d="M57.997 42.544H711.1v391.612H57.997Z"/></clipPath><clipPath id="k" clipPathUnits="userSpaceOnUse"><path d="M57.997 42.544H711.1v391.612H57.997Z"/></clipPath><clipPath id="l" clipPathUnits="userSpaceOnUse"><path d="M57.997 42.544H711.1v391.612H57.997Z"/></clipPath><clipPath id="m" clipPathUnits="userSpaceOnUse"><path d="M57.997 42.544H711.1v391.612H57.997Z"/></clipPath><clipPath id="n" clipPathUnits="userSpaceOnUse"><path d="M57.997 42.544H711.1v391.612H57.997Z"/></clipPath><clipPath id="o" clipPathUnits="userSpaceOnUse"><path d="M57.997 42.544H711.1v391.612H57.997Z"/></clipPath><clipPath id="p" clipPathUnits="userSpaceOnUse"><path d="M57.997 42.544H711.1v391.612H57.997Z"/></clipPath><clipPath id="q" clipPathUnits="userSpaceOnUse"><path d="M57.997 42.544H711.1v391.612H57.997Z"/></clipPath><clipPath id="r" clipPathUnits="userSpaceOnUse"><path d="M57.997 42.544H711.1v391.612H57.997Z"/></clipPath><clipPath id="s" clipPathUnits="userSpaceOnUse"><path d="M57.997 42.544H711.1v391.612H57.997Z"/></clipPath><clipPath id="t" clipPathUnits="userSpaceOnUse"><path d="M57.997 42.544H711.1v391.612H57.997Z"/></clipPath><clipPath id="u" clipPathUnits="userSpaceOnUse"><path d="M57.997 42.544H711.1v391.612H57.997Z"/></clipPath></defs><path d="M87.683 42.544v391.612" clip-path="url(#a)" style="fill:none;stroke:#e6e6e6;stroke-width:1;stroke-linecap:square;stroke-linejoin:round;stroke-miterlimit:10;stroke-dasharray:none;stroke-opacity:1" transform="matrix(1.33333 0 0 -1.33333 0 591.142)"/><path d="M87.683 37.544v-3.5" style="fill:#000;fill-opacity:1;fill-rule:nonzero;stroke:#000;stroke-width:.8;stroke-linecap:butt;stroke-linejoin:round;stroke-miterlimit:10;stroke-dasharray:none;stroke-opacity:1" transform="matrix(1.33333 0 0 -1.33333 0 591.142)"/><text xml:space="preserve" transform="translate(112.672 560.542)scale(1.33333)"><tspan x="0" y="0" style="font-variant:normal;font-weight:400;font-size:10px;font-family:&quot;DejaVu Sans&quot;;writing-mode:lr-tb;fill:#000;fill-opacity:1;fill-rule:nonzero;stroke:none">0</tspan></text><path d="M195.634 42.544v391.612" clip-path="url(#b)" style="fill:none;stroke:#e6e6e6;stroke-width:1;stroke-linecap:square;stroke-linejoin:round;stroke-miterlimit:10;stroke-dasharray:none;stroke-opacity:1" transform="matrix(1.33333 0 0 -1.33333 0 591.142)"/><path d="M195.634 37.544v-3.5" style="fill:#000;fill-opacity:1;fill-rule:nonzero;stroke:#000;stroke-width:.8;stroke-linecap:butt;stroke-linejoin:round;stroke-miterlimit:10;stroke-dasharray:none;stroke-opacity:1" transform="matrix(1.33333 0 0 -1.33333 0 591.142)"/><text xml:space="preserve" transform="translate(252.367 560.542)scale(1.33333)"><tspan x="0" y="0" style="font-variant:normal;font-weight:400;font-size:10px;font-family:&quot;DejaVu Sans&quot;;writing-mode:lr-tb;fill:#000;fill-opacity:1;fill-rule:nonzero;stroke:none">10</tspan></text><path d="M303.585 42.544v391.612" clip-path="url(#c)" style="fill:none;stroke:#e6e6e6;stroke-width:1;stroke-linecap:square;stroke-linejoin:round;stroke-miterlimit:10;stroke-dasharray:none;stroke-opacity:1" transform="matrix(1.33333 0 0 -1.33333 0 591.142)"/><path d="M303.585 37.544v-3.5" style="fill:#000;fill-opacity:1;fill-rule:nonzero;stroke:#000;stroke-width:.8;stroke-linecap:butt;stroke-linejoin:round;stroke-miterlimit:10;stroke-dasharray:none;stroke-opacity:1" transform="matrix(1.33333 0 0 -1.33333 0 591.142)"/><text xml:space="preserve" transform="translate(396.301 560.542)scale(1.33333)"><tspan x="0" y="0" style="font-variant:normal;font-weight:400;font-size:10px;font-family:&quot;DejaVu Sans&quot;;writing-mode:lr-tb;fill:#000;fill-opacity:1;fill-rule:nonzero;stroke:none">20</tspan></text><path d="M411.536 42.544v391.612" clip-path="url(#d)" style="fill:none;stroke:#e6e6e6;stroke-width:1;stroke-linecap:square;stroke-linejoin:round;stroke-miterlimit:10;stroke-dasharray:none;stroke-opacity:1" transform="matrix(1.33333 0 0 -1.33333 0 591.142)"/><path d="M411.536 37.544v-3.5" style="fill:#000;fill-opacity:1;fill-rule:nonzero;stroke:#000;stroke-width:.8;stroke-linecap:butt;stroke-linejoin:round;stroke-miterlimit:10;stroke-dasharray:none;stroke-opacity:1" transform="matrix(1.33333 0 0 -1.33333 0 591.142)"/><text xml:space="preserve" transform="translate(540.236 560.542)scale(1.33333)"><tspan x="0" y="0" style="font-variant:normal;font-weight:400;font-size:10px;font-family:&quot;DejaVu Sans&quot;;writing-mode:lr-tb;fill:#000;fill-opacity:1;fill-rule:nonzero;stroke:none">30</tspan></text><path d="M519.487 42.544v391.612" clip-path="url(#e)" style="fill:none;stroke:#e6e6e6;stroke-width:1;stroke-linecap:square;stroke-linejoin:round;stroke-miterlimit:10;stroke-dasharray:none;stroke-opacity:1" transform="matrix(1.33333 0 0 -1.33333 0 591.142)"/><path d="M519.487 37.544v-3.5" style="fill:#000;fill-opacity:1;fill-rule:nonzero;stroke:#000;stroke-width:.8;stroke-linecap:butt;stroke-linejoin:round;stroke-miterlimit:10;stroke-dasharray:none;stroke-opacity:1" transform="matrix(1.33333 0 0 -1.33333 0 591.142)"/><text xml:space="preserve" transform="translate(684.17 560.542)scale(1.33333)"><tspan x="0" y="0" style="font-variant:normal;font-weight:400;font-size:10px;font-family:&quot;DejaVu Sans&quot;;writing-mode:lr-tb;fill:#000;fill-opacity:1;fill-rule:nonzero;stroke:none">40</tspan></text><path d="M627.438 42.544v391.612" clip-path="url(#f)" style="fill:none;stroke:#e6e6e6;stroke-width:1;stroke-linecap:square;stroke-linejoin:round;stroke-miterlimit:10;stroke-dasharray:none;stroke-opacity:1" transform="matrix(1.33333 0 0 -1.33333 0 591.142)"/><path d="M627.438 37.544v-3.5" style="fill:#000;fill-opacity:1;fill-rule:nonzero;stroke:#000;stroke-width:.8;stroke-linecap:butt;stroke-linejoin:round;stroke-miterlimit:10;stroke-dasharray:none;stroke-opacity:1" transform="matrix(1.33333 0 0 -1.33333 0 591.142)"/><text xml:space="preserve" transform="translate(828.105 560.542)scale(1.33333)"><tspan x="0" y="0" style="font-variant:normal;font-weight:400;font-size:10px;font-family:&quot;DejaVu Sans&quot;;writing-mode:lr-tb;fill:#000;fill-opacity:1;fill-rule:nonzero;stroke:none">50</tspan></text><text xml:space="preserve" transform="translate(492.419 578.77)scale(1.33333)"><tspan x="0" y="0" style="font-variant:normal;font-weight:400;font-size:10px;font-family:&quot;DejaVu Sans&quot;;writing-mode:lr-tb;fill:#000;fill-opacity:1;fill-rule:nonzero;stroke:none">epoch</tspan></text><path d="M57.997 61.158H711.1" clip-path="url(#g)" style="fill:none;stroke:#e6e6e6;stroke-width:1;stroke-linecap:square;stroke-linejoin:round;stroke-miterlimit:10;stroke-dasharray:none;stroke-opacity:1" transform="matrix(1.33333 0 0 -1.33333 0 591.142)"/><text xml:space="preserve" transform="translate(27.83 514.66)scale(1.33333)"><tspan x="0" y="0" style="font-variant:normal;font-weight:400;font-size:10px;font-family:&quot;DejaVu Sans&quot;;writing-mode:lr-tb;fill:#000;fill-opacity:1;fill-rule:nonzero;stroke:none">0.400</tspan></text><path d="M57.997 105.94H711.1" clip-path="url(#h)" style="fill:none;stroke:#e6e6e6;stroke-width:1;stroke-linecap:square;stroke-linejoin:round;stroke-miterlimit:10;stroke-dasharray:none;stroke-opacity:1" transform="matrix(1.33333 0 0 -1.33333 0 591.142)"/><text xml:space="preserve" transform="translate(27.83 454.951)scale(1.33333)"><tspan x="0" y="0" style="font-variant:normal;font-weight:400;font-size:10px;font-family:&quot;DejaVu Sans&quot;;writing-mode:lr-tb;fill:#000;fill-opacity:1;fill-rule:nonzero;stroke:none">0.425</tspan></text><path d="M57.997 150.721H711.1" clip-path="url(#i)" style="fill:none;stroke:#e6e6e6;stroke-width:1;stroke-linecap:square;stroke-linejoin:round;stroke-miterlimit:10;stroke-dasharray:none;stroke-opacity:1" transform="matrix(1.33333 0 0 -1.33333 0 591.142)"/><text xml:space="preserve" transform="translate(27.83 395.243)scale(1.33333)"><tspan x="0" y="0" style="font-variant:normal;font-weight:400;font-size:10px;font-family:&quot;DejaVu Sans&quot;;writing-mode:lr-tb;fill:#000;fill-opacity:1;fill-rule:nonzero;stroke:none">0.450</tspan></text><path d="M57.997 195.503H711.1" clip-path="url(#j)" style="fill:none;stroke:#e6e6e6;stroke-width:1;stroke-linecap:square;stroke-linejoin:round;stroke-miterlimit:10;stroke-dasharray:none;stroke-opacity:1" transform="matrix(1.33333 0 0 -1.33333 0 591.142)"/><text xml:space="preserve" transform="translate(27.83 335.534)scale(1.33333)"><tspan x="0" y="0" style="font-variant:normal;font-weight:400;font-size:10px;font-family:&quot;DejaVu Sans&quot;;writing-mode:lr-tb;fill:#000;fill-opacity:1;fill-rule:nonzero;stroke:none">0.475</tspan></text><path d="M57.997 240.284H711.1" clip-path="url(#k)" style="fill:none;stroke:#e6e6e6;stroke-width:1;stroke-linecap:square;stroke-linejoin:round;stroke-miterlimit:10;stroke-dasharray:none;stroke-opacity:1" transform="matrix(1.33333 0 0 -1.33333 0 591.142)"/><text xml:space="preserve" transform="translate(27.83 275.826)scale(1.33333)"><tspan x="0" y="0" style="font-variant:normal;font-weight:400;font-size:10px;font-family:&quot;DejaVu Sans&quot;;writing-mode:lr-tb;fill:#000;fill-opacity:1;fill-rule:nonzero;stroke:none">0.500</tspan></text><path d="M57.997 285.065H711.1" clip-path="url(#l)" style="fill:none;stroke:#e6e6e6;stroke-width:1;stroke-linecap:square;stroke-linejoin:round;stroke-miterlimit:10;stroke-dasharray:none;stroke-opacity:1" transform="matrix(1.33333 0 0 -1.33333 0 591.142)"/><text xml:space="preserve" transform="translate(27.83 216.117)scale(1.33333)"><tspan x="0" y="0" style="font-variant:normal;font-weight:400;font-size:10px;font-family:&quot;DejaVu Sans&quot;;writing-mode:lr-tb;fill:#000;fill-opacity:1;fill-rule:nonzero;stroke:none">0.525</tspan></text><path d="M57.997 329.847H711.1" clip-path="url(#m)" style="fill:none;stroke:#e6e6e6;stroke-width:1;stroke-linecap:square;stroke-linejoin:round;stroke-miterlimit:10;stroke-dasharray:none;stroke-opacity:1" transform="matrix(1.33333 0 0 -1.33333 0 591.142)"/><text xml:space="preserve" transform="translate(27.83 156.409)scale(1.33333)"><tspan x="0" y="0" style="font-variant:normal;font-weight:400;font-size:10px;font-family:&quot;DejaVu Sans&quot;;writing-mode:lr-tb;fill:#000;fill-opacity:1;fill-rule:nonzero;stroke:none">0.550</tspan></text><path d="M57.997 374.628H711.1" clip-path="url(#n)" style="fill:none;stroke:#e6e6e6;stroke-width:1;stroke-linecap:square;stroke-linejoin:round;stroke-miterlimit:10;stroke-dasharray:none;stroke-opacity:1" transform="matrix(1.33333 0 0 -1.33333 0 591.142)"/><text xml:space="preserve" transform="translate(27.83 96.7)scale(1.33333)"><tspan x="0" y="0" style="font-variant:normal;font-weight:400;font-size:10px;font-family:&quot;DejaVu Sans&quot;;writing-mode:lr-tb;fill:#000;fill-opacity:1;fill-rule:nonzero;stroke:none">0.575</tspan></text><path d="M57.997 419.41H711.1" clip-path="url(#o)" style="fill:none;stroke:#e6e6e6;stroke-width:1;stroke-linecap:square;stroke-linejoin:round;stroke-miterlimit:10;stroke-dasharray:none;stroke-opacity:1" transform="matrix(1.33333 0 0 -1.33333 0 591.142)"/><text xml:space="preserve" transform="translate(27.83 36.992)scale(1.33333)"><tspan x="0" y="0" style="font-variant:normal;font-weight:400;font-size:10px;font-family:&quot;DejaVu Sans&quot;;writing-mode:lr-tb;fill:#000;fill-opacity:1;fill-rule:nonzero;stroke:none">0.600</tspan></text><text xml:space="preserve" transform="rotate(-90 152.981 133.256)scale(1.33333)"><tspan x="0" y="0" style="font-variant:normal;font-weight:400;font-size:10px;font-family:&quot;DejaVu Sans&quot;;writing-mode:lr-tb;fill:#000;fill-opacity:1;fill-rule:nonzero;stroke:none">loss</tspan></text><path d="m87.683 320.014 10.795-142.157 10.796-37.77 10.795-10.784 10.795-21.005 10.795 41.065 10.795-31.887 10.795 3.04 10.795-1.747 10.795-19.15 10.795-6.044 10.795 10.01 10.795 1.79 10.796 1.603 10.795-29.185 10.795 12.682 10.795 7.048 10.795-9.624 10.795-5.532 10.795-3.825 10.795-6.682 10.795 13.28 10.795-3.07 10.796-11.42 10.795 3.359 10.795 1.436 10.795 9.19 10.795 15.83 10.795-9.559 10.795-3.1 10.795-2.15 10.795 14.858 10.795-19.488 10.795-10.479 10.796.662 10.795 5.048 10.795-8.259 10.795 10.57 10.795-7.68 10.795 17.06 10.795.49 10.795-12.435 10.795-8.436 10.795 5.112 10.795-12.335 10.796 5.17 10.795-2.905 10.795 20.007 10.795-15.102 10.795-2.73 10.795-.042" clip-path="url(#p)" style="fill:none;stroke:#1f77b4;stroke-width:1.5;stroke-linecap:square;stroke-linejoin:round;stroke-miterlimit:10;stroke-dasharray:none;stroke-opacity:1" transform="matrix(1.33333 0 0 -1.33333 0 591.142)"/><path d="M87.683 416.356 98.478 299.87l10.796 31.045 10.795-26.778 10.795 45.23 10.795-25.892 10.795-43.238 10.795 12.448 10.795 17.72 10.795-37.844 10.795 14.817 10.795 17.629 10.795-8.378 10.796-3.293 10.795 8.48 10.795-38.14 10.795 34.863 10.795-36.655 10.795 17.14 10.795-22.122 10.795 59.078 10.795-47.423 10.795 24.196 10.796-19.575 10.795 18.46 10.795-7.226 10.795 38.439 10.795-42.437 10.795 17.086 10.795-28.889 10.795-15.09 10.795 55.93 10.795-34.088 10.795-3.312 10.796 20.192 10.795-39.272 10.795 53.153 10.795-32.652 10.795 6.993 10.795 7.755 10.795-18.226 10.795 14.74 10.795 49.448 10.795-73.606 10.795 43.053 10.796-42.375 10.795 75.323 10.795-23.487 10.795-38.71 10.795 17.85 10.795-28.851" clip-path="url(#q)" style="fill:none;stroke:#1f77b4;stroke-width:1.5;stroke-linecap:butt;stroke-linejoin:round;stroke-miterlimit:10;stroke-dasharray:9.6,2.4,1.5,2.4;stroke-dashoffset:0;stroke-opacity:1" transform="matrix(1.33333 0 0 -1.33333 0 591.142)"/><path d="m87.683 323.945 10.795-107.211 10.796-34.04 10.795-9.393 10.795 5.696 10.795 5.551 10.795-10.148 10.795 6.688 10.795-17.358 10.795-3.52 10.795-22.375 10.795 12.728 10.795 24.03 10.796-19.395 10.795-2.255 10.795-10.073 10.795 27.033 10.795-24.948 10.795 8.394 10.795-11.386 10.795 4.06 10.795-1.248 10.795 3.338 10.796-18.216 10.795 6.007 10.795 3.93 10.795-2.493 10.795 5.39 10.795-10.718 10.795 4.608 10.795 7.101" clip-path="url(#r)" style="fill:none;stroke:#ff7f0e;stroke-width:1.5;stroke-linecap:square;stroke-linejoin:round;stroke-miterlimit:10;stroke-dasharray:none;stroke-opacity:1" transform="matrix(1.33333 0 0 -1.33333 0 591.142)"/><path d="m87.683 395.022 10.795-57.692 10.796 12.733 10.795-.39 10.795-15.241 10.795-18.796 10.795 14.992 10.795-10.413 10.795-19.93 10.795-3.337 10.795-10.42 10.795 57.064 10.795-15.161 10.796-13.018 10.795 19.561 10.795-33.05 10.795 8.514 10.795-21.895 10.795 29.223 10.795-24.924 10.795 38.865 10.795-25.354 10.795 7.24 10.796-15.193 10.795 20.476 10.795 4.659 10.795-1.569 10.795-24.876 10.795 39.832 10.795-41.334 10.795-6.067" clip-path="url(#s)" style="fill:none;stroke:#ff7f0e;stroke-width:1.5;stroke-linecap:butt;stroke-linejoin:round;stroke-miterlimit:10;stroke-dasharray:9.6,2.4,1.5,2.4;stroke-dashoffset:0;stroke-opacity:1" transform="matrix(1.33333 0 0 -1.33333 0 591.142)"/><path d="m87.683 328.109 10.795-127.73 10.796-37.503 10.795-17.709 10.795-3.715 10.795 8.426 10.795-9.77 10.795-1.811 10.795 1.131 10.795 1.335 10.795-10.526 10.795-1.12 10.795 1.304 10.796-19.228 10.795 5.518 10.795-3.838 10.795 14.597 10.795-8.07 10.795-11.347 10.795 12.748 10.795-1.243 10.795-13.966 10.795 6.57L335.971 99.5l10.795 3.135 10.795 6.098 10.795-6.91 10.795 3.508 10.795-24.57 10.795 20.257 10.795.592 10.795 5.425 10.795-2.678 10.795 16.158 10.796-24.558 10.795 1.03 10.795 5.033 10.795-12.854 10.795 5.906 10.795 8.512 10.795-4.006 10.795 10.63 10.795-21.189 10.795 5.38 10.795-11.078 10.796 7.184 10.795-2.877 10.795-9.214 10.795 4.428 10.795 9.311 10.795-4.1 10.795-1.442 10.795 14.468 10.795-9.112 10.795 2.104 10.795-14.493" clip-path="url(#t)" style="fill:none;stroke:#2ca02c;stroke-width:1.5;stroke-linecap:square;stroke-linejoin:round;stroke-miterlimit:10;stroke-dasharray:none;stroke-opacity:1" transform="matrix(1.33333 0 0 -1.33333 0 591.142)"/><path d="m87.683 361.696 10.795-24.988 10.796 7.604 10.795-8.803 10.795-15.442 10.795-17.04 10.795 8.61 10.795-6.685 10.795-18.525 10.795 5.734 10.795-14.327 10.795 44.708 10.795 9.287 10.796-22.357 10.795 11.63 10.795-25.44 10.795 13.304 10.795-27.603 10.795 13.11 10.795-9.718 10.795 18.45 10.795-15.177 10.795 4.166 10.796-20.304 10.795 41.627 10.795-14.395 10.795 5.247 10.795-24.319 10.795 19.806 10.795-18.016 10.795 2.13 10.795 31.44 10.795-5.446 10.795-27.071 10.796 49.896 10.795-67.83 10.795 1.404 10.795 5.483 10.795 73.288 10.795-58.531 10.795-2.263 10.795-4.405 10.795 16.66 10.795-29.193 10.795 51.562 10.796-11.99 10.795-12.001 10.795 13.082 10.795-35.16 10.795 11.319 10.795-17.278 10.795 15.012 10.795 45.96 10.795-24.835 10.795-30.513 10.795-6.085" clip-path="url(#u)" style="fill:none;stroke:#2ca02c;stroke-width:1.5;stroke-linecap:butt;stroke-linejoin:round;stroke-miterlimit:10;stroke-dasharray:9.6,2.4,1.5,2.4;stroke-dashoffset:0;stroke-opacity:1" transform="matrix(1.33333 0 0 -1.33333 0 591.142)"/><path d="M558.413 338.125H704.1q2 0 2 2v87.031q0 2-2 2H558.413q-2 0-2-2v-87.031q0-2 2-2z" style="fill:#fff;fill-opacity:.8;fill-rule:nonzero;stroke:#ccc;stroke-width:1;stroke-linecap:butt;stroke-linejoin:miter;stroke-miterlimit:10;stroke-dasharray:none;stroke-opacity:.8" transform="matrix(1.33333 0 0 -1.33333 0 591.142)"/><path d="M560.413 421.062h20" style="fill:none;stroke:#1f77b4;stroke-width:1.5;stroke-linecap:square;stroke-linejoin:round;stroke-miterlimit:10;stroke-dasharray:none;stroke-opacity:1" transform="matrix(1.33333 0 0 -1.33333 0 591.142)"/><text xml:space="preserve" transform="translate(784.55 34.392)scale(1.33333)"><tspan x="0" y="0" style="font-variant:normal;font-weight:400;font-size:10px;font-family:&quot;DejaVu Sans&quot;;writing-mode:lr-tb;fill:#000;fill-opacity:1;fill-rule:nonzero;stroke:none">DES train loss</tspan></text><path d="M560.413 406.39h20" style="fill:none;stroke:#1f77b4;stroke-width:1.5;stroke-linecap:butt;stroke-linejoin:round;stroke-miterlimit:10;stroke-dasharray:9.6,2.4,1.5,2.4;stroke-dashoffset:0;stroke-opacity:1" transform="matrix(1.33333 0 0 -1.33333 0 591.142)"/><text xml:space="preserve" transform="translate(784.55 53.954)scale(1.33333)"><tspan x="0" y="0" style="font-variant:normal;font-weight:400;font-size:10px;font-family:&quot;DejaVu Sans&quot;;writing-mode:lr-tb;fill:#000;fill-opacity:1;fill-rule:nonzero;stroke:none">DES validation loss</tspan></text><path d="M560.413 391.719h20" style="fill:none;stroke:#ff7f0e;stroke-width:1.5;stroke-linecap:square;stroke-linejoin:round;stroke-miterlimit:10;stroke-dasharray:none;stroke-opacity:1" transform="matrix(1.33333 0 0 -1.33333 0 591.142)"/><text xml:space="preserve" transform="translate(784.55 73.517)scale(1.33333)"><tspan x="0" y="0" style="font-variant:normal;font-weight:400;font-size:10px;font-family:&quot;DejaVu Sans&quot;;writing-mode:lr-tb;fill:#000;fill-opacity:1;fill-rule:nonzero;stroke:none">CMA-ES train loss</tspan></text><path d="M560.413 377.047h20" style="fill:none;stroke:#ff7f0e;stroke-width:1.5;stroke-linecap:butt;stroke-linejoin:round;stroke-miterlimit:10;stroke-dasharray:9.6,2.4,1.5,2.4;stroke-dashoffset:0;stroke-opacity:1" transform="matrix(1.33333 0 0 -1.33333 0 591.142)"/><text xml:space="preserve" transform="translate(784.55 93.08)scale(1.33333)"><tspan x="0" y="0" style="font-variant:normal;font-weight:400;font-size:10px;font-family:&quot;DejaVu Sans&quot;;writing-mode:lr-tb;fill:#000;fill-opacity:1;fill-rule:nonzero;stroke:none">CMA-ES validation loss</tspan></text><path d="M560.413 362.375h20" style="fill:none;stroke:#2ca02c;stroke-width:1.5;stroke-linecap:square;stroke-linejoin:round;stroke-miterlimit:10;stroke-dasharray:none;stroke-opacity:1" transform="matrix(1.33333 0 0 -1.33333 0 591.142)"/><text xml:space="preserve" transform="translate(784.55 112.642)scale(1.33333)"><tspan x="0" y="0" style="font-variant:normal;font-weight:400;font-size:10px;font-family:&quot;DejaVu Sans&quot;;writing-mode:lr-tb;fill:#000;fill-opacity:1;fill-rule:nonzero;stroke:none">jSO train loss</tspan></text><path d="M560.413 347.703h20" style="fill:none;stroke:#2ca02c;stroke-width:1.5;stroke-linecap:butt;stroke-linejoin:round;stroke-miterlimit:10;stroke-dasharray:9.6,2.4,1.5,2.4;stroke-dashoffset:0;stroke-opacity:1" transform="matrix(1.33333 0 0 -1.33333 0 591.142)"/><text xml:space="preserve" transform="translate(784.55 132.204)scale(1.33333)"><tspan x="0" y="0" style="font-variant:normal;font-weight:400;font-size:10px;font-family:&quot;DejaVu Sans&quot;;writing-mode:lr-tb;fill:#000;fill-opacity:1;fill-rule:nonzero;stroke:none">jSO validation loss</tspan></text></svg>