<?xml version="1.0" encoding="UTF-8" standalone="no"?>
<!-- Created with Inkscape (http://www.inkscape.org/) -->

<svg
   version="1.1"
   id="svg1"
   width="962.40002"
   height="598.875"
   viewBox="0 0 962.40002 598.875"
   xmlns="http://www.w3.org/2000/svg"
   xmlns:svg="http://www.w3.org/2000/svg">
  <defs
     id="defs1">
    <clipPath
       clipPathUnits="userSpaceOnUse"
       id="clipPath2">
      <path
         d="M 51.6375,42.54375 H 711.1 V 434.15624 H 51.6375 Z"
         id="path2" />
    </clipPath>
    <clipPath
       clipPathUnits="userSpaceOnUse"
       id="clipPath5">
      <path
         d="M 51.6375,42.54375 H 711.1 V 434.15624 H 51.6375 Z"
         id="path5" />
    </clipPath>
    <clipPath
       clipPathUnits="userSpaceOnUse"
       id="clipPath8">
      <path
         d="M 51.6375,42.54375 H 711.1 V 434.15624 H 51.6375 Z"
         id="path8" />
    </clipPath>
    <clipPath
       clipPathUnits="userSpaceOnUse"
       id="clipPath11">
      <path
         d="M 51.6375,42.54375 H 711.1 V 434.15624 H 51.6375 Z"
         id="path11" />
    </clipPath>
    <clipPath
       clipPathUnits="userSpaceOnUse"
       id="clipPath14">
      <path
         d="M 51.6375,42.54375 H 711.1 V 434.15624 H 51.6375 Z"
         id="path14" />
    </clipPath>
    <clipPath
       clipPathUnits="userSpaceOnUse"
       id="clipPath17">
      <path
         d="M 51.6375,42.54375 H 711.1 V 434.15624 H 51.6375 Z"
         id="path17" />
    </clipPath>
    <clipPath
       clipPathUnits="userSpaceOnUse"
       id="clipPath20">
      <path
         d="M 51.6375,42.54375 H 711.1 V 434.15624 H 51.6375 Z"
         id="path20" />
    </clipPath>
    <clipPath
       clipPathUnits="userSpaceOnUse"
       id="clipPath23">
      <path
         d="M 51.6375,42.54375 H 711.1 V 434.15624 H 51.6375 Z"
         id="path23" />
    </clipPath>
    <clipPath
       clipPathUnits="userSpaceOnUse"
       id="clipPath26">
      <path
         d="M 51.6375,42.54375 H 711.1 V 434.15624 H 51.6375 Z"
         id="path26" />
    </clipPath>
    <clipPath
       clipPathUnits="userSpaceOnUse"
       id="clipPath29">
      <path
         d="M 51.6375,42.54375 H 711.1 V 434.15624 H 51.6375 Z"
         id="path29" />
    </clipPath>
    <clipPath
       clipPathUnits="userSpaceOnUse"
       id="clipPath31">
      <path
         d="M 51.6375,42.54375 H 711.1 V 434.15624 H 51.6375 Z"
         id="path31" />
    </clipPath>
    <clipPath
       clipPathUnits="userSpaceOnUse"
       id="clipPath33">
      <path
         d="M 51.6375,42.54375 H 711.1 V 434.15624 H 51.6375 Z"
         id="path33" />
    </clipPath>
    <clipPath
       clipPathUnits="userSpaceOnUse"
       id="clipPath35">
      <path
         d="M 51.6375,42.54375 H 711.1 V 434.15624 H 51.6375 Z"
         id="path35" />
    </clipPath>
    <clipPath
       clipPathUnits="userSpaceOnUse"
       id="clipPath37">
      <path
         d="M 51.6375,42.54375 H 711.1 V 434.15624 H 51.6375 Z"
         id="path37" />
    </clipPath>
    <clipPath
       clipPathUnits="userSpaceOnUse"
       id="clipPath39">
      <path
         d="M 51.6375,42.54375 H 711.1 V 434.15624 H 51.6375 Z"
         id="path39" />
    </clipPath>
    <clipPath
       clipPathUnits="userSpaceOnUse"
       id="clipPath41">
      <path
         d="M 51.6375,42.54375 H 711.1 V 434.15624 H 51.6375 Z"
         id="path41" />
    </clipPath>
    <clipPath
       clipPathUnits="userSpaceOnUse"
       id="clipPath43">
      <path
         d="M 51.6375,42.54375 H 711.1 V 434.15624 H 51.6375 Z"
         id="path43" />
    </clipPath>
    <clipPath
       clipPathUnits="userSpaceOnUse"
       id="clipPath45">
      <path
         d="M 51.6375,42.54375 H 711.1 V 434.15624 H 51.6375 Z"
         id="path45" />
    </clipPath>
    <clipPath
       clipPathUnits="userSpaceOnUse"
       id="clipPath47">
      <path
         d="M 51.6375,42.54375 H 711.1 V 434.15624 H 51.6375 Z"
         id="path47" />
    </clipPath>
    <clipPath
       clipPathUnits="userSpaceOnUse"
       id="clipPath49">
      <path
         d="M 51.6375,42.54375 H 711.1 V 434.15624 H 51.6375 Z"
         id="path49" />
    </clipPath>
    <clipPath
       clipPathUnits="userSpaceOnUse"
       id="clipPath51">
      <path
         d="M 51.6375,42.54375 H 711.1 V 434.15624 H 51.6375 Z"
         id="path51" />
    </clipPath>
    <clipPath
       clipPathUnits="userSpaceOnUse"
       id="clipPath53">
      <path
         d="M 51.6375,42.54375 H 711.1 V 434.15624 H 51.6375 Z"
         id="path53" />
    </clipPath>
    <clipPath
       clipPathUnits="userSpaceOnUse"
       id="clipPath55">
      <path
         d="M 51.6375,42.54375 H 711.1 V 434.15624 H 51.6375 Z"
         id="path55" />
    </clipPath>
    <clipPath
       clipPathUnits="userSpaceOnUse"
       id="clipPath57">
      <path
         d="M 51.6375,42.54375 H 711.1 V 434.15624 H 51.6375 Z"
         id="path57" />
    </clipPath>
    <clipPath
       clipPathUnits="userSpaceOnUse"
       id="clipPath59">
      <path
         d="M 51.6375,42.54375 H 711.1 V 434.15624 H 51.6375 Z"
         id="path59" />
    </clipPath>
    <clipPath
       clipPathUnits="userSpaceOnUse"
       id="clipPath61">
      <path
         d="M 51.6375,42.54375 H 711.1 V 434.15624 H 51.6375 Z"
         id="path61" />
    </clipPath>
    <clipPath
       clipPathUnits="userSpaceOnUse"
       id="clipPath63">
      <path
         d="M 51.6375,42.54375 H 711.1 V 434.15624 H 51.6375 Z"
         id="path63" />
    </clipPath>
    <clipPath
       clipPathUnits="userSpaceOnUse"
       id="clipPath65">
      <path
         d="M 51.6375,42.54375 H 711.1 V 434.15624 H 51.6375 Z"
         id="path65" />
    </clipPath>
    <clipPath
       clipPathUnits="userSpaceOnUse"
       id="clipPath67">
      <path
         d="M 51.6375,42.54375 H 711.1 V 434.15624 H 51.6375 Z"
         id="path67" />
    </clipPath>
    <clipPath
       clipPathUnits="userSpaceOnUse"
       id="clipPath69">
      <path
         d="M 51.6375,42.54375 H 711.1 V 434.15624 H 51.6375 Z"
         id="path69" />
    </clipPath>
    <clipPath
       clipPathUnits="userSpaceOnUse"
       id="clipPath71">
      <path
         d="M 51.6375,42.54375 H 711.1 V 434.15624 H 51.6375 Z"
         id="path71" />
    </clipPath>
    <clipPath
       clipPathUnits="userSpaceOnUse"
       id="clipPath73">
      <path
         d="M 51.6375,42.54375 H 711.1 V 434.15624 H 51.6375 Z"
         id="path73" />
    </clipPath>
    <clipPath
       clipPathUnits="userSpaceOnUse"
       id="clipPath75">
      <path
         d="M 51.6375,42.54375 H 711.1 V 434.15624 H 51.6375 Z"
         id="path75" />
    </clipPath>
    <clipPath
       clipPathUnits="userSpaceOnUse"
       id="clipPath77">
      <path
         d="M 51.6375,42.54375 H 711.1 V 434.15624 H 51.6375 Z"
         id="path77" />
    </clipPath>
    <clipPath
       clipPathUnits="userSpaceOnUse"
       id="clipPath79">
      <path
         d="M 51.6375,42.54375 H 711.1 V 434.15624 H 51.6375 Z"
         id="path79" />
    </clipPath>
  </defs>
  <g
     id="g1">
    <path
       id="path1"
       d="M 77.745253,42.54375 V 434.15624"
       style="fill:none;stroke:#e6e6e6;stroke-width:1;stroke-linecap:square;stroke-linejoin:round;stroke-miterlimit:10;stroke-dasharray:none;stroke-opacity:1"
       transform="matrix(1.3333333,0,0,-1.3333333,0,598.87499)"
       clip-path="url(#clipPath2)" />
    <path
       id="path3"
       d="m 77.745253,37.54375 v -3.5"
       style="fill:#000000;fill-opacity:1;fill-rule:nonzero;stroke:#000000;stroke-width:0.8;stroke-linecap:butt;stroke-linejoin:round;stroke-miterlimit:10;stroke-dasharray:none;stroke-opacity:1"
       transform="matrix(1.3333333,0,0,-1.3333333,0,598.87499)" />
    <text
       id="text3"
       xml:space="preserve"
       transform="matrix(1.3333333,0,0,1.3333333,99.420754,568.27499)"><tspan
         id="tspan3"
         style="font-variant:normal;font-weight:normal;font-size:10px;font-family:'DejaVu Sans';writing-mode:lr-tb;fill:#000000;fill-opacity:1;fill-rule:nonzero;stroke:none"
         x="0"
         y="0">0</tspan></text>
    <path
       id="path4"
       d="M 155.10156,42.54375 V 434.15624"
       style="fill:none;stroke:#e6e6e6;stroke-width:1;stroke-linecap:square;stroke-linejoin:round;stroke-miterlimit:10;stroke-dasharray:none;stroke-opacity:1"
       transform="matrix(1.3333333,0,0,-1.3333333,0,598.87499)"
       clip-path="url(#clipPath5)" />
    <path
       id="path6"
       d="m 155.10156,37.54375 v -3.5"
       style="fill:#000000;fill-opacity:1;fill-rule:nonzero;stroke:#000000;stroke-width:0.8;stroke-linecap:butt;stroke-linejoin:round;stroke-miterlimit:10;stroke-dasharray:none;stroke-opacity:1"
       transform="matrix(1.3333333,0,0,-1.3333333,0,598.87499)" />
    <text
       id="text6"
       xml:space="preserve"
       transform="matrix(1.3333333,0,0,1.3333333,198.32291,568.27499)"><tspan
         id="tspan6"
         style="font-variant:normal;font-weight:normal;font-size:10px;font-family:'DejaVu Sans';writing-mode:lr-tb;fill:#000000;fill-opacity:1;fill-rule:nonzero;stroke:none"
         x="0"
         y="0">20</tspan></text>
    <path
       id="path7"
       d="M 232.45786,42.54375 V 434.15624"
       style="fill:none;stroke:#e6e6e6;stroke-width:1;stroke-linecap:square;stroke-linejoin:round;stroke-miterlimit:10;stroke-dasharray:none;stroke-opacity:1"
       transform="matrix(1.3333333,0,0,-1.3333333,0,598.87499)"
       clip-path="url(#clipPath8)" />
    <path
       id="path9"
       d="m 232.45786,37.54375 v -3.5"
       style="fill:#000000;fill-opacity:1;fill-rule:nonzero;stroke:#000000;stroke-width:0.8;stroke-linecap:butt;stroke-linejoin:round;stroke-miterlimit:10;stroke-dasharray:none;stroke-opacity:1"
       transform="matrix(1.3333333,0,0,-1.3333333,0,598.87499)" />
    <text
       id="text9"
       xml:space="preserve"
       transform="matrix(1.3333333,0,0,1.3333333,301.46465,568.27499)"><tspan
         id="tspan9"
         style="font-variant:normal;font-weight:normal;font-size:10px;font-family:'DejaVu Sans';writing-mode:lr-tb;fill:#000000;fill-opacity:1;fill-rule:nonzero;stroke:none"
         x="0"
         y="0">40</tspan></text>
    <path
       id="path10"
       d="M 309.81417,42.54375 V 434.15624"
       style="fill:none;stroke:#e6e6e6;stroke-width:1;stroke-linecap:square;stroke-linejoin:round;stroke-miterlimit:10;stroke-dasharray:none;stroke-opacity:1"
       transform="matrix(1.3333333,0,0,-1.3333333,0,598.87499)"
       clip-path="url(#clipPath11)" />
    <path
       id="path12"
       d="m 309.81417,37.54375 v -3.5"
       style="fill:#000000;fill-opacity:1;fill-rule:nonzero;stroke:#000000;stroke-width:0.8;stroke-linecap:butt;stroke-linejoin:round;stroke-miterlimit:10;stroke-dasharray:none;stroke-opacity:1"
       transform="matrix(1.3333333,0,0,-1.3333333,0,598.87499)" />
    <text
       id="text12"
       xml:space="preserve"
       transform="matrix(1.3333333,0,0,1.3333333,404.60639,568.27499)"><tspan
         id="tspan12"
         style="font-variant:normal;font-weight:normal;font-size:10px;font-family:'DejaVu Sans';writing-mode:lr-tb;fill:#000000;fill-opacity:1;fill-rule:nonzero;stroke:none"
         x="0"
         y="0">60</tspan></text>
    <path
       id="path13"
       d="M 387.17047,42.54375 V 434.15624"
       style="fill:none;stroke:#e6e6e6;stroke-width:1;stroke-linecap:square;stroke-linejoin:round;stroke-miterlimit:10;stroke-dasharray:none;stroke-opacity:1"
       transform="matrix(1.3333333,0,0,-1.3333333,0,598.87499)"
       clip-path="url(#clipPath14)" />
    <path
       id="path15"
       d="m 387.17047,37.54375 v -3.5"
       style="fill:#000000;fill-opacity:1;fill-rule:nonzero;stroke:#000000;stroke-width:0.8;stroke-linecap:butt;stroke-linejoin:round;stroke-miterlimit:10;stroke-dasharray:none;stroke-opacity:1"
       transform="matrix(1.3333333,0,0,-1.3333333,0,598.87499)" />
    <text
       id="text15"
       xml:space="preserve"
       transform="matrix(1.3333333,0,0,1.3333333,507.74813,568.27499)"><tspan
         id="tspan15"
         style="font-variant:normal;font-weight:normal;font-size:10px;font-family:'DejaVu Sans';writing-mode:lr-tb;fill:#000000;fill-opacity:1;fill-rule:nonzero;stroke:none"
         x="0"
         y="0">80</tspan></text>
    <path
       id="path16"
       d="M 464.52678,42.54375 V 434.15624"
       style="fill:none;stroke:#e6e6e6;stroke-width:1;stroke-linecap:square;stroke-linejoin:round;stroke-miterlimit:10;stroke-dasharray:none;stroke-opacity:1"
       transform="matrix(1.3333333,0,0,-1.3333333,0,598.87499)"
       clip-path="url(#clipPath17)" />
    <path
       id="path18"
       d="m 464.52678,37.54375 v -3.5"
       style="fill:#000000;fill-opacity:1;fill-rule:nonzero;stroke:#000000;stroke-width:0.8;stroke-linecap:butt;stroke-linejoin:round;stroke-miterlimit:10;stroke-dasharray:none;stroke-opacity:1"
       transform="matrix(1.3333333,0,0,-1.3333333,0,598.87499)" />
    <text
       id="text18"
       xml:space="preserve"
       transform="matrix(1.3333333,0,0,1.3333333,606.65029,568.27499)"><tspan
         id="tspan18"
         style="font-variant:normal;font-weight:normal;font-size:10px;font-family:'DejaVu Sans';writing-mode:lr-tb;fill:#000000;fill-opacity:1;fill-rule:nonzero;stroke:none"
         x="0"
         y="0">100</tspan></text>
    <path
       id="path19"
       d="M 541.88308,42.54375 V 434.15624"
       style="fill:none;stroke:#e6e6e6;stroke-width:1;stroke-linecap:square;stroke-linejoin:round;stroke-miterlimit:10;stroke-dasharray:none;stroke-opacity:1"
       transform="matrix(1.3333333,0,0,-1.3333333,0,598.87499)"
       clip-path="url(#clipPath20)" />
    <path
       id="path21"
       d="m 541.88308,37.54375 v -3.5"
       style="fill:#000000;fill-opacity:1;fill-rule:nonzero;stroke:#000000;stroke-width:0.8;stroke-linecap:butt;stroke-linejoin:round;stroke-miterlimit:10;stroke-dasharray:none;stroke-opacity:1"
       transform="matrix(1.3333333,0,0,-1.3333333,0,598.87499)" />
    <text
       id="text21"
       xml:space="preserve"
       transform="matrix(1.3333333,0,0,1.3333333,709.79203,568.27499)"><tspan
         id="tspan21"
         style="font-variant:normal;font-weight:normal;font-size:10px;font-family:'DejaVu Sans';writing-mode:lr-tb;fill:#000000;fill-opacity:1;fill-rule:nonzero;stroke:none"
         x="0"
         y="0">120</tspan></text>
    <path
       id="path22"
       d="M 619.23939,42.54375 V 434.15624"
       style="fill:none;stroke:#e6e6e6;stroke-width:1;stroke-linecap:square;stroke-linejoin:round;stroke-miterlimit:10;stroke-dasharray:none;stroke-opacity:1"
       transform="matrix(1.3333333,0,0,-1.3333333,0,598.87499)"
       clip-path="url(#clipPath23)" />
    <path
       id="path24"
       d="m 619.23939,37.54375 v -3.5"
       style="fill:#000000;fill-opacity:1;fill-rule:nonzero;stroke:#000000;stroke-width:0.8;stroke-linecap:butt;stroke-linejoin:round;stroke-miterlimit:10;stroke-dasharray:none;stroke-opacity:1"
       transform="matrix(1.3333333,0,0,-1.3333333,0,598.87499)" />
    <text
       id="text24"
       xml:space="preserve"
       transform="matrix(1.3333333,0,0,1.3333333,812.93377,568.27499)"><tspan
         id="tspan24"
         style="font-variant:normal;font-weight:normal;font-size:10px;font-family:'DejaVu Sans';writing-mode:lr-tb;fill:#000000;fill-opacity:1;fill-rule:nonzero;stroke:none"
         x="0"
         y="0">140</tspan></text>
    <path
       id="path25"
       d="M 696.59569,42.54375 V 434.15624"
       style="fill:none;stroke:#e6e6e6;stroke-width:1;stroke-linecap:square;stroke-linejoin:round;stroke-miterlimit:10;stroke-dasharray:none;stroke-opacity:1"
       transform="matrix(1.3333333,0,0,-1.3333333,0,598.87499)"
       clip-path="url(#clipPath26)" />
    <path
       id="path27"
       d="m 696.59569,37.54375 v -3.5"
       style="fill:#000000;fill-opacity:1;fill-rule:nonzero;stroke:#000000;stroke-width:0.8;stroke-linecap:butt;stroke-linejoin:round;stroke-miterlimit:10;stroke-dasharray:none;stroke-opacity:1"
       transform="matrix(1.3333333,0,0,-1.3333333,0,598.87499)" />
    <text
       id="text27"
       xml:space="preserve"
       transform="matrix(1.3333333,0,0,1.3333333,916.07551,568.27499)"><tspan
         id="tspan27"
         style="font-variant:normal;font-weight:normal;font-size:10px;font-family:'DejaVu Sans';writing-mode:lr-tb;fill:#000000;fill-opacity:1;fill-rule:nonzero;stroke:none"
         x="0"
         y="0">160</tspan></text>
    <text
       id="text28"
       xml:space="preserve"
       transform="matrix(1.3333333,0,0,1.3333333,471.28333,586.50416)"><tspan
         id="tspan28"
         style="font-variant:normal;font-weight:normal;font-size:10px;font-family:'DejaVu Sans';writing-mode:lr-tb;fill:#000000;fill-opacity:1;fill-rule:nonzero;stroke:none"
         x="0"
         y="0">Generation</tspan></text>
    <path
       id="path28"
       d="M 51.6375,75.178124 H 711.1"
       style="fill:none;stroke:#e6e6e6;stroke-width:1;stroke-linecap:square;stroke-linejoin:round;stroke-miterlimit:10;stroke-dasharray:none;stroke-opacity:1"
       transform="matrix(1.3333333,0,0,-1.3333333,0,598.87499)"
       clip-path="url(#clipPath29)" />
    <text
       id="text29"
       xml:space="preserve"
       transform="matrix(1.3333333,0,0,1.3333333,27.829167,503.69999)"><tspan
         id="tspan29"
         style="font-variant:normal;font-weight:normal;font-size:10px;font-family:'DejaVu Sans';writing-mode:lr-tb;fill:#000000;fill-opacity:1;fill-rule:nonzero;stroke:none"
         x="0"
         y="0">0.74</tspan></text>
    <path
       id="path30"
       d="M 51.6375,140.44687 H 711.1"
       style="fill:none;stroke:#e6e6e6;stroke-width:1;stroke-linecap:square;stroke-linejoin:round;stroke-miterlimit:10;stroke-dasharray:none;stroke-opacity:1"
       transform="matrix(1.3333333,0,0,-1.3333333,0,598.87499)"
       clip-path="url(#clipPath31)" />
    <text
       id="text31"
       xml:space="preserve"
       transform="matrix(1.3333333,0,0,1.3333333,27.829167,416.67499)"><tspan
         id="tspan31"
         style="font-variant:normal;font-weight:normal;font-size:10px;font-family:'DejaVu Sans';writing-mode:lr-tb;fill:#000000;fill-opacity:1;fill-rule:nonzero;stroke:none"
         x="0"
         y="0">0.76</tspan></text>
    <path
       id="path32"
       d="M 51.6375,205.71562 H 711.1"
       style="fill:none;stroke:#e6e6e6;stroke-width:1;stroke-linecap:square;stroke-linejoin:round;stroke-miterlimit:10;stroke-dasharray:none;stroke-opacity:1"
       transform="matrix(1.3333333,0,0,-1.3333333,0,598.87499)"
       clip-path="url(#clipPath33)" />
    <text
       id="text33"
       xml:space="preserve"
       transform="matrix(1.3333333,0,0,1.3333333,27.829167,329.64999)"><tspan
         id="tspan33"
         style="font-variant:normal;font-weight:normal;font-size:10px;font-family:'DejaVu Sans';writing-mode:lr-tb;fill:#000000;fill-opacity:1;fill-rule:nonzero;stroke:none"
         x="0"
         y="0">0.78</tspan></text>
    <path
       id="path34"
       d="M 51.6375,270.98437 H 711.1"
       style="fill:none;stroke:#e6e6e6;stroke-width:1;stroke-linecap:square;stroke-linejoin:round;stroke-miterlimit:10;stroke-dasharray:none;stroke-opacity:1"
       transform="matrix(1.3333333,0,0,-1.3333333,0,598.87499)"
       clip-path="url(#clipPath35)" />
    <text
       id="text35"
       xml:space="preserve"
       transform="matrix(1.3333333,0,0,1.3333333,27.829167,242.625)"><tspan
         id="tspan35"
         style="font-variant:normal;font-weight:normal;font-size:10px;font-family:'DejaVu Sans';writing-mode:lr-tb;fill:#000000;fill-opacity:1;fill-rule:nonzero;stroke:none"
         x="0"
         y="0">0.80</tspan></text>
    <path
       id="path36"
       d="M 51.6375,336.25312 H 711.1"
       style="fill:none;stroke:#e6e6e6;stroke-width:1;stroke-linecap:square;stroke-linejoin:round;stroke-miterlimit:10;stroke-dasharray:none;stroke-opacity:1"
       transform="matrix(1.3333333,0,0,-1.3333333,0,598.87499)"
       clip-path="url(#clipPath37)" />
    <text
       id="text37"
       xml:space="preserve"
       transform="matrix(1.3333333,0,0,1.3333333,27.829167,155.6)"><tspan
         id="tspan37"
         style="font-variant:normal;font-weight:normal;font-size:10px;font-family:'DejaVu Sans';writing-mode:lr-tb;fill:#000000;fill-opacity:1;fill-rule:nonzero;stroke:none"
         x="0"
         y="0">0.82</tspan></text>
    <path
       id="path38"
       d="M 51.6375,401.52187 H 711.1"
       style="fill:none;stroke:#e6e6e6;stroke-width:1;stroke-linecap:square;stroke-linejoin:round;stroke-miterlimit:10;stroke-dasharray:none;stroke-opacity:1"
       transform="matrix(1.3333333,0,0,-1.3333333,0,598.87499)"
       clip-path="url(#clipPath39)" />
    <text
       id="text39"
       xml:space="preserve"
       transform="matrix(1.3333333,0,0,1.3333333,27.829167,68.574999)"><tspan
         id="tspan39"
         style="font-variant:normal;font-weight:normal;font-size:10px;font-family:'DejaVu Sans';writing-mode:lr-tb;fill:#000000;fill-opacity:1;fill-rule:nonzero;stroke:none"
         x="0"
         y="0">0.84</tspan></text>
    <text
       id="text40"
       xml:space="preserve"
       transform="matrix(0,-1.3333333,1.3333333,0,19.725,311.84583)"><tspan
         id="tspan40"
         style="font-variant:normal;font-weight:normal;font-size:10px;font-family:'DejaVu Sans';writing-mode:lr-tb;fill:#000000;fill-opacity:1;fill-rule:nonzero;stroke:none"
         x="0"
         y="0">ROC AUC</tspan></text>
    <path
       id="path40"
       d="m 81.613068,292.79292 3.867815,52.08948 3.867816,13.80685 h 3.867815 l 3.867815,13.49306 3.867811,26.35853 h 19.33908 l 3.86782,0.3138 h 11.60344 l 3.86782,10.35513 h 46.41378 l 3.86781,5.96205 h 479.6091 l 3.86781,1.25517 h 3.86782 l 3.86781,0.94138 v 0"
       style="fill:none;stroke:#1f77b4;stroke-width:1.5;stroke-linecap:square;stroke-linejoin:round;stroke-miterlimit:10;stroke-dasharray:none;stroke-opacity:1"
       transform="matrix(1.3333333,0,0,-1.3333333,0,598.87499)"
       clip-path="url(#clipPath41)" />
    <path
       id="path42"
       d="m 81.613068,292.79292 3.867815,52.08948 3.867816,13.80685 3.867815,-27.29991 3.867815,40.79297 3.867811,26.35853 3.86782,-63.38599 3.86781,37.34125 3.86782,8.78618 3.86782,-24.78957 3.86781,41.10676 3.86782,1.25517 3.86781,-8.1586 3.86782,3.45171 3.86781,-3.7655 3.86782,18.82752 3.86781,-20.08269 3.86782,5.64826 3.86781,-1.88275 3.86782,-7.53101 3.86781,20.39648 3.86782,-11.61031 3.86781,3.76551 3.86782,-2.19655 3.86781,-6.58963 3.86782,5.33447 3.86781,-0.94138 3.86782,6.27584 3.86781,15.37581 3.86782,-12.86547 3.86782,-6.58964 3.86781,6.27585 3.86782,2.19654 3.86781,-3.13792 3.86782,-6.27584 3.86781,-4.0793 3.86782,-1.56896 3.86781,15.37581 3.86782,-3.45171 3.86781,13.49306 3.86782,-6.58963 3.86781,-10.04135 3.86782,8.78618 3.86781,-11.9241 3.86782,-8.47239 3.86781,3.76551 3.86782,16.63098 3.86781,-5.64826 3.86782,-6.27584 3.86781,13.17927 3.86782,-28.55508 3.86782,19.14131 3.86781,4.0793 3.86782,10.98272 3.86781,-2.51033 3.86782,-8.1586 3.86781,-5.33446 3.86782,-16.31719 3.86781,25.73095 3.86782,-10.35514 3.86781,-3.45171 3.86782,6.27584 3.86781,-7.53101 3.86782,-9.41376 3.86781,-2.51034 3.86782,4.70688 3.86781,6.58964 3.86782,3.45171 3.86781,-6.27584 3.86782,-10.66893 3.86782,18.82752 3.86781,2.19655 3.86782,-0.94138 3.86781,-19.14132 3.86782,29.81025 3.86781,-20.08269 3.86782,16.94477 3.86781,-30.43783 3.86782,33.57575 3.86781,-14.74823 3.86782,17.57236 3.86781,-12.55168 3.86782,-3.13793 3.86781,1.25517 3.86782,7.21722 3.86781,-0.31379 3.86782,-15.06202 3.86781,18.19994 3.86782,-2.82413 3.86782,5.33446 3.86781,-2.19654 3.86782,-20.08269 3.86781,7.8448 3.86782,13.17927 3.86781,-5.64826 3.86782,2.82413 3.86781,3.7655 3.86782,-25.41715 3.86781,27.92749 3.86782,1.25517 3.86781,-5.64826 3.86782,6.90343 3.86781,-29.81025 3.86782,22.90682 3.86781,-1.56896 3.86782,-9.72755 3.86782,9.41376 3.86781,-26.35853 3.86781,19.7689 3.86782,-7.53101 3.86782,3.45171 3.86781,0.94137 3.86782,3.76551 3.86781,-8.15859 3.86782,-9.09997 3.86781,15.06201 3.86782,-15.37581 3.86781,-2.51033 3.86782,17.57235 3.86781,-6.58963 3.86782,-6.90343 3.86781,8.47239 3.86782,-7.8448 3.86781,20.39648 3.86782,-11.9241 3.86781,-7.21721 7.73563,14.43443 3.86782,-6.90342 3.86781,7.21721 3.86782,5.96205 3.86782,5.02068 3.86781,2.51033 3.86782,-7.8448 3.86781,-2.51034 3.86782,6.58964 3.86781,-21.65166 3.86782,12.2379 3.86781,13.80685 3.86782,-9.41377 3.86781,-0.94137 3.86782,6.27584 3.86781,-27.92749 3.86782,23.22061 3.86781,0.94137 3.86782,5.96205 3.86781,-7.8448 h 3.86782 l 3.86781,3.76551 3.86782,-0.94138 3.86782,4.0793 3.86781,0.31379 3.86782,-16.94477 3.86781,21.65165 3.86782,-8.47238 3.86781,9.41376 v 0"
       style="fill:none;stroke:#1f77b4;stroke-width:1.5;stroke-linecap:butt;stroke-linejoin:round;stroke-miterlimit:10;stroke-dasharray:5.55, 2.4;stroke-dashoffset:0;stroke-opacity:1"
       transform="matrix(1.3333333,0,0,-1.3333333,0,598.87499)"
       clip-path="url(#clipPath43)" />
    <path
       id="path44"
       d="m 81.613068,338.60656 3.867815,3.13792 h 3.867816 l 3.867815,35.4585 h 7.735626 l 3.86782,3.76551 h 11.60345 l 3.86781,21.96544 h 61.88504 l 3.86782,6.90343 h 3.86781 l 3.86782,0.94137 h 487.34472 v 0"
       style="fill:none;stroke:#ff7f0e;stroke-width:1.5;stroke-linecap:square;stroke-linejoin:round;stroke-miterlimit:10;stroke-dasharray:none;stroke-opacity:1"
       transform="matrix(1.3333333,0,0,-1.3333333,0,598.87499)"
       clip-path="url(#clipPath45)" />
    <path
       id="path46"
       d="m 81.613068,338.60656 3.867815,3.13792 3.867816,-6.27584 3.867815,41.73434 3.867815,-17.88614 L 98.390012,-1 m 5.073328,0 1.35662,381.96849 3.86781,-49.57915 3.86782,3.13792 3.86782,21.33786 3.86781,47.06881 3.86782,-45.18605 3.86781,15.06201 3.86782,17.25857 3.86781,-0.31379 3.86782,-17.57236 3.86781,8.47239 3.86782,16.00339 3.86781,2.51034 3.86782,-16.94477 3.86781,-15.06202 3.86782,22.59303 3.86781,0.94137 3.86782,-23.5344 3.86781,27.92749 3.86782,6.27584 3.86781,-13.17927 3.86782,21.65166 3.86781,-11.29652 3.86782,12.23789 3.86782,-7.21721 3.86781,-8.1586 3.86782,-2.51033 3.86781,7.8448 3.86782,-6.90343 3.86781,-6.27584 3.86782,5.33447 3.86781,15.06202 3.86782,-2.82413 3.86781,-15.68961 3.86782,-0.31379 3.86781,18.19994 3.86782,-5.33446 3.86781,5.64825 3.86782,-18.51373 3.86781,2.82413 3.86782,3.13792 3.86781,0.94138 3.86782,-2.51034 3.86781,5.64826 3.86782,-2.82413 3.86782,10.35514 3.86781,-14.12065 3.86782,8.78618 3.86781,-9.09997 3.86782,14.12064 3.86781,-0.31379 3.86782,-5.33446 3.86781,4.07929 3.86782,-8.47238 3.86781,5.96205 3.86782,4.70688 3.86781,0.62758 3.86782,-15.06202 3.86781,10.66893 3.86782,5.02068 3.86781,-5.96205 3.86782,1.88275 3.86781,-6.90343 3.86782,5.02068 3.86782,-3.76551 3.86781,3.45172 3.86782,2.19654 3.86781,-2.51034 3.86782,-4.07929 3.86781,5.33446 3.86782,-6.58963 3.86781,0.94137 3.86782,4.0793 3.86781,-9.09997 3.86782,5.33447 3.86781,4.07929 3.86782,1.25517 3.86781,-7.53101 3.86782,-5.33446 3.86781,12.55168 3.86782,-6.90343 3.86781,8.47239 3.86782,-17.57236 3.86782,14.74823 3.86781,-0.31379 3.86782,-0.62758 3.86781,-0.94138 3.86782,-0.62758 3.86781,-1.88276 3.86782,2.51034 3.86781,-3.45171 3.86782,4.70688 3.86781,-3.45172 3.86782,-6.90342 7.73563,3.7655 3.86781,0.94138 3.86782,-2.19654 3.86781,6.27584 3.86782,-2.51034 3.86782,-3.7655 3.86781,8.15859 3.86781,0.31379 3.86782,-6.58963 3.86782,6.90342 3.86781,-2.51033 3.86782,0.94137 3.86781,-1.88275 3.86782,3.45171 3.86781,-1.56896 3.86782,1.88276 3.86781,-4.0793 3.86782,2.19654 3.86781,1.88276 3.86782,-1.56896 3.86781,2.82412 3.86782,-2.19654 3.86781,-0.31379 3.86782,-1.25517 3.86781,1.56896 3.86782,0.62758 3.86781,-0.94137 3.86782,0.31379 3.86781,-0.62758 3.86782,0.62758 3.86782,-0.94138 3.86781,0.62759 3.86782,-3.45172 3.86781,2.82413 h 3.86782 l 3.86781,-0.31379 3.86782,0.31379 3.86781,2.19655 3.86782,-1.88275 3.86781,0.62758 3.86782,-0.31379 3.86781,0.31379 3.86782,1.56896 3.86781,-0.62758 3.86782,-1.56896 3.86781,1.88275 3.86782,0.31379 3.86781,-1.25517 3.86782,1.25517 3.86782,-0.31379 3.86781,1.88275 3.86782,-2.82413 3.86781,1.88275 3.86782,-1.25516 3.86781,0.62758 v 0"
       style="fill:none;stroke:#ff7f0e;stroke-width:1.5;stroke-linecap:butt;stroke-linejoin:round;stroke-miterlimit:10;stroke-dasharray:5.55, 2.4;stroke-dashoffset:0;stroke-opacity:1"
       transform="matrix(1.3333333,0,0,-1.3333333,0,598.87499)"
       clip-path="url(#clipPath47)" />
    <path
       id="path48"
       d="m 81.613068,100.75218 3.867815,245.38539 3.867816,26.04474 h 11.603441 l 3.86782,21.02407 h 27.07471 l 3.86781,10.66893 h 3.86782 l 3.86781,3.7655 h 61.88505 l 3.86781,4.39309 h 127.6379 l 3.86782,1.25517 h 27.07471 l 3.86781,1.25517 h 27.07471 l 3.86781,1.25517 3.86782,2.82412 h 274.61488 v 0"
       style="fill:none;stroke:#2ca02c;stroke-width:1.5;stroke-linecap:square;stroke-linejoin:round;stroke-miterlimit:10;stroke-dasharray:none;stroke-opacity:1"
       transform="matrix(1.3333333,0,0,-1.3333333,0,598.87499)"
       clip-path="url(#clipPath49)" />
    <path
       id="path50"
       d="m 81.613068,100.75218 3.867815,245.38539 3.867816,26.04474 3.867815,-219.65444 3.867815,129.59612 3.867811,9.09997 3.86782,101.98242 3.86781,-33.57575 3.86782,19.14131 3.86782,-5.02067 7.73563,-21.65165 3.86781,12.55168 3.86782,22.59303 3.86781,16.63098 3.86782,-22.90682 3.86781,26.67232 3.86782,-28.24128 3.86781,11.9241 3.86782,-3.13793 3.86781,8.78618 3.86782,3.13792 3.86781,-6.58963 3.86782,-10.04135 3.86781,5.33447 3.86782,7.21722 3.86781,0.62758 3.86782,10.04135 3.86781,-6.58964 3.86782,3.13792 3.86782,-5.96205 3.86781,-3.45171 3.86782,5.64826 3.86781,12.55168 3.86782,-3.13792 3.86781,-9.09997 3.86782,1.25517 3.86781,4.70688 3.86782,-16.94477 3.86781,7.8448 3.86782,-10.98272 3.86781,7.21722 3.86782,-9.41377 3.86781,13.49306 3.86782,-6.27584 3.86781,-5.33446 3.86782,-2.19655 3.86781,13.49306 3.86782,-10.66893 3.86781,7.21722 3.86782,-2.82413 3.86782,5.64826 3.86781,-9.41377 3.86782,7.21722 3.86781,-9.41376 3.86782,-1.25517 3.86781,24.16199 3.86782,0.31379 3.86781,-7.21721 3.86782,4.39308 3.86781,2.51034 3.86782,1.25517 3.86781,0.31379 3.86782,-8.78618 3.86781,3.45172 3.86782,5.64825 3.86781,2.19655 3.86782,1.88275 3.86781,-1.56896 3.86782,-0.31379 3.86782,-0.94138 7.73563,0.62759 3.86781,-14.43444 3.86782,3.13792 3.86781,14.74823 3.86782,-5.64826 3.86781,-4.70688 3.86782,10.35514 3.86781,-2.82413 3.86782,-16.31719 3.86781,15.06202 3.86782,-3.45171 3.86781,8.78618 3.86782,2.82412 3.86781,-7.531 3.86782,-5.02068 3.86781,5.02068 3.86782,4.39308 3.86782,-4.39308 3.86781,-0.62759 3.86782,2.19655 3.86781,-6.90343 3.86782,10.04135 3.86781,0.31379 3.86782,2.51033 3.86781,-2.51033 3.86782,-6.27584 3.86781,2.82413 3.86782,-1.25517 3.86781,-1.88276 3.86782,0.3138 3.86781,2.82413 3.86782,-0.94138 3.86781,-1.56896 3.86782,1.25517 3.86782,-1.56896 3.86781,7.21721 3.86781,-4.07929 3.86782,-0.31379 3.86782,0.31379 3.86781,0.94137 3.86782,-4.70688 3.86781,1.88276 11.60345,2.82412 3.86781,0.3138 3.86782,-5.96205 3.86781,5.02067 3.86782,-4.0793 3.86781,5.02068 3.86782,2.19654 3.86781,0.31379 3.86782,0.62759 3.86781,-0.62759 h 3.86782 l 3.86781,-3.45171 h 3.86782 l 3.86781,1.88275 3.86782,0.94138 3.86782,-3.45171 3.86781,3.45171 3.86782,-1.25517 h 3.86781 l 3.86782,-1.25517 3.86781,2.19655 3.86782,0.31379 3.86781,-2.82413 3.86782,4.0793 3.86781,-4.0793 3.86782,0.62758 h 3.86781 l 3.86782,-1.25516 3.86781,4.70688 3.86782,-4.70688 3.86781,5.02067 3.86782,-4.0793 3.86781,2.51034 3.86782,0.94137 3.86782,-2.19654 3.86781,-0.62758 3.86782,-1.25517 3.86781,0.31379 3.86782,3.13792 3.86781,-1.56896 v 0"
       style="fill:none;stroke:#2ca02c;stroke-width:1.5;stroke-linecap:butt;stroke-linejoin:round;stroke-miterlimit:10;stroke-dasharray:5.55, 2.4;stroke-dashoffset:0;stroke-opacity:1"
       transform="matrix(1.3333333,0,0,-1.3333333,0,598.87499)"
       clip-path="url(#clipPath51)" />
    <path
       id="path52"
       d="m 81.613068,207.75527 3.867815,163.17187 h 7.735631 l 3.867815,11.9241 h 11.603441 l 3.86782,12.86547 h 11.60345 l 3.86781,4.70689 h 46.41378 l 3.86782,1.56896 h 15.47126 l 3.86782,9.09997 h 92.82756 l 3.86782,0.31379 h 81.22412 l 3.86781,2.19654 h 30.94252 l 3.86782,1.56896 h 154.71261 l 3.86781,1.25517 h 7.73563 l 3.86782,0.31379 h 96.69538 v 0"
       style="fill:none;stroke:#d62728;stroke-width:1.5;stroke-linecap:square;stroke-linejoin:round;stroke-miterlimit:10;stroke-dasharray:none;stroke-opacity:1"
       transform="matrix(1.3333333,0,0,-1.3333333,0,598.87499)"
       clip-path="url(#clipPath53)" />
    <path
       id="path54"
       d="m 81.613068,207.75527 3.867815,163.17187 3.867816,-3.13792 3.867815,-15.6896 3.867815,30.75162 3.867811,-25.41716 3.86782,21.02407 3.86781,-20.08269 3.86782,37.34125 3.86782,-31.3792 3.86781,10.98272 3.86782,17.88615 3.86781,7.21722 3.86782,-17.57236 3.86781,-24.47578 3.86782,-3.45171 3.86781,45.18605 3.86782,-9.09997 3.86781,-13.49306 3.86782,16.31719 3.86781,-1.56896 3.86782,-21.65165 3.86781,22.90682 3.86782,-19.14132 3.86781,5.96205 3.86782,21.65166 3.86781,-13.80686 3.86782,12.86548 3.86781,-6.90343 3.86782,-3.13792 3.86782,20.0827 3.86781,-23.22062 3.86782,16.94477 3.86781,-0.94137 3.86782,-20.71028 3.86781,-8.47238 3.86782,15.6896 3.86781,-5.02067 3.86782,3.7655 3.86781,4.39309 3.86782,-15.37581 3.86781,10.04134 3.86782,8.1586 3.86781,4.0793 3.86782,5.96204 3.86781,-8.78617 3.86782,-7.53101 3.86781,16.31718 3.86782,-6.58963 3.86781,4.0793 3.86782,6.90342 3.86782,-9.09997 3.86781,-8.78617 3.86782,9.72755 3.86781,3.7655 3.86782,5.02068 3.86781,-4.39309 3.86782,-3.13792 7.73563,0.62758 3.86781,-1.25517 3.86782,1.56896 3.86781,4.0793 3.86782,1.56896 3.86781,-6.90342 3.86782,4.07929 3.86781,3.13792 3.86782,-1.56896 3.86781,-3.7655 3.86782,0.94137 3.86782,-0.62758 3.86781,2.51034 3.86782,1.25516 3.86781,-1.56895 7.73563,-0.62759 3.86782,2.51034 3.86781,3.7655 3.86782,-2.82413 3.86781,0.94138 3.86782,-0.62758 3.86781,-0.94138 3.86782,2.19654 3.86781,0.3138 3.86782,-1.88276 3.86781,-0.62758 3.86782,5.02067 3.86781,-0.94137 3.86782,0.31379 3.86782,-1.56896 3.86781,-0.94138 3.86782,1.56896 3.86781,-3.45171 3.86782,1.56896 3.86781,-0.62758 3.86782,0.94137 3.86781,0.31379 3.86782,-3.45171 3.86781,3.45171 3.86782,-3.13792 3.86781,-3.45171 3.86782,1.88275 3.86781,0.62759 3.86782,0.94137 3.86781,-2.19654 3.86782,-0.94138 3.86782,2.82413 3.86781,-0.62758 3.86781,-1.25517 3.86782,-0.62759 3.86782,4.0793 7.73563,1.25517 3.86781,-1.88275 3.86782,-1.25517 3.86781,2.82413 3.86782,0.94137 3.86781,-1.25516 3.86782,1.25516 3.86781,0.62759 3.86782,-1.56896 3.86781,2.51033 3.86782,0.62759 3.86781,-2.51034 3.86782,0.31379 3.86781,-0.62758 3.86782,0.31379 3.86781,4.39309 3.86782,-4.39309 3.86781,-3.7655 3.86782,8.47238 3.86782,-5.33446 3.86781,0.31379 3.86782,1.88275 3.86781,-0.62758 3.86782,0.31379 3.86781,0.62758 3.86782,-0.31379 h 3.86781 l 7.73563,-4.39309 3.86782,4.0793 3.86781,-1.88275 3.86782,1.56896 7.73563,-2.51034 3.86781,1.88275 3.86782,3.76551 3.86781,-5.02067 3.86782,0.94137 3.86782,-0.31379 3.86781,2.82413 3.86782,-1.88275 h 3.86781 l 3.86782,0.31379 3.86781,-0.31379 v 0"
       style="fill:none;stroke:#d62728;stroke-width:1.5;stroke-linecap:butt;stroke-linejoin:round;stroke-miterlimit:10;stroke-dasharray:5.55, 2.4;stroke-dashoffset:0;stroke-opacity:1"
       transform="matrix(1.3333333,0,0,-1.3333333,0,598.87499)"
       clip-path="url(#clipPath55)" />
    <path
       id="path56"
       d="m 81.613068,346.13757 h 19.339072 l 3.86782,31.3792 h 42.54597 l 3.86781,4.0793 3.86782,3.13792 3.86781,6.58964 3.86782,4.70688 h 38.67815 l 3.86782,7.8448 h 34.81033 l 3.86782,4.39309 h 19.33907 l 3.86782,6.58963 h 100.5632 l 3.86781,4.70688 h 309.42522 v 0"
       style="fill:none;stroke:#9467bd;stroke-width:1.5;stroke-linecap:square;stroke-linejoin:round;stroke-miterlimit:10;stroke-dasharray:none;stroke-opacity:1"
       transform="matrix(1.3333333,0,0,-1.3333333,0,598.87499)"
       clip-path="url(#clipPath57)" />
    <path
       id="path58"
       d="m 81.613068,346.13757 3.867815,-65.58254 3.867816,60.87566 3.867815,-277.705976 3.867815,194.864866 3.867811,-40.16538 3.86782,159.09257 3.86781,-45.81364 3.86782,-18.19994 3.86782,46.75502 3.86781,-30.12404 3.86782,-26.67232 3.86781,52.40327 3.86782,-16.31718 3.86781,11.92409 3.86782,1.56896 3.86781,7.21722 3.86782,4.0793 3.86781,17.25856 3.86782,3.13792 3.86781,6.58964 3.86782,4.70688 3.86781,-21.33786 3.86782,-4.70688 3.86781,11.29651 3.86782,-12.23789 3.86781,6.27584 3.86782,17.88615 3.86781,-14.12064 3.86782,-5.64826 3.86782,7.53101 3.86781,6.58963 3.86782,16.31719 3.86781,-26.35854 3.86782,20.0827 3.86781,-5.02068 3.86782,-4.70688 3.86781,-12.86547 3.86782,9.72755 3.86781,16.63098 3.86782,0.94138 3.86781,-5.96205 3.86782,11.9241 3.86781,-16.94477 3.86782,-0.62759 3.86781,-4.39309 3.86782,7.53101 3.86781,-3.45171 3.86782,24.47578 3.86781,-26.04474 3.86782,-1.25517 3.86782,15.06202 3.86781,-13.17927 3.86782,12.86548 3.86781,-5.64826 3.86782,-24.16199 3.86781,18.82753 3.86782,12.23789 3.86781,-8.78618 3.86782,10.35514 3.86781,-10.66893 3.86782,6.90342 3.86781,-18.19994 3.86782,2.19655 3.86781,7.53101 3.86782,-7.21722 3.86781,17.25856 3.86782,-6.58963 3.86781,5.64826 3.86782,0.62758 3.86782,-2.51034 3.86781,-5.96205 3.86782,6.27585 3.86781,-6.27585 3.86782,-5.96205 3.86781,31.37921 3.86782,-20.08269 3.86781,-7.21722 3.86782,0.62759 3.86781,15.37581 3.86782,-10.66893 3.86781,3.7655 h 3.86782 l 3.86781,8.15859 3.86782,-5.64825 3.86781,4.70688 3.86782,-14.43444 3.86781,2.51034 3.86782,-8.78618 3.86782,3.13792 3.86781,11.61031 3.86782,-0.62758 3.86781,-1.88276 3.86782,-0.62758 3.86781,-1.88275 3.86782,14.12064 3.86781,-5.02067 3.86782,-9.09997 3.86781,-5.64826 3.86782,10.98272 3.86781,-15.6896 3.86782,16.63098 3.86781,-1.56896 3.86782,-4.39309 3.86781,2.51034 3.86782,-2.51034 3.86782,-3.76551 3.86781,5.64826 3.86781,-9.41376 3.86782,7.8448 3.86782,-7.53101 3.86781,7.21722 3.86782,9.09997 3.86781,-2.82413 3.86782,0.31379 3.86781,-17.25856 3.86782,14.74823 3.86781,-11.61031 3.86782,12.23789 3.86781,3.13792 3.86782,-5.96205 3.86781,1.25517 3.86782,1.56896 3.86781,0.31379 7.73563,1.25517 3.86782,-2.19654 3.86781,-0.62759 h 3.86782 l 3.86781,-14.12064 3.86782,13.17927 3.86782,-15.68961 3.86781,17.88615 3.86782,2.19654 3.86781,-4.39308 3.86782,-0.3138 3.86781,-1.88275 3.86782,1.88275 3.86781,-5.33446 3.86782,7.53101 3.86781,-0.94138 3.86782,-43.93089 3.86781,42.67572 3.86782,3.13792 3.86781,-10.35513 3.86782,11.6103 3.86781,-9.09997 3.86782,4.70688 3.86781,-15.06201 3.86782,16.63097 3.86782,-6.58963 3.86781,6.27584 3.86782,3.76551 3.86781,-3.45172 3.86782,-3.7655 3.86781,4.39309 v 0"
       style="fill:none;stroke:#9467bd;stroke-width:1.5;stroke-linecap:butt;stroke-linejoin:round;stroke-miterlimit:10;stroke-dasharray:5.55, 2.4;stroke-dashoffset:0;stroke-opacity:1"
       transform="matrix(1.3333333,0,0,-1.3333333,0,598.87499)"
       clip-path="url(#clipPath59)" />
    <path
       id="path60"
       d="m 81.613068,336.72381 h 23.206892 l 3.86781,21.02407 3.86782,13.80685 h 23.20689 l 3.86782,5.49136 h 7.73563 l 3.86781,17.41546 h 11.60345 l 3.86781,3.7655 h 61.88505 l 3.86781,1.25517 h 27.07471 l 3.86781,0.94138 h 3.86782 l 3.86781,0.62758 3.86782,6.58963 h 108.29883 l 3.86781,4.70688 h 3.86782 l 3.86781,1.88276 h 116.03446 l 3.86782,0.31379 h 19.33907 l 3.86782,1.25517 h 42.54596 l 3.86782,3.7655 h 96.69538 v 0"
       style="fill:none;stroke:#8c564b;stroke-width:1.5;stroke-linecap:square;stroke-linejoin:round;stroke-miterlimit:10;stroke-dasharray:none;stroke-opacity:1"
       transform="matrix(1.3333333,0,0,-1.3333333,0,598.87499)"
       clip-path="url(#clipPath61)" />
    <path
       id="path62"
       d="m 81.613068,336.72381 3.867815,-55.85499 3.867816,36.08609 3.867815,-8.1586 3.867815,-22.59303 3.867811,-85.35143 3.86782,135.24437 3.86781,21.65166 3.86782,13.80685 3.86782,-10.66893 3.86781,-10.04135 3.86782,9.09997 3.86781,7.53101 3.86782,2.51034 3.86781,-4.0793 3.86782,11.13962 3.86781,-12.39479 3.86782,-10.35514 3.86781,40.16539 3.86782,-27.29991 3.86781,20.71027 3.86782,-6.27584 3.86781,16.63098 7.73563,-22.27924 3.86782,14.74823 3.86781,-4.0793 3.86782,1.88276 3.86781,-6.58964 3.86782,5.33447 3.86782,3.45171 3.86781,-18.82752 3.86782,19.14131 3.86781,3.13792 3.86782,-3.45171 3.86781,2.51034 3.86782,-8.78618 3.86781,7.53101 3.86782,1.56896 3.86781,5.96205 3.86782,-5.33447 3.86781,-0.94137 3.86782,-11.29652 3.86781,12.23789 3.86782,-5.02067 3.86781,1.56896 3.86782,7.8448 3.86781,1.88276 3.86782,-5.64826 3.86781,6.27584 3.86782,6.58963 3.86782,-11.29651 3.86781,-9.41376 3.86782,11.9241 3.86781,-3.45172 3.86782,-2.82413 3.86781,0.3138 3.86782,5.02067 3.86781,-2.51034 3.86782,3.45172 3.86781,-2.82413 3.86782,2.82413 3.86781,0.62758 3.86782,5.02067 3.86781,-6.90342 3.86782,-1.25517 3.86781,-1.88275 3.86782,5.64825 3.86781,-2.82413 3.86782,-5.33446 3.86782,8.47239 3.86781,-0.62759 3.86782,2.82413 3.86781,-4.70688 3.86782,1.88275 3.86781,4.39309 3.86782,-0.31379 3.86781,-8.78618 3.86782,4.70688 3.86781,12.55168 3.86782,-5.33446 3.86781,7.21722 3.86782,-5.96205 3.86781,3.7655 3.86782,-5.33446 3.86781,-6.27584 3.86782,2.82412 3.86781,10.98273 3.86782,-8.47239 3.86782,3.13792 3.86781,-9.72755 3.86782,-0.62759 3.86781,7.53101 3.86782,2.19655 3.86781,1.25516 3.86782,-5.33446 3.86781,-2.19654 3.86782,9.72755 3.86781,-7.8448 3.86782,0.62758 3.86781,8.47239 3.86782,-5.64826 3.86781,-1.25517 3.86782,8.1586 3.86781,-11.9241 3.86782,-0.62759 3.86782,6.27585 3.86781,1.56895 3.86781,-0.31379 3.86782,-1.56896 3.86782,2.82413 3.86781,-2.51033 3.86782,6.58963 3.86781,-3.45171 3.86782,-5.33447 3.86781,-0.62758 3.86782,4.07929 3.86781,-5.64825 3.86782,12.23789 3.86781,-5.64826 3.86782,-12.86548 3.86781,8.47239 3.86782,-12.08099 3.86781,10.82582 3.86782,-16.00339 3.86781,17.88614 3.86782,-4.07929 3.86781,7.8448 3.86782,-5.96205 3.86781,0.94138 3.86782,14.43443 3.86782,-19.45511 3.86781,-5.96205 3.86782,4.39309 3.86781,7.8448 3.86782,-14.74822 3.86781,4.39309 3.86782,-12.23789 3.86781,24.78957 3.86782,2.51034 3.86781,-3.45172 3.86782,5.02068 3.86781,-3.76551 3.86782,-0.94137 3.86781,1.25516 3.86782,5.33447 3.86781,-29.18266 3.86782,-2.19655 3.86781,29.49646 3.86782,-7.21722 3.86782,0.31379 3.86781,2.51034 3.86782,-10.35514 3.86781,15.06202 3.86782,-9.41376 3.86781,-0.3138 v 0"
       style="fill:none;stroke:#8c564b;stroke-width:1.5;stroke-linecap:butt;stroke-linejoin:round;stroke-miterlimit:10;stroke-dasharray:5.55, 2.4;stroke-dashoffset:0;stroke-opacity:1"
       transform="matrix(1.3333333,0,0,-1.3333333,0,598.87499)"
       clip-path="url(#clipPath63)" />
    <path
       id="path64"
       d="m 81.613068,291.22396 h 3.867815 l 3.867816,4.70688 3.867815,64.95496 3.867815,3.45171 3.867811,5.02067 h 92.82757 l 3.86782,8.47239 3.86781,12.55168 3.86782,19.14131 h 69.62067 l 3.86782,3.76551 h 328.76429 l 3.86782,1.25517 h 3.86781 l 3.86782,1.25517 h 7.73563 l 3.86781,0.62758 h 30.94253 l 3.86781,0.94138 h 15.47126 v 0"
       style="fill:none;stroke:#e377c2;stroke-width:1.5;stroke-linecap:square;stroke-linejoin:round;stroke-miterlimit:10;stroke-dasharray:none;stroke-opacity:1"
       transform="matrix(1.3333333,0,0,-1.3333333,0,598.87499)"
       clip-path="url(#clipPath65)" />
    <path
       id="path66"
       d="m 81.613068,291.22396 3.867815,-19.14132 3.867816,23.8482 3.867815,64.95496 3.867815,3.45171 3.867811,5.02067 L 104.3589,-1 m 0.96092,0 3.36795,337.72381 3.86782,-54.28603 3.86782,52.71707 3.86781,27.29991 3.86782,-40.47918 3.86781,43.3033 3.86782,-27.2999 3.86781,26.67232 3.86782,-9.41376 3.86781,-5.33447 3.86782,15.68961 3.86781,-12.86548 3.86782,4.70688 3.86781,-14.12064 3.86782,6.27584 3.86781,0.31379 3.86782,9.09997 3.86781,3.45172 3.86782,-21.96545 3.86781,23.22061 3.86782,-2.19654 3.86781,-8.47239 3.86782,5.33447 3.86782,19.45511 3.86781,12.55168 3.86782,19.14131 3.86781,-13.80685 3.86782,2.82413 3.86781,5.96205 3.86782,-34.51712 3.86781,14.12064 3.86782,4.07929 3.86781,10.66894 3.86782,-16.63098 h 3.86781 l 3.86782,9.41376 3.86781,0.31379 3.86782,-9.41376 3.86781,21.33786 3.86782,-12.86548 3.86781,10.98273 3.86782,5.02067 3.86781,-3.76551 3.86782,0.3138 3.86782,9.72755 3.86781,-7.53101 3.86782,-3.13792 7.73563,-9.41376 3.86781,-5.33447 3.86782,-5.02067 3.86781,26.98612 3.86782,-10.66893 3.86781,7.21721 3.86782,-6.90342 3.86781,-2.19655 3.86782,-6.27584 3.86781,12.86548 3.86782,6.58963 3.86781,-20.08269 3.86782,12.86547 3.86781,-1.56896 3.86782,-0.94137 3.86782,5.02067 h 3.86781 l 3.86782,-8.15859 3.86781,-2.82413 3.86782,6.90342 3.86781,1.88276 3.86782,6.58963 3.86781,-3.76551 3.86782,-6.90342 3.86781,-2.82413 3.86782,3.76551 3.86781,4.39308 3.86782,-2.82412 3.86781,-5.64826 3.86782,-0.62759 3.86781,10.35514 3.86782,-3.7655 3.86781,-5.02068 3.86782,1.88276 3.86782,5.33446 3.86781,-10.35514 3.86782,8.1586 3.86781,-0.31379 3.86782,-0.94138 3.86781,3.7655 3.86782,0.3138 3.86781,-0.62759 7.73563,-1.88275 3.86782,8.15859 3.86781,-10.35513 3.86782,10.35513 3.86781,-6.58963 3.86782,0.62758 3.86781,-2.19654 3.86782,-0.62758 3.86782,3.45171 3.86781,-2.19655 3.86781,3.45172 3.86782,2.51033 3.86782,-3.13792 3.86781,-1.88275 3.86782,2.19654 3.86781,0.3138 3.86782,-0.3138 3.86781,0.94138 3.86782,-3.45171 7.73563,2.51033 3.86781,-0.62758 3.86782,1.88275 3.86781,-0.94137 7.73563,1.25517 3.86782,-0.3138 3.86781,1.25517 h 3.86782 l 3.86781,0.62758 3.86782,-2.19654 3.86781,-0.31379 3.86782,2.82413 h 7.73563 l 3.86782,0.62758 h 3.86781 l 3.86782,0.31379 3.86781,-0.62758 3.86782,4.39309 3.86781,-0.62759 3.86782,1.88276 3.86781,-5.64826 3.86782,-0.31379 3.86781,6.58963 3.86782,-1.88275 3.86781,-0.31379 3.86782,1.25516 3.86781,-1.88275 3.86782,-1.25517 3.86781,1.88276 3.86782,-0.94138 3.86782,0.31379 3.86781,3.76551 3.86782,-2.19655 3.86781,1.25517 3.86782,-3.13792 3.86781,-0.94138 v 0"
       style="fill:none;stroke:#e377c2;stroke-width:1.5;stroke-linecap:butt;stroke-linejoin:round;stroke-miterlimit:10;stroke-dasharray:5.55, 2.4;stroke-dashoffset:0;stroke-opacity:1"
       transform="matrix(1.3333333,0,0,-1.3333333,0,598.87499)"
       clip-path="url(#clipPath67)" />
    <path
       id="path68"
       d="m 81.613068,336.72381 3.867815,44.24468 h 23.206887 l 3.86782,0.62758 h 7.73563 l 3.86782,31.06542 h 556.96539 v 0"
       style="fill:none;stroke:#7f7f7f;stroke-width:1.5;stroke-linecap:square;stroke-linejoin:round;stroke-miterlimit:10;stroke-dasharray:none;stroke-opacity:1"
       transform="matrix(1.3333333,0,0,-1.3333333,0,598.87499)"
       clip-path="url(#clipPath69)" />
    <path
       id="path70"
       d="m 81.613068,336.72381 3.867815,44.24468 3.867816,-27.9275 3.867815,22.59303 3.867815,-9.41376 3.867811,-31.06541 3.86782,24.78957 3.86781,-1.56896 3.86782,23.22061 3.86782,-7.8448 3.86781,0.94138 3.86782,37.96884 3.86781,-15.06202 3.86782,-6.58964 3.86781,-16.00339 3.86782,-1.25517 3.86781,-29.81025 3.86782,33.57575 3.86781,-15.37581 3.86782,26.67233 3.86781,-15.6896 3.86782,-2.82413 3.86781,15.6896 3.86782,-5.33446 3.86781,6.90342 3.86782,-20.08269 3.86781,5.33446 3.86782,9.41377 3.86781,-11.61031 3.86782,-0.31379 3.86782,11.6103 3.86781,-9.41376 3.86782,-8.47238 3.86781,16.63098 3.86782,-8.78618 3.86781,12.55168 3.86782,-0.31379 3.86781,-9.72756 3.86782,-1.25516 3.86781,4.07929 3.86782,4.70688 3.86781,-2.51033 3.86782,-0.62759 3.86781,-6.58963 3.86782,16.94477 3.86781,-10.04134 3.86782,3.13792 3.86781,1.25516 7.73563,12.55169 3.86782,-10.04135 3.86782,11.9241 3.86781,-9.72756 3.86782,-19.14131 3.86781,14.12064 3.86782,17.57236 3.86781,-13.49306 3.86782,-0.94138 3.86781,-16.63098 3.86782,31.06542 3.86781,-12.55169 3.86782,2.82413 3.86781,2.51034 3.86782,-10.98272 3.86781,9.09997 h 3.86782 l 3.86781,6.58963 3.86782,5.33447 3.86781,4.70688 3.86782,-1.88276 3.86782,-0.94137 3.86781,-10.35514 3.86782,-20.08269 3.86781,8.78618 3.86782,23.22061 3.86781,-9.41376 3.86782,-2.51034 3.86781,-1.25517 3.86782,5.96205 3.86781,9.41376 3.86782,-6.27584 3.86781,0.62759 3.86782,-3.76551 3.86781,5.33447 3.86782,5.96205 3.86781,-1.56897 3.86782,-19.76889 3.86781,-2.82413 3.86782,16.63098 3.86782,-19.45511 3.86781,17.57235 3.86782,-5.33446 3.86781,10.66893 3.86782,1.56896 3.86781,1.25517 3.86782,-0.3138 3.86781,-18.19993 3.86782,13.49305 3.86781,-16.31718 3.86782,2.19654 3.86781,16.63098 3.86782,-2.82413 3.86781,-21.33786 3.86782,9.09997 3.86781,-5.33446 3.86782,9.09997 3.86782,-10.35514 3.86781,-3.45171 3.86781,5.96204 3.86782,-2.19654 3.86782,5.02067 3.86781,-0.62758 3.86782,-10.04135 3.86781,10.04135 3.86782,13.49306 3.86781,3.13792 7.73563,-14.43444 3.86782,-1.56896 3.86781,-11.6103 3.86782,8.47238 3.86781,1.88276 3.86782,-6.58964 3.86781,-5.64826 3.86782,10.04135 3.86781,14.74823 3.86782,-10.35514 3.86781,-9.41376 3.86782,-3.13792 3.86781,10.35514 3.86782,-0.94138 3.86782,7.53101 3.86781,-5.02067 3.86782,-1.56896 3.86781,5.96204 3.86782,-4.07929 3.86781,-2.82413 3.86782,-5.33447 3.86781,-0.62758 3.86782,-3.7655 3.86781,2.51033 3.86782,5.02067 3.86781,-9.09997 3.86782,15.37582 3.86781,2.82412 3.86782,-13.80685 3.86781,9.09997 3.86782,10.04135 3.86781,-7.8448 3.86782,-0.94138 3.86782,2.51034 3.86781,-0.31379 3.86782,1.25516 3.86781,4.70689 3.86782,-8.1586 3.86781,4.0793 v 0"
       style="fill:none;stroke:#7f7f7f;stroke-width:1.5;stroke-linecap:butt;stroke-linejoin:round;stroke-miterlimit:10;stroke-dasharray:5.55, 2.4;stroke-dashoffset:0;stroke-opacity:1"
       transform="matrix(1.3333333,0,0,-1.3333333,0,598.87499)"
       clip-path="url(#clipPath71)" />
    <path
       id="path72"
       d="m 81.613068,127.11071 3.867815,203.02346 3.867816,17.57236 h 11.603441 l 3.86782,9.09997 h 11.60345 l 3.86781,2.82413 3.86782,3.7655 h 3.86781 l 3.86782,3.13792 3.86781,35.14471 h 3.86782 l 3.86781,5.64826 h 15.47126 l 3.86782,3.13792 h 61.88504 l 3.86782,0.31379 h 54.14941 l 3.86782,0.94138 h 23.20689 l 3.86781,0.94138 h 54.14942 l 3.86781,1.25516 h 11.60345 l 3.86781,0.3138 h 7.73563 l 3.86782,3.7655 h 50.2816 l 3.86781,1.56896 h 228.2011 v 0"
       style="fill:none;stroke:#bcbd22;stroke-width:1.5;stroke-linecap:square;stroke-linejoin:round;stroke-miterlimit:10;stroke-dasharray:none;stroke-opacity:1"
       transform="matrix(1.3333333,0,0,-1.3333333,0,598.87499)"
       clip-path="url(#clipPath73)" />
    <path
       id="path74"
       d="m 81.613068,127.11071 3.867815,203.02346 3.867816,17.57236 3.867815,-233.46129 3.867815,-48.323981 3.867811,260.761201 3.86782,30.12404 3.86781,-8.15859 3.86782,8.15859 3.86782,-35.4585 3.86781,38.28263 3.86782,3.7655 3.86781,-10.66893 3.86782,13.80685 3.86781,35.14471 3.86782,-20.71027 3.86781,26.35853 3.86782,-35.4585 3.86781,21.96544 3.86782,-0.62758 3.86781,-5.02068 3.86782,22.27924 3.86781,-26.67232 3.86782,18.19994 3.86781,-4.70689 3.86782,5.02068 3.86781,5.64826 3.86782,-1.56897 3.86781,-12.55168 3.86782,10.66893 3.86782,2.19655 3.86781,-12.86548 3.86782,4.39309 3.86781,3.45171 3.86782,-10.35513 3.86781,-0.94138 3.86782,9.72755 3.86781,-5.64825 3.86782,16.31718 3.86781,-32.32058 3.86782,22.90682 3.86781,-10.66893 3.86782,-9.09997 3.86781,17.57236 3.86782,-25.41716 3.86781,32.94817 3.86782,3.13792 3.86781,-8.1586 3.86782,-0.94137 3.86781,4.39309 3.86782,-10.66893 3.86782,13.17926 3.86781,-5.96205 3.86782,10.04135 3.86781,-12.55168 3.86782,8.78618 3.86781,-15.37582 3.86782,12.23789 3.86781,2.19655 3.86782,-10.98272 3.86781,16.63098 3.86782,-4.0793 3.86781,-9.09997 3.86782,7.21722 3.86781,-7.21722 3.86782,0.62758 3.86781,7.21722 3.86782,-1.56896 3.86781,-5.96205 3.86782,-1.25517 3.86782,-1.56896 3.86781,11.61031 3.86782,-11.29652 3.86781,-5.33446 3.86782,3.13792 3.86781,18.82752 3.86782,-0.94137 3.86781,-11.9241 3.86782,0.62758 3.86781,12.55169 3.86782,-15.06202 3.86781,-3.76551 3.86782,22.59303 3.86781,-3.7655 h 3.86782 l 3.86781,-0.94138 3.86782,-3.76551 3.86781,5.33447 3.86782,-4.70688 3.86782,2.82413 3.86781,3.13792 3.86782,-6.27584 3.86781,0.31379 3.86782,2.51034 3.86781,-5.64826 3.86782,-16.0034 3.86781,28.55508 3.86782,-4.70688 3.86781,-15.6896 3.86782,7.8448 3.86781,4.70688 3.86782,-7.8448 3.86781,6.58963 3.86782,-6.27584 3.86781,-1.25517 3.86782,1.25517 3.86782,3.45171 3.86781,-3.45171 3.86781,-1.88275 3.86782,3.7655 3.86782,-3.13792 3.86781,6.58963 3.86782,-4.39308 3.86781,-0.94138 3.86782,1.56896 3.86781,-5.33446 3.86782,4.70688 3.86781,2.19654 3.86782,-24.47578 3.86781,21.96544 3.86782,4.0793 3.86781,2.82413 3.86782,-22.59303 3.86781,16.0034 3.86782,-2.82413 3.86781,-1.25517 3.86782,1.88275 3.86781,-10.35514 3.86782,5.02068 3.86781,-1.88276 3.86782,2.19655 3.86782,4.70688 3.86781,-15.6896 3.86782,9.09997 3.86781,-4.70688 3.86782,-2.19655 3.86781,0.94138 3.86782,4.70688 3.86781,-2.82413 3.86782,-8.15859 3.86781,14.74822 3.86782,-1.56896 3.86781,-13.49306 3.86782,3.76551 3.86781,1.88275 3.86782,-3.7655 3.86781,7.53101 3.86782,-0.94138 3.86781,7.8448 3.86782,-7.21722 3.86782,-12.23789 3.86781,19.45511 3.86782,-11.61031 3.86781,14.74823 3.86782,-9.09997 3.86781,0.31379 v 0"
       style="fill:none;stroke:#bcbd22;stroke-width:1.5;stroke-linecap:butt;stroke-linejoin:round;stroke-miterlimit:10;stroke-dasharray:5.55, 2.4;stroke-dashoffset:0;stroke-opacity:1"
       transform="matrix(1.3333333,0,0,-1.3333333,0,598.87499)"
       clip-path="url(#clipPath75)" />
    <path
       id="path76"
       d="m 81.613068,351.78583 h 3.867815 l 3.867816,1.25516 h 3.867815 l 3.867815,17.88615 h 7.735631 l 3.86781,21.33786 h 42.54597 l 3.86782,1.25517 H 166.705 l 3.86782,7.21722 h 15.47126 l 3.86781,5.02067 h 69.62068 l 3.86781,0.31379 h 15.47127 l 3.86781,0.94138 h 3.86782 l 3.86781,0.62758 h 7.73563 l 3.86782,4.0793 h 38.67815 l 3.86781,5.64826 h 336.49993 v 0"
       style="fill:none;stroke:#17becf;stroke-width:1.5;stroke-linecap:square;stroke-linejoin:round;stroke-miterlimit:10;stroke-dasharray:none;stroke-opacity:1"
       transform="matrix(1.3333333,0,0,-1.3333333,0,598.87499)"
       clip-path="url(#clipPath77)" />
    <path
       id="path78"
       d="m 81.613068,351.78583 3.867815,-47.38261 3.867816,48.63777 3.867815,-7.8448 3.867815,25.73095 3.867811,-9.09997 3.86782,-48.95156 3.86781,79.38939 3.86782,-12.55168 3.86782,-2.19655 3.86781,-2.82412 3.86782,-25.73095 3.86781,24.16199 3.86782,8.47238 h 3.86781 l 3.86782,-8.78618 3.86781,-7.53101 3.86782,13.17927 3.86781,8.47239 3.86782,6.58963 3.86781,-16.31719 3.86782,5.64826 3.86781,9.09997 3.86782,8.78618 3.86781,-9.09997 3.86782,-6.58963 3.86781,-18.51374 3.86782,33.57575 3.86781,5.64826 7.73564,-20.08269 3.86781,4.39309 h 3.86782 l 3.86781,-5.64826 3.86782,-6.90343 3.86781,11.9241 3.86782,8.1586 3.86781,-9.09997 3.86782,-5.64826 3.86781,11.61031 3.86782,1.88275 3.86781,1.25517 3.86782,1.88275 3.86781,-17.57236 3.86782,-5.33446 3.86781,20.71027 3.86782,-1.25516 3.86781,10.04134 3.86782,-4.39309 3.86781,3.45172 3.86782,-0.62759 h 3.86782 l 3.86781,2.51034 3.86782,-4.39309 3.86781,5.02067 3.86782,-7.53101 3.86781,2.82413 3.86782,8.78618 3.86781,-10.66893 3.86782,-5.02067 3.86781,7.21721 3.86782,7.84481 3.86781,-6.27585 3.86782,-5.02067 3.86781,9.09997 3.86782,-3.45171 3.86781,1.56896 3.86782,4.70688 3.86781,5.64826 3.86782,-13.49306 3.86782,11.29651 3.86781,-4.07929 3.86782,-1.56897 3.86781,4.0793 3.86782,-2.82413 3.86781,-7.21721 3.86782,1.25516 3.86781,-3.7655 3.86782,6.58963 3.86781,4.39309 3.86782,-5.33446 3.86781,0.94137 3.86782,5.33447 7.73563,0.62758 3.86781,-6.27584 3.86782,1.56896 3.86781,-0.62758 3.86782,-0.31379 3.86782,0.31379 3.86781,3.7655 3.86782,-1.88275 3.86781,-3.13792 3.86782,4.0793 3.86781,0.62758 3.86782,-1.56896 3.86781,2.51034 3.86782,-5.64826 3.86781,-7.8448 3.86782,13.80685 h 3.86781 l 3.86782,-42.36193 3.86781,37.02746 3.86782,6.58964 3.86781,-4.39309 3.86782,6.27584 3.86782,-19.45511 3.86781,15.06202 3.86781,2.51034 3.86782,-44.24468 3.86782,42.04813 3.86781,1.56896 3.86782,-3.7655 3.86781,4.70688 3.86782,-1.25517 3.86781,-1.56896 3.86782,2.51034 3.86781,-1.25517 3.86782,1.56896 3.86781,-0.31379 3.86782,0.31379 3.86781,1.25517 3.86782,-2.19655 7.73563,1.25517 3.86781,0.94138 3.86782,-1.88276 3.86781,1.88276 3.86782,-1.88276 3.86781,2.51034 3.86782,-0.94138 3.86782,-1.88275 3.86781,1.56896 3.86782,-0.31379 h 3.86781 l 3.86782,0.94138 3.86781,-0.3138 3.86782,0.3138 3.86781,-1.88276 3.86782,1.88276 3.86781,0.31379 3.86782,-0.31379 3.86781,-0.94138 7.73563,1.25517 3.86782,-0.62759 3.86781,0.62759 3.86782,-1.56896 3.86781,1.88275 3.86782,0.62758 3.86782,-1.56896 7.73563,-0.62758 3.86781,1.56896 3.86782,-0.94138 h 3.86781 v 0"
       style="fill:none;stroke:#17becf;stroke-width:1.5;stroke-linecap:butt;stroke-linejoin:round;stroke-miterlimit:10;stroke-dasharray:5.55, 2.4;stroke-dashoffset:0;stroke-opacity:1"
       transform="matrix(1.3333333,0,0,-1.3333333,0,598.87499)"
       clip-path="url(#clipPath79)" />
    <path
       id="path80"
       d="M 52.048437,426.48437 H 669.75156 c 1.33334,0 2,0.66666 2,2 v 13.67187 c 0,1.33334 -0.66666,2 -2,2 H 52.048437 c -1.333333,0 -2,-0.66666 -2,-2 v -13.67187 c 0,-1.33334 0.666667,-2 2,-2 z"
       style="fill:#ffffff;fill-opacity:0.8;fill-rule:nonzero;stroke:#cccccc;stroke-width:1;stroke-linecap:butt;stroke-linejoin:miter;stroke-miterlimit:10;stroke-dasharray:none;stroke-opacity:0.8"
       transform="matrix(1.3333333,0,0,-1.3333333,0,598.87499)" />
    <path
       id="path81"
       d="m 54.048437,436.06249 h 20"
       style="fill:none;stroke:#1f77b4;stroke-width:1.5;stroke-linecap:square;stroke-linejoin:round;stroke-miterlimit:10;stroke-dasharray:none;stroke-opacity:1"
       transform="matrix(1.3333333,0,0,-1.3333333,0,598.87499)" />
    <text
       id="text81"
       xml:space="preserve"
       transform="matrix(1.3333333,0,0,1.3333333,109.39792,22.125)"><tspan
         id="tspan81"
         style="font-variant:normal;font-weight:normal;font-size:10px;font-family:'DejaVu Sans';writing-mode:lr-tb;fill:#000000;fill-opacity:1;fill-rule:nonzero;stroke:none"
         x="0"
         y="0">#1</tspan></text>
    <path
       id="path82"
       d="m 116.78281,436.06249 h 20"
       style="fill:none;stroke:#ff7f0e;stroke-width:1.5;stroke-linecap:square;stroke-linejoin:round;stroke-miterlimit:10;stroke-dasharray:none;stroke-opacity:1"
       transform="matrix(1.3333333,0,0,-1.3333333,0,598.87499)" />
    <text
       id="text82"
       xml:space="preserve"
       transform="matrix(1.3333333,0,0,1.3333333,193.04375,22.125)"><tspan
         id="tspan82"
         style="font-variant:normal;font-weight:normal;font-size:10px;font-family:'DejaVu Sans';writing-mode:lr-tb;fill:#000000;fill-opacity:1;fill-rule:nonzero;stroke:none"
         x="0"
         y="0">#2</tspan></text>
    <path
       id="path83"
       d="m 179.51719,436.06249 h 20"
       style="fill:none;stroke:#2ca02c;stroke-width:1.5;stroke-linecap:square;stroke-linejoin:round;stroke-miterlimit:10;stroke-dasharray:none;stroke-opacity:1"
       transform="matrix(1.3333333,0,0,-1.3333333,0,598.87499)" />
    <text
       id="text83"
       xml:space="preserve"
       transform="matrix(1.3333333,0,0,1.3333333,276.68958,22.125)"><tspan
         id="tspan83"
         style="font-variant:normal;font-weight:normal;font-size:10px;font-family:'DejaVu Sans';writing-mode:lr-tb;fill:#000000;fill-opacity:1;fill-rule:nonzero;stroke:none"
         x="0"
         y="0">#3</tspan></text>
    <path
       id="path84"
       d="m 242.25156,436.06249 h 20"
       style="fill:none;stroke:#d62728;stroke-width:1.5;stroke-linecap:square;stroke-linejoin:round;stroke-miterlimit:10;stroke-dasharray:none;stroke-opacity:1"
       transform="matrix(1.3333333,0,0,-1.3333333,0,598.87499)" />
    <text
       id="text84"
       xml:space="preserve"
       transform="matrix(1.3333333,0,0,1.3333333,360.33542,22.125)"><tspan
         id="tspan84"
         style="font-variant:normal;font-weight:normal;font-size:10px;font-family:'DejaVu Sans';writing-mode:lr-tb;fill:#000000;fill-opacity:1;fill-rule:nonzero;stroke:none"
         x="0"
         y="0">#4</tspan></text>
    <path
       id="path85"
       d="m 304.98594,436.06249 h 20"
       style="fill:none;stroke:#9467bd;stroke-width:1.5;stroke-linecap:square;stroke-linejoin:round;stroke-miterlimit:10;stroke-dasharray:none;stroke-opacity:1"
       transform="matrix(1.3333333,0,0,-1.3333333,0,598.87499)" />
    <text
       id="text85"
       xml:space="preserve"
       transform="matrix(1.3333333,0,0,1.3333333,443.98125,22.125)"><tspan
         id="tspan85"
         style="font-variant:normal;font-weight:normal;font-size:10px;font-family:'DejaVu Sans';writing-mode:lr-tb;fill:#000000;fill-opacity:1;fill-rule:nonzero;stroke:none"
         x="0"
         y="0">#5</tspan></text>
    <path
       id="path86"
       d="m 367.72031,436.06249 h 20"
       style="fill:none;stroke:#8c564b;stroke-width:1.5;stroke-linecap:square;stroke-linejoin:round;stroke-miterlimit:10;stroke-dasharray:none;stroke-opacity:1"
       transform="matrix(1.3333333,0,0,-1.3333333,0,598.87499)" />
    <text
       id="text86"
       xml:space="preserve"
       transform="matrix(1.3333333,0,0,1.3333333,527.62708,22.125)"><tspan
         id="tspan86"
         style="font-variant:normal;font-weight:normal;font-size:10px;font-family:'DejaVu Sans';writing-mode:lr-tb;fill:#000000;fill-opacity:1;fill-rule:nonzero;stroke:none"
         x="0"
         y="0">#6</tspan></text>
    <path
       id="path87"
       d="m 430.45469,436.06249 h 20"
       style="fill:none;stroke:#e377c2;stroke-width:1.5;stroke-linecap:square;stroke-linejoin:round;stroke-miterlimit:10;stroke-dasharray:none;stroke-opacity:1"
       transform="matrix(1.3333333,0,0,-1.3333333,0,598.87499)" />
    <text
       id="text87"
       xml:space="preserve"
       transform="matrix(1.3333333,0,0,1.3333333,611.27292,22.125)"><tspan
         id="tspan87"
         style="font-variant:normal;font-weight:normal;font-size:10px;font-family:'DejaVu Sans';writing-mode:lr-tb;fill:#000000;fill-opacity:1;fill-rule:nonzero;stroke:none"
         x="0"
         y="0">#7</tspan></text>
    <path
       id="path88"
       d="m 493.18906,436.06249 h 20"
       style="fill:none;stroke:#7f7f7f;stroke-width:1.5;stroke-linecap:square;stroke-linejoin:round;stroke-miterlimit:10;stroke-dasharray:none;stroke-opacity:1"
       transform="matrix(1.3333333,0,0,-1.3333333,0,598.87499)" />
    <text
       id="text88"
       xml:space="preserve"
       transform="matrix(1.3333333,0,0,1.3333333,694.91875,22.125)"><tspan
         id="tspan88"
         style="font-variant:normal;font-weight:normal;font-size:10px;font-family:'DejaVu Sans';writing-mode:lr-tb;fill:#000000;fill-opacity:1;fill-rule:nonzero;stroke:none"
         x="0"
         y="0">#8</tspan></text>
    <path
       id="path89"
       d="m 555.92344,436.06249 h 20"
       style="fill:none;stroke:#bcbd22;stroke-width:1.5;stroke-linecap:square;stroke-linejoin:round;stroke-miterlimit:10;stroke-dasharray:none;stroke-opacity:1"
       transform="matrix(1.3333333,0,0,-1.3333333,0,598.87499)" />
    <text
       id="text89"
       xml:space="preserve"
       transform="matrix(1.3333333,0,0,1.3333333,778.56458,22.125)"><tspan
         id="tspan89"
         style="font-variant:normal;font-weight:normal;font-size:10px;font-family:'DejaVu Sans';writing-mode:lr-tb;fill:#000000;fill-opacity:1;fill-rule:nonzero;stroke:none"
         x="0"
         y="0">#9</tspan></text>
    <path
       id="path90"
       d="m 618.65781,436.06249 h 20"
       style="fill:none;stroke:#17becf;stroke-width:1.5;stroke-linecap:square;stroke-linejoin:round;stroke-miterlimit:10;stroke-dasharray:none;stroke-opacity:1"
       transform="matrix(1.3333333,0,0,-1.3333333,0,598.87499)" />
    <text
       id="text90"
       xml:space="preserve"
       transform="matrix(1.3333333,0,0,1.3333333,862.21042,22.125)"><tspan
         id="tspan90"
         style="font-variant:normal;font-weight:normal;font-size:10px;font-family:'DejaVu Sans';writing-mode:lr-tb;fill:#000000;fill-opacity:1;fill-rule:nonzero;stroke:none"
         x="0"
         y="0">#10</tspan></text>
  </g>
</svg>
