<svg xmlns="http://www.w3.org/2000/svg" width="962.4" height="598.875" viewBox="0 0 962.4 598.875"><defs><clipPath id="a" clipPathUnits="userSpaceOnUse"><path d="M51.638 42.544H711.1v391.612H51.638Z"/></clipPath><clipPath id="b" clipPathUnits="userSpaceOnUse"><path d="M51.638 42.544H711.1v391.612H51.638Z"/></clipPath><clipPath id="c" clipPathUnits="userSpaceOnUse"><path d="M51.638 42.544H711.1v391.612H51.638Z"/></clipPath><clipPath id="d" clipPathUnits="userSpaceOnUse"><path d="M51.638 42.544H711.1v391.612H51.638Z"/></clipPath><clipPath id="e" clipPathUnits="userSpaceOnUse"><path d="M51.638 42.544H711.1v391.612H51.638Z"/></clipPath><clipPath id="f" clipPathUnits="userSpaceOnUse"><path d="M51.638 42.544H711.1v391.612H51.638Z"/></clipPath><clipPath id="g" clipPathUnits="userSpaceOnUse"><path d="M51.638 42.544H711.1v391.612H51.638Z"/></clipPath><clipPath id="h" clipPathUnits="userSpaceOnUse"><path d="M51.638 42.544H711.1v391.612H51.638Z"/></clipPath><clipPath id="i" clipPathUnits="userSpaceOnUse"><path d="M51.638 42.544H711.1v391.612H51.638Z"/></clipPath><clipPath id="j" clipPathUnits="userSpaceOnUse"><path d="M51.638 42.544H711.1v391.612H51.638Z"/></clipPath><clipPath id="k" clipPathUnits="userSpaceOnUse"><path d="M51.638 42.544H711.1v391.612H51.638Z"/></clipPath><clipPath id="l" clipPathUnits="userSpaceOnUse"><path d="M51.638 42.544H711.1v391.612H51.638Z"/></clipPath><clipPath id="m" clipPathUnits="userSpaceOnUse"><path d="M51.638 42.544H711.1v391.612H51.638Z"/></clipPath><clipPath id="n" clipPathUnits="userSpaceOnUse"><path d="M51.638 42.544H711.1v391.612H51.638Z"/></clipPath><clipPath id="o" clipPathUnits="userSpaceOnUse"><path d="M51.638 42.544H711.1v391.612H51.638Z"/></clipPath><clipPath id="p" clipPathUnits="userSpaceOnUse"><path d="M51.638 42.544H711.1v391.612H51.638Z"/></clipPath><clipPath id="q" clipPathUnits="userSpaceOnUse"><path d="M51.638 42.544H711.1v391.612H51.638Z"/></clipPath><clipPath id="r" clipPathUnits="userSpaceOnUse"><path d="M51.638 42.544H711.1v391.612H51.638Z"/></clipPath><clipPath id="s" clipPathUnits="userSpaceOnUse"><path d="M51.638 42.544H711.1v391.612H51.638Z"/></clipPath><clipPath id="t" clipPathUnits="userSpaceOnUse"><path d="M51.638 42.544H711.1v391.612H51.638Z"/></clipPath><clipPath id="u" clipPathUnits="userSpaceOnUse"><path d="M51.638 42.544H711.1v391.612H51.638Z"/></clipPath><clipPath id="v" clipPathUnits="userSpaceOnUse"><path d="M51.638 42.544H711.1v391.612H51.638Z"/></clipPath><clipPath id="w" clipPathUnits="userSpaceOnUse"><path d="M51.638 42.544H711.1v391.612H51.638Z"/></clipPath><clipPath id="x" clipPathUnits="userSpaceOnUse"><path d="M51.638 42.544H711.1v391.612H51.638Z"/></clipPath><clipPath id="y" clipPathUnits="userSpaceOnUse"><path d="M51.638 42.544H711.1v391.612H51.638Z"/></clipPath><clipPath id="z" clipPathUnits="userSpaceOnUse"><path d="M51.638 42.544H711.1v391.612H51.638Z"/></clipPath><clipPath id="A" clipPathUnits="userSpaceOnUse"><path d="M51.638 42.544H711.1v391.612H51.638Z"/></clipPath><clipPath id="B" clipPathUnits="userSpaceOnUse"><path d="M51.638 42.544H711.1v391.612H51.638Z"/></clipPath><clipPath id="C" clipPathUnits="userSpaceOnUse"><path d="M51.638 42.544H711.1v391.612H51.638Z"/></clipPath><clipPath id="D" clipPathUnits="userSpaceOnUse"><path d="M51.638 42.544H711.1v391.612H51.638Z"/></clipPath><clipPath id="E" clipPathUnits="userSpaceOnUse"><path d="M51.638 42.544H711.1v391.612H51.638Z"/></clipPath><clipPath id="F" clipPathUnits="userSpaceOnUse"><path d="M51.638 42.544H711.1v391.612H51.638Z"/></clipPath><clipPath id="G" clipPathUnits="userSpaceOnUse"><path d="M51.638 42.544H711.1v391.612H51.638Z"/></clipPath><clipPath id="H" clipPathUnits="userSpaceOnUse"><path d="M51.638 42.544H711.1v391.612H51.638Z"/></clipPath><clipPath id="I" clipPathUnits="userSpaceOnUse"><path d="M51.638 42.544H711.1v391.612H51.638Z"/></clipPath></defs><path d="M77.745 42.544v391.612" clip-path="url(#a)" style="fill:none;stroke:#e6e6e6;stroke-width:1;stroke-linecap:square;stroke-linejoin:round;stroke-miterlimit:10;stroke-dasharray:none;stroke-opacity:1" transform="matrix(1.33333 0 0 -1.33333 0 598.875)"/><path d="M77.745 37.544v-3.5" style="fill:#000;fill-opacity:1;fill-rule:nonzero;stroke:#000;stroke-width:.8;stroke-linecap:butt;stroke-linejoin:round;stroke-miterlimit:10;stroke-dasharray:none;stroke-opacity:1" transform="matrix(1.33333 0 0 -1.33333 0 598.875)"/><text xml:space="preserve" transform="translate(99.42 568.275)scale(1.33333)"><tspan x="0" y="0" style="font-variant:normal;font-weight:400;font-size:10px;font-family:&quot;DejaVu Sans&quot;;writing-mode:lr-tb;fill:#000;fill-opacity:1;fill-rule:nonzero;stroke:none">0</tspan></text><path d="M155.102 42.544v391.612" clip-path="url(#b)" style="fill:none;stroke:#e6e6e6;stroke-width:1;stroke-linecap:square;stroke-linejoin:round;stroke-miterlimit:10;stroke-dasharray:none;stroke-opacity:1" transform="matrix(1.33333 0 0 -1.33333 0 598.875)"/><path d="M155.102 37.544v-3.5" style="fill:#000;fill-opacity:1;fill-rule:nonzero;stroke:#000;stroke-width:.8;stroke-linecap:butt;stroke-linejoin:round;stroke-miterlimit:10;stroke-dasharray:none;stroke-opacity:1" transform="matrix(1.33333 0 0 -1.33333 0 598.875)"/><text xml:space="preserve" transform="translate(198.323 568.275)scale(1.33333)"><tspan x="0" y="0" style="font-variant:normal;font-weight:400;font-size:10px;font-family:&quot;DejaVu Sans&quot;;writing-mode:lr-tb;fill:#000;fill-opacity:1;fill-rule:nonzero;stroke:none">20</tspan></text><path d="M232.458 42.544v391.612" clip-path="url(#c)" style="fill:none;stroke:#e6e6e6;stroke-width:1;stroke-linecap:square;stroke-linejoin:round;stroke-miterlimit:10;stroke-dasharray:none;stroke-opacity:1" transform="matrix(1.33333 0 0 -1.33333 0 598.875)"/><path d="M232.458 37.544v-3.5" style="fill:#000;fill-opacity:1;fill-rule:nonzero;stroke:#000;stroke-width:.8;stroke-linecap:butt;stroke-linejoin:round;stroke-miterlimit:10;stroke-dasharray:none;stroke-opacity:1" transform="matrix(1.33333 0 0 -1.33333 0 598.875)"/><text xml:space="preserve" transform="translate(301.465 568.275)scale(1.33333)"><tspan x="0" y="0" style="font-variant:normal;font-weight:400;font-size:10px;font-family:&quot;DejaVu Sans&quot;;writing-mode:lr-tb;fill:#000;fill-opacity:1;fill-rule:nonzero;stroke:none">40</tspan></text><path d="M309.814 42.544v391.612" clip-path="url(#d)" style="fill:none;stroke:#e6e6e6;stroke-width:1;stroke-linecap:square;stroke-linejoin:round;stroke-miterlimit:10;stroke-dasharray:none;stroke-opacity:1" transform="matrix(1.33333 0 0 -1.33333 0 598.875)"/><path d="M309.814 37.544v-3.5" style="fill:#000;fill-opacity:1;fill-rule:nonzero;stroke:#000;stroke-width:.8;stroke-linecap:butt;stroke-linejoin:round;stroke-miterlimit:10;stroke-dasharray:none;stroke-opacity:1" transform="matrix(1.33333 0 0 -1.33333 0 598.875)"/><text xml:space="preserve" transform="translate(404.606 568.275)scale(1.33333)"><tspan x="0" y="0" style="font-variant:normal;font-weight:400;font-size:10px;font-family:&quot;DejaVu Sans&quot;;writing-mode:lr-tb;fill:#000;fill-opacity:1;fill-rule:nonzero;stroke:none">60</tspan></text><path d="M387.17 42.544v391.612" clip-path="url(#e)" style="fill:none;stroke:#e6e6e6;stroke-width:1;stroke-linecap:square;stroke-linejoin:round;stroke-miterlimit:10;stroke-dasharray:none;stroke-opacity:1" transform="matrix(1.33333 0 0 -1.33333 0 598.875)"/><path d="M387.17 37.544v-3.5" style="fill:#000;fill-opacity:1;fill-rule:nonzero;stroke:#000;stroke-width:.8;stroke-linecap:butt;stroke-linejoin:round;stroke-miterlimit:10;stroke-dasharray:none;stroke-opacity:1" transform="matrix(1.33333 0 0 -1.33333 0 598.875)"/><text xml:space="preserve" transform="translate(507.748 568.275)scale(1.33333)"><tspan x="0" y="0" style="font-variant:normal;font-weight:400;font-size:10px;font-family:&quot;DejaVu Sans&quot;;writing-mode:lr-tb;fill:#000;fill-opacity:1;fill-rule:nonzero;stroke:none">80</tspan></text><path d="M464.527 42.544v391.612" clip-path="url(#f)" style="fill:none;stroke:#e6e6e6;stroke-width:1;stroke-linecap:square;stroke-linejoin:round;stroke-miterlimit:10;stroke-dasharray:none;stroke-opacity:1" transform="matrix(1.33333 0 0 -1.33333 0 598.875)"/><path d="M464.527 37.544v-3.5" style="fill:#000;fill-opacity:1;fill-rule:nonzero;stroke:#000;stroke-width:.8;stroke-linecap:butt;stroke-linejoin:round;stroke-miterlimit:10;stroke-dasharray:none;stroke-opacity:1" transform="matrix(1.33333 0 0 -1.33333 0 598.875)"/><text xml:space="preserve" transform="translate(606.65 568.275)scale(1.33333)"><tspan x="0" y="0" style="font-variant:normal;font-weight:400;font-size:10px;font-family:&quot;DejaVu Sans&quot;;writing-mode:lr-tb;fill:#000;fill-opacity:1;fill-rule:nonzero;stroke:none">100</tspan></text><path d="M541.883 42.544v391.612" clip-path="url(#g)" style="fill:none;stroke:#e6e6e6;stroke-width:1;stroke-linecap:square;stroke-linejoin:round;stroke-miterlimit:10;stroke-dasharray:none;stroke-opacity:1" transform="matrix(1.33333 0 0 -1.33333 0 598.875)"/><path d="M541.883 37.544v-3.5" style="fill:#000;fill-opacity:1;fill-rule:nonzero;stroke:#000;stroke-width:.8;stroke-linecap:butt;stroke-linejoin:round;stroke-miterlimit:10;stroke-dasharray:none;stroke-opacity:1" transform="matrix(1.33333 0 0 -1.33333 0 598.875)"/><text xml:space="preserve" transform="translate(709.792 568.275)scale(1.33333)"><tspan x="0" y="0" style="font-variant:normal;font-weight:400;font-size:10px;font-family:&quot;DejaVu Sans&quot;;writing-mode:lr-tb;fill:#000;fill-opacity:1;fill-rule:nonzero;stroke:none">120</tspan></text><path d="M619.24 42.544v391.612" clip-path="url(#h)" style="fill:none;stroke:#e6e6e6;stroke-width:1;stroke-linecap:square;stroke-linejoin:round;stroke-miterlimit:10;stroke-dasharray:none;stroke-opacity:1" transform="matrix(1.33333 0 0 -1.33333 0 598.875)"/><path d="M619.24 37.544v-3.5" style="fill:#000;fill-opacity:1;fill-rule:nonzero;stroke:#000;stroke-width:.8;stroke-linecap:butt;stroke-linejoin:round;stroke-miterlimit:10;stroke-dasharray:none;stroke-opacity:1" transform="matrix(1.33333 0 0 -1.33333 0 598.875)"/><text xml:space="preserve" transform="translate(812.934 568.275)scale(1.33333)"><tspan x="0" y="0" style="font-variant:normal;font-weight:400;font-size:10px;font-family:&quot;DejaVu Sans&quot;;writing-mode:lr-tb;fill:#000;fill-opacity:1;fill-rule:nonzero;stroke:none">140</tspan></text><path d="M696.596 42.544v391.612" clip-path="url(#i)" style="fill:none;stroke:#e6e6e6;stroke-width:1;stroke-linecap:square;stroke-linejoin:round;stroke-miterlimit:10;stroke-dasharray:none;stroke-opacity:1" transform="matrix(1.33333 0 0 -1.33333 0 598.875)"/><path d="M696.596 37.544v-3.5" style="fill:#000;fill-opacity:1;fill-rule:nonzero;stroke:#000;stroke-width:.8;stroke-linecap:butt;stroke-linejoin:round;stroke-miterlimit:10;stroke-dasharray:none;stroke-opacity:1" transform="matrix(1.33333 0 0 -1.33333 0 598.875)"/><text xml:space="preserve" transform="translate(916.076 568.275)scale(1.33333)"><tspan x="0" y="0" style="font-variant:normal;font-weight:400;font-size:10px;font-family:&quot;DejaVu Sans&quot;;writing-mode:lr-tb;fill:#000;fill-opacity:1;fill-rule:nonzero;stroke:none">160</tspan></text><text xml:space="preserve" transform="translate(471.283 586.504)scale(1.33333)"><tspan x="0" y="0" style="font-variant:normal;font-weight:400;font-size:10px;font-family:&quot;DejaVu Sans&quot;;writing-mode:lr-tb;fill:#000;fill-opacity:1;fill-rule:nonzero;stroke:none">Generation</tspan></text><path d="M51.638 75.178H711.1" clip-path="url(#j)" style="fill:none;stroke:#e6e6e6;stroke-width:1;stroke-linecap:square;stroke-linejoin:round;stroke-miterlimit:10;stroke-dasharray:none;stroke-opacity:1" transform="matrix(1.33333 0 0 -1.33333 0 598.875)"/><text xml:space="preserve" transform="translate(27.83 503.7)scale(1.33333)"><tspan x="0" y="0" style="font-variant:normal;font-weight:400;font-size:10px;font-family:&quot;DejaVu Sans&quot;;writing-mode:lr-tb;fill:#000;fill-opacity:1;fill-rule:nonzero;stroke:none">0.74</tspan></text><path d="M51.638 140.447H711.1" clip-path="url(#k)" style="fill:none;stroke:#e6e6e6;stroke-width:1;stroke-linecap:square;stroke-linejoin:round;stroke-miterlimit:10;stroke-dasharray:none;stroke-opacity:1" transform="matrix(1.33333 0 0 -1.33333 0 598.875)"/><text xml:space="preserve" transform="translate(27.83 416.675)scale(1.33333)"><tspan x="0" y="0" style="font-variant:normal;font-weight:400;font-size:10px;font-family:&quot;DejaVu Sans&quot;;writing-mode:lr-tb;fill:#000;fill-opacity:1;fill-rule:nonzero;stroke:none">0.76</tspan></text><path d="M51.638 205.716H711.1" clip-path="url(#l)" style="fill:none;stroke:#e6e6e6;stroke-width:1;stroke-linecap:square;stroke-linejoin:round;stroke-miterlimit:10;stroke-dasharray:none;stroke-opacity:1" transform="matrix(1.33333 0 0 -1.33333 0 598.875)"/><text xml:space="preserve" transform="translate(27.83 329.65)scale(1.33333)"><tspan x="0" y="0" style="font-variant:normal;font-weight:400;font-size:10px;font-family:&quot;DejaVu Sans&quot;;writing-mode:lr-tb;fill:#000;fill-opacity:1;fill-rule:nonzero;stroke:none">0.78</tspan></text><path d="M51.638 270.984H711.1" clip-path="url(#m)" style="fill:none;stroke:#e6e6e6;stroke-width:1;stroke-linecap:square;stroke-linejoin:round;stroke-miterlimit:10;stroke-dasharray:none;stroke-opacity:1" transform="matrix(1.33333 0 0 -1.33333 0 598.875)"/><text xml:space="preserve" transform="translate(27.83 242.625)scale(1.33333)"><tspan x="0" y="0" style="font-variant:normal;font-weight:400;font-size:10px;font-family:&quot;DejaVu Sans&quot;;writing-mode:lr-tb;fill:#000;fill-opacity:1;fill-rule:nonzero;stroke:none">0.80</tspan></text><path d="M51.638 336.253H711.1" clip-path="url(#n)" style="fill:none;stroke:#e6e6e6;stroke-width:1;stroke-linecap:square;stroke-linejoin:round;stroke-miterlimit:10;stroke-dasharray:none;stroke-opacity:1" transform="matrix(1.33333 0 0 -1.33333 0 598.875)"/><text xml:space="preserve" transform="translate(27.83 155.6)scale(1.33333)"><tspan x="0" y="0" style="font-variant:normal;font-weight:400;font-size:10px;font-family:&quot;DejaVu Sans&quot;;writing-mode:lr-tb;fill:#000;fill-opacity:1;fill-rule:nonzero;stroke:none">0.82</tspan></text><path d="M51.638 401.522H711.1" clip-path="url(#o)" style="fill:none;stroke:#e6e6e6;stroke-width:1;stroke-linecap:square;stroke-linejoin:round;stroke-miterlimit:10;stroke-dasharray:none;stroke-opacity:1" transform="matrix(1.33333 0 0 -1.33333 0 598.875)"/><text xml:space="preserve" transform="translate(27.83 68.575)scale(1.33333)"><tspan x="0" y="0" style="font-variant:normal;font-weight:400;font-size:10px;font-family:&quot;DejaVu Sans&quot;;writing-mode:lr-tb;fill:#000;fill-opacity:1;fill-rule:nonzero;stroke:none">0.84</tspan></text><text xml:space="preserve" transform="rotate(-90 165.785 146.06)scale(1.33333)"><tspan x="0" y="0" style="font-variant:normal;font-weight:400;font-size:10px;font-family:&quot;DejaVu Sans&quot;;writing-mode:lr-tb;fill:#000;fill-opacity:1;fill-rule:nonzero;stroke:none">ROC AUC</tspan></text><path d="m81.613 292.793 3.868 52.09 3.868 13.806h3.868l3.867 13.493 3.868 26.359h19.34l3.867.314h11.603l3.868 10.355h46.414l3.868 5.962H669.52l3.868 1.255h3.868l3.867.941v0" clip-path="url(#p)" style="fill:none;stroke:#1f77b4;stroke-width:1.5;stroke-linecap:square;stroke-linejoin:round;stroke-miterlimit:10;stroke-dasharray:none;stroke-opacity:1" transform="matrix(1.33333 0 0 -1.33333 0 598.875)"/><path d="m81.613 292.793 3.868 52.09 3.868 13.806 3.868-27.3 3.867 40.793 3.868 26.359 3.868-63.386 3.868 37.341 3.868 8.786 3.867-24.79 3.868 41.107 3.868 1.256 3.868-8.159 3.868 3.452 3.867-3.766 3.868 18.828 3.868-20.083 3.868 5.648 3.868-1.882 3.868-7.531 3.867 20.396 3.868-11.61 3.868 3.765 3.868-2.196 3.868-6.59 3.867 5.335 3.868-.942 3.868 6.276 3.868 15.376 3.868-12.866 3.868-6.59 3.867 6.277 3.868 2.196 3.868-3.138 3.868-6.276 3.868-4.079 3.867-1.569 3.868 15.376 3.868-3.452 3.868 13.493 3.868-6.59 3.867-10.04 3.868 8.785 3.868-11.924 3.868-8.472 3.868 3.765 3.868 16.631 3.867-5.648 3.868-6.276 3.868 13.18 3.868-28.555 3.868 19.14 3.867 4.08 3.868 10.983 3.868-2.51 3.868-8.16 3.868-5.334 3.868-16.317 3.867 25.731 3.868-10.355 3.868-3.452 3.868 6.276 3.868-7.53 3.867-9.415 3.868-2.51 3.868 4.707 3.868 6.59 3.868 3.451 3.867-6.275 3.868-10.67 3.868 18.828 3.868 2.197 3.868-.942 3.868-19.141 3.867 29.81L371.7 388.5l3.868 16.944 3.868-30.438 3.868 33.576 3.867-14.748 3.868 17.572 3.868-12.551 3.868-3.138 3.868 1.255 3.868 7.217 3.867-.314 3.868-15.062 3.868 18.2 3.868-2.824 3.868 5.335 3.867-2.197 3.868-20.083 3.868 7.845 3.868 13.18 3.868-5.649 3.868 2.824 3.867 3.766 3.868-25.417 3.868 27.927 3.868 1.255 3.868-5.648 3.867 6.903 3.868-29.81 3.868 22.907 3.868-1.569 3.868-9.727 3.867 9.413 3.868-26.358 3.868 19.769 3.868-7.531 3.868 3.451 3.868.942 3.867 3.765 3.868-8.158 3.868-9.1 3.868 15.062 3.868-15.376 3.867-2.51 3.868 17.572 3.868-6.59 3.868-6.903 3.868 8.472 3.868-7.845 3.867 20.397 3.868-11.924 3.868-7.217 7.736 14.434 3.867-6.903 3.868 7.217 3.868 5.962 3.868 5.02 3.868 2.51 3.868-7.844 3.867-2.51 3.868 6.59 3.868-21.652 3.868 12.238 3.868 13.806 3.867-9.413 3.868-.942 3.868 6.276 3.868-27.927 3.868 23.22 3.867.942 3.868 5.962 3.868-7.845h3.868l3.868 3.765 3.868-.941 3.867 4.08 3.868.313 3.868-16.945 3.868 21.652 3.868-8.472 3.867 9.413" clip-path="url(#q)" style="fill:none;stroke:#1f77b4;stroke-width:1.5;stroke-linecap:butt;stroke-linejoin:round;stroke-miterlimit:10;stroke-dasharray:5.55,2.4;stroke-dashoffset:0;stroke-opacity:1" transform="matrix(1.33333 0 0 -1.33333 0 598.875)"/><path d="m81.613 338.607 3.868 3.137h3.868l3.868 35.459h7.735l3.868 3.765h11.603l3.868 21.966h61.885l3.868 6.903h3.868l3.868.942h487.344v0" clip-path="url(#r)" style="fill:none;stroke:#ff7f0e;stroke-width:1.5;stroke-linecap:square;stroke-linejoin:round;stroke-miterlimit:10;stroke-dasharray:none;stroke-opacity:1" transform="matrix(1.33333 0 0 -1.33333 0 598.875)"/><path d="m81.613 338.607 3.868 3.137 3.868-6.275 3.868 41.734 3.867-17.886L98.39-1m5.073 0 1.357 381.968 3.868-49.579 3.868 3.138 3.867 21.338 3.868 47.069 3.868-45.186 3.868 15.062 3.868 17.258 3.867-.313 3.868-17.573 3.868 8.473 3.868 16.003 3.868 2.51 3.868-16.944 3.867-15.062 3.868 22.593 3.868.941 3.868-23.534 3.868 27.927 3.867 6.276 3.868-13.18 3.868 21.652 3.868-11.296 3.868 12.238 3.868-7.217 3.867-8.16 3.868-2.51 3.868 7.845 3.868-6.903 3.868-6.276 3.867 5.335 3.868 15.062 3.868-2.825 3.868-15.69 3.868-.313 3.867 18.2 3.868-5.334 3.868 5.648 3.868-18.514 3.868 2.824 3.868 3.138 3.867.942 3.868-2.51 3.868 5.647 3.868-2.824 3.868 10.355 3.867-14.12 3.868 8.786 3.868-9.1 3.868 14.12 3.868-.313 3.868-5.335 3.867 4.08 3.868-8.473 3.868 5.962 3.868 4.707 3.868.628 3.867-15.062 3.868 10.669 3.868 5.02 3.868-5.962 3.868 1.883 3.867-6.903 3.868 5.02 3.868-3.765 3.868 3.452 3.868 2.196 3.868-2.51 3.867-4.08 3.868 5.335 3.868-6.59 3.868.942 3.868 4.079 3.867-9.1 3.868 5.334 3.868 4.08 3.868 1.255 3.868-7.531 3.868-5.335 3.867 12.552 3.868-6.903 3.868 8.472 3.868-17.572 3.868 14.748 3.867-.314 3.868-.627 3.868-.942 3.868-.627 3.868-1.883 3.868 2.51 3.867-3.451 3.868 4.706 3.868-3.451 3.868-6.904 7.735 3.766 3.868.941 3.868-2.196 3.868 6.275 3.868-2.51 3.867-3.765 3.868 8.158 3.868.314 3.868-6.59 3.868 6.904 3.868-2.51 3.867.94 3.868-1.882 3.868 3.452 3.868-1.57 3.868 1.884 3.867-4.08 3.868 2.197 3.868 1.883 3.868-1.57 3.868 2.825 3.868-2.197 3.867-.314 3.868-1.255 3.868 1.57 3.868.627 3.868-.942 3.867.314 3.868-.627 3.868.627 3.868-.941 3.868.627 3.868-3.451 3.867 2.824h3.868l3.868-.314 3.868.314 3.868 2.196 3.867-1.882 3.868.627 3.868-.314 3.868.314 3.868 1.57 3.867-.628 3.868-1.57 3.868 1.883 3.868.314 3.868-1.255 3.868 1.255 3.867-.314 3.868 1.883 3.868-2.824 3.868 1.883 3.868-1.255 3.867.627" clip-path="url(#s)" style="fill:none;stroke:#ff7f0e;stroke-width:1.5;stroke-linecap:butt;stroke-linejoin:round;stroke-miterlimit:10;stroke-dasharray:5.55,2.4;stroke-dashoffset:0;stroke-opacity:1" transform="matrix(1.33333 0 0 -1.33333 0 598.875)"/><path d="m81.613 100.752 3.868 245.386 3.868 26.044h11.603l3.868 21.024h27.075l3.867 10.67h3.868l3.868 3.765h61.885l3.868 4.393h127.638l3.868 1.255h27.074l3.868 1.255h27.075l3.868 1.255 3.868 2.825h274.614v0" clip-path="url(#t)" style="fill:none;stroke:#2ca02c;stroke-width:1.5;stroke-linecap:square;stroke-linejoin:round;stroke-miterlimit:10;stroke-dasharray:none;stroke-opacity:1" transform="matrix(1.33333 0 0 -1.33333 0 598.875)"/><path d="m81.613 100.752 3.868 245.386 3.868 26.044 3.868-219.654 3.867 129.596 3.868 9.1 3.868 101.982 3.868-33.575 3.868 19.14 3.867-5.02 7.736-21.651 3.868 12.551 3.868 22.593 3.867 16.631 3.868-22.907 3.868 26.673 3.868-28.241 3.868 11.924 3.868-3.138 3.867 8.786 3.868 3.138 3.868-6.59 3.868-10.041 3.868 5.334 3.867 7.218 3.868.627 3.868 10.041 3.868-6.59 3.868 3.139 3.868-5.962 3.867-3.452 3.868 5.648 3.868 12.552 3.868-3.138 3.868-9.1 3.867 1.255 3.868 4.707 3.868-16.945 3.868 7.845 3.868-10.983 3.867 7.218 3.868-9.414 3.868 13.493 3.868-6.276 3.868-5.334 3.868-2.197 3.867 13.493 3.868-10.669 3.868 7.217 3.868-2.824 3.868 5.649 3.867-9.414 3.868 7.217 3.868-9.414 3.868-1.255 3.868 24.162 3.868.314 3.867-7.217 3.868 4.393 3.868 2.51 3.868 1.255 3.868.314 3.867-8.786 3.868 3.452 3.868 5.648 3.868 2.196 3.868 1.883 3.867-1.569 3.868-.314 3.868-.941 7.736.628 3.868-14.435 3.867 3.138 3.868 14.748 3.868-5.648 3.868-4.707 3.868 10.355 3.867-2.824 3.868-16.317 3.868 15.062 3.868-3.452 3.868 8.786 3.868 2.825 3.867-7.531 3.868-5.021 3.868 5.02 3.868 4.394 3.868-4.393 3.867-.628 3.868 2.196 3.868-6.903 3.868 10.041 3.868.314 3.868 2.51 3.867-2.51 3.868-6.276 3.868 2.824 3.868-1.255 3.868-1.882 3.867.313 3.868 2.824 3.868-.94 3.868-1.57 3.868 1.255 3.867-1.569 3.868 7.218 3.868-4.08 3.868-.314 3.868.314 3.868.942 3.867-4.707 3.868 1.883 11.604 2.824 3.867.313 3.868-5.962 3.868 5.021 3.868-4.08 3.868 5.021 3.868 2.197 3.867.314 3.868.627 3.868-.627h3.868l3.868-3.452h3.867l3.868 1.883 3.868.941 3.868-3.452 3.868 3.452 3.868-1.255h3.867l3.868-1.255 3.868 2.196 3.868.314 3.868-2.824 3.867 4.08 3.868-4.08 3.868.628h3.868l3.868-1.256 3.867 4.707 3.868-4.707 3.868 5.021 3.868-4.08 3.868 2.511 3.868.942 3.867-2.197 3.868-.628 3.868-1.255 3.868.314 3.868 3.138 3.867-1.569" clip-path="url(#u)" style="fill:none;stroke:#2ca02c;stroke-width:1.5;stroke-linecap:butt;stroke-linejoin:round;stroke-miterlimit:10;stroke-dasharray:5.55,2.4;stroke-dashoffset:0;stroke-opacity:1" transform="matrix(1.33333 0 0 -1.33333 0 598.875)"/><path d="m81.613 207.755 3.868 163.172h7.736l3.867 11.924h11.604l3.868 12.866h11.603l3.868 4.707h46.414l3.867 1.569h15.472l3.868 9.1h92.827l3.868.313h81.224l3.868 2.197h30.942l3.868 1.569h154.713l3.868 1.255h7.735l3.868.314h96.695v0" clip-path="url(#v)" style="fill:none;stroke:#d62728;stroke-width:1.5;stroke-linecap:square;stroke-linejoin:round;stroke-miterlimit:10;stroke-dasharray:none;stroke-opacity:1" transform="matrix(1.33333 0 0 -1.33333 0 598.875)"/><path d="m81.613 207.755 3.868 163.172 3.868-3.138 3.868-15.69 3.867 30.752 3.868-25.417 3.868 21.024 3.868-20.083 3.868 37.342 3.867-31.38 3.868 10.983 3.868 17.886 3.868 7.218 3.868-17.573 3.867-24.476 3.868-3.451 3.868 45.186 3.868-9.1 3.868-13.493 3.868 16.317 3.867-1.569 3.868-21.652 3.868 22.907 3.868-19.141 3.868 5.962 3.867 21.652 3.868-13.807 3.868 12.865 3.868-6.903 3.868-3.138 3.868 20.083 3.867-23.221 3.868 16.945 3.868-.942 3.868-20.71 3.868-8.472 3.867 15.69 3.868-5.021 3.868 3.765 3.868 4.393 3.868-15.376 3.867 10.042 3.868 8.158 3.868 4.08 3.868 5.962 3.868-8.787 3.868-7.53 3.867 16.317 3.868-6.59 3.868 4.08 3.868 6.903 3.868-9.1 3.867-8.786 3.868 9.727 3.868 3.766 3.868 5.02 3.868-4.393 3.868-3.138 7.735.628 3.868-1.255 3.868 1.569 3.868 4.079 3.867 1.569 3.868-6.903 3.868 4.079 3.868 3.138 3.868-1.57 3.867-3.765 3.868.942 3.868-.628 3.868 2.51 3.868 1.256 3.868-1.57 7.735-.627 3.868 2.51 3.868 3.766 3.868-2.824 3.867.941 3.868-.627 3.868-.942 3.868 2.197 3.868.313 3.868-1.882 3.867-.628 3.868 5.02 3.868-.94 3.868.313 3.868-1.569 3.867-.941 3.868 1.569 3.868-3.452 3.868 1.57 3.868-.628 3.868.94 3.867.315 3.868-3.452 3.868 3.452 3.868-3.138 3.868-3.452 3.867 1.883 3.868.627 3.868.942 3.868-2.197 3.868-.941 3.867 2.824 3.868-.628 3.868-1.255 3.868-.627 3.868 4.079 7.735 1.255 3.868-1.883 3.868-1.255 3.868 2.824 3.868.942 3.867-1.255 3.868 1.255 3.868.627 3.868-1.569 3.868 2.51 3.868.628 3.867-2.51 3.868.314 3.868-.628 3.868.314 3.868 4.393 3.867-4.393 3.868-3.766 3.868 8.473 3.868-5.335 3.868.314 3.868 1.883 3.867-.628 3.868.314 3.868.628 3.868-.314h3.868l7.735-4.393 3.868 4.08 3.868-1.884 3.868 1.57 7.735-2.511 3.868 1.883 3.868 3.765 3.868-5.02 3.868.94 3.867-.313 3.868 2.824 3.868-1.883h3.868l3.868.314 3.867-.314" clip-path="url(#w)" style="fill:none;stroke:#d62728;stroke-width:1.5;stroke-linecap:butt;stroke-linejoin:round;stroke-miterlimit:10;stroke-dasharray:5.55,2.4;stroke-dashoffset:0;stroke-opacity:1" transform="matrix(1.33333 0 0 -1.33333 0 598.875)"/><path d="M81.613 346.138h19.34l3.867 31.379h42.546l3.868 4.08 3.868 3.137 3.867 6.59 3.868 4.707h38.678l3.868 7.844h34.81l3.868 4.393h19.34l3.867 6.59h100.563l3.868 4.707h309.425v0" clip-path="url(#x)" style="fill:none;stroke:#9467bd;stroke-width:1.5;stroke-linecap:square;stroke-linejoin:round;stroke-miterlimit:10;stroke-dasharray:none;stroke-opacity:1" transform="matrix(1.33333 0 0 -1.33333 0 598.875)"/><path d="m81.613 346.138 3.868-65.583 3.868 60.876 3.868-277.706 3.867 194.865 3.868-40.166 3.868 159.093 3.868-45.814 3.868-18.2 3.867 46.755 3.868-30.124 3.868-26.672 3.868 52.403 3.868-16.317 3.867 11.924 3.868 1.569 3.868 7.217 3.868 4.08 3.868 17.258 3.868 3.138 3.867 6.59 3.868 4.707 3.868-21.338 3.868-4.707 3.868 11.296 3.867-12.238 3.868 6.276 3.868 17.886 3.868-14.12 3.868-5.649 3.868 7.531 3.867 6.59 3.868 16.317 3.868-26.358 3.868 20.082 3.868-5.02 3.867-4.707 3.868-12.866 3.868 9.728 3.868 16.631 3.868.941 3.867-5.962 3.868 11.924 3.868-16.944 3.868-.628 3.868-4.393 3.868 7.531 3.867-3.452 3.868 24.476 3.868-26.045 3.868-1.255 3.868 15.062 3.867-13.18 3.868 12.866 3.868-5.648 3.868-24.162 3.868 18.828 3.868 12.238 3.867-8.787 3.868 10.355 3.868-10.668 3.868 6.903 3.868-18.2 3.867 2.197 3.868 7.53 3.868-7.217 3.868 17.259 3.868-6.59 3.867 5.649 3.868.627 3.868-2.51 3.868-5.962 3.868 6.276 3.868-6.276 3.867-5.962 3.868 31.379 3.868-20.083 3.868-7.217 3.868.628 3.867 15.375 3.868-10.669 3.868 3.766h3.868l3.868 8.159 3.868-5.649 3.867 4.707 3.868-14.434 3.868 2.51 3.868-8.786 3.868 3.138 3.867 11.61 3.868-.627 3.868-1.883 3.868-.628 3.868-1.883 3.868 14.121 3.867-5.02 3.868-9.1 3.868-5.649 3.868 10.983 3.868-15.69 3.867 16.631 3.868-1.569 3.868-4.393 3.868 2.51 3.868-2.51 3.867-3.765 3.868 5.648 3.868-9.414 3.868 7.845 3.868-7.531 3.868 7.217 3.867 9.1 3.868-2.824 3.868.314 3.868-17.259 3.868 14.749 3.867-11.61 3.868 12.237 3.868 3.138 3.868-5.962 3.868 1.255 3.868 1.57 3.867.313 7.736 1.255 3.868-2.196 3.868-.628h3.867l3.868-14.12 3.868 13.179 3.868-15.69 3.868 17.886 3.868 2.197 3.867-4.393 3.868-.314 3.868-1.883 3.868 1.883 3.868-5.335 3.867 7.531 3.868-.941 3.868-43.93 3.868 42.675 3.868 3.138 3.867-10.355 3.868 11.61 3.868-9.1 3.868 4.707 3.868-15.062 3.868 16.63 3.867-6.589 3.868 6.276 3.868 3.765 3.868-3.451 3.868-3.766 3.867 4.393" clip-path="url(#y)" style="fill:none;stroke:#9467bd;stroke-width:1.5;stroke-linecap:butt;stroke-linejoin:round;stroke-miterlimit:10;stroke-dasharray:5.55,2.4;stroke-dashoffset:0;stroke-opacity:1" transform="matrix(1.33333 0 0 -1.33333 0 598.875)"/><path d="M81.613 336.724h23.207l3.868 21.024 3.868 13.807h23.206l3.868 5.491h7.736l3.868 17.416h11.603l3.868 3.765h61.885l3.868 1.255h27.075l3.867.942h3.868l3.868.627 3.868 6.59h108.299l3.867 4.707h3.868l3.868 1.882h116.035l3.867.314h19.34l3.867 1.255h42.546l3.868 3.766h96.695v0" clip-path="url(#z)" style="fill:none;stroke:#8c564b;stroke-width:1.5;stroke-linecap:square;stroke-linejoin:round;stroke-miterlimit:10;stroke-dasharray:none;stroke-opacity:1" transform="matrix(1.33333 0 0 -1.33333 0 598.875)"/><path d="m81.613 336.724 3.868-55.855 3.868 36.086 3.868-8.159 3.867-22.593 3.868-85.351 3.868 135.244 3.868 21.652 3.868 13.807 3.867-10.67 3.868-10.04 3.868 9.1 3.868 7.53 3.868 2.51 3.867-4.079 3.868 11.14 3.868-12.395 3.868-10.355 3.868 40.166 3.868-27.3 3.867 20.71 3.868-6.276 3.868 16.631 7.736-22.28 3.867 14.749 3.868-4.08 3.868 1.883 3.868-6.59 3.868 5.335 3.868 3.452 3.867-18.827 3.868 19.14 3.868 3.139 3.868-3.452 3.868 2.51 3.867-8.786 3.868 7.531 3.868 1.57 3.868 5.961 3.868-5.334 3.867-.942 3.868-11.296 3.868 12.238 3.868-5.02 3.868 1.568 3.868 7.845 3.867 1.883 3.868-5.649 3.868 6.276 3.868 6.59 3.868-11.297 3.867-9.413 3.868 11.924 3.868-3.452 3.868-2.824 3.868.314 3.868 5.02 3.867-2.51 3.868 3.452 3.868-2.824 3.868 2.824 3.868.627 3.867 5.02 3.868-6.903 3.868-1.255 3.868-1.882 3.868 5.648 3.867-2.824 3.868-5.335 3.868 8.473 3.868-.628 3.868 2.824 3.868-4.707 3.867 1.883 3.868 4.393 3.868-.314 3.868-8.786 3.868 4.707 3.867 12.552 3.868-5.335 3.868 7.217 3.868-5.962 3.868 3.766 3.868-5.335 3.867-6.275 3.868 2.824 3.868 10.982 3.868-8.472 3.868 3.138 3.867-9.728 3.868-.627 3.868 7.53 3.868 2.197 3.868 1.256 3.868-5.335 3.867-2.196 3.868 9.727 3.868-7.845 3.868.628 3.868 8.472 3.867-5.648 3.868-1.255 3.868 8.158 3.868-11.924 3.868-.627 3.867 6.276 3.868 1.569 3.868-.314 3.868-1.57 3.868 2.825 3.868-2.51 3.867 6.59 3.868-3.452 3.868-5.335 3.868-.628 3.868 4.08 3.867-5.648 3.868 12.237 3.868-5.648 3.868-12.865 3.868 8.472 3.868-12.08 3.867 10.825 3.868-16.004 3.868 17.887 3.868-4.08 3.868 7.845 3.867-5.962 3.868.941 3.868 14.435 3.868-19.455 3.868-5.962 3.868 4.393 3.867 7.845 3.868-14.749 3.868 4.394 3.868-12.238 3.868 24.79 3.867 2.51 3.868-3.452 3.868 5.02 3.868-3.765 3.868-.941 3.867 1.255 3.868 5.334 3.868-29.182 3.868-2.197 3.868 29.496 3.868-7.217 3.867.314 3.868 2.51 3.868-10.355 3.868 15.062 3.868-9.413 3.867-.314" clip-path="url(#A)" style="fill:none;stroke:#8c564b;stroke-width:1.5;stroke-linecap:butt;stroke-linejoin:round;stroke-miterlimit:10;stroke-dasharray:5.55,2.4;stroke-dashoffset:0;stroke-opacity:1" transform="matrix(1.33333 0 0 -1.33333 0 598.875)"/><path d="M81.613 291.224h3.868l3.868 4.707 3.868 64.955 3.867 3.452 3.868 5.02h92.828l3.868 8.473 3.867 12.551 3.868 19.142h69.62l3.869 3.765h328.764l3.868 1.255h3.868l3.867 1.255h7.736l3.868.628h30.942l3.868.941h15.471v0" clip-path="url(#B)" style="fill:none;stroke:#e377c2;stroke-width:1.5;stroke-linecap:square;stroke-linejoin:round;stroke-miterlimit:10;stroke-dasharray:none;stroke-opacity:1" transform="matrix(1.33333 0 0 -1.33333 0 598.875)"/><path d="m81.613 291.224 3.868-19.141 3.868 23.848 3.868 64.955 3.867 3.452 3.868 5.02L104.36-1m.96 0 3.369 337.724 3.868-54.286 3.867 52.717 3.868 27.3 3.868-40.48 3.868 43.304 3.868-27.3 3.867 26.672 3.868-9.413 3.868-5.335 3.868 15.69 3.868-12.866 3.868 4.707 3.867-14.12 3.868 6.275 3.868.314 3.868 9.1 3.868 3.452 3.867-21.966 3.868 23.22 3.868-2.196 3.868-8.472 3.868 5.334 3.868 19.456 3.867 12.551 3.868 19.142 3.868-13.807 3.868 2.824 3.868 5.962 3.867-34.517 3.868 14.12 3.868 4.08 3.868 10.669 3.868-16.631h3.867l3.868 9.413 3.868.314 3.868-9.414 3.868 21.338 3.868-12.865 3.867 10.983 3.868 5.02 3.868-3.765 3.868.314 3.868 9.727 3.867-7.53 3.868-3.139 7.736-9.414 3.868-5.334 3.868-5.02 3.867 26.985 3.868-10.669 3.868 7.218 3.868-6.904 3.868-2.196 3.867-6.276 3.868 12.865 3.868 6.59 3.868-20.083 3.868 12.866 3.867-1.57 3.868-.94 3.868 5.02h3.868l3.868-8.159 3.868-2.824 3.867 6.904 3.868 1.883 3.868 6.59 3.868-3.766 3.868-6.904 3.867-2.824 3.868 3.766 3.868 4.393 3.868-2.824 3.868-5.649 3.868-.627 3.867 10.355 3.868-3.766 3.868-5.02 3.868 1.882 3.868 5.335 3.867-10.355 3.868 8.158 3.868-.313 3.868-.942 3.868 3.766 3.868.313 3.867-.627 7.736-1.883 3.868 8.159 3.868-10.355 3.867 10.355 3.868-6.59 3.868.628 3.868-2.197 3.868-.627 3.867 3.451 3.868-2.196 3.868 3.451 3.868 2.51 3.868-3.137 3.868-1.883 3.867 2.197 3.868.313 3.868-.313 3.868.941 3.868-3.452 7.735 2.51 3.868-.627 3.868 1.883 3.868-.942 7.735 1.256 3.868-.314 3.868 1.255h3.868l3.868.628 3.867-2.197 3.868-.314 3.868 2.824h7.736l3.868.628h3.867l3.868.314 3.868-.628 3.868 4.393 3.868-.627 3.867 1.882 3.868-5.648 3.868-.314 3.868 6.59 3.868-1.883 3.867-.314 3.868 1.256 3.868-1.883 3.868-1.255 3.868 1.882 3.868-.94 3.867.313 3.868 3.765 3.868-2.196 3.868 1.255 3.868-3.138 3.867-.941" clip-path="url(#C)" style="fill:none;stroke:#e377c2;stroke-width:1.5;stroke-linecap:butt;stroke-linejoin:round;stroke-miterlimit:10;stroke-dasharray:5.55,2.4;stroke-dashoffset:0;stroke-opacity:1" transform="matrix(1.33333 0 0 -1.33333 0 598.875)"/><path d="m81.613 336.724 3.868 44.244h23.207l3.868.628h7.735l3.868 31.065h556.965v0" clip-path="url(#D)" style="fill:none;stroke:#7f7f7f;stroke-width:1.5;stroke-linecap:square;stroke-linejoin:round;stroke-miterlimit:10;stroke-dasharray:none;stroke-opacity:1" transform="matrix(1.33333 0 0 -1.33333 0 598.875)"/><path d="m81.613 336.724 3.868 44.244 3.868-27.927 3.868 22.593 3.867-9.414 3.868-31.065 3.868 24.79 3.868-1.57 3.868 23.221 3.867-7.845 3.868.942 3.868 37.968 3.868-15.062 3.868-6.59 3.867-16.003 3.868-1.255 3.868-29.81 3.868 33.576 3.868-15.376 3.868 26.672 3.867-15.69 3.868-2.823 3.868 15.69 3.868-5.335 3.868 6.903 3.867-20.083 3.868 5.335 3.868 9.414 3.868-11.61 3.868-.314 3.868 11.61 3.867-9.414 3.868-8.472 3.868 16.63 3.868-8.785 3.868 12.551 3.867-.314 3.868-9.727 3.868-1.255 3.868 4.079 3.868 4.707 3.867-2.51 3.868-.628 3.868-6.59 3.868 16.945 3.868-10.041 3.868 3.138 3.867 1.255 7.736 12.552 3.868-10.042 3.868 11.924 3.867-9.727 3.868-19.142 3.868 14.121 3.868 17.572 3.868-13.493 3.868-.941 3.867-16.631 3.868 31.065 3.868-12.551 3.868 2.824 3.868 2.51 3.867-10.983 3.868 9.1h3.868l3.868 6.59 3.868 5.335 3.867 4.706 3.868-1.882 3.868-.942 3.868-10.355 3.868-20.083 3.868 8.787 3.867 23.22 3.868-9.414 3.868-2.51 3.868-1.255 3.868 5.962 3.867 9.414 3.868-6.276 3.868.628 3.868-3.766 3.868 5.334 3.868 5.963 3.867-1.57 3.868-19.768 3.868-2.824 3.868 16.63 3.868-19.455 3.867 17.573 3.868-5.335 3.868 10.67 3.868 1.568 3.868 1.255 3.868-.313 3.867-18.2 3.868 13.493 3.868-16.318 3.868 2.197 3.868 16.631 3.867-2.824 3.868-21.338 3.868 9.1 3.868-5.334 3.868 9.1 3.867-10.356 3.868-3.451 3.868 5.962 3.868-2.197 3.868 5.02 3.868-.627 3.867-10.041 3.868 10.041 3.868 13.493 3.868 3.138 7.735-14.434 3.868-1.57 3.868-11.61 3.868 8.473 3.868 1.883 3.868-6.59 3.867-5.648 3.868 10.041 3.868 14.748 3.868-10.355 3.868-9.414 3.867-3.137 3.868 10.355 3.868-.942 3.868 7.531 3.868-5.02 3.868-1.57 3.867 5.963 3.868-4.08 3.868-2.824 3.868-5.334 3.868-.628 3.867-3.765 3.868 2.51 3.868 5.02 3.868-9.1 3.868 15.377 3.867 2.824 3.868-13.807 3.868 9.1 3.868 10.041 3.868-7.845 3.868-.941 3.867 2.51 3.868-.313 3.868 1.255 3.868 4.707 3.868-8.159 3.867 4.08" clip-path="url(#E)" style="fill:none;stroke:#7f7f7f;stroke-width:1.5;stroke-linecap:butt;stroke-linejoin:round;stroke-miterlimit:10;stroke-dasharray:5.55,2.4;stroke-dashoffset:0;stroke-opacity:1" transform="matrix(1.33333 0 0 -1.33333 0 598.875)"/><path d="m81.613 127.11 3.868 203.024 3.868 17.573h11.603l3.868 9.1h11.603l3.868 2.824 3.868 3.765h3.868l3.868 3.138 3.867 35.145h3.868l3.868 5.648h15.471l3.868 3.138h61.885l3.868.314h54.15l3.867.941h23.207l3.868.941h54.15l3.867 1.256h11.604l3.867.313h7.736l3.868 3.766h50.282l3.867 1.569h228.201v0" clip-path="url(#F)" style="fill:none;stroke:#bcbd22;stroke-width:1.5;stroke-linecap:square;stroke-linejoin:round;stroke-miterlimit:10;stroke-dasharray:none;stroke-opacity:1" transform="matrix(1.33333 0 0 -1.33333 0 598.875)"/><path d="m81.613 127.11 3.868 203.024 3.868 17.573 3.868-233.462 3.867-48.324 3.868 260.761 3.868 30.124 3.868-8.158 3.868 8.158 3.867-35.458 3.868 38.283 3.868 3.765 3.868-10.669 3.868 13.807 3.867 35.145 3.868-20.71 3.868 26.358 3.868-35.458 3.868 21.965 3.868-.628 3.867-5.02 3.868 22.279 3.868-26.672 3.868 18.2 3.868-4.707 3.867 5.02 3.868 5.649 3.868-1.57 3.868-12.551 3.868 10.669 3.868 2.196 3.867-12.865 3.868 4.393 3.868 3.452 3.868-10.355 3.868-.942 3.867 9.728 3.868-5.648 3.868 16.317 3.868-32.32 3.868 22.906 3.867-10.669 3.868-9.1 3.868 17.572 3.868-25.417 3.868 32.948 3.868 3.138 3.867-8.158 3.868-.942 3.868 4.393 3.868-10.668 3.868 13.179 3.867-5.962 3.868 10.041 3.868-12.552 3.868 8.787 3.868-15.376 3.868 12.238 3.867 2.196 3.868-10.982 3.868 16.63 3.868-4.079 3.868-9.1 3.867 7.217 3.868-7.217 3.868.628 3.868 7.217 3.868-1.569 3.867-5.962 3.868-1.255 3.868-1.57 3.868 11.611 3.868-11.296 3.868-5.335 3.867 3.138 3.868 18.828 3.868-.942 3.868-11.924 3.868.628 3.867 12.551 3.868-15.062 3.868-3.765 3.868 22.593 3.868-3.766h3.868l3.867-.94 3.868-3.766 3.868 5.334 3.868-4.707 3.868 2.824 3.867 3.138 3.868-6.276 3.868.314 3.868 2.51 3.868-5.648 3.868-16.003 3.867 28.555 3.868-4.707 3.868-15.69 3.868 7.845 3.868 4.707 3.867-7.845 3.868 6.59 3.868-6.276 3.868-1.255 3.868 1.255 3.867 3.452 3.868-3.452 3.868-1.883 3.868 3.766 3.868-3.138 3.868 6.59 3.867-4.394 3.868-.94 3.868 1.568 3.868-5.334 3.868 4.706 3.867 2.197 3.868-24.476 3.868 21.966 3.868 4.079 3.868 2.824 3.868-22.593 3.867 16.003 3.868-2.824 3.868-1.255 3.868 1.883 3.868-10.355 3.867 5.02 3.868-1.882 3.868 2.196 3.868 4.707 3.868-15.69 3.868 9.1 3.867-4.706 3.868-2.197 3.868.941 3.868 4.707 3.868-2.824 3.867-8.158 3.868 14.748 3.868-1.57 3.868-13.492 3.868 3.765 3.867 1.883 3.868-3.765 3.868 7.53 3.868-.94 3.868 7.844 3.868-7.217 3.867-12.238 3.868 19.455 3.868-11.61 3.868 14.748 3.868-9.1 3.867.314" clip-path="url(#G)" style="fill:none;stroke:#bcbd22;stroke-width:1.5;stroke-linecap:butt;stroke-linejoin:round;stroke-miterlimit:10;stroke-dasharray:5.55,2.4;stroke-dashoffset:0;stroke-opacity:1" transform="matrix(1.33333 0 0 -1.33333 0 598.875)"/><path d="M81.613 351.786h3.868l3.868 1.255h3.868l3.867 17.886h7.736l3.868 21.338h42.546l3.868 1.255h11.603l3.868 7.217h15.471l3.868 5.021h69.62l3.868.314h15.472l3.867.941h3.868l3.868.628h7.736l3.868 4.08h38.678l3.868 5.647h336.5v0" clip-path="url(#H)" style="fill:none;stroke:#17becf;stroke-width:1.5;stroke-linecap:square;stroke-linejoin:round;stroke-miterlimit:10;stroke-dasharray:none;stroke-opacity:1" transform="matrix(1.33333 0 0 -1.33333 0 598.875)"/><path d="m81.613 351.786 3.868-47.383 3.868 48.638 3.868-7.845 3.867 25.731 3.868-9.1 3.868-48.951 3.868 79.389 3.868-12.552 3.867-2.196 3.868-2.824 3.868-25.731 3.868 24.162 3.868 8.472h3.867l3.868-8.786 3.868-7.531 3.868 13.18 3.868 8.472 3.868 6.59 3.867-16.318 3.868 5.648 3.868 9.1 3.868 8.786 3.868-9.1 3.867-6.59 3.868-18.513 3.868 33.576 3.868 5.648 7.736-20.083 3.867 4.393h3.868l3.868-5.648 3.868-6.903 3.868 11.924 3.867 8.158 3.868-9.1 3.868-5.648 3.868 11.61 3.868 1.883 3.867 1.255 3.868 1.883 3.868-17.572 3.868-5.335 3.868 20.71 3.868-1.254 3.867 10.04 3.868-4.392 3.868 3.451 3.868-.627h3.868l3.867 2.51 3.868-4.393 3.868 5.02 3.868-7.53 3.868 2.824 3.868 8.786 3.867-10.669 3.868-5.02 3.868 7.217 3.868 7.845 3.868-6.276 3.867-5.021 3.868 9.1 3.868-3.452 3.868 1.57 3.868 4.706 3.867 5.648 3.868-13.493 3.868 11.297 3.868-4.08 3.868-1.568 3.868 4.079 3.867-2.824 3.868-7.217 3.868 1.255 3.868-3.766 3.868 6.59 3.867 4.393 3.868-5.335 3.868.942 3.868 5.334 7.736.628 3.867-6.276 3.868 1.569 3.868-.628 3.868-.313 3.868.313 3.867 3.766 3.868-1.883 3.868-3.138 3.868 4.08 3.868.627 3.868-1.569 3.867 2.51 3.868-5.648 3.868-7.845 3.868 13.807h3.868l3.867-42.362 3.868 37.028 3.868 6.59 3.868-4.394 3.868 6.276 3.867-19.455 3.868 15.062 3.868 2.51 3.868-44.244 3.868 42.048 3.868 1.569 3.867-3.766 3.868 4.707 3.868-1.255 3.868-1.569 3.868 2.51 3.867-1.255 3.868 1.57 3.868-.315 3.868.314 3.868 1.255 3.868-2.196 7.735 1.255 3.868.941 3.868-1.882 3.868 1.882 3.867-1.882 3.868 2.51 3.868-.941 3.868-1.883 3.868 1.569 3.868-.314h3.867l3.868.941 3.868-.313 3.868.313 3.868-1.882 3.867 1.882 3.868.314 3.868-.314 3.868-.941 7.735 1.255 3.868-.627 3.868.627 3.868-1.569 3.868 1.883 3.868.628 3.867-1.57 7.736-.627 3.868 1.569 3.868-.941h3.867" clip-path="url(#I)" style="fill:none;stroke:#17becf;stroke-width:1.5;stroke-linecap:butt;stroke-linejoin:round;stroke-miterlimit:10;stroke-dasharray:5.55,2.4;stroke-dashoffset:0;stroke-opacity:1" transform="matrix(1.33333 0 0 -1.33333 0 598.875)"/><path d="M52.048 426.484h617.704q2 0 2 2v13.672q0 2-2 2H52.048q-2 0-2-2v-13.672q0-2 2-2z" style="fill:#fff;fill-opacity:.8;fill-rule:nonzero;stroke:#ccc;stroke-width:1;stroke-linecap:butt;stroke-linejoin:miter;stroke-miterlimit:10;stroke-dasharray:none;stroke-opacity:.8" transform="matrix(1.33333 0 0 -1.33333 0 598.875)"/><path d="M54.048 436.062h20" style="fill:none;stroke:#1f77b4;stroke-width:1.5;stroke-linecap:square;stroke-linejoin:round;stroke-miterlimit:10;stroke-dasharray:none;stroke-opacity:1" transform="matrix(1.33333 0 0 -1.33333 0 598.875)"/><text xml:space="preserve" transform="translate(109.398 22.125)scale(1.33333)"><tspan x="0" y="0" style="font-variant:normal;font-weight:400;font-size:10px;font-family:&quot;DejaVu Sans&quot;;writing-mode:lr-tb;fill:#000;fill-opacity:1;fill-rule:nonzero;stroke:none">#1</tspan></text><path d="M116.783 436.062h20" style="fill:none;stroke:#ff7f0e;stroke-width:1.5;stroke-linecap:square;stroke-linejoin:round;stroke-miterlimit:10;stroke-dasharray:none;stroke-opacity:1" transform="matrix(1.33333 0 0 -1.33333 0 598.875)"/><text xml:space="preserve" transform="translate(193.044 22.125)scale(1.33333)"><tspan x="0" y="0" style="font-variant:normal;font-weight:400;font-size:10px;font-family:&quot;DejaVu Sans&quot;;writing-mode:lr-tb;fill:#000;fill-opacity:1;fill-rule:nonzero;stroke:none">#2</tspan></text><path d="M179.517 436.062h20" style="fill:none;stroke:#2ca02c;stroke-width:1.5;stroke-linecap:square;stroke-linejoin:round;stroke-miterlimit:10;stroke-dasharray:none;stroke-opacity:1" transform="matrix(1.33333 0 0 -1.33333 0 598.875)"/><text xml:space="preserve" transform="translate(276.69 22.125)scale(1.33333)"><tspan x="0" y="0" style="font-variant:normal;font-weight:400;font-size:10px;font-family:&quot;DejaVu Sans&quot;;writing-mode:lr-tb;fill:#000;fill-opacity:1;fill-rule:nonzero;stroke:none">#3</tspan></text><path d="M242.252 436.062h20" style="fill:none;stroke:#d62728;stroke-width:1.5;stroke-linecap:square;stroke-linejoin:round;stroke-miterlimit:10;stroke-dasharray:none;stroke-opacity:1" transform="matrix(1.33333 0 0 -1.33333 0 598.875)"/><text xml:space="preserve" transform="translate(360.335 22.125)scale(1.33333)"><tspan x="0" y="0" style="font-variant:normal;font-weight:400;font-size:10px;font-family:&quot;DejaVu Sans&quot;;writing-mode:lr-tb;fill:#000;fill-opacity:1;fill-rule:nonzero;stroke:none">#4</tspan></text><path d="M304.986 436.062h20" style="fill:none;stroke:#9467bd;stroke-width:1.5;stroke-linecap:square;stroke-linejoin:round;stroke-miterlimit:10;stroke-dasharray:none;stroke-opacity:1" transform="matrix(1.33333 0 0 -1.33333 0 598.875)"/><text xml:space="preserve" transform="translate(443.981 22.125)scale(1.33333)"><tspan x="0" y="0" style="font-variant:normal;font-weight:400;font-size:10px;font-family:&quot;DejaVu Sans&quot;;writing-mode:lr-tb;fill:#000;fill-opacity:1;fill-rule:nonzero;stroke:none">#5</tspan></text><path d="M367.72 436.062h20" style="fill:none;stroke:#8c564b;stroke-width:1.5;stroke-linecap:square;stroke-linejoin:round;stroke-miterlimit:10;stroke-dasharray:none;stroke-opacity:1" transform="matrix(1.33333 0 0 -1.33333 0 598.875)"/><text xml:space="preserve" transform="translate(527.627 22.125)scale(1.33333)"><tspan x="0" y="0" style="font-variant:normal;font-weight:400;font-size:10px;font-family:&quot;DejaVu Sans&quot;;writing-mode:lr-tb;fill:#000;fill-opacity:1;fill-rule:nonzero;stroke:none">#6</tspan></text><path d="M430.455 436.062h20" style="fill:none;stroke:#e377c2;stroke-width:1.5;stroke-linecap:square;stroke-linejoin:round;stroke-miterlimit:10;stroke-dasharray:none;stroke-opacity:1" transform="matrix(1.33333 0 0 -1.33333 0 598.875)"/><text xml:space="preserve" transform="translate(611.273 22.125)scale(1.33333)"><tspan x="0" y="0" style="font-variant:normal;font-weight:400;font-size:10px;font-family:&quot;DejaVu Sans&quot;;writing-mode:lr-tb;fill:#000;fill-opacity:1;fill-rule:nonzero;stroke:none">#7</tspan></text><path d="M493.19 436.062h20" style="fill:none;stroke:#7f7f7f;stroke-width:1.5;stroke-linecap:square;stroke-linejoin:round;stroke-miterlimit:10;stroke-dasharray:none;stroke-opacity:1" transform="matrix(1.33333 0 0 -1.33333 0 598.875)"/><text xml:space="preserve" transform="translate(694.919 22.125)scale(1.33333)"><tspan x="0" y="0" style="font-variant:normal;font-weight:400;font-size:10px;font-family:&quot;DejaVu Sans&quot;;writing-mode:lr-tb;fill:#000;fill-opacity:1;fill-rule:nonzero;stroke:none">#8</tspan></text><path d="M555.923 436.062h20" style="fill:none;stroke:#bcbd22;stroke-width:1.5;stroke-linecap:square;stroke-linejoin:round;stroke-miterlimit:10;stroke-dasharray:none;stroke-opacity:1" transform="matrix(1.33333 0 0 -1.33333 0 598.875)"/><text xml:space="preserve" transform="translate(778.565 22.125)scale(1.33333)"><tspan x="0" y="0" style="font-variant:normal;font-weight:400;font-size:10px;font-family:&quot;DejaVu Sans&quot;;writing-mode:lr-tb;fill:#000;fill-opacity:1;fill-rule:nonzero;stroke:none">#9</tspan></text><path d="M618.658 436.062h20" style="fill:none;stroke:#17becf;stroke-width:1.5;stroke-linecap:square;stroke-linejoin:round;stroke-miterlimit:10;stroke-dasharray:none;stroke-opacity:1" transform="matrix(1.33333 0 0 -1.33333 0 598.875)"/><text xml:space="preserve" transform="translate(862.21 22.125)scale(1.33333)"><tspan x="0" y="0" style="font-variant:normal;font-weight:400;font-size:10px;font-family:&quot;DejaVu Sans&quot;;writing-mode:lr-tb;fill:#000;fill-opacity:1;fill-rule:nonzero;stroke:none">#10</tspan></text></svg>