<svg xmlns="http://www.w3.org/2000/svg" width="962.4" height="598.875" viewBox="0 0 962.4 598.875"><defs><clipPath id="a" clipPathUnits="userSpaceOnUse"><path d="M51.638 42.544H711.1v391.612H51.638Z"/></clipPath><clipPath id="b" clipPathUnits="userSpaceOnUse"><path d="M51.638 42.544H711.1v391.612H51.638Z"/></clipPath><clipPath id="c" clipPathUnits="userSpaceOnUse"><path d="M51.638 42.544H711.1v391.612H51.638Z"/></clipPath><clipPath id="d" clipPathUnits="userSpaceOnUse"><path d="M51.638 42.544H711.1v391.612H51.638Z"/></clipPath><clipPath id="e" clipPathUnits="userSpaceOnUse"><path d="M51.638 42.544H711.1v391.612H51.638Z"/></clipPath><clipPath id="f" clipPathUnits="userSpaceOnUse"><path d="M51.638 42.544H711.1v391.612H51.638Z"/></clipPath><clipPath id="g" clipPathUnits="userSpaceOnUse"><path d="M51.638 42.544H711.1v391.612H51.638Z"/></clipPath><clipPath id="h" clipPathUnits="userSpaceOnUse"><path d="M51.638 42.544H711.1v391.612H51.638Z"/></clipPath><clipPath id="i" clipPathUnits="userSpaceOnUse"><path d="M51.638 42.544H711.1v391.612H51.638Z"/></clipPath><clipPath id="j" clipPathUnits="userSpaceOnUse"><path d="M51.638 42.544H711.1v391.612H51.638Z"/></clipPath><clipPath id="k" clipPathUnits="userSpaceOnUse"><path d="M51.638 42.544H711.1v391.612H51.638Z"/></clipPath><clipPath id="l" clipPathUnits="userSpaceOnUse"><path d="M51.638 42.544H711.1v391.612H51.638Z"/></clipPath><clipPath id="m" clipPathUnits="userSpaceOnUse"><path d="M51.638 42.544H711.1v391.612H51.638Z"/></clipPath><clipPath id="n" clipPathUnits="userSpaceOnUse"><path d="M51.638 42.544H711.1v391.612H51.638Z"/></clipPath><clipPath id="o" clipPathUnits="userSpaceOnUse"><path d="M51.638 42.544H711.1v391.612H51.638Z"/></clipPath><clipPath id="p" clipPathUnits="userSpaceOnUse"><path d="M51.638 42.544H711.1v391.612H51.638Z"/></clipPath><clipPath id="q" clipPathUnits="userSpaceOnUse"><path d="M51.638 42.544H711.1v391.612H51.638Z"/></clipPath><clipPath id="r" clipPathUnits="userSpaceOnUse"><path d="M51.638 42.544H711.1v391.612H51.638Z"/></clipPath><clipPath id="s" clipPathUnits="userSpaceOnUse"><path d="M51.638 42.544H711.1v391.612H51.638Z"/></clipPath><clipPath id="t" clipPathUnits="userSpaceOnUse"><path d="M51.638 42.544H711.1v391.612H51.638Z"/></clipPath><clipPath id="u" clipPathUnits="userSpaceOnUse"><path d="M51.638 42.544H711.1v391.612H51.638Z"/></clipPath><clipPath id="v" clipPathUnits="userSpaceOnUse"><path d="M51.638 42.544H711.1v391.612H51.638Z"/></clipPath><clipPath id="w" clipPathUnits="userSpaceOnUse"><path d="M51.638 42.544H711.1v391.612H51.638Z"/></clipPath><clipPath id="x" clipPathUnits="userSpaceOnUse"><path d="M51.638 42.544H711.1v391.612H51.638Z"/></clipPath><clipPath id="y" clipPathUnits="userSpaceOnUse"><path d="M51.638 42.544H711.1v391.612H51.638Z"/></clipPath><clipPath id="z" clipPathUnits="userSpaceOnUse"><path d="M51.638 42.544H711.1v391.612H51.638Z"/></clipPath><clipPath id="A" clipPathUnits="userSpaceOnUse"><path d="M51.638 42.544H711.1v391.612H51.638Z"/></clipPath><clipPath id="B" clipPathUnits="userSpaceOnUse"><path d="M51.638 42.544H711.1v391.612H51.638Z"/></clipPath><clipPath id="C" clipPathUnits="userSpaceOnUse"><path d="M51.638 42.544H711.1v391.612H51.638Z"/></clipPath><clipPath id="D" clipPathUnits="userSpaceOnUse"><path d="M51.638 42.544H711.1v391.612H51.638Z"/></clipPath><clipPath id="E" clipPathUnits="userSpaceOnUse"><path d="M51.638 42.544H711.1v391.612H51.638Z"/></clipPath><clipPath id="F" clipPathUnits="userSpaceOnUse"><path d="M51.638 42.544H711.1v391.612H51.638Z"/></clipPath></defs><path d="M68.858 42.544v391.612" clip-path="url(#a)" style="fill:none;stroke:#e6e6e6;stroke-width:1;stroke-linecap:square;stroke-linejoin:round;stroke-miterlimit:10;stroke-dasharray:none;stroke-opacity:1" transform="matrix(1.33333 0 0 -1.33333 0 598.875)"/><path d="M68.858 37.544v-3.5" style="fill:#000;fill-opacity:1;fill-rule:nonzero;stroke:#000;stroke-width:.8;stroke-linecap:butt;stroke-linejoin:round;stroke-miterlimit:10;stroke-dasharray:none;stroke-opacity:1" transform="matrix(1.33333 0 0 -1.33333 0 598.875)"/><text xml:space="preserve" transform="translate(87.57 568.275)scale(1.33333)"><tspan x="0" y="0" style="font-variant:normal;font-weight:400;font-size:10px;font-family:&quot;DejaVu Sans&quot;;writing-mode:lr-tb;fill:#000;fill-opacity:1;fill-rule:nonzero;stroke:none">0</tspan></text><path d="M196.413 42.544v391.612" clip-path="url(#b)" style="fill:none;stroke:#e6e6e6;stroke-width:1;stroke-linecap:square;stroke-linejoin:round;stroke-miterlimit:10;stroke-dasharray:none;stroke-opacity:1" transform="matrix(1.33333 0 0 -1.33333 0 598.875)"/><path d="M196.413 37.544v-3.5" style="fill:#000;fill-opacity:1;fill-rule:nonzero;stroke:#000;stroke-width:.8;stroke-linecap:butt;stroke-linejoin:round;stroke-miterlimit:10;stroke-dasharray:none;stroke-opacity:1" transform="matrix(1.33333 0 0 -1.33333 0 598.875)"/><text xml:space="preserve" transform="translate(253.405 568.275)scale(1.33333)"><tspan x="0" y="0" style="font-variant:normal;font-weight:400;font-size:10px;font-family:&quot;DejaVu Sans&quot;;writing-mode:lr-tb;fill:#000;fill-opacity:1;fill-rule:nonzero;stroke:none">10</tspan></text><path d="M323.969 42.544v391.612" clip-path="url(#c)" style="fill:none;stroke:#e6e6e6;stroke-width:1;stroke-linecap:square;stroke-linejoin:round;stroke-miterlimit:10;stroke-dasharray:none;stroke-opacity:1" transform="matrix(1.33333 0 0 -1.33333 0 598.875)"/><path d="M323.969 37.544v-3.5" style="fill:#000;fill-opacity:1;fill-rule:nonzero;stroke:#000;stroke-width:.8;stroke-linecap:butt;stroke-linejoin:round;stroke-miterlimit:10;stroke-dasharray:none;stroke-opacity:1" transform="matrix(1.33333 0 0 -1.33333 0 598.875)"/><text xml:space="preserve" transform="translate(423.48 568.275)scale(1.33333)"><tspan x="0" y="0" style="font-variant:normal;font-weight:400;font-size:10px;font-family:&quot;DejaVu Sans&quot;;writing-mode:lr-tb;fill:#000;fill-opacity:1;fill-rule:nonzero;stroke:none">20</tspan></text><path d="M451.524 42.544v391.612" clip-path="url(#d)" style="fill:none;stroke:#e6e6e6;stroke-width:1;stroke-linecap:square;stroke-linejoin:round;stroke-miterlimit:10;stroke-dasharray:none;stroke-opacity:1" transform="matrix(1.33333 0 0 -1.33333 0 598.875)"/><path d="M451.524 37.544v-3.5" style="fill:#000;fill-opacity:1;fill-rule:nonzero;stroke:#000;stroke-width:.8;stroke-linecap:butt;stroke-linejoin:round;stroke-miterlimit:10;stroke-dasharray:none;stroke-opacity:1" transform="matrix(1.33333 0 0 -1.33333 0 598.875)"/><text xml:space="preserve" transform="translate(593.553 568.275)scale(1.33333)"><tspan x="0" y="0" style="font-variant:normal;font-weight:400;font-size:10px;font-family:&quot;DejaVu Sans&quot;;writing-mode:lr-tb;fill:#000;fill-opacity:1;fill-rule:nonzero;stroke:none">30</tspan></text><path d="M579.08 42.544v391.612" clip-path="url(#e)" style="fill:none;stroke:#e6e6e6;stroke-width:1;stroke-linecap:square;stroke-linejoin:round;stroke-miterlimit:10;stroke-dasharray:none;stroke-opacity:1" transform="matrix(1.33333 0 0 -1.33333 0 598.875)"/><path d="M579.08 37.544v-3.5" style="fill:#000;fill-opacity:1;fill-rule:nonzero;stroke:#000;stroke-width:.8;stroke-linecap:butt;stroke-linejoin:round;stroke-miterlimit:10;stroke-dasharray:none;stroke-opacity:1" transform="matrix(1.33333 0 0 -1.33333 0 598.875)"/><text xml:space="preserve" transform="translate(763.627 568.275)scale(1.33333)"><tspan x="0" y="0" style="font-variant:normal;font-weight:400;font-size:10px;font-family:&quot;DejaVu Sans&quot;;writing-mode:lr-tb;fill:#000;fill-opacity:1;fill-rule:nonzero;stroke:none">40</tspan></text><path d="M706.636 42.544v391.612" clip-path="url(#f)" style="fill:none;stroke:#e6e6e6;stroke-width:1;stroke-linecap:square;stroke-linejoin:round;stroke-miterlimit:10;stroke-dasharray:none;stroke-opacity:1" transform="matrix(1.33333 0 0 -1.33333 0 598.875)"/><path d="M706.636 37.544v-3.5" style="fill:#000;fill-opacity:1;fill-rule:nonzero;stroke:#000;stroke-width:.8;stroke-linecap:butt;stroke-linejoin:round;stroke-miterlimit:10;stroke-dasharray:none;stroke-opacity:1" transform="matrix(1.33333 0 0 -1.33333 0 598.875)"/><text xml:space="preserve" transform="translate(933.702 568.275)scale(1.33333)"><tspan x="0" y="0" style="font-variant:normal;font-weight:400;font-size:10px;font-family:&quot;DejaVu Sans&quot;;writing-mode:lr-tb;fill:#000;fill-opacity:1;fill-rule:nonzero;stroke:none">50</tspan></text><text xml:space="preserve" transform="translate(471.283 586.504)scale(1.33333)"><tspan x="0" y="0" style="font-variant:normal;font-weight:400;font-size:10px;font-family:&quot;DejaVu Sans&quot;;writing-mode:lr-tb;fill:#000;fill-opacity:1;fill-rule:nonzero;stroke:none">Generation</tspan></text><path d="M51.638 63.51H711.1" clip-path="url(#g)" style="fill:none;stroke:#e6e6e6;stroke-width:1;stroke-linecap:square;stroke-linejoin:round;stroke-miterlimit:10;stroke-dasharray:none;stroke-opacity:1" transform="matrix(1.33333 0 0 -1.33333 0 598.875)"/><text xml:space="preserve" transform="translate(27.83 519.257)scale(1.33333)"><tspan x="0" y="0" style="font-variant:normal;font-weight:400;font-size:10px;font-family:&quot;DejaVu Sans&quot;;writing-mode:lr-tb;fill:#000;fill-opacity:1;fill-rule:nonzero;stroke:none">0.80</tspan></text><path d="M51.638 136.683H711.1" clip-path="url(#h)" style="fill:none;stroke:#e6e6e6;stroke-width:1;stroke-linecap:square;stroke-linejoin:round;stroke-miterlimit:10;stroke-dasharray:none;stroke-opacity:1" transform="matrix(1.33333 0 0 -1.33333 0 598.875)"/><text xml:space="preserve" transform="translate(27.83 421.694)scale(1.33333)"><tspan x="0" y="0" style="font-variant:normal;font-weight:400;font-size:10px;font-family:&quot;DejaVu Sans&quot;;writing-mode:lr-tb;fill:#000;fill-opacity:1;fill-rule:nonzero;stroke:none">0.81</tspan></text><path d="M51.638 209.855H711.1" clip-path="url(#i)" style="fill:none;stroke:#e6e6e6;stroke-width:1;stroke-linecap:square;stroke-linejoin:round;stroke-miterlimit:10;stroke-dasharray:none;stroke-opacity:1" transform="matrix(1.33333 0 0 -1.33333 0 598.875)"/><text xml:space="preserve" transform="translate(27.83 324.13)scale(1.33333)"><tspan x="0" y="0" style="font-variant:normal;font-weight:400;font-size:10px;font-family:&quot;DejaVu Sans&quot;;writing-mode:lr-tb;fill:#000;fill-opacity:1;fill-rule:nonzero;stroke:none">0.82</tspan></text><path d="M51.638 283.027H711.1" clip-path="url(#j)" style="fill:none;stroke:#e6e6e6;stroke-width:1;stroke-linecap:square;stroke-linejoin:round;stroke-miterlimit:10;stroke-dasharray:none;stroke-opacity:1" transform="matrix(1.33333 0 0 -1.33333 0 598.875)"/><text xml:space="preserve" transform="translate(27.83 226.568)scale(1.33333)"><tspan x="0" y="0" style="font-variant:normal;font-weight:400;font-size:10px;font-family:&quot;DejaVu Sans&quot;;writing-mode:lr-tb;fill:#000;fill-opacity:1;fill-rule:nonzero;stroke:none">0.83</tspan></text><path d="M51.638 356.2H711.1" clip-path="url(#k)" style="fill:none;stroke:#e6e6e6;stroke-width:1;stroke-linecap:square;stroke-linejoin:round;stroke-miterlimit:10;stroke-dasharray:none;stroke-opacity:1" transform="matrix(1.33333 0 0 -1.33333 0 598.875)"/><text xml:space="preserve" transform="translate(27.83 129.005)scale(1.33333)"><tspan x="0" y="0" style="font-variant:normal;font-weight:400;font-size:10px;font-family:&quot;DejaVu Sans&quot;;writing-mode:lr-tb;fill:#000;fill-opacity:1;fill-rule:nonzero;stroke:none">0.84</tspan></text><path d="M51.638 429.372H711.1" clip-path="url(#l)" style="fill:none;stroke:#e6e6e6;stroke-width:1;stroke-linecap:square;stroke-linejoin:round;stroke-miterlimit:10;stroke-dasharray:none;stroke-opacity:1" transform="matrix(1.33333 0 0 -1.33333 0 598.875)"/><text xml:space="preserve" transform="translate(27.83 31.442)scale(1.33333)"><tspan x="0" y="0" style="font-variant:normal;font-weight:400;font-size:10px;font-family:&quot;DejaVu Sans&quot;;writing-mode:lr-tb;fill:#000;fill-opacity:1;fill-rule:nonzero;stroke:none">0.85</tspan></text><text xml:space="preserve" transform="rotate(-90 165.785 146.06)scale(1.33333)"><tspan x="0" y="0" style="font-variant:normal;font-weight:400;font-size:10px;font-family:&quot;DejaVu Sans&quot;;writing-mode:lr-tb;fill:#000;fill-opacity:1;fill-rule:nonzero;stroke:none">ROC AUC</tspan></text><path d="M81.613 179.953H94.37l12.755 99.205h25.511l12.756 56.99h12.755l12.756 11.96h38.267l12.755 14.776h63.778l12.756 16.886h153.066l12.756 3.517h76.533l12.756 2.815h127.555" clip-path="url(#m)" style="fill:none;stroke:#1f77b4;stroke-width:1.5;stroke-linecap:square;stroke-linejoin:round;stroke-miterlimit:10;stroke-dasharray:none;stroke-opacity:1" transform="matrix(1.33333 0 0 -1.33333 0 598.875)"/><path d="m81.613 179.953 12.756-66.84 12.755 166.045 12.756-47.14 12.755 34.475 12.756 69.655 12.755-40.104 12.756 52.064 12.756-44.325 12.755 42.215 12.756-26.033 12.755 42.919 12.756-75.987 12.755 33.068 12.756 23.218 12.755-27.44 12.756 15.48 12.756 48.547 12.755-54.88 12.756 16.183 12.755 2.814 12.756 28.143 12.755-44.325 12.756 29.55 12.756-36.586 12.755 35.179 12.756-31.661 12.755 44.325 12.756-20.404 12.755-7.035 12.756 42.214 12.755-37.29 12.756-5.628 12.756 7.74h12.755l12.756 12.664 12.755 2.814 12.756 22.515 12.755-16.886 12.756-16.183 12.755 4.926 12.756 4.221 12.756-28.143 12.755-14.775 12.756 2.814 12.755 16.886 12.756-4.222 12.755 16.886" clip-path="url(#n)" style="fill:none;stroke:#1f77b4;stroke-width:1.5;stroke-linecap:butt;stroke-linejoin:round;stroke-miterlimit:10;stroke-dasharray:5.55,2.4;stroke-dashoffset:0;stroke-opacity:1" transform="matrix(1.33333 0 0 -1.33333 0 598.875)"/><path d="m81.613 252.422 12.756 9.85 12.755 57.693h12.756l12.755 11.258 12.756.703h25.511l12.756 2.11h12.755l12.756 14.776h114.8l12.755 1.407 12.756 26.033h89.289l12.755 27.44h229.6" clip-path="url(#o)" style="fill:none;stroke:#ff7f0e;stroke-width:1.5;stroke-linecap:square;stroke-linejoin:round;stroke-miterlimit:10;stroke-dasharray:none;stroke-opacity:1" transform="matrix(1.33333 0 0 -1.33333 0 598.875)"/><path d="m81.613 252.422 12.756 9.85 12.755 57.693 12.756-40.807 12.755 52.065 12.756.703 12.755-13.368 12.756 4.222 12.756 11.257 12.755-3.518 12.756 18.293 12.755-.704 12.756-16.182 12.755-1.407 12.756-30.958 12.755 9.85 12.756-4.22 12.756 26.032 12.755 9.85h12.756l12.755 9.146 12.756 26.033 12.755-16.886 12.756.703 12.756-16.886 12.755 3.518 12.756 19.7 12.755-23.921 12.756-16.183 12.755 77.394 12.756-55.583 12.755-14.071L489.791 327l12.756 7.036 12.755-6.332 12.756 30.957h12.755l12.756-8.443 12.755 2.11 12.756-2.813 12.755 6.332 12.756-1.407 12.756-6.333 12.755 2.111 12.756-6.332 12.755 7.036h12.756l12.755 13.368" clip-path="url(#p)" style="fill:none;stroke:#ff7f0e;stroke-width:1.5;stroke-linecap:butt;stroke-linejoin:round;stroke-miterlimit:10;stroke-dasharray:5.55,2.4;stroke-dashoffset:0;stroke-opacity:1" transform="matrix(1.33333 0 0 -1.33333 0 598.875)"/><path d="M81.613 222.871H94.37l12.755 16.886 12.756 3.518 12.755 37.29 12.756 2.11 12.755 56.287h51.023l12.755 25.329h140.311l12.756 15.479h153.067l12.755 17.589h51.022l12.756 18.997h76.533" clip-path="url(#q)" style="fill:none;stroke:#2ca02c;stroke-width:1.5;stroke-linecap:square;stroke-linejoin:round;stroke-miterlimit:10;stroke-dasharray:none;stroke-opacity:1" transform="matrix(1.33333 0 0 -1.33333 0 598.875)"/><path d="m81.613 222.871 12.756-21.107 12.755 37.993 12.756 3.518 12.755 37.29 12.756 2.11 12.755 56.287 12.756-43.622 12.756-10.554 12.755 9.147 12.756-9.147 12.755 79.505 12.756-36.586 12.755-21.811 12.756 4.221 12.755-14.775 12.756 32.365 12.756-14.776 12.755-27.44 12.756 45.734 12.755 4.925 12.756-8.443 12.755 23.218 12.756 28.847 12.756-6.333 12.755-35.882 12.756 16.182 12.755-21.81 12.756 18.996 12.755-11.961 12.756 19.7 12.755-49.25 12.756 66.84 12.756-32.365 12.755 33.068 12.756-20.404 12.755 40.808 12.756-9.85 12.755-33.068 12.756 2.11 12.755-38.696 12.756 98.5 12.756-67.543 12.755 27.44 12.756 19.7 12.755-33.068 12.756 16.886 12.755-21.811" clip-path="url(#r)" style="fill:none;stroke:#2ca02c;stroke-width:1.5;stroke-linecap:butt;stroke-linejoin:round;stroke-miterlimit:10;stroke-dasharray:5.55,2.4;stroke-dashoffset:0;stroke-opacity:1" transform="matrix(1.33333 0 0 -1.33333 0 598.875)"/><path d="M81.613 255.236h25.511l12.756 14.072 12.755 59.804h38.267l12.756 33.068H374.99l12.756 2.814h63.777l12.756 1.408 12.755 20.403h140.312l12.755 9.147h51.022" clip-path="url(#s)" style="fill:none;stroke:#d62728;stroke-width:1.5;stroke-linecap:square;stroke-linejoin:round;stroke-miterlimit:10;stroke-dasharray:none;stroke-opacity:1" transform="matrix(1.33333 0 0 -1.33333 0 598.875)"/><path d="M81.613 255.236 94.37 171.51l12.755 30.957 12.756 66.84 12.755 59.805 12.756-4.222 12.755-22.514 12.756-16.886 12.756 76.69 12.755-64.026 12.756 47.14 12.755-21.81 12.756 28.142 12.755-18.293 12.756 9.85 12.755-24.625h12.756l12.756 21.811 12.755-20.404 12.756-4.925 12.755-1.407 12.756 41.511 12.755-23.218 12.756-.703 12.756 33.771 12.755-34.475 12.756 25.329 12.755-2.814 12.756-3.518 12.755 9.85 12.756 7.036 12.755 20.403 12.756-40.807 12.756-.704 12.755 12.665 12.756-18.294 12.755 25.33 12.756-4.926 12.755 7.74 12.756 4.221 12.755-13.368 12.756 2.11 12.756 9.147 12.755 26.033 12.756-28.143 12.755 13.368 12.756-35.883 12.755 42.215" clip-path="url(#t)" style="fill:none;stroke:#d62728;stroke-width:1.5;stroke-linecap:butt;stroke-linejoin:round;stroke-miterlimit:10;stroke-dasharray:5.55,2.4;stroke-dashoffset:0;stroke-opacity:1" transform="matrix(1.33333 0 0 -1.33333 0 598.875)"/><path d="M81.613 253.125H94.37l12.755 53.472h12.756l12.755 19.7h12.756l12.755 7.74h102.045l12.755 12.664h38.267l12.756 7.74h191.333l12.756 7.035 12.755 26.736h140.311" clip-path="url(#u)" style="fill:none;stroke:#9467bd;stroke-width:1.5;stroke-linecap:square;stroke-linejoin:round;stroke-miterlimit:10;stroke-dasharray:none;stroke-opacity:1" transform="matrix(1.33333 0 0 -1.33333 0 598.875)"/><path d="m81.613 253.125 12.756-131.57 12.755 185.042 12.756-64.73 12.755 84.43 12.756-7.035 12.755 14.775 12.756-45.733 12.756-6.332 12.755 24.625 12.756 22.515 12.755-28.143 12.756-.704 12.755-11.96 12.756 39.4 12.755 18.996 12.756-21.107 12.756 4.925L311.213 327l12.756 27.44 12.755-32.365 12.756 2.11 12.755-12.664 12.756 35.883 12.756-9.147 12.755-35.179 12.756 18.293 12.755 6.333 12.756-14.072 12.755 28.143 12.756 2.111 12.755 10.554 12.756-16.886 12.756 1.407 12.755-9.85 12.756 32.364 12.755 26.736 12.756-11.96 12.755-7.036 12.756-11.961 12.755-24.625 12.756 25.329 12.756 19.7 12.755-14.775 12.756 22.514 12.755-1.407 12.756-14.072 12.755-23.921" clip-path="url(#v)" style="fill:none;stroke:#9467bd;stroke-width:1.5;stroke-linecap:butt;stroke-linejoin:round;stroke-miterlimit:10;stroke-dasharray:5.55,2.4;stroke-dashoffset:0;stroke-opacity:1" transform="matrix(1.33333 0 0 -1.33333 0 598.875)"/><path d="m81.613 60.344 12.756 39.4 12.755 38.698 12.756 107.647 12.755 7.036 12.756 10.554 12.755 51.361h12.756l12.756 3.518 12.755 47.14h51.022l12.756 7.036h178.578l12.755 1.407h51.023l12.755 3.518h165.822" clip-path="url(#w)" style="fill:none;stroke:#8c564b;stroke-width:1.5;stroke-linecap:square;stroke-linejoin:round;stroke-miterlimit:10;stroke-dasharray:none;stroke-opacity:1" transform="matrix(1.33333 0 0 -1.33333 0 598.875)"/><path d="m81.613 60.344 12.756 39.4 12.755 38.698 12.756 107.647 12.755 7.036 12.756 10.554 12.755 51.361 12.756-37.29 12.756 40.808 12.755 47.14 12.756-49.954 12.755 43.622 12.756 4.925 12.755-26.736 12.756 35.179 12.755-74.58 12.756 39.4 12.756 10.554 12.755-30.253 12.756 23.218 12.755-34.476 12.756 18.293 12.755-9.85 12.756 27.44 12.756-16.886 12.755 9.146 12.756 24.626 12.755-40.808 12.756 4.925 12.755 50.658 12.756-5.629 12.755-15.479 12.756-14.775 12.756 23.218 12.755 16.183 12.756-51.362 12.755 21.108 12.756 10.554 12.755 8.443 12.756 3.517 12.755-14.071h12.756l12.756-33.772 12.755 30.254 12.756-8.443 12.755 14.072 12.756-10.554 12.755 11.257" clip-path="url(#x)" style="fill:none;stroke:#8c564b;stroke-width:1.5;stroke-linecap:butt;stroke-linejoin:round;stroke-miterlimit:10;stroke-dasharray:5.55,2.4;stroke-dashoffset:0;stroke-opacity:1" transform="matrix(1.33333 0 0 -1.33333 0 598.875)"/><path d="m81.613 258.05 12.756 33.068h12.755l12.756 4.926 12.755 16.885 12.756 4.926h51.022l12.756 42.918h51.022l12.755 12.664h38.267l12.756 7.74h357.155" clip-path="url(#y)" style="fill:none;stroke:#e377c2;stroke-width:1.5;stroke-linecap:square;stroke-linejoin:round;stroke-miterlimit:10;stroke-dasharray:none;stroke-opacity:1" transform="matrix(1.33333 0 0 -1.33333 0 598.875)"/><path d="m81.613 258.05 12.756 33.068 12.755-42.214 12.756 47.14 12.755 16.885 12.756 4.926 12.755-15.48 12.756-7.739 12.756 11.258 12.755-22.515 12.756 77.394 12.755-31.661 12.756-23.922 12.755 1.407 12.756-47.843 12.755 114.683 12.756-63.322 12.756 34.476 12.755 1.407 12.756 35.179 12.755-19.7 12.756-6.333 12.755 7.036h12.756l12.756-4.925 12.755.704 12.756-20.404 12.755-5.629 12.756 38.697 12.755-22.515 12.756 18.997 12.755-29.55 12.756-4.925 12.756 11.96 12.755 32.365 12.756-47.14 12.755 18.293 12.756-10.553 12.755 7.036 12.756 18.293 12.755-22.515 12.756-8.443 12.756 47.844 12.755-15.48 12.756-6.331 12.755-11.961 12.756 9.146 12.755-11.257" clip-path="url(#z)" style="fill:none;stroke:#e377c2;stroke-width:1.5;stroke-linecap:butt;stroke-linejoin:round;stroke-miterlimit:10;stroke-dasharray:5.55,2.4;stroke-dashoffset:0;stroke-opacity:1" transform="matrix(1.33333 0 0 -1.33333 0 598.875)"/><path d="m81.613 251.014 12.756 23.922 12.755 18.293h25.511l12.756 30.254 12.755 40.808h89.289l12.756 19.7h216.844l12.756.704h12.756l12.755 7.739h165.822" clip-path="url(#A)" style="fill:none;stroke:#7f7f7f;stroke-width:1.5;stroke-linecap:square;stroke-linejoin:round;stroke-miterlimit:10;stroke-dasharray:none;stroke-opacity:1" transform="matrix(1.33333 0 0 -1.33333 0 598.875)"/><path d="m81.613 251.014 12.756 23.922 12.755 18.293 12.756-10.553 12.755 8.442 12.756 32.365 12.755 40.808 12.756-30.254 12.756-2.814 12.755 32.364 12.756-20.404 12.755-29.55 12.756 16.182 12.755-5.628 12.756 59.804h12.755l12.756-12.664 12.756-36.587 12.755 37.29 12.756-35.179 12.755-.703 12.756 14.775 12.755 17.59 12.756-29.551 12.756-5.629 12.755-10.553 12.756 45.732 12.755-2.11 12.756-15.48 12.755 18.997 12.756-20.403 12.755 4.925 12.756 30.254 12.756-28.847 12.755 36.586 12.756-19.7 12.755-4.925 12.756-7.74h12.755l12.756 16.183 12.755-10.554 12.756-4.222 12.756 2.815 12.755-8.443 12.756 21.107 12.755.704 12.756-.704 12.755-2.814" clip-path="url(#B)" style="fill:none;stroke:#7f7f7f;stroke-width:1.5;stroke-linecap:butt;stroke-linejoin:round;stroke-miterlimit:10;stroke-dasharray:5.55,2.4;stroke-dashoffset:0;stroke-opacity:1" transform="matrix(1.33333 0 0 -1.33333 0 598.875)"/><path d="M81.613 300.265h38.267l12.755 28.143h38.267l12.756 11.257h12.755l12.756 16.886 12.755 20.404H579.08l12.755 1.407h76.534l12.755 2.111" clip-path="url(#C)" style="fill:none;stroke:#bcbd22;stroke-width:1.5;stroke-linecap:square;stroke-linejoin:round;stroke-miterlimit:10;stroke-dasharray:none;stroke-opacity:1" transform="matrix(1.33333 0 0 -1.33333 0 598.875)"/><path d="m81.613 300.265 12.756-61.211 12.755 38.696 12.756 20.404 12.755 30.254 12.756-55.583 12.755 26.736 12.756 12.665 12.756 27.44 12.755-23.922 12.756 40.807 12.755 20.404 12.756-20.404 12.755-47.843 12.756 7.036 12.755 18.293 12.756 1.407 12.756 14.072 12.755-10.554 12.756 4.221 12.755 2.815 12.756 6.332 12.755 14.072 12.756-2.111 12.756-14.072 12.755 16.183 12.756-21.108 12.755 7.036 12.756-.704 12.755-12.664 12.756 3.518 12.755 4.925 12.756-19.7 12.756 29.55 12.755 2.814 12.756 5.629 12.755-1.407 12.756 4.221 12.755-10.553 12.756 11.257 12.755 9.146 12.756-21.107 12.756-2.11 12.755 1.406 12.756 7.74 12.755-4.925 12.756-21.108 12.755 42.215" clip-path="url(#D)" style="fill:none;stroke:#bcbd22;stroke-width:1.5;stroke-linecap:butt;stroke-linejoin:round;stroke-miterlimit:10;stroke-dasharray:5.55,2.4;stroke-dashoffset:0;stroke-opacity:1" transform="matrix(1.33333 0 0 -1.33333 0 598.875)"/><path d="M81.613 289.711h25.511l12.756 25.33 12.755 1.406h51.023l12.755 6.333h12.756l12.755 33.771h25.511l12.756 18.293h102.044l12.756 22.515h306.133" clip-path="url(#E)" style="fill:none;stroke:#17becf;stroke-width:1.5;stroke-linecap:square;stroke-linejoin:round;stroke-miterlimit:10;stroke-dasharray:none;stroke-opacity:1" transform="matrix(1.33333 0 0 -1.33333 0 598.875)"/><path d="m81.613 289.711 12.756-46.436 12.755 22.515 12.756 49.25 12.755 1.407 12.756-45.029 12.755-.703 12.756 28.143 12.756 2.11 12.755 21.812 12.756-27.44 12.755 61.211 12.756-1.407 12.755-52.065 12.756 71.765 12.755-32.364 12.756 21.81 12.756 2.112 12.755-40.808 12.756 15.479h12.755l12.756 11.257h12.755l12.756 45.029 12.756-9.85 12.755-28.847 12.756-2.11 12.755-14.072 12.756 7.036 12.755 29.55 12.756-9.147 12.755-23.921 12.756 10.553 12.756-4.221 12.755-4.925 12.756 21.81 12.755 4.222 12.756-23.921 12.755 5.628 12.756 2.815 12.755 4.925 12.756 7.739h12.756l12.755-.704 12.756-10.553 12.755 3.518 12.756 2.11 12.755-4.221" clip-path="url(#F)" style="fill:none;stroke:#17becf;stroke-width:1.5;stroke-linecap:butt;stroke-linejoin:round;stroke-miterlimit:10;stroke-dasharray:5.55,2.4;stroke-dashoffset:0;stroke-opacity:1" transform="matrix(1.33333 0 0 -1.33333 0 598.875)"/><path d="M52.048 426.484h617.704q2 0 2 2v13.672q0 2-2 2H52.048q-2 0-2-2v-13.672q0-2 2-2z" style="fill:#fff;fill-opacity:.8;fill-rule:nonzero;stroke:#ccc;stroke-width:1;stroke-linecap:butt;stroke-linejoin:miter;stroke-miterlimit:10;stroke-dasharray:none;stroke-opacity:.8" transform="matrix(1.33333 0 0 -1.33333 0 598.875)"/><path d="M54.048 436.062h20" style="fill:none;stroke:#1f77b4;stroke-width:1.5;stroke-linecap:square;stroke-linejoin:round;stroke-miterlimit:10;stroke-dasharray:none;stroke-opacity:1" transform="matrix(1.33333 0 0 -1.33333 0 598.875)"/><text xml:space="preserve" transform="translate(109.398 22.125)scale(1.33333)"><tspan x="0" y="0" style="font-variant:normal;font-weight:400;font-size:10px;font-family:&quot;DejaVu Sans&quot;;writing-mode:lr-tb;fill:#000;fill-opacity:1;fill-rule:nonzero;stroke:none">#1</tspan></text><path d="M116.783 436.062h20" style="fill:none;stroke:#ff7f0e;stroke-width:1.5;stroke-linecap:square;stroke-linejoin:round;stroke-miterlimit:10;stroke-dasharray:none;stroke-opacity:1" transform="matrix(1.33333 0 0 -1.33333 0 598.875)"/><text xml:space="preserve" transform="translate(193.044 22.125)scale(1.33333)"><tspan x="0" y="0" style="font-variant:normal;font-weight:400;font-size:10px;font-family:&quot;DejaVu Sans&quot;;writing-mode:lr-tb;fill:#000;fill-opacity:1;fill-rule:nonzero;stroke:none">#2</tspan></text><path d="M179.517 436.062h20" style="fill:none;stroke:#2ca02c;stroke-width:1.5;stroke-linecap:square;stroke-linejoin:round;stroke-miterlimit:10;stroke-dasharray:none;stroke-opacity:1" transform="matrix(1.33333 0 0 -1.33333 0 598.875)"/><text xml:space="preserve" transform="translate(276.69 22.125)scale(1.33333)"><tspan x="0" y="0" style="font-variant:normal;font-weight:400;font-size:10px;font-family:&quot;DejaVu Sans&quot;;writing-mode:lr-tb;fill:#000;fill-opacity:1;fill-rule:nonzero;stroke:none">#3</tspan></text><path d="M242.252 436.062h20" style="fill:none;stroke:#d62728;stroke-width:1.5;stroke-linecap:square;stroke-linejoin:round;stroke-miterlimit:10;stroke-dasharray:none;stroke-opacity:1" transform="matrix(1.33333 0 0 -1.33333 0 598.875)"/><text xml:space="preserve" transform="translate(360.335 22.125)scale(1.33333)"><tspan x="0" y="0" style="font-variant:normal;font-weight:400;font-size:10px;font-family:&quot;DejaVu Sans&quot;;writing-mode:lr-tb;fill:#000;fill-opacity:1;fill-rule:nonzero;stroke:none">#4</tspan></text><path d="M304.986 436.062h20" style="fill:none;stroke:#9467bd;stroke-width:1.5;stroke-linecap:square;stroke-linejoin:round;stroke-miterlimit:10;stroke-dasharray:none;stroke-opacity:1" transform="matrix(1.33333 0 0 -1.33333 0 598.875)"/><text xml:space="preserve" transform="translate(443.981 22.125)scale(1.33333)"><tspan x="0" y="0" style="font-variant:normal;font-weight:400;font-size:10px;font-family:&quot;DejaVu Sans&quot;;writing-mode:lr-tb;fill:#000;fill-opacity:1;fill-rule:nonzero;stroke:none">#5</tspan></text><path d="M367.72 436.062h20" style="fill:none;stroke:#8c564b;stroke-width:1.5;stroke-linecap:square;stroke-linejoin:round;stroke-miterlimit:10;stroke-dasharray:none;stroke-opacity:1" transform="matrix(1.33333 0 0 -1.33333 0 598.875)"/><text xml:space="preserve" transform="translate(527.627 22.125)scale(1.33333)"><tspan x="0" y="0" style="font-variant:normal;font-weight:400;font-size:10px;font-family:&quot;DejaVu Sans&quot;;writing-mode:lr-tb;fill:#000;fill-opacity:1;fill-rule:nonzero;stroke:none">#6</tspan></text><path d="M430.455 436.062h20" style="fill:none;stroke:#e377c2;stroke-width:1.5;stroke-linecap:square;stroke-linejoin:round;stroke-miterlimit:10;stroke-dasharray:none;stroke-opacity:1" transform="matrix(1.33333 0 0 -1.33333 0 598.875)"/><text xml:space="preserve" transform="translate(611.273 22.125)scale(1.33333)"><tspan x="0" y="0" style="font-variant:normal;font-weight:400;font-size:10px;font-family:&quot;DejaVu Sans&quot;;writing-mode:lr-tb;fill:#000;fill-opacity:1;fill-rule:nonzero;stroke:none">#7</tspan></text><path d="M493.19 436.062h20" style="fill:none;stroke:#7f7f7f;stroke-width:1.5;stroke-linecap:square;stroke-linejoin:round;stroke-miterlimit:10;stroke-dasharray:none;stroke-opacity:1" transform="matrix(1.33333 0 0 -1.33333 0 598.875)"/><text xml:space="preserve" transform="translate(694.919 22.125)scale(1.33333)"><tspan x="0" y="0" style="font-variant:normal;font-weight:400;font-size:10px;font-family:&quot;DejaVu Sans&quot;;writing-mode:lr-tb;fill:#000;fill-opacity:1;fill-rule:nonzero;stroke:none">#8</tspan></text><path d="M555.923 436.062h20" style="fill:none;stroke:#bcbd22;stroke-width:1.5;stroke-linecap:square;stroke-linejoin:round;stroke-miterlimit:10;stroke-dasharray:none;stroke-opacity:1" transform="matrix(1.33333 0 0 -1.33333 0 598.875)"/><text xml:space="preserve" transform="translate(778.565 22.125)scale(1.33333)"><tspan x="0" y="0" style="font-variant:normal;font-weight:400;font-size:10px;font-family:&quot;DejaVu Sans&quot;;writing-mode:lr-tb;fill:#000;fill-opacity:1;fill-rule:nonzero;stroke:none">#9</tspan></text><path d="M618.658 436.062h20" style="fill:none;stroke:#17becf;stroke-width:1.5;stroke-linecap:square;stroke-linejoin:round;stroke-miterlimit:10;stroke-dasharray:none;stroke-opacity:1" transform="matrix(1.33333 0 0 -1.33333 0 598.875)"/><text xml:space="preserve" transform="translate(862.21 22.125)scale(1.33333)"><tspan x="0" y="0" style="font-variant:normal;font-weight:400;font-size:10px;font-family:&quot;DejaVu Sans&quot;;writing-mode:lr-tb;fill:#000;fill-opacity:1;fill-rule:nonzero;stroke:none">#10</tspan></text></svg>