<?xml version="1.0" encoding="UTF-8" standalone="no"?>
<!-- Created with Inkscape (http://www.inkscape.org/) -->

<svg
   version="1.1"
   id="svg1"
   width="962.40002"
   height="598.875"
   viewBox="0 0 962.40002 598.875"
   xmlns="http://www.w3.org/2000/svg"
   xmlns:svg="http://www.w3.org/2000/svg">
  <defs
     id="defs1">
    <clipPath
       clipPathUnits="userSpaceOnUse"
       id="clipPath2">
      <path
         d="M 51.6375,42.54375 H 711.1 V 434.15624 H 51.6375 Z"
         id="path2" />
    </clipPath>
    <clipPath
       clipPathUnits="userSpaceOnUse"
       id="clipPath5">
      <path
         d="M 51.6375,42.54375 H 711.1 V 434.15624 H 51.6375 Z"
         id="path5" />
    </clipPath>
    <clipPath
       clipPathUnits="userSpaceOnUse"
       id="clipPath8">
      <path
         d="M 51.6375,42.54375 H 711.1 V 434.15624 H 51.6375 Z"
         id="path8" />
    </clipPath>
    <clipPath
       clipPathUnits="userSpaceOnUse"
       id="clipPath11">
      <path
         d="M 51.6375,42.54375 H 711.1 V 434.15624 H 51.6375 Z"
         id="path11" />
    </clipPath>
    <clipPath
       clipPathUnits="userSpaceOnUse"
       id="clipPath14">
      <path
         d="M 51.6375,42.54375 H 711.1 V 434.15624 H 51.6375 Z"
         id="path14" />
    </clipPath>
    <clipPath
       clipPathUnits="userSpaceOnUse"
       id="clipPath17">
      <path
         d="M 51.6375,42.54375 H 711.1 V 434.15624 H 51.6375 Z"
         id="path17" />
    </clipPath>
    <clipPath
       clipPathUnits="userSpaceOnUse"
       id="clipPath20">
      <path
         d="M 51.6375,42.54375 H 711.1 V 434.15624 H 51.6375 Z"
         id="path20" />
    </clipPath>
    <clipPath
       clipPathUnits="userSpaceOnUse"
       id="clipPath22">
      <path
         d="M 51.6375,42.54375 H 711.1 V 434.15624 H 51.6375 Z"
         id="path22" />
    </clipPath>
    <clipPath
       clipPathUnits="userSpaceOnUse"
       id="clipPath24">
      <path
         d="M 51.6375,42.54375 H 711.1 V 434.15624 H 51.6375 Z"
         id="path24" />
    </clipPath>
    <clipPath
       clipPathUnits="userSpaceOnUse"
       id="clipPath26">
      <path
         d="M 51.6375,42.54375 H 711.1 V 434.15624 H 51.6375 Z"
         id="path26" />
    </clipPath>
    <clipPath
       clipPathUnits="userSpaceOnUse"
       id="clipPath28">
      <path
         d="M 51.6375,42.54375 H 711.1 V 434.15624 H 51.6375 Z"
         id="path28" />
    </clipPath>
    <clipPath
       clipPathUnits="userSpaceOnUse"
       id="clipPath30">
      <path
         d="M 51.6375,42.54375 H 711.1 V 434.15624 H 51.6375 Z"
         id="path30" />
    </clipPath>
    <clipPath
       clipPathUnits="userSpaceOnUse"
       id="clipPath32">
      <path
         d="M 51.6375,42.54375 H 711.1 V 434.15624 H 51.6375 Z"
         id="path32" />
    </clipPath>
    <clipPath
       clipPathUnits="userSpaceOnUse"
       id="clipPath34">
      <path
         d="M 51.6375,42.54375 H 711.1 V 434.15624 H 51.6375 Z"
         id="path34" />
    </clipPath>
    <clipPath
       clipPathUnits="userSpaceOnUse"
       id="clipPath36">
      <path
         d="M 51.6375,42.54375 H 711.1 V 434.15624 H 51.6375 Z"
         id="path36" />
    </clipPath>
    <clipPath
       clipPathUnits="userSpaceOnUse"
       id="clipPath38">
      <path
         d="M 51.6375,42.54375 H 711.1 V 434.15624 H 51.6375 Z"
         id="path38" />
    </clipPath>
    <clipPath
       clipPathUnits="userSpaceOnUse"
       id="clipPath40">
      <path
         d="M 51.6375,42.54375 H 711.1 V 434.15624 H 51.6375 Z"
         id="path40" />
    </clipPath>
    <clipPath
       clipPathUnits="userSpaceOnUse"
       id="clipPath42">
      <path
         d="M 51.6375,42.54375 H 711.1 V 434.15624 H 51.6375 Z"
         id="path42" />
    </clipPath>
    <clipPath
       clipPathUnits="userSpaceOnUse"
       id="clipPath44">
      <path
         d="M 51.6375,42.54375 H 711.1 V 434.15624 H 51.6375 Z"
         id="path44" />
    </clipPath>
    <clipPath
       clipPathUnits="userSpaceOnUse"
       id="clipPath46">
      <path
         d="M 51.6375,42.54375 H 711.1 V 434.15624 H 51.6375 Z"
         id="path46" />
    </clipPath>
    <clipPath
       clipPathUnits="userSpaceOnUse"
       id="clipPath48">
      <path
         d="M 51.6375,42.54375 H 711.1 V 434.15624 H 51.6375 Z"
         id="path48" />
    </clipPath>
    <clipPath
       clipPathUnits="userSpaceOnUse"
       id="clipPath50">
      <path
         d="M 51.6375,42.54375 H 711.1 V 434.15624 H 51.6375 Z"
         id="path50" />
    </clipPath>
    <clipPath
       clipPathUnits="userSpaceOnUse"
       id="clipPath52">
      <path
         d="M 51.6375,42.54375 H 711.1 V 434.15624 H 51.6375 Z"
         id="path52" />
    </clipPath>
    <clipPath
       clipPathUnits="userSpaceOnUse"
       id="clipPath54">
      <path
         d="M 51.6375,42.54375 H 711.1 V 434.15624 H 51.6375 Z"
         id="path54" />
    </clipPath>
    <clipPath
       clipPathUnits="userSpaceOnUse"
       id="clipPath56">
      <path
         d="M 51.6375,42.54375 H 711.1 V 434.15624 H 51.6375 Z"
         id="path56" />
    </clipPath>
    <clipPath
       clipPathUnits="userSpaceOnUse"
       id="clipPath58">
      <path
         d="M 51.6375,42.54375 H 711.1 V 434.15624 H 51.6375 Z"
         id="path58" />
    </clipPath>
    <clipPath
       clipPathUnits="userSpaceOnUse"
       id="clipPath60">
      <path
         d="M 51.6375,42.54375 H 711.1 V 434.15624 H 51.6375 Z"
         id="path60" />
    </clipPath>
    <clipPath
       clipPathUnits="userSpaceOnUse"
       id="clipPath62">
      <path
         d="M 51.6375,42.54375 H 711.1 V 434.15624 H 51.6375 Z"
         id="path62" />
    </clipPath>
    <clipPath
       clipPathUnits="userSpaceOnUse"
       id="clipPath64">
      <path
         d="M 51.6375,42.54375 H 711.1 V 434.15624 H 51.6375 Z"
         id="path64" />
    </clipPath>
    <clipPath
       clipPathUnits="userSpaceOnUse"
       id="clipPath66">
      <path
         d="M 51.6375,42.54375 H 711.1 V 434.15624 H 51.6375 Z"
         id="path66" />
    </clipPath>
    <clipPath
       clipPathUnits="userSpaceOnUse"
       id="clipPath68">
      <path
         d="M 51.6375,42.54375 H 711.1 V 434.15624 H 51.6375 Z"
         id="path68" />
    </clipPath>
    <clipPath
       clipPathUnits="userSpaceOnUse"
       id="clipPath70">
      <path
         d="M 51.6375,42.54375 H 711.1 V 434.15624 H 51.6375 Z"
         id="path70" />
    </clipPath>
  </defs>
  <g
     id="g1">
    <path
       id="path1"
       d="M 68.857507,42.54375 V 434.15624"
       style="fill:none;stroke:#e6e6e6;stroke-width:1;stroke-linecap:square;stroke-linejoin:round;stroke-miterlimit:10;stroke-dasharray:none;stroke-opacity:1"
       transform="matrix(1.3333333,0,0,-1.3333333,0,598.87499)"
       clip-path="url(#clipPath2)" />
    <path
       id="path3"
       d="m 68.857507,37.54375 v -3.5"
       style="fill:#000000;fill-opacity:1;fill-rule:nonzero;stroke:#000000;stroke-width:0.8;stroke-linecap:butt;stroke-linejoin:round;stroke-miterlimit:10;stroke-dasharray:none;stroke-opacity:1"
       transform="matrix(1.3333333,0,0,-1.3333333,0,598.87499)" />
    <text
       id="text3"
       xml:space="preserve"
       transform="matrix(1.3333333,0,0,1.3333333,87.570426,568.27499)"><tspan
         id="tspan3"
         style="font-variant:normal;font-weight:normal;font-size:10px;font-family:'DejaVu Sans';writing-mode:lr-tb;fill:#000000;fill-opacity:1;fill-rule:nonzero;stroke:none"
         x="0"
         y="0">0</tspan></text>
    <path
       id="path4"
       d="M 196.41312,42.54375 V 434.15624"
       style="fill:none;stroke:#e6e6e6;stroke-width:1;stroke-linecap:square;stroke-linejoin:round;stroke-miterlimit:10;stroke-dasharray:none;stroke-opacity:1"
       transform="matrix(1.3333333,0,0,-1.3333333,0,598.87499)"
       clip-path="url(#clipPath5)" />
    <path
       id="path6"
       d="m 196.41312,37.54375 v -3.5"
       style="fill:#000000;fill-opacity:1;fill-rule:nonzero;stroke:#000000;stroke-width:0.8;stroke-linecap:butt;stroke-linejoin:round;stroke-miterlimit:10;stroke-dasharray:none;stroke-opacity:1"
       transform="matrix(1.3333333,0,0,-1.3333333,0,598.87499)" />
    <text
       id="text6"
       xml:space="preserve"
       transform="matrix(1.3333333,0,0,1.3333333,253.40499,568.27499)"><tspan
         id="tspan6"
         style="font-variant:normal;font-weight:normal;font-size:10px;font-family:'DejaVu Sans';writing-mode:lr-tb;fill:#000000;fill-opacity:1;fill-rule:nonzero;stroke:none"
         x="0"
         y="0">10</tspan></text>
    <path
       id="path7"
       d="M 323.96873,42.54375 V 434.15624"
       style="fill:none;stroke:#e6e6e6;stroke-width:1;stroke-linecap:square;stroke-linejoin:round;stroke-miterlimit:10;stroke-dasharray:none;stroke-opacity:1"
       transform="matrix(1.3333333,0,0,-1.3333333,0,598.87499)"
       clip-path="url(#clipPath8)" />
    <path
       id="path9"
       d="m 323.96873,37.54375 v -3.5"
       style="fill:#000000;fill-opacity:1;fill-rule:nonzero;stroke:#000000;stroke-width:0.8;stroke-linecap:butt;stroke-linejoin:round;stroke-miterlimit:10;stroke-dasharray:none;stroke-opacity:1"
       transform="matrix(1.3333333,0,0,-1.3333333,0,598.87499)" />
    <text
       id="text9"
       xml:space="preserve"
       transform="matrix(1.3333333,0,0,1.3333333,423.47913,568.27499)"><tspan
         id="tspan9"
         style="font-variant:normal;font-weight:normal;font-size:10px;font-family:'DejaVu Sans';writing-mode:lr-tb;fill:#000000;fill-opacity:1;fill-rule:nonzero;stroke:none"
         x="0"
         y="0">20</tspan></text>
    <path
       id="path10"
       d="M 451.52433,42.54375 V 434.15624"
       style="fill:none;stroke:#e6e6e6;stroke-width:1;stroke-linecap:square;stroke-linejoin:round;stroke-miterlimit:10;stroke-dasharray:none;stroke-opacity:1"
       transform="matrix(1.3333333,0,0,-1.3333333,0,598.87499)"
       clip-path="url(#clipPath11)" />
    <path
       id="path12"
       d="m 451.52433,37.54375 v -3.5"
       style="fill:#000000;fill-opacity:1;fill-rule:nonzero;stroke:#000000;stroke-width:0.8;stroke-linecap:butt;stroke-linejoin:round;stroke-miterlimit:10;stroke-dasharray:none;stroke-opacity:1"
       transform="matrix(1.3333333,0,0,-1.3333333,0,598.87499)" />
    <text
       id="text12"
       xml:space="preserve"
       transform="matrix(1.3333333,0,0,1.3333333,593.55328,568.27499)"><tspan
         id="tspan12"
         style="font-variant:normal;font-weight:normal;font-size:10px;font-family:'DejaVu Sans';writing-mode:lr-tb;fill:#000000;fill-opacity:1;fill-rule:nonzero;stroke:none"
         x="0"
         y="0">30</tspan></text>
    <path
       id="path13"
       d="M 579.07994,42.54375 V 434.15624"
       style="fill:none;stroke:#e6e6e6;stroke-width:1;stroke-linecap:square;stroke-linejoin:round;stroke-miterlimit:10;stroke-dasharray:none;stroke-opacity:1"
       transform="matrix(1.3333333,0,0,-1.3333333,0,598.87499)"
       clip-path="url(#clipPath14)" />
    <path
       id="path15"
       d="m 579.07994,37.54375 v -3.5"
       style="fill:#000000;fill-opacity:1;fill-rule:nonzero;stroke:#000000;stroke-width:0.8;stroke-linecap:butt;stroke-linejoin:round;stroke-miterlimit:10;stroke-dasharray:none;stroke-opacity:1"
       transform="matrix(1.3333333,0,0,-1.3333333,0,598.87499)" />
    <text
       id="text15"
       xml:space="preserve"
       transform="matrix(1.3333333,0,0,1.3333333,763.62743,568.27499)"><tspan
         id="tspan15"
         style="font-variant:normal;font-weight:normal;font-size:10px;font-family:'DejaVu Sans';writing-mode:lr-tb;fill:#000000;fill-opacity:1;fill-rule:nonzero;stroke:none"
         x="0"
         y="0">40</tspan></text>
    <path
       id="path16"
       d="M 706.63555,42.54375 V 434.15624"
       style="fill:none;stroke:#e6e6e6;stroke-width:1;stroke-linecap:square;stroke-linejoin:round;stroke-miterlimit:10;stroke-dasharray:none;stroke-opacity:1"
       transform="matrix(1.3333333,0,0,-1.3333333,0,598.87499)"
       clip-path="url(#clipPath17)" />
    <path
       id="path18"
       d="m 706.63555,37.54375 v -3.5"
       style="fill:#000000;fill-opacity:1;fill-rule:nonzero;stroke:#000000;stroke-width:0.8;stroke-linecap:butt;stroke-linejoin:round;stroke-miterlimit:10;stroke-dasharray:none;stroke-opacity:1"
       transform="matrix(1.3333333,0,0,-1.3333333,0,598.87499)" />
    <text
       id="text18"
       xml:space="preserve"
       transform="matrix(1.3333333,0,0,1.3333333,933.70157,568.27499)"><tspan
         id="tspan18"
         style="font-variant:normal;font-weight:normal;font-size:10px;font-family:'DejaVu Sans';writing-mode:lr-tb;fill:#000000;fill-opacity:1;fill-rule:nonzero;stroke:none"
         x="0"
         y="0">50</tspan></text>
    <text
       id="text19"
       xml:space="preserve"
       transform="matrix(1.3333333,0,0,1.3333333,471.28333,586.50416)"><tspan
         id="tspan19"
         style="font-variant:normal;font-weight:normal;font-size:10px;font-family:'DejaVu Sans';writing-mode:lr-tb;fill:#000000;fill-opacity:1;fill-rule:nonzero;stroke:none"
         x="0"
         y="0">Generation</tspan></text>
    <path
       id="path19"
       d="M 51.6375,63.510427 H 711.1"
       style="fill:none;stroke:#e6e6e6;stroke-width:1;stroke-linecap:square;stroke-linejoin:round;stroke-miterlimit:10;stroke-dasharray:none;stroke-opacity:1"
       transform="matrix(1.3333333,0,0,-1.3333333,0,598.87499)"
       clip-path="url(#clipPath20)" />
    <text
       id="text20"
       xml:space="preserve"
       transform="matrix(1.3333333,0,0,1.3333333,27.829167,519.25692)"><tspan
         id="tspan20"
         style="font-variant:normal;font-weight:normal;font-size:10px;font-family:'DejaVu Sans';writing-mode:lr-tb;fill:#000000;fill-opacity:1;fill-rule:nonzero;stroke:none"
         x="0"
         y="0">0.80</tspan></text>
    <path
       id="path21"
       d="M 51.6375,136.68272 H 711.1"
       style="fill:none;stroke:#e6e6e6;stroke-width:1;stroke-linecap:square;stroke-linejoin:round;stroke-miterlimit:10;stroke-dasharray:none;stroke-opacity:1"
       transform="matrix(1.3333333,0,0,-1.3333333,0,598.87499)"
       clip-path="url(#clipPath22)" />
    <text
       id="text22"
       xml:space="preserve"
       transform="matrix(1.3333333,0,0,1.3333333,27.829167,421.69386)"><tspan
         id="tspan22"
         style="font-variant:normal;font-weight:normal;font-size:10px;font-family:'DejaVu Sans';writing-mode:lr-tb;fill:#000000;fill-opacity:1;fill-rule:nonzero;stroke:none"
         x="0"
         y="0">0.81</tspan></text>
    <path
       id="path23"
       d="M 51.6375,209.85502 H 711.1"
       style="fill:none;stroke:#e6e6e6;stroke-width:1;stroke-linecap:square;stroke-linejoin:round;stroke-miterlimit:10;stroke-dasharray:none;stroke-opacity:1"
       transform="matrix(1.3333333,0,0,-1.3333333,0,598.87499)"
       clip-path="url(#clipPath24)" />
    <text
       id="text24"
       xml:space="preserve"
       transform="matrix(1.3333333,0,0,1.3333333,27.829167,324.1308)"><tspan
         id="tspan24"
         style="font-variant:normal;font-weight:normal;font-size:10px;font-family:'DejaVu Sans';writing-mode:lr-tb;fill:#000000;fill-opacity:1;fill-rule:nonzero;stroke:none"
         x="0"
         y="0">0.82</tspan></text>
    <path
       id="path25"
       d="M 51.6375,283.02731 H 711.1"
       style="fill:none;stroke:#e6e6e6;stroke-width:1;stroke-linecap:square;stroke-linejoin:round;stroke-miterlimit:10;stroke-dasharray:none;stroke-opacity:1"
       transform="matrix(1.3333333,0,0,-1.3333333,0,598.87499)"
       clip-path="url(#clipPath26)" />
    <text
       id="text26"
       xml:space="preserve"
       transform="matrix(1.3333333,0,0,1.3333333,27.829167,226.56774)"><tspan
         id="tspan26"
         style="font-variant:normal;font-weight:normal;font-size:10px;font-family:'DejaVu Sans';writing-mode:lr-tb;fill:#000000;fill-opacity:1;fill-rule:nonzero;stroke:none"
         x="0"
         y="0">0.83</tspan></text>
    <path
       id="path27"
       d="M 51.6375,356.19961 H 711.1"
       style="fill:none;stroke:#e6e6e6;stroke-width:1;stroke-linecap:square;stroke-linejoin:round;stroke-miterlimit:10;stroke-dasharray:none;stroke-opacity:1"
       transform="matrix(1.3333333,0,0,-1.3333333,0,598.87499)"
       clip-path="url(#clipPath28)" />
    <text
       id="text28"
       xml:space="preserve"
       transform="matrix(1.3333333,0,0,1.3333333,27.829167,129.00468)"><tspan
         id="tspan28"
         style="font-variant:normal;font-weight:normal;font-size:10px;font-family:'DejaVu Sans';writing-mode:lr-tb;fill:#000000;fill-opacity:1;fill-rule:nonzero;stroke:none"
         x="0"
         y="0">0.84</tspan></text>
    <path
       id="path29"
       d="M 51.6375,429.3719 H 711.1"
       style="fill:none;stroke:#e6e6e6;stroke-width:1;stroke-linecap:square;stroke-linejoin:round;stroke-miterlimit:10;stroke-dasharray:none;stroke-opacity:1"
       transform="matrix(1.3333333,0,0,-1.3333333,0,598.87499)"
       clip-path="url(#clipPath30)" />
    <text
       id="text30"
       xml:space="preserve"
       transform="matrix(1.3333333,0,0,1.3333333,27.829167,31.441623)"><tspan
         id="tspan30"
         style="font-variant:normal;font-weight:normal;font-size:10px;font-family:'DejaVu Sans';writing-mode:lr-tb;fill:#000000;fill-opacity:1;fill-rule:nonzero;stroke:none"
         x="0"
         y="0">0.85</tspan></text>
    <text
       id="text31"
       xml:space="preserve"
       transform="matrix(0,-1.3333333,1.3333333,0,19.725,311.84583)"><tspan
         id="tspan31"
         style="font-variant:normal;font-weight:normal;font-size:10px;font-family:'DejaVu Sans';writing-mode:lr-tb;fill:#000000;fill-opacity:1;fill-rule:nonzero;stroke:none"
         x="0"
         y="0">ROC AUC</tspan></text>
    <path
       id="path31"
       d="m 81.613068,179.95288 h 12.755561 l 12.755561,99.20474 h 12.75556 12.75556 l 12.75556,56.98996 h 12.75556 l 12.75556,11.96086 h 12.75557 12.75556 12.75556 l 12.75556,14.77517 h 12.75556 12.75556 12.75556 12.75556 12.75556 l 12.75556,16.88592 h 12.75556 12.75557 12.75556 12.75556 12.75556 12.75556 12.75556 12.75556 12.75556 12.75556 12.75556 12.75556 l 12.75557,3.5179 h 12.75556 12.75556 12.75556 12.75556 12.75556 12.75556 l 12.75556,2.81431 h 12.75556 12.75556 12.75556 12.75557 12.75556 12.75556 12.75556 12.75556 12.75556 12.75556"
       style="fill:none;stroke:#1f77b4;stroke-width:1.5;stroke-linecap:square;stroke-linejoin:round;stroke-miterlimit:10;stroke-dasharray:none;stroke-opacity:1"
       transform="matrix(1.3333333,0,0,-1.3333333,0,598.87499)"
       clip-path="url(#clipPath32)" />
    <path
       id="path33"
       d="m 81.613068,179.95288 12.755561,-66.84008 12.755561,166.04482 12.75556,-47.13984 12.75556,34.47541 12.75556,69.65439 12.75556,-40.10404 12.75556,52.0649 12.75557,-44.32553 12.75556,42.21479 12.75556,-26.03245 12.75556,42.91836 12.75556,-75.98661 12.75556,33.06825 12.75556,23.21813 12.75556,-27.43961 12.75556,15.47875 12.75556,48.54701 12.75556,-54.87922 12.75557,16.18233 12.75556,2.81432 12.75556,28.14319 12.75556,-44.32552 12.75556,29.55034 12.75556,-36.58614 12.75556,35.17899 12.75556,-31.66109 12.75556,44.32552 12.75556,-20.40381 12.75556,-7.0358 12.75557,42.21479 12.75556,-37.28973 12.75556,-5.62864 12.75556,7.73938 h 12.75556 l 12.75556,12.66443 12.75556,2.81432 12.75556,22.51455 12.75556,-16.88591 12.75556,-16.18233 12.75556,4.92505 12.75557,4.22148 12.75556,-28.14319 12.75556,-14.77517 12.75556,2.81432 12.75556,16.88591 12.75556,-4.22148 12.75556,16.88592"
       style="fill:none;stroke:#1f77b4;stroke-width:1.5;stroke-linecap:butt;stroke-linejoin:round;stroke-miterlimit:10;stroke-dasharray:5.55, 2.4;stroke-dashoffset:0;stroke-opacity:1"
       transform="matrix(1.3333333,0,0,-1.3333333,0,598.87499)"
       clip-path="url(#clipPath34)" />
    <path
       id="path35"
       d="m 81.613068,252.42159 12.755561,9.85012 12.755561,57.69354 h 12.75556 l 12.75556,11.25727 12.75556,0.70358 h 12.75556 12.75556 l 12.75557,2.11074 h 12.75556 l 12.75556,14.77518 h 12.75556 12.75556 12.75556 12.75556 12.75556 12.75556 12.75556 12.75556 12.75557 l 12.75556,1.40716 12.75556,26.03245 h 12.75556 12.75556 12.75556 12.75556 12.75556 12.75556 12.75556 l 12.75556,27.43961 h 12.75557 12.75556 12.75556 12.75556 12.75556 12.75556 12.75556 12.75556 12.75556 12.75556 12.75556 12.75557 12.75556 12.75556 12.75556 12.75556 12.75556 12.75556"
       style="fill:none;stroke:#ff7f0e;stroke-width:1.5;stroke-linecap:square;stroke-linejoin:round;stroke-miterlimit:10;stroke-dasharray:none;stroke-opacity:1"
       transform="matrix(1.3333333,0,0,-1.3333333,0,598.87499)"
       clip-path="url(#clipPath36)" />
    <path
       id="path37"
       d="m 81.613068,252.42159 12.755561,9.85012 12.755561,57.69354 12.75556,-40.80763 12.75556,52.0649 12.75556,0.70358 12.75556,-13.36801 12.75556,4.22148 12.75557,11.25727 12.75556,-3.5179 12.75556,18.29308 12.75556,-0.70358 12.75556,-16.18234 12.75556,-1.40716 12.75556,-30.95751 12.75556,9.85012 12.75556,-4.22148 12.75556,26.03245 12.75556,9.85012 h 12.75557 l 12.75556,9.14654 12.75556,26.03245 12.75556,-16.88592 12.75556,0.70358 12.75556,-16.88591 12.75556,3.5179 12.75556,19.70023 12.75556,-23.92171 12.75556,-16.18233 12.75556,77.39377 12.75557,-55.5828 12.75556,-14.0716 12.75556,-7.0358 12.75556,7.0358 12.75556,-6.33221 12.75556,30.9575 h 12.75556 l 12.75556,-8.44295 12.75556,2.11074 12.75556,-2.81432 12.75556,6.33222 12.75557,-1.40716 12.75556,-6.33222 12.75556,2.11074 12.75556,-6.33222 12.75556,7.0358 h 12.75556 l 12.75556,13.36801"
       style="fill:none;stroke:#ff7f0e;stroke-width:1.5;stroke-linecap:butt;stroke-linejoin:round;stroke-miterlimit:10;stroke-dasharray:5.55, 2.4;stroke-dashoffset:0;stroke-opacity:1"
       transform="matrix(1.3333333,0,0,-1.3333333,0,598.87499)"
       clip-path="url(#clipPath38)" />
    <path
       id="path39"
       d="m 81.613068,222.87124 h 12.755561 l 12.755561,16.88592 12.75556,3.51789 12.75556,37.28973 12.75556,2.11074 12.75556,56.28638 h 12.75556 12.75557 12.75556 12.75556 l 12.75556,25.32887 h 12.75556 12.75556 12.75556 12.75556 12.75556 12.75556 12.75556 12.75557 12.75556 12.75556 12.75556 l 12.75556,15.47876 h 12.75556 12.75556 12.75556 12.75556 12.75556 12.75556 12.75557 12.75556 12.75556 12.75556 12.75556 12.75556 l 12.75556,17.58949 h 12.75556 12.75556 12.75556 12.75556 l 12.75557,18.99665 h 12.75556 12.75556 12.75556 12.75556 12.75556 12.75556"
       style="fill:none;stroke:#2ca02c;stroke-width:1.5;stroke-linecap:square;stroke-linejoin:round;stroke-miterlimit:10;stroke-dasharray:none;stroke-opacity:1"
       transform="matrix(1.3333333,0,0,-1.3333333,0,598.87499)"
       clip-path="url(#clipPath40)" />
    <path
       id="path41"
       d="m 81.613068,222.87124 12.755561,-21.10739 12.755561,37.99331 12.75556,3.51789 12.75556,37.28973 12.75556,2.11074 12.75556,56.28638 12.75556,-43.62194 12.75557,-10.5537 12.75556,9.14654 12.75556,-9.14654 12.75556,79.50451 12.75556,-36.58614 12.75556,-21.81098 12.75556,4.22148 12.75556,-14.77517 12.75556,32.36467 12.75556,-14.77518 12.75556,-27.43961 12.75557,45.73268 12.75556,4.92506 12.75556,-8.44295 12.75556,23.21813 12.75556,28.84677 12.75556,-6.33222 12.75556,-35.88257 12.75556,16.18234 12.75556,-21.81098 12.75556,18.99666 12.75556,-11.96086 12.75557,19.70023 12.75556,-49.25058 12.75556,66.84008 12.75556,-32.36467 12.75556,33.06825 12.75556,-20.40382 12.75556,40.80763 12.75556,-9.85012 12.75556,-33.06824 12.75556,2.11073 12.75556,-38.69688 12.75557,98.50116 12.75556,-67.54365 12.75556,27.43961 12.75556,19.70023 12.75556,-33.06825 12.75556,16.88592 12.75556,-21.81098"
       style="fill:none;stroke:#2ca02c;stroke-width:1.5;stroke-linecap:butt;stroke-linejoin:round;stroke-miterlimit:10;stroke-dasharray:5.55, 2.4;stroke-dashoffset:0;stroke-opacity:1"
       transform="matrix(1.3333333,0,0,-1.3333333,0,598.87499)"
       clip-path="url(#clipPath42)" />
    <path
       id="path43"
       d="m 81.613068,255.23591 h 12.755561 12.755561 l 12.75556,14.07159 12.75556,59.80428 h 12.75556 12.75556 12.75556 l 12.75557,33.06825 h 12.75556 12.75556 12.75556 12.75556 12.75556 12.75556 12.75556 12.75556 12.75556 12.75556 12.75557 12.75556 12.75556 12.75556 12.75556 l 12.75556,2.81432 h 12.75556 12.75556 12.75556 12.75556 12.75556 l 12.75557,1.40716 12.75556,20.40381 h 12.75556 12.75556 12.75556 12.75556 12.75556 12.75556 12.75556 12.75556 12.75556 12.75557 12.75556 l 12.75556,9.14654 h 12.75556 12.75556 12.75556 12.75556"
       style="fill:none;stroke:#d62728;stroke-width:1.5;stroke-linecap:square;stroke-linejoin:round;stroke-miterlimit:10;stroke-dasharray:none;stroke-opacity:1"
       transform="matrix(1.3333333,0,0,-1.3333333,0,598.87499)"
       clip-path="url(#clipPath44)" />
    <path
       id="path45"
       d="m 81.613068,255.23591 12.755561,-83.72599 12.755561,30.95751 12.75556,66.84007 12.75556,59.80428 12.75556,-4.22147 12.75556,-22.51456 12.75556,-16.88591 12.75557,76.69019 12.75556,-64.02575 12.75556,47.13984 12.75556,-21.81097 12.75556,28.14319 12.75556,-18.29308 12.75556,9.85012 12.75556,-24.62529 h 12.75556 l 12.75556,21.81097 12.75556,-20.40381 12.75557,-4.92506 12.75556,-1.40716 12.75556,41.51121 12.75556,-23.21814 12.75556,-0.70358 12.75556,33.77183 12.75556,-34.47541 12.75556,25.32888 12.75556,-2.81432 12.75556,-3.5179 12.75556,9.85011 12.75557,7.0358 12.75556,20.40381 12.75556,-40.80762 12.75556,-0.70358 12.75556,12.66443 12.75556,-18.29307 12.75556,25.32887 12.75556,-4.92506 12.75556,7.73938 12.75556,4.22148 12.75556,-13.36802 12.75557,2.11074 12.75556,9.14654 12.75556,26.03245 12.75556,-28.14319 12.75556,13.36802 12.75556,-35.88257 12.75556,42.21478"
       style="fill:none;stroke:#d62728;stroke-width:1.5;stroke-linecap:butt;stroke-linejoin:round;stroke-miterlimit:10;stroke-dasharray:5.55, 2.4;stroke-dashoffset:0;stroke-opacity:1"
       transform="matrix(1.3333333,0,0,-1.3333333,0,598.87499)"
       clip-path="url(#clipPath46)" />
    <path
       id="path47"
       d="m 81.613068,253.12517 h 12.755561 l 12.755561,53.47206 h 12.75556 l 12.75556,19.70024 h 12.75556 l 12.75556,7.73937 h 12.75556 12.75557 12.75556 12.75556 12.75556 12.75556 12.75556 12.75556 l 12.75556,12.66444 h 12.75556 12.75556 12.75556 l 12.75557,7.73938 h 12.75556 12.75556 12.75556 12.75556 12.75556 12.75556 12.75556 12.75556 12.75556 12.75556 12.75557 12.75556 12.75556 12.75556 12.75556 l 12.75556,7.03579 12.75556,26.73603 h 12.75556 12.75556 12.75556 12.75556 12.75557 12.75556 12.75556 12.75556 12.75556 12.75556 12.75556"
       style="fill:none;stroke:#9467bd;stroke-width:1.5;stroke-linecap:square;stroke-linejoin:round;stroke-miterlimit:10;stroke-dasharray:none;stroke-opacity:1"
       transform="matrix(1.3333333,0,0,-1.3333333,0,598.87499)"
       clip-path="url(#clipPath48)" />
    <path
       id="path49"
       d="m 81.613068,253.12517 12.755561,-131.56941 12.755561,185.04147 12.75556,-64.72934 12.75556,84.42958 12.75556,-7.0358 12.75556,14.77517 12.75556,-45.73268 12.75557,-6.33222 12.75556,24.62529 12.75556,22.51455 12.75556,-28.14319 12.75556,-0.70358 12.75556,-11.96085 12.75556,39.40047 12.75556,18.99665 12.75556,-21.10739 12.75556,4.92505 12.75556,-3.5179 12.75557,27.43962 12.75556,-32.36467 12.75556,2.11074 12.75556,-12.66444 12.75556,35.88257 12.75556,-9.14654 12.75556,-35.17899 12.75556,18.29308 12.75556,6.33222 12.75556,-14.0716 12.75556,28.14319 12.75557,2.11074 12.75556,10.5537 12.75556,-16.88592 12.75556,1.40716 12.75556,-9.85012 12.75556,32.36467 12.75556,26.73603 12.75556,-11.96085 12.75556,-7.0358 12.75556,-11.96086 12.75556,-24.62529 12.75557,25.32887 12.75556,19.70024 12.75556,-14.77518 12.75556,22.51455 12.75556,-1.40715 12.75556,-14.0716 12.75556,-23.92171"
       style="fill:none;stroke:#9467bd;stroke-width:1.5;stroke-linecap:butt;stroke-linejoin:round;stroke-miterlimit:10;stroke-dasharray:5.55, 2.4;stroke-dashoffset:0;stroke-opacity:1"
       transform="matrix(1.3333333,0,0,-1.3333333,0,598.87499)"
       clip-path="url(#clipPath50)" />
    <path
       id="path51"
       d="m 81.613068,60.344318 12.755561,39.400466 12.755561,38.696886 12.75556,107.6477 12.75556,7.0358 12.75556,10.5537 12.75556,51.36132 h 12.75556 l 12.75557,3.5179 12.75556,47.13984 h 12.75556 12.75556 12.75556 12.75556 l 12.75556,7.0358 h 12.75556 12.75556 12.75556 12.75556 12.75557 12.75556 12.75556 12.75556 12.75556 12.75556 12.75556 12.75556 12.75556 12.75556 l 12.75556,1.40716 h 12.75557 12.75556 12.75556 12.75556 l 12.75556,3.5179 h 12.75556 12.75556 12.75556 12.75556 12.75556 12.75556 12.75557 12.75556 12.75556 12.75556 12.75556 12.75556 12.75556"
       style="fill:none;stroke:#8c564b;stroke-width:1.5;stroke-linecap:square;stroke-linejoin:round;stroke-miterlimit:10;stroke-dasharray:none;stroke-opacity:1"
       transform="matrix(1.3333333,0,0,-1.3333333,0,598.87499)"
       clip-path="url(#clipPath52)" />
    <path
       id="path53"
       d="m 81.613068,60.344318 12.755561,39.400466 12.755561,38.696886 12.75556,107.6477 12.75556,7.0358 12.75556,10.5537 12.75556,51.36132 12.75556,-37.28973 12.75557,40.80763 12.75556,47.13984 12.75556,-49.95416 12.75556,43.62194 12.75556,4.92506 12.75556,-26.73603 12.75556,35.17899 12.75556,-74.57945 12.75556,39.40046 12.75556,10.5537 12.75556,-30.25393 12.75557,23.21813 12.75556,-34.47541 12.75556,18.29308 12.75556,-9.85012 12.75556,27.43961 12.75556,-16.88591 12.75556,9.14653 12.75556,24.62529 12.75556,-40.80762 12.75556,4.92506 12.75556,50.65774 12.75557,-5.62864 12.75556,-15.47875 12.75556,-14.77518 12.75556,23.21813 12.75556,16.18234 12.75556,-51.36132 12.75556,21.10739 12.75556,10.55369 12.75556,8.44296 12.75556,3.5179 12.75556,-14.07159 h 12.75557 l 12.75556,-33.77183 12.75556,30.25393 12.75556,-8.44296 12.75556,14.07159 12.75556,-10.55369 12.75556,11.25727"
       style="fill:none;stroke:#8c564b;stroke-width:1.5;stroke-linecap:butt;stroke-linejoin:round;stroke-miterlimit:10;stroke-dasharray:5.55, 2.4;stroke-dashoffset:0;stroke-opacity:1"
       transform="matrix(1.3333333,0,0,-1.3333333,0,598.87499)"
       clip-path="url(#clipPath54)" />
    <path
       id="path55"
       d="m 81.613068,258.05023 12.755561,33.06825 h 12.755561 l 12.75556,4.92506 12.75556,16.88591 12.75556,4.92506 h 12.75556 12.75556 12.75557 12.75556 l 12.75556,42.91836 h 12.75556 12.75556 12.75556 12.75556 l 12.75556,12.66444 h 12.75556 12.75556 12.75556 l 12.75557,7.73938 h 12.75556 12.75556 12.75556 12.75556 12.75556 12.75556 12.75556 12.75556 12.75556 12.75556 12.75557 12.75556 12.75556 12.75556 12.75556 12.75556 12.75556 12.75556 12.75556 12.75556 12.75556 12.75557 12.75556 12.75556 12.75556 12.75556 12.75556 12.75556"
       style="fill:none;stroke:#e377c2;stroke-width:1.5;stroke-linecap:square;stroke-linejoin:round;stroke-miterlimit:10;stroke-dasharray:none;stroke-opacity:1"
       transform="matrix(1.3333333,0,0,-1.3333333,0,598.87499)"
       clip-path="url(#clipPath56)" />
    <path
       id="path57"
       d="m 81.613068,258.05023 12.755561,33.06825 12.755561,-42.21479 12.75556,47.13985 12.75556,16.88591 12.75556,4.92506 12.75556,-15.47876 12.75556,-7.73937 12.75557,11.25727 12.75556,-22.51455 12.75556,77.39377 12.75556,-31.66109 12.75556,-23.92171 12.75556,1.40716 12.75556,-47.84342 12.75556,114.6835 12.75556,-63.32218 12.75556,34.47541 12.75556,1.40716 12.75557,35.17899 12.75556,-19.70024 12.75556,-6.33221 12.75556,7.03579 h 12.75556 l 12.75556,-4.92506 12.75556,0.70358 12.75556,-20.40381 12.75556,-5.62864 12.75556,38.69689 12.75556,-22.51455 12.75557,18.99665 12.75556,-29.55035 12.75556,-4.92506 12.75556,11.96086 12.75556,32.36467 12.75556,-47.13985 12.75556,18.29308 12.75556,-10.5537 12.75556,7.0358 12.75556,18.29307 12.75556,-22.51455 12.75557,-8.44296 12.75556,47.84343 12.75556,-15.47876 12.75556,-6.33222 12.75556,-11.96085 12.75556,9.14654 12.75556,-11.25728"
       style="fill:none;stroke:#e377c2;stroke-width:1.5;stroke-linecap:butt;stroke-linejoin:round;stroke-miterlimit:10;stroke-dasharray:5.55, 2.4;stroke-dashoffset:0;stroke-opacity:1"
       transform="matrix(1.3333333,0,0,-1.3333333,0,598.87499)"
       clip-path="url(#clipPath58)" />
    <path
       id="path59"
       d="m 81.613068,251.01443 12.755561,23.92171 12.755561,18.29308 h 12.75556 12.75556 l 12.75556,30.25393 12.75556,40.80762 h 12.75556 12.75557 12.75556 12.75556 12.75556 12.75556 12.75556 l 12.75556,19.70024 h 12.75556 12.75556 12.75556 12.75556 12.75557 12.75556 12.75556 12.75556 12.75556 12.75556 12.75556 12.75556 12.75556 12.75556 12.75556 12.75557 12.75556 l 12.75556,0.70358 h 12.75556 l 12.75556,7.73937 h 12.75556 12.75556 12.75556 12.75556 12.75556 12.75556 12.75557 12.75556 12.75556 12.75556 12.75556 12.75556 12.75556"
       style="fill:none;stroke:#7f7f7f;stroke-width:1.5;stroke-linecap:square;stroke-linejoin:round;stroke-miterlimit:10;stroke-dasharray:none;stroke-opacity:1"
       transform="matrix(1.3333333,0,0,-1.3333333,0,598.87499)"
       clip-path="url(#clipPath60)" />
    <path
       id="path61"
       d="m 81.613068,251.01443 12.755561,23.92171 12.755561,18.29308 12.75556,-10.5537 12.75556,8.44296 12.75556,32.36467 12.75556,40.80762 12.75556,-30.25393 12.75557,-2.81432 12.75556,32.36467 12.75556,-20.40381 12.75556,-29.55035 12.75556,16.18233 12.75556,-5.62863 12.75556,59.80428 h 12.75556 l 12.75556,-12.66444 12.75556,-36.58615 12.75556,37.28973 12.75557,-35.17899 12.75556,-0.70358 12.75556,14.77518 12.75556,17.58949 12.75556,-29.55035 12.75556,-5.62864 12.75556,-10.55369 12.75556,45.73268 12.75556,-2.11074 12.75556,-15.47875 12.75556,18.99665 12.75557,-20.40381 12.75556,4.92506 12.75556,30.25393 12.75556,-28.84677 12.75556,36.58614 12.75556,-19.70023 12.75556,-4.92506 12.75556,-7.73938 h 12.75556 l 12.75556,16.18234 12.75556,-10.5537 12.75557,-4.22148 12.75556,2.81432 12.75556,-8.44295 12.75556,21.10739 12.75556,0.70358 12.75556,-0.70358 12.75556,-2.81432"
       style="fill:none;stroke:#7f7f7f;stroke-width:1.5;stroke-linecap:butt;stroke-linejoin:round;stroke-miterlimit:10;stroke-dasharray:5.55, 2.4;stroke-dashoffset:0;stroke-opacity:1"
       transform="matrix(1.3333333,0,0,-1.3333333,0,598.87499)"
       clip-path="url(#clipPath62)" />
    <path
       id="path63"
       d="m 81.613068,300.26501 h 12.755561 12.755561 12.75556 l 12.75556,28.14319 h 12.75556 12.75556 12.75556 l 12.75557,11.25728 h 12.75556 l 12.75556,16.88591 12.75556,20.40382 h 12.75556 12.75556 12.75556 12.75556 12.75556 12.75556 12.75556 12.75557 12.75556 12.75556 12.75556 12.75556 12.75556 12.75556 12.75556 12.75556 12.75556 12.75556 12.75557 12.75556 12.75556 12.75556 12.75556 12.75556 12.75556 12.75556 12.75556 12.75556 l 12.75556,1.40716 h 12.75557 12.75556 12.75556 12.75556 12.75556 12.75556 l 12.75556,2.11074"
       style="fill:none;stroke:#bcbd22;stroke-width:1.5;stroke-linecap:square;stroke-linejoin:round;stroke-miterlimit:10;stroke-dasharray:none;stroke-opacity:1"
       transform="matrix(1.3333333,0,0,-1.3333333,0,598.87499)"
       clip-path="url(#clipPath64)" />
    <path
       id="path65"
       d="m 81.613068,300.26501 12.755561,-61.21143 12.755561,38.69688 12.75556,20.40382 12.75556,30.25392 12.75556,-55.5828 12.75556,26.73603 12.75556,12.66444 12.75557,27.43961 12.75556,-23.92171 12.75556,40.80762 12.75556,20.40382 12.75556,-20.40382 12.75556,-47.84342 12.75556,7.0358 12.75556,18.29307 12.75556,1.40716 12.75556,14.0716 12.75556,-10.5537 12.75557,4.22148 12.75556,2.81432 12.75556,6.33222 12.75556,14.07159 12.75556,-2.11074 12.75556,-14.07159 12.75556,16.18233 12.75556,-21.10739 12.75556,7.0358 12.75556,-0.70358 12.75556,-12.66444 12.75557,3.5179 12.75556,4.92506 12.75556,-19.70023 12.75556,29.55034 12.75556,2.81432 12.75556,5.62864 12.75556,-1.40716 12.75556,4.22148 12.75556,-10.5537 12.75556,11.25728 12.75556,9.14654 12.75557,-21.1074 12.75556,-2.11073 12.75556,1.40715 12.75556,7.73938 12.75556,-4.92506 12.75556,-21.10739 12.75556,42.21479"
       style="fill:none;stroke:#bcbd22;stroke-width:1.5;stroke-linecap:butt;stroke-linejoin:round;stroke-miterlimit:10;stroke-dasharray:5.55, 2.4;stroke-dashoffset:0;stroke-opacity:1"
       transform="matrix(1.3333333,0,0,-1.3333333,0,598.87499)"
       clip-path="url(#clipPath66)" />
    <path
       id="path67"
       d="m 81.613068,289.71132 h 12.755561 12.755561 l 12.75556,25.32887 12.75556,1.40716 h 12.75556 12.75556 12.75556 12.75557 l 12.75556,6.33222 h 12.75556 l 12.75556,33.77182 h 12.75556 12.75556 l 12.75556,18.29308 h 12.75556 12.75556 12.75556 12.75556 12.75557 12.75556 12.75556 12.75556 l 12.75556,22.51455 h 12.75556 12.75556 12.75556 12.75556 12.75556 12.75556 12.75557 12.75556 12.75556 12.75556 12.75556 12.75556 12.75556 12.75556 12.75556 12.75556 12.75556 12.75557 12.75556 12.75556 12.75556 12.75556 12.75556 12.75556"
       style="fill:none;stroke:#17becf;stroke-width:1.5;stroke-linecap:square;stroke-linejoin:round;stroke-miterlimit:10;stroke-dasharray:none;stroke-opacity:1"
       transform="matrix(1.3333333,0,0,-1.3333333,0,598.87499)"
       clip-path="url(#clipPath68)" />
    <path
       id="path69"
       d="m 81.613068,289.71132 12.755561,-46.43627 12.755561,22.51456 12.75556,49.25058 12.75556,1.40716 12.75556,-45.02911 12.75556,-0.70357 12.75556,28.14319 12.75557,2.11073 12.75556,21.81098 12.75556,-27.43961 12.75556,61.21143 12.75556,-1.40715 12.75556,-52.06491 12.75556,71.76514 12.75556,-32.36467 12.75556,21.81097 12.75556,2.11074 12.75556,-40.80762 12.75557,15.47875 h 12.75556 l 12.75556,11.25728 h 12.75556 l 12.75556,45.0291 12.75556,-9.85012 12.75556,-28.84677 12.75556,-2.11074 12.75556,-14.07159 12.75556,7.0358 12.75556,29.55035 12.75557,-9.14654 12.75556,-23.92171 12.75556,10.55369 12.75556,-4.22147 12.75556,-4.92506 12.75556,21.81097 12.75556,4.22148 12.75556,-23.92171 12.75556,5.62864 12.75556,2.81431 12.75556,4.92506 12.75557,7.73938 h 12.75556 l 12.75556,-0.70358 12.75556,-10.5537 12.75556,3.5179 12.75556,2.11074 12.75556,-4.22148"
       style="fill:none;stroke:#17becf;stroke-width:1.5;stroke-linecap:butt;stroke-linejoin:round;stroke-miterlimit:10;stroke-dasharray:5.55, 2.4;stroke-dashoffset:0;stroke-opacity:1"
       transform="matrix(1.3333333,0,0,-1.3333333,0,598.87499)"
       clip-path="url(#clipPath70)" />
    <path
       id="path71"
       d="M 52.048437,426.48437 H 669.75156 c 1.33334,0 2,0.66666 2,2 v 13.67187 c 0,1.33334 -0.66666,2 -2,2 H 52.048437 c -1.333333,0 -2,-0.66666 -2,-2 v -13.67187 c 0,-1.33334 0.666667,-2 2,-2 z"
       style="fill:#ffffff;fill-opacity:0.8;fill-rule:nonzero;stroke:#cccccc;stroke-width:1;stroke-linecap:butt;stroke-linejoin:miter;stroke-miterlimit:10;stroke-dasharray:none;stroke-opacity:0.8"
       transform="matrix(1.3333333,0,0,-1.3333333,0,598.87499)" />
    <path
       id="path72"
       d="m 54.048437,436.06249 h 20"
       style="fill:none;stroke:#1f77b4;stroke-width:1.5;stroke-linecap:square;stroke-linejoin:round;stroke-miterlimit:10;stroke-dasharray:none;stroke-opacity:1"
       transform="matrix(1.3333333,0,0,-1.3333333,0,598.87499)" />
    <text
       id="text72"
       xml:space="preserve"
       transform="matrix(1.3333333,0,0,1.3333333,109.39792,22.125)"><tspan
         id="tspan72"
         style="font-variant:normal;font-weight:normal;font-size:10px;font-family:'DejaVu Sans';writing-mode:lr-tb;fill:#000000;fill-opacity:1;fill-rule:nonzero;stroke:none"
         x="0"
         y="0">#1</tspan></text>
    <path
       id="path73"
       d="m 116.78281,436.06249 h 20"
       style="fill:none;stroke:#ff7f0e;stroke-width:1.5;stroke-linecap:square;stroke-linejoin:round;stroke-miterlimit:10;stroke-dasharray:none;stroke-opacity:1"
       transform="matrix(1.3333333,0,0,-1.3333333,0,598.87499)" />
    <text
       id="text73"
       xml:space="preserve"
       transform="matrix(1.3333333,0,0,1.3333333,193.04375,22.125)"><tspan
         id="tspan73"
         style="font-variant:normal;font-weight:normal;font-size:10px;font-family:'DejaVu Sans';writing-mode:lr-tb;fill:#000000;fill-opacity:1;fill-rule:nonzero;stroke:none"
         x="0"
         y="0">#2</tspan></text>
    <path
       id="path74"
       d="m 179.51719,436.06249 h 20"
       style="fill:none;stroke:#2ca02c;stroke-width:1.5;stroke-linecap:square;stroke-linejoin:round;stroke-miterlimit:10;stroke-dasharray:none;stroke-opacity:1"
       transform="matrix(1.3333333,0,0,-1.3333333,0,598.87499)" />
    <text
       id="text74"
       xml:space="preserve"
       transform="matrix(1.3333333,0,0,1.3333333,276.68958,22.125)"><tspan
         id="tspan74"
         style="font-variant:normal;font-weight:normal;font-size:10px;font-family:'DejaVu Sans';writing-mode:lr-tb;fill:#000000;fill-opacity:1;fill-rule:nonzero;stroke:none"
         x="0"
         y="0">#3</tspan></text>
    <path
       id="path75"
       d="m 242.25156,436.06249 h 20"
       style="fill:none;stroke:#d62728;stroke-width:1.5;stroke-linecap:square;stroke-linejoin:round;stroke-miterlimit:10;stroke-dasharray:none;stroke-opacity:1"
       transform="matrix(1.3333333,0,0,-1.3333333,0,598.87499)" />
    <text
       id="text75"
       xml:space="preserve"
       transform="matrix(1.3333333,0,0,1.3333333,360.33542,22.125)"><tspan
         id="tspan75"
         style="font-variant:normal;font-weight:normal;font-size:10px;font-family:'DejaVu Sans';writing-mode:lr-tb;fill:#000000;fill-opacity:1;fill-rule:nonzero;stroke:none"
         x="0"
         y="0">#4</tspan></text>
    <path
       id="path76"
       d="m 304.98594,436.06249 h 20"
       style="fill:none;stroke:#9467bd;stroke-width:1.5;stroke-linecap:square;stroke-linejoin:round;stroke-miterlimit:10;stroke-dasharray:none;stroke-opacity:1"
       transform="matrix(1.3333333,0,0,-1.3333333,0,598.87499)" />
    <text
       id="text76"
       xml:space="preserve"
       transform="matrix(1.3333333,0,0,1.3333333,443.98125,22.125)"><tspan
         id="tspan76"
         style="font-variant:normal;font-weight:normal;font-size:10px;font-family:'DejaVu Sans';writing-mode:lr-tb;fill:#000000;fill-opacity:1;fill-rule:nonzero;stroke:none"
         x="0"
         y="0">#5</tspan></text>
    <path
       id="path77"
       d="m 367.72031,436.06249 h 20"
       style="fill:none;stroke:#8c564b;stroke-width:1.5;stroke-linecap:square;stroke-linejoin:round;stroke-miterlimit:10;stroke-dasharray:none;stroke-opacity:1"
       transform="matrix(1.3333333,0,0,-1.3333333,0,598.87499)" />
    <text
       id="text77"
       xml:space="preserve"
       transform="matrix(1.3333333,0,0,1.3333333,527.62708,22.125)"><tspan
         id="tspan77"
         style="font-variant:normal;font-weight:normal;font-size:10px;font-family:'DejaVu Sans';writing-mode:lr-tb;fill:#000000;fill-opacity:1;fill-rule:nonzero;stroke:none"
         x="0"
         y="0">#6</tspan></text>
    <path
       id="path78"
       d="m 430.45469,436.06249 h 20"
       style="fill:none;stroke:#e377c2;stroke-width:1.5;stroke-linecap:square;stroke-linejoin:round;stroke-miterlimit:10;stroke-dasharray:none;stroke-opacity:1"
       transform="matrix(1.3333333,0,0,-1.3333333,0,598.87499)" />
    <text
       id="text78"
       xml:space="preserve"
       transform="matrix(1.3333333,0,0,1.3333333,611.27292,22.125)"><tspan
         id="tspan78"
         style="font-variant:normal;font-weight:normal;font-size:10px;font-family:'DejaVu Sans';writing-mode:lr-tb;fill:#000000;fill-opacity:1;fill-rule:nonzero;stroke:none"
         x="0"
         y="0">#7</tspan></text>
    <path
       id="path79"
       d="m 493.18906,436.06249 h 20"
       style="fill:none;stroke:#7f7f7f;stroke-width:1.5;stroke-linecap:square;stroke-linejoin:round;stroke-miterlimit:10;stroke-dasharray:none;stroke-opacity:1"
       transform="matrix(1.3333333,0,0,-1.3333333,0,598.87499)" />
    <text
       id="text79"
       xml:space="preserve"
       transform="matrix(1.3333333,0,0,1.3333333,694.91875,22.125)"><tspan
         id="tspan79"
         style="font-variant:normal;font-weight:normal;font-size:10px;font-family:'DejaVu Sans';writing-mode:lr-tb;fill:#000000;fill-opacity:1;fill-rule:nonzero;stroke:none"
         x="0"
         y="0">#8</tspan></text>
    <path
       id="path80"
       d="m 555.92344,436.06249 h 20"
       style="fill:none;stroke:#bcbd22;stroke-width:1.5;stroke-linecap:square;stroke-linejoin:round;stroke-miterlimit:10;stroke-dasharray:none;stroke-opacity:1"
       transform="matrix(1.3333333,0,0,-1.3333333,0,598.87499)" />
    <text
       id="text80"
       xml:space="preserve"
       transform="matrix(1.3333333,0,0,1.3333333,778.56458,22.125)"><tspan
         id="tspan80"
         style="font-variant:normal;font-weight:normal;font-size:10px;font-family:'DejaVu Sans';writing-mode:lr-tb;fill:#000000;fill-opacity:1;fill-rule:nonzero;stroke:none"
         x="0"
         y="0">#9</tspan></text>
    <path
       id="path81"
       d="m 618.65781,436.06249 h 20"
       style="fill:none;stroke:#17becf;stroke-width:1.5;stroke-linecap:square;stroke-linejoin:round;stroke-miterlimit:10;stroke-dasharray:none;stroke-opacity:1"
       transform="matrix(1.3333333,0,0,-1.3333333,0,598.87499)" />
    <text
       id="text81"
       xml:space="preserve"
       transform="matrix(1.3333333,0,0,1.3333333,862.21042,22.125)"><tspan
         id="tspan81"
         style="font-variant:normal;font-weight:normal;font-size:10px;font-family:'DejaVu Sans';writing-mode:lr-tb;fill:#000000;fill-opacity:1;fill-rule:nonzero;stroke:none"
         x="0"
         y="0">#10</tspan></text>
  </g>
</svg>
