<svg xmlns="http://www.w3.org/2000/svg" width="962.4" height="591.142" viewBox="0 0 962.4 591.142"><defs><clipPath id="a" clipPathUnits="userSpaceOnUse"><path d="M43.778 37.544H711.1v395.112H43.778Z"/></clipPath><clipPath id="b" clipPathUnits="userSpaceOnUse"><path d="M43.778 37.544H711.1v395.112H43.778Z"/></clipPath><clipPath id="c" clipPathUnits="userSpaceOnUse"><path d="M43.778 37.544H711.1v395.112H43.778Z"/></clipPath><clipPath id="d" clipPathUnits="userSpaceOnUse"><path d="M43.778 37.544H711.1v395.112H43.778Z"/></clipPath><clipPath id="e" clipPathUnits="userSpaceOnUse"><path d="M43.778 37.544H711.1v395.112H43.778Z"/></clipPath><clipPath id="f" clipPathUnits="userSpaceOnUse"><path d="M43.778 37.544H711.1v395.112H43.778Z"/></clipPath><clipPath id="g" clipPathUnits="userSpaceOnUse"><path d="M43.778 37.544H711.1v395.112H43.778Z"/></clipPath><clipPath id="h" clipPathUnits="userSpaceOnUse"><path d="M43.778 37.544H711.1v395.112H43.778Z"/></clipPath><clipPath id="i" clipPathUnits="userSpaceOnUse"><path d="M43.778 37.544H711.1v395.112H43.778Z"/></clipPath><clipPath id="j" clipPathUnits="userSpaceOnUse"><path d="M43.778 37.544H711.1v395.112H43.778Z"/></clipPath><clipPath id="k" clipPathUnits="userSpaceOnUse"><path d="M43.778 37.544H711.1v395.112H43.778Z"/></clipPath><clipPath id="l" clipPathUnits="userSpaceOnUse"><path d="M43.778 37.544H711.1v395.112H43.778Z"/></clipPath><clipPath id="m" clipPathUnits="userSpaceOnUse"><path d="M43.778 37.544H711.1v395.112H43.778Z"/></clipPath><clipPath id="n" clipPathUnits="userSpaceOnUse"><path d="M43.778 37.544H711.1v395.112H43.778Z"/></clipPath><clipPath id="p" clipPathUnits="userSpaceOnUse"><path d="M-4.743-4.743h9.486v9.486h-9.486Z"/></clipPath><clipPath id="o" clipPathUnits="userSpaceOnUse"><path d="M58.37 541.083h889.763V14.267H58.371Z"/></clipPath><clipPath id="r" clipPathUnits="userSpaceOnUse"><path d="M-4.743-4.743h9.486v9.486h-9.486Z"/></clipPath><clipPath id="q" clipPathUnits="userSpaceOnUse"><path d="M58.37 541.083h889.763V14.267H58.371Z"/></clipPath><clipPath id="t" clipPathUnits="userSpaceOnUse"><path d="M-4.743-4.743h9.486v9.486h-9.486Z"/></clipPath><clipPath id="s" clipPathUnits="userSpaceOnUse"><path d="M58.37 541.083h889.763V14.267H58.371Z"/></clipPath><clipPath id="v" clipPathUnits="userSpaceOnUse"><path d="M-4.743-4.743h9.486v9.486h-9.486Z"/></clipPath><clipPath id="u" clipPathUnits="userSpaceOnUse"><path d="M58.37 541.083h889.763V14.267H58.371Z"/></clipPath><clipPath id="x" clipPathUnits="userSpaceOnUse"><path d="M-4.743-4.743h9.486v9.486h-9.486Z"/></clipPath><clipPath id="w" clipPathUnits="userSpaceOnUse"><path d="M58.37 541.083h889.763V14.267H58.371Z"/></clipPath><clipPath id="z" clipPathUnits="userSpaceOnUse"><path d="M-4.743-4.743h9.486v9.486h-9.486Z"/></clipPath><clipPath id="y" clipPathUnits="userSpaceOnUse"><path d="M58.37 541.083h889.763V14.267H58.371Z"/></clipPath><clipPath id="B" clipPathUnits="userSpaceOnUse"><path d="M-4.743-4.743h9.486v9.486h-9.486Z"/></clipPath><clipPath id="A" clipPathUnits="userSpaceOnUse"><path d="M58.37 541.083h889.763V14.267H58.371Z"/></clipPath><clipPath id="D" clipPathUnits="userSpaceOnUse"><path d="M-4.743-4.743h9.486v9.486h-9.486Z"/></clipPath><clipPath id="C" clipPathUnits="userSpaceOnUse"><path d="M58.37 541.083h889.763V14.267H58.371Z"/></clipPath><clipPath id="F" clipPathUnits="userSpaceOnUse"><path d="M-4.743-4.743h9.486v9.486h-9.486Z"/></clipPath><clipPath id="E" clipPathUnits="userSpaceOnUse"><path d="M58.37 541.083h889.763V14.267H58.371Z"/></clipPath><clipPath id="H" clipPathUnits="userSpaceOnUse"><path d="M-4.743-4.743h9.486v9.486h-9.486Z"/></clipPath><clipPath id="G" clipPathUnits="userSpaceOnUse"><path d="M58.37 541.083h889.763V14.267H58.371Z"/></clipPath><clipPath id="J" clipPathUnits="userSpaceOnUse"><path d="M-4.743-4.743h9.486v9.486h-9.486Z"/></clipPath><clipPath id="I" clipPathUnits="userSpaceOnUse"><path d="M58.37 541.083h889.763V14.267H58.371Z"/></clipPath><clipPath id="L" clipPathUnits="userSpaceOnUse"><path d="M-4.743-4.743h9.486v9.486h-9.486Z"/></clipPath><clipPath id="K" clipPathUnits="userSpaceOnUse"><path d="M58.37 541.083h889.763V14.267H58.371Z"/></clipPath><clipPath id="N" clipPathUnits="userSpaceOnUse"><path d="M-4.743-4.743h9.486v9.486h-9.486Z"/></clipPath><clipPath id="M" clipPathUnits="userSpaceOnUse"><path d="M58.37 541.083h889.763V14.267H58.371Z"/></clipPath><clipPath id="P" clipPathUnits="userSpaceOnUse"><path d="M-4.743-4.743h9.486v9.486h-9.486Z"/></clipPath><clipPath id="O" clipPathUnits="userSpaceOnUse"><path d="M58.37 541.083h889.763V14.267H58.371Z"/></clipPath><clipPath id="Q" clipPathUnits="userSpaceOnUse"><path d="M43.778 37.544H711.1v395.112H43.778Z"/></clipPath><clipPath id="S" clipPathUnits="userSpaceOnUse"><path d="M-3.5-3.5h7v7h-7z"/></clipPath><clipPath id="R" clipPathUnits="userSpaceOnUse"><path d="M58.37 541.083h889.763V14.267H58.371Z"/></clipPath><clipPath id="U" clipPathUnits="userSpaceOnUse"><path d="M-3.5-3.5h7v7h-7z"/></clipPath><clipPath id="T" clipPathUnits="userSpaceOnUse"><path d="M58.37 541.083h889.763V14.267H58.371Z"/></clipPath><clipPath id="W" clipPathUnits="userSpaceOnUse"><path d="M-3.5-3.5h7v7h-7z"/></clipPath><clipPath id="V" clipPathUnits="userSpaceOnUse"><path d="M58.37 541.083h889.763V14.267H58.371Z"/></clipPath><clipPath id="Y" clipPathUnits="userSpaceOnUse"><path d="M-3.5-3.5h7v7h-7z"/></clipPath><clipPath id="X" clipPathUnits="userSpaceOnUse"><path d="M58.37 541.083h889.763V14.267H58.371Z"/></clipPath><clipPath id="aa" clipPathUnits="userSpaceOnUse"><path d="M-3.5-3.5h7v7h-7z"/></clipPath><clipPath id="Z" clipPathUnits="userSpaceOnUse"><path d="M58.37 541.083h889.763V14.267H58.371Z"/></clipPath><clipPath id="ac" clipPathUnits="userSpaceOnUse"><path d="M-3.5-3.5h7v7h-7z"/></clipPath><clipPath id="ab" clipPathUnits="userSpaceOnUse"><path d="M58.37 541.083h889.763V14.267H58.371Z"/></clipPath><clipPath id="ae" clipPathUnits="userSpaceOnUse"><path d="M-3.5-3.5h7v7h-7z"/></clipPath><clipPath id="ad" clipPathUnits="userSpaceOnUse"><path d="M58.37 541.083h889.763V14.267H58.371Z"/></clipPath><clipPath id="ag" clipPathUnits="userSpaceOnUse"><path d="M-3.5-3.5h7v7h-7z"/></clipPath><clipPath id="af" clipPathUnits="userSpaceOnUse"><path d="M58.37 541.083h889.763V14.267H58.371Z"/></clipPath><clipPath id="ai" clipPathUnits="userSpaceOnUse"><path d="M-3.5-3.5h7v7h-7z"/></clipPath><clipPath id="ah" clipPathUnits="userSpaceOnUse"><path d="M58.37 541.083h889.763V14.267H58.371Z"/></clipPath><clipPath id="ak" clipPathUnits="userSpaceOnUse"><path d="M-3.5-3.5h7v7h-7z"/></clipPath><clipPath id="aj" clipPathUnits="userSpaceOnUse"><path d="M58.37 541.083h889.763V14.267H58.371Z"/></clipPath><clipPath id="am" clipPathUnits="userSpaceOnUse"><path d="M-3.5-3.5h7v7h-7z"/></clipPath><clipPath id="al" clipPathUnits="userSpaceOnUse"><path d="M58.37 541.083h889.763V14.267H58.371Z"/></clipPath><clipPath id="ao" clipPathUnits="userSpaceOnUse"><path d="M-3.5-3.5h7v7h-7z"/></clipPath><clipPath id="an" clipPathUnits="userSpaceOnUse"><path d="M58.37 541.083h889.763V14.267H58.371Z"/></clipPath><clipPath id="aq" clipPathUnits="userSpaceOnUse"><path d="M-3.5-3.5h7v7h-7z"/></clipPath><clipPath id="ap" clipPathUnits="userSpaceOnUse"><path d="M58.37 541.083h889.763V14.267H58.371Z"/></clipPath><clipPath id="as" clipPathUnits="userSpaceOnUse"><path d="M-3.5-3.5h7v7h-7z"/></clipPath><clipPath id="ar" clipPathUnits="userSpaceOnUse"><path d="M58.37 541.083h889.763V14.267H58.371Z"/></clipPath><clipPath id="at" clipPathUnits="userSpaceOnUse"><path d="M43.778 37.544H711.1v395.112H43.778Z"/></clipPath><clipPath id="av" clipPathUnits="userSpaceOnUse"><path d="M-3.5-3.5h7v7h-7z"/></clipPath><clipPath id="au" clipPathUnits="userSpaceOnUse"><path d="M58.37 541.083h889.763V14.267H58.371Z"/></clipPath><clipPath id="ax" clipPathUnits="userSpaceOnUse"><path d="M-3.5-3.5h7v7h-7z"/></clipPath><clipPath id="aw" clipPathUnits="userSpaceOnUse"><path d="M58.37 541.083h889.763V14.267H58.371Z"/></clipPath><clipPath id="az" clipPathUnits="userSpaceOnUse"><path d="M-3.5-3.5h7v7h-7z"/></clipPath><clipPath id="ay" clipPathUnits="userSpaceOnUse"><path d="M58.37 541.083h889.763V14.267H58.371Z"/></clipPath><clipPath id="aB" clipPathUnits="userSpaceOnUse"><path d="M-3.5-3.5h7v7h-7z"/></clipPath><clipPath id="aA" clipPathUnits="userSpaceOnUse"><path d="M58.37 541.083h889.763V14.267H58.371Z"/></clipPath><clipPath id="aD" clipPathUnits="userSpaceOnUse"><path d="M-3.5-3.5h7v7h-7z"/></clipPath><clipPath id="aC" clipPathUnits="userSpaceOnUse"><path d="M58.37 541.083h889.763V14.267H58.371Z"/></clipPath><clipPath id="aF" clipPathUnits="userSpaceOnUse"><path d="M-3.5-3.5h7v7h-7z"/></clipPath><clipPath id="aE" clipPathUnits="userSpaceOnUse"><path d="M58.37 541.083h889.763V14.267H58.371Z"/></clipPath><clipPath id="aH" clipPathUnits="userSpaceOnUse"><path d="M-3.5-3.5h7v7h-7z"/></clipPath><clipPath id="aG" clipPathUnits="userSpaceOnUse"><path d="M58.37 541.083h889.763V14.267H58.371Z"/></clipPath><clipPath id="aJ" clipPathUnits="userSpaceOnUse"><path d="M-3.5-3.5h7v7h-7z"/></clipPath><clipPath id="aI" clipPathUnits="userSpaceOnUse"><path d="M58.37 541.083h889.763V14.267H58.371Z"/></clipPath><clipPath id="aL" clipPathUnits="userSpaceOnUse"><path d="M-3.5-3.5h7v7h-7z"/></clipPath><clipPath id="aK" clipPathUnits="userSpaceOnUse"><path d="M58.37 541.083h889.763V14.267H58.371Z"/></clipPath><clipPath id="aN" clipPathUnits="userSpaceOnUse"><path d="M-3.5-3.5h7v7h-7z"/></clipPath><clipPath id="aM" clipPathUnits="userSpaceOnUse"><path d="M58.37 541.083h889.763V14.267H58.371Z"/></clipPath><clipPath id="aP" clipPathUnits="userSpaceOnUse"><path d="M-3.5-3.5h7v7h-7z"/></clipPath><clipPath id="aO" clipPathUnits="userSpaceOnUse"><path d="M58.37 541.083h889.763V14.267H58.371Z"/></clipPath><clipPath id="aR" clipPathUnits="userSpaceOnUse"><path d="M-3.5-3.5h7v7h-7z"/></clipPath><clipPath id="aQ" clipPathUnits="userSpaceOnUse"><path d="M58.37 541.083h889.763V14.267H58.371Z"/></clipPath><clipPath id="aT" clipPathUnits="userSpaceOnUse"><path d="M-3.5-3.5h7v7h-7z"/></clipPath><clipPath id="aS" clipPathUnits="userSpaceOnUse"><path d="M58.37 541.083h889.763V14.267H58.371Z"/></clipPath><clipPath id="aV" clipPathUnits="userSpaceOnUse"><path d="M-3.5-3.5h7v7h-7z"/></clipPath><clipPath id="aU" clipPathUnits="userSpaceOnUse"><path d="M58.37 541.083h889.763V14.267H58.371Z"/></clipPath></defs><path d="M67.983 37.544v395.112" clip-path="url(#a)" style="fill:none;stroke:#e6e6e6;stroke-width:1;stroke-linecap:square;stroke-linejoin:round;stroke-miterlimit:10;stroke-dasharray:none;stroke-opacity:1" transform="matrix(1.33333 0 0 -1.33333 0 591.142)"/><path d="M67.983 37.544v-3.5" style="fill:#000;fill-opacity:1;fill-rule:nonzero;stroke:#000;stroke-width:.8;stroke-linecap:butt;stroke-linejoin:round;stroke-miterlimit:10;stroke-dasharray:none;stroke-opacity:1" transform="matrix(1.33333 0 0 -1.33333 0 591.142)"/><text xml:space="preserve" transform="translate(86.405 560.542)scale(1.33333)"><tspan x="0" y="0" style="font-variant:normal;font-weight:400;font-size:10px;font-family:&quot;DejaVu Sans&quot;;writing-mode:lr-tb;fill:#000;fill-opacity:1;fill-rule:nonzero;stroke:none">0</tspan></text><path d="M155.524 37.544v395.112" clip-path="url(#b)" style="fill:none;stroke:#e6e6e6;stroke-width:1;stroke-linecap:square;stroke-linejoin:round;stroke-miterlimit:10;stroke-dasharray:none;stroke-opacity:1" transform="matrix(1.33333 0 0 -1.33333 0 591.142)"/><path d="M155.524 37.544v-3.5" style="fill:#000;fill-opacity:1;fill-rule:nonzero;stroke:#000;stroke-width:.8;stroke-linecap:butt;stroke-linejoin:round;stroke-miterlimit:10;stroke-dasharray:none;stroke-opacity:1" transform="matrix(1.33333 0 0 -1.33333 0 591.142)"/><text xml:space="preserve" transform="translate(194.646 560.542)scale(1.33333)"><tspan x="0" y="0" style="font-variant:normal;font-weight:400;font-size:10px;font-family:&quot;DejaVu Sans&quot;;writing-mode:lr-tb;fill:#000;fill-opacity:1;fill-rule:nonzero;stroke:none">100</tspan></text><path d="M243.064 37.544v395.112" clip-path="url(#c)" style="fill:none;stroke:#e6e6e6;stroke-width:1;stroke-linecap:square;stroke-linejoin:round;stroke-miterlimit:10;stroke-dasharray:none;stroke-opacity:1" transform="matrix(1.33333 0 0 -1.33333 0 591.142)"/><path d="M243.064 37.544v-3.5" style="fill:#000;fill-opacity:1;fill-rule:nonzero;stroke:#000;stroke-width:.8;stroke-linecap:butt;stroke-linejoin:round;stroke-miterlimit:10;stroke-dasharray:none;stroke-opacity:1" transform="matrix(1.33333 0 0 -1.33333 0 591.142)"/><text xml:space="preserve" transform="translate(311.367 560.542)scale(1.33333)"><tspan x="0" y="0" style="font-variant:normal;font-weight:400;font-size:10px;font-family:&quot;DejaVu Sans&quot;;writing-mode:lr-tb;fill:#000;fill-opacity:1;fill-rule:nonzero;stroke:none">200</tspan></text><path d="M330.605 37.544v395.112" clip-path="url(#d)" style="fill:none;stroke:#e6e6e6;stroke-width:1;stroke-linecap:square;stroke-linejoin:round;stroke-miterlimit:10;stroke-dasharray:none;stroke-opacity:1" transform="matrix(1.33333 0 0 -1.33333 0 591.142)"/><path d="M330.605 37.544v-3.5" style="fill:#000;fill-opacity:1;fill-rule:nonzero;stroke:#000;stroke-width:.8;stroke-linecap:butt;stroke-linejoin:round;stroke-miterlimit:10;stroke-dasharray:none;stroke-opacity:1" transform="matrix(1.33333 0 0 -1.33333 0 591.142)"/><text xml:space="preserve" transform="translate(428.088 560.542)scale(1.33333)"><tspan x="0" y="0" style="font-variant:normal;font-weight:400;font-size:10px;font-family:&quot;DejaVu Sans&quot;;writing-mode:lr-tb;fill:#000;fill-opacity:1;fill-rule:nonzero;stroke:none">300</tspan></text><path d="M418.145 37.544v395.112" clip-path="url(#e)" style="fill:none;stroke:#e6e6e6;stroke-width:1;stroke-linecap:square;stroke-linejoin:round;stroke-miterlimit:10;stroke-dasharray:none;stroke-opacity:1" transform="matrix(1.33333 0 0 -1.33333 0 591.142)"/><path d="M418.145 37.544v-3.5" style="fill:#000;fill-opacity:1;fill-rule:nonzero;stroke:#000;stroke-width:.8;stroke-linecap:butt;stroke-linejoin:round;stroke-miterlimit:10;stroke-dasharray:none;stroke-opacity:1" transform="matrix(1.33333 0 0 -1.33333 0 591.142)"/><text xml:space="preserve" transform="translate(544.808 560.542)scale(1.33333)"><tspan x="0" y="0" style="font-variant:normal;font-weight:400;font-size:10px;font-family:&quot;DejaVu Sans&quot;;writing-mode:lr-tb;fill:#000;fill-opacity:1;fill-rule:nonzero;stroke:none">400</tspan></text><path d="M505.686 37.544v395.112" clip-path="url(#f)" style="fill:none;stroke:#e6e6e6;stroke-width:1;stroke-linecap:square;stroke-linejoin:round;stroke-miterlimit:10;stroke-dasharray:none;stroke-opacity:1" transform="matrix(1.33333 0 0 -1.33333 0 591.142)"/><path d="M505.686 37.544v-3.5" style="fill:#000;fill-opacity:1;fill-rule:nonzero;stroke:#000;stroke-width:.8;stroke-linecap:butt;stroke-linejoin:round;stroke-miterlimit:10;stroke-dasharray:none;stroke-opacity:1" transform="matrix(1.33333 0 0 -1.33333 0 591.142)"/><text xml:space="preserve" transform="translate(661.53 560.542)scale(1.33333)"><tspan x="0" y="0" style="font-variant:normal;font-weight:400;font-size:10px;font-family:&quot;DejaVu Sans&quot;;writing-mode:lr-tb;fill:#000;fill-opacity:1;fill-rule:nonzero;stroke:none">500</tspan></text><path d="M593.227 37.544v395.112" clip-path="url(#g)" style="fill:none;stroke:#e6e6e6;stroke-width:1;stroke-linecap:square;stroke-linejoin:round;stroke-miterlimit:10;stroke-dasharray:none;stroke-opacity:1" transform="matrix(1.33333 0 0 -1.33333 0 591.142)"/><path d="M593.227 37.544v-3.5" style="fill:#000;fill-opacity:1;fill-rule:nonzero;stroke:#000;stroke-width:.8;stroke-linecap:butt;stroke-linejoin:round;stroke-miterlimit:10;stroke-dasharray:none;stroke-opacity:1" transform="matrix(1.33333 0 0 -1.33333 0 591.142)"/><text xml:space="preserve" transform="translate(778.25 560.542)scale(1.33333)"><tspan x="0" y="0" style="font-variant:normal;font-weight:400;font-size:10px;font-family:&quot;DejaVu Sans&quot;;writing-mode:lr-tb;fill:#000;fill-opacity:1;fill-rule:nonzero;stroke:none">600</tspan></text><path d="M680.767 37.544v395.112" clip-path="url(#h)" style="fill:none;stroke:#e6e6e6;stroke-width:1;stroke-linecap:square;stroke-linejoin:round;stroke-miterlimit:10;stroke-dasharray:none;stroke-opacity:1" transform="matrix(1.33333 0 0 -1.33333 0 591.142)"/><path d="M680.767 37.544v-3.5" style="fill:#000;fill-opacity:1;fill-rule:nonzero;stroke:#000;stroke-width:.8;stroke-linecap:butt;stroke-linejoin:round;stroke-miterlimit:10;stroke-dasharray:none;stroke-opacity:1" transform="matrix(1.33333 0 0 -1.33333 0 591.142)"/><text xml:space="preserve" transform="translate(894.97 560.542)scale(1.33333)"><tspan x="0" y="0" style="font-variant:normal;font-weight:400;font-size:10px;font-family:&quot;DejaVu Sans&quot;;writing-mode:lr-tb;fill:#000;fill-opacity:1;fill-rule:nonzero;stroke:none">700</tspan></text><text xml:space="preserve" transform="translate(433.825 578.77)scale(1.33333)"><tspan x="0" y="0" style="font-variant:normal;font-weight:400;font-size:10px;font-family:&quot;DejaVu Sans&quot;;writing-mode:lr-tb;fill:#000;fill-opacity:1;fill-rule:nonzero;stroke:none">Function evaluations</tspan></text><path d="M43.778 40.742H711.1" clip-path="url(#i)" style="fill:none;stroke:#e6e6e6;stroke-width:1;stroke-linecap:square;stroke-linejoin:round;stroke-miterlimit:10;stroke-dasharray:none;stroke-opacity:1" transform="matrix(1.33333 0 0 -1.33333 0 591.142)"/><path d="M43.778 40.742h-3.5" style="fill:#000;fill-opacity:1;fill-rule:nonzero;stroke:#000;stroke-width:.8;stroke-linecap:butt;stroke-linejoin:round;stroke-miterlimit:10;stroke-dasharray:none;stroke-opacity:1" transform="matrix(1.33333 0 0 -1.33333 0 591.142)"/><text xml:space="preserve" transform="translate(27.83 541.881)scale(1.33333)"><tspan x="0" y="0" style="font-variant:normal;font-weight:400;font-size:10px;font-family:&quot;DejaVu Sans&quot;;writing-mode:lr-tb;fill:#000;fill-opacity:1;fill-rule:nonzero;stroke:none">0.5</tspan></text><path d="M43.778 122.75H711.1" clip-path="url(#j)" style="fill:none;stroke:#e6e6e6;stroke-width:1;stroke-linecap:square;stroke-linejoin:round;stroke-miterlimit:10;stroke-dasharray:none;stroke-opacity:1" transform="matrix(1.33333 0 0 -1.33333 0 591.142)"/><path d="M43.778 122.75h-3.5" style="fill:#000;fill-opacity:1;fill-rule:nonzero;stroke:#000;stroke-width:.8;stroke-linecap:butt;stroke-linejoin:round;stroke-miterlimit:10;stroke-dasharray:none;stroke-opacity:1" transform="matrix(1.33333 0 0 -1.33333 0 591.142)"/><text xml:space="preserve" transform="translate(27.83 432.538)scale(1.33333)"><tspan x="0" y="0" style="font-variant:normal;font-weight:400;font-size:10px;font-family:&quot;DejaVu Sans&quot;;writing-mode:lr-tb;fill:#000;fill-opacity:1;fill-rule:nonzero;stroke:none">0.6</tspan></text><path d="M43.778 204.757H711.1" clip-path="url(#k)" style="fill:none;stroke:#e6e6e6;stroke-width:1;stroke-linecap:square;stroke-linejoin:round;stroke-miterlimit:10;stroke-dasharray:none;stroke-opacity:1" transform="matrix(1.33333 0 0 -1.33333 0 591.142)"/><path d="M43.778 204.757h-3.5" style="fill:#000;fill-opacity:1;fill-rule:nonzero;stroke:#000;stroke-width:.8;stroke-linecap:butt;stroke-linejoin:round;stroke-miterlimit:10;stroke-dasharray:none;stroke-opacity:1" transform="matrix(1.33333 0 0 -1.33333 0 591.142)"/><text xml:space="preserve" transform="translate(27.83 323.195)scale(1.33333)"><tspan x="0" y="0" style="font-variant:normal;font-weight:400;font-size:10px;font-family:&quot;DejaVu Sans&quot;;writing-mode:lr-tb;fill:#000;fill-opacity:1;fill-rule:nonzero;stroke:none">0.7</tspan></text><path d="M43.778 286.765H711.1" clip-path="url(#l)" style="fill:none;stroke:#e6e6e6;stroke-width:1;stroke-linecap:square;stroke-linejoin:round;stroke-miterlimit:10;stroke-dasharray:none;stroke-opacity:1" transform="matrix(1.33333 0 0 -1.33333 0 591.142)"/><path d="M43.778 286.765h-3.5" style="fill:#000;fill-opacity:1;fill-rule:nonzero;stroke:#000;stroke-width:.8;stroke-linecap:butt;stroke-linejoin:round;stroke-miterlimit:10;stroke-dasharray:none;stroke-opacity:1" transform="matrix(1.33333 0 0 -1.33333 0 591.142)"/><text xml:space="preserve" transform="translate(27.83 213.851)scale(1.33333)"><tspan x="0" y="0" style="font-variant:normal;font-weight:400;font-size:10px;font-family:&quot;DejaVu Sans&quot;;writing-mode:lr-tb;fill:#000;fill-opacity:1;fill-rule:nonzero;stroke:none">0.8</tspan></text><path d="M43.778 368.772H711.1" clip-path="url(#m)" style="fill:none;stroke:#e6e6e6;stroke-width:1;stroke-linecap:square;stroke-linejoin:round;stroke-miterlimit:10;stroke-dasharray:none;stroke-opacity:1" transform="matrix(1.33333 0 0 -1.33333 0 591.142)"/><path d="M43.778 368.772h-3.5" style="fill:#000;fill-opacity:1;fill-rule:nonzero;stroke:#000;stroke-width:.8;stroke-linecap:butt;stroke-linejoin:round;stroke-miterlimit:10;stroke-dasharray:none;stroke-opacity:1" transform="matrix(1.33333 0 0 -1.33333 0 591.142)"/><text xml:space="preserve" transform="translate(27.83 104.508)scale(1.33333)"><tspan x="0" y="0" style="font-variant:normal;font-weight:400;font-size:10px;font-family:&quot;DejaVu Sans&quot;;writing-mode:lr-tb;fill:#000;fill-opacity:1;fill-rule:nonzero;stroke:none">0.9</tspan></text><text xml:space="preserve" transform="rotate(-90 209.367 189.642)scale(1.33333)"><tspan x="0" y="0" style="font-variant:normal;font-weight:400;font-size:10px;font-family:&quot;DejaVu Sans&quot;;writing-mode:lr-tb;fill:#000;fill-opacity:1;fill-rule:nonzero;stroke:none">Proportion of function + target pairs</tspan></text><path d="m74.11 137.511 6.129 106.61 6.128 9.84 12.255 26.243 30.64 32.803 61.278 42.644 61.278 27.883 61.279 8.2 61.278 6.561h61.279l61.278 6.56 61.278 8.201 61.279 1.64h61.278" clip-path="url(#n)" style="fill:none;stroke:#1f77b4;stroke-width:1.5;stroke-linecap:square;stroke-linejoin:round;stroke-miterlimit:10;stroke-dasharray:none;stroke-opacity:1" transform="matrix(1.33333 0 0 -1.33333 0 591.142)"/><g clip-path="url(#o)"><path d="M0-4.243 4.243 0 0 4.243-4.243 0Z" clip-path="url(#p)" style="fill:#1f77b4;fill-opacity:1;fill-rule:nonzero;stroke:#1f77b4;stroke-width:1;stroke-linecap:butt;stroke-linejoin:miter;stroke-miterlimit:10;stroke-dasharray:none;stroke-opacity:1" transform="matrix(1.33333 0 0 -1.33333 98.815 407.794)"/></g><g clip-path="url(#q)"><path d="M0-4.243 4.243 0 0 4.243-4.243 0Z" clip-path="url(#r)" style="fill:#1f77b4;fill-opacity:1;fill-rule:nonzero;stroke:#1f77b4;stroke-width:1;stroke-linecap:butt;stroke-linejoin:miter;stroke-miterlimit:10;stroke-dasharray:none;stroke-opacity:1" transform="matrix(1.33333 0 0 -1.33333 106.985 265.647)"/></g><g clip-path="url(#s)"><path d="M0-4.243 4.243 0 0 4.243-4.243 0Z" clip-path="url(#t)" style="fill:#1f77b4;fill-opacity:1;fill-rule:nonzero;stroke:#1f77b4;stroke-width:1;stroke-linecap:butt;stroke-linejoin:miter;stroke-miterlimit:10;stroke-dasharray:none;stroke-opacity:1" transform="matrix(1.33333 0 0 -1.33333 115.155 252.526)"/></g><g clip-path="url(#u)"><path d="M0-4.243 4.243 0 0 4.243-4.243 0Z" clip-path="url(#v)" style="fill:#1f77b4;fill-opacity:1;fill-rule:nonzero;stroke:#1f77b4;stroke-width:1;stroke-linecap:butt;stroke-linejoin:miter;stroke-miterlimit:10;stroke-dasharray:none;stroke-opacity:1" transform="matrix(1.33333 0 0 -1.33333 131.496 217.536)"/></g><g clip-path="url(#w)"><path d="M0-4.243 4.243 0 0 4.243-4.243 0Z" clip-path="url(#x)" style="fill:#1f77b4;fill-opacity:1;fill-rule:nonzero;stroke:#1f77b4;stroke-width:1;stroke-linecap:butt;stroke-linejoin:miter;stroke-miterlimit:10;stroke-dasharray:none;stroke-opacity:1" transform="matrix(1.33333 0 0 -1.33333 172.349 173.799)"/></g><g clip-path="url(#y)"><path d="M0-4.243 4.243 0 0 4.243-4.243 0Z" clip-path="url(#z)" style="fill:#1f77b4;fill-opacity:1;fill-rule:nonzero;stroke:#1f77b4;stroke-width:1;stroke-linecap:butt;stroke-linejoin:miter;stroke-miterlimit:10;stroke-dasharray:none;stroke-opacity:1" transform="matrix(1.33333 0 0 -1.33333 254.053 116.94)"/></g><g clip-path="url(#A)"><path d="M0-4.243 4.243 0 0 4.243-4.243 0Z" clip-path="url(#B)" style="fill:#1f77b4;fill-opacity:1;fill-rule:nonzero;stroke:#1f77b4;stroke-width:1;stroke-linecap:butt;stroke-linejoin:miter;stroke-miterlimit:10;stroke-dasharray:none;stroke-opacity:1" transform="matrix(1.33333 0 0 -1.33333 335.758 79.763)"/></g><g clip-path="url(#C)"><path d="M0-4.243 4.243 0 0 4.243-4.243 0Z" clip-path="url(#D)" style="fill:#1f77b4;fill-opacity:1;fill-rule:nonzero;stroke:#1f77b4;stroke-width:1;stroke-linecap:butt;stroke-linejoin:miter;stroke-miterlimit:10;stroke-dasharray:none;stroke-opacity:1" transform="matrix(1.33333 0 0 -1.33333 417.462 68.829)"/></g><g clip-path="url(#E)"><path d="M0-4.243 4.243 0 0 4.243-4.243 0Z" clip-path="url(#F)" style="fill:#1f77b4;fill-opacity:1;fill-rule:nonzero;stroke:#1f77b4;stroke-width:1;stroke-linecap:butt;stroke-linejoin:miter;stroke-miterlimit:10;stroke-dasharray:none;stroke-opacity:1" transform="matrix(1.33333 0 0 -1.33333 499.167 60.082)"/></g><g clip-path="url(#G)"><path d="M0-4.243 4.243 0 0 4.243-4.243 0Z" clip-path="url(#H)" style="fill:#1f77b4;fill-opacity:1;fill-rule:nonzero;stroke:#1f77b4;stroke-width:1;stroke-linecap:butt;stroke-linejoin:miter;stroke-miterlimit:10;stroke-dasharray:none;stroke-opacity:1" transform="matrix(1.33333 0 0 -1.33333 580.871 60.082)"/></g><g clip-path="url(#I)"><path d="M0-4.243 4.243 0 0 4.243-4.243 0Z" clip-path="url(#J)" style="fill:#1f77b4;fill-opacity:1;fill-rule:nonzero;stroke:#1f77b4;stroke-width:1;stroke-linecap:butt;stroke-linejoin:miter;stroke-miterlimit:10;stroke-dasharray:none;stroke-opacity:1" transform="matrix(1.33333 0 0 -1.33333 662.576 51.334)"/></g><g clip-path="url(#K)"><path d="M0-4.243 4.243 0 0 4.243-4.243 0Z" clip-path="url(#L)" style="fill:#1f77b4;fill-opacity:1;fill-rule:nonzero;stroke:#1f77b4;stroke-width:1;stroke-linecap:butt;stroke-linejoin:miter;stroke-miterlimit:10;stroke-dasharray:none;stroke-opacity:1" transform="matrix(1.33333 0 0 -1.33333 744.28 40.4)"/></g><g clip-path="url(#M)"><path d="M0-4.243 4.243 0 0 4.243-4.243 0Z" clip-path="url(#N)" style="fill:#1f77b4;fill-opacity:1;fill-rule:nonzero;stroke:#1f77b4;stroke-width:1;stroke-linecap:butt;stroke-linejoin:miter;stroke-miterlimit:10;stroke-dasharray:none;stroke-opacity:1" transform="matrix(1.33333 0 0 -1.33333 825.985 38.213)"/></g><g clip-path="url(#O)"><path d="M0-4.243 4.243 0 0 4.243-4.243 0Z" clip-path="url(#P)" style="fill:#1f77b4;fill-opacity:1;fill-rule:nonzero;stroke:#1f77b4;stroke-width:1;stroke-linecap:butt;stroke-linejoin:miter;stroke-miterlimit:10;stroke-dasharray:none;stroke-opacity:1" transform="matrix(1.33333 0 0 -1.33333 907.69 38.213)"/></g><path d="M74.11 114.549 80.24 250.68l6.128 32.803 12.255 37.724 30.64 39.364 61.278 24.602 61.278 11.48 61.279 4.921 61.278 3.28 61.279 6.561h61.278l61.278 1.64 61.279 1.64h61.278" clip-path="url(#Q)" style="fill:none;stroke:#ff7f0e;stroke-width:1.5;stroke-linecap:butt;stroke-linejoin:round;stroke-miterlimit:10;stroke-dasharray:5.55,2.4;stroke-dashoffset:0;stroke-opacity:1" transform="matrix(1.33333 0 0 -1.33333 0 591.142)"/><g clip-path="url(#R)"><path d="M0-3a3 3 0 1 1 0 6 3 3 0 0 1 0-6Z" clip-path="url(#S)" style="fill:#ff7f0e;fill-opacity:1;fill-rule:nonzero;stroke:#ff7f0e;stroke-width:1;stroke-linecap:butt;stroke-linejoin:round;stroke-miterlimit:10;stroke-dasharray:none;stroke-opacity:1" transform="matrix(1.33333 0 0 -1.33333 98.815 438.41)"/></g><g clip-path="url(#T)"><path d="M0-3a3 3 0 1 1 0 6 3 3 0 0 1 0-6Z" clip-path="url(#U)" style="fill:#ff7f0e;fill-opacity:1;fill-rule:nonzero;stroke:#ff7f0e;stroke-width:1;stroke-linecap:butt;stroke-linejoin:round;stroke-miterlimit:10;stroke-dasharray:none;stroke-opacity:1" transform="matrix(1.33333 0 0 -1.33333 106.985 256.9)"/></g><g clip-path="url(#V)"><path d="M0-3a3 3 0 1 1 0 6 3 3 0 0 1 0-6Z" clip-path="url(#W)" style="fill:#ff7f0e;fill-opacity:1;fill-rule:nonzero;stroke:#ff7f0e;stroke-width:1;stroke-linecap:butt;stroke-linejoin:round;stroke-miterlimit:10;stroke-dasharray:none;stroke-opacity:1" transform="matrix(1.33333 0 0 -1.33333 115.155 213.162)"/></g><g clip-path="url(#X)"><path d="M0-3a3 3 0 1 1 0 6 3 3 0 0 1 0-6Z" clip-path="url(#Y)" style="fill:#ff7f0e;fill-opacity:1;fill-rule:nonzero;stroke:#ff7f0e;stroke-width:1;stroke-linecap:butt;stroke-linejoin:round;stroke-miterlimit:10;stroke-dasharray:none;stroke-opacity:1" transform="matrix(1.33333 0 0 -1.33333 131.496 162.864)"/></g><g clip-path="url(#Z)"><path d="M0-3a3 3 0 1 1 0 6 3 3 0 0 1 0-6Z" clip-path="url(#aa)" style="fill:#ff7f0e;fill-opacity:1;fill-rule:nonzero;stroke:#ff7f0e;stroke-width:1;stroke-linecap:butt;stroke-linejoin:round;stroke-miterlimit:10;stroke-dasharray:none;stroke-opacity:1" transform="matrix(1.33333 0 0 -1.33333 172.349 110.38)"/></g><g clip-path="url(#ab)"><path d="M0-3a3 3 0 1 1 0 6 3 3 0 0 1 0-6Z" clip-path="url(#ac)" style="fill:#ff7f0e;fill-opacity:1;fill-rule:nonzero;stroke:#ff7f0e;stroke-width:1;stroke-linecap:butt;stroke-linejoin:round;stroke-miterlimit:10;stroke-dasharray:none;stroke-opacity:1" transform="matrix(1.33333 0 0 -1.33333 254.053 77.577)"/></g><g clip-path="url(#ad)"><path d="M0-3a3 3 0 1 1 0 6 3 3 0 0 1 0-6Z" clip-path="url(#ae)" style="fill:#ff7f0e;fill-opacity:1;fill-rule:nonzero;stroke:#ff7f0e;stroke-width:1;stroke-linecap:butt;stroke-linejoin:round;stroke-miterlimit:10;stroke-dasharray:none;stroke-opacity:1" transform="matrix(1.33333 0 0 -1.33333 335.758 62.268)"/></g><g clip-path="url(#af)"><path d="M0-3a3 3 0 1 1 0 6 3 3 0 0 1 0-6Z" clip-path="url(#ag)" style="fill:#ff7f0e;fill-opacity:1;fill-rule:nonzero;stroke:#ff7f0e;stroke-width:1;stroke-linecap:butt;stroke-linejoin:round;stroke-miterlimit:10;stroke-dasharray:none;stroke-opacity:1" transform="matrix(1.33333 0 0 -1.33333 417.462 55.708)"/></g><g clip-path="url(#ah)"><path d="M0-3a3 3 0 1 1 0 6 3 3 0 0 1 0-6Z" clip-path="url(#ai)" style="fill:#ff7f0e;fill-opacity:1;fill-rule:nonzero;stroke:#ff7f0e;stroke-width:1;stroke-linecap:butt;stroke-linejoin:round;stroke-miterlimit:10;stroke-dasharray:none;stroke-opacity:1" transform="matrix(1.33333 0 0 -1.33333 499.167 51.334)"/></g><g clip-path="url(#aj)"><path d="M0-3a3 3 0 1 1 0 6 3 3 0 0 1 0-6Z" clip-path="url(#ak)" style="fill:#ff7f0e;fill-opacity:1;fill-rule:nonzero;stroke:#ff7f0e;stroke-width:1;stroke-linecap:butt;stroke-linejoin:round;stroke-miterlimit:10;stroke-dasharray:none;stroke-opacity:1" transform="matrix(1.33333 0 0 -1.33333 580.871 42.587)"/></g><g clip-path="url(#al)"><path d="M0-3a3 3 0 1 1 0 6 3 3 0 0 1 0-6Z" clip-path="url(#am)" style="fill:#ff7f0e;fill-opacity:1;fill-rule:nonzero;stroke:#ff7f0e;stroke-width:1;stroke-linecap:butt;stroke-linejoin:round;stroke-miterlimit:10;stroke-dasharray:none;stroke-opacity:1" transform="matrix(1.33333 0 0 -1.33333 662.576 42.587)"/></g><g clip-path="url(#an)"><path d="M0-3a3 3 0 1 1 0 6 3 3 0 0 1 0-6Z" clip-path="url(#ao)" style="fill:#ff7f0e;fill-opacity:1;fill-rule:nonzero;stroke:#ff7f0e;stroke-width:1;stroke-linecap:butt;stroke-linejoin:round;stroke-miterlimit:10;stroke-dasharray:none;stroke-opacity:1" transform="matrix(1.33333 0 0 -1.33333 744.28 40.4)"/></g><g clip-path="url(#ap)"><path d="M0-3a3 3 0 1 1 0 6 3 3 0 0 1 0-6Z" clip-path="url(#aq)" style="fill:#ff7f0e;fill-opacity:1;fill-rule:nonzero;stroke:#ff7f0e;stroke-width:1;stroke-linecap:butt;stroke-linejoin:round;stroke-miterlimit:10;stroke-dasharray:none;stroke-opacity:1" transform="matrix(1.33333 0 0 -1.33333 825.985 38.213)"/></g><g clip-path="url(#ar)"><path d="M0-3a3 3 0 1 1 0 6 3 3 0 0 1 0-6Z" clip-path="url(#as)" style="fill:#ff7f0e;fill-opacity:1;fill-rule:nonzero;stroke:#ff7f0e;stroke-width:1;stroke-linecap:butt;stroke-linejoin:round;stroke-miterlimit:10;stroke-dasharray:none;stroke-opacity:1" transform="matrix(1.33333 0 0 -1.33333 907.69 38.213)"/></g><path d="m74.11 55.503 6.129 149.254 6.128 63.966 12.255 19.682 30.64 21.322 61.278 16.401 61.278 19.682 61.279 3.28 61.278 4.921 61.279 6.56 61.278 1.64 61.278 8.201 61.279 8.201 61.278 13.121" clip-path="url(#at)" style="fill:none;stroke:#2ca02c;stroke-width:1.5;stroke-linecap:butt;stroke-linejoin:round;stroke-miterlimit:10;stroke-dasharray:9.6,2.4,1.5,2.4;stroke-dashoffset:0;stroke-opacity:1" transform="matrix(1.33333 0 0 -1.33333 0 591.142)"/><g clip-path="url(#au)"><path d="m0 3-3-6h6Z" clip-path="url(#av)" style="fill:#2ca02c;fill-opacity:1;fill-rule:nonzero;stroke:#2ca02c;stroke-width:1;stroke-linecap:butt;stroke-linejoin:miter;stroke-miterlimit:10;stroke-dasharray:none;stroke-opacity:1" transform="matrix(1.33333 0 0 -1.33333 98.815 517.137)"/></g><g clip-path="url(#aw)"><path d="m0 3-3-6h6Z" clip-path="url(#ax)" style="fill:#2ca02c;fill-opacity:1;fill-rule:nonzero;stroke:#2ca02c;stroke-width:1;stroke-linecap:butt;stroke-linejoin:miter;stroke-miterlimit:10;stroke-dasharray:none;stroke-opacity:1" transform="matrix(1.33333 0 0 -1.33333 106.985 318.132)"/></g><g clip-path="url(#ay)"><path d="m0 3-3-6h6Z" clip-path="url(#az)" style="fill:#2ca02c;fill-opacity:1;fill-rule:nonzero;stroke:#2ca02c;stroke-width:1;stroke-linecap:butt;stroke-linejoin:miter;stroke-miterlimit:10;stroke-dasharray:none;stroke-opacity:1" transform="matrix(1.33333 0 0 -1.33333 115.155 232.844)"/></g><g clip-path="url(#aA)"><path d="m0 3-3-6h6Z" clip-path="url(#aB)" style="fill:#2ca02c;fill-opacity:1;fill-rule:nonzero;stroke:#2ca02c;stroke-width:1;stroke-linecap:butt;stroke-linejoin:miter;stroke-miterlimit:10;stroke-dasharray:none;stroke-opacity:1" transform="matrix(1.33333 0 0 -1.33333 131.496 206.602)"/></g><g clip-path="url(#aC)"><path d="m0 3-3-6h6Z" clip-path="url(#aD)" style="fill:#2ca02c;fill-opacity:1;fill-rule:nonzero;stroke:#2ca02c;stroke-width:1;stroke-linecap:butt;stroke-linejoin:miter;stroke-miterlimit:10;stroke-dasharray:none;stroke-opacity:1" transform="matrix(1.33333 0 0 -1.33333 172.349 178.172)"/></g><g clip-path="url(#aE)"><path d="m0 3-3-6h6Z" clip-path="url(#aF)" style="fill:#2ca02c;fill-opacity:1;fill-rule:nonzero;stroke:#2ca02c;stroke-width:1;stroke-linecap:butt;stroke-linejoin:miter;stroke-miterlimit:10;stroke-dasharray:none;stroke-opacity:1" transform="matrix(1.33333 0 0 -1.33333 254.053 156.304)"/></g><g clip-path="url(#aG)"><path d="m0 3-3-6h6Z" clip-path="url(#aH)" style="fill:#2ca02c;fill-opacity:1;fill-rule:nonzero;stroke:#2ca02c;stroke-width:1;stroke-linecap:butt;stroke-linejoin:miter;stroke-miterlimit:10;stroke-dasharray:none;stroke-opacity:1" transform="matrix(1.33333 0 0 -1.33333 335.758 130.061)"/></g><g clip-path="url(#aI)"><path d="m0 3-3-6h6Z" clip-path="url(#aJ)" style="fill:#2ca02c;fill-opacity:1;fill-rule:nonzero;stroke:#2ca02c;stroke-width:1;stroke-linecap:butt;stroke-linejoin:miter;stroke-miterlimit:10;stroke-dasharray:none;stroke-opacity:1" transform="matrix(1.33333 0 0 -1.33333 417.462 125.688)"/></g><g clip-path="url(#aK)"><path d="m0 3-3-6h6Z" clip-path="url(#aL)" style="fill:#2ca02c;fill-opacity:1;fill-rule:nonzero;stroke:#2ca02c;stroke-width:1;stroke-linecap:butt;stroke-linejoin:miter;stroke-miterlimit:10;stroke-dasharray:none;stroke-opacity:1" transform="matrix(1.33333 0 0 -1.33333 499.167 119.127)"/></g><g clip-path="url(#aM)"><path d="m0 3-3-6h6Z" clip-path="url(#aN)" style="fill:#2ca02c;fill-opacity:1;fill-rule:nonzero;stroke:#2ca02c;stroke-width:1;stroke-linecap:butt;stroke-linejoin:miter;stroke-miterlimit:10;stroke-dasharray:none;stroke-opacity:1" transform="matrix(1.33333 0 0 -1.33333 580.871 110.38)"/></g><g clip-path="url(#aO)"><path d="m0 3-3-6h6Z" clip-path="url(#aP)" style="fill:#2ca02c;fill-opacity:1;fill-rule:nonzero;stroke:#2ca02c;stroke-width:1;stroke-linecap:butt;stroke-linejoin:miter;stroke-miterlimit:10;stroke-dasharray:none;stroke-opacity:1" transform="matrix(1.33333 0 0 -1.33333 662.576 108.193)"/></g><g clip-path="url(#aQ)"><path d="m0 3-3-6h6Z" clip-path="url(#aR)" style="fill:#2ca02c;fill-opacity:1;fill-rule:nonzero;stroke:#2ca02c;stroke-width:1;stroke-linecap:butt;stroke-linejoin:miter;stroke-miterlimit:10;stroke-dasharray:none;stroke-opacity:1" transform="matrix(1.33333 0 0 -1.33333 744.28 97.258)"/></g><g clip-path="url(#aS)"><path d="m0 3-3-6h6Z" clip-path="url(#aT)" style="fill:#2ca02c;fill-opacity:1;fill-rule:nonzero;stroke:#2ca02c;stroke-width:1;stroke-linecap:butt;stroke-linejoin:miter;stroke-miterlimit:10;stroke-dasharray:none;stroke-opacity:1" transform="matrix(1.33333 0 0 -1.33333 825.985 86.324)"/></g><g clip-path="url(#aU)"><path d="m0 3-3-6h6Z" clip-path="url(#aV)" style="fill:#2ca02c;fill-opacity:1;fill-rule:nonzero;stroke:#2ca02c;stroke-width:1;stroke-linecap:butt;stroke-linejoin:miter;stroke-miterlimit:10;stroke-dasharray:none;stroke-opacity:1" transform="matrix(1.33333 0 0 -1.33333 907.69 68.829)"/></g><path d="M633.381 42.544H704.1q2 0 2 2v43.015q0 2-2 2h-70.719q-2 0-2-2V44.544q0-2 2-2z" style="fill:#fff;fill-opacity:.8;fill-rule:nonzero;stroke:#ccc;stroke-width:1;stroke-linecap:butt;stroke-linejoin:miter;stroke-miterlimit:10;stroke-dasharray:none;stroke-opacity:.8" transform="matrix(1.33333 0 0 -1.33333 0 591.142)"/><path d="M635.381 81.466h20" style="fill:none;stroke:#1f77b4;stroke-width:1.5;stroke-linecap:square;stroke-linejoin:round;stroke-miterlimit:10;stroke-dasharray:none;stroke-opacity:1" transform="matrix(1.33333 0 0 -1.33333 0 591.142)"/><path d="m645.381 77.223 4.243 4.243-4.243 4.242-4.242-4.242z" style="fill:#1f77b4;fill-opacity:1;fill-rule:nonzero;stroke:#1f77b4;stroke-width:1;stroke-linecap:butt;stroke-linejoin:miter;stroke-miterlimit:10;stroke-dasharray:none;stroke-opacity:1" transform="matrix(1.33333 0 0 -1.33333 0 591.142)"/><text xml:space="preserve" transform="translate(884.508 487.187)scale(1.33333)"><tspan x="0" y="0" style="font-variant:normal;font-weight:400;font-size:10px;font-family:&quot;DejaVu Sans&quot;;writing-mode:lr-tb;fill:#000;fill-opacity:1;fill-rule:nonzero;stroke:none">DES</tspan></text><path d="M635.381 66.794h20" style="fill:none;stroke:#ff7f0e;stroke-width:1.5;stroke-linecap:butt;stroke-linejoin:round;stroke-miterlimit:10;stroke-dasharray:5.55,2.4;stroke-dashoffset:0;stroke-opacity:1" transform="matrix(1.33333 0 0 -1.33333 0 591.142)"/><path d="M645.381 63.794a3 3 0 1 1 0 6 3 3 0 0 1 0-6z" style="fill:#ff7f0e;fill-opacity:1;fill-rule:nonzero;stroke:#ff7f0e;stroke-width:1;stroke-linecap:butt;stroke-linejoin:round;stroke-miterlimit:10;stroke-dasharray:none;stroke-opacity:1" transform="matrix(1.33333 0 0 -1.33333 0 591.142)"/><text xml:space="preserve" transform="translate(884.508 506.75)scale(1.33333)"><tspan x="0" y="0" style="font-variant:normal;font-weight:400;font-size:10px;font-family:&quot;DejaVu Sans&quot;;writing-mode:lr-tb;fill:#000;fill-opacity:1;fill-rule:nonzero;stroke:none">CMA-ES</tspan></text><path d="M635.381 52.122h20" style="fill:none;stroke:#2ca02c;stroke-width:1.5;stroke-linecap:butt;stroke-linejoin:round;stroke-miterlimit:10;stroke-dasharray:9.6,2.4,1.5,2.4;stroke-dashoffset:0;stroke-opacity:1" transform="matrix(1.33333 0 0 -1.33333 0 591.142)"/><path d="m645.381 55.122-3-6h6z" style="fill:#2ca02c;fill-opacity:1;fill-rule:nonzero;stroke:#2ca02c;stroke-width:1;stroke-linecap:butt;stroke-linejoin:miter;stroke-miterlimit:10;stroke-dasharray:none;stroke-opacity:1" transform="matrix(1.33333 0 0 -1.33333 0 591.142)"/><text xml:space="preserve" transform="translate(884.508 526.312)scale(1.33333)"><tspan x="0" y="0" style="font-variant:normal;font-weight:400;font-size:10px;font-family:&quot;DejaVu Sans&quot;;writing-mode:lr-tb;fill:#000;fill-opacity:1;fill-rule:nonzero;stroke:none">jSO</tspan></text></svg>