<svg xmlns="http://www.w3.org/2000/svg" width="962.4" height="591.142" viewBox="0 0 962.4 591.142"><defs><clipPath id="a" clipPathUnits="userSpaceOnUse"><path d="M37.966 28.872H711.1v405.284H37.966Z"/></clipPath><clipPath id="b" clipPathUnits="userSpaceOnUse"><path d="M37.966 28.872H711.1v405.284H37.966Z"/></clipPath><clipPath id="c" clipPathUnits="userSpaceOnUse"><path d="M37.966 28.872H711.1v405.284H37.966Z"/></clipPath><clipPath id="d" clipPathUnits="userSpaceOnUse"><path d="M37.966 28.872H711.1v405.284H37.966Z"/></clipPath><clipPath id="e" clipPathUnits="userSpaceOnUse"><path d="M37.966 28.872H711.1v405.284H37.966Z"/></clipPath><clipPath id="f" clipPathUnits="userSpaceOnUse"><path d="M37.966 28.872H711.1v405.284H37.966Z"/></clipPath><clipPath id="g" clipPathUnits="userSpaceOnUse"><path d="M37.966 28.872H711.1v405.284H37.966Z"/></clipPath><clipPath id="h" clipPathUnits="userSpaceOnUse"><path d="M37.966 28.872H711.1v405.284H37.966Z"/></clipPath><clipPath id="i" clipPathUnits="userSpaceOnUse"><path d="M37.966 28.872H711.1v405.284H37.966Z"/></clipPath><clipPath id="j" clipPathUnits="userSpaceOnUse"><path d="M37.966 28.872H711.1v405.284H37.966Z"/></clipPath><clipPath id="k" clipPathUnits="userSpaceOnUse"><path d="M37.966 28.872H711.1v405.284H37.966Z"/></clipPath><clipPath id="l" clipPathUnits="userSpaceOnUse"><path d="M37.966 28.872H711.1v405.284H37.966Z"/></clipPath><clipPath id="m" clipPathUnits="userSpaceOnUse"><path d="M37.966 28.872H711.1v405.284H37.966Z"/></clipPath><clipPath id="n" clipPathUnits="userSpaceOnUse"><path d="M37.966 28.872H711.1v405.284H37.966Z"/></clipPath><clipPath id="o" clipPathUnits="userSpaceOnUse"><path d="M37.966 28.872H711.1v405.284H37.966Z"/></clipPath><clipPath id="p" clipPathUnits="userSpaceOnUse"><path d="M37.966 28.872H711.1v405.284H37.966Z"/></clipPath><clipPath id="q" clipPathUnits="userSpaceOnUse"><path d="M37.966 28.872H711.1v405.284H37.966Z"/></clipPath><clipPath id="r" clipPathUnits="userSpaceOnUse"><path d="M37.966 28.872H711.1v405.284H37.966Z"/></clipPath><clipPath id="s" clipPathUnits="userSpaceOnUse"><path d="M37.966 28.872H711.1v405.284H37.966Z"/></clipPath><clipPath id="t" clipPathUnits="userSpaceOnUse"><path d="M37.966 28.872H711.1v405.284H37.966Z"/></clipPath><clipPath id="u" clipPathUnits="userSpaceOnUse"><path d="M37.966 28.872H711.1v405.284H37.966Z"/></clipPath><clipPath id="v" clipPathUnits="userSpaceOnUse"><path d="M37.966 28.872H711.1v405.284H37.966Z"/></clipPath><clipPath id="w" clipPathUnits="userSpaceOnUse"><path d="M37.966 28.872H711.1v405.284H37.966Z"/></clipPath><clipPath id="y" clipPathUnits="userSpaceOnUse"><path d="M-3.5-3.5h7v7h-7z"/></clipPath><clipPath id="x" clipPathUnits="userSpaceOnUse"><path d="M50.62 552.646h897.513V12.266H50.621Z"/></clipPath><clipPath id="A" clipPathUnits="userSpaceOnUse"><path d="M-3.5-3.5h7v7h-7z"/></clipPath><clipPath id="z" clipPathUnits="userSpaceOnUse"><path d="M50.62 552.646h897.513V12.266H50.621Z"/></clipPath><clipPath id="C" clipPathUnits="userSpaceOnUse"><path d="M-3.5-3.5h7v7h-7z"/></clipPath><clipPath id="B" clipPathUnits="userSpaceOnUse"><path d="M50.62 552.646h897.513V12.266H50.621Z"/></clipPath><clipPath id="E" clipPathUnits="userSpaceOnUse"><path d="M-3.5-3.5h7v7h-7z"/></clipPath><clipPath id="D" clipPathUnits="userSpaceOnUse"><path d="M50.62 552.646h897.513V12.266H50.621Z"/></clipPath><clipPath id="G" clipPathUnits="userSpaceOnUse"><path d="M-3.5-3.5h7v7h-7z"/></clipPath><clipPath id="F" clipPathUnits="userSpaceOnUse"><path d="M50.62 552.646h897.513V12.266H50.621Z"/></clipPath><clipPath id="I" clipPathUnits="userSpaceOnUse"><path d="M-3.5-3.5h7v7h-7z"/></clipPath><clipPath id="H" clipPathUnits="userSpaceOnUse"><path d="M50.62 552.646h897.513V12.266H50.621Z"/></clipPath><clipPath id="K" clipPathUnits="userSpaceOnUse"><path d="M-3.5-3.5h7v7h-7z"/></clipPath><clipPath id="J" clipPathUnits="userSpaceOnUse"><path d="M50.62 552.646h897.513V12.266H50.621Z"/></clipPath><clipPath id="M" clipPathUnits="userSpaceOnUse"><path d="M-3.5-3.5h7v7h-7z"/></clipPath><clipPath id="L" clipPathUnits="userSpaceOnUse"><path d="M50.62 552.646h897.513V12.266H50.621Z"/></clipPath><clipPath id="O" clipPathUnits="userSpaceOnUse"><path d="M-3.5-3.5h7v7h-7z"/></clipPath><clipPath id="N" clipPathUnits="userSpaceOnUse"><path d="M50.62 552.646h897.513V12.266H50.621Z"/></clipPath><clipPath id="Q" clipPathUnits="userSpaceOnUse"><path d="M-3.5-3.5h7v7h-7z"/></clipPath><clipPath id="P" clipPathUnits="userSpaceOnUse"><path d="M50.62 552.646h897.513V12.266H50.621Z"/></clipPath><clipPath id="S" clipPathUnits="userSpaceOnUse"><path d="M-3.5-3.5h7v7h-7z"/></clipPath><clipPath id="R" clipPathUnits="userSpaceOnUse"><path d="M50.62 552.646h897.513V12.266H50.621Z"/></clipPath><clipPath id="U" clipPathUnits="userSpaceOnUse"><path d="M-3.5-3.5h7v7h-7z"/></clipPath><clipPath id="T" clipPathUnits="userSpaceOnUse"><path d="M50.62 552.646h897.513V12.266H50.621Z"/></clipPath><clipPath id="W" clipPathUnits="userSpaceOnUse"><path d="M-3.5-3.5h7v7h-7z"/></clipPath><clipPath id="V" clipPathUnits="userSpaceOnUse"><path d="M50.62 552.646h897.513V12.266H50.621Z"/></clipPath><clipPath id="Y" clipPathUnits="userSpaceOnUse"><path d="M-3.5-3.5h7v7h-7z"/></clipPath><clipPath id="X" clipPathUnits="userSpaceOnUse"><path d="M50.62 552.646h897.513V12.266H50.621Z"/></clipPath><clipPath id="aa" clipPathUnits="userSpaceOnUse"><path d="M-3.5-3.5h7v7h-7z"/></clipPath><clipPath id="Z" clipPathUnits="userSpaceOnUse"><path d="M50.62 552.646h897.513V12.266H50.621Z"/></clipPath><clipPath id="ac" clipPathUnits="userSpaceOnUse"><path d="M-3.5-3.5h7v7h-7z"/></clipPath><clipPath id="ab" clipPathUnits="userSpaceOnUse"><path d="M50.62 552.646h897.513V12.266H50.621Z"/></clipPath><clipPath id="ae" clipPathUnits="userSpaceOnUse"><path d="M-3.5-3.5h7v7h-7z"/></clipPath><clipPath id="ad" clipPathUnits="userSpaceOnUse"><path d="M50.62 552.646h897.513V12.266H50.621Z"/></clipPath><clipPath id="ag" clipPathUnits="userSpaceOnUse"><path d="M-3.5-3.5h7v7h-7z"/></clipPath><clipPath id="af" clipPathUnits="userSpaceOnUse"><path d="M50.62 552.646h897.513V12.266H50.621Z"/></clipPath><clipPath id="ai" clipPathUnits="userSpaceOnUse"><path d="M-3.5-3.5h7v7h-7z"/></clipPath><clipPath id="ah" clipPathUnits="userSpaceOnUse"><path d="M50.62 552.646h897.513V12.266H50.621Z"/></clipPath><clipPath id="ak" clipPathUnits="userSpaceOnUse"><path d="M-3.5-3.5h7v7h-7z"/></clipPath><clipPath id="aj" clipPathUnits="userSpaceOnUse"><path d="M50.62 552.646h897.513V12.266H50.621Z"/></clipPath><clipPath id="am" clipPathUnits="userSpaceOnUse"><path d="M-3.5-3.5h7v7h-7z"/></clipPath><clipPath id="al" clipPathUnits="userSpaceOnUse"><path d="M50.62 552.646h897.513V12.266H50.621Z"/></clipPath><clipPath id="ao" clipPathUnits="userSpaceOnUse"><path d="M-3.5-3.5h7v7h-7z"/></clipPath><clipPath id="an" clipPathUnits="userSpaceOnUse"><path d="M50.62 552.646h897.513V12.266H50.621Z"/></clipPath><clipPath id="aq" clipPathUnits="userSpaceOnUse"><path d="M-3.5-3.5h7v7h-7z"/></clipPath><clipPath id="ap" clipPathUnits="userSpaceOnUse"><path d="M50.62 552.646h897.513V12.266H50.621Z"/></clipPath><clipPath id="as" clipPathUnits="userSpaceOnUse"><path d="M-3.5-3.5h7v7h-7z"/></clipPath><clipPath id="ar" clipPathUnits="userSpaceOnUse"><path d="M50.62 552.646h897.513V12.266H50.621Z"/></clipPath><clipPath id="au" clipPathUnits="userSpaceOnUse"><path d="M-3.5-3.5h7v7h-7z"/></clipPath><clipPath id="at" clipPathUnits="userSpaceOnUse"><path d="M50.62 552.646h897.513V12.266H50.621Z"/></clipPath><clipPath id="aw" clipPathUnits="userSpaceOnUse"><path d="M-3.5-3.5h7v7h-7z"/></clipPath><clipPath id="av" clipPathUnits="userSpaceOnUse"><path d="M50.62 552.646h897.513V12.266H50.621Z"/></clipPath><clipPath id="ay" clipPathUnits="userSpaceOnUse"><path d="M-3.5-3.5h7v7h-7z"/></clipPath><clipPath id="ax" clipPathUnits="userSpaceOnUse"><path d="M50.62 552.646h897.513V12.266H50.621Z"/></clipPath><clipPath id="aA" clipPathUnits="userSpaceOnUse"><path d="M-3.5-3.5h7v7h-7z"/></clipPath><clipPath id="az" clipPathUnits="userSpaceOnUse"><path d="M50.62 552.646h897.513V12.266H50.621Z"/></clipPath><clipPath id="aC" clipPathUnits="userSpaceOnUse"><path d="M-3.5-3.5h7v7h-7z"/></clipPath><clipPath id="aB" clipPathUnits="userSpaceOnUse"><path d="M50.62 552.646h897.513V12.266H50.621Z"/></clipPath><clipPath id="aE" clipPathUnits="userSpaceOnUse"><path d="M-3.5-3.5h7v7h-7z"/></clipPath><clipPath id="aD" clipPathUnits="userSpaceOnUse"><path d="M50.62 552.646h897.513V12.266H50.621Z"/></clipPath></defs><path d="M0 0h721.8v443.356H0Z" style="fill:#fff;fill-opacity:1;fill-rule:nonzero;stroke:none" transform="matrix(1.33333 0 0 -1.33333 0 591.142)"/><path d="M37.966 28.872H711.1v405.284H37.966Z" style="fill:#fff;fill-opacity:1;fill-rule:nonzero;stroke:none" transform="matrix(1.33333 0 0 -1.33333 0 591.142)"/><path d="M150.155 23.872v-3.5" style="fill:#000;fill-opacity:1;fill-rule:nonzero;stroke:#000;stroke-width:.8;stroke-linecap:butt;stroke-linejoin:round;stroke-miterlimit:10;stroke-dasharray:none;stroke-opacity:1" transform="matrix(1.33333 0 0 -1.33333 0 591.142)"/><text xml:space="preserve" transform="translate(186.633 578.77)scale(1.33333)"><tspan x="0" y="0" style="font-variant:normal;font-weight:400;font-size:10px;font-family:&quot;DejaVu Sans&quot;;writing-mode:lr-tb;fill:#000;fill-opacity:1;fill-rule:nonzero;stroke:none">DES</tspan></text><path d="M374.533 23.872v-3.5" style="fill:#000;fill-opacity:1;fill-rule:nonzero;stroke:#000;stroke-width:.8;stroke-linecap:butt;stroke-linejoin:round;stroke-miterlimit:10;stroke-dasharray:none;stroke-opacity:1" transform="matrix(1.33333 0 0 -1.33333 0 591.142)"/><text xml:space="preserve" transform="translate(473.565 578.77)scale(1.33333)"><tspan x="0" y="0" style="font-variant:normal;font-weight:400;font-size:10px;font-family:&quot;DejaVu Sans&quot;;writing-mode:lr-tb;fill:#000;fill-opacity:1;fill-rule:nonzero;stroke:none">CMA-ES</tspan></text><path d="M598.91 23.872v-3.5" style="fill:#000;fill-opacity:1;fill-rule:nonzero;stroke:#000;stroke-width:.8;stroke-linecap:butt;stroke-linejoin:round;stroke-miterlimit:10;stroke-dasharray:none;stroke-opacity:1" transform="matrix(1.33333 0 0 -1.33333 0 591.142)"/><text xml:space="preserve" transform="translate(787.215 578.77)scale(1.33333)"><tspan x="0" y="0" style="font-variant:normal;font-weight:400;font-size:10px;font-family:&quot;DejaVu Sans&quot;;writing-mode:lr-tb;fill:#000;fill-opacity:1;fill-rule:nonzero;stroke:none">jSO</tspan></text><path d="M37.966 84.967H711.1" clip-path="url(#a)" style="fill:none;stroke:#e6e6e6;stroke-width:1;stroke-linecap:square;stroke-linejoin:round;stroke-miterlimit:10;stroke-dasharray:none;stroke-opacity:1" transform="matrix(1.33333 0 0 -1.33333 0 591.142)"/><text xml:space="preserve" transform="translate(9.6 482.915)scale(1.33333)"><tspan x="0" y="0" style="font-variant:normal;font-weight:400;font-size:10px;font-family:&quot;DejaVu Sans&quot;;writing-mode:lr-tb;fill:#000;fill-opacity:1;fill-rule:nonzero;stroke:none">0.16</tspan></text><path d="M37.966 150.782H711.1" clip-path="url(#b)" style="fill:none;stroke:#e6e6e6;stroke-width:1;stroke-linecap:square;stroke-linejoin:round;stroke-miterlimit:10;stroke-dasharray:none;stroke-opacity:1" transform="matrix(1.33333 0 0 -1.33333 0 591.142)"/><text xml:space="preserve" transform="translate(9.6 395.162)scale(1.33333)"><tspan x="0" y="0" style="font-variant:normal;font-weight:400;font-size:10px;font-family:&quot;DejaVu Sans&quot;;writing-mode:lr-tb;fill:#000;fill-opacity:1;fill-rule:nonzero;stroke:none">0.17</tspan></text><path d="M37.966 216.597H711.1" clip-path="url(#c)" style="fill:none;stroke:#e6e6e6;stroke-width:1;stroke-linecap:square;stroke-linejoin:round;stroke-miterlimit:10;stroke-dasharray:none;stroke-opacity:1" transform="matrix(1.33333 0 0 -1.33333 0 591.142)"/><text xml:space="preserve" transform="translate(9.6 307.409)scale(1.33333)"><tspan x="0" y="0" style="font-variant:normal;font-weight:400;font-size:10px;font-family:&quot;DejaVu Sans&quot;;writing-mode:lr-tb;fill:#000;fill-opacity:1;fill-rule:nonzero;stroke:none">0.18</tspan></text><path d="M37.966 282.412H711.1" clip-path="url(#d)" style="fill:none;stroke:#e6e6e6;stroke-width:1;stroke-linecap:square;stroke-linejoin:round;stroke-miterlimit:10;stroke-dasharray:none;stroke-opacity:1" transform="matrix(1.33333 0 0 -1.33333 0 591.142)"/><text xml:space="preserve" transform="translate(9.6 219.655)scale(1.33333)"><tspan x="0" y="0" style="font-variant:normal;font-weight:400;font-size:10px;font-family:&quot;DejaVu Sans&quot;;writing-mode:lr-tb;fill:#000;fill-opacity:1;fill-rule:nonzero;stroke:none">0.19</tspan></text><path d="M37.966 348.227H711.1" clip-path="url(#e)" style="fill:none;stroke:#e6e6e6;stroke-width:1;stroke-linecap:square;stroke-linejoin:round;stroke-miterlimit:10;stroke-dasharray:none;stroke-opacity:1" transform="matrix(1.33333 0 0 -1.33333 0 591.142)"/><text xml:space="preserve" transform="translate(9.6 131.902)scale(1.33333)"><tspan x="0" y="0" style="font-variant:normal;font-weight:400;font-size:10px;font-family:&quot;DejaVu Sans&quot;;writing-mode:lr-tb;fill:#000;fill-opacity:1;fill-rule:nonzero;stroke:none">0.20</tspan></text><path d="M37.966 414.042H711.1" clip-path="url(#f)" style="fill:none;stroke:#e6e6e6;stroke-width:1;stroke-linecap:square;stroke-linejoin:round;stroke-miterlimit:10;stroke-dasharray:none;stroke-opacity:1" transform="matrix(1.33333 0 0 -1.33333 0 591.142)"/><text xml:space="preserve" transform="translate(9.6 44.148)scale(1.33333)"><tspan x="0" y="0" style="font-variant:normal;font-weight:400;font-size:10px;font-family:&quot;DejaVu Sans&quot;;writing-mode:lr-tb;fill:#000;fill-opacity:1;fill-rule:nonzero;stroke:none">0.21</tspan></text><path d="M60.403 210.096h179.503v40.627H60.403Z" clip-path="url(#g)" style="fill:none;stroke:#3d3d3d;stroke-width:1.5;stroke-linecap:butt;stroke-linejoin:miter;stroke-miterlimit:10;stroke-dasharray:none;stroke-opacity:1" transform="matrix(1.33333 0 0 -1.33333 0 591.142)"/><path d="M284.782 210.096h179.502v40.627H284.782z" clip-path="url(#h)" style="fill:none;stroke:#3d3d3d;stroke-width:1.5;stroke-linecap:butt;stroke-linejoin:miter;stroke-miterlimit:10;stroke-dasharray:none;stroke-opacity:1" transform="matrix(1.33333 0 0 -1.33333 0 591.142)"/><path d="M509.16 210.096h179.502v40.627H509.16z" clip-path="url(#i)" style="fill:none;stroke:#3d3d3d;stroke-width:1.5;stroke-linecap:butt;stroke-linejoin:miter;stroke-miterlimit:10;stroke-dasharray:none;stroke-opacity:1" transform="matrix(1.33333 0 0 -1.33333 0 591.142)"/><path d="M150.155 210.096v0" clip-path="url(#j)" style="fill:none;stroke:#3d3d3d;stroke-width:1.5;stroke-linecap:square;stroke-linejoin:round;stroke-miterlimit:10;stroke-dasharray:none;stroke-opacity:1" transform="matrix(1.33333 0 0 -1.33333 0 591.142)"/><path d="M150.155 250.723v40.627" clip-path="url(#k)" style="fill:none;stroke:#3d3d3d;stroke-width:1.5;stroke-linecap:square;stroke-linejoin:round;stroke-miterlimit:10;stroke-dasharray:none;stroke-opacity:1" transform="matrix(1.33333 0 0 -1.33333 0 591.142)"/><path d="m150.155 84.681 2.121 3.536-2.121 3.535-2.122-3.535z" clip-path="url(#l)" style="fill:#3d3d3d;fill-opacity:1;fill-rule:nonzero;stroke:#3d3d3d;stroke-width:1;stroke-linecap:butt;stroke-linejoin:miter;stroke-miterlimit:10;stroke-dasharray:none;stroke-opacity:1" transform="matrix(1.33333 0 0 -1.33333 0 591.142)"/><path d="m150.155 369.067 2.121 3.536-2.121 3.535-2.122-3.535z" clip-path="url(#m)" style="fill:#3d3d3d;fill-opacity:1;fill-rule:nonzero;stroke:#3d3d3d;stroke-width:1;stroke-linecap:butt;stroke-linejoin:miter;stroke-miterlimit:10;stroke-dasharray:none;stroke-opacity:1" transform="matrix(1.33333 0 0 -1.33333 0 591.142)"/><path d="M374.533 210.096V169.47" clip-path="url(#n)" style="fill:none;stroke:#3d3d3d;stroke-width:1.5;stroke-linecap:square;stroke-linejoin:round;stroke-miterlimit:10;stroke-dasharray:none;stroke-opacity:1" transform="matrix(1.33333 0 0 -1.33333 0 591.142)"/><path d="M374.533 250.723v40.627" clip-path="url(#o)" style="fill:none;stroke:#3d3d3d;stroke-width:1.5;stroke-linecap:square;stroke-linejoin:round;stroke-miterlimit:10;stroke-dasharray:none;stroke-opacity:1" transform="matrix(1.33333 0 0 -1.33333 0 591.142)"/><path d="m374.533 84.681 2.121 3.536-2.121 3.535-2.122-3.535z" clip-path="url(#p)" style="fill:#3d3d3d;fill-opacity:1;fill-rule:nonzero;stroke:#3d3d3d;stroke-width:1;stroke-linecap:butt;stroke-linejoin:miter;stroke-miterlimit:10;stroke-dasharray:none;stroke-opacity:1" transform="matrix(1.33333 0 0 -1.33333 0 591.142)"/><path d="M598.91 210.096v0" clip-path="url(#q)" style="fill:none;stroke:#3d3d3d;stroke-width:1.5;stroke-linecap:square;stroke-linejoin:round;stroke-miterlimit:10;stroke-dasharray:none;stroke-opacity:1" transform="matrix(1.33333 0 0 -1.33333 0 591.142)"/><path d="M598.91 250.723v0" clip-path="url(#r)" style="fill:none;stroke:#3d3d3d;stroke-width:1.5;stroke-linecap:square;stroke-linejoin:round;stroke-miterlimit:10;stroke-dasharray:none;stroke-opacity:1" transform="matrix(1.33333 0 0 -1.33333 0 591.142)"/><path d="m598.91 84.681 2.122 3.536-2.121 3.535-2.121-3.535z" clip-path="url(#s)" style="fill:#3d3d3d;fill-opacity:1;fill-rule:nonzero;stroke:#3d3d3d;stroke-width:1;stroke-linecap:butt;stroke-linejoin:miter;stroke-miterlimit:10;stroke-dasharray:none;stroke-opacity:1" transform="matrix(1.33333 0 0 -1.33333 0 591.142)"/><path d="m598.91 409.694 2.122 3.535-2.121 3.536-2.121-3.536z" clip-path="url(#t)" style="fill:#3d3d3d;fill-opacity:1;fill-rule:nonzero;stroke:#3d3d3d;stroke-width:1;stroke-linecap:butt;stroke-linejoin:miter;stroke-miterlimit:10;stroke-dasharray:none;stroke-opacity:1" transform="matrix(1.33333 0 0 -1.33333 0 591.142)"/><path d="M60.403 250.723h179.503" clip-path="url(#u)" style="fill:none;stroke:#3d3d3d;stroke-width:1.5;stroke-linecap:square;stroke-linejoin:round;stroke-miterlimit:10;stroke-dasharray:none;stroke-opacity:1" transform="matrix(1.33333 0 0 -1.33333 0 591.142)"/><path d="M284.782 230.41h179.502" clip-path="url(#v)" style="fill:none;stroke:#3d3d3d;stroke-width:1.5;stroke-linecap:square;stroke-linejoin:round;stroke-miterlimit:10;stroke-dasharray:none;stroke-opacity:1" transform="matrix(1.33333 0 0 -1.33333 0 591.142)"/><path d="M509.16 230.41h179.502" clip-path="url(#w)" style="fill:none;stroke:#3d3d3d;stroke-width:1.5;stroke-linecap:square;stroke-linejoin:round;stroke-miterlimit:10;stroke-dasharray:none;stroke-opacity:1" transform="matrix(1.33333 0 0 -1.33333 0 591.142)"/><g clip-path="url(#x)"><path d="M0-3.5a3.5 3.5 0 1 1 0 7 3.5 3.5 0 0 1 0-7" clip-path="url(#y)" style="fill:#1f77b4;fill-opacity:1;fill-rule:nonzero;stroke:none" transform="matrix(1.33333 0 0 -1.33333 200.206 473.52)"/></g><g clip-path="url(#z)"><path d="M0-3.5a3.5 3.5 0 1 1 0 7 3.5 3.5 0 0 1 0-7" clip-path="url(#A)" style="fill:#1f77b4;fill-opacity:1;fill-rule:nonzero;stroke:none" transform="matrix(1.33333 0 0 -1.33333 200.206 311.013)"/></g><g clip-path="url(#B)"><path d="M0-3.5a3.5 3.5 0 1 1 0 7 3.5 3.5 0 0 1 0-7" clip-path="url(#C)" style="fill:#1f77b4;fill-opacity:1;fill-rule:nonzero;stroke:none" transform="matrix(1.33333 0 0 -1.33333 190.313 311.013)"/></g><g clip-path="url(#D)"><path d="M0-3.5a3.5 3.5 0 1 1 0 7 3.5 3.5 0 0 1 0-7" clip-path="url(#E)" style="fill:#1f77b4;fill-opacity:1;fill-rule:nonzero;stroke:none" transform="matrix(1.33333 0 0 -1.33333 210.1 311.013)"/></g><g clip-path="url(#F)"><path d="M0-3.5a3.5 3.5 0 1 1 0 7 3.5 3.5 0 0 1 0-7" clip-path="url(#G)" style="fill:#1f77b4;fill-opacity:1;fill-rule:nonzero;stroke:none" transform="matrix(1.33333 0 0 -1.33333 200.206 256.844)"/></g><g clip-path="url(#H)"><path d="M0-3.5a3.5 3.5 0 1 1 0 7 3.5 3.5 0 0 1 0-7" clip-path="url(#I)" style="fill:#1f77b4;fill-opacity:1;fill-rule:nonzero;stroke:none" transform="matrix(1.33333 0 0 -1.33333 190.313 256.844)"/></g><g clip-path="url(#J)"><path d="M0-3.5a3.5 3.5 0 1 1 0 7 3.5 3.5 0 0 1 0-7" clip-path="url(#K)" style="fill:#1f77b4;fill-opacity:1;fill-rule:nonzero;stroke:none" transform="matrix(1.33333 0 0 -1.33333 210.1 256.844)"/></g><g clip-path="url(#L)"><path d="M0-3.5a3.5 3.5 0 1 1 0 7 3.5 3.5 0 0 1 0-7" clip-path="url(#M)" style="fill:#1f77b4;fill-opacity:1;fill-rule:nonzero;stroke:none" transform="matrix(1.33333 0 0 -1.33333 180.42 256.844)"/></g><g clip-path="url(#N)"><path d="M0-3.5a3.5 3.5 0 1 1 0 7 3.5 3.5 0 0 1 0-7" clip-path="url(#O)" style="fill:#1f77b4;fill-opacity:1;fill-rule:nonzero;stroke:none" transform="matrix(1.33333 0 0 -1.33333 200.206 202.676)"/></g><g clip-path="url(#P)"><path d="M0-3.5a3.5 3.5 0 1 1 0 7 3.5 3.5 0 0 1 0-7" clip-path="url(#Q)" style="fill:#1f77b4;fill-opacity:1;fill-rule:nonzero;stroke:none" transform="matrix(1.33333 0 0 -1.33333 200.206 94.338)"/></g><g clip-path="url(#R)"><path d="M0-3.5a3.5 3.5 0 1 1 0 7 3.5 3.5 0 0 1 0-7" clip-path="url(#S)" style="fill:#ff7f0e;fill-opacity:1;fill-rule:nonzero;stroke:none" transform="matrix(1.33333 0 0 -1.33333 499.377 473.52)"/></g><g clip-path="url(#T)"><path d="M0-3.5a3.5 3.5 0 1 1 0 7 3.5 3.5 0 0 1 0-7" clip-path="url(#U)" style="fill:#ff7f0e;fill-opacity:1;fill-rule:nonzero;stroke:none" transform="matrix(1.33333 0 0 -1.33333 499.377 365.182)"/></g><g clip-path="url(#V)"><path d="M0-3.5a3.5 3.5 0 1 1 0 7 3.5 3.5 0 0 1 0-7" clip-path="url(#W)" style="fill:#ff7f0e;fill-opacity:1;fill-rule:nonzero;stroke:none" transform="matrix(1.33333 0 0 -1.33333 499.377 311.013)"/></g><g clip-path="url(#X)"><path d="M0-3.5a3.5 3.5 0 1 1 0 7 3.5 3.5 0 0 1 0-7" clip-path="url(#Y)" style="fill:#ff7f0e;fill-opacity:1;fill-rule:nonzero;stroke:none" transform="matrix(1.33333 0 0 -1.33333 489.484 311.013)"/></g><g clip-path="url(#Z)"><path d="M0-3.5a3.5 3.5 0 1 1 0 7 3.5 3.5 0 0 1 0-7" clip-path="url(#aa)" style="fill:#ff7f0e;fill-opacity:1;fill-rule:nonzero;stroke:none" transform="matrix(1.33333 0 0 -1.33333 509.27 311.013)"/></g><g clip-path="url(#ab)"><path d="M0-3.5a3.5 3.5 0 1 1 0 7 3.5 3.5 0 0 1 0-7" clip-path="url(#ac)" style="fill:#ff7f0e;fill-opacity:1;fill-rule:nonzero;stroke:none" transform="matrix(1.33333 0 0 -1.33333 499.377 256.844)"/></g><g clip-path="url(#ad)"><path d="M0-3.5a3.5 3.5 0 1 1 0 7 3.5 3.5 0 0 1 0-7" clip-path="url(#ae)" style="fill:#ff7f0e;fill-opacity:1;fill-rule:nonzero;stroke:none" transform="matrix(1.33333 0 0 -1.33333 489.484 256.844)"/></g><g clip-path="url(#af)"><path d="M0-3.5a3.5 3.5 0 1 1 0 7 3.5 3.5 0 0 1 0-7" clip-path="url(#ag)" style="fill:#ff7f0e;fill-opacity:1;fill-rule:nonzero;stroke:none" transform="matrix(1.33333 0 0 -1.33333 509.27 256.844)"/></g><g clip-path="url(#ah)"><path d="M0-3.5a3.5 3.5 0 1 1 0 7 3.5 3.5 0 0 1 0-7" clip-path="url(#ai)" style="fill:#ff7f0e;fill-opacity:1;fill-rule:nonzero;stroke:none" transform="matrix(1.33333 0 0 -1.33333 479.59 256.844)"/></g><g clip-path="url(#aj)"><path d="M0-3.5a3.5 3.5 0 1 1 0 7 3.5 3.5 0 0 1 0-7" clip-path="url(#ak)" style="fill:#ff7f0e;fill-opacity:1;fill-rule:nonzero;stroke:none" transform="matrix(1.33333 0 0 -1.33333 499.377 202.676)"/></g><g clip-path="url(#al)"><path d="M0-3.5a3.5 3.5 0 1 1 0 7 3.5 3.5 0 0 1 0-7" clip-path="url(#am)" style="fill:#2ca02c;fill-opacity:1;fill-rule:nonzero;stroke:none" transform="matrix(1.33333 0 0 -1.33333 798.548 473.52)"/></g><g clip-path="url(#an)"><path d="M0-3.5a3.5 3.5 0 1 1 0 7 3.5 3.5 0 0 1 0-7" clip-path="url(#ao)" style="fill:#2ca02c;fill-opacity:1;fill-rule:nonzero;stroke:none" transform="matrix(1.33333 0 0 -1.33333 798.548 311.013)"/></g><g clip-path="url(#ap)"><path d="M0-3.5a3.5 3.5 0 1 1 0 7 3.5 3.5 0 0 1 0-7" clip-path="url(#aq)" style="fill:#2ca02c;fill-opacity:1;fill-rule:nonzero;stroke:none" transform="matrix(1.33333 0 0 -1.33333 788.654 311.013)"/></g><g clip-path="url(#ar)"><path d="M0-3.5a3.5 3.5 0 1 1 0 7 3.5 3.5 0 0 1 0-7" clip-path="url(#as)" style="fill:#2ca02c;fill-opacity:1;fill-rule:nonzero;stroke:none" transform="matrix(1.33333 0 0 -1.33333 808.441 311.013)"/></g><g clip-path="url(#at)"><path d="M0-3.5a3.5 3.5 0 1 1 0 7 3.5 3.5 0 0 1 0-7" clip-path="url(#au)" style="fill:#2ca02c;fill-opacity:1;fill-rule:nonzero;stroke:none" transform="matrix(1.33333 0 0 -1.33333 778.761 311.013)"/></g><g clip-path="url(#av)"><path d="M0-3.5a3.5 3.5 0 1 1 0 7 3.5 3.5 0 0 1 0-7" clip-path="url(#aw)" style="fill:#2ca02c;fill-opacity:1;fill-rule:nonzero;stroke:none" transform="matrix(1.33333 0 0 -1.33333 798.548 256.844)"/></g><g clip-path="url(#ax)"><path d="M0-3.5a3.5 3.5 0 1 1 0 7 3.5 3.5 0 0 1 0-7" clip-path="url(#ay)" style="fill:#2ca02c;fill-opacity:1;fill-rule:nonzero;stroke:none" transform="matrix(1.33333 0 0 -1.33333 788.654 256.844)"/></g><g clip-path="url(#az)"><path d="M0-3.5a3.5 3.5 0 1 1 0 7 3.5 3.5 0 0 1 0-7" clip-path="url(#aA)" style="fill:#2ca02c;fill-opacity:1;fill-rule:nonzero;stroke:none" transform="matrix(1.33333 0 0 -1.33333 808.441 256.844)"/></g><g clip-path="url(#aB)"><path d="M0-3.5a3.5 3.5 0 1 1 0 7 3.5 3.5 0 0 1 0-7" clip-path="url(#aC)" style="fill:#2ca02c;fill-opacity:1;fill-rule:nonzero;stroke:none" transform="matrix(1.33333 0 0 -1.33333 778.761 256.844)"/></g><g clip-path="url(#aD)"><path d="M0-3.5a3.5 3.5 0 1 1 0 7 3.5 3.5 0 0 1 0-7" clip-path="url(#aE)" style="fill:#2ca02c;fill-opacity:1;fill-rule:nonzero;stroke:none" transform="matrix(1.33333 0 0 -1.33333 798.548 40.17)"/></g></svg>