<?xml version="1.0" encoding="UTF-8" standalone="no"?>
<!-- Created with Inkscape (http://www.inkscape.org/) -->

<svg
   version="1.1"
   id="svg1"
   width="962.40002"
   height="598.875"
   viewBox="0 0 962.40002 598.875"
   xmlns="http://www.w3.org/2000/svg"
   xmlns:svg="http://www.w3.org/2000/svg">
  <defs
     id="defs1">
    <clipPath
       clipPathUnits="userSpaceOnUse"
       id="clipPath2">
      <path
         d="M 57.996875,42.54375 H 711.1 V 434.15624 H 57.996875 Z"
         id="path2" />
    </clipPath>
    <clipPath
       clipPathUnits="userSpaceOnUse"
       id="clipPath5">
      <path
         d="M 57.996875,42.54375 H 711.1 V 434.15624 H 57.996875 Z"
         id="path5" />
    </clipPath>
    <clipPath
       clipPathUnits="userSpaceOnUse"
       id="clipPath8">
      <path
         d="M 57.996875,42.54375 H 711.1 V 434.15624 H 57.996875 Z"
         id="path8" />
    </clipPath>
    <clipPath
       clipPathUnits="userSpaceOnUse"
       id="clipPath11">
      <path
         d="M 57.996875,42.54375 H 711.1 V 434.15624 H 57.996875 Z"
         id="path11" />
    </clipPath>
    <clipPath
       clipPathUnits="userSpaceOnUse"
       id="clipPath14">
      <path
         d="M 57.996875,42.54375 H 711.1 V 434.15624 H 57.996875 Z"
         id="path14" />
    </clipPath>
    <clipPath
       clipPathUnits="userSpaceOnUse"
       id="clipPath17">
      <path
         d="M 57.996875,42.54375 H 711.1 V 434.15624 H 57.996875 Z"
         id="path17" />
    </clipPath>
    <clipPath
       clipPathUnits="userSpaceOnUse"
       id="clipPath20">
      <path
         d="M 57.996875,42.54375 H 711.1 V 434.15624 H 57.996875 Z"
         id="path20" />
    </clipPath>
    <clipPath
       clipPathUnits="userSpaceOnUse"
       id="clipPath23">
      <path
         d="M 57.996875,42.54375 H 711.1 V 434.15624 H 57.996875 Z"
         id="path23" />
    </clipPath>
    <clipPath
       clipPathUnits="userSpaceOnUse"
       id="clipPath26">
      <path
         d="M 57.996875,42.54375 H 711.1 V 434.15624 H 57.996875 Z"
         id="path26" />
    </clipPath>
    <clipPath
       clipPathUnits="userSpaceOnUse"
       id="clipPath28">
      <path
         d="M 57.996875,42.54375 H 711.1 V 434.15624 H 57.996875 Z"
         id="path28" />
    </clipPath>
    <clipPath
       clipPathUnits="userSpaceOnUse"
       id="clipPath30">
      <path
         d="M 57.996875,42.54375 H 711.1 V 434.15624 H 57.996875 Z"
         id="path30" />
    </clipPath>
    <clipPath
       clipPathUnits="userSpaceOnUse"
       id="clipPath32">
      <path
         d="M 57.996875,42.54375 H 711.1 V 434.15624 H 57.996875 Z"
         id="path32" />
    </clipPath>
    <clipPath
       clipPathUnits="userSpaceOnUse"
       id="clipPath34">
      <path
         d="M 57.996875,42.54375 H 711.1 V 434.15624 H 57.996875 Z"
         id="path34" />
    </clipPath>
    <clipPath
       clipPathUnits="userSpaceOnUse"
       id="clipPath36">
      <path
         d="M 57.996875,42.54375 H 711.1 V 434.15624 H 57.996875 Z"
         id="path36" />
    </clipPath>
    <clipPath
       clipPathUnits="userSpaceOnUse"
       id="clipPath38">
      <path
         d="M 57.996875,42.54375 H 711.1 V 434.15624 H 57.996875 Z"
         id="path38" />
    </clipPath>
    <clipPath
       clipPathUnits="userSpaceOnUse"
       id="clipPath40">
      <path
         d="M 57.996875,42.54375 H 711.1 V 434.15624 H 57.996875 Z"
         id="path40" />
    </clipPath>
    <clipPath
       clipPathUnits="userSpaceOnUse"
       id="clipPath42">
      <path
         d="M 57.996875,42.54375 H 711.1 V 434.15624 H 57.996875 Z"
         id="path42" />
    </clipPath>
    <clipPath
       clipPathUnits="userSpaceOnUse"
       id="clipPath44">
      <path
         d="M 57.996875,42.54375 H 711.1 V 434.15624 H 57.996875 Z"
         id="path44" />
    </clipPath>
    <clipPath
       clipPathUnits="userSpaceOnUse"
       id="clipPath46">
      <path
         d="M 57.996875,42.54375 H 711.1 V 434.15624 H 57.996875 Z"
         id="path46" />
    </clipPath>
    <clipPath
       clipPathUnits="userSpaceOnUse"
       id="clipPath48">
      <path
         d="M 57.996875,42.54375 H 711.1 V 434.15624 H 57.996875 Z"
         id="path48" />
    </clipPath>
    <clipPath
       clipPathUnits="userSpaceOnUse"
       id="clipPath50">
      <path
         d="M 57.996875,42.54375 H 711.1 V 434.15624 H 57.996875 Z"
         id="path50" />
    </clipPath>
    <clipPath
       clipPathUnits="userSpaceOnUse"
       id="clipPath52">
      <path
         d="M 57.996875,42.54375 H 711.1 V 434.15624 H 57.996875 Z"
         id="path52" />
    </clipPath>
    <clipPath
       clipPathUnits="userSpaceOnUse"
       id="clipPath54">
      <path
         d="M 57.996875,42.54375 H 711.1 V 434.15624 H 57.996875 Z"
         id="path54" />
    </clipPath>
    <clipPath
       clipPathUnits="userSpaceOnUse"
       id="clipPath56">
      <path
         d="M 57.996875,42.54375 H 711.1 V 434.15624 H 57.996875 Z"
         id="path56" />
    </clipPath>
    <clipPath
       clipPathUnits="userSpaceOnUse"
       id="clipPath58">
      <path
         d="M 57.996875,42.54375 H 711.1 V 434.15624 H 57.996875 Z"
         id="path58" />
    </clipPath>
    <clipPath
       clipPathUnits="userSpaceOnUse"
       id="clipPath60">
      <path
         d="M 57.996875,42.54375 H 711.1 V 434.15624 H 57.996875 Z"
         id="path60" />
    </clipPath>
    <clipPath
       clipPathUnits="userSpaceOnUse"
       id="clipPath62">
      <path
         d="M 57.996875,42.54375 H 711.1 V 434.15624 H 57.996875 Z"
         id="path62" />
    </clipPath>
    <clipPath
       clipPathUnits="userSpaceOnUse"
       id="clipPath64">
      <path
         d="M 57.996875,42.54375 H 711.1 V 434.15624 H 57.996875 Z"
         id="path64" />
    </clipPath>
    <clipPath
       clipPathUnits="userSpaceOnUse"
       id="clipPath66">
      <path
         d="M 57.996875,42.54375 H 711.1 V 434.15624 H 57.996875 Z"
         id="path66" />
    </clipPath>
    <clipPath
       clipPathUnits="userSpaceOnUse"
       id="clipPath68">
      <path
         d="M 57.996875,42.54375 H 711.1 V 434.15624 H 57.996875 Z"
         id="path68" />
    </clipPath>
    <clipPath
       clipPathUnits="userSpaceOnUse"
       id="clipPath70">
      <path
         d="M 57.996875,42.54375 H 711.1 V 434.15624 H 57.996875 Z"
         id="path70" />
    </clipPath>
    <clipPath
       clipPathUnits="userSpaceOnUse"
       id="clipPath72">
      <path
         d="M 57.996875,42.54375 H 711.1 V 434.15624 H 57.996875 Z"
         id="path72" />
    </clipPath>
    <clipPath
       clipPathUnits="userSpaceOnUse"
       id="clipPath74">
      <path
         d="M 57.996875,42.54375 H 711.1 V 434.15624 H 57.996875 Z"
         id="path74" />
    </clipPath>
    <clipPath
       clipPathUnits="userSpaceOnUse"
       id="clipPath76">
      <path
         d="M 57.996875,42.54375 H 711.1 V 434.15624 H 57.996875 Z"
         id="path76" />
    </clipPath>
    <clipPath
       clipPathUnits="userSpaceOnUse"
       id="clipPath78">
      <path
         d="M 57.996875,42.54375 H 711.1 V 434.15624 H 57.996875 Z"
         id="path78" />
    </clipPath>
  </defs>
  <g
     id="g1">
    <path
       id="path1"
       d="M 71.636621,42.54375 V 434.15624"
       style="fill:none;stroke:#e6e6e6;stroke-width:1;stroke-linecap:square;stroke-linejoin:round;stroke-miterlimit:10;stroke-dasharray:none;stroke-opacity:1"
       transform="matrix(1.3333333,0,0,-1.3333333,0,598.87499)"
       clip-path="url(#clipPath2)" />
    <path
       id="path3"
       d="m 71.636621,37.54375 v -3.5"
       style="fill:#000000;fill-opacity:1;fill-rule:nonzero;stroke:#000000;stroke-width:0.8;stroke-linecap:butt;stroke-linejoin:round;stroke-miterlimit:10;stroke-dasharray:none;stroke-opacity:1"
       transform="matrix(1.3333333,0,0,-1.3333333,0,598.87499)" />
    <text
       id="text3"
       xml:space="preserve"
       transform="matrix(1.3333333,0,0,1.3333333,91.275911,568.27499)"><tspan
         id="tspan3"
         style="font-variant:normal;font-weight:normal;font-size:10px;font-family:'DejaVu Sans';writing-mode:lr-tb;fill:#000000;fill-opacity:1;fill-rule:nonzero;stroke:none"
         x="0"
         y="0">0</tspan></text>
    <path
       id="path4"
       d="M 151.87042,42.54375 V 434.15624"
       style="fill:none;stroke:#e6e6e6;stroke-width:1;stroke-linecap:square;stroke-linejoin:round;stroke-miterlimit:10;stroke-dasharray:none;stroke-opacity:1"
       transform="matrix(1.3333333,0,0,-1.3333333,0,598.87499)"
       clip-path="url(#clipPath5)" />
    <path
       id="path6"
       d="m 151.87042,37.54375 v -3.5"
       style="fill:#000000;fill-opacity:1;fill-rule:nonzero;stroke:#000000;stroke-width:0.8;stroke-linecap:butt;stroke-linejoin:round;stroke-miterlimit:10;stroke-dasharray:none;stroke-opacity:1"
       transform="matrix(1.3333333,0,0,-1.3333333,0,598.87499)" />
    <text
       id="text6"
       xml:space="preserve"
       transform="matrix(1.3333333,0,0,1.3333333,198.25431,568.27499)"><tspan
         id="tspan6"
         style="font-variant:normal;font-weight:normal;font-size:10px;font-family:'DejaVu Sans';writing-mode:lr-tb;fill:#000000;fill-opacity:1;fill-rule:nonzero;stroke:none"
         x="0"
         y="0">5</tspan></text>
    <path
       id="path7"
       d="M 232.10422,42.54375 V 434.15624"
       style="fill:none;stroke:#e6e6e6;stroke-width:1;stroke-linecap:square;stroke-linejoin:round;stroke-miterlimit:10;stroke-dasharray:none;stroke-opacity:1"
       transform="matrix(1.3333333,0,0,-1.3333333,0,598.87499)"
       clip-path="url(#clipPath8)" />
    <path
       id="path9"
       d="m 232.10422,37.54375 v -3.5"
       style="fill:#000000;fill-opacity:1;fill-rule:nonzero;stroke:#000000;stroke-width:0.8;stroke-linecap:butt;stroke-linejoin:round;stroke-miterlimit:10;stroke-dasharray:none;stroke-opacity:1"
       transform="matrix(1.3333333,0,0,-1.3333333,0,598.87499)" />
    <text
       id="text9"
       xml:space="preserve"
       transform="matrix(1.3333333,0,0,1.3333333,300.99313,568.27499)"><tspan
         id="tspan9"
         style="font-variant:normal;font-weight:normal;font-size:10px;font-family:'DejaVu Sans';writing-mode:lr-tb;fill:#000000;fill-opacity:1;fill-rule:nonzero;stroke:none"
         x="0"
         y="0">10</tspan></text>
    <path
       id="path10"
       d="M 312.33802,42.54375 V 434.15624"
       style="fill:none;stroke:#e6e6e6;stroke-width:1;stroke-linecap:square;stroke-linejoin:round;stroke-miterlimit:10;stroke-dasharray:none;stroke-opacity:1"
       transform="matrix(1.3333333,0,0,-1.3333333,0,598.87499)"
       clip-path="url(#clipPath11)" />
    <path
       id="path12"
       d="m 312.33802,37.54375 v -3.5"
       style="fill:#000000;fill-opacity:1;fill-rule:nonzero;stroke:#000000;stroke-width:0.8;stroke-linecap:butt;stroke-linejoin:round;stroke-miterlimit:10;stroke-dasharray:none;stroke-opacity:1"
       transform="matrix(1.3333333,0,0,-1.3333333,0,598.87499)" />
    <text
       id="text12"
       xml:space="preserve"
       transform="matrix(1.3333333,0,0,1.3333333,407.97152,568.27499)"><tspan
         id="tspan12"
         style="font-variant:normal;font-weight:normal;font-size:10px;font-family:'DejaVu Sans';writing-mode:lr-tb;fill:#000000;fill-opacity:1;fill-rule:nonzero;stroke:none"
         x="0"
         y="0">15</tspan></text>
    <path
       id="path13"
       d="M 392.57182,42.54375 V 434.15624"
       style="fill:none;stroke:#e6e6e6;stroke-width:1;stroke-linecap:square;stroke-linejoin:round;stroke-miterlimit:10;stroke-dasharray:none;stroke-opacity:1"
       transform="matrix(1.3333333,0,0,-1.3333333,0,598.87499)"
       clip-path="url(#clipPath14)" />
    <path
       id="path15"
       d="m 392.57182,37.54375 v -3.5"
       style="fill:#000000;fill-opacity:1;fill-rule:nonzero;stroke:#000000;stroke-width:0.8;stroke-linecap:butt;stroke-linejoin:round;stroke-miterlimit:10;stroke-dasharray:none;stroke-opacity:1"
       transform="matrix(1.3333333,0,0,-1.3333333,0,598.87499)" />
    <text
       id="text15"
       xml:space="preserve"
       transform="matrix(1.3333333,0,0,1.3333333,514.94992,568.27499)"><tspan
         id="tspan15"
         style="font-variant:normal;font-weight:normal;font-size:10px;font-family:'DejaVu Sans';writing-mode:lr-tb;fill:#000000;fill-opacity:1;fill-rule:nonzero;stroke:none"
         x="0"
         y="0">20</tspan></text>
    <path
       id="path16"
       d="M 472.80562,42.54375 V 434.15624"
       style="fill:none;stroke:#e6e6e6;stroke-width:1;stroke-linecap:square;stroke-linejoin:round;stroke-miterlimit:10;stroke-dasharray:none;stroke-opacity:1"
       transform="matrix(1.3333333,0,0,-1.3333333,0,598.87499)"
       clip-path="url(#clipPath17)" />
    <path
       id="path18"
       d="m 472.80562,37.54375 v -3.5"
       style="fill:#000000;fill-opacity:1;fill-rule:nonzero;stroke:#000000;stroke-width:0.8;stroke-linecap:butt;stroke-linejoin:round;stroke-miterlimit:10;stroke-dasharray:none;stroke-opacity:1"
       transform="matrix(1.3333333,0,0,-1.3333333,0,598.87499)" />
    <text
       id="text18"
       xml:space="preserve"
       transform="matrix(1.3333333,0,0,1.3333333,621.92832,568.27499)"><tspan
         id="tspan18"
         style="font-variant:normal;font-weight:normal;font-size:10px;font-family:'DejaVu Sans';writing-mode:lr-tb;fill:#000000;fill-opacity:1;fill-rule:nonzero;stroke:none"
         x="0"
         y="0">25</tspan></text>
    <path
       id="path19"
       d="M 553.03942,42.54375 V 434.15624"
       style="fill:none;stroke:#e6e6e6;stroke-width:1;stroke-linecap:square;stroke-linejoin:round;stroke-miterlimit:10;stroke-dasharray:none;stroke-opacity:1"
       transform="matrix(1.3333333,0,0,-1.3333333,0,598.87499)"
       clip-path="url(#clipPath20)" />
    <path
       id="path21"
       d="m 553.03942,37.54375 v -3.5"
       style="fill:#000000;fill-opacity:1;fill-rule:nonzero;stroke:#000000;stroke-width:0.8;stroke-linecap:butt;stroke-linejoin:round;stroke-miterlimit:10;stroke-dasharray:none;stroke-opacity:1"
       transform="matrix(1.3333333,0,0,-1.3333333,0,598.87499)" />
    <text
       id="text21"
       xml:space="preserve"
       transform="matrix(1.3333333,0,0,1.3333333,728.90672,568.27499)"><tspan
         id="tspan21"
         style="font-variant:normal;font-weight:normal;font-size:10px;font-family:'DejaVu Sans';writing-mode:lr-tb;fill:#000000;fill-opacity:1;fill-rule:nonzero;stroke:none"
         x="0"
         y="0">30</tspan></text>
    <path
       id="path22"
       d="M 633.27322,42.54375 V 434.15624"
       style="fill:none;stroke:#e6e6e6;stroke-width:1;stroke-linecap:square;stroke-linejoin:round;stroke-miterlimit:10;stroke-dasharray:none;stroke-opacity:1"
       transform="matrix(1.3333333,0,0,-1.3333333,0,598.87499)"
       clip-path="url(#clipPath23)" />
    <path
       id="path24"
       d="m 633.27322,37.54375 v -3.5"
       style="fill:#000000;fill-opacity:1;fill-rule:nonzero;stroke:#000000;stroke-width:0.8;stroke-linecap:butt;stroke-linejoin:round;stroke-miterlimit:10;stroke-dasharray:none;stroke-opacity:1"
       transform="matrix(1.3333333,0,0,-1.3333333,0,598.87499)" />
    <text
       id="text24"
       xml:space="preserve"
       transform="matrix(1.3333333,0,0,1.3333333,835.88512,568.27499)"><tspan
         id="tspan24"
         style="font-variant:normal;font-weight:normal;font-size:10px;font-family:'DejaVu Sans';writing-mode:lr-tb;fill:#000000;fill-opacity:1;fill-rule:nonzero;stroke:none"
         x="0"
         y="0">35</tspan></text>
    <text
       id="text25"
       xml:space="preserve"
       transform="matrix(1.3333333,0,0,1.3333333,475.52292,586.50416)"><tspan
         id="tspan25"
         style="font-variant:normal;font-weight:normal;font-size:10px;font-family:'DejaVu Sans';writing-mode:lr-tb;fill:#000000;fill-opacity:1;fill-rule:nonzero;stroke:none"
         x="0"
         y="0">Generation</tspan></text>
    <path
       id="path25"
       d="M 57.996875,93.327723 H 711.1"
       style="fill:none;stroke:#e6e6e6;stroke-width:1;stroke-linecap:square;stroke-linejoin:round;stroke-miterlimit:10;stroke-dasharray:none;stroke-opacity:1"
       transform="matrix(1.3333333,0,0,-1.3333333,0,598.87499)"
       clip-path="url(#clipPath26)" />
    <text
       id="text26"
       xml:space="preserve"
       transform="matrix(1.3333333,0,0,1.3333333,27.829167,479.50053)"><tspan
         id="tspan26"
         style="font-variant:normal;font-weight:normal;font-size:10px;font-family:'DejaVu Sans';writing-mode:lr-tb;fill:#000000;fill-opacity:1;fill-rule:nonzero;stroke:none"
         x="0"
         y="0">0.815</tspan></text>
    <path
       id="path27"
       d="M 57.996875,147.77652 H 711.1"
       style="fill:none;stroke:#e6e6e6;stroke-width:1;stroke-linecap:square;stroke-linejoin:round;stroke-miterlimit:10;stroke-dasharray:none;stroke-opacity:1"
       transform="matrix(1.3333333,0,0,-1.3333333,0,598.87499)"
       clip-path="url(#clipPath28)" />
    <text
       id="text28"
       xml:space="preserve"
       transform="matrix(1.3333333,0,0,1.3333333,27.829167,406.90213)"><tspan
         id="tspan28"
         style="font-variant:normal;font-weight:normal;font-size:10px;font-family:'DejaVu Sans';writing-mode:lr-tb;fill:#000000;fill-opacity:1;fill-rule:nonzero;stroke:none"
         x="0"
         y="0">0.820</tspan></text>
    <path
       id="path29"
       d="M 57.996875,202.22531 H 711.1"
       style="fill:none;stroke:#e6e6e6;stroke-width:1;stroke-linecap:square;stroke-linejoin:round;stroke-miterlimit:10;stroke-dasharray:none;stroke-opacity:1"
       transform="matrix(1.3333333,0,0,-1.3333333,0,598.87499)"
       clip-path="url(#clipPath30)" />
    <text
       id="text30"
       xml:space="preserve"
       transform="matrix(1.3333333,0,0,1.3333333,27.829167,334.30374)"><tspan
         id="tspan30"
         style="font-variant:normal;font-weight:normal;font-size:10px;font-family:'DejaVu Sans';writing-mode:lr-tb;fill:#000000;fill-opacity:1;fill-rule:nonzero;stroke:none"
         x="0"
         y="0">0.825</tspan></text>
    <path
       id="path31"
       d="M 57.996875,256.67411 H 711.1"
       style="fill:none;stroke:#e6e6e6;stroke-width:1;stroke-linecap:square;stroke-linejoin:round;stroke-miterlimit:10;stroke-dasharray:none;stroke-opacity:1"
       transform="matrix(1.3333333,0,0,-1.3333333,0,598.87499)"
       clip-path="url(#clipPath32)" />
    <text
       id="text32"
       xml:space="preserve"
       transform="matrix(1.3333333,0,0,1.3333333,27.829167,261.70534)"><tspan
         id="tspan32"
         style="font-variant:normal;font-weight:normal;font-size:10px;font-family:'DejaVu Sans';writing-mode:lr-tb;fill:#000000;fill-opacity:1;fill-rule:nonzero;stroke:none"
         x="0"
         y="0">0.830</tspan></text>
    <path
       id="path33"
       d="M 57.996875,311.12291 H 711.1"
       style="fill:none;stroke:#e6e6e6;stroke-width:1;stroke-linecap:square;stroke-linejoin:round;stroke-miterlimit:10;stroke-dasharray:none;stroke-opacity:1"
       transform="matrix(1.3333333,0,0,-1.3333333,0,598.87499)"
       clip-path="url(#clipPath34)" />
    <text
       id="text34"
       xml:space="preserve"
       transform="matrix(1.3333333,0,0,1.3333333,27.829167,189.10695)"><tspan
         id="tspan34"
         style="font-variant:normal;font-weight:normal;font-size:10px;font-family:'DejaVu Sans';writing-mode:lr-tb;fill:#000000;fill-opacity:1;fill-rule:nonzero;stroke:none"
         x="0"
         y="0">0.835</tspan></text>
    <path
       id="path35"
       d="M 57.996875,365.5717 H 711.1"
       style="fill:none;stroke:#e6e6e6;stroke-width:1;stroke-linecap:square;stroke-linejoin:round;stroke-miterlimit:10;stroke-dasharray:none;stroke-opacity:1"
       transform="matrix(1.3333333,0,0,-1.3333333,0,598.87499)"
       clip-path="url(#clipPath36)" />
    <text
       id="text36"
       xml:space="preserve"
       transform="matrix(1.3333333,0,0,1.3333333,27.829167,116.50855)"><tspan
         id="tspan36"
         style="font-variant:normal;font-weight:normal;font-size:10px;font-family:'DejaVu Sans';writing-mode:lr-tb;fill:#000000;fill-opacity:1;fill-rule:nonzero;stroke:none"
         x="0"
         y="0">0.840</tspan></text>
    <path
       id="path37"
       d="M 57.996875,420.0205 H 711.1"
       style="fill:none;stroke:#e6e6e6;stroke-width:1;stroke-linecap:square;stroke-linejoin:round;stroke-miterlimit:10;stroke-dasharray:none;stroke-opacity:1"
       transform="matrix(1.3333333,0,0,-1.3333333,0,598.87499)"
       clip-path="url(#clipPath38)" />
    <text
       id="text38"
       xml:space="preserve"
       transform="matrix(1.3333333,0,0,1.3333333,27.829167,43.91016)"><tspan
         id="tspan38"
         style="font-variant:normal;font-weight:normal;font-size:10px;font-family:'DejaVu Sans';writing-mode:lr-tb;fill:#000000;fill-opacity:1;fill-rule:nonzero;stroke:none"
         x="0"
         y="0">0.845</tspan></text>
    <text
       id="text39"
       xml:space="preserve"
       transform="matrix(0,-1.3333333,1.3333333,0,19.725,311.84583)"><tspan
         id="tspan39"
         style="font-variant:normal;font-weight:normal;font-size:10px;font-family:'DejaVu Sans';writing-mode:lr-tb;fill:#000000;fill-opacity:1;fill-rule:nonzero;stroke:none"
         x="0"
         y="0">ROC AUC</tspan></text>
    <path
       id="path39"
       d="m 87.683381,285.46915 h 16.046759 l 16.04676,21.98893 h 16.04676 16.04676 l 16.04676,43.97788 h 16.04676 16.04676 l 16.04676,5.23546 h 16.04676 16.04676 16.04676 16.04676 16.04676 16.04676 16.04676 l 16.04676,1.04709 h 16.04676 l 16.04676,8.37674 16.04676,9.42383 h 16.04676 16.04676 16.04676 16.04676 16.04676 16.04676 16.04676 16.04676 16.04676 l 16.04676,23.03603 h 16.04676 16.04675 16.04677 16.04675 16.04677 16.04675 16.04676 16.04676"
       style="fill:none;stroke:#1f77b4;stroke-width:1.5;stroke-linecap:square;stroke-linejoin:round;stroke-miterlimit:10;stroke-dasharray:none;stroke-opacity:1"
       transform="matrix(1.3333333,0,0,-1.3333333,0,598.87499)"
       clip-path="url(#clipPath40)" />
    <path
       id="path41"
       d="m 87.683381,285.46915 16.046759,-6.28256 16.04676,28.27149 16.04676,-4.18837 16.04676,-9.42383 16.04676,57.59008 16.04676,-137.16909 16.04676,-12.5651 16.04676,154.96965 16.04676,-70.15518 16.04676,-33.50695 16.04676,-62.82554 16.04676,84.81447 16.04676,50.26043 16.04676,-67.0139 16.04676,68.06099 16.04676,31.41277 16.04676,-20.94185 16.04676,29.31859 16.04676,9.42383 16.04676,-20.94185 16.04676,-2.09418 16.04676,-58.63717 16.04676,79.57901 16.04676,-7.32964 16.04676,-72.24937 16.04676,58.63717 16.04676,-31.41277 16.04676,-10.47092 16.04676,87.95575 16.04676,-101.56795 16.04675,-2.09418 16.04677,-37.69532 16.04675,-42.93079 16.04677,163.34639 16.04675,-58.63716 16.04676,-54.4488 16.04676,-18.84766"
       style="fill:none;stroke:#1f77b4;stroke-width:1.5;stroke-linecap:butt;stroke-linejoin:round;stroke-miterlimit:10;stroke-dasharray:5.55, 2.4;stroke-dashoffset:0;stroke-opacity:1"
       transform="matrix(1.3333333,0,0,-1.3333333,0,598.87499)"
       clip-path="url(#clipPath42)" />
    <path
       id="path43"
       d="m 87.683381,284.42205 h 16.046759 l 16.04676,26.17731 16.04676,7.32964 h 16.04676 16.04676 16.04676 16.04676 16.04676 l 16.04676,34.55405 h 16.04676 16.04676 16.04676 16.04676 16.04676 l 16.04676,1.04709 h 16.04676 16.04676 l 16.04676,21.98894 h 16.04676 16.04676 16.04676 l 16.04676,14.65929 h 16.04676 16.04676 16.04676 16.04676 16.04676 16.04676 16.04676 16.04676 16.04675 16.04677 16.04675 16.04677 16.04675 16.04676 16.04676"
       style="fill:none;stroke:#ff7f0e;stroke-width:1.5;stroke-linecap:square;stroke-linejoin:round;stroke-miterlimit:10;stroke-dasharray:none;stroke-opacity:1"
       transform="matrix(1.3333333,0,0,-1.3333333,0,598.87499)"
       clip-path="url(#clipPath44)" />
    <path
       id="path45"
       d="m 87.683381,284.42205 16.046759,-13.61219 16.04676,39.7895 16.04676,7.32964 16.04676,-43.97787 16.04676,-7.32964 16.04676,13.61219 16.04676,-112.03886 16.04676,114.13305 16.04676,70.15518 16.04676,-8.37674 16.04676,-23.03603 16.04676,12.56511 16.04676,-51.30752 16.04676,2.09418 16.04676,69.10809 16.04676,-19.89475 16.04676,-15.70639 16.04676,57.59008 16.04676,-26.17731 16.04676,-9.42383 16.04676,28.27149 16.04676,21.98894 16.04676,-31.41277 16.04676,-12.56511 16.04676,-14.65929 h 16.04676 l 16.04676,26.17731 16.04676,2.09418 16.04676,-89.00283 16.04676,84.81446 16.04675,7.32965 16.04677,-56.54298 16.04675,52.35461 16.04677,-74.34355 16.04675,-18.84766 16.04676,-18.84766 16.04676,107.8505"
       style="fill:none;stroke:#ff7f0e;stroke-width:1.5;stroke-linecap:butt;stroke-linejoin:round;stroke-miterlimit:10;stroke-dasharray:5.55, 2.4;stroke-dashoffset:0;stroke-opacity:1"
       transform="matrix(1.3333333,0,0,-1.3333333,0,598.87499)"
       clip-path="url(#clipPath46)" />
    <path
       id="path47"
       d="m 87.683381,224.7378 16.046759,7.32964 16.04676,87.95575 h 16.04676 16.04676 16.04676 16.04676 l 16.04676,1.04709 h 16.04676 16.04676 16.04676 16.04676 16.04676 16.04676 16.04676 16.04676 16.04676 16.04676 16.04676 16.04676 16.04676 16.04676 l 16.04676,29.31858 h 16.04676 l 16.04676,20.94185 h 16.04676 16.04676 16.04676 16.04676 16.04676 16.04676 16.04675 16.04677 16.04675 16.04677 l 16.04675,1.04709 h 16.04676 16.04676"
       style="fill:none;stroke:#2ca02c;stroke-width:1.5;stroke-linecap:square;stroke-linejoin:round;stroke-miterlimit:10;stroke-dasharray:none;stroke-opacity:1"
       transform="matrix(1.3333333,0,0,-1.3333333,0,598.87499)"
       clip-path="url(#clipPath48)" />
    <path
       id="path49"
       d="m 87.683381,224.7378 16.046759,7.32964 16.04676,87.95575 16.04676,-61.77844 16.04676,32.45986 16.04676,6.28255 16.04676,-42.93078 16.04676,67.0139 16.04676,-57.59007 16.04676,4.18837 16.04676,10.47092 16.04676,-24.08312 16.04676,-36.64823 16.04676,-21.98894 16.04676,94.2383 16.04676,-70.15517 h 16.04676 l 16.04676,86.90865 16.04676,-11.51801 16.04676,13.61219 16.04676,-28.27149 16.04676,-1.04709 16.04676,71.20227 16.04676,-43.97787 16.04676,64.91972 16.04676,-38.74241 16.04676,-68.061 16.04676,-29.31858 16.04676,109.94468 16.04676,9.42383 16.04676,-90.04993 16.04675,-41.88369 16.04677,72.24937 16.04675,54.44879 16.04677,-75.39064 16.04675,98.42667 16.04676,-2.09418 16.04676,2.09418"
       style="fill:none;stroke:#2ca02c;stroke-width:1.5;stroke-linecap:butt;stroke-linejoin:round;stroke-miterlimit:10;stroke-dasharray:5.55, 2.4;stroke-dashoffset:0;stroke-opacity:1"
       transform="matrix(1.3333333,0,0,-1.3333333,0,598.87499)"
       clip-path="url(#clipPath50)" />
    <path
       id="path51"
       d="m 87.683381,215.31397 16.046759,48.16624 16.04676,24.08312 16.04676,31.41277 h 16.04676 16.04676 l 16.04676,19.89475 h 16.04676 l 16.04676,8.37674 h 16.04676 16.04676 16.04676 16.04676 16.04676 16.04676 16.04676 16.04676 16.04676 16.04676 16.04676 16.04676 16.04676 16.04676 16.04676 16.04676 16.04676 16.04676 16.04676 16.04676 16.04676 16.04676 16.04675 16.04677 16.04675 l 16.04677,5.23546 h 16.04675 16.04676 16.04676"
       style="fill:none;stroke:#d62728;stroke-width:1.5;stroke-linecap:square;stroke-linejoin:round;stroke-miterlimit:10;stroke-dasharray:none;stroke-opacity:1"
       transform="matrix(1.3333333,0,0,-1.3333333,0,598.87499)"
       clip-path="url(#clipPath52)" />
    <path
       id="path53"
       d="m 87.683381,215.31397 16.046759,48.16624 16.04676,24.08312 16.04676,31.41277 16.04676,-75.39064 16.04676,38.74241 16.04676,56.54298 16.04676,-54.4488 16.04676,62.82554 16.04676,-45.02497 16.04676,25.13022 16.04676,-13.6122 16.04676,-62.82554 16.04676,86.90866 16.04676,-58.63717 16.04676,15.70639 16.04676,3.14127 16.04676,3.14128 16.04676,-26.17731 16.04676,5.23546 16.04676,30.36568 16.04676,-24.08312 16.04676,-29.31858 16.04676,-35.60114 16.04676,55.49589 16.04676,-216.748092 16.04676,180.099862 16.04676,5.23546 16.04676,-30.36567 16.04676,-108.89759 16.04676,137.16908 16.04675,72.24936 16.04677,-9.42383 16.04675,13.6122 16.04677,32.45986 16.04675,-2.09419 16.04676,-252.349222 16.04676,249.207952"
       style="fill:none;stroke:#d62728;stroke-width:1.5;stroke-linecap:butt;stroke-linejoin:round;stroke-miterlimit:10;stroke-dasharray:5.55, 2.4;stroke-dashoffset:0;stroke-opacity:1"
       transform="matrix(1.3333333,0,0,-1.3333333,0,598.87499)"
       clip-path="url(#clipPath54)" />
    <path
       id="path55"
       d="m 87.683381,289.65751 16.046759,2.09419 h 16.04676 l 16.04676,32.45986 h 16.04676 16.04676 16.04676 16.04676 16.04676 l 16.04676,12.5651 h 16.04676 16.04676 16.04676 16.04676 16.04676 l 16.04676,79.57901 h 16.04676 16.04676 16.04676 16.04676 16.04676 16.04676 16.04676 16.04676 16.04676 16.04676 16.04676 16.04676 16.04676 16.04676 16.04676 16.04675 16.04677 16.04675 16.04677 16.04675 16.04676 16.04676"
       style="fill:none;stroke:#9467bd;stroke-width:1.5;stroke-linecap:square;stroke-linejoin:round;stroke-miterlimit:10;stroke-dasharray:none;stroke-opacity:1"
       transform="matrix(1.3333333,0,0,-1.3333333,0,598.87499)"
       clip-path="url(#clipPath56)" />
    <path
       id="path57"
       d="m 87.683381,289.65751 16.046759,2.09419 16.04676,-33.50695 16.04676,65.96681 16.04676,-50.26043 h 16.04676 16.04676 l 16.04676,-3.14127 16.04676,40.83659 16.04676,25.13021 16.04676,-35.60113 16.04676,16.75347 16.04676,1.0471 16.04676,6.28255 16.04676,-48.16624 16.04676,139.26326 16.04676,-189.52369 16.04676,86.90866 16.04676,5.23546 16.04676,-80.6261 16.04676,12.5651 16.04676,23.03603 16.04676,3.14128 16.04676,62.82553 16.04676,-28.27149 16.04676,26.17731 16.04676,-15.70639 16.04676,-29.31858 16.04676,-20.94184 16.04676,90.04993 16.04676,-20.94185 16.04675,-99.47376 16.04677,79.57901 16.04675,-84.81447 16.04677,84.81447 16.04675,11.51802 16.04676,-6.28256 16.04676,-42.93078"
       style="fill:none;stroke:#9467bd;stroke-width:1.5;stroke-linecap:butt;stroke-linejoin:round;stroke-miterlimit:10;stroke-dasharray:5.55, 2.4;stroke-dashoffset:0;stroke-opacity:1"
       transform="matrix(1.3333333,0,0,-1.3333333,0,598.87499)"
       clip-path="url(#clipPath58)" />
    <path
       id="path59"
       d="m 87.683381,203.79595 16.046759,19.89475 16.04676,118.32143 h 16.04676 16.04676 16.04676 16.04676 16.04676 16.04676 16.04676 16.04676 16.04676 16.04676 16.04676 16.04676 16.04676 16.04676 16.04676 16.04676 16.04676 16.04676 16.04676 16.04676 16.04676 16.04676 16.04676 16.04676 16.04676 16.04676 16.04676 16.04676 16.04675 16.04677 16.04675 16.04677 16.04675 l 16.04676,4.18836 16.04676,10.47093"
       style="fill:none;stroke:#8c564b;stroke-width:1.5;stroke-linecap:square;stroke-linejoin:round;stroke-miterlimit:10;stroke-dasharray:none;stroke-opacity:1"
       transform="matrix(1.3333333,0,0,-1.3333333,0,598.87499)"
       clip-path="url(#clipPath60)" />
    <path
       id="path61"
       d="m 87.683381,203.79595 16.046759,19.89475 16.04676,118.32143 16.04676,-14.65929 16.04676,-150.78129 16.04676,-33.50695 16.04676,117.27433 16.04676,2.09419 16.04676,7.32964 16.04676,59.68426 16.04676,-56.54298 16.04676,63.87262 16.04676,-51.30751 16.04676,38.74241 16.04676,-139.26327 16.04676,-20.94184 16.04676,19.89475 16.04676,81.67319 16.04676,-17.80056 16.04676,4.18836 16.04676,65.96681 16.04676,-43.97787 16.04676,-54.44879 16.04676,-6.28256 16.04676,100.52086 16.04676,-73.29646 16.04676,91.09702 16.04676,-30.36567 16.04676,6.28255 16.04676,23.03603 16.04676,-53.4017 16.04675,17.80057 16.04677,-27.2244 16.04675,70.15518 16.04677,-19.89476 16.04675,-15.70638 16.04676,43.97787 16.04676,10.47093"
       style="fill:none;stroke:#8c564b;stroke-width:1.5;stroke-linecap:butt;stroke-linejoin:round;stroke-miterlimit:10;stroke-dasharray:5.55, 2.4;stroke-dashoffset:0;stroke-opacity:1"
       transform="matrix(1.3333333,0,0,-1.3333333,0,598.87499)"
       clip-path="url(#clipPath62)" />
    <path
       id="path63"
       d="m 87.683381,259.29184 16.046759,6.28255 16.04676,81.6732 h 16.04676 16.04676 16.04676 l 16.04676,10.47092 h 16.04676 16.04676 16.04676 16.04676 16.04676 16.04676 16.04676 16.04676 16.04676 16.04676 16.04676 16.04676 16.04676 16.04676 16.04676 16.04676 16.04676 l 16.04676,2.09418 h 16.04676 l 16.04676,23.03603 h 16.04676 16.04676 16.04676 16.04676 16.04675 l 16.04677,25.13022 h 16.04675 16.04677 16.04675 16.04676 16.04676"
       style="fill:none;stroke:#e377c2;stroke-width:1.5;stroke-linecap:square;stroke-linejoin:round;stroke-miterlimit:10;stroke-dasharray:none;stroke-opacity:1"
       transform="matrix(1.3333333,0,0,-1.3333333,0,598.87499)"
       clip-path="url(#clipPath64)" />
    <path
       id="path65"
       d="m 87.683381,259.29184 16.046759,6.28255 16.04676,81.6732 16.04676,-84.81447 16.04676,27.22439 16.04676,-54.44879 16.04676,122.50979 16.04676,-122.50979 16.04676,-47.11915 16.04676,45.02496 16.04676,51.30752 16.04676,-38.74241 16.04676,71.20227 16.04676,-28.27149 16.04676,23.03603 16.04676,-7.32964 16.04676,7.32964 16.04676,29.31858 16.04676,-8.37673 16.04676,-9.42383 16.04676,25.13021 16.04676,2.09418 16.04676,-38.74241 16.04676,41.88369 16.04676,6.28255 16.04676,-24.08312 16.04676,47.11915 16.04676,-54.44879 16.04676,6.28255 16.04676,-32.45986 16.04676,-33.50695 16.04675,35.60114 16.04677,103.66213 16.04675,-158.11093 16.04677,72.24936 16.04675,18.84766 16.04676,-50.26042 16.04676,-33.50695"
       style="fill:none;stroke:#e377c2;stroke-width:1.5;stroke-linecap:butt;stroke-linejoin:round;stroke-miterlimit:10;stroke-dasharray:5.55, 2.4;stroke-dashoffset:0;stroke-opacity:1"
       transform="matrix(1.3333333,0,0,-1.3333333,0,598.87499)"
       clip-path="url(#clipPath66)" />
    <path
       id="path67"
       d="m 87.683381,350.38886 h 16.046759 l 16.04676,37.69532 h 16.04676 16.04676 16.04676 16.04676 16.04676 16.04676 16.04676 16.04676 16.04676 16.04676 16.04676 16.04676 16.04676 16.04676 16.04676 16.04676 16.04676 16.04676 16.04676 16.04676 16.04676 16.04676 16.04676 16.04676 16.04676 16.04676 16.04676 16.04676 16.04675 16.04677 16.04675 16.04677 16.04675 16.04676 16.04676"
       style="fill:none;stroke:#7f7f7f;stroke-width:1.5;stroke-linecap:square;stroke-linejoin:round;stroke-miterlimit:10;stroke-dasharray:none;stroke-opacity:1"
       transform="matrix(1.3333333,0,0,-1.3333333,0,598.87499)"
       clip-path="url(#clipPath68)" />
    <path
       id="path69"
       d="m 87.683381,350.38886 16.046759,-20.94184 16.04676,58.63716 16.04676,-58.63716 16.04676,-25.13021 16.04676,-28.27149 16.04676,24.08312 16.04676,-13.6122 16.04676,37.69532 16.04676,18.84766 16.04676,-36.64823 16.04676,61.77844 16.04676,-86.90865 16.04676,-12.56511 16.04676,55.49589 16.04676,3.14128 16.04676,-7.32965 16.04676,7.32965 16.04676,-15.70639 16.04676,16.75348 16.04676,-10.47093 16.04676,-23.03602 16.04676,4.18836 16.04676,46.07206 16.04676,-46.07206 16.04676,52.35462 16.04676,-70.15518 16.04676,19.89475 16.04676,18.84766 16.04676,34.55404 16.04676,-37.69532 16.04675,-9.42383 16.04677,53.40171 16.04675,-62.82554 16.04677,81.6732 16.04675,-42.93079 16.04676,-41.88368 16.04676,10.47092"
       style="fill:none;stroke:#7f7f7f;stroke-width:1.5;stroke-linecap:butt;stroke-linejoin:round;stroke-miterlimit:10;stroke-dasharray:5.55, 2.4;stroke-dashoffset:0;stroke-opacity:1"
       transform="matrix(1.3333333,0,0,-1.3333333,0,598.87499)"
       clip-path="url(#clipPath70)" />
    <path
       id="path71"
       d="m 87.683381,253.00929 16.046759,61.77844 h 16.04676 16.04676 16.04676 16.04676 16.04676 l 16.04676,26.1773 h 16.04676 16.04676 16.04676 16.04676 16.04676 l 16.04676,24.08312 h 16.04676 16.04676 16.04676 l 16.04676,29.31859 h 16.04676 16.04676 16.04676 16.04676 16.04676 16.04676 16.04676 16.04676 16.04676 16.04676 16.04676 16.04676 16.04676 16.04675 16.04677 l 16.04675,3.14127 h 16.04677 16.04675 16.04676 16.04676"
       style="fill:none;stroke:#bcbd22;stroke-width:1.5;stroke-linecap:square;stroke-linejoin:round;stroke-miterlimit:10;stroke-dasharray:none;stroke-opacity:1"
       transform="matrix(1.3333333,0,0,-1.3333333,0,598.87499)"
       clip-path="url(#clipPath72)" />
    <path
       id="path73"
       d="m 87.683381,253.00929 16.046759,61.77844 16.04676,-83.76738 16.04676,5.23546 16.04676,17.80057 16.04676,-13.6122 16.04676,57.59007 16.04676,42.93078 16.04676,-77.48482 16.04676,35.60113 16.04676,31.41277 16.04676,-46.07206 16.04676,35.60114 16.04676,45.02496 16.04676,-69.10808 16.04676,26.1773 16.04676,-11.51801 16.04676,83.76738 16.04676,-71.20227 16.04676,13.61219 16.04676,32.45986 16.04676,-64.91971 16.04676,90.04993 16.04676,-77.48483 16.04676,5.23546 16.04676,-29.31858 16.04676,52.35461 16.04676,-25.13021 16.04676,-68.061 16.04676,134.02781 16.04676,-59.68426 16.04675,-33.50695 16.04677,69.10809 16.04675,35.60113 16.04677,-73.29645 16.04675,27.2244 16.04676,-13.6122 16.04676,16.75347"
       style="fill:none;stroke:#bcbd22;stroke-width:1.5;stroke-linecap:butt;stroke-linejoin:round;stroke-miterlimit:10;stroke-dasharray:5.55, 2.4;stroke-dashoffset:0;stroke-opacity:1"
       transform="matrix(1.3333333,0,0,-1.3333333,0,598.87499)"
       clip-path="url(#clipPath74)" />
    <path
       id="path75"
       d="m 87.683381,340.96503 h 16.046759 16.04676 16.04676 16.04676 16.04676 16.04676 16.04676 16.04676 16.04676 l 16.04676,15.70639 h 16.04676 16.04676 16.04676 16.04676 l 16.04676,2.09418 16.04676,26.17731 h 16.04676 16.04676 16.04676 16.04676 16.04676 16.04676 16.04676 l 16.04676,1.04709 h 16.04676 16.04676 16.04676 16.04676 16.04676 16.04676 16.04675 16.04677 16.04675 16.04677 16.04675 16.04676 16.04676"
       style="fill:none;stroke:#17becf;stroke-width:1.5;stroke-linecap:square;stroke-linejoin:round;stroke-miterlimit:10;stroke-dasharray:none;stroke-opacity:1"
       transform="matrix(1.3333333,0,0,-1.3333333,0,598.87499)"
       clip-path="url(#clipPath76)" />
    <path
       id="path77"
       d="m 87.683381,340.96503 16.046759,-46.07205 16.04676,-129.83944 16.04676,135.0749 16.04676,-5.23546 16.04676,39.7895 16.04676,-78.53192 16.04676,8.37674 16.04676,51.30752 16.04676,19.89475 16.04676,20.94185 16.04676,-29.31858 16.04676,-31.41277 16.04676,32.45986 16.04676,11.51801 16.04676,18.84766 16.04676,26.17731 16.04676,-55.49589 16.04676,21.98894 16.04676,-32.45986 16.04676,1.04709 16.04676,39.7895 16.04676,-26.1773 16.04676,11.51801 16.04676,40.8366 16.04676,-24.08312 16.04676,-10.47092 16.04676,12.5651 16.04676,-40.83659 16.04676,-14.6593 16.04676,42.93079 16.04675,-56.54298 16.04677,3.14127 16.04675,-1.04709 16.04677,-15.70638 16.04675,73.29645 16.04676,-64.91972 16.04676,14.6593"
       style="fill:none;stroke:#17becf;stroke-width:1.5;stroke-linecap:butt;stroke-linejoin:round;stroke-miterlimit:10;stroke-dasharray:5.55, 2.4;stroke-dashoffset:0;stroke-opacity:1"
       transform="matrix(1.3333333,0,0,-1.3333333,0,598.87499)"
       clip-path="url(#clipPath78)" />
    <path
       id="path79"
       d="M 52.048437,426.48437 H 669.75156 c 1.33334,0 2,0.66666 2,2 v 13.67187 c 0,1.33334 -0.66666,2 -2,2 H 52.048437 c -1.333333,0 -2,-0.66666 -2,-2 v -13.67187 c 0,-1.33334 0.666667,-2 2,-2 z"
       style="fill:#ffffff;fill-opacity:0.8;fill-rule:nonzero;stroke:#cccccc;stroke-width:1;stroke-linecap:butt;stroke-linejoin:miter;stroke-miterlimit:10;stroke-dasharray:none;stroke-opacity:0.8"
       transform="matrix(1.3333333,0,0,-1.3333333,0,598.87499)" />
    <path
       id="path80"
       d="m 54.048437,436.06249 h 20"
       style="fill:none;stroke:#1f77b4;stroke-width:1.5;stroke-linecap:square;stroke-linejoin:round;stroke-miterlimit:10;stroke-dasharray:none;stroke-opacity:1"
       transform="matrix(1.3333333,0,0,-1.3333333,0,598.87499)" />
    <text
       id="text80"
       xml:space="preserve"
       transform="matrix(1.3333333,0,0,1.3333333,109.39792,22.125)"><tspan
         id="tspan80"
         style="font-variant:normal;font-weight:normal;font-size:10px;font-family:'DejaVu Sans';writing-mode:lr-tb;fill:#000000;fill-opacity:1;fill-rule:nonzero;stroke:none"
         x="0"
         y="0">#1</tspan></text>
    <path
       id="path81"
       d="m 116.78281,436.06249 h 20"
       style="fill:none;stroke:#ff7f0e;stroke-width:1.5;stroke-linecap:square;stroke-linejoin:round;stroke-miterlimit:10;stroke-dasharray:none;stroke-opacity:1"
       transform="matrix(1.3333333,0,0,-1.3333333,0,598.87499)" />
    <text
       id="text81"
       xml:space="preserve"
       transform="matrix(1.3333333,0,0,1.3333333,193.04375,22.125)"><tspan
         id="tspan81"
         style="font-variant:normal;font-weight:normal;font-size:10px;font-family:'DejaVu Sans';writing-mode:lr-tb;fill:#000000;fill-opacity:1;fill-rule:nonzero;stroke:none"
         x="0"
         y="0">#2</tspan></text>
    <path
       id="path82"
       d="m 179.51719,436.06249 h 20"
       style="fill:none;stroke:#2ca02c;stroke-width:1.5;stroke-linecap:square;stroke-linejoin:round;stroke-miterlimit:10;stroke-dasharray:none;stroke-opacity:1"
       transform="matrix(1.3333333,0,0,-1.3333333,0,598.87499)" />
    <text
       id="text82"
       xml:space="preserve"
       transform="matrix(1.3333333,0,0,1.3333333,276.68958,22.125)"><tspan
         id="tspan82"
         style="font-variant:normal;font-weight:normal;font-size:10px;font-family:'DejaVu Sans';writing-mode:lr-tb;fill:#000000;fill-opacity:1;fill-rule:nonzero;stroke:none"
         x="0"
         y="0">#3</tspan></text>
    <path
       id="path83"
       d="m 242.25156,436.06249 h 20"
       style="fill:none;stroke:#d62728;stroke-width:1.5;stroke-linecap:square;stroke-linejoin:round;stroke-miterlimit:10;stroke-dasharray:none;stroke-opacity:1"
       transform="matrix(1.3333333,0,0,-1.3333333,0,598.87499)" />
    <text
       id="text83"
       xml:space="preserve"
       transform="matrix(1.3333333,0,0,1.3333333,360.33542,22.125)"><tspan
         id="tspan83"
         style="font-variant:normal;font-weight:normal;font-size:10px;font-family:'DejaVu Sans';writing-mode:lr-tb;fill:#000000;fill-opacity:1;fill-rule:nonzero;stroke:none"
         x="0"
         y="0">#4</tspan></text>
    <path
       id="path84"
       d="m 304.98594,436.06249 h 20"
       style="fill:none;stroke:#9467bd;stroke-width:1.5;stroke-linecap:square;stroke-linejoin:round;stroke-miterlimit:10;stroke-dasharray:none;stroke-opacity:1"
       transform="matrix(1.3333333,0,0,-1.3333333,0,598.87499)" />
    <text
       id="text84"
       xml:space="preserve"
       transform="matrix(1.3333333,0,0,1.3333333,443.98125,22.125)"><tspan
         id="tspan84"
         style="font-variant:normal;font-weight:normal;font-size:10px;font-family:'DejaVu Sans';writing-mode:lr-tb;fill:#000000;fill-opacity:1;fill-rule:nonzero;stroke:none"
         x="0"
         y="0">#5</tspan></text>
    <path
       id="path85"
       d="m 367.72031,436.06249 h 20"
       style="fill:none;stroke:#8c564b;stroke-width:1.5;stroke-linecap:square;stroke-linejoin:round;stroke-miterlimit:10;stroke-dasharray:none;stroke-opacity:1"
       transform="matrix(1.3333333,0,0,-1.3333333,0,598.87499)" />
    <text
       id="text85"
       xml:space="preserve"
       transform="matrix(1.3333333,0,0,1.3333333,527.62708,22.125)"><tspan
         id="tspan85"
         style="font-variant:normal;font-weight:normal;font-size:10px;font-family:'DejaVu Sans';writing-mode:lr-tb;fill:#000000;fill-opacity:1;fill-rule:nonzero;stroke:none"
         x="0"
         y="0">#6</tspan></text>
    <path
       id="path86"
       d="m 430.45469,436.06249 h 20"
       style="fill:none;stroke:#e377c2;stroke-width:1.5;stroke-linecap:square;stroke-linejoin:round;stroke-miterlimit:10;stroke-dasharray:none;stroke-opacity:1"
       transform="matrix(1.3333333,0,0,-1.3333333,0,598.87499)" />
    <text
       id="text86"
       xml:space="preserve"
       transform="matrix(1.3333333,0,0,1.3333333,611.27292,22.125)"><tspan
         id="tspan86"
         style="font-variant:normal;font-weight:normal;font-size:10px;font-family:'DejaVu Sans';writing-mode:lr-tb;fill:#000000;fill-opacity:1;fill-rule:nonzero;stroke:none"
         x="0"
         y="0">#7</tspan></text>
    <path
       id="path87"
       d="m 493.18906,436.06249 h 20"
       style="fill:none;stroke:#7f7f7f;stroke-width:1.5;stroke-linecap:square;stroke-linejoin:round;stroke-miterlimit:10;stroke-dasharray:none;stroke-opacity:1"
       transform="matrix(1.3333333,0,0,-1.3333333,0,598.87499)" />
    <text
       id="text87"
       xml:space="preserve"
       transform="matrix(1.3333333,0,0,1.3333333,694.91875,22.125)"><tspan
         id="tspan87"
         style="font-variant:normal;font-weight:normal;font-size:10px;font-family:'DejaVu Sans';writing-mode:lr-tb;fill:#000000;fill-opacity:1;fill-rule:nonzero;stroke:none"
         x="0"
         y="0">#8</tspan></text>
    <path
       id="path88"
       d="m 555.92344,436.06249 h 20"
       style="fill:none;stroke:#bcbd22;stroke-width:1.5;stroke-linecap:square;stroke-linejoin:round;stroke-miterlimit:10;stroke-dasharray:none;stroke-opacity:1"
       transform="matrix(1.3333333,0,0,-1.3333333,0,598.87499)" />
    <text
       id="text88"
       xml:space="preserve"
       transform="matrix(1.3333333,0,0,1.3333333,778.56458,22.125)"><tspan
         id="tspan88"
         style="font-variant:normal;font-weight:normal;font-size:10px;font-family:'DejaVu Sans';writing-mode:lr-tb;fill:#000000;fill-opacity:1;fill-rule:nonzero;stroke:none"
         x="0"
         y="0">#9</tspan></text>
    <path
       id="path89"
       d="m 618.65781,436.06249 h 20"
       style="fill:none;stroke:#17becf;stroke-width:1.5;stroke-linecap:square;stroke-linejoin:round;stroke-miterlimit:10;stroke-dasharray:none;stroke-opacity:1"
       transform="matrix(1.3333333,0,0,-1.3333333,0,598.87499)" />
    <text
       id="text89"
       xml:space="preserve"
       transform="matrix(1.3333333,0,0,1.3333333,862.21042,22.125)"><tspan
         id="tspan89"
         style="font-variant:normal;font-weight:normal;font-size:10px;font-family:'DejaVu Sans';writing-mode:lr-tb;fill:#000000;fill-opacity:1;fill-rule:nonzero;stroke:none"
         x="0"
         y="0">#10</tspan></text>
  </g>
</svg>
