<svg xmlns="http://www.w3.org/2000/svg" width="962.4" height="598.875" viewBox="0 0 962.4 598.875"><defs><clipPath id="a" clipPathUnits="userSpaceOnUse"><path d="M57.997 42.544H711.1v391.612H57.997Z"/></clipPath><clipPath id="b" clipPathUnits="userSpaceOnUse"><path d="M57.997 42.544H711.1v391.612H57.997Z"/></clipPath><clipPath id="c" clipPathUnits="userSpaceOnUse"><path d="M57.997 42.544H711.1v391.612H57.997Z"/></clipPath><clipPath id="d" clipPathUnits="userSpaceOnUse"><path d="M57.997 42.544H711.1v391.612H57.997Z"/></clipPath><clipPath id="e" clipPathUnits="userSpaceOnUse"><path d="M57.997 42.544H711.1v391.612H57.997Z"/></clipPath><clipPath id="f" clipPathUnits="userSpaceOnUse"><path d="M57.997 42.544H711.1v391.612H57.997Z"/></clipPath><clipPath id="g" clipPathUnits="userSpaceOnUse"><path d="M57.997 42.544H711.1v391.612H57.997Z"/></clipPath><clipPath id="h" clipPathUnits="userSpaceOnUse"><path d="M57.997 42.544H711.1v391.612H57.997Z"/></clipPath><clipPath id="i" clipPathUnits="userSpaceOnUse"><path d="M57.997 42.544H711.1v391.612H57.997Z"/></clipPath><clipPath id="j" clipPathUnits="userSpaceOnUse"><path d="M57.997 42.544H711.1v391.612H57.997Z"/></clipPath><clipPath id="k" clipPathUnits="userSpaceOnUse"><path d="M57.997 42.544H711.1v391.612H57.997Z"/></clipPath><clipPath id="l" clipPathUnits="userSpaceOnUse"><path d="M57.997 42.544H711.1v391.612H57.997Z"/></clipPath><clipPath id="m" clipPathUnits="userSpaceOnUse"><path d="M57.997 42.544H711.1v391.612H57.997Z"/></clipPath><clipPath id="n" clipPathUnits="userSpaceOnUse"><path d="M57.997 42.544H711.1v391.612H57.997Z"/></clipPath><clipPath id="o" clipPathUnits="userSpaceOnUse"><path d="M57.997 42.544H711.1v391.612H57.997Z"/></clipPath><clipPath id="p" clipPathUnits="userSpaceOnUse"><path d="M57.997 42.544H711.1v391.612H57.997Z"/></clipPath><clipPath id="q" clipPathUnits="userSpaceOnUse"><path d="M57.997 42.544H711.1v391.612H57.997Z"/></clipPath><clipPath id="r" clipPathUnits="userSpaceOnUse"><path d="M57.997 42.544H711.1v391.612H57.997Z"/></clipPath><clipPath id="s" clipPathUnits="userSpaceOnUse"><path d="M57.997 42.544H711.1v391.612H57.997Z"/></clipPath><clipPath id="t" clipPathUnits="userSpaceOnUse"><path d="M57.997 42.544H711.1v391.612H57.997Z"/></clipPath><clipPath id="u" clipPathUnits="userSpaceOnUse"><path d="M57.997 42.544H711.1v391.612H57.997Z"/></clipPath><clipPath id="v" clipPathUnits="userSpaceOnUse"><path d="M57.997 42.544H711.1v391.612H57.997Z"/></clipPath><clipPath id="w" clipPathUnits="userSpaceOnUse"><path d="M57.997 42.544H711.1v391.612H57.997Z"/></clipPath><clipPath id="x" clipPathUnits="userSpaceOnUse"><path d="M57.997 42.544H711.1v391.612H57.997Z"/></clipPath><clipPath id="y" clipPathUnits="userSpaceOnUse"><path d="M57.997 42.544H711.1v391.612H57.997Z"/></clipPath><clipPath id="z" clipPathUnits="userSpaceOnUse"><path d="M57.997 42.544H711.1v391.612H57.997Z"/></clipPath><clipPath id="A" clipPathUnits="userSpaceOnUse"><path d="M57.997 42.544H711.1v391.612H57.997Z"/></clipPath><clipPath id="B" clipPathUnits="userSpaceOnUse"><path d="M57.997 42.544H711.1v391.612H57.997Z"/></clipPath><clipPath id="C" clipPathUnits="userSpaceOnUse"><path d="M57.997 42.544H711.1v391.612H57.997Z"/></clipPath><clipPath id="D" clipPathUnits="userSpaceOnUse"><path d="M57.997 42.544H711.1v391.612H57.997Z"/></clipPath><clipPath id="E" clipPathUnits="userSpaceOnUse"><path d="M57.997 42.544H711.1v391.612H57.997Z"/></clipPath><clipPath id="F" clipPathUnits="userSpaceOnUse"><path d="M57.997 42.544H711.1v391.612H57.997Z"/></clipPath><clipPath id="G" clipPathUnits="userSpaceOnUse"><path d="M57.997 42.544H711.1v391.612H57.997Z"/></clipPath><clipPath id="H" clipPathUnits="userSpaceOnUse"><path d="M57.997 42.544H711.1v391.612H57.997Z"/></clipPath><clipPath id="I" clipPathUnits="userSpaceOnUse"><path d="M57.997 42.544H711.1v391.612H57.997Z"/></clipPath></defs><path d="M71.637 42.544v391.612" clip-path="url(#a)" style="fill:none;stroke:#e6e6e6;stroke-width:1;stroke-linecap:square;stroke-linejoin:round;stroke-miterlimit:10;stroke-dasharray:none;stroke-opacity:1" transform="matrix(1.33333 0 0 -1.33333 0 598.875)"/><path d="M71.637 37.544v-3.5" style="fill:#000;fill-opacity:1;fill-rule:nonzero;stroke:#000;stroke-width:.8;stroke-linecap:butt;stroke-linejoin:round;stroke-miterlimit:10;stroke-dasharray:none;stroke-opacity:1" transform="matrix(1.33333 0 0 -1.33333 0 598.875)"/><text xml:space="preserve" transform="translate(91.276 568.275)scale(1.33333)"><tspan x="0" y="0" style="font-variant:normal;font-weight:400;font-size:10px;font-family:&quot;DejaVu Sans&quot;;writing-mode:lr-tb;fill:#000;fill-opacity:1;fill-rule:nonzero;stroke:none">0</tspan></text><path d="M151.87 42.544v391.612" clip-path="url(#b)" style="fill:none;stroke:#e6e6e6;stroke-width:1;stroke-linecap:square;stroke-linejoin:round;stroke-miterlimit:10;stroke-dasharray:none;stroke-opacity:1" transform="matrix(1.33333 0 0 -1.33333 0 598.875)"/><path d="M151.87 37.544v-3.5" style="fill:#000;fill-opacity:1;fill-rule:nonzero;stroke:#000;stroke-width:.8;stroke-linecap:butt;stroke-linejoin:round;stroke-miterlimit:10;stroke-dasharray:none;stroke-opacity:1" transform="matrix(1.33333 0 0 -1.33333 0 598.875)"/><text xml:space="preserve" transform="translate(198.254 568.275)scale(1.33333)"><tspan x="0" y="0" style="font-variant:normal;font-weight:400;font-size:10px;font-family:&quot;DejaVu Sans&quot;;writing-mode:lr-tb;fill:#000;fill-opacity:1;fill-rule:nonzero;stroke:none">5</tspan></text><path d="M232.104 42.544v391.612" clip-path="url(#c)" style="fill:none;stroke:#e6e6e6;stroke-width:1;stroke-linecap:square;stroke-linejoin:round;stroke-miterlimit:10;stroke-dasharray:none;stroke-opacity:1" transform="matrix(1.33333 0 0 -1.33333 0 598.875)"/><path d="M232.104 37.544v-3.5" style="fill:#000;fill-opacity:1;fill-rule:nonzero;stroke:#000;stroke-width:.8;stroke-linecap:butt;stroke-linejoin:round;stroke-miterlimit:10;stroke-dasharray:none;stroke-opacity:1" transform="matrix(1.33333 0 0 -1.33333 0 598.875)"/><text xml:space="preserve" transform="translate(300.993 568.275)scale(1.33333)"><tspan x="0" y="0" style="font-variant:normal;font-weight:400;font-size:10px;font-family:&quot;DejaVu Sans&quot;;writing-mode:lr-tb;fill:#000;fill-opacity:1;fill-rule:nonzero;stroke:none">10</tspan></text><path d="M312.338 42.544v391.612" clip-path="url(#d)" style="fill:none;stroke:#e6e6e6;stroke-width:1;stroke-linecap:square;stroke-linejoin:round;stroke-miterlimit:10;stroke-dasharray:none;stroke-opacity:1" transform="matrix(1.33333 0 0 -1.33333 0 598.875)"/><path d="M312.338 37.544v-3.5" style="fill:#000;fill-opacity:1;fill-rule:nonzero;stroke:#000;stroke-width:.8;stroke-linecap:butt;stroke-linejoin:round;stroke-miterlimit:10;stroke-dasharray:none;stroke-opacity:1" transform="matrix(1.33333 0 0 -1.33333 0 598.875)"/><text xml:space="preserve" transform="translate(407.972 568.275)scale(1.33333)"><tspan x="0" y="0" style="font-variant:normal;font-weight:400;font-size:10px;font-family:&quot;DejaVu Sans&quot;;writing-mode:lr-tb;fill:#000;fill-opacity:1;fill-rule:nonzero;stroke:none">15</tspan></text><path d="M392.572 42.544v391.612" clip-path="url(#e)" style="fill:none;stroke:#e6e6e6;stroke-width:1;stroke-linecap:square;stroke-linejoin:round;stroke-miterlimit:10;stroke-dasharray:none;stroke-opacity:1" transform="matrix(1.33333 0 0 -1.33333 0 598.875)"/><path d="M392.572 37.544v-3.5" style="fill:#000;fill-opacity:1;fill-rule:nonzero;stroke:#000;stroke-width:.8;stroke-linecap:butt;stroke-linejoin:round;stroke-miterlimit:10;stroke-dasharray:none;stroke-opacity:1" transform="matrix(1.33333 0 0 -1.33333 0 598.875)"/><text xml:space="preserve" transform="translate(514.95 568.275)scale(1.33333)"><tspan x="0" y="0" style="font-variant:normal;font-weight:400;font-size:10px;font-family:&quot;DejaVu Sans&quot;;writing-mode:lr-tb;fill:#000;fill-opacity:1;fill-rule:nonzero;stroke:none">20</tspan></text><path d="M472.806 42.544v391.612" clip-path="url(#f)" style="fill:none;stroke:#e6e6e6;stroke-width:1;stroke-linecap:square;stroke-linejoin:round;stroke-miterlimit:10;stroke-dasharray:none;stroke-opacity:1" transform="matrix(1.33333 0 0 -1.33333 0 598.875)"/><path d="M472.806 37.544v-3.5" style="fill:#000;fill-opacity:1;fill-rule:nonzero;stroke:#000;stroke-width:.8;stroke-linecap:butt;stroke-linejoin:round;stroke-miterlimit:10;stroke-dasharray:none;stroke-opacity:1" transform="matrix(1.33333 0 0 -1.33333 0 598.875)"/><text xml:space="preserve" transform="translate(621.928 568.275)scale(1.33333)"><tspan x="0" y="0" style="font-variant:normal;font-weight:400;font-size:10px;font-family:&quot;DejaVu Sans&quot;;writing-mode:lr-tb;fill:#000;fill-opacity:1;fill-rule:nonzero;stroke:none">25</tspan></text><path d="M553.04 42.544v391.612" clip-path="url(#g)" style="fill:none;stroke:#e6e6e6;stroke-width:1;stroke-linecap:square;stroke-linejoin:round;stroke-miterlimit:10;stroke-dasharray:none;stroke-opacity:1" transform="matrix(1.33333 0 0 -1.33333 0 598.875)"/><path d="M553.04 37.544v-3.5" style="fill:#000;fill-opacity:1;fill-rule:nonzero;stroke:#000;stroke-width:.8;stroke-linecap:butt;stroke-linejoin:round;stroke-miterlimit:10;stroke-dasharray:none;stroke-opacity:1" transform="matrix(1.33333 0 0 -1.33333 0 598.875)"/><text xml:space="preserve" transform="translate(728.907 568.275)scale(1.33333)"><tspan x="0" y="0" style="font-variant:normal;font-weight:400;font-size:10px;font-family:&quot;DejaVu Sans&quot;;writing-mode:lr-tb;fill:#000;fill-opacity:1;fill-rule:nonzero;stroke:none">30</tspan></text><path d="M633.273 42.544v391.612" clip-path="url(#h)" style="fill:none;stroke:#e6e6e6;stroke-width:1;stroke-linecap:square;stroke-linejoin:round;stroke-miterlimit:10;stroke-dasharray:none;stroke-opacity:1" transform="matrix(1.33333 0 0 -1.33333 0 598.875)"/><path d="M633.273 37.544v-3.5" style="fill:#000;fill-opacity:1;fill-rule:nonzero;stroke:#000;stroke-width:.8;stroke-linecap:butt;stroke-linejoin:round;stroke-miterlimit:10;stroke-dasharray:none;stroke-opacity:1" transform="matrix(1.33333 0 0 -1.33333 0 598.875)"/><text xml:space="preserve" transform="translate(835.885 568.275)scale(1.33333)"><tspan x="0" y="0" style="font-variant:normal;font-weight:400;font-size:10px;font-family:&quot;DejaVu Sans&quot;;writing-mode:lr-tb;fill:#000;fill-opacity:1;fill-rule:nonzero;stroke:none">35</tspan></text><text xml:space="preserve" transform="translate(475.523 586.504)scale(1.33333)"><tspan x="0" y="0" style="font-variant:normal;font-weight:400;font-size:10px;font-family:&quot;DejaVu Sans&quot;;writing-mode:lr-tb;fill:#000;fill-opacity:1;fill-rule:nonzero;stroke:none">Generation</tspan></text><path d="M57.997 93.328H711.1" clip-path="url(#i)" style="fill:none;stroke:#e6e6e6;stroke-width:1;stroke-linecap:square;stroke-linejoin:round;stroke-miterlimit:10;stroke-dasharray:none;stroke-opacity:1" transform="matrix(1.33333 0 0 -1.33333 0 598.875)"/><text xml:space="preserve" transform="translate(27.83 479.5)scale(1.33333)"><tspan x="0" y="0" style="font-variant:normal;font-weight:400;font-size:10px;font-family:&quot;DejaVu Sans&quot;;writing-mode:lr-tb;fill:#000;fill-opacity:1;fill-rule:nonzero;stroke:none">0.815</tspan></text><path d="M57.997 147.777H711.1" clip-path="url(#j)" style="fill:none;stroke:#e6e6e6;stroke-width:1;stroke-linecap:square;stroke-linejoin:round;stroke-miterlimit:10;stroke-dasharray:none;stroke-opacity:1" transform="matrix(1.33333 0 0 -1.33333 0 598.875)"/><text xml:space="preserve" transform="translate(27.83 406.902)scale(1.33333)"><tspan x="0" y="0" style="font-variant:normal;font-weight:400;font-size:10px;font-family:&quot;DejaVu Sans&quot;;writing-mode:lr-tb;fill:#000;fill-opacity:1;fill-rule:nonzero;stroke:none">0.820</tspan></text><path d="M57.997 202.225H711.1" clip-path="url(#k)" style="fill:none;stroke:#e6e6e6;stroke-width:1;stroke-linecap:square;stroke-linejoin:round;stroke-miterlimit:10;stroke-dasharray:none;stroke-opacity:1" transform="matrix(1.33333 0 0 -1.33333 0 598.875)"/><text xml:space="preserve" transform="translate(27.83 334.304)scale(1.33333)"><tspan x="0" y="0" style="font-variant:normal;font-weight:400;font-size:10px;font-family:&quot;DejaVu Sans&quot;;writing-mode:lr-tb;fill:#000;fill-opacity:1;fill-rule:nonzero;stroke:none">0.825</tspan></text><path d="M57.997 256.674H711.1" clip-path="url(#l)" style="fill:none;stroke:#e6e6e6;stroke-width:1;stroke-linecap:square;stroke-linejoin:round;stroke-miterlimit:10;stroke-dasharray:none;stroke-opacity:1" transform="matrix(1.33333 0 0 -1.33333 0 598.875)"/><text xml:space="preserve" transform="translate(27.83 261.705)scale(1.33333)"><tspan x="0" y="0" style="font-variant:normal;font-weight:400;font-size:10px;font-family:&quot;DejaVu Sans&quot;;writing-mode:lr-tb;fill:#000;fill-opacity:1;fill-rule:nonzero;stroke:none">0.830</tspan></text><path d="M57.997 311.123H711.1" clip-path="url(#m)" style="fill:none;stroke:#e6e6e6;stroke-width:1;stroke-linecap:square;stroke-linejoin:round;stroke-miterlimit:10;stroke-dasharray:none;stroke-opacity:1" transform="matrix(1.33333 0 0 -1.33333 0 598.875)"/><text xml:space="preserve" transform="translate(27.83 189.107)scale(1.33333)"><tspan x="0" y="0" style="font-variant:normal;font-weight:400;font-size:10px;font-family:&quot;DejaVu Sans&quot;;writing-mode:lr-tb;fill:#000;fill-opacity:1;fill-rule:nonzero;stroke:none">0.835</tspan></text><path d="M57.997 365.572H711.1" clip-path="url(#n)" style="fill:none;stroke:#e6e6e6;stroke-width:1;stroke-linecap:square;stroke-linejoin:round;stroke-miterlimit:10;stroke-dasharray:none;stroke-opacity:1" transform="matrix(1.33333 0 0 -1.33333 0 598.875)"/><text xml:space="preserve" transform="translate(27.83 116.509)scale(1.33333)"><tspan x="0" y="0" style="font-variant:normal;font-weight:400;font-size:10px;font-family:&quot;DejaVu Sans&quot;;writing-mode:lr-tb;fill:#000;fill-opacity:1;fill-rule:nonzero;stroke:none">0.840</tspan></text><path d="M57.997 420.02H711.1" clip-path="url(#o)" style="fill:none;stroke:#e6e6e6;stroke-width:1;stroke-linecap:square;stroke-linejoin:round;stroke-miterlimit:10;stroke-dasharray:none;stroke-opacity:1" transform="matrix(1.33333 0 0 -1.33333 0 598.875)"/><text xml:space="preserve" transform="translate(27.83 43.91)scale(1.33333)"><tspan x="0" y="0" style="font-variant:normal;font-weight:400;font-size:10px;font-family:&quot;DejaVu Sans&quot;;writing-mode:lr-tb;fill:#000;fill-opacity:1;fill-rule:nonzero;stroke:none">0.845</tspan></text><text xml:space="preserve" transform="rotate(-90 165.785 146.06)scale(1.33333)"><tspan x="0" y="0" style="font-variant:normal;font-weight:400;font-size:10px;font-family:&quot;DejaVu Sans&quot;;writing-mode:lr-tb;fill:#000;fill-opacity:1;fill-rule:nonzero;stroke:none">ROC AUC</tspan></text><path d="M87.683 285.47h16.047l16.047 21.988h32.093l16.047 43.978h32.094l16.046 5.235h112.328l16.047 1.048h16.046l16.047 8.376 16.047 9.424h144.421l16.046 23.036h128.374" clip-path="url(#p)" style="fill:none;stroke:#1f77b4;stroke-width:1.5;stroke-linecap:square;stroke-linejoin:round;stroke-miterlimit:10;stroke-dasharray:none;stroke-opacity:1" transform="matrix(1.33333 0 0 -1.33333 0 598.875)"/><path d="m87.683 285.47 16.047-6.283 16.047 28.271 16.047-4.188 16.046-9.424 16.047 57.59 16.047-137.17 16.047-12.564 16.046 154.97 16.047-70.156 16.047-33.507 16.047-62.825 16.047 84.814 16.046 50.26 16.047-67.013 16.047 68.06 16.047 31.414 16.046-20.942 16.047 29.318 16.047 9.424 16.047-20.942 16.046-2.094 16.047-58.637 16.047 79.579 16.047-7.33 16.046-72.25 16.047 58.638 16.047-31.413 16.047-10.47 16.046 87.955 16.047-101.568 16.047-2.094 16.047-37.695 16.046-42.931 16.047 163.346 16.047-58.637 16.047-54.449 16.046-18.847" clip-path="url(#q)" style="fill:none;stroke:#1f77b4;stroke-width:1.5;stroke-linecap:butt;stroke-linejoin:round;stroke-miterlimit:10;stroke-dasharray:5.55,2.4;stroke-dashoffset:0;stroke-opacity:1" transform="matrix(1.33333 0 0 -1.33333 0 598.875)"/><path d="M87.683 284.422h16.047l16.047 26.177 16.047 7.33h80.233l16.047 34.554h80.234l16.047 1.047h32.093l16.047 21.99h48.14l16.047 14.658h240.701" clip-path="url(#r)" style="fill:none;stroke:#ff7f0e;stroke-width:1.5;stroke-linecap:square;stroke-linejoin:round;stroke-miterlimit:10;stroke-dasharray:none;stroke-opacity:1" transform="matrix(1.33333 0 0 -1.33333 0 598.875)"/><path d="m87.683 284.422 16.047-13.612 16.047 39.79 16.047 7.329 16.046-43.978 16.047-7.33 16.047 13.613 16.047-112.04 16.046 114.134 16.047 70.155 16.047-8.377 16.047-23.036 16.047 12.565 16.046-51.307 16.047 2.094 16.047 69.108 16.047-19.895 16.046-15.706 16.047 57.59 16.047-26.177 16.047-9.424 16.046 28.271 16.047 21.99 16.047-31.413 16.047-12.566 16.046-14.659H504.9l16.047 26.178 16.047 2.094 16.046-89.003 16.047 84.814 16.047 7.33 16.047-56.543 16.046 52.355 16.047-74.344 16.047-18.848 16.047-18.847 16.046 107.85" clip-path="url(#s)" style="fill:none;stroke:#ff7f0e;stroke-width:1.5;stroke-linecap:butt;stroke-linejoin:round;stroke-miterlimit:10;stroke-dasharray:5.55,2.4;stroke-dashoffset:0;stroke-opacity:1" transform="matrix(1.33333 0 0 -1.33333 0 598.875)"/><path d="m87.683 224.738 16.047 7.33 16.047 87.955h64.187l16.047 1.047h224.654l16.047 29.319h16.047l16.047 20.942h160.467l16.047 1.047h32.093" clip-path="url(#t)" style="fill:none;stroke:#2ca02c;stroke-width:1.5;stroke-linecap:square;stroke-linejoin:round;stroke-miterlimit:10;stroke-dasharray:none;stroke-opacity:1" transform="matrix(1.33333 0 0 -1.33333 0 598.875)"/><path d="m87.683 224.738 16.047 7.33 16.047 87.955 16.047-61.778 16.046 32.46 16.047 6.282 16.047-42.93 16.047 67.013 16.046-57.59 16.047 4.189 16.047 10.47 16.047-24.083 16.047-36.648 16.046-21.989 16.047 94.239 16.047-70.156h16.047l16.046 86.909 16.047-11.518 16.047 13.612 16.047-28.271 16.046-1.047 16.047 71.202 16.047-43.978 16.047 64.92 16.046-38.743 16.047-68.06 16.047-29.32 16.047 109.945 16.046 9.424 16.047-90.05 16.047-41.883 16.047 72.249 16.046 54.449 16.047-75.39 16.047 98.426 16.047-2.094 16.046 2.094" clip-path="url(#u)" style="fill:none;stroke:#2ca02c;stroke-width:1.5;stroke-linecap:butt;stroke-linejoin:round;stroke-miterlimit:10;stroke-dasharray:5.55,2.4;stroke-dashoffset:0;stroke-opacity:1" transform="matrix(1.33333 0 0 -1.33333 0 598.875)"/><path d="m87.683 215.314 16.047 48.166 16.047 24.083 16.047 31.413h32.093l16.047 19.895h16.047l16.046 8.377h401.169l16.047 5.235h48.14" clip-path="url(#v)" style="fill:none;stroke:#d62728;stroke-width:1.5;stroke-linecap:square;stroke-linejoin:round;stroke-miterlimit:10;stroke-dasharray:none;stroke-opacity:1" transform="matrix(1.33333 0 0 -1.33333 0 598.875)"/><path d="m87.683 215.314 16.047 48.166 16.047 24.083 16.047 31.413 16.046-75.39 16.047 38.742 16.047 56.543 16.047-54.449 16.046 62.826 16.047-45.025 16.047 25.13 16.047-13.612 16.047-62.826 16.046 86.909 16.047-58.637 16.047 15.706 16.047 3.141 16.046 3.142 16.047-26.178 16.047 5.236 16.047 30.365 16.046-24.083 16.047-29.318 16.047-35.601 16.047 55.495 16.046-216.748 16.047 180.1 16.047 5.236 16.047-30.366 16.046-108.898 16.047 137.17 16.047 72.249 16.047-9.424 16.046 13.612 16.047 32.46 16.047-2.094 16.047-252.35 16.046 249.209" clip-path="url(#w)" style="fill:none;stroke:#d62728;stroke-width:1.5;stroke-linecap:butt;stroke-linejoin:round;stroke-miterlimit:10;stroke-dasharray:5.55,2.4;stroke-dashoffset:0;stroke-opacity:1" transform="matrix(1.33333 0 0 -1.33333 0 598.875)"/><path d="m87.683 289.658 16.047 2.094h16.047l16.047 32.46h80.233l16.047 12.565h80.234l16.047 79.579h353.028" clip-path="url(#x)" style="fill:none;stroke:#9467bd;stroke-width:1.5;stroke-linecap:square;stroke-linejoin:round;stroke-miterlimit:10;stroke-dasharray:none;stroke-opacity:1" transform="matrix(1.33333 0 0 -1.33333 0 598.875)"/><path d="m87.683 289.658 16.047 2.094 16.047-33.507 16.047 65.967 16.046-50.26h32.094l16.047-3.142 16.046 40.836 16.047 25.13 16.047-35.6 16.047 16.753 16.047 1.047 16.046 6.283 16.047-48.167 16.047 139.264 16.047-189.524 16.046 86.909 16.047 5.235 16.047-80.626 16.047 12.565 16.046 23.036 16.047 3.141 16.047 62.826 16.047-28.272 16.046 26.178 16.047-15.707 16.047-29.318 16.047-20.942 16.046 90.05 16.047-20.942 16.047-99.474 16.047 79.58 16.046-84.815 16.047 84.814 16.047 11.518 16.047-6.282 16.046-42.931" clip-path="url(#y)" style="fill:none;stroke:#9467bd;stroke-width:1.5;stroke-linecap:butt;stroke-linejoin:round;stroke-miterlimit:10;stroke-dasharray:5.55,2.4;stroke-dashoffset:0;stroke-opacity:1" transform="matrix(1.33333 0 0 -1.33333 0 598.875)"/><path d="m87.683 203.796 16.047 19.895 16.047 118.321H649.32l16.047 4.188 16.046 10.471" clip-path="url(#z)" style="fill:none;stroke:#8c564b;stroke-width:1.5;stroke-linecap:square;stroke-linejoin:round;stroke-miterlimit:10;stroke-dasharray:none;stroke-opacity:1" transform="matrix(1.33333 0 0 -1.33333 0 598.875)"/><path d="m87.683 203.796 16.047 19.895 16.047 118.321 16.047-14.66 16.046-150.78 16.047-33.507 16.047 117.274 16.047 2.094 16.046 7.33 16.047 59.684 16.047-56.543 16.047 63.873 16.047-51.308 16.046 38.743 16.047-139.264 16.047-20.942 16.047 19.895 16.046 81.673 16.047-17.8 16.047 4.188 16.047 65.967 16.046-43.978 16.047-54.449 16.047-6.282 16.047 100.52 16.046-73.296 16.047 91.097 16.047-30.365 16.047 6.282 16.046 23.036 16.047-53.402 16.047 17.801 16.047-27.224 16.046 70.155 16.047-19.895 16.047-15.706 16.047 43.977 16.046 10.471" clip-path="url(#A)" style="fill:none;stroke:#8c564b;stroke-width:1.5;stroke-linecap:butt;stroke-linejoin:round;stroke-miterlimit:10;stroke-dasharray:5.55,2.4;stroke-dashoffset:0;stroke-opacity:1" transform="matrix(1.33333 0 0 -1.33333 0 598.875)"/><path d="m87.683 259.292 16.047 6.282 16.047 81.674h48.14l16.047 10.47h272.795l16.047 2.095h16.046l16.047 23.036h80.234l16.047 25.13h80.233" clip-path="url(#B)" style="fill:none;stroke:#e377c2;stroke-width:1.5;stroke-linecap:square;stroke-linejoin:round;stroke-miterlimit:10;stroke-dasharray:none;stroke-opacity:1" transform="matrix(1.33333 0 0 -1.33333 0 598.875)"/><path d="m87.683 259.292 16.047 6.282 16.047 81.674 16.047-84.815 16.046 27.225 16.047-54.45 16.047 122.51 16.047-122.51 16.046-47.118 16.047 45.025 16.047 51.307 16.047-38.742 16.047 71.202 16.046-28.272 16.047 23.036 16.047-7.33 16.047 7.33 16.046 29.319 16.047-8.377 16.047-9.424 16.047 25.13 16.046 2.095 16.047-38.743 16.047 41.884 16.047 6.283 16.046-24.083 16.047 47.119 16.047-54.45 16.047 6.283 16.046-32.46 16.047-33.506 16.047 35.6L601.18 407.98l16.046-158.111 16.047 72.25 16.047 18.847 16.047-50.26 16.046-33.507" clip-path="url(#C)" style="fill:none;stroke:#e377c2;stroke-width:1.5;stroke-linecap:butt;stroke-linejoin:round;stroke-miterlimit:10;stroke-dasharray:5.55,2.4;stroke-dashoffset:0;stroke-opacity:1" transform="matrix(1.33333 0 0 -1.33333 0 598.875)"/><path d="M87.683 350.389h16.047l16.047 37.695h561.636" clip-path="url(#D)" style="fill:none;stroke:#7f7f7f;stroke-width:1.5;stroke-linecap:square;stroke-linejoin:round;stroke-miterlimit:10;stroke-dasharray:none;stroke-opacity:1" transform="matrix(1.33333 0 0 -1.33333 0 598.875)"/><path d="m87.683 350.389 16.047-20.942 16.047 58.637 16.047-58.637 16.046-25.13 16.047-28.272 16.047 24.083 16.047-13.612 16.046 37.696 16.047 18.847 16.047-36.648 16.047 61.778 16.047-86.908 16.046-12.565 16.047 55.496 16.047 3.14 16.047-7.329 16.046 7.33 16.047-15.707 16.047 16.754 16.047-10.471 16.046-23.036 16.047 4.188 16.047 46.072 16.047-46.072 16.046 52.355 16.047-70.155 16.047 19.895 16.047 18.847 16.046 34.554 16.047-37.695 16.047-9.424 16.047 53.402 16.046-62.826 16.047 81.673 16.047-42.93 16.047-41.884 16.046 10.47" clip-path="url(#E)" style="fill:none;stroke:#7f7f7f;stroke-width:1.5;stroke-linecap:butt;stroke-linejoin:round;stroke-miterlimit:10;stroke-dasharray:5.55,2.4;stroke-dashoffset:0;stroke-opacity:1" transform="matrix(1.33333 0 0 -1.33333 0 598.875)"/><path d="m87.683 253.01 16.047 61.778h80.234l16.047 26.177h80.234l16.046 24.083h48.141l16.046 29.319H601.18l16.046 3.141h64.187" clip-path="url(#F)" style="fill:none;stroke:#bcbd22;stroke-width:1.5;stroke-linecap:square;stroke-linejoin:round;stroke-miterlimit:10;stroke-dasharray:none;stroke-opacity:1" transform="matrix(1.33333 0 0 -1.33333 0 598.875)"/><path d="m87.683 253.01 16.047 61.778 16.047-83.768 16.047 5.236 16.046 17.8 16.047-13.612 16.047 57.59 16.047 42.931 16.046-77.485 16.047 35.601 16.047 31.413 16.047-46.072 16.047 35.601 16.046 45.025 16.047-69.108 16.047 26.177 16.047-11.518 16.046 83.768 16.047-71.203 16.047 13.613 16.047 32.46 16.046-64.92 16.047 90.05 16.047-77.485 16.047 5.235 16.046-29.318 16.047 52.354 16.047-25.13 16.047-68.06 16.046 134.027 16.047-59.684 16.047-33.507 16.047 69.108 16.046 35.601 16.047-73.296 16.047 27.224 16.047-13.612 16.046 16.753" clip-path="url(#G)" style="fill:none;stroke:#bcbd22;stroke-width:1.5;stroke-linecap:butt;stroke-linejoin:round;stroke-miterlimit:10;stroke-dasharray:5.55,2.4;stroke-dashoffset:0;stroke-opacity:1" transform="matrix(1.33333 0 0 -1.33333 0 598.875)"/><path d="M87.683 340.965h144.421l16.047 15.706h64.187l16.047 2.095 16.047 26.177h112.327l16.047 1.047h208.607" clip-path="url(#H)" style="fill:none;stroke:#17becf;stroke-width:1.5;stroke-linecap:square;stroke-linejoin:round;stroke-miterlimit:10;stroke-dasharray:none;stroke-opacity:1" transform="matrix(1.33333 0 0 -1.33333 0 598.875)"/><path d="m87.683 340.965 16.047-46.072 16.047-129.84 16.047 135.075 16.046-5.235 16.047 39.79 16.047-78.532 16.047 8.376 16.046 51.308 16.047 19.895 16.047 20.941 16.047-29.318 16.047-31.413 16.046 32.46 16.047 11.518 16.047 18.848 16.047 26.177 16.046-55.496 16.047 21.989 16.047-32.46 16.047 1.047 16.046 39.79 16.047-26.178 16.047 11.518 16.047 40.837 16.046-24.083 16.047-10.471 16.047 12.565 16.047-40.837 16.046-14.659 16.047 42.931 16.047-56.543 16.047 3.141 16.046-1.047 16.047-15.706 16.047 73.296 16.047-64.92 16.046 14.66" clip-path="url(#I)" style="fill:none;stroke:#17becf;stroke-width:1.5;stroke-linecap:butt;stroke-linejoin:round;stroke-miterlimit:10;stroke-dasharray:5.55,2.4;stroke-dashoffset:0;stroke-opacity:1" transform="matrix(1.33333 0 0 -1.33333 0 598.875)"/><path d="M52.048 426.484h617.704q2 0 2 2v13.672q0 2-2 2H52.048q-2 0-2-2v-13.672q0-2 2-2z" style="fill:#fff;fill-opacity:.8;fill-rule:nonzero;stroke:#ccc;stroke-width:1;stroke-linecap:butt;stroke-linejoin:miter;stroke-miterlimit:10;stroke-dasharray:none;stroke-opacity:.8" transform="matrix(1.33333 0 0 -1.33333 0 598.875)"/><path d="M54.048 436.062h20" style="fill:none;stroke:#1f77b4;stroke-width:1.5;stroke-linecap:square;stroke-linejoin:round;stroke-miterlimit:10;stroke-dasharray:none;stroke-opacity:1" transform="matrix(1.33333 0 0 -1.33333 0 598.875)"/><text xml:space="preserve" transform="translate(109.398 22.125)scale(1.33333)"><tspan x="0" y="0" style="font-variant:normal;font-weight:400;font-size:10px;font-family:&quot;DejaVu Sans&quot;;writing-mode:lr-tb;fill:#000;fill-opacity:1;fill-rule:nonzero;stroke:none">#1</tspan></text><path d="M116.783 436.062h20" style="fill:none;stroke:#ff7f0e;stroke-width:1.5;stroke-linecap:square;stroke-linejoin:round;stroke-miterlimit:10;stroke-dasharray:none;stroke-opacity:1" transform="matrix(1.33333 0 0 -1.33333 0 598.875)"/><text xml:space="preserve" transform="translate(193.044 22.125)scale(1.33333)"><tspan x="0" y="0" style="font-variant:normal;font-weight:400;font-size:10px;font-family:&quot;DejaVu Sans&quot;;writing-mode:lr-tb;fill:#000;fill-opacity:1;fill-rule:nonzero;stroke:none">#2</tspan></text><path d="M179.517 436.062h20" style="fill:none;stroke:#2ca02c;stroke-width:1.5;stroke-linecap:square;stroke-linejoin:round;stroke-miterlimit:10;stroke-dasharray:none;stroke-opacity:1" transform="matrix(1.33333 0 0 -1.33333 0 598.875)"/><text xml:space="preserve" transform="translate(276.69 22.125)scale(1.33333)"><tspan x="0" y="0" style="font-variant:normal;font-weight:400;font-size:10px;font-family:&quot;DejaVu Sans&quot;;writing-mode:lr-tb;fill:#000;fill-opacity:1;fill-rule:nonzero;stroke:none">#3</tspan></text><path d="M242.252 436.062h20" style="fill:none;stroke:#d62728;stroke-width:1.5;stroke-linecap:square;stroke-linejoin:round;stroke-miterlimit:10;stroke-dasharray:none;stroke-opacity:1" transform="matrix(1.33333 0 0 -1.33333 0 598.875)"/><text xml:space="preserve" transform="translate(360.335 22.125)scale(1.33333)"><tspan x="0" y="0" style="font-variant:normal;font-weight:400;font-size:10px;font-family:&quot;DejaVu Sans&quot;;writing-mode:lr-tb;fill:#000;fill-opacity:1;fill-rule:nonzero;stroke:none">#4</tspan></text><path d="M304.986 436.062h20" style="fill:none;stroke:#9467bd;stroke-width:1.5;stroke-linecap:square;stroke-linejoin:round;stroke-miterlimit:10;stroke-dasharray:none;stroke-opacity:1" transform="matrix(1.33333 0 0 -1.33333 0 598.875)"/><text xml:space="preserve" transform="translate(443.981 22.125)scale(1.33333)"><tspan x="0" y="0" style="font-variant:normal;font-weight:400;font-size:10px;font-family:&quot;DejaVu Sans&quot;;writing-mode:lr-tb;fill:#000;fill-opacity:1;fill-rule:nonzero;stroke:none">#5</tspan></text><path d="M367.72 436.062h20" style="fill:none;stroke:#8c564b;stroke-width:1.5;stroke-linecap:square;stroke-linejoin:round;stroke-miterlimit:10;stroke-dasharray:none;stroke-opacity:1" transform="matrix(1.33333 0 0 -1.33333 0 598.875)"/><text xml:space="preserve" transform="translate(527.627 22.125)scale(1.33333)"><tspan x="0" y="0" style="font-variant:normal;font-weight:400;font-size:10px;font-family:&quot;DejaVu Sans&quot;;writing-mode:lr-tb;fill:#000;fill-opacity:1;fill-rule:nonzero;stroke:none">#6</tspan></text><path d="M430.455 436.062h20" style="fill:none;stroke:#e377c2;stroke-width:1.5;stroke-linecap:square;stroke-linejoin:round;stroke-miterlimit:10;stroke-dasharray:none;stroke-opacity:1" transform="matrix(1.33333 0 0 -1.33333 0 598.875)"/><text xml:space="preserve" transform="translate(611.273 22.125)scale(1.33333)"><tspan x="0" y="0" style="font-variant:normal;font-weight:400;font-size:10px;font-family:&quot;DejaVu Sans&quot;;writing-mode:lr-tb;fill:#000;fill-opacity:1;fill-rule:nonzero;stroke:none">#7</tspan></text><path d="M493.19 436.062h20" style="fill:none;stroke:#7f7f7f;stroke-width:1.5;stroke-linecap:square;stroke-linejoin:round;stroke-miterlimit:10;stroke-dasharray:none;stroke-opacity:1" transform="matrix(1.33333 0 0 -1.33333 0 598.875)"/><text xml:space="preserve" transform="translate(694.919 22.125)scale(1.33333)"><tspan x="0" y="0" style="font-variant:normal;font-weight:400;font-size:10px;font-family:&quot;DejaVu Sans&quot;;writing-mode:lr-tb;fill:#000;fill-opacity:1;fill-rule:nonzero;stroke:none">#8</tspan></text><path d="M555.923 436.062h20" style="fill:none;stroke:#bcbd22;stroke-width:1.5;stroke-linecap:square;stroke-linejoin:round;stroke-miterlimit:10;stroke-dasharray:none;stroke-opacity:1" transform="matrix(1.33333 0 0 -1.33333 0 598.875)"/><text xml:space="preserve" transform="translate(778.565 22.125)scale(1.33333)"><tspan x="0" y="0" style="font-variant:normal;font-weight:400;font-size:10px;font-family:&quot;DejaVu Sans&quot;;writing-mode:lr-tb;fill:#000;fill-opacity:1;fill-rule:nonzero;stroke:none">#9</tspan></text><path d="M618.658 436.062h20" style="fill:none;stroke:#17becf;stroke-width:1.5;stroke-linecap:square;stroke-linejoin:round;stroke-miterlimit:10;stroke-dasharray:none;stroke-opacity:1" transform="matrix(1.33333 0 0 -1.33333 0 598.875)"/><text xml:space="preserve" transform="translate(862.21 22.125)scale(1.33333)"><tspan x="0" y="0" style="font-variant:normal;font-weight:400;font-size:10px;font-family:&quot;DejaVu Sans&quot;;writing-mode:lr-tb;fill:#000;fill-opacity:1;fill-rule:nonzero;stroke:none">#10</tspan></text></svg>