<svg xmlns="http://www.w3.org/2000/svg" width="962.4" height="591.142" viewBox="0 0 962.4 591.142"><defs><clipPath id="a" clipPathUnits="userSpaceOnUse"><path d="M51.638 42.544H711.1v391.612H51.638Z"/></clipPath><clipPath id="b" clipPathUnits="userSpaceOnUse"><path d="M51.638 42.544H711.1v391.612H51.638Z"/></clipPath><clipPath id="c" clipPathUnits="userSpaceOnUse"><path d="M51.638 42.544H711.1v391.612H51.638Z"/></clipPath><clipPath id="d" clipPathUnits="userSpaceOnUse"><path d="M51.638 42.544H711.1v391.612H51.638Z"/></clipPath><clipPath id="e" clipPathUnits="userSpaceOnUse"><path d="M51.638 42.544H711.1v391.612H51.638Z"/></clipPath><clipPath id="f" clipPathUnits="userSpaceOnUse"><path d="M51.638 42.544H711.1v391.612H51.638Z"/></clipPath><clipPath id="g" clipPathUnits="userSpaceOnUse"><path d="M51.638 42.544H711.1v391.612H51.638Z"/></clipPath><clipPath id="h" clipPathUnits="userSpaceOnUse"><path d="M51.638 42.544H711.1v391.612H51.638Z"/></clipPath><clipPath id="i" clipPathUnits="userSpaceOnUse"><path d="M51.638 42.544H711.1v391.612H51.638Z"/></clipPath><clipPath id="j" clipPathUnits="userSpaceOnUse"><path d="M51.638 42.544H711.1v391.612H51.638Z"/></clipPath><clipPath id="k" clipPathUnits="userSpaceOnUse"><path d="M51.638 42.544H711.1v391.612H51.638Z"/></clipPath><clipPath id="l" clipPathUnits="userSpaceOnUse"><path d="M51.638 42.544H711.1v391.612H51.638Z"/></clipPath><clipPath id="m" clipPathUnits="userSpaceOnUse"><path d="M51.638 42.544H711.1v391.612H51.638Z"/></clipPath><clipPath id="n" clipPathUnits="userSpaceOnUse"><path d="M51.638 42.544H711.1v391.612H51.638Z"/></clipPath><clipPath id="o" clipPathUnits="userSpaceOnUse"><path d="M51.638 42.544H711.1v391.612H51.638Z"/></clipPath><clipPath id="p" clipPathUnits="userSpaceOnUse"><path d="M51.638 42.544H711.1v391.612H51.638Z"/></clipPath><clipPath id="q" clipPathUnits="userSpaceOnUse"><path d="M51.638 42.544H711.1v391.612H51.638Z"/></clipPath><clipPath id="r" clipPathUnits="userSpaceOnUse"><path d="M51.638 42.544H711.1v391.612H51.638Z"/></clipPath><clipPath id="s" clipPathUnits="userSpaceOnUse"><path d="M51.638 42.544H711.1v391.612H51.638Z"/></clipPath><clipPath id="t" clipPathUnits="userSpaceOnUse"><path d="M51.638 42.544H711.1v391.612H51.638Z"/></clipPath><clipPath id="u" clipPathUnits="userSpaceOnUse"><path d="M51.638 42.544H711.1v391.612H51.638Z"/></clipPath><clipPath id="v" clipPathUnits="userSpaceOnUse"><path d="M51.638 42.544H711.1v391.612H51.638Z"/></clipPath><clipPath id="w" clipPathUnits="userSpaceOnUse"><path d="M51.638 42.544H711.1v391.612H51.638Z"/></clipPath><clipPath id="x" clipPathUnits="userSpaceOnUse"><path d="M51.638 42.544H711.1v391.612H51.638Z"/></clipPath><clipPath id="y" clipPathUnits="userSpaceOnUse"><path d="M51.638 42.544H711.1v391.612H51.638Z"/></clipPath><clipPath id="z" clipPathUnits="userSpaceOnUse"><path d="M51.638 42.544H711.1v391.612H51.638Z"/></clipPath><clipPath id="A" clipPathUnits="userSpaceOnUse"><path d="M51.638 42.544H711.1v391.612H51.638Z"/></clipPath><clipPath id="B" clipPathUnits="userSpaceOnUse"><path d="M51.638 42.544H711.1v391.612H51.638Z"/></clipPath><clipPath id="C" clipPathUnits="userSpaceOnUse"><path d="M51.638 42.544H711.1v391.612H51.638Z"/></clipPath><clipPath id="D" clipPathUnits="userSpaceOnUse"><path d="M51.638 42.544H711.1v391.612H51.638Z"/></clipPath><clipPath id="E" clipPathUnits="userSpaceOnUse"><path d="M51.638 42.544H711.1v391.612H51.638Z"/></clipPath><clipPath id="F" clipPathUnits="userSpaceOnUse"><path d="M51.638 42.544H711.1v391.612H51.638Z"/></clipPath><clipPath id="G" clipPathUnits="userSpaceOnUse"><path d="M51.638 42.544H711.1v391.612H51.638Z"/></clipPath><clipPath id="H" clipPathUnits="userSpaceOnUse"><path d="M51.638 42.544H711.1v391.612H51.638Z"/></clipPath></defs><path d="M81.613 42.544v391.612" clip-path="url(#a)" style="fill:none;stroke:#e6e6e6;stroke-width:1;stroke-linecap:square;stroke-linejoin:round;stroke-miterlimit:10;stroke-dasharray:none;stroke-opacity:1" transform="matrix(1.33333 0 0 -1.33333 0 591.142)"/><path d="M81.613 37.544v-3.5" style="fill:#000;fill-opacity:1;fill-rule:nonzero;stroke:#000;stroke-width:.8;stroke-linecap:butt;stroke-linejoin:round;stroke-miterlimit:10;stroke-dasharray:none;stroke-opacity:1" transform="matrix(1.33333 0 0 -1.33333 0 591.142)"/><text xml:space="preserve" transform="translate(104.578 560.542)scale(1.33333)"><tspan x="0" y="0" style="font-variant:normal;font-weight:400;font-size:10px;font-family:&quot;DejaVu Sans&quot;;writing-mode:lr-tb;fill:#000;fill-opacity:1;fill-rule:nonzero;stroke:none">0</tspan></text><path d="M162.628 42.544v391.612" clip-path="url(#b)" style="fill:none;stroke:#e6e6e6;stroke-width:1;stroke-linecap:square;stroke-linejoin:round;stroke-miterlimit:10;stroke-dasharray:none;stroke-opacity:1" transform="matrix(1.33333 0 0 -1.33333 0 591.142)"/><path d="M162.628 37.544v-3.5" style="fill:#000;fill-opacity:1;fill-rule:nonzero;stroke:#000;stroke-width:.8;stroke-linecap:butt;stroke-linejoin:round;stroke-miterlimit:10;stroke-dasharray:none;stroke-opacity:1" transform="matrix(1.33333 0 0 -1.33333 0 591.142)"/><text xml:space="preserve" transform="translate(208.358 560.542)scale(1.33333)"><tspan x="0" y="0" style="font-variant:normal;font-weight:400;font-size:10px;font-family:&quot;DejaVu Sans&quot;;writing-mode:lr-tb;fill:#000;fill-opacity:1;fill-rule:nonzero;stroke:none">10</tspan></text><path d="M243.643 42.544v391.612" clip-path="url(#c)" style="fill:none;stroke:#e6e6e6;stroke-width:1;stroke-linecap:square;stroke-linejoin:round;stroke-miterlimit:10;stroke-dasharray:none;stroke-opacity:1" transform="matrix(1.33333 0 0 -1.33333 0 591.142)"/><path d="M243.643 37.544v-3.5" style="fill:#000;fill-opacity:1;fill-rule:nonzero;stroke:#000;stroke-width:.8;stroke-linecap:butt;stroke-linejoin:round;stroke-miterlimit:10;stroke-dasharray:none;stroke-opacity:1" transform="matrix(1.33333 0 0 -1.33333 0 591.142)"/><text xml:space="preserve" transform="translate(316.378 560.542)scale(1.33333)"><tspan x="0" y="0" style="font-variant:normal;font-weight:400;font-size:10px;font-family:&quot;DejaVu Sans&quot;;writing-mode:lr-tb;fill:#000;fill-opacity:1;fill-rule:nonzero;stroke:none">20</tspan></text><path d="M324.658 42.544v391.612" clip-path="url(#d)" style="fill:none;stroke:#e6e6e6;stroke-width:1;stroke-linecap:square;stroke-linejoin:round;stroke-miterlimit:10;stroke-dasharray:none;stroke-opacity:1" transform="matrix(1.33333 0 0 -1.33333 0 591.142)"/><path d="M324.658 37.544v-3.5" style="fill:#000;fill-opacity:1;fill-rule:nonzero;stroke:#000;stroke-width:.8;stroke-linecap:butt;stroke-linejoin:round;stroke-miterlimit:10;stroke-dasharray:none;stroke-opacity:1" transform="matrix(1.33333 0 0 -1.33333 0 591.142)"/><text xml:space="preserve" transform="translate(424.398 560.542)scale(1.33333)"><tspan x="0" y="0" style="font-variant:normal;font-weight:400;font-size:10px;font-family:&quot;DejaVu Sans&quot;;writing-mode:lr-tb;fill:#000;fill-opacity:1;fill-rule:nonzero;stroke:none">30</tspan></text><path d="M405.673 42.544v391.612" clip-path="url(#e)" style="fill:none;stroke:#e6e6e6;stroke-width:1;stroke-linecap:square;stroke-linejoin:round;stroke-miterlimit:10;stroke-dasharray:none;stroke-opacity:1" transform="matrix(1.33333 0 0 -1.33333 0 591.142)"/><path d="M405.673 37.544v-3.5" style="fill:#000;fill-opacity:1;fill-rule:nonzero;stroke:#000;stroke-width:.8;stroke-linecap:butt;stroke-linejoin:round;stroke-miterlimit:10;stroke-dasharray:none;stroke-opacity:1" transform="matrix(1.33333 0 0 -1.33333 0 591.142)"/><text xml:space="preserve" transform="translate(532.419 560.542)scale(1.33333)"><tspan x="0" y="0" style="font-variant:normal;font-weight:400;font-size:10px;font-family:&quot;DejaVu Sans&quot;;writing-mode:lr-tb;fill:#000;fill-opacity:1;fill-rule:nonzero;stroke:none">40</tspan></text><path d="M486.688 42.544v391.612" clip-path="url(#f)" style="fill:none;stroke:#e6e6e6;stroke-width:1;stroke-linecap:square;stroke-linejoin:round;stroke-miterlimit:10;stroke-dasharray:none;stroke-opacity:1" transform="matrix(1.33333 0 0 -1.33333 0 591.142)"/><path d="M486.688 37.544v-3.5" style="fill:#000;fill-opacity:1;fill-rule:nonzero;stroke:#000;stroke-width:.8;stroke-linecap:butt;stroke-linejoin:round;stroke-miterlimit:10;stroke-dasharray:none;stroke-opacity:1" transform="matrix(1.33333 0 0 -1.33333 0 591.142)"/><text xml:space="preserve" transform="translate(640.439 560.542)scale(1.33333)"><tspan x="0" y="0" style="font-variant:normal;font-weight:400;font-size:10px;font-family:&quot;DejaVu Sans&quot;;writing-mode:lr-tb;fill:#000;fill-opacity:1;fill-rule:nonzero;stroke:none">50</tspan></text><path d="M567.703 42.544v391.612" clip-path="url(#g)" style="fill:none;stroke:#e6e6e6;stroke-width:1;stroke-linecap:square;stroke-linejoin:round;stroke-miterlimit:10;stroke-dasharray:none;stroke-opacity:1" transform="matrix(1.33333 0 0 -1.33333 0 591.142)"/><path d="M567.703 37.544v-3.5" style="fill:#000;fill-opacity:1;fill-rule:nonzero;stroke:#000;stroke-width:.8;stroke-linecap:butt;stroke-linejoin:round;stroke-miterlimit:10;stroke-dasharray:none;stroke-opacity:1" transform="matrix(1.33333 0 0 -1.33333 0 591.142)"/><text xml:space="preserve" transform="translate(748.459 560.542)scale(1.33333)"><tspan x="0" y="0" style="font-variant:normal;font-weight:400;font-size:10px;font-family:&quot;DejaVu Sans&quot;;writing-mode:lr-tb;fill:#000;fill-opacity:1;fill-rule:nonzero;stroke:none">60</tspan></text><path d="M648.718 42.544v391.612" clip-path="url(#h)" style="fill:none;stroke:#e6e6e6;stroke-width:1;stroke-linecap:square;stroke-linejoin:round;stroke-miterlimit:10;stroke-dasharray:none;stroke-opacity:1" transform="matrix(1.33333 0 0 -1.33333 0 591.142)"/><path d="M648.718 37.544v-3.5" style="fill:#000;fill-opacity:1;fill-rule:nonzero;stroke:#000;stroke-width:.8;stroke-linecap:butt;stroke-linejoin:round;stroke-miterlimit:10;stroke-dasharray:none;stroke-opacity:1" transform="matrix(1.33333 0 0 -1.33333 0 591.142)"/><text xml:space="preserve" transform="translate(856.479 560.542)scale(1.33333)"><tspan x="0" y="0" style="font-variant:normal;font-weight:400;font-size:10px;font-family:&quot;DejaVu Sans&quot;;writing-mode:lr-tb;fill:#000;fill-opacity:1;fill-rule:nonzero;stroke:none">70</tspan></text><text xml:space="preserve" transform="translate(488.18 578.77)scale(1.33333)"><tspan x="0" y="0" style="font-variant:normal;font-weight:400;font-size:10px;font-family:&quot;DejaVu Sans&quot;;writing-mode:lr-tb;fill:#000;fill-opacity:1;fill-rule:nonzero;stroke:none">epoch</tspan></text><path d="M51.638 70.333H711.1" clip-path="url(#i)" style="fill:none;stroke:#e6e6e6;stroke-width:1;stroke-linecap:square;stroke-linejoin:round;stroke-miterlimit:10;stroke-dasharray:none;stroke-opacity:1" transform="matrix(1.33333 0 0 -1.33333 0 591.142)"/><text xml:space="preserve" transform="translate(27.83 502.427)scale(1.33333)"><tspan x="0" y="0" style="font-variant:normal;font-weight:400;font-size:10px;font-family:&quot;DejaVu Sans&quot;;writing-mode:lr-tb;fill:#000;fill-opacity:1;fill-rule:nonzero;stroke:none">0.74</tspan></text><path d="M51.638 114.917H711.1" clip-path="url(#j)" style="fill:none;stroke:#e6e6e6;stroke-width:1;stroke-linecap:square;stroke-linejoin:round;stroke-miterlimit:10;stroke-dasharray:none;stroke-opacity:1" transform="matrix(1.33333 0 0 -1.33333 0 591.142)"/><text xml:space="preserve" transform="translate(27.83 442.981)scale(1.33333)"><tspan x="0" y="0" style="font-variant:normal;font-weight:400;font-size:10px;font-family:&quot;DejaVu Sans&quot;;writing-mode:lr-tb;fill:#000;fill-opacity:1;fill-rule:nonzero;stroke:none">0.76</tspan></text><path d="M51.638 159.501H711.1" clip-path="url(#k)" style="fill:none;stroke:#e6e6e6;stroke-width:1;stroke-linecap:square;stroke-linejoin:round;stroke-miterlimit:10;stroke-dasharray:none;stroke-opacity:1" transform="matrix(1.33333 0 0 -1.33333 0 591.142)"/><text xml:space="preserve" transform="translate(27.83 383.536)scale(1.33333)"><tspan x="0" y="0" style="font-variant:normal;font-weight:400;font-size:10px;font-family:&quot;DejaVu Sans&quot;;writing-mode:lr-tb;fill:#000;fill-opacity:1;fill-rule:nonzero;stroke:none">0.78</tspan></text><path d="M51.638 204.086H711.1" clip-path="url(#l)" style="fill:none;stroke:#e6e6e6;stroke-width:1;stroke-linecap:square;stroke-linejoin:round;stroke-miterlimit:10;stroke-dasharray:none;stroke-opacity:1" transform="matrix(1.33333 0 0 -1.33333 0 591.142)"/><text xml:space="preserve" transform="translate(27.83 324.09)scale(1.33333)"><tspan x="0" y="0" style="font-variant:normal;font-weight:400;font-size:10px;font-family:&quot;DejaVu Sans&quot;;writing-mode:lr-tb;fill:#000;fill-opacity:1;fill-rule:nonzero;stroke:none">0.80</tspan></text><path d="M51.638 248.67H711.1" clip-path="url(#m)" style="fill:none;stroke:#e6e6e6;stroke-width:1;stroke-linecap:square;stroke-linejoin:round;stroke-miterlimit:10;stroke-dasharray:none;stroke-opacity:1" transform="matrix(1.33333 0 0 -1.33333 0 591.142)"/><text xml:space="preserve" transform="translate(27.83 264.644)scale(1.33333)"><tspan x="0" y="0" style="font-variant:normal;font-weight:400;font-size:10px;font-family:&quot;DejaVu Sans&quot;;writing-mode:lr-tb;fill:#000;fill-opacity:1;fill-rule:nonzero;stroke:none">0.82</tspan></text><path d="M51.638 293.254H711.1" clip-path="url(#n)" style="fill:none;stroke:#e6e6e6;stroke-width:1;stroke-linecap:square;stroke-linejoin:round;stroke-miterlimit:10;stroke-dasharray:none;stroke-opacity:1" transform="matrix(1.33333 0 0 -1.33333 0 591.142)"/><text xml:space="preserve" transform="translate(27.83 205.198)scale(1.33333)"><tspan x="0" y="0" style="font-variant:normal;font-weight:400;font-size:10px;font-family:&quot;DejaVu Sans&quot;;writing-mode:lr-tb;fill:#000;fill-opacity:1;fill-rule:nonzero;stroke:none">0.84</tspan></text><path d="M51.638 337.839H711.1" clip-path="url(#o)" style="fill:none;stroke:#e6e6e6;stroke-width:1;stroke-linecap:square;stroke-linejoin:round;stroke-miterlimit:10;stroke-dasharray:none;stroke-opacity:1" transform="matrix(1.33333 0 0 -1.33333 0 591.142)"/><text xml:space="preserve" transform="translate(27.83 145.753)scale(1.33333)"><tspan x="0" y="0" style="font-variant:normal;font-weight:400;font-size:10px;font-family:&quot;DejaVu Sans&quot;;writing-mode:lr-tb;fill:#000;fill-opacity:1;fill-rule:nonzero;stroke:none">0.86</tspan></text><path d="M51.638 382.423H711.1" clip-path="url(#p)" style="fill:none;stroke:#e6e6e6;stroke-width:1;stroke-linecap:square;stroke-linejoin:round;stroke-miterlimit:10;stroke-dasharray:none;stroke-opacity:1" transform="matrix(1.33333 0 0 -1.33333 0 591.142)"/><text xml:space="preserve" transform="translate(27.83 86.307)scale(1.33333)"><tspan x="0" y="0" style="font-variant:normal;font-weight:400;font-size:10px;font-family:&quot;DejaVu Sans&quot;;writing-mode:lr-tb;fill:#000;fill-opacity:1;fill-rule:nonzero;stroke:none">0.88</tspan></text><path d="M51.638 427.007H711.1" clip-path="url(#q)" style="fill:none;stroke:#e6e6e6;stroke-width:1;stroke-linecap:square;stroke-linejoin:round;stroke-miterlimit:10;stroke-dasharray:none;stroke-opacity:1" transform="matrix(1.33333 0 0 -1.33333 0 591.142)"/><text xml:space="preserve" transform="translate(27.83 26.861)scale(1.33333)"><tspan x="0" y="0" style="font-variant:normal;font-weight:400;font-size:10px;font-family:&quot;DejaVu Sans&quot;;writing-mode:lr-tb;fill:#000;fill-opacity:1;fill-rule:nonzero;stroke:none">0.90</tspan></text><text xml:space="preserve" transform="rotate(-90 155.903 136.178)scale(1.33333)"><tspan x="0" y="0" style="font-variant:normal;font-weight:400;font-size:10px;font-family:&quot;DejaVu Sans&quot;;writing-mode:lr-tb;fill:#000;fill-opacity:1;fill-rule:nonzero;stroke:none">RAUC</tspan></text><path d="M324.658-1v390.268" clip-path="url(#r)" style="fill:none;stroke:#1f77b4;stroke-width:1.5;stroke-linecap:butt;stroke-linejoin:round;stroke-miterlimit:10;stroke-dasharray:1.5,2.475;stroke-dashoffset:0;stroke-opacity:1" transform="matrix(1.33333 0 0 -1.33333 0 591.142)"/><path d="M429.978-1v393.781" clip-path="url(#s)" style="fill:none;stroke:#1f77b4;stroke-width:1.5;stroke-linecap:butt;stroke-linejoin:round;stroke-miterlimit:10;stroke-dasharray:1.5,2.475;stroke-dashoffset:0;stroke-opacity:1" transform="matrix(1.33333 0 0 -1.33333 0 591.142)"/><path d="M486.688-1v403.962" clip-path="url(#t)" style="fill:none;stroke:#1f77b4;stroke-width:1.5;stroke-linecap:butt;stroke-linejoin:round;stroke-miterlimit:10;stroke-dasharray:1.5,2.475;stroke-dashoffset:0;stroke-opacity:1" transform="matrix(1.33333 0 0 -1.33333 0 591.142)"/><path d="M527.196-1v399.704" clip-path="url(#u)" style="fill:none;stroke:#1f77b4;stroke-width:1.5;stroke-linecap:butt;stroke-linejoin:round;stroke-miterlimit:10;stroke-dasharray:1.5,2.475;stroke-dashoffset:0;stroke-opacity:1" transform="matrix(1.33333 0 0 -1.33333 0 591.142)"/><path d="M648.718-1v405.869" clip-path="url(#v)" style="fill:none;stroke:#1f77b4;stroke-width:1.5;stroke-linecap:butt;stroke-linejoin:round;stroke-miterlimit:10;stroke-dasharray:1.5,2.475;stroke-dashoffset:0;stroke-opacity:1" transform="matrix(1.33333 0 0 -1.33333 0 591.142)"/><path d="M324.658-1v387.701" clip-path="url(#w)" style="fill:none;stroke:#ff7f0e;stroke-width:1.5;stroke-linecap:butt;stroke-linejoin:round;stroke-miterlimit:10;stroke-dasharray:1.5,2.475;stroke-dashoffset:0;stroke-opacity:1" transform="matrix(1.33333 0 0 -1.33333 0 591.142)"/><path d="M429.978-1v389.79" clip-path="url(#x)" style="fill:none;stroke:#ff7f0e;stroke-width:1.5;stroke-linecap:butt;stroke-linejoin:round;stroke-miterlimit:10;stroke-dasharray:1.5,2.475;stroke-dashoffset:0;stroke-opacity:1" transform="matrix(1.33333 0 0 -1.33333 0 591.142)"/><path d="M292.252-1v382.543" clip-path="url(#y)" style="fill:none;stroke:#2ca02c;stroke-width:1.5;stroke-linecap:butt;stroke-linejoin:round;stroke-miterlimit:10;stroke-dasharray:1.5,2.475;stroke-dashoffset:0;stroke-opacity:1" transform="matrix(1.33333 0 0 -1.33333 0 591.142)"/><path d="M324.658-1v384.029" clip-path="url(#z)" style="fill:none;stroke:#2ca02c;stroke-width:1.5;stroke-linecap:butt;stroke-linejoin:round;stroke-miterlimit:10;stroke-dasharray:1.5,2.475;stroke-dashoffset:0;stroke-opacity:1" transform="matrix(1.33333 0 0 -1.33333 0 591.142)"/><path d="M486.688-1v398.138" clip-path="url(#A)" style="fill:none;stroke:#2ca02c;stroke-width:1.5;stroke-linecap:butt;stroke-linejoin:round;stroke-miterlimit:10;stroke-dasharray:1.5,2.475;stroke-dashoffset:0;stroke-opacity:1" transform="matrix(1.33333 0 0 -1.33333 0 591.142)"/><path d="M494.79-1v389.848" clip-path="url(#B)" style="fill:none;stroke:#2ca02c;stroke-width:1.5;stroke-linecap:butt;stroke-linejoin:round;stroke-miterlimit:10;stroke-dasharray:1.5,2.475;stroke-dashoffset:0;stroke-opacity:1" transform="matrix(1.33333 0 0 -1.33333 0 591.142)"/><path d="m81.613 298.504 8.102 32.16 8.101 6.117 8.102 7.516 8.101 2.709 8.102 4.916 8.101-6.51 8.102 10.627 8.101.888 8.102 5.325 8.101-.856 8.102-2.835 8.101 7.8 8.102-.959 8.101 2.74 8.102 2.129 8.101.796 8.102 1.134 8.101-6.286 8.102 12.007 8.101-3.291 8.102-2.311 8.101 5.748 8.102 2.628 8.101-1.082 8.102 2.265 8.101 3.384 8.102.134 8.101-7.859 8.102 2.43 8.101 9.3 8.102-19.596 8.101 18.618 8.102-3.963 8.101-12.766 8.102 20.75 8.101-2.6 8.102.32 8.101-2.953 8.102 4.931 8.101-.065 8.102 4.895 8.101-18.753 8.102 14.695 8.101.39 8.102.249 8.101-7.238 8.102 3.851 8.101 4.198 8.102 2.625 8.101 6.106 8.102-13.537 8.101 3.508 8.102 1.72 8.101-.315 8.102 4.366 8.101-2.661 8.102 1.785 8.101-.256 8.102-1.792 8.101 1.408 8.102-3.099 8.101 7.896 8.102.162 8.101-11.797 8.102 10.625 8.101 2.917 8.102-4.302 8.101 1.216 8.102-1.017 8.101 5.08 8.102-9.237 8.101 3.854 8.102 16.87 8.101-1.671" clip-path="url(#C)" style="fill:none;stroke:#1f77b4;stroke-width:1.5;stroke-linecap:square;stroke-linejoin:round;stroke-miterlimit:10;stroke-dasharray:none;stroke-opacity:1" transform="matrix(1.33333 0 0 -1.33333 0 591.142)"/><path d="m81.613 75.499 8.102 51.743 8.101 27.35 8.102 63.34 8.101 21.693 8.102 2.272 8.101-27.565 8.102-.086 8.101 39.483h8.102l8.101 14.875 8.102-51.014 8.101 30.158 8.102-24.65 8.101-8.573 8.102 41.926 8.101-26.365 8.102 41.927 8.101-48.893 8.102 67.498 8.101-48.185 8.102 16.011 8.101 13.59 8.102 2.358 8.101-41.434 8.102 25.08 8.101 6.601 8.102-3.43 8.101-47.242 8.102 49.665 8.101 35.367 8.102-102.033 8.101 64.642 8.102-14.454 8.101-43.114 8.102 81.513 8.101-4.624 8.102-2.602 8.101-19.873 8.102 21.22 8.101-7.502 8.102-6.584 8.101-55.485 8.102 85.065 8.101-53.357 8.102 27.615 8.101-34.688 8.102-5.18 8.101 57.909 8.102-35.796 8.101 47.55 8.102-18.649 8.101-63.018 8.102 11.646 8.101 51.23 8.102 15.218 8.101-23.828 8.102-18.863 8.101 16.398 8.102-26.365 8.101 28.83 8.102-43.727 8.101 29.58 8.102 8.68 8.101-47.692 8.102 59.053 8.101-.75 8.102-3.644 8.101-29.258 8.102 18.434 8.101 32.044 8.102-65.054 8.101 2.572 8.102 64.519 8.101 4.072" clip-path="url(#D)" style="fill:none;stroke:#1f77b4;stroke-width:1.5;stroke-linecap:butt;stroke-linejoin:round;stroke-miterlimit:10;stroke-dasharray:9.6,2.4,1.5,2.4;stroke-dashoffset:0;stroke-opacity:1" transform="matrix(1.33333 0 0 -1.33333 0 591.142)"/><path d="m81.613 301.989 8.102 29.362 8.101 7.22 8.102 7.779 8.101 2.02 8.102 5.577 8.101-3.42 8.102 5.745 8.101.327 8.102 5.824 8.101-.5 8.102-2.01 8.101 7.559 8.102-2.163 8.101 1.366 8.102 4 8.101.975 8.102.981 8.101-6.319 8.102 10.41 8.101-3.274 8.102-1.135 8.101 4.351 8.102 1.65 8.101 1.482 8.102-.24 8.101 4.747 8.102.02 8.101-8.443 8.102 3.3 8.101 7.521 8.102-20.235 8.101 19.202 8.102-1.569 8.101-9.135 8.102 14.158 8.101-2.232 8.102.599 8.101-2.19 8.102 4.531 8.101-1.334 8.102 3.488 8.101-16.793 8.102 13.599 8.101 1.348 8.102 1.157 8.101-7.571 8.102 2.325 8.101 5.26 8.102 3.486 8.101 4.85" clip-path="url(#E)" style="fill:none;stroke:#ff7f0e;stroke-width:1.5;stroke-linecap:square;stroke-linejoin:round;stroke-miterlimit:10;stroke-dasharray:none;stroke-opacity:1" transform="matrix(1.33333 0 0 -1.33333 0 591.142)"/><path d="m81.613 71.469 8.102 69.02 8.101 24.007 8.102 50.886 8.101 17.448 8.102-2.487 8.101.45 8.102-21.541 8.101 41.39 8.102 1.843 8.101 12.175 8.102-40.361 8.101 32.58 8.102-27.8 8.101-18.241 8.102 41.883 8.101-16.076 8.102 36.804 8.101-49.9 8.102 62.075 8.101-42.613 8.102 20.45 8.101 8.037 8.102-3.665 8.101-33.739 8.102 9.882 8.101 23.878 8.102-3.258 8.101-47.97 8.102 52.064 8.101 30.952 8.102-104 8.101 66.496 8.102-8.074 8.101-43.322 8.102 71.76 8.101 3.643 8.102-11.622 8.101-11.694 8.102 7.836 8.101-8.503 8.102-3.025 8.101-51.848 8.102 83.977 8.101-52.643 8.102 28.91 8.101-43.218 8.102-5.198 8.101 66.207 8.102-28.509 8.101 47.29" clip-path="url(#F)" style="fill:none;stroke:#ff7f0e;stroke-width:1.5;stroke-linecap:butt;stroke-linejoin:round;stroke-miterlimit:10;stroke-dasharray:9.6,2.4,1.5,2.4;stroke-dashoffset:0;stroke-opacity:1" transform="matrix(1.33333 0 0 -1.33333 0 591.142)"/><path d="m81.613 294.423 8.102 28.777 8.101 11 8.102 8.07 8.101 4.235 8.102 2.441 8.101-.565 8.102 7.055 8.101.95 8.102 3.783 8.101.363 8.102-.07 8.101 3.88 8.102.485 8.101 1.09 8.102 4.06 8.101.893 8.102-1.272 8.101-1.112 8.102 5.924 8.101-.996 8.102-.073 8.101 1.6 8.102 2.092 8.101.173 8.102 1.437 8.101 2.9 8.102-.115 8.101-4.177 8.102 1.13 8.101 4.648 8.102-12.507 8.101 11.79 8.102.187 8.101-8.842 8.102 14.512 8.101-2.643 8.102.34 8.101-4.662 8.102 5.35 8.101-.92 8.102 4.266 8.101-11.803 8.102 11.319 8.101.13 8.102-.22 8.101-4.32 8.102 2.444 8.101 4.372 8.102 2.02 8.101 3.296 8.102-8.29 8.101-2.5 8.102 3.337 8.101 1.85 8.102 4.178" clip-path="url(#G)" style="fill:none;stroke:#2ca02c;stroke-width:1.5;stroke-linecap:square;stroke-linejoin:round;stroke-miterlimit:10;stroke-dasharray:none;stroke-opacity:1" transform="matrix(1.33333 0 0 -1.33333 0 591.142)"/><path d="m81.613 60.344 8.102 47.371 8.101 31.123 8.102 63.469 8.101 20.941 8.102 2.873 8.101-7.01 8.102-3.686 8.101 26.986 8.102-1.929 8.101 18.198 8.102-28.937 8.101 13.097 8.102-13.976 8.101-13.718 8.102 30.437 8.101-12.989 8.102 26.6 8.101-24.2 8.102 40.898 8.101-29.387 8.102 18.07 8.101 6.216 8.102-3.73 8.101-26.9 8.102 7.287 8.101 17.47 8.102-6.114 8.101-30.914 8.102 36.82 8.101 26.365 8.102-76.486 8.101 43.405 8.102-3.456 8.101-34.992 8.102 62.83 8.101-2.545 8.102-3.296 8.101-20.122 8.102 14.898 8.101-2.867 8.102 4.742 8.101-53.238 8.102 63.955 8.101-40.78 8.102 25.83 8.101-18.81 8.102-22.8 8.101 51.979 8.102-22.989 8.101 30.384 8.102-2.626 8.101-63.25 8.102 12.003 8.101 49.014 8.102 16.434" clip-path="url(#H)" style="fill:none;stroke:#2ca02c;stroke-width:1.5;stroke-linecap:butt;stroke-linejoin:round;stroke-miterlimit:10;stroke-dasharray:9.6,2.4,1.5,2.4;stroke-dashoffset:0;stroke-opacity:1" transform="matrix(1.33333 0 0 -1.33333 0 591.142)"/><path d="M518.084 47.544H704.1q2 0 2 2v87.031q0 2-2 2H518.084q-2 0-2-2V49.544q0-2 2-2z" style="fill:#fff;fill-opacity:.8;fill-rule:nonzero;stroke:#ccc;stroke-width:1;stroke-linecap:butt;stroke-linejoin:miter;stroke-miterlimit:10;stroke-dasharray:none;stroke-opacity:.8" transform="matrix(1.33333 0 0 -1.33333 0 591.142)"/><path d="M520.084 130.481h20" style="fill:none;stroke:#1f77b4;stroke-width:1.5;stroke-linecap:square;stroke-linejoin:round;stroke-miterlimit:10;stroke-dasharray:none;stroke-opacity:1" transform="matrix(1.33333 0 0 -1.33333 0 591.142)"/><text xml:space="preserve" transform="translate(730.78 421.833)scale(1.33333)"><tspan x="0" y="0" style="font-variant:normal;font-weight:400;font-size:10px;font-family:&quot;DejaVu Sans&quot;;writing-mode:lr-tb;fill:#000;fill-opacity:1;fill-rule:nonzero;stroke:none">DES mean train RAUC</tspan></text><path d="M520.084 115.81h20" style="fill:none;stroke:#1f77b4;stroke-width:1.5;stroke-linecap:butt;stroke-linejoin:round;stroke-miterlimit:10;stroke-dasharray:9.6,2.4,1.5,2.4;stroke-dashoffset:0;stroke-opacity:1" transform="matrix(1.33333 0 0 -1.33333 0 591.142)"/><text xml:space="preserve" transform="translate(730.78 441.396)scale(1.33333)"><tspan x="0" y="0" style="font-variant:normal;font-weight:400;font-size:10px;font-family:&quot;DejaVu Sans&quot;;writing-mode:lr-tb;fill:#000;fill-opacity:1;fill-rule:nonzero;stroke:none">DES mean validation RAUC</tspan></text><path d="M520.084 101.138h20" style="fill:none;stroke:#ff7f0e;stroke-width:1.5;stroke-linecap:square;stroke-linejoin:round;stroke-miterlimit:10;stroke-dasharray:none;stroke-opacity:1" transform="matrix(1.33333 0 0 -1.33333 0 591.142)"/><text xml:space="preserve" transform="translate(730.78 460.958)scale(1.33333)"><tspan x="0" y="0" style="font-variant:normal;font-weight:400;font-size:10px;font-family:&quot;DejaVu Sans&quot;;writing-mode:lr-tb;fill:#000;fill-opacity:1;fill-rule:nonzero;stroke:none">CMA-ES mean train RAUC</tspan></text><path d="M520.084 86.466h20" style="fill:none;stroke:#ff7f0e;stroke-width:1.5;stroke-linecap:butt;stroke-linejoin:round;stroke-miterlimit:10;stroke-dasharray:9.6,2.4,1.5,2.4;stroke-dashoffset:0;stroke-opacity:1" transform="matrix(1.33333 0 0 -1.33333 0 591.142)"/><text xml:space="preserve" transform="translate(730.78 480.52)scale(1.33333)"><tspan x="0" y="0" style="font-variant:normal;font-weight:400;font-size:10px;font-family:&quot;DejaVu Sans&quot;;writing-mode:lr-tb;fill:#000;fill-opacity:1;fill-rule:nonzero;stroke:none">CMA-ES mean validation RAUC</tspan></text><path d="M520.084 71.794h20" style="fill:none;stroke:#2ca02c;stroke-width:1.5;stroke-linecap:square;stroke-linejoin:round;stroke-miterlimit:10;stroke-dasharray:none;stroke-opacity:1" transform="matrix(1.33333 0 0 -1.33333 0 591.142)"/><text xml:space="preserve" transform="translate(730.78 500.083)scale(1.33333)"><tspan x="0" y="0" style="font-variant:normal;font-weight:400;font-size:10px;font-family:&quot;DejaVu Sans&quot;;writing-mode:lr-tb;fill:#000;fill-opacity:1;fill-rule:nonzero;stroke:none">jSO mean train RAUC</tspan></text><path d="M520.084 57.122h20" style="fill:none;stroke:#2ca02c;stroke-width:1.5;stroke-linecap:butt;stroke-linejoin:round;stroke-miterlimit:10;stroke-dasharray:9.6,2.4,1.5,2.4;stroke-dashoffset:0;stroke-opacity:1" transform="matrix(1.33333 0 0 -1.33333 0 591.142)"/><text xml:space="preserve" transform="translate(730.78 519.646)scale(1.33333)"><tspan x="0" y="0" style="font-variant:normal;font-weight:400;font-size:10px;font-family:&quot;DejaVu Sans&quot;;writing-mode:lr-tb;fill:#000;fill-opacity:1;fill-rule:nonzero;stroke:none">jSO mean validation RAUC</tspan></text></svg>