<svg xmlns="http://www.w3.org/2000/svg" width="962.4" height="591.142" viewBox="0 0 962.4 591.142"><defs><clipPath id="a" clipPathUnits="userSpaceOnUse"><path d="M57.997 42.544H711.1v391.612H57.997Z"/></clipPath><clipPath id="b" clipPathUnits="userSpaceOnUse"><path d="M57.997 42.544H711.1v391.612H57.997Z"/></clipPath><clipPath id="c" clipPathUnits="userSpaceOnUse"><path d="M57.997 42.544H711.1v391.612H57.997Z"/></clipPath><clipPath id="d" clipPathUnits="userSpaceOnUse"><path d="M57.997 42.544H711.1v391.612H57.997Z"/></clipPath><clipPath id="e" clipPathUnits="userSpaceOnUse"><path d="M57.997 42.544H711.1v391.612H57.997Z"/></clipPath><clipPath id="f" clipPathUnits="userSpaceOnUse"><path d="M57.997 42.544H711.1v391.612H57.997Z"/></clipPath><clipPath id="g" clipPathUnits="userSpaceOnUse"><path d="M57.997 42.544H711.1v391.612H57.997Z"/></clipPath><clipPath id="h" clipPathUnits="userSpaceOnUse"><path d="M57.997 42.544H711.1v391.612H57.997Z"/></clipPath><clipPath id="i" clipPathUnits="userSpaceOnUse"><path d="M57.997 42.544H711.1v391.612H57.997Z"/></clipPath><clipPath id="j" clipPathUnits="userSpaceOnUse"><path d="M57.997 42.544H711.1v391.612H57.997Z"/></clipPath><clipPath id="k" clipPathUnits="userSpaceOnUse"><path d="M57.997 42.544H711.1v391.612H57.997Z"/></clipPath><clipPath id="l" clipPathUnits="userSpaceOnUse"><path d="M57.997 42.544H711.1v391.612H57.997Z"/></clipPath><clipPath id="m" clipPathUnits="userSpaceOnUse"><path d="M57.997 42.544H711.1v391.612H57.997Z"/></clipPath><clipPath id="n" clipPathUnits="userSpaceOnUse"><path d="M57.997 42.544H711.1v391.612H57.997Z"/></clipPath><clipPath id="o" clipPathUnits="userSpaceOnUse"><path d="M57.997 42.544H711.1v391.612H57.997Z"/></clipPath><clipPath id="p" clipPathUnits="userSpaceOnUse"><path d="M57.997 42.544H711.1v391.612H57.997Z"/></clipPath><clipPath id="q" clipPathUnits="userSpaceOnUse"><path d="M57.997 42.544H711.1v391.612H57.997Z"/></clipPath><clipPath id="r" clipPathUnits="userSpaceOnUse"><path d="M57.997 42.544H711.1v391.612H57.997Z"/></clipPath><clipPath id="s" clipPathUnits="userSpaceOnUse"><path d="M57.997 42.544H711.1v391.612H57.997Z"/></clipPath><clipPath id="t" clipPathUnits="userSpaceOnUse"><path d="M57.997 42.544H711.1v391.612H57.997Z"/></clipPath><clipPath id="u" clipPathUnits="userSpaceOnUse"><path d="M57.997 42.544H711.1v391.612H57.997Z"/></clipPath><clipPath id="v" clipPathUnits="userSpaceOnUse"><path d="M57.997 42.544H711.1v391.612H57.997Z"/></clipPath><clipPath id="w" clipPathUnits="userSpaceOnUse"><path d="M57.997 42.544H711.1v391.612H57.997Z"/></clipPath><clipPath id="x" clipPathUnits="userSpaceOnUse"><path d="M57.997 42.544H711.1v391.612H57.997Z"/></clipPath><clipPath id="y" clipPathUnits="userSpaceOnUse"><path d="M57.997 42.544H711.1v391.612H57.997Z"/></clipPath><clipPath id="z" clipPathUnits="userSpaceOnUse"><path d="M57.997 42.544H711.1v391.612H57.997Z"/></clipPath><clipPath id="A" clipPathUnits="userSpaceOnUse"><path d="M57.997 42.544H711.1v391.612H57.997Z"/></clipPath><clipPath id="B" clipPathUnits="userSpaceOnUse"><path d="M57.997 42.544H711.1v391.612H57.997Z"/></clipPath><clipPath id="C" clipPathUnits="userSpaceOnUse"><path d="M57.997 42.544H711.1v391.612H57.997Z"/></clipPath><clipPath id="D" clipPathUnits="userSpaceOnUse"><path d="M57.997 42.544H711.1v391.612H57.997Z"/></clipPath><clipPath id="E" clipPathUnits="userSpaceOnUse"><path d="M57.997 42.544H711.1v391.612H57.997Z"/></clipPath><clipPath id="F" clipPathUnits="userSpaceOnUse"><path d="M57.997 42.544H711.1v391.612H57.997Z"/></clipPath><clipPath id="G" clipPathUnits="userSpaceOnUse"><path d="M57.997 42.544H711.1v391.612H57.997Z"/></clipPath></defs><path d="M87.683 42.544v391.612" clip-path="url(#a)" style="fill:none;stroke:#e6e6e6;stroke-width:1;stroke-linecap:square;stroke-linejoin:round;stroke-miterlimit:10;stroke-dasharray:none;stroke-opacity:1" transform="matrix(1.33333 0 0 -1.33333 0 591.142)"/><path d="M87.683 37.544v-3.5" style="fill:#000;fill-opacity:1;fill-rule:nonzero;stroke:#000;stroke-width:.8;stroke-linecap:butt;stroke-linejoin:round;stroke-miterlimit:10;stroke-dasharray:none;stroke-opacity:1" transform="matrix(1.33333 0 0 -1.33333 0 591.142)"/><text xml:space="preserve" transform="translate(112.672 560.542)scale(1.33333)"><tspan x="0" y="0" style="font-variant:normal;font-weight:400;font-size:10px;font-family:&quot;DejaVu Sans&quot;;writing-mode:lr-tb;fill:#000;fill-opacity:1;fill-rule:nonzero;stroke:none">0</tspan></text><path d="M167.917 42.544v391.612" clip-path="url(#b)" style="fill:none;stroke:#e6e6e6;stroke-width:1;stroke-linecap:square;stroke-linejoin:round;stroke-miterlimit:10;stroke-dasharray:none;stroke-opacity:1" transform="matrix(1.33333 0 0 -1.33333 0 591.142)"/><path d="M167.917 37.544v-3.5" style="fill:#000;fill-opacity:1;fill-rule:nonzero;stroke:#000;stroke-width:.8;stroke-linecap:butt;stroke-linejoin:round;stroke-miterlimit:10;stroke-dasharray:none;stroke-opacity:1" transform="matrix(1.33333 0 0 -1.33333 0 591.142)"/><text xml:space="preserve" transform="translate(215.41 560.542)scale(1.33333)"><tspan x="0" y="0" style="font-variant:normal;font-weight:400;font-size:10px;font-family:&quot;DejaVu Sans&quot;;writing-mode:lr-tb;fill:#000;fill-opacity:1;fill-rule:nonzero;stroke:none">10</tspan></text><path d="M248.151 42.544v391.612" clip-path="url(#c)" style="fill:none;stroke:#e6e6e6;stroke-width:1;stroke-linecap:square;stroke-linejoin:round;stroke-miterlimit:10;stroke-dasharray:none;stroke-opacity:1" transform="matrix(1.33333 0 0 -1.33333 0 591.142)"/><path d="M248.151 37.544v-3.5" style="fill:#000;fill-opacity:1;fill-rule:nonzero;stroke:#000;stroke-width:.8;stroke-linecap:butt;stroke-linejoin:round;stroke-miterlimit:10;stroke-dasharray:none;stroke-opacity:1" transform="matrix(1.33333 0 0 -1.33333 0 591.142)"/><text xml:space="preserve" transform="translate(322.389 560.542)scale(1.33333)"><tspan x="0" y="0" style="font-variant:normal;font-weight:400;font-size:10px;font-family:&quot;DejaVu Sans&quot;;writing-mode:lr-tb;fill:#000;fill-opacity:1;fill-rule:nonzero;stroke:none">20</tspan></text><path d="M328.385 42.544v391.612" clip-path="url(#d)" style="fill:none;stroke:#e6e6e6;stroke-width:1;stroke-linecap:square;stroke-linejoin:round;stroke-miterlimit:10;stroke-dasharray:none;stroke-opacity:1" transform="matrix(1.33333 0 0 -1.33333 0 591.142)"/><path d="M328.385 37.544v-3.5" style="fill:#000;fill-opacity:1;fill-rule:nonzero;stroke:#000;stroke-width:.8;stroke-linecap:butt;stroke-linejoin:round;stroke-miterlimit:10;stroke-dasharray:none;stroke-opacity:1" transform="matrix(1.33333 0 0 -1.33333 0 591.142)"/><text xml:space="preserve" transform="translate(429.367 560.542)scale(1.33333)"><tspan x="0" y="0" style="font-variant:normal;font-weight:400;font-size:10px;font-family:&quot;DejaVu Sans&quot;;writing-mode:lr-tb;fill:#000;fill-opacity:1;fill-rule:nonzero;stroke:none">30</tspan></text><path d="M408.619 42.544v391.612" clip-path="url(#e)" style="fill:none;stroke:#e6e6e6;stroke-width:1;stroke-linecap:square;stroke-linejoin:round;stroke-miterlimit:10;stroke-dasharray:none;stroke-opacity:1" transform="matrix(1.33333 0 0 -1.33333 0 591.142)"/><path d="M408.619 37.544v-3.5" style="fill:#000;fill-opacity:1;fill-rule:nonzero;stroke:#000;stroke-width:.8;stroke-linecap:butt;stroke-linejoin:round;stroke-miterlimit:10;stroke-dasharray:none;stroke-opacity:1" transform="matrix(1.33333 0 0 -1.33333 0 591.142)"/><text xml:space="preserve" transform="translate(536.346 560.542)scale(1.33333)"><tspan x="0" y="0" style="font-variant:normal;font-weight:400;font-size:10px;font-family:&quot;DejaVu Sans&quot;;writing-mode:lr-tb;fill:#000;fill-opacity:1;fill-rule:nonzero;stroke:none">40</tspan></text><path d="M488.852 42.544v391.612" clip-path="url(#f)" style="fill:none;stroke:#e6e6e6;stroke-width:1;stroke-linecap:square;stroke-linejoin:round;stroke-miterlimit:10;stroke-dasharray:none;stroke-opacity:1" transform="matrix(1.33333 0 0 -1.33333 0 591.142)"/><path d="M488.852 37.544v-3.5" style="fill:#000;fill-opacity:1;fill-rule:nonzero;stroke:#000;stroke-width:.8;stroke-linecap:butt;stroke-linejoin:round;stroke-miterlimit:10;stroke-dasharray:none;stroke-opacity:1" transform="matrix(1.33333 0 0 -1.33333 0 591.142)"/><text xml:space="preserve" transform="translate(643.324 560.542)scale(1.33333)"><tspan x="0" y="0" style="font-variant:normal;font-weight:400;font-size:10px;font-family:&quot;DejaVu Sans&quot;;writing-mode:lr-tb;fill:#000;fill-opacity:1;fill-rule:nonzero;stroke:none">50</tspan></text><path d="M569.086 42.544v391.612" clip-path="url(#g)" style="fill:none;stroke:#e6e6e6;stroke-width:1;stroke-linecap:square;stroke-linejoin:round;stroke-miterlimit:10;stroke-dasharray:none;stroke-opacity:1" transform="matrix(1.33333 0 0 -1.33333 0 591.142)"/><path d="M569.086 37.544v-3.5" style="fill:#000;fill-opacity:1;fill-rule:nonzero;stroke:#000;stroke-width:.8;stroke-linecap:butt;stroke-linejoin:round;stroke-miterlimit:10;stroke-dasharray:none;stroke-opacity:1" transform="matrix(1.33333 0 0 -1.33333 0 591.142)"/><text xml:space="preserve" transform="translate(750.302 560.542)scale(1.33333)"><tspan x="0" y="0" style="font-variant:normal;font-weight:400;font-size:10px;font-family:&quot;DejaVu Sans&quot;;writing-mode:lr-tb;fill:#000;fill-opacity:1;fill-rule:nonzero;stroke:none">60</tspan></text><path d="M649.32 42.544v391.612" clip-path="url(#h)" style="fill:none;stroke:#e6e6e6;stroke-width:1;stroke-linecap:square;stroke-linejoin:round;stroke-miterlimit:10;stroke-dasharray:none;stroke-opacity:1" transform="matrix(1.33333 0 0 -1.33333 0 591.142)"/><path d="M649.32 37.544v-3.5" style="fill:#000;fill-opacity:1;fill-rule:nonzero;stroke:#000;stroke-width:.8;stroke-linecap:butt;stroke-linejoin:round;stroke-miterlimit:10;stroke-dasharray:none;stroke-opacity:1" transform="matrix(1.33333 0 0 -1.33333 0 591.142)"/><text xml:space="preserve" transform="translate(857.28 560.542)scale(1.33333)"><tspan x="0" y="0" style="font-variant:normal;font-weight:400;font-size:10px;font-family:&quot;DejaVu Sans&quot;;writing-mode:lr-tb;fill:#000;fill-opacity:1;fill-rule:nonzero;stroke:none">70</tspan></text><text xml:space="preserve" transform="translate(492.419 578.77)scale(1.33333)"><tspan x="0" y="0" style="font-variant:normal;font-weight:400;font-size:10px;font-family:&quot;DejaVu Sans&quot;;writing-mode:lr-tb;fill:#000;fill-opacity:1;fill-rule:nonzero;stroke:none">epoch</tspan></text><path d="M57.997 76.868H711.1" clip-path="url(#i)" style="fill:none;stroke:#e6e6e6;stroke-width:1;stroke-linecap:square;stroke-linejoin:round;stroke-miterlimit:10;stroke-dasharray:none;stroke-opacity:1" transform="matrix(1.33333 0 0 -1.33333 0 591.142)"/><text xml:space="preserve" transform="translate(27.83 493.713)scale(1.33333)"><tspan x="0" y="0" style="font-variant:normal;font-weight:400;font-size:10px;font-family:&quot;DejaVu Sans&quot;;writing-mode:lr-tb;fill:#000;fill-opacity:1;fill-rule:nonzero;stroke:none">0.400</tspan></text><path d="M57.997 123.387H711.1" clip-path="url(#j)" style="fill:none;stroke:#e6e6e6;stroke-width:1;stroke-linecap:square;stroke-linejoin:round;stroke-miterlimit:10;stroke-dasharray:none;stroke-opacity:1" transform="matrix(1.33333 0 0 -1.33333 0 591.142)"/><text xml:space="preserve" transform="translate(27.83 431.689)scale(1.33333)"><tspan x="0" y="0" style="font-variant:normal;font-weight:400;font-size:10px;font-family:&quot;DejaVu Sans&quot;;writing-mode:lr-tb;fill:#000;fill-opacity:1;fill-rule:nonzero;stroke:none">0.425</tspan></text><path d="M57.997 169.905H711.1" clip-path="url(#k)" style="fill:none;stroke:#e6e6e6;stroke-width:1;stroke-linecap:square;stroke-linejoin:round;stroke-miterlimit:10;stroke-dasharray:none;stroke-opacity:1" transform="matrix(1.33333 0 0 -1.33333 0 591.142)"/><text xml:space="preserve" transform="translate(27.83 369.664)scale(1.33333)"><tspan x="0" y="0" style="font-variant:normal;font-weight:400;font-size:10px;font-family:&quot;DejaVu Sans&quot;;writing-mode:lr-tb;fill:#000;fill-opacity:1;fill-rule:nonzero;stroke:none">0.450</tspan></text><path d="M57.997 216.424H711.1" clip-path="url(#l)" style="fill:none;stroke:#e6e6e6;stroke-width:1;stroke-linecap:square;stroke-linejoin:round;stroke-miterlimit:10;stroke-dasharray:none;stroke-opacity:1" transform="matrix(1.33333 0 0 -1.33333 0 591.142)"/><text xml:space="preserve" transform="translate(27.83 307.64)scale(1.33333)"><tspan x="0" y="0" style="font-variant:normal;font-weight:400;font-size:10px;font-family:&quot;DejaVu Sans&quot;;writing-mode:lr-tb;fill:#000;fill-opacity:1;fill-rule:nonzero;stroke:none">0.475</tspan></text><path d="M57.997 262.942H711.1" clip-path="url(#m)" style="fill:none;stroke:#e6e6e6;stroke-width:1;stroke-linecap:square;stroke-linejoin:round;stroke-miterlimit:10;stroke-dasharray:none;stroke-opacity:1" transform="matrix(1.33333 0 0 -1.33333 0 591.142)"/><text xml:space="preserve" transform="translate(27.83 245.615)scale(1.33333)"><tspan x="0" y="0" style="font-variant:normal;font-weight:400;font-size:10px;font-family:&quot;DejaVu Sans&quot;;writing-mode:lr-tb;fill:#000;fill-opacity:1;fill-rule:nonzero;stroke:none">0.500</tspan></text><path d="M57.997 309.46H711.1" clip-path="url(#n)" style="fill:none;stroke:#e6e6e6;stroke-width:1;stroke-linecap:square;stroke-linejoin:round;stroke-miterlimit:10;stroke-dasharray:none;stroke-opacity:1" transform="matrix(1.33333 0 0 -1.33333 0 591.142)"/><text xml:space="preserve" transform="translate(27.83 183.59)scale(1.33333)"><tspan x="0" y="0" style="font-variant:normal;font-weight:400;font-size:10px;font-family:&quot;DejaVu Sans&quot;;writing-mode:lr-tb;fill:#000;fill-opacity:1;fill-rule:nonzero;stroke:none">0.525</tspan></text><path d="M57.997 355.98H711.1" clip-path="url(#o)" style="fill:none;stroke:#e6e6e6;stroke-width:1;stroke-linecap:square;stroke-linejoin:round;stroke-miterlimit:10;stroke-dasharray:none;stroke-opacity:1" transform="matrix(1.33333 0 0 -1.33333 0 591.142)"/><text xml:space="preserve" transform="translate(27.83 121.565)scale(1.33333)"><tspan x="0" y="0" style="font-variant:normal;font-weight:400;font-size:10px;font-family:&quot;DejaVu Sans&quot;;writing-mode:lr-tb;fill:#000;fill-opacity:1;fill-rule:nonzero;stroke:none">0.550</tspan></text><path d="M57.997 402.498H711.1" clip-path="url(#p)" style="fill:none;stroke:#e6e6e6;stroke-width:1;stroke-linecap:square;stroke-linejoin:round;stroke-miterlimit:10;stroke-dasharray:none;stroke-opacity:1" transform="matrix(1.33333 0 0 -1.33333 0 591.142)"/><text xml:space="preserve" transform="translate(27.83 59.54)scale(1.33333)"><tspan x="0" y="0" style="font-variant:normal;font-weight:400;font-size:10px;font-family:&quot;DejaVu Sans&quot;;writing-mode:lr-tb;fill:#000;fill-opacity:1;fill-rule:nonzero;stroke:none">0.575</tspan></text><text xml:space="preserve" transform="rotate(-90 152.981 133.256)scale(1.33333)"><tspan x="0" y="0" style="font-variant:normal;font-weight:400;font-size:10px;font-family:&quot;DejaVu Sans&quot;;writing-mode:lr-tb;fill:#000;fill-opacity:1;fill-rule:nonzero;stroke:none">loss</tspan></text><path d="M328.385-1v292.642" clip-path="url(#q)" style="fill:none;stroke:#1f77b4;stroke-width:1.5;stroke-linecap:butt;stroke-linejoin:round;stroke-miterlimit:10;stroke-dasharray:1.5,2.475;stroke-dashoffset:0;stroke-opacity:1" transform="matrix(1.33333 0 0 -1.33333 0 591.142)"/><path d="M432.689-1v282.74" clip-path="url(#r)" style="fill:none;stroke:#1f77b4;stroke-width:1.5;stroke-linecap:butt;stroke-linejoin:round;stroke-miterlimit:10;stroke-dasharray:1.5,2.475;stroke-dashoffset:0;stroke-opacity:1" transform="matrix(1.33333 0 0 -1.33333 0 591.142)"/><path d="M488.852-1v289.57" clip-path="url(#s)" style="fill:none;stroke:#1f77b4;stroke-width:1.5;stroke-linecap:butt;stroke-linejoin:round;stroke-miterlimit:10;stroke-dasharray:1.5,2.475;stroke-dashoffset:0;stroke-opacity:1" transform="matrix(1.33333 0 0 -1.33333 0 591.142)"/><path d="M528.97-1v280.845" clip-path="url(#t)" style="fill:none;stroke:#1f77b4;stroke-width:1.5;stroke-linecap:butt;stroke-linejoin:round;stroke-miterlimit:10;stroke-dasharray:1.5,2.475;stroke-dashoffset:0;stroke-opacity:1" transform="matrix(1.33333 0 0 -1.33333 0 591.142)"/><path d="M649.32-1v280.42" clip-path="url(#u)" style="fill:none;stroke:#1f77b4;stroke-width:1.5;stroke-linecap:butt;stroke-linejoin:round;stroke-miterlimit:10;stroke-dasharray:1.5,2.475;stroke-dashoffset:0;stroke-opacity:1" transform="matrix(1.33333 0 0 -1.33333 0 591.142)"/><path d="M328.385-1v290.463" clip-path="url(#v)" style="fill:none;stroke:#ff7f0e;stroke-width:1.5;stroke-linecap:butt;stroke-linejoin:round;stroke-miterlimit:10;stroke-dasharray:1.5,2.475;stroke-dashoffset:0;stroke-opacity:1" transform="matrix(1.33333 0 0 -1.33333 0 591.142)"/><path d="M432.689-1v289.686" clip-path="url(#w)" style="fill:none;stroke:#ff7f0e;stroke-width:1.5;stroke-linecap:butt;stroke-linejoin:round;stroke-miterlimit:10;stroke-dasharray:1.5,2.475;stroke-dashoffset:0;stroke-opacity:1" transform="matrix(1.33333 0 0 -1.33333 0 591.142)"/><path d="M296.291-1v329.904" clip-path="url(#x)" style="fill:none;stroke:#2ca02c;stroke-width:1.5;stroke-linecap:butt;stroke-linejoin:round;stroke-miterlimit:10;stroke-dasharray:1.5,2.475;stroke-dashoffset:0;stroke-opacity:1" transform="matrix(1.33333 0 0 -1.33333 0 591.142)"/><path d="M328.385-1v296.18" clip-path="url(#y)" style="fill:none;stroke:#2ca02c;stroke-width:1.5;stroke-linecap:butt;stroke-linejoin:round;stroke-miterlimit:10;stroke-dasharray:1.5,2.475;stroke-dashoffset:0;stroke-opacity:1" transform="matrix(1.33333 0 0 -1.33333 0 591.142)"/><path d="M488.852-1v291.818" clip-path="url(#z)" style="fill:none;stroke:#2ca02c;stroke-width:1.5;stroke-linecap:butt;stroke-linejoin:round;stroke-miterlimit:10;stroke-dasharray:1.5,2.475;stroke-dashoffset:0;stroke-opacity:1" transform="matrix(1.33333 0 0 -1.33333 0 591.142)"/><path d="M496.876-1v295.575" clip-path="url(#A)" style="fill:none;stroke:#2ca02c;stroke-width:1.5;stroke-linecap:butt;stroke-linejoin:round;stroke-miterlimit:10;stroke-dasharray:1.5,2.475;stroke-dashoffset:0;stroke-opacity:1" transform="matrix(1.33333 0 0 -1.33333 0 591.142)"/><path d="m87.683 337.423 8.024-136.062 8.023-28.314 8.024-12.688 8.023-10.792 8.023 17.06 8.024-18.973 8.023 2.276 8.023-9.198 8.024-3.643 8.023-5.534 8.024-.233 8.023 1.674 8.023-4.782 8.024-1.79 8.023-6.296 8.023 11.24 8.024-11.058 8.023-5.935 8.024 4.672 8.023-8.653 8.023 4.864 8.024-5.835 8.023-1.635 8.023 3.285 8.024 6.294 8.023-9.377 8.024 3.342 8.023-4.59 8.023 1.535 8.024 1.187 8.023 4.144 8.024-2.211 8.023-2.085 8.023-15.053 8.024 11.775 8.023-9.893 8.023 8.781 8.024-7.575 8.023 10.703 8.024-5.816 8.023 1.133 8.023-10.264 8.024 5.856 8.023-5.885 8.023 9.791 8.024-5.467 8.023.077 8.024 2.496 8.023-6.33 8.023-1.856 8.024-5.342 8.023 5.003 8.024.033 8.023-5.08 8.023-8.881 8.024 9.65 8.023 10.909 8.023-13.884 8.024-4.216 8.023 7.528 8.024-6.443 8.023 3.375 8.023-7.355 8.024 12.573 8.023 5.947 8.023-9.64 8.024-5.48 8.023-.154 8.024-1.14 8.023-6.83 8.023-6.99 8.024 19.338 8.023-24.362 8.023 5.938" clip-path="url(#B)" style="fill:none;stroke:#1f77b4;stroke-width:1.5;stroke-linecap:square;stroke-linejoin:round;stroke-miterlimit:10;stroke-dasharray:none;stroke-opacity:1" transform="matrix(1.33333 0 0 -1.33333 0 591.142)"/><path d="m87.683 396.857 8.024-43.468 8.023 7.495 8.024-6.988 8.023-8.001 8.023-17.712 8.024-10.387 8.023.684 8.023-14.138 8.024-3.94 8.023-5.431 8.024 45.913 8.023-5.54 8.023-12.687 8.024 9.005 8.023-27.458 8.023 12.488 8.024-26.968 8.023 20.073 8.024-15.108 8.023 29.572 8.023-19.322 8.024 7.692 8.023-24.763 8.023 26.114 8.024 2.172 8.023 12.373 8.024-30.578 8.023 30.264 8.023-31.264 8.024-5.307L336.408 347l8.024-25.656 8.023-22.26 8.023 43.406 8.024-57.57 8.023 5.13 8.023-1.947 8.024 29.65 8.023-22.307 8.024-3.661 8.023 1.462 8.023 28.46 8.024-39.966 8.023 43.68 8.023-24.045 8.024 22.696 8.023 10.092 8.024-41.622 8.023 8.088 8.023-12.06 8.024 4.307 8.023 43.65 8.024-28.65 8.023-28.287 8.023.256 8.024 32.658 8.023-6.56 8.023-10.78 8.024 7.877 8.023-9.292 8.024 15.132 8.023 3.673 8.023-25.71 8.024 29.085 8.023-31.62 8.023 8.022 8.024-14.878 8.023 23.486 8.024 12.053 8.023-33.572 8.023 14.324 8.024 3.272 8.023-25.734 8.023-3.726" clip-path="url(#C)" style="fill:none;stroke:#1f77b4;stroke-width:1.5;stroke-linecap:butt;stroke-linejoin:round;stroke-miterlimit:10;stroke-dasharray:9.6,2.4,1.5,2.4;stroke-dashoffset:0;stroke-opacity:1" transform="matrix(1.33333 0 0 -1.33333 0 591.142)"/><path d="m87.683 367.264 8.024-145.302 8.023-30.507 8.024-11.159 8.023-9.835 8.023 14.649 8.024-20.517 8.023 2.318 8.023-9.104 8.024-7.235 8.023-3.232 8.024 1.321 8.023 1.481 8.023-5.514 8.024-6.072 8.023-1.369 8.023 8.076 8.024-10.194 8.023-5.075 8.024 1.566 8.023-7.26 8.023 6.312 8.024-6.166 8.023-2.988 8.023 4.262 8.024 1.892 8.023-3.992 8.024 5.75 8.023-5.428 8.023 1.61 8.024-.972 8.023 4.436 8.024-3.86 8.023-2.06 8.023-8.015 8.024 13.22 8.023-16.885 8.023 5.63 8.024 1.303 8.023 11.452 8.024-10.892 8.023.055 8.023-8.642 8.024 5.28 8.023-6.423 8.023 6.449 8.024-3.367 8.023-1.109 8.024-.365 8.023.496 8.023-7.12" clip-path="url(#D)" style="fill:none;stroke:#ff7f0e;stroke-width:1.5;stroke-linecap:square;stroke-linejoin:round;stroke-miterlimit:10;stroke-dasharray:none;stroke-opacity:1" transform="matrix(1.33333 0 0 -1.33333 0 591.142)"/><path d="m87.683 416.356 8.024-47.635 8.023 8.544 8.024-15.017 8.023-4.647 8.023-13.414 8.024-17.777 8.023 2.957 8.023-4.8 8.024-9.7 8.023-4.29 8.024 36.89 8.023-15.754 8.023-6.687 8.024 17.777 8.023-31.326 8.023 12.17 8.024-25.257 8.023 21.863 8.024-16.1 8.023 31.999 8.023-24.323 8.024 13.191 8.023-20.598 8.023 16.226 8.024 5.934 8.023 7.023 8.024-26.419 8.023 25.485 8.023-30.968 8.024-12.24 8.023 55.948 8.024-21.66 8.023-20.376 8.023 37.792 8.024-45.645 8.023 2.07 8.023.693 8.024 22.42 8.023-13.377 8.024-5.173 8.023 1.081 8.023 26.472 8.024-41.022 8.023 40.54 8.023-27.097 8.024 30.083 8.023 10.232 8.024-39.998 8.023.84 8.023-12.452" clip-path="url(#E)" style="fill:none;stroke:#ff7f0e;stroke-width:1.5;stroke-linecap:butt;stroke-linejoin:round;stroke-miterlimit:10;stroke-dasharray:9.6,2.4,1.5,2.4;stroke-dashoffset:0;stroke-opacity:1" transform="matrix(1.33333 0 0 -1.33333 0 591.142)"/><path d="m87.683 372.27 8.024-156.763 8.023-31.545 8.024-13.945 8.023-11.431 8.023 14.71 8.024-17.922 8.023-2.743 8.023-4.067 8.024-6.862 8.023-5.22 8.024-.784 8.023 4.926 8.023-7.837 8.024-4.412 8.023.13 8.023.57 8.024-3.356 8.023-6.633 8.024 6.174 8.023-7.582 8.023 2.502 8.024-3.486 8.023-3.776 8.023 2.73 8.024 1.015 8.023-.636 8.024-.466 8.023-4.14 8.023 3.806 8.024-3.123 8.023 3.841 8.024-6.51 8.023.803 8.023-6.485 8.024 8.114 8.023-10.417 8.023 3.213 8.024-3.348 8.023 20.963 8.024-13.969 8.023-1.666 8.023-6.926 8.024 1.407 8.023-5.34 8.023 6.128 8.024-6.123 8.023 2.655 8.024-4.555 8.023 4.463 8.023-8.452 8.024 4.894 8.023 3.786 8.024-2.068 8.023-.88 8.023-12.989" clip-path="url(#F)" style="fill:none;stroke:#2ca02c;stroke-width:1.5;stroke-linecap:square;stroke-linejoin:round;stroke-miterlimit:10;stroke-dasharray:none;stroke-opacity:1" transform="matrix(1.33333 0 0 -1.33333 0 591.142)"/><path d="m87.683 408.519 8.024-40.663 8.023-.936 8.024-13.393 8.023-.083 8.023-16.178 8.024-15.506 8.023.436 8.023-3.875 8.024-8.132 8.023-4.86 8.024 27.895 8.023-5.476 8.023-4.424 8.024 10.273 8.023-24.764 8.023 9.641 8.024-16.273 8.023 8.045 8.024-6.204 8.023 16.002 8.023-14.734 8.024 6.864 8.023-10.47 8.023 14.01 8.024 5.325 8.023 7.865 8.024-27.351 8.023 14.001 8.023-14.684 8.024-5.69 8.023 31.674 8.024-13.397 8.023-17.156 8.023 30.105 8.024-40.82 8.023 5.866 8.023-1.232 8.024 32.847 8.023-15.933 8.024-10.82 8.023-8.628 8.023 26.11 8.024-28.163 8.023 33.66 8.023-19.218 8.024 8.643 8.023 16.77 8.024-27.986 8.023.688 8.023-7.372 8.024 3.757 8.023 45.805 8.024-27.488 8.023-28.78 8.023 4.829" clip-path="url(#G)" style="fill:none;stroke:#2ca02c;stroke-width:1.5;stroke-linecap:butt;stroke-linejoin:round;stroke-miterlimit:10;stroke-dasharray:9.6,2.4,1.5,2.4;stroke-dashoffset:0;stroke-opacity:1" transform="matrix(1.33333 0 0 -1.33333 0 591.142)"/><path d="M526.85 338.125H704.1q2 0 2 2v87.031q0 2-2 2H526.85q-2 0-2-2v-87.031q0-2 2-2z" style="fill:#fff;fill-opacity:.8;fill-rule:nonzero;stroke:#ccc;stroke-width:1;stroke-linecap:butt;stroke-linejoin:miter;stroke-miterlimit:10;stroke-dasharray:none;stroke-opacity:.8" transform="matrix(1.33333 0 0 -1.33333 0 591.142)"/><path d="M528.85 421.062h20" style="fill:none;stroke:#1f77b4;stroke-width:1.5;stroke-linecap:square;stroke-linejoin:round;stroke-miterlimit:10;stroke-dasharray:none;stroke-opacity:1" transform="matrix(1.33333 0 0 -1.33333 0 591.142)"/><text xml:space="preserve" transform="translate(742.467 34.392)scale(1.33333)"><tspan x="0" y="0" style="font-variant:normal;font-weight:400;font-size:10px;font-family:&quot;DejaVu Sans&quot;;writing-mode:lr-tb;fill:#000;fill-opacity:1;fill-rule:nonzero;stroke:none">DES mean train loss</tspan></text><path d="M528.85 406.39h20" style="fill:none;stroke:#1f77b4;stroke-width:1.5;stroke-linecap:butt;stroke-linejoin:round;stroke-miterlimit:10;stroke-dasharray:9.6,2.4,1.5,2.4;stroke-dashoffset:0;stroke-opacity:1" transform="matrix(1.33333 0 0 -1.33333 0 591.142)"/><text xml:space="preserve" transform="translate(742.467 53.954)scale(1.33333)"><tspan x="0" y="0" style="font-variant:normal;font-weight:400;font-size:10px;font-family:&quot;DejaVu Sans&quot;;writing-mode:lr-tb;fill:#000;fill-opacity:1;fill-rule:nonzero;stroke:none">DES mean validation loss</tspan></text><path d="M528.85 391.719h20" style="fill:none;stroke:#ff7f0e;stroke-width:1.5;stroke-linecap:square;stroke-linejoin:round;stroke-miterlimit:10;stroke-dasharray:none;stroke-opacity:1" transform="matrix(1.33333 0 0 -1.33333 0 591.142)"/><text xml:space="preserve" transform="translate(742.467 73.517)scale(1.33333)"><tspan x="0" y="0" style="font-variant:normal;font-weight:400;font-size:10px;font-family:&quot;DejaVu Sans&quot;;writing-mode:lr-tb;fill:#000;fill-opacity:1;fill-rule:nonzero;stroke:none">CMA-ES mean train loss</tspan></text><path d="M528.85 377.047h20" style="fill:none;stroke:#ff7f0e;stroke-width:1.5;stroke-linecap:butt;stroke-linejoin:round;stroke-miterlimit:10;stroke-dasharray:9.6,2.4,1.5,2.4;stroke-dashoffset:0;stroke-opacity:1" transform="matrix(1.33333 0 0 -1.33333 0 591.142)"/><text xml:space="preserve" transform="translate(742.467 93.08)scale(1.33333)"><tspan x="0" y="0" style="font-variant:normal;font-weight:400;font-size:10px;font-family:&quot;DejaVu Sans&quot;;writing-mode:lr-tb;fill:#000;fill-opacity:1;fill-rule:nonzero;stroke:none">CMA-ES mean validation loss</tspan></text><path d="M528.85 362.375h20" style="fill:none;stroke:#2ca02c;stroke-width:1.5;stroke-linecap:square;stroke-linejoin:round;stroke-miterlimit:10;stroke-dasharray:none;stroke-opacity:1" transform="matrix(1.33333 0 0 -1.33333 0 591.142)"/><text xml:space="preserve" transform="translate(742.467 112.642)scale(1.33333)"><tspan x="0" y="0" style="font-variant:normal;font-weight:400;font-size:10px;font-family:&quot;DejaVu Sans&quot;;writing-mode:lr-tb;fill:#000;fill-opacity:1;fill-rule:nonzero;stroke:none">jSO mean train loss</tspan></text><path d="M528.85 347.703h20" style="fill:none;stroke:#2ca02c;stroke-width:1.5;stroke-linecap:butt;stroke-linejoin:round;stroke-miterlimit:10;stroke-dasharray:9.6,2.4,1.5,2.4;stroke-dashoffset:0;stroke-opacity:1" transform="matrix(1.33333 0 0 -1.33333 0 591.142)"/><text xml:space="preserve" transform="translate(742.467 132.204)scale(1.33333)"><tspan x="0" y="0" style="font-variant:normal;font-weight:400;font-size:10px;font-family:&quot;DejaVu Sans&quot;;writing-mode:lr-tb;fill:#000;fill-opacity:1;fill-rule:nonzero;stroke:none">jSO mean validation loss</tspan></text></svg>