<?xml version="1.0" encoding="UTF-8" standalone="no"?>
<!-- Created with Inkscape (http://www.inkscape.org/) -->

<svg
   version="1.1"
   id="svg1"
   width="962.40002"
   height="591.14166"
   viewBox="0 0 962.40002 591.14166"
   xmlns="http://www.w3.org/2000/svg"
   xmlns:svg="http://www.w3.org/2000/svg">
  <defs
     id="defs1">
    <clipPath
       clipPathUnits="userSpaceOnUse"
       id="clipPath2">
      <path
         d="M 57.996875,42.54375 H 711.1 V 434.15624 H 57.996875 Z"
         id="path2" />
    </clipPath>
    <clipPath
       clipPathUnits="userSpaceOnUse"
       id="clipPath5">
      <path
         d="M 57.996875,42.54375 H 711.1 V 434.15624 H 57.996875 Z"
         id="path5" />
    </clipPath>
    <clipPath
       clipPathUnits="userSpaceOnUse"
       id="clipPath8">
      <path
         d="M 57.996875,42.54375 H 711.1 V 434.15624 H 57.996875 Z"
         id="path8" />
    </clipPath>
    <clipPath
       clipPathUnits="userSpaceOnUse"
       id="clipPath11">
      <path
         d="M 57.996875,42.54375 H 711.1 V 434.15624 H 57.996875 Z"
         id="path11" />
    </clipPath>
    <clipPath
       clipPathUnits="userSpaceOnUse"
       id="clipPath14">
      <path
         d="M 57.996875,42.54375 H 711.1 V 434.15624 H 57.996875 Z"
         id="path14" />
    </clipPath>
    <clipPath
       clipPathUnits="userSpaceOnUse"
       id="clipPath17">
      <path
         d="M 57.996875,42.54375 H 711.1 V 434.15624 H 57.996875 Z"
         id="path17" />
    </clipPath>
    <clipPath
       clipPathUnits="userSpaceOnUse"
       id="clipPath20">
      <path
         d="M 57.996875,42.54375 H 711.1 V 434.15624 H 57.996875 Z"
         id="path20" />
    </clipPath>
    <clipPath
       clipPathUnits="userSpaceOnUse"
       id="clipPath23">
      <path
         d="M 57.996875,42.54375 H 711.1 V 434.15624 H 57.996875 Z"
         id="path23" />
    </clipPath>
    <clipPath
       clipPathUnits="userSpaceOnUse"
       id="clipPath26">
      <path
         d="M 57.996875,42.54375 H 711.1 V 434.15624 H 57.996875 Z"
         id="path26" />
    </clipPath>
    <clipPath
       clipPathUnits="userSpaceOnUse"
       id="clipPath28">
      <path
         d="M 57.996875,42.54375 H 711.1 V 434.15624 H 57.996875 Z"
         id="path28" />
    </clipPath>
    <clipPath
       clipPathUnits="userSpaceOnUse"
       id="clipPath30">
      <path
         d="M 57.996875,42.54375 H 711.1 V 434.15624 H 57.996875 Z"
         id="path30" />
    </clipPath>
    <clipPath
       clipPathUnits="userSpaceOnUse"
       id="clipPath32">
      <path
         d="M 57.996875,42.54375 H 711.1 V 434.15624 H 57.996875 Z"
         id="path32" />
    </clipPath>
    <clipPath
       clipPathUnits="userSpaceOnUse"
       id="clipPath34">
      <path
         d="M 57.996875,42.54375 H 711.1 V 434.15624 H 57.996875 Z"
         id="path34" />
    </clipPath>
    <clipPath
       clipPathUnits="userSpaceOnUse"
       id="clipPath36">
      <path
         d="M 57.996875,42.54375 H 711.1 V 434.15624 H 57.996875 Z"
         id="path36" />
    </clipPath>
    <clipPath
       clipPathUnits="userSpaceOnUse"
       id="clipPath38">
      <path
         d="M 57.996875,42.54375 H 711.1 V 434.15624 H 57.996875 Z"
         id="path38" />
    </clipPath>
    <clipPath
       clipPathUnits="userSpaceOnUse"
       id="clipPath40">
      <path
         d="M 57.996875,42.54375 H 711.1 V 434.15624 H 57.996875 Z"
         id="path40" />
    </clipPath>
    <clipPath
       clipPathUnits="userSpaceOnUse"
       id="clipPath42">
      <path
         d="M 57.996875,42.54375 H 711.1 V 434.15624 H 57.996875 Z"
         id="path42" />
    </clipPath>
    <clipPath
       clipPathUnits="userSpaceOnUse"
       id="clipPath44">
      <path
         d="M 57.996875,42.54375 H 711.1 V 434.15624 H 57.996875 Z"
         id="path44" />
    </clipPath>
    <clipPath
       clipPathUnits="userSpaceOnUse"
       id="clipPath46">
      <path
         d="M 57.996875,42.54375 H 711.1 V 434.15624 H 57.996875 Z"
         id="path46" />
    </clipPath>
    <clipPath
       clipPathUnits="userSpaceOnUse"
       id="clipPath48">
      <path
         d="M 57.996875,42.54375 H 711.1 V 434.15624 H 57.996875 Z"
         id="path48" />
    </clipPath>
    <clipPath
       clipPathUnits="userSpaceOnUse"
       id="clipPath50">
      <path
         d="M 57.996875,42.54375 H 711.1 V 434.15624 H 57.996875 Z"
         id="path50" />
    </clipPath>
    <clipPath
       clipPathUnits="userSpaceOnUse"
       id="clipPath52">
      <path
         d="M 57.996875,42.54375 H 711.1 V 434.15624 H 57.996875 Z"
         id="path52" />
    </clipPath>
    <clipPath
       clipPathUnits="userSpaceOnUse"
       id="clipPath54">
      <path
         d="M 57.996875,42.54375 H 711.1 V 434.15624 H 57.996875 Z"
         id="path54" />
    </clipPath>
    <clipPath
       clipPathUnits="userSpaceOnUse"
       id="clipPath56">
      <path
         d="M 57.996875,42.54375 H 711.1 V 434.15624 H 57.996875 Z"
         id="path56" />
    </clipPath>
    <clipPath
       clipPathUnits="userSpaceOnUse"
       id="clipPath58">
      <path
         d="M 57.996875,42.54375 H 711.1 V 434.15624 H 57.996875 Z"
         id="path58" />
    </clipPath>
    <clipPath
       clipPathUnits="userSpaceOnUse"
       id="clipPath60">
      <path
         d="M 57.996875,42.54375 H 711.1 V 434.15624 H 57.996875 Z"
         id="path60" />
    </clipPath>
    <clipPath
       clipPathUnits="userSpaceOnUse"
       id="clipPath62">
      <path
         d="M 57.996875,42.54375 H 711.1 V 434.15624 H 57.996875 Z"
         id="path62" />
    </clipPath>
    <clipPath
       clipPathUnits="userSpaceOnUse"
       id="clipPath64">
      <path
         d="M 57.996875,42.54375 H 711.1 V 434.15624 H 57.996875 Z"
         id="path64" />
    </clipPath>
    <clipPath
       clipPathUnits="userSpaceOnUse"
       id="clipPath66">
      <path
         d="M 57.996875,42.54375 H 711.1 V 434.15624 H 57.996875 Z"
         id="path66" />
    </clipPath>
    <clipPath
       clipPathUnits="userSpaceOnUse"
       id="clipPath68">
      <path
         d="M 57.996875,42.54375 H 711.1 V 434.15624 H 57.996875 Z"
         id="path68" />
    </clipPath>
    <clipPath
       clipPathUnits="userSpaceOnUse"
       id="clipPath70">
      <path
         d="M 57.996875,42.54375 H 711.1 V 434.15624 H 57.996875 Z"
         id="path70" />
    </clipPath>
    <clipPath
       clipPathUnits="userSpaceOnUse"
       id="clipPath72">
      <path
         d="M 57.996875,42.54375 H 711.1 V 434.15624 H 57.996875 Z"
         id="path72" />
    </clipPath>
    <clipPath
       clipPathUnits="userSpaceOnUse"
       id="clipPath74">
      <path
         d="M 57.996875,42.54375 H 711.1 V 434.15624 H 57.996875 Z"
         id="path74" />
    </clipPath>
  </defs>
  <g
     id="g1">
    <path
       id="path1"
       d="M 87.683381,42.54375 V 434.15624"
       style="fill:none;stroke:#e6e6e6;stroke-width:1;stroke-linecap:square;stroke-linejoin:round;stroke-miterlimit:10;stroke-dasharray:none;stroke-opacity:1"
       transform="matrix(1.3333333,0,0,-1.3333333,0,591.14166)"
       clip-path="url(#clipPath2)" />
    <path
       id="path3"
       d="m 87.683381,37.54375 v -3.5"
       style="fill:#000000;fill-opacity:1;fill-rule:nonzero;stroke:#000000;stroke-width:0.8;stroke-linecap:butt;stroke-linejoin:round;stroke-miterlimit:10;stroke-dasharray:none;stroke-opacity:1"
       transform="matrix(1.3333333,0,0,-1.3333333,0,591.14166)" />
    <text
       id="text3"
       xml:space="preserve"
       transform="matrix(1.3333333,0,0,1.3333333,112.67159,560.54166)"><tspan
         id="tspan3"
         style="font-variant:normal;font-weight:normal;font-size:10px;font-family:'DejaVu Sans';writing-mode:lr-tb;fill:#000000;fill-opacity:1;fill-rule:nonzero;stroke:none"
         x="0"
         y="0">0</tspan></text>
    <path
       id="path4"
       d="M 167.91718,42.54375 V 434.15624"
       style="fill:none;stroke:#e6e6e6;stroke-width:1;stroke-linecap:square;stroke-linejoin:round;stroke-miterlimit:10;stroke-dasharray:none;stroke-opacity:1"
       transform="matrix(1.3333333,0,0,-1.3333333,0,591.14166)"
       clip-path="url(#clipPath5)" />
    <path
       id="path6"
       d="m 167.91718,37.54375 v -3.5"
       style="fill:#000000;fill-opacity:1;fill-rule:nonzero;stroke:#000000;stroke-width:0.8;stroke-linecap:butt;stroke-linejoin:round;stroke-miterlimit:10;stroke-dasharray:none;stroke-opacity:1"
       transform="matrix(1.3333333,0,0,-1.3333333,0,591.14166)" />
    <text
       id="text6"
       xml:space="preserve"
       transform="matrix(1.3333333,0,0,1.3333333,215.41041,560.54166)"><tspan
         id="tspan6"
         style="font-variant:normal;font-weight:normal;font-size:10px;font-family:'DejaVu Sans';writing-mode:lr-tb;fill:#000000;fill-opacity:1;fill-rule:nonzero;stroke:none"
         x="0"
         y="0">10</tspan></text>
    <path
       id="path7"
       d="M 248.15098,42.54375 V 434.15624"
       style="fill:none;stroke:#e6e6e6;stroke-width:1;stroke-linecap:square;stroke-linejoin:round;stroke-miterlimit:10;stroke-dasharray:none;stroke-opacity:1"
       transform="matrix(1.3333333,0,0,-1.3333333,0,591.14166)"
       clip-path="url(#clipPath8)" />
    <path
       id="path9"
       d="m 248.15098,37.54375 v -3.5"
       style="fill:#000000;fill-opacity:1;fill-rule:nonzero;stroke:#000000;stroke-width:0.8;stroke-linecap:butt;stroke-linejoin:round;stroke-miterlimit:10;stroke-dasharray:none;stroke-opacity:1"
       transform="matrix(1.3333333,0,0,-1.3333333,0,591.14166)" />
    <text
       id="text9"
       xml:space="preserve"
       transform="matrix(1.3333333,0,0,1.3333333,322.38881,560.54166)"><tspan
         id="tspan9"
         style="font-variant:normal;font-weight:normal;font-size:10px;font-family:'DejaVu Sans';writing-mode:lr-tb;fill:#000000;fill-opacity:1;fill-rule:nonzero;stroke:none"
         x="0"
         y="0">20</tspan></text>
    <path
       id="path10"
       d="M 328.38478,42.54375 V 434.15624"
       style="fill:none;stroke:#e6e6e6;stroke-width:1;stroke-linecap:square;stroke-linejoin:round;stroke-miterlimit:10;stroke-dasharray:none;stroke-opacity:1"
       transform="matrix(1.3333333,0,0,-1.3333333,0,591.14166)"
       clip-path="url(#clipPath11)" />
    <path
       id="path12"
       d="m 328.38478,37.54375 v -3.5"
       style="fill:#000000;fill-opacity:1;fill-rule:nonzero;stroke:#000000;stroke-width:0.8;stroke-linecap:butt;stroke-linejoin:round;stroke-miterlimit:10;stroke-dasharray:none;stroke-opacity:1"
       transform="matrix(1.3333333,0,0,-1.3333333,0,591.14166)" />
    <text
       id="text12"
       xml:space="preserve"
       transform="matrix(1.3333333,0,0,1.3333333,429.3672,560.54166)"><tspan
         id="tspan12"
         style="font-variant:normal;font-weight:normal;font-size:10px;font-family:'DejaVu Sans';writing-mode:lr-tb;fill:#000000;fill-opacity:1;fill-rule:nonzero;stroke:none"
         x="0"
         y="0">30</tspan></text>
    <path
       id="path13"
       d="M 408.61858,42.54375 V 434.15624"
       style="fill:none;stroke:#e6e6e6;stroke-width:1;stroke-linecap:square;stroke-linejoin:round;stroke-miterlimit:10;stroke-dasharray:none;stroke-opacity:1"
       transform="matrix(1.3333333,0,0,-1.3333333,0,591.14166)"
       clip-path="url(#clipPath14)" />
    <path
       id="path15"
       d="m 408.61858,37.54375 v -3.5"
       style="fill:#000000;fill-opacity:1;fill-rule:nonzero;stroke:#000000;stroke-width:0.8;stroke-linecap:butt;stroke-linejoin:round;stroke-miterlimit:10;stroke-dasharray:none;stroke-opacity:1"
       transform="matrix(1.3333333,0,0,-1.3333333,0,591.14166)" />
    <text
       id="text15"
       xml:space="preserve"
       transform="matrix(1.3333333,0,0,1.3333333,536.3456,560.54166)"><tspan
         id="tspan15"
         style="font-variant:normal;font-weight:normal;font-size:10px;font-family:'DejaVu Sans';writing-mode:lr-tb;fill:#000000;fill-opacity:1;fill-rule:nonzero;stroke:none"
         x="0"
         y="0">40</tspan></text>
    <path
       id="path16"
       d="M 488.85238,42.54375 V 434.15624"
       style="fill:none;stroke:#e6e6e6;stroke-width:1;stroke-linecap:square;stroke-linejoin:round;stroke-miterlimit:10;stroke-dasharray:none;stroke-opacity:1"
       transform="matrix(1.3333333,0,0,-1.3333333,0,591.14166)"
       clip-path="url(#clipPath17)" />
    <path
       id="path18"
       d="m 488.85238,37.54375 v -3.5"
       style="fill:#000000;fill-opacity:1;fill-rule:nonzero;stroke:#000000;stroke-width:0.8;stroke-linecap:butt;stroke-linejoin:round;stroke-miterlimit:10;stroke-dasharray:none;stroke-opacity:1"
       transform="matrix(1.3333333,0,0,-1.3333333,0,591.14166)" />
    <text
       id="text18"
       xml:space="preserve"
       transform="matrix(1.3333333,0,0,1.3333333,643.324,560.54166)"><tspan
         id="tspan18"
         style="font-variant:normal;font-weight:normal;font-size:10px;font-family:'DejaVu Sans';writing-mode:lr-tb;fill:#000000;fill-opacity:1;fill-rule:nonzero;stroke:none"
         x="0"
         y="0">50</tspan></text>
    <path
       id="path19"
       d="M 569.08618,42.54375 V 434.15624"
       style="fill:none;stroke:#e6e6e6;stroke-width:1;stroke-linecap:square;stroke-linejoin:round;stroke-miterlimit:10;stroke-dasharray:none;stroke-opacity:1"
       transform="matrix(1.3333333,0,0,-1.3333333,0,591.14166)"
       clip-path="url(#clipPath20)" />
    <path
       id="path21"
       d="m 569.08618,37.54375 v -3.5"
       style="fill:#000000;fill-opacity:1;fill-rule:nonzero;stroke:#000000;stroke-width:0.8;stroke-linecap:butt;stroke-linejoin:round;stroke-miterlimit:10;stroke-dasharray:none;stroke-opacity:1"
       transform="matrix(1.3333333,0,0,-1.3333333,0,591.14166)" />
    <text
       id="text21"
       xml:space="preserve"
       transform="matrix(1.3333333,0,0,1.3333333,750.3024,560.54166)"><tspan
         id="tspan21"
         style="font-variant:normal;font-weight:normal;font-size:10px;font-family:'DejaVu Sans';writing-mode:lr-tb;fill:#000000;fill-opacity:1;fill-rule:nonzero;stroke:none"
         x="0"
         y="0">60</tspan></text>
    <path
       id="path22"
       d="M 649.31997,42.54375 V 434.15624"
       style="fill:none;stroke:#e6e6e6;stroke-width:1;stroke-linecap:square;stroke-linejoin:round;stroke-miterlimit:10;stroke-dasharray:none;stroke-opacity:1"
       transform="matrix(1.3333333,0,0,-1.3333333,0,591.14166)"
       clip-path="url(#clipPath23)" />
    <path
       id="path24"
       d="m 649.31997,37.54375 v -3.5"
       style="fill:#000000;fill-opacity:1;fill-rule:nonzero;stroke:#000000;stroke-width:0.8;stroke-linecap:butt;stroke-linejoin:round;stroke-miterlimit:10;stroke-dasharray:none;stroke-opacity:1"
       transform="matrix(1.3333333,0,0,-1.3333333,0,591.14166)" />
    <text
       id="text24"
       xml:space="preserve"
       transform="matrix(1.3333333,0,0,1.3333333,857.2808,560.54166)"><tspan
         id="tspan24"
         style="font-variant:normal;font-weight:normal;font-size:10px;font-family:'DejaVu Sans';writing-mode:lr-tb;fill:#000000;fill-opacity:1;fill-rule:nonzero;stroke:none"
         x="0"
         y="0">70</tspan></text>
    <text
       id="text25"
       xml:space="preserve"
       transform="matrix(1.3333333,0,0,1.3333333,492.41875,578.77082)"><tspan
         id="tspan25"
         style="font-variant:normal;font-weight:normal;font-size:10px;font-family:'DejaVu Sans';writing-mode:lr-tb;fill:#000000;fill-opacity:1;fill-rule:nonzero;stroke:none"
         x="0"
         y="0">epoch</tspan></text>
    <path
       id="path25"
       d="M 57.996875,76.868023 H 711.1"
       style="fill:none;stroke:#e6e6e6;stroke-width:1;stroke-linecap:square;stroke-linejoin:round;stroke-miterlimit:10;stroke-dasharray:none;stroke-opacity:1"
       transform="matrix(1.3333333,0,0,-1.3333333,0,591.14166)"
       clip-path="url(#clipPath26)" />
    <text
       id="text26"
       xml:space="preserve"
       transform="matrix(1.3333333,0,0,1.3333333,27.829167,493.71346)"><tspan
         id="tspan26"
         style="font-variant:normal;font-weight:normal;font-size:10px;font-family:'DejaVu Sans';writing-mode:lr-tb;fill:#000000;fill-opacity:1;fill-rule:nonzero;stroke:none"
         x="0"
         y="0">0.400</tspan></text>
    <path
       id="path27"
       d="M 57.996875,123.38657 H 711.1"
       style="fill:none;stroke:#e6e6e6;stroke-width:1;stroke-linecap:square;stroke-linejoin:round;stroke-miterlimit:10;stroke-dasharray:none;stroke-opacity:1"
       transform="matrix(1.3333333,0,0,-1.3333333,0,591.14166)"
       clip-path="url(#clipPath28)" />
    <text
       id="text28"
       xml:space="preserve"
       transform="matrix(1.3333333,0,0,1.3333333,27.829167,431.68873)"><tspan
         id="tspan28"
         style="font-variant:normal;font-weight:normal;font-size:10px;font-family:'DejaVu Sans';writing-mode:lr-tb;fill:#000000;fill-opacity:1;fill-rule:nonzero;stroke:none"
         x="0"
         y="0">0.425</tspan></text>
    <path
       id="path29"
       d="M 57.996875,169.90511 H 711.1"
       style="fill:none;stroke:#e6e6e6;stroke-width:1;stroke-linecap:square;stroke-linejoin:round;stroke-miterlimit:10;stroke-dasharray:none;stroke-opacity:1"
       transform="matrix(1.3333333,0,0,-1.3333333,0,591.14166)"
       clip-path="url(#clipPath30)" />
    <text
       id="text30"
       xml:space="preserve"
       transform="matrix(1.3333333,0,0,1.3333333,27.829167,369.66401)"><tspan
         id="tspan30"
         style="font-variant:normal;font-weight:normal;font-size:10px;font-family:'DejaVu Sans';writing-mode:lr-tb;fill:#000000;fill-opacity:1;fill-rule:nonzero;stroke:none"
         x="0"
         y="0">0.450</tspan></text>
    <path
       id="path31"
       d="M 57.996875,216.42366 H 711.1"
       style="fill:none;stroke:#e6e6e6;stroke-width:1;stroke-linecap:square;stroke-linejoin:round;stroke-miterlimit:10;stroke-dasharray:none;stroke-opacity:1"
       transform="matrix(1.3333333,0,0,-1.3333333,0,591.14166)"
       clip-path="url(#clipPath32)" />
    <text
       id="text32"
       xml:space="preserve"
       transform="matrix(1.3333333,0,0,1.3333333,27.829167,307.63928)"><tspan
         id="tspan32"
         style="font-variant:normal;font-weight:normal;font-size:10px;font-family:'DejaVu Sans';writing-mode:lr-tb;fill:#000000;fill-opacity:1;fill-rule:nonzero;stroke:none"
         x="0"
         y="0">0.475</tspan></text>
    <path
       id="path33"
       d="M 57.996875,262.9422 H 711.1"
       style="fill:none;stroke:#e6e6e6;stroke-width:1;stroke-linecap:square;stroke-linejoin:round;stroke-miterlimit:10;stroke-dasharray:none;stroke-opacity:1"
       transform="matrix(1.3333333,0,0,-1.3333333,0,591.14166)"
       clip-path="url(#clipPath34)" />
    <text
       id="text34"
       xml:space="preserve"
       transform="matrix(1.3333333,0,0,1.3333333,27.829167,245.61456)"><tspan
         id="tspan34"
         style="font-variant:normal;font-weight:normal;font-size:10px;font-family:'DejaVu Sans';writing-mode:lr-tb;fill:#000000;fill-opacity:1;fill-rule:nonzero;stroke:none"
         x="0"
         y="0">0.500</tspan></text>
    <path
       id="path35"
       d="M 57.996875,309.46074 H 711.1"
       style="fill:none;stroke:#e6e6e6;stroke-width:1;stroke-linecap:square;stroke-linejoin:round;stroke-miterlimit:10;stroke-dasharray:none;stroke-opacity:1"
       transform="matrix(1.3333333,0,0,-1.3333333,0,591.14166)"
       clip-path="url(#clipPath36)" />
    <text
       id="text36"
       xml:space="preserve"
       transform="matrix(1.3333333,0,0,1.3333333,27.829167,183.58983)"><tspan
         id="tspan36"
         style="font-variant:normal;font-weight:normal;font-size:10px;font-family:'DejaVu Sans';writing-mode:lr-tb;fill:#000000;fill-opacity:1;fill-rule:nonzero;stroke:none"
         x="0"
         y="0">0.525</tspan></text>
    <path
       id="path37"
       d="M 57.996875,355.97929 H 711.1"
       style="fill:none;stroke:#e6e6e6;stroke-width:1;stroke-linecap:square;stroke-linejoin:round;stroke-miterlimit:10;stroke-dasharray:none;stroke-opacity:1"
       transform="matrix(1.3333333,0,0,-1.3333333,0,591.14166)"
       clip-path="url(#clipPath38)" />
    <text
       id="text38"
       xml:space="preserve"
       transform="matrix(1.3333333,0,0,1.3333333,27.829167,121.56511)"><tspan
         id="tspan38"
         style="font-variant:normal;font-weight:normal;font-size:10px;font-family:'DejaVu Sans';writing-mode:lr-tb;fill:#000000;fill-opacity:1;fill-rule:nonzero;stroke:none"
         x="0"
         y="0">0.550</tspan></text>
    <path
       id="path39"
       d="M 57.996875,402.49783 H 711.1"
       style="fill:none;stroke:#e6e6e6;stroke-width:1;stroke-linecap:square;stroke-linejoin:round;stroke-miterlimit:10;stroke-dasharray:none;stroke-opacity:1"
       transform="matrix(1.3333333,0,0,-1.3333333,0,591.14166)"
       clip-path="url(#clipPath40)" />
    <text
       id="text40"
       xml:space="preserve"
       transform="matrix(1.3333333,0,0,1.3333333,27.829167,59.54038)"><tspan
         id="tspan40"
         style="font-variant:normal;font-weight:normal;font-size:10px;font-family:'DejaVu Sans';writing-mode:lr-tb;fill:#000000;fill-opacity:1;fill-rule:nonzero;stroke:none"
         x="0"
         y="0">0.575</tspan></text>
    <text
       id="text41"
       xml:space="preserve"
       transform="matrix(0,-1.3333333,1.3333333,0,19.725,286.23749)"><tspan
         id="tspan41"
         style="font-variant:normal;font-weight:normal;font-size:10px;font-family:'DejaVu Sans';writing-mode:lr-tb;fill:#000000;fill-opacity:1;fill-rule:nonzero;stroke:none"
         x="0"
         y="0">loss</tspan></text>
    <path
       id="path41"
       d="M 328.38478,-1 V 291.64245"
       style="fill:none;stroke:#1f77b4;stroke-width:1.5;stroke-linecap:butt;stroke-linejoin:round;stroke-miterlimit:10;stroke-dasharray:1.5, 2.475;stroke-dashoffset:0;stroke-opacity:1"
       transform="matrix(1.3333333,0,0,-1.3333333,0,591.14166)"
       clip-path="url(#clipPath42)" />
    <path
       id="path43"
       d="M 432.68872,-1 V 281.74035"
       style="fill:none;stroke:#1f77b4;stroke-width:1.5;stroke-linecap:butt;stroke-linejoin:round;stroke-miterlimit:10;stroke-dasharray:1.5, 2.475;stroke-dashoffset:0;stroke-opacity:1"
       transform="matrix(1.3333333,0,0,-1.3333333,0,591.14166)"
       clip-path="url(#clipPath44)" />
    <path
       id="path45"
       d="M 488.85238,-1 V 288.56929"
       style="fill:none;stroke:#1f77b4;stroke-width:1.5;stroke-linecap:butt;stroke-linejoin:round;stroke-miterlimit:10;stroke-dasharray:1.5, 2.475;stroke-dashoffset:0;stroke-opacity:1"
       transform="matrix(1.3333333,0,0,-1.3333333,0,591.14166)"
       clip-path="url(#clipPath46)" />
    <path
       id="path47"
       d="M 528.96928,-1 V 279.84483"
       style="fill:none;stroke:#1f77b4;stroke-width:1.5;stroke-linecap:butt;stroke-linejoin:round;stroke-miterlimit:10;stroke-dasharray:1.5, 2.475;stroke-dashoffset:0;stroke-opacity:1"
       transform="matrix(1.3333333,0,0,-1.3333333,0,591.14166)"
       clip-path="url(#clipPath48)" />
    <path
       id="path49"
       d="M 649.31997,-1 V 279.41905"
       style="fill:none;stroke:#1f77b4;stroke-width:1.5;stroke-linecap:butt;stroke-linejoin:round;stroke-miterlimit:10;stroke-dasharray:1.5, 2.475;stroke-dashoffset:0;stroke-opacity:1"
       transform="matrix(1.3333333,0,0,-1.3333333,0,591.14166)"
       clip-path="url(#clipPath50)" />
    <path
       id="path51"
       d="M 328.38478,-1 V 289.46262"
       style="fill:none;stroke:#ff7f0e;stroke-width:1.5;stroke-linecap:butt;stroke-linejoin:round;stroke-miterlimit:10;stroke-dasharray:1.5, 2.475;stroke-dashoffset:0;stroke-opacity:1"
       transform="matrix(1.3333333,0,0,-1.3333333,0,591.14166)"
       clip-path="url(#clipPath52)" />
    <path
       id="path53"
       d="M 432.68872,-1 V 288.68551"
       style="fill:none;stroke:#ff7f0e;stroke-width:1.5;stroke-linecap:butt;stroke-linejoin:round;stroke-miterlimit:10;stroke-dasharray:1.5, 2.475;stroke-dashoffset:0;stroke-opacity:1"
       transform="matrix(1.3333333,0,0,-1.3333333,0,591.14166)"
       clip-path="url(#clipPath54)" />
    <path
       id="path55"
       d="M 296.29126,-1 V 328.90399"
       style="fill:none;stroke:#2ca02c;stroke-width:1.5;stroke-linecap:butt;stroke-linejoin:round;stroke-miterlimit:10;stroke-dasharray:1.5, 2.475;stroke-dashoffset:0;stroke-opacity:1"
       transform="matrix(1.3333333,0,0,-1.3333333,0,591.14166)"
       clip-path="url(#clipPath56)" />
    <path
       id="path57"
       d="M 328.38478,-1 V 295.17923"
       style="fill:none;stroke:#2ca02c;stroke-width:1.5;stroke-linecap:butt;stroke-linejoin:round;stroke-miterlimit:10;stroke-dasharray:1.5, 2.475;stroke-dashoffset:0;stroke-opacity:1"
       transform="matrix(1.3333333,0,0,-1.3333333,0,591.14166)"
       clip-path="url(#clipPath58)" />
    <path
       id="path59"
       d="M 488.85238,-1 V 290.81796"
       style="fill:none;stroke:#2ca02c;stroke-width:1.5;stroke-linecap:butt;stroke-linejoin:round;stroke-miterlimit:10;stroke-dasharray:1.5, 2.475;stroke-dashoffset:0;stroke-opacity:1"
       transform="matrix(1.3333333,0,0,-1.3333333,0,591.14166)"
       clip-path="url(#clipPath60)" />
    <path
       id="path61"
       d="M 496.87576,-1 V 294.5751"
       style="fill:none;stroke:#2ca02c;stroke-width:1.5;stroke-linecap:butt;stroke-linejoin:round;stroke-miterlimit:10;stroke-dasharray:1.5, 2.475;stroke-dashoffset:0;stroke-opacity:1"
       transform="matrix(1.3333333,0,0,-1.3333333,0,591.14166)"
       clip-path="url(#clipPath62)" />
    <path
       id="path63"
       d="m 87.683381,337.4233 8.02338,-136.06261 8.023379,-28.31323 8.02338,-12.68835 8.02338,-10.79182 8.02338,17.05893 8.02338,-18.97175 8.02338,2.27584 8.02338,-9.19788 8.02338,-3.64307 8.02338,-5.53401 8.02338,-0.23367 8.02338,1.6745 8.02338,-4.7825 8.02338,-1.78982 8.02338,-6.29587 8.02338,11.24007 8.02338,-11.05804 8.02338,-5.93489 8.02338,4.67207 8.02338,-8.65278 8.02338,4.86329 8.02338,-5.83462 8.02338,-1.63559 8.02338,3.28548 8.02338,6.29363 8.02338,-9.3765 8.02338,3.34163 8.02338,-4.58974 8.02338,1.53525 8.02338,1.18715 8.02338,4.14378 8.02338,-2.21127 8.02338,-2.08457 8.02338,-15.053269 8.02338,11.775199 8.02338,-9.892776 8.02338,8.780886 8.02338,-7.574991 8.02338,10.702991 8.02338,-5.81646 8.02338,1.13313 8.02338,-10.263717 8.02338,5.855523 8.02338,-5.885123 8.02338,9.791247 8.02338,-5.466765 8.02338,0.07673 8.02338,2.495636 8.02338,-6.329848 8.02338,-1.855585 8.02338,-5.341728 8.02338,5.002109 8.02338,0.03338 8.02338,-5.080219 8.02338,-8.880951 8.02338,9.650503 8.02338,10.908671 8.02338,-13.883636 8.02338,-4.21666 8.02338,7.528271 8.02337,-6.442389 8.02338,3.374402 8.02338,-7.3549 8.02339,12.573242 8.02338,5.946583 8.02337,-9.639733 8.02339,-5.480738 8.02338,-0.153808 8.02338,-1.139829 8.02337,-6.830419 8.02338,-6.990093 8.02338,19.338576 8.02338,-24.361464 8.02338,5.937586"
       style="fill:none;stroke:#1f77b4;stroke-width:1.5;stroke-linecap:square;stroke-linejoin:round;stroke-miterlimit:10;stroke-dasharray:none;stroke-opacity:1"
       transform="matrix(1.3333333,0,0,-1.3333333,0,591.14166)"
       clip-path="url(#clipPath64)" />
    <path
       id="path65"
       d="m 87.683381,396.85667 8.02338,-43.46747 8.023379,7.49436 8.02338,-6.98708 8.02338,-8.00168 8.02338,-17.7119 8.02338,-10.38708 8.02338,0.68425 8.02338,-14.13765 8.02338,-3.94069 8.02338,-5.43122 8.02338,45.91382 8.02338,-5.54055 8.02338,-12.68692 8.02338,9.00534 8.02338,-27.45777 8.02338,12.48726 8.02338,-26.96722 8.02338,20.07271 8.02338,-15.10768 8.02338,29.57138 8.02338,-19.32214 8.02338,7.69253 8.02338,-24.76333 8.02338,26.11441 8.02338,2.17135 8.02338,12.37298 8.02338,-30.57766 8.02338,30.26439 8.02338,-31.26453 8.02338,-5.30643 8.02338,55.35663 8.02338,-25.65611 8.02338,-22.26018 8.02338,43.40573 8.02338,-57.56911 8.02338,5.12922 8.02338,-1.94696 8.02338,29.64942 8.02338,-22.30604 8.02338,-3.66142 8.02338,1.46286 8.02338,28.45989 8.02338,-39.96603 8.02338,43.68018 8.02338,-24.04575 8.02338,22.69667 8.02338,10.0918 8.02338,-41.62211 8.02338,8.08812 8.02338,-12.05997 8.02338,4.3065 8.02338,43.64951 8.02338,-28.64987 8.02338,-28.28676 8.02338,0.25616 8.02338,32.65795 8.02338,-6.55905 8.02338,-10.77982 8.02338,7.8757 8.02338,-9.29186 8.02337,15.13192 8.02338,3.67364 8.02338,-25.71067 8.02339,29.0851 8.02338,-31.61977 8.02337,8.02221 8.02339,-14.87858 8.02338,23.48675 8.02338,12.05241 8.02337,-33.57171 8.02338,14.32356 8.02338,3.27235 8.02338,-25.73427 8.02338,-3.72609"
       style="fill:none;stroke:#1f77b4;stroke-width:1.5;stroke-linecap:butt;stroke-linejoin:round;stroke-miterlimit:10;stroke-dasharray:9.6, 2.4, 1.5, 2.4;stroke-dashoffset:0;stroke-opacity:1"
       transform="matrix(1.3333333,0,0,-1.3333333,0,591.14166)"
       clip-path="url(#clipPath66)" />
    <path
       id="path67"
       d="m 87.683381,367.26384 8.02338,-145.30164 8.023379,-30.50711 8.02338,-11.15882 8.02338,-9.83486 8.02338,14.64844 8.02338,-20.51656 8.02338,2.31811 8.02338,-9.10419 8.02338,-7.23541 8.02338,-3.23193 8.02338,1.32119 8.02338,1.48115 8.02338,-5.51408 8.02338,-6.072 8.02338,-1.36875 8.02338,8.07514 8.02338,-10.19394 8.02338,-5.07472 8.02338,1.56635 8.02338,-7.26008 8.02338,6.31201 8.02338,-6.16609 8.02338,-2.98813 8.02338,4.26164 8.02338,1.89203 8.02338,-3.99179 8.02338,5.75084 8.02338,-5.42876 8.02338,1.61049 8.02338,-0.97221 8.02338,4.43572 8.02338,-3.86055 8.02338,-2.05919 8.02338,-8.01537 8.02338,13.2208 8.02338,-16.88551 8.02338,5.62909 8.02338,1.30391 8.02338,11.45218 8.02338,-10.89191 8.02338,0.0542 8.02338,-8.64173 8.02338,5.28021 8.02338,-6.42308 8.02338,6.449 8.02338,-3.36705 8.02338,-1.10839 8.02338,-0.36585 8.02338,0.4965 8.02338,-7.12029"
       style="fill:none;stroke:#ff7f0e;stroke-width:1.5;stroke-linecap:square;stroke-linejoin:round;stroke-miterlimit:10;stroke-dasharray:none;stroke-opacity:1"
       transform="matrix(1.3333333,0,0,-1.3333333,0,591.14166)"
       clip-path="url(#clipPath68)" />
    <path
       id="path69"
       d="m 87.683381,416.35567 8.02338,-47.63502 8.023379,8.54436 8.02338,-15.01688 8.02338,-4.64685 8.02338,-13.4145 8.02338,-17.77705 8.02338,2.9573 8.02338,-4.79919 8.02338,-9.7005 8.02338,-4.28997 8.02338,36.88986 8.02338,-15.7544 8.02338,-6.68707 8.02338,17.77679 8.02338,-31.32581 8.02338,12.1694 8.02338,-25.25621 8.02338,21.86263 8.02338,-16.1002 8.02338,31.99936 8.02338,-24.32306 8.02338,13.19134 8.02338,-20.598 8.02338,16.22578 8.02338,5.93432 8.02338,7.02324 8.02338,-26.41899 8.02338,25.48466 8.02338,-30.96832 8.02338,-12.24007 8.02338,55.94865 8.02338,-21.66113 8.02338,-20.37544 8.02338,37.79183 8.02338,-45.64452 8.02338,2.06918 8.02338,0.69423 8.02338,22.41921 8.02338,-13.37666 8.02338,-5.17279 8.02338,1.0812 8.02338,26.47114 8.02338,-41.02201 8.02338,40.53979 8.02338,-27.0959 8.02338,30.08291 8.02338,10.23182 8.02338,-39.99779 8.02338,0.8405 8.02338,-12.45237"
       style="fill:none;stroke:#ff7f0e;stroke-width:1.5;stroke-linecap:butt;stroke-linejoin:round;stroke-miterlimit:10;stroke-dasharray:9.6, 2.4, 1.5, 2.4;stroke-dashoffset:0;stroke-opacity:1"
       transform="matrix(1.3333333,0,0,-1.3333333,0,591.14166)"
       clip-path="url(#clipPath70)" />
    <path
       id="path71"
       d="m 87.683381,372.2707 8.02338,-156.76404 8.023379,-31.54434 8.02338,-13.94526 8.02338,-11.43129 8.02338,14.70951 8.02338,-17.92097 8.02338,-2.74318 8.02338,-4.06745 8.02338,-6.86164 8.02338,-5.21931 8.02338,-0.7846 8.02338,4.92573 8.02338,-7.83673 8.02338,-4.412 8.02338,0.13055 8.02338,0.56885 8.02338,-3.35591 8.02338,-6.63283 8.02338,6.17454 8.02338,-7.58278 8.02338,2.50235 8.02338,-3.4856 8.02338,-3.77608 8.02338,2.7298 8.02338,1.01488 8.02338,-0.63602 8.02338,-0.46545 8.02338,-4.13977 8.02338,3.8053 8.02338,-3.12313 8.02338,3.84149 8.02338,-6.50943 8.02338,0.80242 8.02338,-6.4853 8.02338,8.11391 8.02338,-10.4173 8.02338,3.21378 8.02338,-3.34871 8.02338,20.96331 8.02338,-13.96873 8.02338,-1.66631 8.02338,-6.926225 8.02338,1.406805 8.02338,-5.339609 8.02338,6.128099 8.02338,-6.123407 8.02338,2.655615 8.02338,-4.555037 8.02338,4.462967 8.02338,-8.452627 8.02338,4.894791 8.02338,3.785389 8.02338,-2.068185 8.02338,-0.879418 8.02338,-12.98906"
       style="fill:none;stroke:#2ca02c;stroke-width:1.5;stroke-linecap:square;stroke-linejoin:round;stroke-miterlimit:10;stroke-dasharray:none;stroke-opacity:1"
       transform="matrix(1.3333333,0,0,-1.3333333,0,591.14166)"
       clip-path="url(#clipPath72)" />
    <path
       id="path73"
       d="m 87.683381,408.5189 8.02338,-40.66258 8.023379,-0.93597 8.02338,-13.39323 8.02338,-0.083 8.02338,-16.17807 8.02338,-15.5056 8.02338,0.43509 8.02338,-3.87423 8.02338,-8.13225 8.02338,-4.86044 8.02338,27.895 8.02338,-5.47544 8.02338,-4.42369 8.02338,10.27211 8.02338,-24.76404 8.02338,9.64169 8.02338,-16.27312 8.02338,8.04523 8.02338,-6.20434 8.02338,16.00219 8.02338,-14.73432 8.02338,6.86362 8.02338,-10.46879 8.02338,14.00862 8.02338,5.32556 8.02338,7.86512 8.02338,-27.35104 8.02338,14.00135 8.02338,-14.68387 8.02338,-5.6912 8.02338,31.675 8.02338,-13.39758 8.02338,-17.15617 8.02338,30.10525 8.02338,-40.82059 8.02338,5.86726 8.02338,-1.23235 8.02338,32.84659 8.02338,-15.93218 8.02338,-10.82109 8.02338,-8.62738 8.02338,26.11033 8.02338,-28.16369 8.02338,33.65973 8.02338,-19.2171 8.02338,8.64285 8.02338,16.76914 8.02338,-27.98573 8.02338,0.68847 8.02338,-7.37203 8.02338,3.75714 8.02338,45.80444 8.02338,-27.48773 8.02338,-28.78029 8.02338,4.82898"
       style="fill:none;stroke:#2ca02c;stroke-width:1.5;stroke-linecap:butt;stroke-linejoin:round;stroke-miterlimit:10;stroke-dasharray:9.6, 2.4, 1.5, 2.4;stroke-dashoffset:0;stroke-opacity:1"
       transform="matrix(1.3333333,0,0,-1.3333333,0,591.14166)"
       clip-path="url(#clipPath74)" />
    <path
       id="path75"
       d="M 526.85,338.12499 H 704.1 c 1.33333,0 2,0.66667 2,2 v 87.03125 c 0,1.33334 -0.66667,2 -2,2 H 526.85 c -1.33333,0 -2,-0.66666 -2,-2 v -87.03125 c 0,-1.33333 0.66667,-2 2,-2 z"
       style="fill:#ffffff;fill-opacity:0.8;fill-rule:nonzero;stroke:#cccccc;stroke-width:1;stroke-linecap:butt;stroke-linejoin:miter;stroke-miterlimit:10;stroke-dasharray:none;stroke-opacity:0.8"
       transform="matrix(1.3333333,0,0,-1.3333333,0,591.14166)" />
    <path
       id="path76"
       d="m 528.85,421.06249 h 20"
       style="fill:none;stroke:#1f77b4;stroke-width:1.5;stroke-linecap:square;stroke-linejoin:round;stroke-miterlimit:10;stroke-dasharray:none;stroke-opacity:1"
       transform="matrix(1.3333333,0,0,-1.3333333,0,591.14166)" />
    <text
       id="text76"
       xml:space="preserve"
       transform="matrix(1.3333333,0,0,1.3333333,742.46667,34.391667)"><tspan
         id="tspan76"
         style="font-variant:normal;font-weight:normal;font-size:10px;font-family:'DejaVu Sans';writing-mode:lr-tb;fill:#000000;fill-opacity:1;fill-rule:nonzero;stroke:none"
         x="0"
         y="0">DES mean train loss</tspan></text>
    <path
       id="path77"
       d="m 528.85,406.39062 h 20"
       style="fill:none;stroke:#1f77b4;stroke-width:1.5;stroke-linecap:butt;stroke-linejoin:round;stroke-miterlimit:10;stroke-dasharray:9.6, 2.4, 1.5, 2.4;stroke-dashoffset:0;stroke-opacity:1"
       transform="matrix(1.3333333,0,0,-1.3333333,0,591.14166)" />
    <text
       id="text77"
       xml:space="preserve"
       transform="matrix(1.3333333,0,0,1.3333333,742.46667,53.954167)"><tspan
         id="tspan77"
         style="font-variant:normal;font-weight:normal;font-size:10px;font-family:'DejaVu Sans';writing-mode:lr-tb;fill:#000000;fill-opacity:1;fill-rule:nonzero;stroke:none"
         x="0"
         y="0">DES mean validation loss</tspan></text>
    <path
       id="path78"
       d="m 528.85,391.71874 h 20"
       style="fill:none;stroke:#ff7f0e;stroke-width:1.5;stroke-linecap:square;stroke-linejoin:round;stroke-miterlimit:10;stroke-dasharray:none;stroke-opacity:1"
       transform="matrix(1.3333333,0,0,-1.3333333,0,591.14166)" />
    <text
       id="text78"
       xml:space="preserve"
       transform="matrix(1.3333333,0,0,1.3333333,742.46667,73.516667)"><tspan
         id="tspan78"
         style="font-variant:normal;font-weight:normal;font-size:10px;font-family:'DejaVu Sans';writing-mode:lr-tb;fill:#000000;fill-opacity:1;fill-rule:nonzero;stroke:none"
         x="0"
         y="0">CMA-ES mean train loss</tspan></text>
    <path
       id="path79"
       d="m 528.85,377.04687 h 20"
       style="fill:none;stroke:#ff7f0e;stroke-width:1.5;stroke-linecap:butt;stroke-linejoin:round;stroke-miterlimit:10;stroke-dasharray:9.6, 2.4, 1.5, 2.4;stroke-dashoffset:0;stroke-opacity:1"
       transform="matrix(1.3333333,0,0,-1.3333333,0,591.14166)" />
    <text
       id="text79"
       xml:space="preserve"
       transform="matrix(1.3333333,0,0,1.3333333,742.46667,93.079167)"><tspan
         id="tspan79"
         style="font-variant:normal;font-weight:normal;font-size:10px;font-family:'DejaVu Sans';writing-mode:lr-tb;fill:#000000;fill-opacity:1;fill-rule:nonzero;stroke:none"
         x="0"
         y="0">CMA-ES mean validation loss</tspan></text>
    <path
       id="path80"
       d="m 528.85,362.37499 h 20"
       style="fill:none;stroke:#2ca02c;stroke-width:1.5;stroke-linecap:square;stroke-linejoin:round;stroke-miterlimit:10;stroke-dasharray:none;stroke-opacity:1"
       transform="matrix(1.3333333,0,0,-1.3333333,0,591.14166)" />
    <text
       id="text80"
       xml:space="preserve"
       transform="matrix(1.3333333,0,0,1.3333333,742.46667,112.64167)"><tspan
         id="tspan80"
         style="font-variant:normal;font-weight:normal;font-size:10px;font-family:'DejaVu Sans';writing-mode:lr-tb;fill:#000000;fill-opacity:1;fill-rule:nonzero;stroke:none"
         x="0"
         y="0">jSO mean train loss</tspan></text>
    <path
       id="path81"
       d="m 528.85,347.70312 h 20"
       style="fill:none;stroke:#2ca02c;stroke-width:1.5;stroke-linecap:butt;stroke-linejoin:round;stroke-miterlimit:10;stroke-dasharray:9.6, 2.4, 1.5, 2.4;stroke-dashoffset:0;stroke-opacity:1"
       transform="matrix(1.3333333,0,0,-1.3333333,0,591.14166)" />
    <text
       id="text81"
       xml:space="preserve"
       transform="matrix(1.3333333,0,0,1.3333333,742.46667,132.20417)"><tspan
         id="tspan81"
         style="font-variant:normal;font-weight:normal;font-size:10px;font-family:'DejaVu Sans';writing-mode:lr-tb;fill:#000000;fill-opacity:1;fill-rule:nonzero;stroke:none"
         x="0"
         y="0">jSO mean validation loss</tspan></text>
  </g>
</svg>
