<svg xmlns="http://www.w3.org/2000/svg" width="962.4" height="591.142" viewBox="0 0 962.4 591.142"><defs><clipPath id="a" clipPathUnits="userSpaceOnUse"><path d="M44.325 28.872H711.1v405.284H44.325Z"/></clipPath><clipPath id="b" clipPathUnits="userSpaceOnUse"><path d="M44.325 28.872H711.1v405.284H44.325Z"/></clipPath><clipPath id="c" clipPathUnits="userSpaceOnUse"><path d="M44.325 28.872H711.1v405.284H44.325Z"/></clipPath><clipPath id="d" clipPathUnits="userSpaceOnUse"><path d="M44.325 28.872H711.1v405.284H44.325Z"/></clipPath><clipPath id="e" clipPathUnits="userSpaceOnUse"><path d="M44.325 28.872H711.1v405.284H44.325Z"/></clipPath><clipPath id="f" clipPathUnits="userSpaceOnUse"><path d="M44.325 28.872H711.1v405.284H44.325Z"/></clipPath><clipPath id="g" clipPathUnits="userSpaceOnUse"><path d="M44.325 28.872H711.1v405.284H44.325Z"/></clipPath><clipPath id="h" clipPathUnits="userSpaceOnUse"><path d="M44.325 28.872H711.1v405.284H44.325Z"/></clipPath><clipPath id="i" clipPathUnits="userSpaceOnUse"><path d="M44.325 28.872H711.1v405.284H44.325Z"/></clipPath><clipPath id="j" clipPathUnits="userSpaceOnUse"><path d="M44.325 28.872H711.1v405.284H44.325Z"/></clipPath><clipPath id="k" clipPathUnits="userSpaceOnUse"><path d="M44.325 28.872H711.1v405.284H44.325Z"/></clipPath><clipPath id="l" clipPathUnits="userSpaceOnUse"><path d="M44.325 28.872H711.1v405.284H44.325Z"/></clipPath><clipPath id="m" clipPathUnits="userSpaceOnUse"><path d="M44.325 28.872H711.1v405.284H44.325Z"/></clipPath><clipPath id="n" clipPathUnits="userSpaceOnUse"><path d="M44.325 28.872H711.1v405.284H44.325Z"/></clipPath><clipPath id="o" clipPathUnits="userSpaceOnUse"><path d="M44.325 28.872H711.1v405.284H44.325Z"/></clipPath><clipPath id="p" clipPathUnits="userSpaceOnUse"><path d="M44.325 28.872H711.1v405.284H44.325Z"/></clipPath><clipPath id="q" clipPathUnits="userSpaceOnUse"><path d="M44.325 28.872H711.1v405.284H44.325Z"/></clipPath><clipPath id="r" clipPathUnits="userSpaceOnUse"><path d="M44.325 28.872H711.1v405.284H44.325Z"/></clipPath><clipPath id="s" clipPathUnits="userSpaceOnUse"><path d="M44.325 28.872H711.1v405.284H44.325Z"/></clipPath><clipPath id="t" clipPathUnits="userSpaceOnUse"><path d="M44.325 28.872H711.1v405.284H44.325Z"/></clipPath><clipPath id="v" clipPathUnits="userSpaceOnUse"><path d="M-3.5-3.5h7v7h-7z"/></clipPath><clipPath id="u" clipPathUnits="userSpaceOnUse"><path d="M59.1 552.646h889.033V12.266H59.1Z"/></clipPath><clipPath id="x" clipPathUnits="userSpaceOnUse"><path d="M-3.5-3.5h7v7h-7z"/></clipPath><clipPath id="w" clipPathUnits="userSpaceOnUse"><path d="M59.1 552.646h889.033V12.266H59.1Z"/></clipPath><clipPath id="z" clipPathUnits="userSpaceOnUse"><path d="M-3.5-3.5h7v7h-7z"/></clipPath><clipPath id="y" clipPathUnits="userSpaceOnUse"><path d="M59.1 552.646h889.033V12.266H59.1Z"/></clipPath><clipPath id="B" clipPathUnits="userSpaceOnUse"><path d="M-3.5-3.5h7v7h-7z"/></clipPath><clipPath id="A" clipPathUnits="userSpaceOnUse"><path d="M59.1 552.646h889.033V12.266H59.1Z"/></clipPath><clipPath id="D" clipPathUnits="userSpaceOnUse"><path d="M-3.5-3.5h7v7h-7z"/></clipPath><clipPath id="C" clipPathUnits="userSpaceOnUse"><path d="M59.1 552.646h889.033V12.266H59.1Z"/></clipPath><clipPath id="F" clipPathUnits="userSpaceOnUse"><path d="M-3.5-3.5h7v7h-7z"/></clipPath><clipPath id="E" clipPathUnits="userSpaceOnUse"><path d="M59.1 552.646h889.033V12.266H59.1Z"/></clipPath><clipPath id="H" clipPathUnits="userSpaceOnUse"><path d="M-3.5-3.5h7v7h-7z"/></clipPath><clipPath id="G" clipPathUnits="userSpaceOnUse"><path d="M59.1 552.646h889.033V12.266H59.1Z"/></clipPath><clipPath id="J" clipPathUnits="userSpaceOnUse"><path d="M-3.5-3.5h7v7h-7z"/></clipPath><clipPath id="I" clipPathUnits="userSpaceOnUse"><path d="M59.1 552.646h889.033V12.266H59.1Z"/></clipPath><clipPath id="L" clipPathUnits="userSpaceOnUse"><path d="M-3.5-3.5h7v7h-7z"/></clipPath><clipPath id="K" clipPathUnits="userSpaceOnUse"><path d="M59.1 552.646h889.033V12.266H59.1Z"/></clipPath><clipPath id="N" clipPathUnits="userSpaceOnUse"><path d="M-3.5-3.5h7v7h-7z"/></clipPath><clipPath id="M" clipPathUnits="userSpaceOnUse"><path d="M59.1 552.646h889.033V12.266H59.1Z"/></clipPath><clipPath id="P" clipPathUnits="userSpaceOnUse"><path d="M-3.5-3.5h7v7h-7z"/></clipPath><clipPath id="O" clipPathUnits="userSpaceOnUse"><path d="M59.1 552.646h889.033V12.266H59.1Z"/></clipPath><clipPath id="R" clipPathUnits="userSpaceOnUse"><path d="M-3.5-3.5h7v7h-7z"/></clipPath><clipPath id="Q" clipPathUnits="userSpaceOnUse"><path d="M59.1 552.646h889.033V12.266H59.1Z"/></clipPath><clipPath id="T" clipPathUnits="userSpaceOnUse"><path d="M-3.5-3.5h7v7h-7z"/></clipPath><clipPath id="S" clipPathUnits="userSpaceOnUse"><path d="M59.1 552.646h889.033V12.266H59.1Z"/></clipPath><clipPath id="V" clipPathUnits="userSpaceOnUse"><path d="M-3.5-3.5h7v7h-7z"/></clipPath><clipPath id="U" clipPathUnits="userSpaceOnUse"><path d="M59.1 552.646h889.033V12.266H59.1Z"/></clipPath><clipPath id="X" clipPathUnits="userSpaceOnUse"><path d="M-3.5-3.5h7v7h-7z"/></clipPath><clipPath id="W" clipPathUnits="userSpaceOnUse"><path d="M59.1 552.646h889.033V12.266H59.1Z"/></clipPath><clipPath id="Z" clipPathUnits="userSpaceOnUse"><path d="M-3.5-3.5h7v7h-7z"/></clipPath><clipPath id="Y" clipPathUnits="userSpaceOnUse"><path d="M59.1 552.646h889.033V12.266H59.1Z"/></clipPath><clipPath id="ab" clipPathUnits="userSpaceOnUse"><path d="M-3.5-3.5h7v7h-7z"/></clipPath><clipPath id="aa" clipPathUnits="userSpaceOnUse"><path d="M59.1 552.646h889.033V12.266H59.1Z"/></clipPath><clipPath id="ad" clipPathUnits="userSpaceOnUse"><path d="M-3.5-3.5h7v7h-7z"/></clipPath><clipPath id="ac" clipPathUnits="userSpaceOnUse"><path d="M59.1 552.646h889.033V12.266H59.1Z"/></clipPath><clipPath id="af" clipPathUnits="userSpaceOnUse"><path d="M-3.5-3.5h7v7h-7z"/></clipPath><clipPath id="ae" clipPathUnits="userSpaceOnUse"><path d="M59.1 552.646h889.033V12.266H59.1Z"/></clipPath><clipPath id="ah" clipPathUnits="userSpaceOnUse"><path d="M-3.5-3.5h7v7h-7z"/></clipPath><clipPath id="ag" clipPathUnits="userSpaceOnUse"><path d="M59.1 552.646h889.033V12.266H59.1Z"/></clipPath><clipPath id="aj" clipPathUnits="userSpaceOnUse"><path d="M-3.5-3.5h7v7h-7z"/></clipPath><clipPath id="ai" clipPathUnits="userSpaceOnUse"><path d="M59.1 552.646h889.033V12.266H59.1Z"/></clipPath><clipPath id="al" clipPathUnits="userSpaceOnUse"><path d="M-3.5-3.5h7v7h-7z"/></clipPath><clipPath id="ak" clipPathUnits="userSpaceOnUse"><path d="M59.1 552.646h889.033V12.266H59.1Z"/></clipPath><clipPath id="an" clipPathUnits="userSpaceOnUse"><path d="M-3.5-3.5h7v7h-7z"/></clipPath><clipPath id="am" clipPathUnits="userSpaceOnUse"><path d="M59.1 552.646h889.033V12.266H59.1Z"/></clipPath><clipPath id="ap" clipPathUnits="userSpaceOnUse"><path d="M-3.5-3.5h7v7h-7z"/></clipPath><clipPath id="ao" clipPathUnits="userSpaceOnUse"><path d="M59.1 552.646h889.033V12.266H59.1Z"/></clipPath><clipPath id="ar" clipPathUnits="userSpaceOnUse"><path d="M-3.5-3.5h7v7h-7z"/></clipPath><clipPath id="aq" clipPathUnits="userSpaceOnUse"><path d="M59.1 552.646h889.033V12.266H59.1Z"/></clipPath><clipPath id="at" clipPathUnits="userSpaceOnUse"><path d="M-3.5-3.5h7v7h-7z"/></clipPath><clipPath id="as" clipPathUnits="userSpaceOnUse"><path d="M59.1 552.646h889.033V12.266H59.1Z"/></clipPath><clipPath id="av" clipPathUnits="userSpaceOnUse"><path d="M-3.5-3.5h7v7h-7z"/></clipPath><clipPath id="au" clipPathUnits="userSpaceOnUse"><path d="M59.1 552.646h889.033V12.266H59.1Z"/></clipPath><clipPath id="ax" clipPathUnits="userSpaceOnUse"><path d="M-3.5-3.5h7v7h-7z"/></clipPath><clipPath id="aw" clipPathUnits="userSpaceOnUse"><path d="M59.1 552.646h889.033V12.266H59.1Z"/></clipPath><clipPath id="az" clipPathUnits="userSpaceOnUse"><path d="M-3.5-3.5h7v7h-7z"/></clipPath><clipPath id="ay" clipPathUnits="userSpaceOnUse"><path d="M59.1 552.646h889.033V12.266H59.1Z"/></clipPath><clipPath id="aB" clipPathUnits="userSpaceOnUse"><path d="M-3.5-3.5h7v7h-7z"/></clipPath><clipPath id="aA" clipPathUnits="userSpaceOnUse"><path d="M59.1 552.646h889.033V12.266H59.1Z"/></clipPath></defs><path d="M0 0h721.8v443.356H0Z" style="fill:#fff;fill-opacity:1;fill-rule:nonzero;stroke:none" transform="matrix(1.33333 0 0 -1.33333 0 591.142)"/><path d="M44.325 28.872H711.1v405.284H44.325Z" style="fill:#fff;fill-opacity:1;fill-rule:nonzero;stroke:none" transform="matrix(1.33333 0 0 -1.33333 0 591.142)"/><path d="M155.454 23.872v-3.5" style="fill:#000;fill-opacity:1;fill-rule:nonzero;stroke:#000;stroke-width:.8;stroke-linecap:butt;stroke-linejoin:round;stroke-miterlimit:10;stroke-dasharray:none;stroke-opacity:1" transform="matrix(1.33333 0 0 -1.33333 0 591.142)"/><text xml:space="preserve" transform="translate(193.7 578.77)scale(1.33333)"><tspan x="0" y="0" style="font-variant:normal;font-weight:400;font-size:10px;font-family:&quot;DejaVu Sans&quot;;writing-mode:lr-tb;fill:#000;fill-opacity:1;fill-rule:nonzero;stroke:none">DES</tspan></text><path d="M377.713 23.872v-3.5" style="fill:#000;fill-opacity:1;fill-rule:nonzero;stroke:#000;stroke-width:.8;stroke-linecap:butt;stroke-linejoin:round;stroke-miterlimit:10;stroke-dasharray:none;stroke-opacity:1" transform="matrix(1.33333 0 0 -1.33333 0 591.142)"/><text xml:space="preserve" transform="translate(477.804 578.77)scale(1.33333)"><tspan x="0" y="0" style="font-variant:normal;font-weight:400;font-size:10px;font-family:&quot;DejaVu Sans&quot;;writing-mode:lr-tb;fill:#000;fill-opacity:1;fill-rule:nonzero;stroke:none">CMA-ES</tspan></text><path d="M599.97 23.872v-3.5" style="fill:#000;fill-opacity:1;fill-rule:nonzero;stroke:#000;stroke-width:.8;stroke-linecap:butt;stroke-linejoin:round;stroke-miterlimit:10;stroke-dasharray:none;stroke-opacity:1" transform="matrix(1.33333 0 0 -1.33333 0 591.142)"/><text xml:space="preserve" transform="translate(788.628 578.77)scale(1.33333)"><tspan x="0" y="0" style="font-variant:normal;font-weight:400;font-size:10px;font-family:&quot;DejaVu Sans&quot;;writing-mode:lr-tb;fill:#000;fill-opacity:1;fill-rule:nonzero;stroke:none">jSO</tspan></text><path d="M44.325 31.676H711.1" clip-path="url(#a)" style="fill:none;stroke:#e6e6e6;stroke-width:1;stroke-linecap:square;stroke-linejoin:round;stroke-miterlimit:10;stroke-dasharray:none;stroke-opacity:1" transform="matrix(1.33333 0 0 -1.33333 0 591.142)"/><text xml:space="preserve" transform="translate(9.6 553.969)scale(1.33333)"><tspan x="0" y="0" style="font-variant:normal;font-weight:400;font-size:10px;font-family:&quot;DejaVu Sans&quot;;writing-mode:lr-tb;fill:#000;fill-opacity:1;fill-rule:nonzero;stroke:none">0.855</tspan></text><path d="M44.325 92.415H711.1" clip-path="url(#b)" style="fill:none;stroke:#e6e6e6;stroke-width:1;stroke-linecap:square;stroke-linejoin:round;stroke-miterlimit:10;stroke-dasharray:none;stroke-opacity:1" transform="matrix(1.33333 0 0 -1.33333 0 591.142)"/><text xml:space="preserve" transform="translate(9.6 472.984)scale(1.33333)"><tspan x="0" y="0" style="font-variant:normal;font-weight:400;font-size:10px;font-family:&quot;DejaVu Sans&quot;;writing-mode:lr-tb;fill:#000;fill-opacity:1;fill-rule:nonzero;stroke:none">0.860</tspan></text><path d="M44.325 153.154H711.1" clip-path="url(#c)" style="fill:none;stroke:#e6e6e6;stroke-width:1;stroke-linecap:square;stroke-linejoin:round;stroke-miterlimit:10;stroke-dasharray:none;stroke-opacity:1" transform="matrix(1.33333 0 0 -1.33333 0 591.142)"/><text xml:space="preserve" transform="translate(9.6 392)scale(1.33333)"><tspan x="0" y="0" style="font-variant:normal;font-weight:400;font-size:10px;font-family:&quot;DejaVu Sans&quot;;writing-mode:lr-tb;fill:#000;fill-opacity:1;fill-rule:nonzero;stroke:none">0.865</tspan></text><path d="M44.325 213.892H711.1" clip-path="url(#d)" style="fill:none;stroke:#e6e6e6;stroke-width:1;stroke-linecap:square;stroke-linejoin:round;stroke-miterlimit:10;stroke-dasharray:none;stroke-opacity:1" transform="matrix(1.33333 0 0 -1.33333 0 591.142)"/><text xml:space="preserve" transform="translate(9.6 311.014)scale(1.33333)"><tspan x="0" y="0" style="font-variant:normal;font-weight:400;font-size:10px;font-family:&quot;DejaVu Sans&quot;;writing-mode:lr-tb;fill:#000;fill-opacity:1;fill-rule:nonzero;stroke:none">0.870</tspan></text><path d="M44.325 274.631H711.1" clip-path="url(#e)" style="fill:none;stroke:#e6e6e6;stroke-width:1;stroke-linecap:square;stroke-linejoin:round;stroke-miterlimit:10;stroke-dasharray:none;stroke-opacity:1" transform="matrix(1.33333 0 0 -1.33333 0 591.142)"/><text xml:space="preserve" transform="translate(9.6 230.03)scale(1.33333)"><tspan x="0" y="0" style="font-variant:normal;font-weight:400;font-size:10px;font-family:&quot;DejaVu Sans&quot;;writing-mode:lr-tb;fill:#000;fill-opacity:1;fill-rule:nonzero;stroke:none">0.875</tspan></text><path d="M44.325 335.37H711.1" clip-path="url(#f)" style="fill:none;stroke:#e6e6e6;stroke-width:1;stroke-linecap:square;stroke-linejoin:round;stroke-miterlimit:10;stroke-dasharray:none;stroke-opacity:1" transform="matrix(1.33333 0 0 -1.33333 0 591.142)"/><text xml:space="preserve" transform="translate(9.6 149.045)scale(1.33333)"><tspan x="0" y="0" style="font-variant:normal;font-weight:400;font-size:10px;font-family:&quot;DejaVu Sans&quot;;writing-mode:lr-tb;fill:#000;fill-opacity:1;fill-rule:nonzero;stroke:none">0.880</tspan></text><path d="M44.325 396.108H711.1" clip-path="url(#g)" style="fill:none;stroke:#e6e6e6;stroke-width:1;stroke-linecap:square;stroke-linejoin:round;stroke-miterlimit:10;stroke-dasharray:none;stroke-opacity:1" transform="matrix(1.33333 0 0 -1.33333 0 591.142)"/><text xml:space="preserve" transform="translate(9.6 68.06)scale(1.33333)"><tspan x="0" y="0" style="font-variant:normal;font-weight:400;font-size:10px;font-family:&quot;DejaVu Sans&quot;;writing-mode:lr-tb;fill:#000;fill-opacity:1;fill-rule:nonzero;stroke:none">0.885</tspan></text><path d="M66.55 197.02h177.808v77.798H66.55Z" clip-path="url(#h)" style="fill:none;stroke:#3d3d3d;stroke-width:1.5;stroke-linecap:butt;stroke-linejoin:miter;stroke-miterlimit:10;stroke-dasharray:none;stroke-opacity:1" transform="matrix(1.33333 0 0 -1.33333 0 591.142)"/><path d="M288.81 212.018h177.806v46.491H288.809Z" clip-path="url(#i)" style="fill:none;stroke:#3d3d3d;stroke-width:1.5;stroke-linecap:butt;stroke-linejoin:miter;stroke-miterlimit:10;stroke-dasharray:none;stroke-opacity:1" transform="matrix(1.33333 0 0 -1.33333 0 591.142)"/><path d="M511.068 242.574h177.806v68.613H511.067Z" clip-path="url(#j)" style="fill:none;stroke:#3d3d3d;stroke-width:1.5;stroke-linecap:butt;stroke-linejoin:miter;stroke-miterlimit:10;stroke-dasharray:none;stroke-opacity:1" transform="matrix(1.33333 0 0 -1.33333 0 591.142)"/><path d="M155.454 197.02v-61.488" clip-path="url(#k)" style="fill:none;stroke:#3d3d3d;stroke-width:1.5;stroke-linecap:square;stroke-linejoin:round;stroke-miterlimit:10;stroke-dasharray:none;stroke-opacity:1" transform="matrix(1.33333 0 0 -1.33333 0 591.142)"/><path d="M155.454 274.818v52.678" clip-path="url(#l)" style="fill:none;stroke:#3d3d3d;stroke-width:1.5;stroke-linecap:square;stroke-linejoin:round;stroke-miterlimit:10;stroke-dasharray:none;stroke-opacity:1" transform="matrix(1.33333 0 0 -1.33333 0 591.142)"/><path d="M377.713 212.018v-31.494" clip-path="url(#m)" style="fill:none;stroke:#3d3d3d;stroke-width:1.5;stroke-linecap:square;stroke-linejoin:round;stroke-miterlimit:10;stroke-dasharray:none;stroke-opacity:1" transform="matrix(1.33333 0 0 -1.33333 0 591.142)"/><path d="M377.713 258.509v41.242" clip-path="url(#n)" style="fill:none;stroke:#3d3d3d;stroke-width:1.5;stroke-linecap:square;stroke-linejoin:round;stroke-miterlimit:10;stroke-dasharray:none;stroke-opacity:1" transform="matrix(1.33333 0 0 -1.33333 0 591.142)"/><path d="M599.97 242.574v-19.308" clip-path="url(#o)" style="fill:none;stroke:#3d3d3d;stroke-width:1.5;stroke-linecap:square;stroke-linejoin:round;stroke-miterlimit:10;stroke-dasharray:none;stroke-opacity:1" transform="matrix(1.33333 0 0 -1.33333 0 591.142)"/><path d="M599.97 311.187v32.056" clip-path="url(#p)" style="fill:none;stroke:#3d3d3d;stroke-width:1.5;stroke-linecap:square;stroke-linejoin:round;stroke-miterlimit:10;stroke-dasharray:none;stroke-opacity:1" transform="matrix(1.33333 0 0 -1.33333 0 591.142)"/><path d="m599.97 78.007 2.122 3.535-2.121 3.536-2.121-3.536z" clip-path="url(#q)" style="fill:#3d3d3d;fill-opacity:1;fill-rule:nonzero;stroke:#3d3d3d;stroke-width:1;stroke-linecap:butt;stroke-linejoin:miter;stroke-miterlimit:10;stroke-dasharray:none;stroke-opacity:1" transform="matrix(1.33333 0 0 -1.33333 0 591.142)"/><path d="M66.55 231.889h177.808" clip-path="url(#r)" style="fill:none;stroke:#3d3d3d;stroke-width:1.5;stroke-linecap:square;stroke-linejoin:round;stroke-miterlimit:10;stroke-dasharray:none;stroke-opacity:1" transform="matrix(1.33333 0 0 -1.33333 0 591.142)"/><path d="M288.81 233.014h177.806" clip-path="url(#s)" style="fill:none;stroke:#3d3d3d;stroke-width:1.5;stroke-linecap:square;stroke-linejoin:round;stroke-miterlimit:10;stroke-dasharray:none;stroke-opacity:1" transform="matrix(1.33333 0 0 -1.33333 0 591.142)"/><path d="M511.068 305.75h177.806" clip-path="url(#t)" style="fill:none;stroke:#3d3d3d;stroke-width:1.5;stroke-linecap:square;stroke-linejoin:round;stroke-miterlimit:10;stroke-dasharray:none;stroke-opacity:1" transform="matrix(1.33333 0 0 -1.33333 0 591.142)"/><g clip-path="url(#u)"><path d="M0-3.5a3.5 3.5 0 1 1 0 7 3.5 3.5 0 0 1 0-7" clip-path="url(#v)" style="fill:#1f77b4;fill-opacity:1;fill-rule:nonzero;stroke:none" transform="matrix(1.33333 0 0 -1.33333 207.272 410.432)"/></g><g clip-path="url(#w)"><path d="M0-3.5a3.5 3.5 0 1 1 0 7 3.5 3.5 0 0 1 0-7" clip-path="url(#x)" style="fill:#1f77b4;fill-opacity:1;fill-rule:nonzero;stroke:none" transform="matrix(1.33333 0 0 -1.33333 207.272 359.442)"/></g><g clip-path="url(#y)"><path d="M0-3.5a3.5 3.5 0 1 1 0 7 3.5 3.5 0 0 1 0-7" clip-path="url(#z)" style="fill:#1f77b4;fill-opacity:1;fill-rule:nonzero;stroke:none" transform="matrix(1.33333 0 0 -1.33333 207.272 333.447)"/></g><g clip-path="url(#A)"><path d="M0-3.5a3.5 3.5 0 1 1 0 7 3.5 3.5 0 0 1 0-7" clip-path="url(#B)" style="fill:#1f77b4;fill-opacity:1;fill-rule:nonzero;stroke:none" transform="matrix(1.33333 0 0 -1.33333 207.272 313.45)"/></g><g clip-path="url(#C)"><path d="M0-3.5a3.5 3.5 0 1 1 0 7 3.5 3.5 0 0 1 0-7" clip-path="url(#D)" style="fill:#1f77b4;fill-opacity:1;fill-rule:nonzero;stroke:none" transform="matrix(1.33333 0 0 -1.33333 207.272 298.453)"/></g><g clip-path="url(#E)"><path d="M0-3.5a3.5 3.5 0 1 1 0 7 3.5 3.5 0 0 1 0-7" clip-path="url(#F)" style="fill:#1f77b4;fill-opacity:1;fill-rule:nonzero;stroke:none" transform="matrix(1.33333 0 0 -1.33333 207.272 265.46)"/></g><g clip-path="url(#G)"><path d="M0-3.5a3.5 3.5 0 1 1 0 7 3.5 3.5 0 0 1 0-7" clip-path="url(#H)" style="fill:#1f77b4;fill-opacity:1;fill-rule:nonzero;stroke:none" transform="matrix(1.33333 0 0 -1.33333 196.513 261.46)"/></g><g clip-path="url(#I)"><path d="M0-3.5a3.5 3.5 0 1 1 0 7 3.5 3.5 0 0 1 0-7" clip-path="url(#J)" style="fill:#1f77b4;fill-opacity:1;fill-rule:nonzero;stroke:none" transform="matrix(1.33333 0 0 -1.33333 207.272 212.47)"/></g><g clip-path="url(#K)"><path d="M0-3.5a3.5 3.5 0 1 1 0 7 3.5 3.5 0 0 1 0-7" clip-path="url(#L)" style="fill:#1f77b4;fill-opacity:1;fill-rule:nonzero;stroke:none" transform="matrix(1.33333 0 0 -1.33333 207.272 177.476)"/></g><g clip-path="url(#M)"><path d="M0-3.5a3.5 3.5 0 1 1 0 7 3.5 3.5 0 0 1 0-7" clip-path="url(#N)" style="fill:#1f77b4;fill-opacity:1;fill-rule:nonzero;stroke:none" transform="matrix(1.33333 0 0 -1.33333 207.272 154.48)"/></g><g clip-path="url(#O)"><path d="M0-3.5a3.5 3.5 0 1 1 0 7 3.5 3.5 0 0 1 0-7" clip-path="url(#P)" style="fill:#ff7f0e;fill-opacity:1;fill-rule:nonzero;stroke:none" transform="matrix(1.33333 0 0 -1.33333 503.617 350.444)"/></g><g clip-path="url(#Q)"><path d="M0-3.5a3.5 3.5 0 1 1 0 7 3.5 3.5 0 0 1 0-7" clip-path="url(#R)" style="fill:#ff7f0e;fill-opacity:1;fill-rule:nonzero;stroke:none" transform="matrix(1.33333 0 0 -1.33333 513.275 344.445)"/></g><g clip-path="url(#S)"><path d="M0-3.5a3.5 3.5 0 1 1 0 7 3.5 3.5 0 0 1 0-7" clip-path="url(#T)" style="fill:#ff7f0e;fill-opacity:1;fill-rule:nonzero;stroke:none" transform="matrix(1.33333 0 0 -1.33333 503.617 316.45)"/></g><g clip-path="url(#U)"><path d="M0-3.5a3.5 3.5 0 1 1 0 7 3.5 3.5 0 0 1 0-7" clip-path="url(#V)" style="fill:#ff7f0e;fill-opacity:1;fill-rule:nonzero;stroke:none" transform="matrix(1.33333 0 0 -1.33333 503.617 284.456)"/></g><g clip-path="url(#W)"><path d="M0-3.5a3.5 3.5 0 1 1 0 7 3.5 3.5 0 0 1 0-7" clip-path="url(#X)" style="fill:#ff7f0e;fill-opacity:1;fill-rule:nonzero;stroke:none" transform="matrix(1.33333 0 0 -1.33333 492.857 280.457)"/></g><g clip-path="url(#Y)"><path d="M0-3.5a3.5 3.5 0 1 1 0 7 3.5 3.5 0 0 1 0-7" clip-path="url(#Z)" style="fill:#ff7f0e;fill-opacity:1;fill-rule:nonzero;stroke:none" transform="matrix(1.33333 0 0 -1.33333 514.376 280.457)"/></g><g clip-path="url(#aa)"><path d="M0-3.5a3.5 3.5 0 1 1 0 7 3.5 3.5 0 0 1 0-7" clip-path="url(#ab)" style="fill:#ff7f0e;fill-opacity:1;fill-rule:nonzero;stroke:none" transform="matrix(1.33333 0 0 -1.33333 503.617 249.462)"/></g><g clip-path="url(#ac)"><path d="M0-3.5a3.5 3.5 0 1 1 0 7 3.5 3.5 0 0 1 0-7" clip-path="url(#ad)" style="fill:#ff7f0e;fill-opacity:1;fill-rule:nonzero;stroke:none" transform="matrix(1.33333 0 0 -1.33333 492.857 245.463)"/></g><g clip-path="url(#ae)"><path d="M0-3.5a3.5 3.5 0 1 1 0 7 3.5 3.5 0 0 1 0-7" clip-path="url(#af)" style="fill:#ff7f0e;fill-opacity:1;fill-rule:nonzero;stroke:none" transform="matrix(1.33333 0 0 -1.33333 503.617 209.47)"/></g><g clip-path="url(#ag)"><path d="M0-3.5a3.5 3.5 0 1 1 0 7 3.5 3.5 0 0 1 0-7" clip-path="url(#ah)" style="fill:#ff7f0e;fill-opacity:1;fill-rule:nonzero;stroke:none" transform="matrix(1.33333 0 0 -1.33333 503.617 191.473)"/></g><g clip-path="url(#ai)"><path d="M0-3.5a3.5 3.5 0 1 1 0 7 3.5 3.5 0 0 1 0-7" clip-path="url(#aj)" style="fill:#2ca02c;fill-opacity:1;fill-rule:nonzero;stroke:none" transform="matrix(1.33333 0 0 -1.33333 799.961 482.419)"/></g><g clip-path="url(#ak)"><path d="M0-3.5a3.5 3.5 0 1 1 0 7 3.5 3.5 0 0 1 0-7" clip-path="url(#al)" style="fill:#2ca02c;fill-opacity:1;fill-rule:nonzero;stroke:none" transform="matrix(1.33333 0 0 -1.33333 799.961 293.454)"/></g><g clip-path="url(#am)"><path d="M0-3.5a3.5 3.5 0 1 1 0 7 3.5 3.5 0 0 1 0-7" clip-path="url(#an)" style="fill:#2ca02c;fill-opacity:1;fill-rule:nonzero;stroke:none" transform="matrix(1.33333 0 0 -1.33333 799.961 273.458)"/></g><g clip-path="url(#ao)"><path d="M0-3.5a3.5 3.5 0 1 1 0 7 3.5 3.5 0 0 1 0-7" clip-path="url(#ap)" style="fill:#2ca02c;fill-opacity:1;fill-rule:nonzero;stroke:none" transform="matrix(1.33333 0 0 -1.33333 799.961 250.462)"/></g><g clip-path="url(#aq)"><path d="M0-3.5a3.5 3.5 0 1 1 0 7 3.5 3.5 0 0 1 0-7" clip-path="url(#ar)" style="fill:#2ca02c;fill-opacity:1;fill-rule:nonzero;stroke:none" transform="matrix(1.33333 0 0 -1.33333 799.961 186.474)"/></g><g clip-path="url(#as)"><path d="M0-3.5a3.5 3.5 0 1 1 0 7 3.5 3.5 0 0 1 0-7" clip-path="url(#at)" style="fill:#2ca02c;fill-opacity:1;fill-rule:nonzero;stroke:none" transform="matrix(1.33333 0 0 -1.33333 790.303 180.475)"/></g><g clip-path="url(#au)"><path d="M0-3.5a3.5 3.5 0 1 1 0 7 3.5 3.5 0 0 1 0-7" clip-path="url(#av)" style="fill:#2ca02c;fill-opacity:1;fill-rule:nonzero;stroke:none" transform="matrix(1.33333 0 0 -1.33333 807.821 178.476)"/></g><g clip-path="url(#aw)"><path d="M0-3.5a3.5 3.5 0 1 1 0 7 3.5 3.5 0 0 1 0-7" clip-path="url(#ax)" style="fill:#2ca02c;fill-opacity:1;fill-rule:nonzero;stroke:none" transform="matrix(1.33333 0 0 -1.33333 818.94 175.476)"/></g><g clip-path="url(#ay)"><path d="M0-3.5a3.5 3.5 0 1 1 0 7 3.5 3.5 0 0 1 0-7" clip-path="url(#az)" style="fill:#2ca02c;fill-opacity:1;fill-rule:nonzero;stroke:none" transform="matrix(1.33333 0 0 -1.33333 799.961 169.477)"/></g><g clip-path="url(#aA)"><path d="M0-3.5a3.5 3.5 0 1 1 0 7 3.5 3.5 0 0 1 0-7" clip-path="url(#aB)" style="fill:#2ca02c;fill-opacity:1;fill-rule:nonzero;stroke:none" transform="matrix(1.33333 0 0 -1.33333 799.961 133.484)"/></g></svg>