<svg xmlns="http://www.w3.org/2000/svg" width="600.227" height="591.142" viewBox="0 0 600.227 591.142"><defs><clipPath id="a" clipPathUnits="userSpaceOnUse"><path d="M43.778 37.544h395.113v395.112H43.778Z"/></clipPath><clipPath id="b" clipPathUnits="userSpaceOnUse"><path d="M43.778 37.544h395.113v395.112H43.778Z"/></clipPath><clipPath id="c" clipPathUnits="userSpaceOnUse"><path d="M43.778 37.544h395.113v395.112H43.778Z"/></clipPath><clipPath id="d" clipPathUnits="userSpaceOnUse"><path d="M43.778 37.544h395.113v395.112H43.778Z"/></clipPath><clipPath id="e" clipPathUnits="userSpaceOnUse"><path d="M43.778 37.544h395.113v395.112H43.778Z"/></clipPath><clipPath id="f" clipPathUnits="userSpaceOnUse"><path d="M43.778 37.544h395.113v395.112H43.778Z"/></clipPath><clipPath id="g" clipPathUnits="userSpaceOnUse"><path d="M43.778 37.544h395.113v395.112H43.778Z"/></clipPath><clipPath id="h" clipPathUnits="userSpaceOnUse"><path d="M43.778 37.544h395.113v395.112H43.778Z"/></clipPath><clipPath id="i" clipPathUnits="userSpaceOnUse"><path d="M43.778 37.544h395.113v395.112H43.778Z"/></clipPath><clipPath id="j" clipPathUnits="userSpaceOnUse"><path d="M43.778 37.544h395.113v395.112H43.778Z"/></clipPath><clipPath id="k" clipPathUnits="userSpaceOnUse"><path d="M43.778 37.544h395.113v395.112H43.778Z"/></clipPath><clipPath id="l" clipPathUnits="userSpaceOnUse"><path d="M43.778 37.544h395.113v395.112H43.778Z"/></clipPath><clipPath id="m" clipPathUnits="userSpaceOnUse"><path d="M43.778 37.544h395.113v395.112H43.778Z"/></clipPath><clipPath id="n" clipPathUnits="userSpaceOnUse"><path d="M43.778 37.544h395.113v395.112H43.778Z"/></clipPath><clipPath id="o" clipPathUnits="userSpaceOnUse"><path d="M43.778 37.544h395.113v395.112H43.778Z"/></clipPath><clipPath id="p" clipPathUnits="userSpaceOnUse"><path d="M43.778 37.544h395.113v395.112H43.778Z"/></clipPath><clipPath id="q" clipPathUnits="userSpaceOnUse"><path d="M43.778 37.544h395.113v395.112H43.778Z"/></clipPath><clipPath id="r" clipPathUnits="userSpaceOnUse"><path d="M43.778 37.544h395.113v395.112H43.778Z"/></clipPath><clipPath id="s" clipPathUnits="userSpaceOnUse"><path d="M43.778 37.544h395.113v395.112H43.778Z"/></clipPath><clipPath id="t" clipPathUnits="userSpaceOnUse"><path d="M43.778 37.544h395.113v395.112H43.778Z"/></clipPath><clipPath id="u" clipPathUnits="userSpaceOnUse"><path d="M43.778 37.544h395.113v395.112H43.778Z"/></clipPath><clipPath id="v" clipPathUnits="userSpaceOnUse"><path d="M43.778 37.544h395.113v395.112H43.778Z"/></clipPath><clipPath id="w" clipPathUnits="userSpaceOnUse"><path d="M43.778 37.544h395.113v395.112H43.778Z"/></clipPath><clipPath id="x" clipPathUnits="userSpaceOnUse"><path d="M43.778 37.544h395.113v395.112H43.778Z"/></clipPath><clipPath id="y" clipPathUnits="userSpaceOnUse"><path d="M43.778 37.544h395.113v395.112H43.778Z"/></clipPath><clipPath id="z" clipPathUnits="userSpaceOnUse"><path d="M43.778 37.544h395.113v395.112H43.778Z"/></clipPath><clipPath id="A" clipPathUnits="userSpaceOnUse"><path d="M43.778 37.544h395.113v395.112H43.778Z"/></clipPath><clipPath id="B" clipPathUnits="userSpaceOnUse"><path d="M43.778 37.544h395.113v395.112H43.778Z"/></clipPath><clipPath id="C" clipPathUnits="userSpaceOnUse"><path d="M43.778 37.544h395.113v395.112H43.778Z"/></clipPath></defs><path d="M0 0h450.17v443.356H0Z" style="fill:#fff;fill-opacity:1;fill-rule:nonzero;stroke:none" transform="matrix(1.33333 0 0 -1.33333 0 591.142)"/><path d="M43.778 37.544h395.113v395.112H43.778Z" style="fill:#fff;fill-opacity:1;fill-rule:nonzero;stroke:none" transform="matrix(1.33333 0 0 -1.33333 0 591.142)"/><path d="M47.652 37.544v395.112" clip-path="url(#a)" style="fill:none;stroke:#b0b0b0;stroke-width:.8;stroke-linecap:square;stroke-linejoin:round;stroke-miterlimit:10;stroke-dasharray:none;stroke-opacity:1" transform="matrix(1.33333 0 0 -1.33333 0 591.142)"/><path d="M47.652 37.544v-3.5" style="fill:#000;fill-opacity:1;fill-rule:nonzero;stroke:#000;stroke-width:.8;stroke-linecap:butt;stroke-linejoin:round;stroke-miterlimit:10;stroke-dasharray:none;stroke-opacity:1" transform="matrix(1.33333 0 0 -1.33333 0 591.142)"/><text xml:space="preserve" transform="translate(52.932 560.542)scale(1.33333)"><tspan x="0" y="0" style="font-variant:normal;font-weight:400;font-size:10px;font-family:&quot;DejaVu Sans&quot;;writing-mode:lr-tb;fill:#000;fill-opacity:1;fill-rule:nonzero;stroke:none">0.0</tspan></text><path d="M86.388 37.544v395.112" clip-path="url(#b)" style="fill:none;stroke:#b0b0b0;stroke-width:.8;stroke-linecap:square;stroke-linejoin:round;stroke-miterlimit:10;stroke-dasharray:none;stroke-opacity:1" transform="matrix(1.33333 0 0 -1.33333 0 591.142)"/><path d="M86.388 37.544v-3.5" style="fill:#000;fill-opacity:1;fill-rule:nonzero;stroke:#000;stroke-width:.8;stroke-linecap:butt;stroke-linejoin:round;stroke-miterlimit:10;stroke-dasharray:none;stroke-opacity:1" transform="matrix(1.33333 0 0 -1.33333 0 591.142)"/><text xml:space="preserve" transform="translate(104.58 560.542)scale(1.33333)"><tspan x="0" y="0" style="font-variant:normal;font-weight:400;font-size:10px;font-family:&quot;DejaVu Sans&quot;;writing-mode:lr-tb;fill:#000;fill-opacity:1;fill-rule:nonzero;stroke:none">0.1</tspan></text><path d="M125.125 37.544v395.112" clip-path="url(#c)" style="fill:none;stroke:#b0b0b0;stroke-width:.8;stroke-linecap:square;stroke-linejoin:round;stroke-miterlimit:10;stroke-dasharray:none;stroke-opacity:1" transform="matrix(1.33333 0 0 -1.33333 0 591.142)"/><path d="M125.125 37.544v-3.5" style="fill:#000;fill-opacity:1;fill-rule:nonzero;stroke:#000;stroke-width:.8;stroke-linecap:butt;stroke-linejoin:round;stroke-miterlimit:10;stroke-dasharray:none;stroke-opacity:1" transform="matrix(1.33333 0 0 -1.33333 0 591.142)"/><text xml:space="preserve" transform="translate(156.229 560.542)scale(1.33333)"><tspan x="0" y="0" style="font-variant:normal;font-weight:400;font-size:10px;font-family:&quot;DejaVu Sans&quot;;writing-mode:lr-tb;fill:#000;fill-opacity:1;fill-rule:nonzero;stroke:none">0.2</tspan></text><path d="M163.861 37.544v395.112" clip-path="url(#d)" style="fill:none;stroke:#b0b0b0;stroke-width:.8;stroke-linecap:square;stroke-linejoin:round;stroke-miterlimit:10;stroke-dasharray:none;stroke-opacity:1" transform="matrix(1.33333 0 0 -1.33333 0 591.142)"/><path d="M163.861 37.544v-3.5" style="fill:#000;fill-opacity:1;fill-rule:nonzero;stroke:#000;stroke-width:.8;stroke-linecap:butt;stroke-linejoin:round;stroke-miterlimit:10;stroke-dasharray:none;stroke-opacity:1" transform="matrix(1.33333 0 0 -1.33333 0 591.142)"/><text xml:space="preserve" transform="translate(207.878 560.542)scale(1.33333)"><tspan x="0" y="0" style="font-variant:normal;font-weight:400;font-size:10px;font-family:&quot;DejaVu Sans&quot;;writing-mode:lr-tb;fill:#000;fill-opacity:1;fill-rule:nonzero;stroke:none">0.3</tspan></text><path d="M202.598 37.544v395.112" clip-path="url(#e)" style="fill:none;stroke:#b0b0b0;stroke-width:.8;stroke-linecap:square;stroke-linejoin:round;stroke-miterlimit:10;stroke-dasharray:none;stroke-opacity:1" transform="matrix(1.33333 0 0 -1.33333 0 591.142)"/><path d="M202.598 37.544v-3.5" style="fill:#000;fill-opacity:1;fill-rule:nonzero;stroke:#000;stroke-width:.8;stroke-linecap:butt;stroke-linejoin:round;stroke-miterlimit:10;stroke-dasharray:none;stroke-opacity:1" transform="matrix(1.33333 0 0 -1.33333 0 591.142)"/><text xml:space="preserve" transform="translate(259.526 560.542)scale(1.33333)"><tspan x="0" y="0" style="font-variant:normal;font-weight:400;font-size:10px;font-family:&quot;DejaVu Sans&quot;;writing-mode:lr-tb;fill:#000;fill-opacity:1;fill-rule:nonzero;stroke:none">0.4</tspan></text><path d="M241.334 37.544v395.112" clip-path="url(#f)" style="fill:none;stroke:#b0b0b0;stroke-width:.8;stroke-linecap:square;stroke-linejoin:round;stroke-miterlimit:10;stroke-dasharray:none;stroke-opacity:1" transform="matrix(1.33333 0 0 -1.33333 0 591.142)"/><path d="M241.334 37.544v-3.5" style="fill:#000;fill-opacity:1;fill-rule:nonzero;stroke:#000;stroke-width:.8;stroke-linecap:butt;stroke-linejoin:round;stroke-miterlimit:10;stroke-dasharray:none;stroke-opacity:1" transform="matrix(1.33333 0 0 -1.33333 0 591.142)"/><text xml:space="preserve" transform="translate(311.175 560.542)scale(1.33333)"><tspan x="0" y="0" style="font-variant:normal;font-weight:400;font-size:10px;font-family:&quot;DejaVu Sans&quot;;writing-mode:lr-tb;fill:#000;fill-opacity:1;fill-rule:nonzero;stroke:none">0.5</tspan></text><path d="M280.07 37.544v395.112" clip-path="url(#g)" style="fill:none;stroke:#b0b0b0;stroke-width:.8;stroke-linecap:square;stroke-linejoin:round;stroke-miterlimit:10;stroke-dasharray:none;stroke-opacity:1" transform="matrix(1.33333 0 0 -1.33333 0 591.142)"/><path d="M280.07 37.544v-3.5" style="fill:#000;fill-opacity:1;fill-rule:nonzero;stroke:#000;stroke-width:.8;stroke-linecap:butt;stroke-linejoin:round;stroke-miterlimit:10;stroke-dasharray:none;stroke-opacity:1" transform="matrix(1.33333 0 0 -1.33333 0 591.142)"/><text xml:space="preserve" transform="translate(362.824 560.542)scale(1.33333)"><tspan x="0" y="0" style="font-variant:normal;font-weight:400;font-size:10px;font-family:&quot;DejaVu Sans&quot;;writing-mode:lr-tb;fill:#000;fill-opacity:1;fill-rule:nonzero;stroke:none">0.6</tspan></text><path d="M318.807 37.544v395.112" clip-path="url(#h)" style="fill:none;stroke:#b0b0b0;stroke-width:.8;stroke-linecap:square;stroke-linejoin:round;stroke-miterlimit:10;stroke-dasharray:none;stroke-opacity:1" transform="matrix(1.33333 0 0 -1.33333 0 591.142)"/><path d="M318.807 37.544v-3.5" style="fill:#000;fill-opacity:1;fill-rule:nonzero;stroke:#000;stroke-width:.8;stroke-linecap:butt;stroke-linejoin:round;stroke-miterlimit:10;stroke-dasharray:none;stroke-opacity:1" transform="matrix(1.33333 0 0 -1.33333 0 591.142)"/><text xml:space="preserve" transform="translate(414.472 560.542)scale(1.33333)"><tspan x="0" y="0" style="font-variant:normal;font-weight:400;font-size:10px;font-family:&quot;DejaVu Sans&quot;;writing-mode:lr-tb;fill:#000;fill-opacity:1;fill-rule:nonzero;stroke:none">0.7</tspan></text><path d="M357.544 37.544v395.112" clip-path="url(#i)" style="fill:none;stroke:#b0b0b0;stroke-width:.8;stroke-linecap:square;stroke-linejoin:round;stroke-miterlimit:10;stroke-dasharray:none;stroke-opacity:1" transform="matrix(1.33333 0 0 -1.33333 0 591.142)"/><path d="M357.544 37.544v-3.5" style="fill:#000;fill-opacity:1;fill-rule:nonzero;stroke:#000;stroke-width:.8;stroke-linecap:butt;stroke-linejoin:round;stroke-miterlimit:10;stroke-dasharray:none;stroke-opacity:1" transform="matrix(1.33333 0 0 -1.33333 0 591.142)"/><text xml:space="preserve" transform="translate(466.121 560.542)scale(1.33333)"><tspan x="0" y="0" style="font-variant:normal;font-weight:400;font-size:10px;font-family:&quot;DejaVu Sans&quot;;writing-mode:lr-tb;fill:#000;fill-opacity:1;fill-rule:nonzero;stroke:none">0.8</tspan></text><path d="M396.28 37.544v395.112" clip-path="url(#j)" style="fill:none;stroke:#b0b0b0;stroke-width:.8;stroke-linecap:square;stroke-linejoin:round;stroke-miterlimit:10;stroke-dasharray:none;stroke-opacity:1" transform="matrix(1.33333 0 0 -1.33333 0 591.142)"/><path d="M396.28 37.544v-3.5" style="fill:#000;fill-opacity:1;fill-rule:nonzero;stroke:#000;stroke-width:.8;stroke-linecap:butt;stroke-linejoin:round;stroke-miterlimit:10;stroke-dasharray:none;stroke-opacity:1" transform="matrix(1.33333 0 0 -1.33333 0 591.142)"/><text xml:space="preserve" transform="translate(517.77 560.542)scale(1.33333)"><tspan x="0" y="0" style="font-variant:normal;font-weight:400;font-size:10px;font-family:&quot;DejaVu Sans&quot;;writing-mode:lr-tb;fill:#000;fill-opacity:1;fill-rule:nonzero;stroke:none">0.9</tspan></text><path d="M435.017 37.544v395.112" clip-path="url(#k)" style="fill:none;stroke:#b0b0b0;stroke-width:.8;stroke-linecap:square;stroke-linejoin:round;stroke-miterlimit:10;stroke-dasharray:none;stroke-opacity:1" transform="matrix(1.33333 0 0 -1.33333 0 591.142)"/><path d="M435.017 37.544v-3.5" style="fill:#000;fill-opacity:1;fill-rule:nonzero;stroke:#000;stroke-width:.8;stroke-linecap:butt;stroke-linejoin:round;stroke-miterlimit:10;stroke-dasharray:none;stroke-opacity:1" transform="matrix(1.33333 0 0 -1.33333 0 591.142)"/><text xml:space="preserve" transform="translate(569.418 560.542)scale(1.33333)"><tspan x="0" y="0" style="font-variant:normal;font-weight:400;font-size:10px;font-family:&quot;DejaVu Sans&quot;;writing-mode:lr-tb;fill:#000;fill-opacity:1;fill-rule:nonzero;stroke:none">1.0</tspan></text><text xml:space="preserve" transform="translate(258.78 578.77)scale(1.33333)"><tspan x="0" y="0" style="font-variant:normal;font-weight:400;font-size:10px;font-family:&quot;DejaVu Sans&quot;;writing-mode:lr-tb;fill:#000;fill-opacity:1;fill-rule:nonzero;stroke:none">False Positive Rate</tspan></text><path d="M43.778 41.417h395.113" clip-path="url(#l)" style="fill:none;stroke:#b0b0b0;stroke-width:.8;stroke-linecap:square;stroke-linejoin:round;stroke-miterlimit:10;stroke-dasharray:none;stroke-opacity:1" transform="matrix(1.33333 0 0 -1.33333 0 591.142)"/><path d="M43.778 41.417h-3.5" style="fill:#000;fill-opacity:1;fill-rule:nonzero;stroke:#000;stroke-width:.8;stroke-linecap:butt;stroke-linejoin:round;stroke-miterlimit:10;stroke-dasharray:none;stroke-opacity:1" transform="matrix(1.33333 0 0 -1.33333 0 591.142)"/><text xml:space="preserve" transform="translate(27.83 540.98)scale(1.33333)"><tspan x="0" y="0" style="font-variant:normal;font-weight:400;font-size:10px;font-family:&quot;DejaVu Sans&quot;;writing-mode:lr-tb;fill:#000;fill-opacity:1;fill-rule:nonzero;stroke:none">0.0</tspan></text><path d="M43.778 80.154h395.113" clip-path="url(#m)" style="fill:none;stroke:#b0b0b0;stroke-width:.8;stroke-linecap:square;stroke-linejoin:round;stroke-miterlimit:10;stroke-dasharray:none;stroke-opacity:1" transform="matrix(1.33333 0 0 -1.33333 0 591.142)"/><path d="M43.778 80.154h-3.5" style="fill:#000;fill-opacity:1;fill-rule:nonzero;stroke:#000;stroke-width:.8;stroke-linecap:butt;stroke-linejoin:round;stroke-miterlimit:10;stroke-dasharray:none;stroke-opacity:1" transform="matrix(1.33333 0 0 -1.33333 0 591.142)"/><text xml:space="preserve" transform="translate(27.83 489.332)scale(1.33333)"><tspan x="0" y="0" style="font-variant:normal;font-weight:400;font-size:10px;font-family:&quot;DejaVu Sans&quot;;writing-mode:lr-tb;fill:#000;fill-opacity:1;fill-rule:nonzero;stroke:none">0.1</tspan></text><path d="M43.778 118.89h395.113" clip-path="url(#n)" style="fill:none;stroke:#b0b0b0;stroke-width:.8;stroke-linecap:square;stroke-linejoin:round;stroke-miterlimit:10;stroke-dasharray:none;stroke-opacity:1" transform="matrix(1.33333 0 0 -1.33333 0 591.142)"/><path d="M43.778 118.89h-3.5" style="fill:#000;fill-opacity:1;fill-rule:nonzero;stroke:#000;stroke-width:.8;stroke-linecap:butt;stroke-linejoin:round;stroke-miterlimit:10;stroke-dasharray:none;stroke-opacity:1" transform="matrix(1.33333 0 0 -1.33333 0 591.142)"/><text xml:space="preserve" transform="translate(27.83 437.684)scale(1.33333)"><tspan x="0" y="0" style="font-variant:normal;font-weight:400;font-size:10px;font-family:&quot;DejaVu Sans&quot;;writing-mode:lr-tb;fill:#000;fill-opacity:1;fill-rule:nonzero;stroke:none">0.2</tspan></text><path d="M43.778 157.627h395.113" clip-path="url(#o)" style="fill:none;stroke:#b0b0b0;stroke-width:.8;stroke-linecap:square;stroke-linejoin:round;stroke-miterlimit:10;stroke-dasharray:none;stroke-opacity:1" transform="matrix(1.33333 0 0 -1.33333 0 591.142)"/><path d="M43.778 157.627h-3.5" style="fill:#000;fill-opacity:1;fill-rule:nonzero;stroke:#000;stroke-width:.8;stroke-linecap:butt;stroke-linejoin:round;stroke-miterlimit:10;stroke-dasharray:none;stroke-opacity:1" transform="matrix(1.33333 0 0 -1.33333 0 591.142)"/><text xml:space="preserve" transform="translate(27.83 386.035)scale(1.33333)"><tspan x="0" y="0" style="font-variant:normal;font-weight:400;font-size:10px;font-family:&quot;DejaVu Sans&quot;;writing-mode:lr-tb;fill:#000;fill-opacity:1;fill-rule:nonzero;stroke:none">0.3</tspan></text><path d="M43.778 196.363h395.113" clip-path="url(#p)" style="fill:none;stroke:#b0b0b0;stroke-width:.8;stroke-linecap:square;stroke-linejoin:round;stroke-miterlimit:10;stroke-dasharray:none;stroke-opacity:1" transform="matrix(1.33333 0 0 -1.33333 0 591.142)"/><path d="M43.778 196.363h-3.5" style="fill:#000;fill-opacity:1;fill-rule:nonzero;stroke:#000;stroke-width:.8;stroke-linecap:butt;stroke-linejoin:round;stroke-miterlimit:10;stroke-dasharray:none;stroke-opacity:1" transform="matrix(1.33333 0 0 -1.33333 0 591.142)"/><text xml:space="preserve" transform="translate(27.83 334.386)scale(1.33333)"><tspan x="0" y="0" style="font-variant:normal;font-weight:400;font-size:10px;font-family:&quot;DejaVu Sans&quot;;writing-mode:lr-tb;fill:#000;fill-opacity:1;fill-rule:nonzero;stroke:none">0.4</tspan></text><path d="M43.778 235.1h395.113" clip-path="url(#q)" style="fill:none;stroke:#b0b0b0;stroke-width:.8;stroke-linecap:square;stroke-linejoin:round;stroke-miterlimit:10;stroke-dasharray:none;stroke-opacity:1" transform="matrix(1.33333 0 0 -1.33333 0 591.142)"/><path d="M43.778 235.1h-3.5" style="fill:#000;fill-opacity:1;fill-rule:nonzero;stroke:#000;stroke-width:.8;stroke-linecap:butt;stroke-linejoin:round;stroke-miterlimit:10;stroke-dasharray:none;stroke-opacity:1" transform="matrix(1.33333 0 0 -1.33333 0 591.142)"/><text xml:space="preserve" transform="translate(27.83 282.737)scale(1.33333)"><tspan x="0" y="0" style="font-variant:normal;font-weight:400;font-size:10px;font-family:&quot;DejaVu Sans&quot;;writing-mode:lr-tb;fill:#000;fill-opacity:1;fill-rule:nonzero;stroke:none">0.5</tspan></text><path d="M43.778 273.837h395.113" clip-path="url(#r)" style="fill:none;stroke:#b0b0b0;stroke-width:.8;stroke-linecap:square;stroke-linejoin:round;stroke-miterlimit:10;stroke-dasharray:none;stroke-opacity:1" transform="matrix(1.33333 0 0 -1.33333 0 591.142)"/><path d="M43.778 273.837h-3.5" style="fill:#000;fill-opacity:1;fill-rule:nonzero;stroke:#000;stroke-width:.8;stroke-linecap:butt;stroke-linejoin:round;stroke-miterlimit:10;stroke-dasharray:none;stroke-opacity:1" transform="matrix(1.33333 0 0 -1.33333 0 591.142)"/><text xml:space="preserve" transform="translate(27.83 231.089)scale(1.33333)"><tspan x="0" y="0" style="font-variant:normal;font-weight:400;font-size:10px;font-family:&quot;DejaVu Sans&quot;;writing-mode:lr-tb;fill:#000;fill-opacity:1;fill-rule:nonzero;stroke:none">0.6</tspan></text><path d="M43.778 312.573h395.113" clip-path="url(#s)" style="fill:none;stroke:#b0b0b0;stroke-width:.8;stroke-linecap:square;stroke-linejoin:round;stroke-miterlimit:10;stroke-dasharray:none;stroke-opacity:1" transform="matrix(1.33333 0 0 -1.33333 0 591.142)"/><path d="M43.778 312.573h-3.5" style="fill:#000;fill-opacity:1;fill-rule:nonzero;stroke:#000;stroke-width:.8;stroke-linecap:butt;stroke-linejoin:round;stroke-miterlimit:10;stroke-dasharray:none;stroke-opacity:1" transform="matrix(1.33333 0 0 -1.33333 0 591.142)"/><text xml:space="preserve" transform="translate(27.83 179.44)scale(1.33333)"><tspan x="0" y="0" style="font-variant:normal;font-weight:400;font-size:10px;font-family:&quot;DejaVu Sans&quot;;writing-mode:lr-tb;fill:#000;fill-opacity:1;fill-rule:nonzero;stroke:none">0.7</tspan></text><path d="M43.778 351.31h395.113" clip-path="url(#t)" style="fill:none;stroke:#b0b0b0;stroke-width:.8;stroke-linecap:square;stroke-linejoin:round;stroke-miterlimit:10;stroke-dasharray:none;stroke-opacity:1" transform="matrix(1.33333 0 0 -1.33333 0 591.142)"/><path d="M43.778 351.31h-3.5" style="fill:#000;fill-opacity:1;fill-rule:nonzero;stroke:#000;stroke-width:.8;stroke-linecap:butt;stroke-linejoin:round;stroke-miterlimit:10;stroke-dasharray:none;stroke-opacity:1" transform="matrix(1.33333 0 0 -1.33333 0 591.142)"/><text xml:space="preserve" transform="translate(27.83 127.791)scale(1.33333)"><tspan x="0" y="0" style="font-variant:normal;font-weight:400;font-size:10px;font-family:&quot;DejaVu Sans&quot;;writing-mode:lr-tb;fill:#000;fill-opacity:1;fill-rule:nonzero;stroke:none">0.8</tspan></text><path d="M43.778 390.046h395.113" clip-path="url(#u)" style="fill:none;stroke:#b0b0b0;stroke-width:.8;stroke-linecap:square;stroke-linejoin:round;stroke-miterlimit:10;stroke-dasharray:none;stroke-opacity:1" transform="matrix(1.33333 0 0 -1.33333 0 591.142)"/><path d="M43.778 390.046h-3.5" style="fill:#000;fill-opacity:1;fill-rule:nonzero;stroke:#000;stroke-width:.8;stroke-linecap:butt;stroke-linejoin:round;stroke-miterlimit:10;stroke-dasharray:none;stroke-opacity:1" transform="matrix(1.33333 0 0 -1.33333 0 591.142)"/><text xml:space="preserve" transform="translate(27.83 76.143)scale(1.33333)"><tspan x="0" y="0" style="font-variant:normal;font-weight:400;font-size:10px;font-family:&quot;DejaVu Sans&quot;;writing-mode:lr-tb;fill:#000;fill-opacity:1;fill-rule:nonzero;stroke:none">0.9</tspan></text><path d="M43.778 428.783h395.113" clip-path="url(#v)" style="fill:none;stroke:#b0b0b0;stroke-width:.8;stroke-linecap:square;stroke-linejoin:round;stroke-miterlimit:10;stroke-dasharray:none;stroke-opacity:1" transform="matrix(1.33333 0 0 -1.33333 0 591.142)"/><path d="M43.778 428.783h-3.5" style="fill:#000;fill-opacity:1;fill-rule:nonzero;stroke:#000;stroke-width:.8;stroke-linecap:butt;stroke-linejoin:round;stroke-miterlimit:10;stroke-dasharray:none;stroke-opacity:1" transform="matrix(1.33333 0 0 -1.33333 0 591.142)"/><text xml:space="preserve" transform="translate(27.83 24.494)scale(1.33333)"><tspan x="0" y="0" style="font-variant:normal;font-weight:400;font-size:10px;font-family:&quot;DejaVu Sans&quot;;writing-mode:lr-tb;fill:#000;fill-opacity:1;fill-rule:nonzero;stroke:none">1.0</tspan></text><text xml:space="preserve" transform="rotate(-90 179.09 159.366)scale(1.33333)"><tspan x="0" y="0" style="font-variant:normal;font-weight:400;font-size:10px;font-family:&quot;DejaVu Sans&quot;;writing-mode:lr-tb;fill:#000;fill-opacity:1;fill-rule:nonzero;stroke:none">True Positive Rate</tspan></text><path d="m47.652 41.417 3.913 78.636 3.912 83.283 3.913 3.486 3.913 41.448 3.913 40.674 3.912 3.099 3.913 13.557 3.913 8.91 3.913 2.711 3.913 8.91 3.912 9.297 3.913 4.26 3.913 8.523 3.913.387 3.912 3.31 3.913 2.5 3.913 1.55 3.913 2.289 3.913 3.17 3.912.739 3.913 5.81 3.913 1.937 3.913 1.162 3.912 1.55 3.913.387 3.913 1.162 3.913.775 3.913.387 3.912.388 3.913 1.549 3.913.387 3.913.775 3.913.775h11.738l3.913.775 3.912.387h3.913l3.913.387 3.913.388 3.913 1.162 3.912 1.937 3.913 1.162 3.913.387 3.913 1.162h7.825l3.913 1.162 3.913.388 3.913.774 3.912 1.162 3.913 1.163 3.913.387 3.913 1.55 3.912.774 3.913.775 3.913 1.162 3.913 1.162 3.913.775 3.912.387 3.913 1.55 3.913 1.936 3.913.564 3.912 1.901 3.913 2.571 3.913.387 3.913 1.55 3.913.352 3.912.035 3.913.916 3.913 1.021 3.913 1.162 3.912.775 3.913.387 3.913.141 3.913 2.57 3.913 1.022 3.912 1.021 3.913.634 3.913.247 3.913.634 3.912.317 3.913.387 3.913.775 3.913.387 3.913.387 3.912 1.162 3.913.775 3.913.388h3.913l3.913.387h11.738l3.913 2.711 3.912.388 3.913.775h3.913" clip-path="url(#w)" style="fill:none;stroke:#1f77b4;stroke-width:2;stroke-linecap:square;stroke-linejoin:round;stroke-miterlimit:10;stroke-dasharray:none;stroke-opacity:.8" transform="matrix(1.33333 0 0 -1.33333 0 591.142)"/><path d="M118.082 356.247a2 2 0 1 1 0 4 2 2 0 0 1 0-4z" clip-path="url(#x)" style="fill:#1f77b4;fill-opacity:.8;fill-rule:nonzero;stroke:#1f77b4;stroke-width:1;stroke-linecap:butt;stroke-linejoin:round;stroke-miterlimit:10;stroke-dasharray:none;stroke-opacity:.8" transform="matrix(1.33333 0 0 -1.33333 0 591.142)"/><path d="m47.652 41.417 3.913 73.212 3.912 85.608 3.913 2.712 3.913 40.673 3.913 65.465 3.912 4.26 3.913 5.424 3.913 10.071 3.913.775 3.913 2.712 3.912 5.423 3.913 1.937 3.913 4.26 3.913.775 3.912 2.712 3.913 5.036 3.913 1.479 3.913 3.697 3.913 5.283 3.912.774 3.913 1.55 3.913 1.937 3.913.774 3.912.388 3.913.387 3.913.387 3.913 1.937 3.913 1.162 3.912 2.324 3.913.775 3.913.388 3.913 1.549 3.913.387 3.912.775 3.913.387h7.826l3.912.775h3.913l3.913.388 3.913 1.162 3.913.387 3.912.775h7.826l3.913.774h3.912l3.913 1.163 3.913.387 3.913 1.937 3.913 3.486 3.912 1.937 3.913 1.162 3.913 1.55 3.913 1.162 3.912.387h11.739l3.913.387 3.912.775 3.913.775 3.913 3.486h3.913l3.912 1.937 3.913 1.162 3.913 2.324 3.913.775 3.913 1.479 3.912 2.007 3.913 1.55h3.913l3.913.387 3.912.775 3.913.563 3.913 1.127 3.913 1.409 3.913.387 3.912.387 3.913 1.092 3.913 1.056 3.913.177h7.825l3.913.387 3.913.387 3.913 1.162 3.912 1.937 3.913.388 3.913.105 3.913.282h11.738l3.913.387 3.913 3.487h11.738" clip-path="url(#y)" style="fill:none;stroke:#ff7f0e;stroke-width:2;stroke-linecap:square;stroke-linejoin:round;stroke-miterlimit:10;stroke-dasharray:none;stroke-opacity:.8" transform="matrix(1.33333 0 0 -1.33333 0 591.142)"/><path d="M118.082 355.648a2 2 0 1 1 0 4 2 2 0 0 1 0-4z" clip-path="url(#z)" style="fill:#ff7f0e;fill-opacity:.8;fill-rule:nonzero;stroke:#ff7f0e;stroke-width:1;stroke-linecap:butt;stroke-linejoin:round;stroke-miterlimit:10;stroke-dasharray:none;stroke-opacity:.8" transform="matrix(1.33333 0 0 -1.33333 0 591.142)"/><path d="m47.652 41.417 3.913 80.96 3.912 81.734 3.913 5.036 3.913 44.16 3.913 51.519 3.912 3.486 3.913 4.261 3.913 11.234 3.913 1.162 3.913 4.26 3.912 8.91 3.913 2.324 3.913 3.487h3.913l3.912 1.76 3.913 4.05 3.913 1.162 3.913 4.79 3.913 4.155 3.912 1.69 3.913 3.451 3.913 1.021 3.913 1.55 3.912 2.324h3.913l3.913 1.162 3.913 1.55 3.913 1.162 3.912 1.162 3.913 2.324 3.913.775 3.913.387 3.913 1.937h3.912l3.913.775 3.913.387h3.913l3.912 1.162 3.913.775 3.913 1.162 3.913 2.324 3.913 1.162 3.912.775 3.913.387h3.913l3.913 1.937 3.912.775 3.913.387h7.826l3.913 1.55 3.912.387 3.913.387 3.913.775 3.913 1.55 3.912 1.162h3.913l3.913.387 3.913 2.324 3.913.775 3.912.387 3.913.388 3.913.81 3.913.74 3.912.915 3.913 1.021 3.913 1.162 3.913 1.937 3.913.352 3.912.423 3.913 1.162 3.913.634 3.913 1.479 3.912.598 3.913.775 3.913.528 3.913 1.022 3.913.387 3.912.775 3.913 1.127 3.913 1.02 3.913.177 3.912.387 3.913.775h3.913l3.913.387h3.913l3.912 1.937h3.913l3.913.387 3.913.775 3.913.775h3.912l3.913.387h3.913l3.913 2.324 3.912 1.163h7.826" clip-path="url(#A)" style="fill:none;stroke:#2ca02c;stroke-width:2;stroke-linecap:square;stroke-linejoin:round;stroke-miterlimit:10;stroke-dasharray:none;stroke-opacity:.8" transform="matrix(1.33333 0 0 -1.33333 0 591.142)"/><path d="M118.082 353.711a2 2 0 1 1 0 4 2 2 0 0 1 0-4z" clip-path="url(#B)" style="fill:#2ca02c;fill-opacity:.8;fill-rule:nonzero;stroke:#2ca02c;stroke-width:1;stroke-linecap:butt;stroke-linejoin:round;stroke-miterlimit:10;stroke-dasharray:none;stroke-opacity:.8" transform="matrix(1.33333 0 0 -1.33333 0 591.142)"/><path d="m47.652 41.417 387.365 387.366" clip-path="url(#C)" style="fill:none;stroke:#c31;stroke-width:2;stroke-linecap:butt;stroke-linejoin:round;stroke-miterlimit:10;stroke-dasharray:7.4,3.2;stroke-dashoffset:0;stroke-opacity:.8" transform="matrix(1.33333 0 0 -1.33333 0 591.142)"/><path d="M361.172 42.544h70.719q2 0 2 2v43.015q0 2-2 2h-70.72q-1.999 0-2-2V44.544q.001-2 2-2z" style="fill:#fff;fill-opacity:.8;fill-rule:nonzero;stroke:#ccc;stroke-width:1;stroke-linecap:butt;stroke-linejoin:miter;stroke-miterlimit:10;stroke-dasharray:none;stroke-opacity:.8" transform="matrix(1.33333 0 0 -1.33333 0 591.142)"/><path d="M363.172 81.466h20" style="fill:none;stroke:#1f77b4;stroke-width:2;stroke-linecap:square;stroke-linejoin:round;stroke-miterlimit:10;stroke-dasharray:none;stroke-opacity:.8" transform="matrix(1.33333 0 0 -1.33333 0 591.142)"/><path d="M373.172 79.466a2 2 0 1 1 0 4 2 2 0 0 1 0-4z" style="fill:#1f77b4;fill-opacity:.8;fill-rule:nonzero;stroke:#1f77b4;stroke-width:1;stroke-linecap:butt;stroke-linejoin:round;stroke-miterlimit:10;stroke-dasharray:none;stroke-opacity:.8" transform="matrix(1.33333 0 0 -1.33333 0 591.142)"/><text xml:space="preserve" transform="translate(521.562 487.187)scale(1.33333)"><tspan x="0" y="0" style="font-variant:normal;font-weight:400;font-size:10px;font-family:&quot;DejaVu Sans&quot;;writing-mode:lr-tb;fill:#000;fill-opacity:1;fill-rule:nonzero;stroke:none">DES</tspan></text><path d="M363.172 66.794h20" style="fill:none;stroke:#ff7f0e;stroke-width:2;stroke-linecap:square;stroke-linejoin:round;stroke-miterlimit:10;stroke-dasharray:none;stroke-opacity:.8" transform="matrix(1.33333 0 0 -1.33333 0 591.142)"/><path d="M373.172 64.794a2 2 0 1 1 0 4 2 2 0 0 1 0-4z" style="fill:#ff7f0e;fill-opacity:.8;fill-rule:nonzero;stroke:#ff7f0e;stroke-width:1;stroke-linecap:butt;stroke-linejoin:round;stroke-miterlimit:10;stroke-dasharray:none;stroke-opacity:.8" transform="matrix(1.33333 0 0 -1.33333 0 591.142)"/><text xml:space="preserve" transform="translate(521.562 506.75)scale(1.33333)"><tspan x="0" y="0" style="font-variant:normal;font-weight:400;font-size:10px;font-family:&quot;DejaVu Sans&quot;;writing-mode:lr-tb;fill:#000;fill-opacity:1;fill-rule:nonzero;stroke:none">CMA-ES</tspan></text><path d="M363.172 52.122h20" style="fill:none;stroke:#2ca02c;stroke-width:2;stroke-linecap:square;stroke-linejoin:round;stroke-miterlimit:10;stroke-dasharray:none;stroke-opacity:.8" transform="matrix(1.33333 0 0 -1.33333 0 591.142)"/><path d="M373.172 50.122a2 2 0 1 1 0 4 2 2 0 0 1 0-4z" style="fill:#2ca02c;fill-opacity:.8;fill-rule:nonzero;stroke:#2ca02c;stroke-width:1;stroke-linecap:butt;stroke-linejoin:round;stroke-miterlimit:10;stroke-dasharray:none;stroke-opacity:.8" transform="matrix(1.33333 0 0 -1.33333 0 591.142)"/><text xml:space="preserve" transform="translate(521.562 526.312)scale(1.33333)"><tspan x="0" y="0" style="font-variant:normal;font-weight:400;font-size:10px;font-family:&quot;DejaVu Sans&quot;;writing-mode:lr-tb;fill:#000;fill-opacity:1;fill-rule:nonzero;stroke:none">jSO</tspan></text></svg>