<?xml version="1.0" encoding="UTF-8" standalone="no"?>
<!-- Created with Inkscape (http://www.inkscape.org/) -->

<svg
   version="1.1"
   id="svg1"
   width="962.40002"
   height="591.14166"
   viewBox="0 0 962.40002 591.14166"
   xmlns="http://www.w3.org/2000/svg"
   xmlns:svg="http://www.w3.org/2000/svg">
  <defs
     id="defs1">
    <clipPath
       clipPathUnits="userSpaceOnUse"
       id="clipPath2">
      <path
         d="M 51.6375,42.54375 H 711.1 V 434.15624 H 51.6375 Z"
         id="path2" />
    </clipPath>
    <clipPath
       clipPathUnits="userSpaceOnUse"
       id="clipPath5">
      <path
         d="M 51.6375,42.54375 H 711.1 V 434.15624 H 51.6375 Z"
         id="path5" />
    </clipPath>
    <clipPath
       clipPathUnits="userSpaceOnUse"
       id="clipPath8">
      <path
         d="M 51.6375,42.54375 H 711.1 V 434.15624 H 51.6375 Z"
         id="path8" />
    </clipPath>
    <clipPath
       clipPathUnits="userSpaceOnUse"
       id="clipPath11">
      <path
         d="M 51.6375,42.54375 H 711.1 V 434.15624 H 51.6375 Z"
         id="path11" />
    </clipPath>
    <clipPath
       clipPathUnits="userSpaceOnUse"
       id="clipPath14">
      <path
         d="M 51.6375,42.54375 H 711.1 V 434.15624 H 51.6375 Z"
         id="path14" />
    </clipPath>
    <clipPath
       clipPathUnits="userSpaceOnUse"
       id="clipPath17">
      <path
         d="M 51.6375,42.54375 H 711.1 V 434.15624 H 51.6375 Z"
         id="path17" />
    </clipPath>
    <clipPath
       clipPathUnits="userSpaceOnUse"
       id="clipPath19">
      <path
         d="M 51.6375,42.54375 H 711.1 V 434.15624 H 51.6375 Z"
         id="path19" />
    </clipPath>
    <clipPath
       clipPathUnits="userSpaceOnUse"
       id="clipPath21">
      <path
         d="M 51.6375,42.54375 H 711.1 V 434.15624 H 51.6375 Z"
         id="path21" />
    </clipPath>
    <clipPath
       clipPathUnits="userSpaceOnUse"
       id="clipPath23">
      <path
         d="M 51.6375,42.54375 H 711.1 V 434.15624 H 51.6375 Z"
         id="path23" />
    </clipPath>
    <clipPath
       clipPathUnits="userSpaceOnUse"
       id="clipPath25">
      <path
         d="M 51.6375,42.54375 H 711.1 V 434.15624 H 51.6375 Z"
         id="path25" />
    </clipPath>
    <clipPath
       clipPathUnits="userSpaceOnUse"
       id="clipPath27">
      <path
         d="M 51.6375,42.54375 H 711.1 V 434.15624 H 51.6375 Z"
         id="path27" />
    </clipPath>
    <clipPath
       clipPathUnits="userSpaceOnUse"
       id="clipPath29">
      <path
         d="M 51.6375,42.54375 H 711.1 V 434.15624 H 51.6375 Z"
         id="path29" />
    </clipPath>
    <clipPath
       clipPathUnits="userSpaceOnUse"
       id="clipPath31">
      <path
         d="M 51.6375,42.54375 H 711.1 V 434.15624 H 51.6375 Z"
         id="path31" />
    </clipPath>
    <clipPath
       clipPathUnits="userSpaceOnUse"
       id="clipPath33">
      <path
         d="M 51.6375,42.54375 H 711.1 V 434.15624 H 51.6375 Z"
         id="path33" />
    </clipPath>
    <clipPath
       clipPathUnits="userSpaceOnUse"
       id="clipPath35">
      <path
         d="M 51.6375,42.54375 H 711.1 V 434.15624 H 51.6375 Z"
         id="path35" />
    </clipPath>
    <clipPath
       clipPathUnits="userSpaceOnUse"
       id="clipPath37">
      <path
         d="M 51.6375,42.54375 H 711.1 V 434.15624 H 51.6375 Z"
         id="path37" />
    </clipPath>
    <clipPath
       clipPathUnits="userSpaceOnUse"
       id="clipPath39">
      <path
         d="M 51.6375,42.54375 H 711.1 V 434.15624 H 51.6375 Z"
         id="path39" />
    </clipPath>
  </defs>
  <g
     id="g1">
    <path
       id="path1"
       d="M 81.613068,42.54375 V 434.15624"
       style="fill:none;stroke:#e6e6e6;stroke-width:1;stroke-linecap:square;stroke-linejoin:round;stroke-miterlimit:10;stroke-dasharray:none;stroke-opacity:1"
       transform="matrix(1.3333333,0,0,-1.3333333,0,591.14166)"
       clip-path="url(#clipPath2)" />
    <path
       id="path3"
       d="m 81.613068,37.54375 v -3.5"
       style="fill:#000000;fill-opacity:1;fill-rule:nonzero;stroke:#000000;stroke-width:0.8;stroke-linecap:butt;stroke-linejoin:round;stroke-miterlimit:10;stroke-dasharray:none;stroke-opacity:1"
       transform="matrix(1.3333333,0,0,-1.3333333,0,591.14166)" />
    <text
       id="text3"
       xml:space="preserve"
       transform="matrix(1.3333333,0,0,1.3333333,104.57784,560.54166)"><tspan
         id="tspan3"
         style="font-variant:normal;font-weight:normal;font-size:10px;font-family:'DejaVu Sans';writing-mode:lr-tb;fill:#000000;fill-opacity:1;fill-rule:nonzero;stroke:none"
         x="0"
         y="0">0</tspan></text>
    <path
       id="path4"
       d="M 211.94162,42.54375 V 434.15624"
       style="fill:none;stroke:#e6e6e6;stroke-width:1;stroke-linecap:square;stroke-linejoin:round;stroke-miterlimit:10;stroke-dasharray:none;stroke-opacity:1"
       transform="matrix(1.3333333,0,0,-1.3333333,0,591.14166)"
       clip-path="url(#clipPath5)" />
    <path
       id="path6"
       d="m 211.94162,37.54375 v -3.5"
       style="fill:#000000;fill-opacity:1;fill-rule:nonzero;stroke:#000000;stroke-width:0.8;stroke-linecap:butt;stroke-linejoin:round;stroke-miterlimit:10;stroke-dasharray:none;stroke-opacity:1"
       transform="matrix(1.3333333,0,0,-1.3333333,0,591.14166)" />
    <text
       id="text6"
       xml:space="preserve"
       transform="matrix(1.3333333,0,0,1.3333333,274.10967,560.54166)"><tspan
         id="tspan6"
         style="font-variant:normal;font-weight:normal;font-size:10px;font-family:'DejaVu Sans';writing-mode:lr-tb;fill:#000000;fill-opacity:1;fill-rule:nonzero;stroke:none"
         x="0"
         y="0">10</tspan></text>
    <path
       id="path7"
       d="M 342.27018,42.54375 V 434.15624"
       style="fill:none;stroke:#e6e6e6;stroke-width:1;stroke-linecap:square;stroke-linejoin:round;stroke-miterlimit:10;stroke-dasharray:none;stroke-opacity:1"
       transform="matrix(1.3333333,0,0,-1.3333333,0,591.14166)"
       clip-path="url(#clipPath8)" />
    <path
       id="path9"
       d="m 342.27018,37.54375 v -3.5"
       style="fill:#000000;fill-opacity:1;fill-rule:nonzero;stroke:#000000;stroke-width:0.8;stroke-linecap:butt;stroke-linejoin:round;stroke-miterlimit:10;stroke-dasharray:none;stroke-opacity:1"
       transform="matrix(1.3333333,0,0,-1.3333333,0,591.14166)" />
    <text
       id="text9"
       xml:space="preserve"
       transform="matrix(1.3333333,0,0,1.3333333,447.88108,560.54166)"><tspan
         id="tspan9"
         style="font-variant:normal;font-weight:normal;font-size:10px;font-family:'DejaVu Sans';writing-mode:lr-tb;fill:#000000;fill-opacity:1;fill-rule:nonzero;stroke:none"
         x="0"
         y="0">20</tspan></text>
    <path
       id="path10"
       d="M 472.59874,42.54375 V 434.15624"
       style="fill:none;stroke:#e6e6e6;stroke-width:1;stroke-linecap:square;stroke-linejoin:round;stroke-miterlimit:10;stroke-dasharray:none;stroke-opacity:1"
       transform="matrix(1.3333333,0,0,-1.3333333,0,591.14166)"
       clip-path="url(#clipPath11)" />
    <path
       id="path12"
       d="m 472.59874,37.54375 v -3.5"
       style="fill:#000000;fill-opacity:1;fill-rule:nonzero;stroke:#000000;stroke-width:0.8;stroke-linecap:butt;stroke-linejoin:round;stroke-miterlimit:10;stroke-dasharray:none;stroke-opacity:1"
       transform="matrix(1.3333333,0,0,-1.3333333,0,591.14166)" />
    <text
       id="text12"
       xml:space="preserve"
       transform="matrix(1.3333333,0,0,1.3333333,621.65249,560.54166)"><tspan
         id="tspan12"
         style="font-variant:normal;font-weight:normal;font-size:10px;font-family:'DejaVu Sans';writing-mode:lr-tb;fill:#000000;fill-opacity:1;fill-rule:nonzero;stroke:none"
         x="0"
         y="0">30</tspan></text>
    <path
       id="path13"
       d="M 602.9273,42.54375 V 434.15624"
       style="fill:none;stroke:#e6e6e6;stroke-width:1;stroke-linecap:square;stroke-linejoin:round;stroke-miterlimit:10;stroke-dasharray:none;stroke-opacity:1"
       transform="matrix(1.3333333,0,0,-1.3333333,0,591.14166)"
       clip-path="url(#clipPath14)" />
    <path
       id="path15"
       d="m 602.9273,37.54375 v -3.5"
       style="fill:#000000;fill-opacity:1;fill-rule:nonzero;stroke:#000000;stroke-width:0.8;stroke-linecap:butt;stroke-linejoin:round;stroke-miterlimit:10;stroke-dasharray:none;stroke-opacity:1"
       transform="matrix(1.3333333,0,0,-1.3333333,0,591.14166)" />
    <text
       id="text15"
       xml:space="preserve"
       transform="matrix(1.3333333,0,0,1.3333333,795.4239,560.54166)"><tspan
         id="tspan15"
         style="font-variant:normal;font-weight:normal;font-size:10px;font-family:'DejaVu Sans';writing-mode:lr-tb;fill:#000000;fill-opacity:1;fill-rule:nonzero;stroke:none"
         x="0"
         y="0">40</tspan></text>
    <text
       id="text16"
       xml:space="preserve"
       transform="matrix(1.3333333,0,0,1.3333333,488.17917,578.77082)"><tspan
         id="tspan16"
         style="font-variant:normal;font-weight:normal;font-size:10px;font-family:'DejaVu Sans';writing-mode:lr-tb;fill:#000000;fill-opacity:1;fill-rule:nonzero;stroke:none"
         x="0"
         y="0">epoch</tspan></text>
    <path
       id="path16"
       d="M 51.6375,96.927561 H 711.1"
       style="fill:none;stroke:#e6e6e6;stroke-width:1;stroke-linecap:square;stroke-linejoin:round;stroke-miterlimit:10;stroke-dasharray:none;stroke-opacity:1"
       transform="matrix(1.3333333,0,0,-1.3333333,0,591.14166)"
       clip-path="url(#clipPath17)" />
    <text
       id="text17"
       xml:space="preserve"
       transform="matrix(1.3333333,0,0,1.3333333,27.829167,466.96741)"><tspan
         id="tspan17"
         style="font-variant:normal;font-weight:normal;font-size:10px;font-family:'DejaVu Sans';writing-mode:lr-tb;fill:#000000;fill-opacity:1;fill-rule:nonzero;stroke:none"
         x="0"
         y="0">0.68</tspan></text>
    <path
       id="path18"
       d="M 51.6375,161.28852 H 711.1"
       style="fill:none;stroke:#e6e6e6;stroke-width:1;stroke-linecap:square;stroke-linejoin:round;stroke-miterlimit:10;stroke-dasharray:none;stroke-opacity:1"
       transform="matrix(1.3333333,0,0,-1.3333333,0,591.14166)"
       clip-path="url(#clipPath19)" />
    <text
       id="text19"
       xml:space="preserve"
       transform="matrix(1.3333333,0,0,1.3333333,27.829167,381.15279)"><tspan
         id="tspan19"
         style="font-variant:normal;font-weight:normal;font-size:10px;font-family:'DejaVu Sans';writing-mode:lr-tb;fill:#000000;fill-opacity:1;fill-rule:nonzero;stroke:none"
         x="0"
         y="0">0.70</tspan></text>
    <path
       id="path20"
       d="M 51.6375,225.64949 H 711.1"
       style="fill:none;stroke:#e6e6e6;stroke-width:1;stroke-linecap:square;stroke-linejoin:round;stroke-miterlimit:10;stroke-dasharray:none;stroke-opacity:1"
       transform="matrix(1.3333333,0,0,-1.3333333,0,591.14166)"
       clip-path="url(#clipPath21)" />
    <text
       id="text21"
       xml:space="preserve"
       transform="matrix(1.3333333,0,0,1.3333333,27.829167,295.33817)"><tspan
         id="tspan21"
         style="font-variant:normal;font-weight:normal;font-size:10px;font-family:'DejaVu Sans';writing-mode:lr-tb;fill:#000000;fill-opacity:1;fill-rule:nonzero;stroke:none"
         x="0"
         y="0">0.72</tspan></text>
    <path
       id="path22"
       d="M 51.6375,290.01045 H 711.1"
       style="fill:none;stroke:#e6e6e6;stroke-width:1;stroke-linecap:square;stroke-linejoin:round;stroke-miterlimit:10;stroke-dasharray:none;stroke-opacity:1"
       transform="matrix(1.3333333,0,0,-1.3333333,0,591.14166)"
       clip-path="url(#clipPath23)" />
    <text
       id="text23"
       xml:space="preserve"
       transform="matrix(1.3333333,0,0,1.3333333,27.829167,209.52355)"><tspan
         id="tspan23"
         style="font-variant:normal;font-weight:normal;font-size:10px;font-family:'DejaVu Sans';writing-mode:lr-tb;fill:#000000;fill-opacity:1;fill-rule:nonzero;stroke:none"
         x="0"
         y="0">0.74</tspan></text>
    <path
       id="path24"
       d="M 51.6375,354.37142 H 711.1"
       style="fill:none;stroke:#e6e6e6;stroke-width:1;stroke-linecap:square;stroke-linejoin:round;stroke-miterlimit:10;stroke-dasharray:none;stroke-opacity:1"
       transform="matrix(1.3333333,0,0,-1.3333333,0,591.14166)"
       clip-path="url(#clipPath25)" />
    <text
       id="text25"
       xml:space="preserve"
       transform="matrix(1.3333333,0,0,1.3333333,27.829167,123.70893)"><tspan
         id="tspan25"
         style="font-variant:normal;font-weight:normal;font-size:10px;font-family:'DejaVu Sans';writing-mode:lr-tb;fill:#000000;fill-opacity:1;fill-rule:nonzero;stroke:none"
         x="0"
         y="0">0.76</tspan></text>
    <path
       id="path26"
       d="M 51.6375,418.73238 H 711.1"
       style="fill:none;stroke:#e6e6e6;stroke-width:1;stroke-linecap:square;stroke-linejoin:round;stroke-miterlimit:10;stroke-dasharray:none;stroke-opacity:1"
       transform="matrix(1.3333333,0,0,-1.3333333,0,591.14166)"
       clip-path="url(#clipPath27)" />
    <text
       id="text27"
       xml:space="preserve"
       transform="matrix(1.3333333,0,0,1.3333333,27.829167,37.894315)"><tspan
         id="tspan27"
         style="font-variant:normal;font-weight:normal;font-size:10px;font-family:'DejaVu Sans';writing-mode:lr-tb;fill:#000000;fill-opacity:1;fill-rule:nonzero;stroke:none"
         x="0"
         y="0">0.78</tspan></text>
    <text
       id="text28"
       xml:space="preserve"
       transform="matrix(0,-1.3333333,1.3333333,0,19.725,292.08124)"><tspan
         id="tspan28"
         style="font-variant:normal;font-weight:normal;font-size:10px;font-family:'DejaVu Sans';writing-mode:lr-tb;fill:#000000;fill-opacity:1;fill-rule:nonzero;stroke:none"
         x="0"
         y="0">RAUC</tspan></text>
    <path
       id="path28"
       d="m 81.613068,107.10041 13.032856,100.88133 13.032856,39.91337 13.03286,19.22373 13.03285,17.03914 13.03286,18.36523 13.03285,-38.27162 13.03286,44.04269 13.03285,-13.66919 13.03286,-10.0476 13.03285,22.21281 13.03286,-3.93431 13.03286,-0.86882 13.03285,-5.16629 13.03286,17.34714 13.03285,-1.61019 13.03286,-15.57322 13.03286,26.6811 13.03285,-24.80451 13.03286,12.78681 13.03285,21.34605 13.03286,-0.33749 13.03285,-43.97808 13.03286,60.81455 13.03286,-10.63232 13.03285,-21.58944 13.03286,26.68847 13.03285,2.33238 13.03286,-6.2903 13.03285,13.49071 13.03286,6.78946 13.03286,-4.47861 13.03285,6.5151 13.03286,9.86941 13.03285,-25.32816 13.03286,10.35825 13.03286,13.13492"
       style="fill:none;stroke:#1f77b4;stroke-width:1.5;stroke-linecap:square;stroke-linejoin:round;stroke-miterlimit:10;stroke-dasharray:none;stroke-opacity:1"
       transform="matrix(1.3333333,0,0,-1.3333333,0,591.14166)"
       clip-path="url(#clipPath29)" />
    <path
       id="path30"
       d="m 81.613068,64.666499 13.032856,62.071061 13.032856,-24.9684 13.03286,65.08807 13.03285,13.48199 13.03286,47.36903 13.03285,-23.3133 13.03286,-18.91545 13.03285,-24.25907 13.03286,60.69023 13.03285,-0.51072 13.03286,-7.31082 13.03286,-11.75595 13.03285,11.8127 13.03286,-22.76475 13.03285,41.22623 13.03286,19.49237 13.03286,-66.19463 13.03285,71.95439 13.03286,-16.60777 13.03285,-14.10147 13.03286,-20.33411 13.03285,11.39656 13.03286,-20.1355 13.03286,58.95001 13.03285,-102.73928 13.03286,78.63153 13.03285,-10.21434 13.03286,7.84045 13.03285,-43.23126 13.03286,32.56295 13.03286,4.88019 13.03285,9.60905 13.03286,-60.73752 13.03285,58.79868 13.03286,18.10209 13.03286,-4.2276"
       style="fill:none;stroke:#1f77b4;stroke-width:1.5;stroke-linecap:butt;stroke-linejoin:round;stroke-miterlimit:10;stroke-dasharray:9.6, 2.4, 1.5, 2.4;stroke-dashoffset:0;stroke-opacity:1"
       transform="matrix(1.3333333,0,0,-1.3333333,0,591.14166)"
       clip-path="url(#clipPath31)" />
    <path
       id="path32"
       d="m 81.613068,83.485103 13.032856,107.421797 13.032856,53.64128 13.03286,29.34065 13.03285,19.31518 13.03286,16.15174 13.03285,-14.83864 13.03286,27.88092 13.03285,4.81965 13.03286,-5.50703 13.03285,14.59082 13.03286,1.71138 13.03286,7.56505 13.03285,-15.62012 13.03286,11.84895 13.03285,2.17986 13.03286,-12.38293 13.03286,22.97424 13.03285,-19.20248 13.03286,8.29757 13.03285,13.23612 13.03286,3.78444 13.03285,-10.65297 13.03286,22.17623 13.03286,-2.45304 13.03285,7.87865 13.03286,-6.66143 13.03285,6.53015 13.03286,-3.18144 13.03285,9.92546 13.03286,6.19914 13.03286,2.47635 13.03285,-6.83106 13.03286,8.44213 13.03285,2.14063 13.03286,-0.35166 13.03286,0.49769 13.03285,-1.9999 13.03286,-0.29148 13.03285,15.09559 13.03286,-6.03688 13.03285,-12.91395 13.03286,22.60872 13.03285,2.8044 13.03286,0.26079 13.03286,-1.49277 13.03285,-7.88662"
       style="fill:none;stroke:#ff7f0e;stroke-width:1.5;stroke-linecap:square;stroke-linejoin:round;stroke-miterlimit:10;stroke-dasharray:none;stroke-opacity:1"
       transform="matrix(1.3333333,0,0,-1.3333333,0,591.14166)"
       clip-path="url(#clipPath33)" />
    <path
       id="path34"
       d="m 81.613068,60.344318 13.032856,73.732432 13.032856,-14.82971 13.03286,58.392 13.03285,-1.24842 13.03286,35.85424 13.03285,-4.09519 13.03286,-19.89906 13.03285,-15.84169 13.03286,28.19348 13.03285,11.76541 13.03286,-4.54916 13.03286,-2.02396 13.03285,3.03593 13.03286,1.54161 13.03285,15.77549 13.03286,17.15632 13.03286,-52.65117 13.03285,53.01056 13.03286,1.02144 13.03285,-14.05419 13.03286,-3.13996 13.03285,-5.20175 13.03286,-22.22566 13.03286,44.88637 13.03285,-41.09382 13.03286,38.55915 13.03285,-24.87382 13.03286,17.26981 13.03285,-31.34291 13.03286,20.14496 13.03286,4.61537 13.03285,14.7446 13.03286,-22.53777 13.03285,20.52327 13.03286,3.58448 13.03286,-4.99368 13.03285,-9.49556 13.03286,5.51386 13.03285,-14.66894 13.03286,19.70045 13.03285,3.64122 13.03286,-41.54779 13.03285,33.75463 13.03286,-2.34552 13.03286,5.3247 13.03285,11.88836"
       style="fill:none;stroke:#ff7f0e;stroke-width:1.5;stroke-linecap:butt;stroke-linejoin:round;stroke-miterlimit:10;stroke-dasharray:9.6, 2.4, 1.5, 2.4;stroke-dashoffset:0;stroke-opacity:1"
       transform="matrix(1.3333333,0,0,-1.3333333,0,591.14166)"
       clip-path="url(#clipPath35)" />
    <path
       id="path36"
       d="m 81.613068,142.88181 13.032856,108.0611 13.032856,32.62622 13.03286,0.66851 13.03285,-11.58286 13.03286,39.30181 13.03285,-66.10445 13.03286,80.02706 13.03285,-26.21113 13.03286,-16.86892 13.03285,45.88888 13.03286,-10.58275 13.03286,8.3731 13.03285,-8.31144 13.03286,30.6393 13.03285,-11.2247 13.03286,-22.51992 13.03286,31.99902 13.03285,-34.17947 13.03286,22.06766 13.03285,24.15725 13.03286,6.18261 13.03285,-56.52474 13.03286,74.50174 13.03286,-6.49563 13.03285,-50.35305 13.03286,58.5397 13.03285,-12.37644 13.03286,-4.25057 13.03285,11.80205 13.03286,7.50782 13.03286,5.43829 13.03285,8.04062 13.03286,12.4086 13.03285,-42.40359 13.03286,30.5741"
       style="fill:none;stroke:#2ca02c;stroke-width:1.5;stroke-linecap:square;stroke-linejoin:round;stroke-miterlimit:10;stroke-dasharray:none;stroke-opacity:1"
       transform="matrix(1.3333333,0,0,-1.3333333,0,591.14166)"
       clip-path="url(#clipPath37)" />
    <path
       id="path38"
       d="m 81.613068,67.929415 13.032856,69.372425 13.032856,-63.366769 13.03286,63.792369 13.03285,12.19101 13.03286,90.0943 13.03285,-44.54589 13.03286,2.40226 13.03285,-59.43235 13.03286,76.23873 13.03285,-1.61727 13.03286,-1.98612 13.03286,-16.59831 13.03285,6.75281 13.03286,-23.76726 13.03285,61.05908 13.03286,22.07433 13.03286,-85.97073 13.03285,81.93228 13.03286,-16.15379 13.03285,-10.61157 13.03286,-39.4671 13.03285,6.50692 13.03286,-22.32024 13.03286,62.83714 13.03285,-123.70706 13.03286,109.41643 13.03285,-20.45706 13.03286,3.13051 13.03285,-43.79873 13.03286,51.904 13.03286,32.67645 13.03285,-21.03399 13.03286,-64.56317 13.03285,43.27383 13.03286,42.15309"
       style="fill:none;stroke:#2ca02c;stroke-width:1.5;stroke-linecap:butt;stroke-linejoin:round;stroke-miterlimit:10;stroke-dasharray:9.6, 2.4, 1.5, 2.4;stroke-dashoffset:0;stroke-opacity:1"
       transform="matrix(1.3333333,0,0,-1.3333333,0,591.14166)"
       clip-path="url(#clipPath39)" />
    <path
       id="path40"
       d="M 549.64688,47.54375 H 704.1 c 1.33333,0 2,0.666667 2,2 V 136.575 c 0,1.33333 -0.66667,2 -2,2 H 549.64688 c -1.33334,0 -2,-0.66667 -2,-2 V 49.54375 c 0,-1.333333 0.66666,-2 2,-2 z"
       style="fill:#ffffff;fill-opacity:0.8;fill-rule:nonzero;stroke:#cccccc;stroke-width:1;stroke-linecap:butt;stroke-linejoin:miter;stroke-miterlimit:10;stroke-dasharray:none;stroke-opacity:0.8"
       transform="matrix(1.3333333,0,0,-1.3333333,0,591.14166)" />
    <path
       id="path41"
       d="m 551.64688,130.48125 h 20"
       style="fill:none;stroke:#1f77b4;stroke-width:1.5;stroke-linecap:square;stroke-linejoin:round;stroke-miterlimit:10;stroke-dasharray:none;stroke-opacity:1"
       transform="matrix(1.3333333,0,0,-1.3333333,0,591.14166)" />
    <text
       id="text41"
       xml:space="preserve"
       transform="matrix(1.3333333,0,0,1.3333333,772.8625,421.83332)"><tspan
         id="tspan41"
         style="font-variant:normal;font-weight:normal;font-size:10px;font-family:'DejaVu Sans';writing-mode:lr-tb;fill:#000000;fill-opacity:1;fill-rule:nonzero;stroke:none"
         x="0"
         y="0">DES train RAUC</tspan></text>
    <path
       id="path42"
       d="m 551.64688,115.80937 h 20"
       style="fill:none;stroke:#1f77b4;stroke-width:1.5;stroke-linecap:butt;stroke-linejoin:round;stroke-miterlimit:10;stroke-dasharray:9.6, 2.4, 1.5, 2.4;stroke-dashoffset:0;stroke-opacity:1"
       transform="matrix(1.3333333,0,0,-1.3333333,0,591.14166)" />
    <text
       id="text42"
       xml:space="preserve"
       transform="matrix(1.3333333,0,0,1.3333333,772.8625,441.39582)"><tspan
         id="tspan42"
         style="font-variant:normal;font-weight:normal;font-size:10px;font-family:'DejaVu Sans';writing-mode:lr-tb;fill:#000000;fill-opacity:1;fill-rule:nonzero;stroke:none"
         x="0"
         y="0">DES validation RAUC</tspan></text>
    <path
       id="path43"
       d="m 551.64688,101.1375 h 20"
       style="fill:none;stroke:#ff7f0e;stroke-width:1.5;stroke-linecap:square;stroke-linejoin:round;stroke-miterlimit:10;stroke-dasharray:none;stroke-opacity:1"
       transform="matrix(1.3333333,0,0,-1.3333333,0,591.14166)" />
    <text
       id="text43"
       xml:space="preserve"
       transform="matrix(1.3333333,0,0,1.3333333,772.8625,460.95832)"><tspan
         id="tspan43"
         style="font-variant:normal;font-weight:normal;font-size:10px;font-family:'DejaVu Sans';writing-mode:lr-tb;fill:#000000;fill-opacity:1;fill-rule:nonzero;stroke:none"
         x="0"
         y="0">CMA-ES train RAUC</tspan></text>
    <path
       id="path44"
       d="m 551.64688,86.465625 h 20"
       style="fill:none;stroke:#ff7f0e;stroke-width:1.5;stroke-linecap:butt;stroke-linejoin:round;stroke-miterlimit:10;stroke-dasharray:9.6, 2.4, 1.5, 2.4;stroke-dashoffset:0;stroke-opacity:1"
       transform="matrix(1.3333333,0,0,-1.3333333,0,591.14166)" />
    <text
       id="text44"
       xml:space="preserve"
       transform="matrix(1.3333333,0,0,1.3333333,772.8625,480.52082)"><tspan
         id="tspan44"
         style="font-variant:normal;font-weight:normal;font-size:10px;font-family:'DejaVu Sans';writing-mode:lr-tb;fill:#000000;fill-opacity:1;fill-rule:nonzero;stroke:none"
         x="0"
         y="0">CMA-ES validation RAUC</tspan></text>
    <path
       id="path45"
       d="m 551.64688,71.79375 h 20"
       style="fill:none;stroke:#2ca02c;stroke-width:1.5;stroke-linecap:square;stroke-linejoin:round;stroke-miterlimit:10;stroke-dasharray:none;stroke-opacity:1"
       transform="matrix(1.3333333,0,0,-1.3333333,0,591.14166)" />
    <text
       id="text45"
       xml:space="preserve"
       transform="matrix(1.3333333,0,0,1.3333333,772.8625,500.08332)"><tspan
         id="tspan45"
         style="font-variant:normal;font-weight:normal;font-size:10px;font-family:'DejaVu Sans';writing-mode:lr-tb;fill:#000000;fill-opacity:1;fill-rule:nonzero;stroke:none"
         x="0"
         y="0">jSO train RAUC</tspan></text>
    <path
       id="path46"
       d="m 551.64688,57.121875 h 20"
       style="fill:none;stroke:#2ca02c;stroke-width:1.5;stroke-linecap:butt;stroke-linejoin:round;stroke-miterlimit:10;stroke-dasharray:9.6, 2.4, 1.5, 2.4;stroke-dashoffset:0;stroke-opacity:1"
       transform="matrix(1.3333333,0,0,-1.3333333,0,591.14166)" />
    <text
       id="text46"
       xml:space="preserve"
       transform="matrix(1.3333333,0,0,1.3333333,772.8625,519.64582)"><tspan
         id="tspan46"
         style="font-variant:normal;font-weight:normal;font-size:10px;font-family:'DejaVu Sans';writing-mode:lr-tb;fill:#000000;fill-opacity:1;fill-rule:nonzero;stroke:none"
         x="0"
         y="0">jSO validation RAUC</tspan></text>
  </g>
</svg>
