<svg xmlns="http://www.w3.org/2000/svg" width="962.4" height="598.875" viewBox="0 0 962.4 598.875"><defs><clipPath id="a" clipPathUnits="userSpaceOnUse"><path d="M51.638 42.544H711.1v391.612H51.638Z"/></clipPath><clipPath id="b" clipPathUnits="userSpaceOnUse"><path d="M51.638 42.544H711.1v391.612H51.638Z"/></clipPath><clipPath id="c" clipPathUnits="userSpaceOnUse"><path d="M51.638 42.544H711.1v391.612H51.638Z"/></clipPath><clipPath id="d" clipPathUnits="userSpaceOnUse"><path d="M51.638 42.544H711.1v391.612H51.638Z"/></clipPath><clipPath id="e" clipPathUnits="userSpaceOnUse"><path d="M51.638 42.544H711.1v391.612H51.638Z"/></clipPath><clipPath id="f" clipPathUnits="userSpaceOnUse"><path d="M51.638 42.544H711.1v391.612H51.638Z"/></clipPath><clipPath id="g" clipPathUnits="userSpaceOnUse"><path d="M51.638 42.544H711.1v391.612H51.638Z"/></clipPath><clipPath id="h" clipPathUnits="userSpaceOnUse"><path d="M51.638 42.544H711.1v391.612H51.638Z"/></clipPath><clipPath id="i" clipPathUnits="userSpaceOnUse"><path d="M51.638 42.544H711.1v391.612H51.638Z"/></clipPath><clipPath id="j" clipPathUnits="userSpaceOnUse"><path d="M51.638 42.544H711.1v391.612H51.638Z"/></clipPath><clipPath id="k" clipPathUnits="userSpaceOnUse"><path d="M51.638 42.544H711.1v391.612H51.638Z"/></clipPath><clipPath id="l" clipPathUnits="userSpaceOnUse"><path d="M51.638 42.544H711.1v391.612H51.638Z"/></clipPath><clipPath id="m" clipPathUnits="userSpaceOnUse"><path d="M51.638 42.544H711.1v391.612H51.638Z"/></clipPath><clipPath id="n" clipPathUnits="userSpaceOnUse"><path d="M51.638 42.544H711.1v391.612H51.638Z"/></clipPath><clipPath id="o" clipPathUnits="userSpaceOnUse"><path d="M51.638 42.544H711.1v391.612H51.638Z"/></clipPath><clipPath id="p" clipPathUnits="userSpaceOnUse"><path d="M51.638 42.544H711.1v391.612H51.638Z"/></clipPath><clipPath id="q" clipPathUnits="userSpaceOnUse"><path d="M51.638 42.544H711.1v391.612H51.638Z"/></clipPath><clipPath id="r" clipPathUnits="userSpaceOnUse"><path d="M51.638 42.544H711.1v391.612H51.638Z"/></clipPath><clipPath id="s" clipPathUnits="userSpaceOnUse"><path d="M51.638 42.544H711.1v391.612H51.638Z"/></clipPath><clipPath id="t" clipPathUnits="userSpaceOnUse"><path d="M51.638 42.544H711.1v391.612H51.638Z"/></clipPath><clipPath id="u" clipPathUnits="userSpaceOnUse"><path d="M51.638 42.544H711.1v391.612H51.638Z"/></clipPath><clipPath id="v" clipPathUnits="userSpaceOnUse"><path d="M51.638 42.544H711.1v391.612H51.638Z"/></clipPath><clipPath id="w" clipPathUnits="userSpaceOnUse"><path d="M51.638 42.544H711.1v391.612H51.638Z"/></clipPath><clipPath id="x" clipPathUnits="userSpaceOnUse"><path d="M51.638 42.544H711.1v391.612H51.638Z"/></clipPath><clipPath id="y" clipPathUnits="userSpaceOnUse"><path d="M51.638 42.544H711.1v391.612H51.638Z"/></clipPath><clipPath id="z" clipPathUnits="userSpaceOnUse"><path d="M51.638 42.544H711.1v391.612H51.638Z"/></clipPath><clipPath id="A" clipPathUnits="userSpaceOnUse"><path d="M51.638 42.544H711.1v391.612H51.638Z"/></clipPath><clipPath id="B" clipPathUnits="userSpaceOnUse"><path d="M51.638 42.544H711.1v391.612H51.638Z"/></clipPath><clipPath id="C" clipPathUnits="userSpaceOnUse"><path d="M51.638 42.544H711.1v391.612H51.638Z"/></clipPath><clipPath id="D" clipPathUnits="userSpaceOnUse"><path d="M51.638 42.544H711.1v391.612H51.638Z"/></clipPath><clipPath id="E" clipPathUnits="userSpaceOnUse"><path d="M51.638 42.544H711.1v391.612H51.638Z"/></clipPath><clipPath id="F" clipPathUnits="userSpaceOnUse"><path d="M51.638 42.544H711.1v391.612H51.638Z"/></clipPath><clipPath id="G" clipPathUnits="userSpaceOnUse"><path d="M51.638 42.544H711.1v391.612H51.638Z"/></clipPath><clipPath id="H" clipPathUnits="userSpaceOnUse"><path d="M51.638 42.544H711.1v391.612H51.638Z"/></clipPath></defs><path d="M73.827 42.544v391.612" clip-path="url(#a)" style="fill:none;stroke:#e6e6e6;stroke-width:1;stroke-linecap:square;stroke-linejoin:round;stroke-miterlimit:10;stroke-dasharray:none;stroke-opacity:1" transform="matrix(1.33333 0 0 -1.33333 0 598.875)"/><path d="M73.827 37.544v-3.5" style="fill:#000;fill-opacity:1;fill-rule:nonzero;stroke:#000;stroke-width:.8;stroke-linecap:butt;stroke-linejoin:round;stroke-miterlimit:10;stroke-dasharray:none;stroke-opacity:1" transform="matrix(1.33333 0 0 -1.33333 0 598.875)"/><text xml:space="preserve" transform="translate(94.197 568.275)scale(1.33333)"><tspan x="0" y="0" style="font-variant:normal;font-weight:400;font-size:10px;font-family:&quot;DejaVu Sans&quot;;writing-mode:lr-tb;fill:#000;fill-opacity:1;fill-rule:nonzero;stroke:none">0</tspan></text><path d="M151.686 42.544v391.612" clip-path="url(#b)" style="fill:none;stroke:#e6e6e6;stroke-width:1;stroke-linecap:square;stroke-linejoin:round;stroke-miterlimit:10;stroke-dasharray:none;stroke-opacity:1" transform="matrix(1.33333 0 0 -1.33333 0 598.875)"/><path d="M151.686 37.544v-3.5" style="fill:#000;fill-opacity:1;fill-rule:nonzero;stroke:#000;stroke-width:.8;stroke-linecap:butt;stroke-linejoin:round;stroke-miterlimit:10;stroke-dasharray:none;stroke-opacity:1" transform="matrix(1.33333 0 0 -1.33333 0 598.875)"/><text xml:space="preserve" transform="translate(193.769 568.275)scale(1.33333)"><tspan x="0" y="0" style="font-variant:normal;font-weight:400;font-size:10px;font-family:&quot;DejaVu Sans&quot;;writing-mode:lr-tb;fill:#000;fill-opacity:1;fill-rule:nonzero;stroke:none">10</tspan></text><path d="M229.544 42.544v391.612" clip-path="url(#c)" style="fill:none;stroke:#e6e6e6;stroke-width:1;stroke-linecap:square;stroke-linejoin:round;stroke-miterlimit:10;stroke-dasharray:none;stroke-opacity:1" transform="matrix(1.33333 0 0 -1.33333 0 598.875)"/><path d="M229.544 37.544v-3.5" style="fill:#000;fill-opacity:1;fill-rule:nonzero;stroke:#000;stroke-width:.8;stroke-linecap:butt;stroke-linejoin:round;stroke-miterlimit:10;stroke-dasharray:none;stroke-opacity:1" transform="matrix(1.33333 0 0 -1.33333 0 598.875)"/><text xml:space="preserve" transform="translate(297.58 568.275)scale(1.33333)"><tspan x="0" y="0" style="font-variant:normal;font-weight:400;font-size:10px;font-family:&quot;DejaVu Sans&quot;;writing-mode:lr-tb;fill:#000;fill-opacity:1;fill-rule:nonzero;stroke:none">20</tspan></text><path d="M307.403 42.544v391.612" clip-path="url(#d)" style="fill:none;stroke:#e6e6e6;stroke-width:1;stroke-linecap:square;stroke-linejoin:round;stroke-miterlimit:10;stroke-dasharray:none;stroke-opacity:1" transform="matrix(1.33333 0 0 -1.33333 0 598.875)"/><path d="M307.403 37.544v-3.5" style="fill:#000;fill-opacity:1;fill-rule:nonzero;stroke:#000;stroke-width:.8;stroke-linecap:butt;stroke-linejoin:round;stroke-miterlimit:10;stroke-dasharray:none;stroke-opacity:1" transform="matrix(1.33333 0 0 -1.33333 0 598.875)"/><text xml:space="preserve" transform="translate(401.392 568.275)scale(1.33333)"><tspan x="0" y="0" style="font-variant:normal;font-weight:400;font-size:10px;font-family:&quot;DejaVu Sans&quot;;writing-mode:lr-tb;fill:#000;fill-opacity:1;fill-rule:nonzero;stroke:none">30</tspan></text><path d="M385.262 42.544v391.612" clip-path="url(#e)" style="fill:none;stroke:#e6e6e6;stroke-width:1;stroke-linecap:square;stroke-linejoin:round;stroke-miterlimit:10;stroke-dasharray:none;stroke-opacity:1" transform="matrix(1.33333 0 0 -1.33333 0 598.875)"/><path d="M385.262 37.544v-3.5" style="fill:#000;fill-opacity:1;fill-rule:nonzero;stroke:#000;stroke-width:.8;stroke-linecap:butt;stroke-linejoin:round;stroke-miterlimit:10;stroke-dasharray:none;stroke-opacity:1" transform="matrix(1.33333 0 0 -1.33333 0 598.875)"/><text xml:space="preserve" transform="translate(505.203 568.275)scale(1.33333)"><tspan x="0" y="0" style="font-variant:normal;font-weight:400;font-size:10px;font-family:&quot;DejaVu Sans&quot;;writing-mode:lr-tb;fill:#000;fill-opacity:1;fill-rule:nonzero;stroke:none">40</tspan></text><path d="M463.12 42.544v391.612" clip-path="url(#f)" style="fill:none;stroke:#e6e6e6;stroke-width:1;stroke-linecap:square;stroke-linejoin:round;stroke-miterlimit:10;stroke-dasharray:none;stroke-opacity:1" transform="matrix(1.33333 0 0 -1.33333 0 598.875)"/><path d="M463.12 37.544v-3.5" style="fill:#000;fill-opacity:1;fill-rule:nonzero;stroke:#000;stroke-width:.8;stroke-linecap:butt;stroke-linejoin:round;stroke-miterlimit:10;stroke-dasharray:none;stroke-opacity:1" transform="matrix(1.33333 0 0 -1.33333 0 598.875)"/><text xml:space="preserve" transform="translate(609.015 568.275)scale(1.33333)"><tspan x="0" y="0" style="font-variant:normal;font-weight:400;font-size:10px;font-family:&quot;DejaVu Sans&quot;;writing-mode:lr-tb;fill:#000;fill-opacity:1;fill-rule:nonzero;stroke:none">50</tspan></text><path d="M540.979 42.544v391.612" clip-path="url(#g)" style="fill:none;stroke:#e6e6e6;stroke-width:1;stroke-linecap:square;stroke-linejoin:round;stroke-miterlimit:10;stroke-dasharray:none;stroke-opacity:1" transform="matrix(1.33333 0 0 -1.33333 0 598.875)"/><path d="M540.979 37.544v-3.5" style="fill:#000;fill-opacity:1;fill-rule:nonzero;stroke:#000;stroke-width:.8;stroke-linecap:butt;stroke-linejoin:round;stroke-miterlimit:10;stroke-dasharray:none;stroke-opacity:1" transform="matrix(1.33333 0 0 -1.33333 0 598.875)"/><text xml:space="preserve" transform="translate(712.826 568.275)scale(1.33333)"><tspan x="0" y="0" style="font-variant:normal;font-weight:400;font-size:10px;font-family:&quot;DejaVu Sans&quot;;writing-mode:lr-tb;fill:#000;fill-opacity:1;fill-rule:nonzero;stroke:none">60</tspan></text><path d="M618.838 42.544v391.612" clip-path="url(#h)" style="fill:none;stroke:#e6e6e6;stroke-width:1;stroke-linecap:square;stroke-linejoin:round;stroke-miterlimit:10;stroke-dasharray:none;stroke-opacity:1" transform="matrix(1.33333 0 0 -1.33333 0 598.875)"/><path d="M618.838 37.544v-3.5" style="fill:#000;fill-opacity:1;fill-rule:nonzero;stroke:#000;stroke-width:.8;stroke-linecap:butt;stroke-linejoin:round;stroke-miterlimit:10;stroke-dasharray:none;stroke-opacity:1" transform="matrix(1.33333 0 0 -1.33333 0 598.875)"/><text xml:space="preserve" transform="translate(816.638 568.275)scale(1.33333)"><tspan x="0" y="0" style="font-variant:normal;font-weight:400;font-size:10px;font-family:&quot;DejaVu Sans&quot;;writing-mode:lr-tb;fill:#000;fill-opacity:1;fill-rule:nonzero;stroke:none">70</tspan></text><path d="M696.696 42.544v391.612" clip-path="url(#i)" style="fill:none;stroke:#e6e6e6;stroke-width:1;stroke-linecap:square;stroke-linejoin:round;stroke-miterlimit:10;stroke-dasharray:none;stroke-opacity:1" transform="matrix(1.33333 0 0 -1.33333 0 598.875)"/><path d="M696.696 37.544v-3.5" style="fill:#000;fill-opacity:1;fill-rule:nonzero;stroke:#000;stroke-width:.8;stroke-linecap:butt;stroke-linejoin:round;stroke-miterlimit:10;stroke-dasharray:none;stroke-opacity:1" transform="matrix(1.33333 0 0 -1.33333 0 598.875)"/><text xml:space="preserve" transform="translate(920.449 568.275)scale(1.33333)"><tspan x="0" y="0" style="font-variant:normal;font-weight:400;font-size:10px;font-family:&quot;DejaVu Sans&quot;;writing-mode:lr-tb;fill:#000;fill-opacity:1;fill-rule:nonzero;stroke:none">80</tspan></text><text xml:space="preserve" transform="translate(471.283 586.504)scale(1.33333)"><tspan x="0" y="0" style="font-variant:normal;font-weight:400;font-size:10px;font-family:&quot;DejaVu Sans&quot;;writing-mode:lr-tb;fill:#000;fill-opacity:1;fill-rule:nonzero;stroke:none">Generation</tspan></text><path d="M51.638 92.25H711.1" clip-path="url(#j)" style="fill:none;stroke:#e6e6e6;stroke-width:1;stroke-linecap:square;stroke-linejoin:round;stroke-miterlimit:10;stroke-dasharray:none;stroke-opacity:1" transform="matrix(1.33333 0 0 -1.33333 0 598.875)"/><text xml:space="preserve" transform="translate(27.83 480.937)scale(1.33333)"><tspan x="0" y="0" style="font-variant:normal;font-weight:400;font-size:10px;font-family:&quot;DejaVu Sans&quot;;writing-mode:lr-tb;fill:#000;fill-opacity:1;fill-rule:nonzero;stroke:none">0.64</tspan></text><path d="M51.638 165.931H711.1" clip-path="url(#k)" style="fill:none;stroke:#e6e6e6;stroke-width:1;stroke-linecap:square;stroke-linejoin:round;stroke-miterlimit:10;stroke-dasharray:none;stroke-opacity:1" transform="matrix(1.33333 0 0 -1.33333 0 598.875)"/><text xml:space="preserve" transform="translate(27.83 382.696)scale(1.33333)"><tspan x="0" y="0" style="font-variant:normal;font-weight:400;font-size:10px;font-family:&quot;DejaVu Sans&quot;;writing-mode:lr-tb;fill:#000;fill-opacity:1;fill-rule:nonzero;stroke:none">0.66</tspan></text><path d="M51.638 239.612H711.1" clip-path="url(#l)" style="fill:none;stroke:#e6e6e6;stroke-width:1;stroke-linecap:square;stroke-linejoin:round;stroke-miterlimit:10;stroke-dasharray:none;stroke-opacity:1" transform="matrix(1.33333 0 0 -1.33333 0 598.875)"/><text xml:space="preserve" transform="translate(27.83 284.454)scale(1.33333)"><tspan x="0" y="0" style="font-variant:normal;font-weight:400;font-size:10px;font-family:&quot;DejaVu Sans&quot;;writing-mode:lr-tb;fill:#000;fill-opacity:1;fill-rule:nonzero;stroke:none">0.68</tspan></text><path d="M51.638 313.293H711.1" clip-path="url(#m)" style="fill:none;stroke:#e6e6e6;stroke-width:1;stroke-linecap:square;stroke-linejoin:round;stroke-miterlimit:10;stroke-dasharray:none;stroke-opacity:1" transform="matrix(1.33333 0 0 -1.33333 0 598.875)"/><text xml:space="preserve" transform="translate(27.83 186.213)scale(1.33333)"><tspan x="0" y="0" style="font-variant:normal;font-weight:400;font-size:10px;font-family:&quot;DejaVu Sans&quot;;writing-mode:lr-tb;fill:#000;fill-opacity:1;fill-rule:nonzero;stroke:none">0.70</tspan></text><path d="M51.638 386.974H711.1" clip-path="url(#n)" style="fill:none;stroke:#e6e6e6;stroke-width:1;stroke-linecap:square;stroke-linejoin:round;stroke-miterlimit:10;stroke-dasharray:none;stroke-opacity:1" transform="matrix(1.33333 0 0 -1.33333 0 598.875)"/><text xml:space="preserve" transform="translate(27.83 87.972)scale(1.33333)"><tspan x="0" y="0" style="font-variant:normal;font-weight:400;font-size:10px;font-family:&quot;DejaVu Sans&quot;;writing-mode:lr-tb;fill:#000;fill-opacity:1;fill-rule:nonzero;stroke:none">0.72</tspan></text><text xml:space="preserve" transform="rotate(-90 165.785 146.06)scale(1.33333)"><tspan x="0" y="0" style="font-variant:normal;font-weight:400;font-size:10px;font-family:&quot;DejaVu Sans&quot;;writing-mode:lr-tb;fill:#000;fill-opacity:1;fill-rule:nonzero;stroke:none">ROC AUC</tspan></text><path d="M81.613 213.615 89.4 351.36h7.786l7.786 13.545h7.786l7.785 2.046h7.786l7.786 13.75h38.929l7.786 1.69h7.786l7.786 10.48h38.929l7.786 8.586h132.36l7.786.66h31.143l7.786 1.744h62.287l7.786 3.92h186.86" clip-path="url(#o)" style="fill:none;stroke:#1f77b4;stroke-width:1.5;stroke-linecap:square;stroke-linejoin:round;stroke-miterlimit:10;stroke-dasharray:none;stroke-opacity:1" transform="matrix(1.33333 0 0 -1.33333 0 598.875)"/><path d="M81.613 213.615 89.4 351.36l7.786-12.473 7.786 26.018 7.786-9.74 7.785 11.786 7.786-11.888 7.786 25.638 7.786-31.853 7.786 28.941 7.786-7.828 7.786 8.315 7.785-8.737 7.786 12.852 7.786-3.016 7.786 13.496 7.786-2.392 7.786-18.299 7.786 15.094 7.785 3.096 7.786 1.57 7.786 9.517 7.786-15.807 7.786 5.262 7.786 2.847 7.786-1.743 7.785 4.656 7.786 1.602 7.786-3.681 7.786 5.327 7.786.39 7.786-.617 7.786-.466 7.786 2.176 7.785-3.183 7.786-1.213 7.786 2.436 7.786 1.305 7.786-.438 7.786 1.808 7.786-1.527 7.785-2.414 7.786 2.587 7.786-.963 7.786 4.06 7.786-7.893 7.786 4.342 7.786-2.989 7.785-3.389 7.786 8.327 7.786-4.537 7.786.888 7.786 1.407 7.786 7.763 7.786-2.37 7.785-6.822 7.786 3.508 7.786-1.137 7.786 1.126 7.786-1.266 7.786 1.624 7.786.52 7.786.627 7.785-.888 7.786-.422 7.786-.725 7.786.758 7.786-1.538 7.786 1.332 7.786.303 7.785.173 7.786-1.938 7.786.314 7.786 3.92 7.786 2.165 7.786-3.389 7.786-1.884 7.785.174" clip-path="url(#p)" style="fill:none;stroke:#1f77b4;stroke-width:1.5;stroke-linecap:butt;stroke-linejoin:round;stroke-miterlimit:10;stroke-dasharray:5.55,2.4;stroke-dashoffset:0;stroke-opacity:1" transform="matrix(1.33333 0 0 -1.33333 0 598.875)"/><path d="M81.613 361.624h23.358l7.786 2.577 7.785.823 7.786 4.731H143.9l7.786 1.31h38.929l7.786 1.126h7.786l7.786 5.468h233.576l7.785 1.05h101.217l7.786 3.054h15.571l7.786 1.158h15.572l7.786 2.447h31.143l7.786 6.366h7.786l7.786.91h15.571" clip-path="url(#q)" style="fill:none;stroke:#ff7f0e;stroke-width:1.5;stroke-linecap:square;stroke-linejoin:round;stroke-miterlimit:10;stroke-dasharray:none;stroke-opacity:1" transform="matrix(1.33333 0 0 -1.33333 0 598.875)"/><path d="m81.613 361.624 7.786-14.195 7.786-3.075 7.786 5.295 7.786 14.552 7.785.823 7.786 4.731 7.786-7.276 7.786 6.486 7.786 2.1 7.786-12.245 7.786 5.608 7.785-6.074 7.786-.108 7.786 8.467 7.786 5.478 7.786-12.7 7.786 18.168 7.786-6.724 7.785-2.642 7.786 2.296 7.786-2.572 7.786-1.716 7.786 7.85 7.786-1.256 7.786-4.775 7.785 2.198 7.786-1.819 7.786 4.786 7.786-2.317 7.786 2.252 7.786-5.046 7.786 4.526 7.786-.368 7.785.628 7.786-4.57 7.786.11 7.786-5.934 7.786 4.233 7.786 5.999 7.786 4.027 7.785-2.457 7.786-4.169 7.786 3.01 7.786 2.046 7.786-.379 7.786-5.586 7.786 6.074 7.785 3.345 7.786-7.232 7.786.303 7.786 6.897 7.786-6.8 7.786-1.137 7.786-1.57 7.785 1.17 7.786 4.482 7.786 3.866 7.786-4.418 7.786-1.115 7.786 4.158 7.786.736 7.786 3.714 7.785-3.032 7.786.076 7.786 4.114 7.786-4.872 7.786 2.3 7.786 5.019 7.786-3.194 7.785-.541 7.786-4.023 7.786 3.33 7.786 10.794 7.786-6.572 7.786 7.482 7.786-2.653 7.785-1.7" clip-path="url(#r)" style="fill:none;stroke:#ff7f0e;stroke-width:1.5;stroke-linecap:butt;stroke-linejoin:round;stroke-miterlimit:10;stroke-dasharray:5.55,2.4;stroke-dashoffset:0;stroke-opacity:1" transform="matrix(1.33333 0 0 -1.33333 0 598.875)"/><path d="M81.613 60.344 89.4 338.248l7.786 10.361 7.786 25.661h7.786l7.785 11.358h7.786l7.786 2.295h23.358l7.786 1.148h54.501l7.785 1.018h38.93l7.786 10.719h132.359l7.786 2.111 7.786 3.183h54.501l7.786 2.415h31.143l7.786 5.294h70.073l7.786 2.545h77.858" clip-path="url(#s)" style="fill:none;stroke:#2ca02c;stroke-width:1.5;stroke-linecap:square;stroke-linejoin:round;stroke-miterlimit:10;stroke-dasharray:none;stroke-opacity:1" transform="matrix(1.33333 0 0 -1.33333 0 598.875)"/><path d="M81.613 60.344 89.4 338.248l7.786 10.361 7.786 25.661 7.786-4.038 7.785 15.396 7.786-4.288 7.786 6.583 7.786-6.648 7.786-9.82 7.786 14.054 7.786 3.562 7.785-8.066 7.786 5.955 7.786-9.918 7.786 11.455 7.786-1.245 7.786-5.446 7.786 6.355 7.785 1.928 7.786-1.153 7.786-4.726 7.786.92 7.786 2.793 7.786.693 7.786 12.192 7.785-4.385 7.786-5.566 7.786 1.191 7.786 3.541 7.786-9.56 7.786 10.632 7.786 3.649 7.786-3.887 7.785.324 7.786 2.512 7.786.109 7.786-3.93 7.786-9.117 7.786 6.117 7.786 1.3 7.785 4.753 7.786-1.473 7.786 5.901 7.786 3.183 7.786-6.139 7.786 2.014 7.786 3.941 7.785-1.721 7.786-.618 7.786-1.277 7.786-3.28 7.786 9.495 7.786-.271 7.786-3.432 7.785-.53 7.786-1.744 7.786 11.271 7.786-19.76 7.786 3.411 7.786 3.811 7.786-1.894 7.786-.455 7.785 7.99 7.786-4.688 7.786 6.616 7.786-9.095 7.786 16.609 7.786-10.665 7.786-4.905 7.785-2.87 7.786 3.325 7.786 3.259 7.786-5.88 7.786-1.753 7.786.108 7.786-.39 7.785 5.132" clip-path="url(#t)" style="fill:none;stroke:#2ca02c;stroke-width:1.5;stroke-linecap:butt;stroke-linejoin:round;stroke-miterlimit:10;stroke-dasharray:5.55,2.4;stroke-dashoffset:0;stroke-opacity:1" transform="matrix(1.33333 0 0 -1.33333 0 598.875)"/><path d="m81.613 224.14 7.786 99.708 7.786 45.593h62.287l7.786 11.445h38.929l7.786 1.461 7.786 1.613 7.785 4.656h15.572l7.786 6.94h7.786l7.786 2.632h147.931l7.786 6.204 7.786 2.403h249.147" clip-path="url(#u)" style="fill:none;stroke:#d62728;stroke-width:1.5;stroke-linecap:square;stroke-linejoin:round;stroke-miterlimit:10;stroke-dasharray:none;stroke-opacity:1" transform="matrix(1.33333 0 0 -1.33333 0 598.875)"/><path d="m81.613 224.14 7.786 99.708 7.786 45.593 7.786-38.177 7.786 28.8 7.785.629 7.786-21.72 7.786 17.8 7.786-13.339 7.786 17.28 7.786-6.69 7.786 26.862 7.785-7.341 7.786 3.703 7.786.79 7.786-13.62 7.786 13.23 7.786 4.7 7.786 1.612 7.785 4.656 7.786-10.426 7.786 2.49 7.786 14.876 7.786-.941 7.786 3.573 7.786-17.779 7.785 15.483 7.786-2.23 7.786-9.463 7.786-10.124 7.786 9.82 7.786.206 7.786 2.28 7.786-.46 7.785 2.858 7.786 1.082 7.786 6.096 7.786-4.742 7.786-4.234 7.786 10.048 7.786-1.824 7.785-7.747 7.786-2.112 7.786 5.143 7.786 13.903 7.786 2.403 7.786-3.92 7.786-3.55 7.785-11.813 7.786 5.554 7.786-2.23 7.786 6.215 7.786 5.024 7.786-15.007 7.786 7.633 7.785 6.464 7.786 1.31 7.786-14.974 7.786 6.096 7.786 1.18 7.786-1.667 7.786 4.45 7.786-2.556 7.785 3.119 7.786-7.244 7.786 4.786 7.786-6.193 7.786-.877 7.786 11.812 7.786-14.065 7.785 13.524 7.786-3.855 7.786-6.42 7.786 1.169 7.786 8.056 7.786-1.072 7.786 5.262 7.785-7.915" clip-path="url(#v)" style="fill:none;stroke:#d62728;stroke-width:1.5;stroke-linecap:butt;stroke-linejoin:round;stroke-miterlimit:10;stroke-dasharray:5.55,2.4;stroke-dashoffset:0;stroke-opacity:1" transform="matrix(1.33333 0 0 -1.33333 0 598.875)"/><path d="m81.613 344.82 7.786.032 7.786 4.63h7.786l7.786 26.266H237.33l7.786 1.944h155.717l7.786 1.505h38.93l7.785 3.908h38.93l7.786 2.079h179.074" clip-path="url(#w)" style="fill:none;stroke:#9467bd;stroke-width:1.5;stroke-linecap:square;stroke-linejoin:round;stroke-miterlimit:10;stroke-dasharray:none;stroke-opacity:1" transform="matrix(1.33333 0 0 -1.33333 0 598.875)"/><path d="m81.613 344.82 7.786.032 7.786 4.63 7.786-9.556 7.786 35.822 7.785-17.048 7.786-18.936 7.786 27.23 7.786 1.613 7.786-1.299 7.786-.292 7.786 4.515 7.785-12.013 7.786 6.502 7.786-2.653 7.786-1.31 7.786 3.356 7.786.141 7.786.736 7.785 2.891 7.786-4.244 7.786 12.755 7.786-9.442 7.786 1.884 7.786-2.144 7.786 5.24 7.785 3.433 7.786-4.428 7.786-8.695 7.786.184 7.786 10.914 7.786-11.174 7.786 3.996 7.786-5.414 7.785 4.18 7.786 7.405 7.786 3.947 7.786-.005 7.786-4.558 7.786 2.782 7.786-5.067 7.785-5.1 7.786 13.567 7.786-3.508 7.786-7.882 7.786 9.138 7.786-3.41 7.786 5.023 7.785 4.548 7.786-2.144 7.786-6.648 7.786 6.399 7.786-2.642 7.786-.227 7.786 7.34 7.785-12.44 7.786 1.537 7.786 1.495 7.786.692 7.786-.411 7.786-1.516 7.786 1.202 7.786.66 7.785-2.945 7.786 8.467 7.786-7.027 7.786 3.866 7.786-3.28 7.786 2.186 7.786-3.302 7.785 2.539 7.786-.33 7.786-3.054 7.786 2.123 7.786.833 7.786-.563 7.786-1.797 7.785.758" clip-path="url(#x)" style="fill:none;stroke:#9467bd;stroke-width:1.5;stroke-linecap:butt;stroke-linejoin:round;stroke-miterlimit:10;stroke-dasharray:5.55,2.4;stroke-dashoffset:0;stroke-opacity:1" transform="matrix(1.33333 0 0 -1.33333 0 598.875)"/><path d="M81.613 154.834 89.4 302.832l7.786 37.495h15.572l7.785.79h7.786l7.786 14.065 7.786 2.977 7.786 13.75h7.786l7.786 3.736 7.785 2.761h46.716l7.785.184 7.786 1.375 7.786 5.479h7.786l7.786 10.578h7.786l7.786 8.056h46.715l7.786 1.218h46.715l7.786 1.878h38.929l7.786 2.241 7.786.282h7.786l7.785.552h54.501l7.786.52h7.786l7.786.433h77.859l7.786.216h62.286" clip-path="url(#y)" style="fill:none;stroke:#8c564b;stroke-width:1.5;stroke-linecap:square;stroke-linejoin:round;stroke-miterlimit:10;stroke-dasharray:none;stroke-opacity:1" transform="matrix(1.33333 0 0 -1.33333 0 598.875)"/><path d="M81.613 154.834 89.4 302.832l7.786 37.495 7.786-60.557 7.786-72.1 7.785 133.447 7.786-3.757 7.786 17.822 7.786 2.977 7.786 13.75 7.786-4.244 7.786 7.98 7.785 2.761 7.786-17.832 7.786 2.955 7.786-3.562 7.786 3.032 7.786 3.984 7.786-3.778 7.785 15.385 7.786 1.375 7.786 5.479 7.786-3 7.786 13.578 7.786-3.216 7.786 11.272 7.785-8.89 7.786 5.522 7.786-12.84 7.786 15.569 7.786-26.993 7.786 26.625 7.786 2.225 7.786-13.55 7.785-11.5 7.786 14.715 7.786-5.349 7.786 8.76 7.786.021 7.786 8.781 7.786-3.843 7.785 1.656 7.786-2.23 7.786 3.854 7.786-2.09 7.786 4.894 7.786.282 7.786-7.287 7.785 7.84 7.786-3.032 7.786.498 7.786 1.905 7.786-2.685 7.786-2.837 7.786 3.41 7.785-3.35 7.786 6.61 7.786-5.825 7.786 6.258 7.786-4.85 7.786 3.226 7.786-3.584 7.786 3.584 7.785-.888 7.786-2.566 7.786-.379 7.786 1.678 7.786-1.602 7.786-2.144 7.786 7.741 7.785-6.171 7.786.65 7.786 1.938 7.786-3.812 7.786 2.805 7.786-.428 7.786.601 7.785-.033" clip-path="url(#z)" style="fill:none;stroke:#8c564b;stroke-width:1.5;stroke-linecap:butt;stroke-linejoin:round;stroke-miterlimit:10;stroke-dasharray:5.55,2.4;stroke-dashoffset:0;stroke-opacity:1" transform="matrix(1.33333 0 0 -1.33333 0 598.875)"/><path d="m81.613 308.3 7.786 42.258 7.786.563 7.786 21.254h31.143l7.786 5.771h54.501l7.786 8.316h474.937" clip-path="url(#A)" style="fill:none;stroke:#e377c2;stroke-width:1.5;stroke-linecap:square;stroke-linejoin:round;stroke-miterlimit:10;stroke-dasharray:none;stroke-opacity:1" transform="matrix(1.33333 0 0 -1.33333 0 598.875)"/><path d="m81.613 308.3 7.786 42.258 7.786.563 7.786 21.254 7.786-14.454 7.785-2.891 7.786 16.685 7.786-21.958 7.786 28.39 7.786-3.606 7.786-30.955 7.786 4.72 7.785 25.423 7.786-1.787 7.786-.422 7.786-4.428 7.786 19.37 7.786-16.642 7.786-11.877 7.785 10.99 7.786-2.448 7.786 13.686 7.786-6.659 7.786 2.122 7.786 1.235 7.786.26 7.785-5.014 7.786-5.565 7.786 1.754 7.786-11.39 7.786 24.026 7.786-11.207 7.786-7.947 7.786 11.282 7.785-2.37 7.786-.044 7.786-5.392 7.786 9.463 7.786-.054 7.786 2.035 7.786-5.294 7.785 9.571 7.786-.715 7.786-11.596 7.786 2.556 7.786.898 7.786-1.18 7.786 13.448 7.785-1.116 7.786.13 7.786-8.077 7.786-.823 7.786-.4 7.786-3.52 7.786 11.25 7.785-9.506 7.786 2.025 7.786 5.5 7.786-17.237 7.786 2.913 7.786 8.726 7.786 10.145 7.786-22.813 7.785 14.444 7.786 3.638 7.786-21.936 7.786 5.912 7.786 9.582 7.786 1.072 7.786 7.016 7.785-14.065 7.786 8.651 7.786-1.537 7.786-8.489 7.786 9.604 7.786 8.727 7.786-1.105 7.785-7.622" clip-path="url(#B)" style="fill:none;stroke:#e377c2;stroke-width:1.5;stroke-linecap:butt;stroke-linejoin:round;stroke-miterlimit:10;stroke-dasharray:5.55,2.4;stroke-dashoffset:0;stroke-opacity:1" transform="matrix(1.33333 0 0 -1.33333 0 598.875)"/><path d="M81.613 339.72H89.4l7.786 2.902 7.786 15.353h7.786l7.785 11.986h15.572l7.786 2.382 7.786 5.565 7.786 9.311h77.858l7.786 7.883h7.786l7.786 3.335h85.644l7.786 1.808 7.786 3.15h23.358l7.786 3.433h101.216l7.786 6.193h179.074" clip-path="url(#C)" style="fill:none;stroke:#7f7f7f;stroke-width:1.5;stroke-linecap:square;stroke-linejoin:round;stroke-miterlimit:10;stroke-dasharray:none;stroke-opacity:1" transform="matrix(1.33333 0 0 -1.33333 0 598.875)"/><path d="m81.613 339.72 7.786-23.008 7.786 25.91 7.786 15.353 7.786-9.69 7.785 21.676 7.786-1.505 7.786-9.95 7.786 13.837 7.786 5.565 7.786 9.311 7.786-4.699 7.785 3.162 7.786-16.728 7.786 7.687 7.786-13.177 7.786 12.344 7.786.021 7.786 6.118 7.785-2.372 7.786-.335 7.786 15.862 7.786-11.456 7.786 14.79 7.786-8.629 7.786-2.382 7.785.12 7.786 3.561 7.786-.855 7.786 7.525 7.786.52 7.786-4.85 7.786 4.32 7.786.627 7.785-15.234 7.786 17.086 7.786 3.15 7.786-5.413 7.786-2.664 7.786-.227 7.786 11.737 7.785-8.846 7.786-9.377 7.786 3.898 7.786-1.873 7.786 5.912 7.786 7.276 7.786-3.996 7.785-.444 7.786-13.534 7.786 10.6 7.786-.974 7.786 10.86 7.786-8.77 7.786 15.46 7.785-20.268 7.786 13.058 7.786-3.335 7.786 7.71 7.786-22.9 7.786 12.083 7.786-4.938 7.786-4.255 7.785 10.243 7.786 1.245 7.786-4.948 7.786-6.659 7.786 2.057 7.786-11.92 7.786 4.504 7.785 2.057 7.786-25.347 7.786 26.094 7.786 13.567 7.786-8.706 7.786 12.138 7.786.303 7.785-1.82" clip-path="url(#D)" style="fill:none;stroke:#7f7f7f;stroke-width:1.5;stroke-linecap:butt;stroke-linejoin:round;stroke-miterlimit:10;stroke-dasharray:5.55,2.4;stroke-dashoffset:0;stroke-opacity:1" transform="matrix(1.33333 0 0 -1.33333 0 598.875)"/><path d="m81.613 135.648 7.786 224.06h7.786l7.786.303h7.786l7.785 19.424H221.76l7.785 2.187 7.786 3.15h54.501l7.786 5.106h23.358l7.786 4.51 7.786 1.19h31.143l7.786 2.674h23.357l7.786 7.84h264.72l7.785 1.58" clip-path="url(#E)" style="fill:none;stroke:#bcbd22;stroke-width:1.5;stroke-linecap:square;stroke-linejoin:round;stroke-miterlimit:10;stroke-dasharray:none;stroke-opacity:1" transform="matrix(1.33333 0 0 -1.33333 0 598.875)"/><path d="m81.613 135.648 7.786 224.06 7.786-15.505 7.786 15.808 7.786-5.143 7.785 24.567 7.786-18.677 7.786-5.62 7.786-.541 7.786 9.885 7.786 9.56 7.786-1.212 7.785-11.91 7.786 3.79 7.786 9.398 7.786-9.268 7.786 14.454 7.786-.14 7.786-11.586 7.785 14.054 7.786 3.15 7.786-6.203 7.786-3.806 7.786-7.52 7.786.087 7.786-1.408 7.785 14.119 7.786-7.655 7.786 17.492 7.786-19.95 7.786 2.21 7.786-7.472 7.786 29.721 7.786 1.191 7.785-28.465 7.786 16.728 7.786-5.413 7.786 5.717 7.786 14.107 7.786-16.793 7.786-1.223 7.785 13.068 7.786 12.787 7.786-17.16 7.786 13.771 7.786-18.482 7.786 6.258 7.786-16.782 7.785 21.86 7.786-8.748 7.786 15.754 7.786-2.588 7.786-10.687 7.786.542 7.786-4.537 7.785 17.714 7.786-9.55 7.786-7.655 7.786 4.732 7.786-8.197 7.786 10.438 7.786-12.57 7.786 4.2 7.785 2.177 7.786 1.689 7.786-2.339 7.786 19.435 7.786-8.51 7.786-14.715 7.786.52 7.785 21.828 7.786-7.103 7.786 3.162 7.786-13.675 7.786 11.813 7.786 6.193 7.786-8.554 7.785 11.347" clip-path="url(#F)" style="fill:none;stroke:#bcbd22;stroke-width:1.5;stroke-linecap:butt;stroke-linejoin:round;stroke-miterlimit:10;stroke-dasharray:5.55,2.4;stroke-dashoffset:0;stroke-opacity:1" transform="matrix(1.33333 0 0 -1.33333 0 598.875)"/><path d="m81.613 358.939 7.786 8.153H143.9l7.786 18.85h15.572l7.785 4.33h15.572l7.786 8.392h70.073l7.786 14.92h404.864" clip-path="url(#G)" style="fill:none;stroke:#17becf;stroke-width:1.5;stroke-linecap:square;stroke-linejoin:round;stroke-miterlimit:10;stroke-dasharray:none;stroke-opacity:1" transform="matrix(1.33333 0 0 -1.33333 0 598.875)"/><path d="m81.613 358.939 7.786 8.153 7.786-13.838 7.786-1.96 7.786 15.148 7.785-3.14 7.786-9.279 7.786 12.711 7.786-18.807 7.786 38.015 7.786-20.453 7.786 8.326 7.785 16.458 7.786-9.94 7.786-10.654 7.786 28.985 7.786-12.376 7.786-17.15 7.786 10.957 7.785 5.186 7.786-3.854 7.786 1.32 7.786-6.69 7.786-1.246 7.786-14.649 7.786 53.422 7.785-42.14 7.786 13.567 7.786-3.086 7.786-12.408 7.786 7.308 7.786-.043 7.786 17.129 7.786-16.512 7.785 19.738 7.786-14.779 7.786 4.85 7.786 17.194 7.786-15.504 7.786 1.656 7.786-2.035 7.785-1.852 7.786 10.405 7.786-8.218 7.786-14.097 7.786 30.804 7.786-19.868 7.786-4.992 7.785-.303 7.786-1.526 7.786 11.043 7.786-3.107 7.786-9.69 7.786 12.58 7.786-4.157 7.785 9.41 7.786-7.72 7.786-2.199 7.786-9.603 7.786 9.203 7.786 2.338 7.786-8.531 7.786 6.442 7.785-6.507 7.786 12.191 7.786-2.154 7.786-12.993 7.786 3.681 7.786.834 7.786 1.559 7.785-14.325 7.786 12.16 7.786 1.277 7.786-.466 7.786-3.464 7.786 5.457 7.786-12.04 7.785 7.308" clip-path="url(#H)" style="fill:none;stroke:#17becf;stroke-width:1.5;stroke-linecap:butt;stroke-linejoin:round;stroke-miterlimit:10;stroke-dasharray:5.55,2.4;stroke-dashoffset:0;stroke-opacity:1" transform="matrix(1.33333 0 0 -1.33333 0 598.875)"/><path d="M52.048 426.484h617.704q2 0 2 2v13.672q0 2-2 2H52.048q-2 0-2-2v-13.672q0-2 2-2z" style="fill:#fff;fill-opacity:.8;fill-rule:nonzero;stroke:#ccc;stroke-width:1;stroke-linecap:butt;stroke-linejoin:miter;stroke-miterlimit:10;stroke-dasharray:none;stroke-opacity:.8" transform="matrix(1.33333 0 0 -1.33333 0 598.875)"/><path d="M54.048 436.062h20" style="fill:none;stroke:#1f77b4;stroke-width:1.5;stroke-linecap:square;stroke-linejoin:round;stroke-miterlimit:10;stroke-dasharray:none;stroke-opacity:1" transform="matrix(1.33333 0 0 -1.33333 0 598.875)"/><text xml:space="preserve" transform="translate(109.398 22.125)scale(1.33333)"><tspan x="0" y="0" style="font-variant:normal;font-weight:400;font-size:10px;font-family:&quot;DejaVu Sans&quot;;writing-mode:lr-tb;fill:#000;fill-opacity:1;fill-rule:nonzero;stroke:none">#1</tspan></text><path d="M116.783 436.062h20" style="fill:none;stroke:#ff7f0e;stroke-width:1.5;stroke-linecap:square;stroke-linejoin:round;stroke-miterlimit:10;stroke-dasharray:none;stroke-opacity:1" transform="matrix(1.33333 0 0 -1.33333 0 598.875)"/><text xml:space="preserve" transform="translate(193.044 22.125)scale(1.33333)"><tspan x="0" y="0" style="font-variant:normal;font-weight:400;font-size:10px;font-family:&quot;DejaVu Sans&quot;;writing-mode:lr-tb;fill:#000;fill-opacity:1;fill-rule:nonzero;stroke:none">#2</tspan></text><path d="M179.517 436.062h20" style="fill:none;stroke:#2ca02c;stroke-width:1.5;stroke-linecap:square;stroke-linejoin:round;stroke-miterlimit:10;stroke-dasharray:none;stroke-opacity:1" transform="matrix(1.33333 0 0 -1.33333 0 598.875)"/><text xml:space="preserve" transform="translate(276.69 22.125)scale(1.33333)"><tspan x="0" y="0" style="font-variant:normal;font-weight:400;font-size:10px;font-family:&quot;DejaVu Sans&quot;;writing-mode:lr-tb;fill:#000;fill-opacity:1;fill-rule:nonzero;stroke:none">#3</tspan></text><path d="M242.252 436.062h20" style="fill:none;stroke:#d62728;stroke-width:1.5;stroke-linecap:square;stroke-linejoin:round;stroke-miterlimit:10;stroke-dasharray:none;stroke-opacity:1" transform="matrix(1.33333 0 0 -1.33333 0 598.875)"/><text xml:space="preserve" transform="translate(360.335 22.125)scale(1.33333)"><tspan x="0" y="0" style="font-variant:normal;font-weight:400;font-size:10px;font-family:&quot;DejaVu Sans&quot;;writing-mode:lr-tb;fill:#000;fill-opacity:1;fill-rule:nonzero;stroke:none">#4</tspan></text><path d="M304.986 436.062h20" style="fill:none;stroke:#9467bd;stroke-width:1.5;stroke-linecap:square;stroke-linejoin:round;stroke-miterlimit:10;stroke-dasharray:none;stroke-opacity:1" transform="matrix(1.33333 0 0 -1.33333 0 598.875)"/><text xml:space="preserve" transform="translate(443.981 22.125)scale(1.33333)"><tspan x="0" y="0" style="font-variant:normal;font-weight:400;font-size:10px;font-family:&quot;DejaVu Sans&quot;;writing-mode:lr-tb;fill:#000;fill-opacity:1;fill-rule:nonzero;stroke:none">#5</tspan></text><path d="M367.72 436.062h20" style="fill:none;stroke:#8c564b;stroke-width:1.5;stroke-linecap:square;stroke-linejoin:round;stroke-miterlimit:10;stroke-dasharray:none;stroke-opacity:1" transform="matrix(1.33333 0 0 -1.33333 0 598.875)"/><text xml:space="preserve" transform="translate(527.627 22.125)scale(1.33333)"><tspan x="0" y="0" style="font-variant:normal;font-weight:400;font-size:10px;font-family:&quot;DejaVu Sans&quot;;writing-mode:lr-tb;fill:#000;fill-opacity:1;fill-rule:nonzero;stroke:none">#6</tspan></text><path d="M430.455 436.062h20" style="fill:none;stroke:#e377c2;stroke-width:1.5;stroke-linecap:square;stroke-linejoin:round;stroke-miterlimit:10;stroke-dasharray:none;stroke-opacity:1" transform="matrix(1.33333 0 0 -1.33333 0 598.875)"/><text xml:space="preserve" transform="translate(611.273 22.125)scale(1.33333)"><tspan x="0" y="0" style="font-variant:normal;font-weight:400;font-size:10px;font-family:&quot;DejaVu Sans&quot;;writing-mode:lr-tb;fill:#000;fill-opacity:1;fill-rule:nonzero;stroke:none">#7</tspan></text><path d="M493.19 436.062h20" style="fill:none;stroke:#7f7f7f;stroke-width:1.5;stroke-linecap:square;stroke-linejoin:round;stroke-miterlimit:10;stroke-dasharray:none;stroke-opacity:1" transform="matrix(1.33333 0 0 -1.33333 0 598.875)"/><text xml:space="preserve" transform="translate(694.919 22.125)scale(1.33333)"><tspan x="0" y="0" style="font-variant:normal;font-weight:400;font-size:10px;font-family:&quot;DejaVu Sans&quot;;writing-mode:lr-tb;fill:#000;fill-opacity:1;fill-rule:nonzero;stroke:none">#8</tspan></text><path d="M555.923 436.062h20" style="fill:none;stroke:#bcbd22;stroke-width:1.5;stroke-linecap:square;stroke-linejoin:round;stroke-miterlimit:10;stroke-dasharray:none;stroke-opacity:1" transform="matrix(1.33333 0 0 -1.33333 0 598.875)"/><text xml:space="preserve" transform="translate(778.565 22.125)scale(1.33333)"><tspan x="0" y="0" style="font-variant:normal;font-weight:400;font-size:10px;font-family:&quot;DejaVu Sans&quot;;writing-mode:lr-tb;fill:#000;fill-opacity:1;fill-rule:nonzero;stroke:none">#9</tspan></text><path d="M618.658 436.062h20" style="fill:none;stroke:#17becf;stroke-width:1.5;stroke-linecap:square;stroke-linejoin:round;stroke-miterlimit:10;stroke-dasharray:none;stroke-opacity:1" transform="matrix(1.33333 0 0 -1.33333 0 598.875)"/><text xml:space="preserve" transform="translate(862.21 22.125)scale(1.33333)"><tspan x="0" y="0" style="font-variant:normal;font-weight:400;font-size:10px;font-family:&quot;DejaVu Sans&quot;;writing-mode:lr-tb;fill:#000;fill-opacity:1;fill-rule:nonzero;stroke:none">#10</tspan></text></svg>