<?xml version="1.0" encoding="UTF-8" standalone="no"?>
<!-- Created with Inkscape (http://www.inkscape.org/) -->

<svg
   version="1.1"
   id="svg1"
   width="962.40002"
   height="598.875"
   viewBox="0 0 962.40002 598.875"
   xmlns="http://www.w3.org/2000/svg"
   xmlns:svg="http://www.w3.org/2000/svg">
  <defs
     id="defs1">
    <clipPath
       clipPathUnits="userSpaceOnUse"
       id="clipPath2">
      <path
         d="M 51.6375,42.54375 H 711.1 V 434.15624 H 51.6375 Z"
         id="path2" />
    </clipPath>
    <clipPath
       clipPathUnits="userSpaceOnUse"
       id="clipPath5">
      <path
         d="M 51.6375,42.54375 H 711.1 V 434.15624 H 51.6375 Z"
         id="path5" />
    </clipPath>
    <clipPath
       clipPathUnits="userSpaceOnUse"
       id="clipPath8">
      <path
         d="M 51.6375,42.54375 H 711.1 V 434.15624 H 51.6375 Z"
         id="path8" />
    </clipPath>
    <clipPath
       clipPathUnits="userSpaceOnUse"
       id="clipPath11">
      <path
         d="M 51.6375,42.54375 H 711.1 V 434.15624 H 51.6375 Z"
         id="path11" />
    </clipPath>
    <clipPath
       clipPathUnits="userSpaceOnUse"
       id="clipPath14">
      <path
         d="M 51.6375,42.54375 H 711.1 V 434.15624 H 51.6375 Z"
         id="path14" />
    </clipPath>
    <clipPath
       clipPathUnits="userSpaceOnUse"
       id="clipPath17">
      <path
         d="M 51.6375,42.54375 H 711.1 V 434.15624 H 51.6375 Z"
         id="path17" />
    </clipPath>
    <clipPath
       clipPathUnits="userSpaceOnUse"
       id="clipPath20">
      <path
         d="M 51.6375,42.54375 H 711.1 V 434.15624 H 51.6375 Z"
         id="path20" />
    </clipPath>
    <clipPath
       clipPathUnits="userSpaceOnUse"
       id="clipPath23">
      <path
         d="M 51.6375,42.54375 H 711.1 V 434.15624 H 51.6375 Z"
         id="path23" />
    </clipPath>
    <clipPath
       clipPathUnits="userSpaceOnUse"
       id="clipPath26">
      <path
         d="M 51.6375,42.54375 H 711.1 V 434.15624 H 51.6375 Z"
         id="path26" />
    </clipPath>
    <clipPath
       clipPathUnits="userSpaceOnUse"
       id="clipPath29">
      <path
         d="M 51.6375,42.54375 H 711.1 V 434.15624 H 51.6375 Z"
         id="path29" />
    </clipPath>
    <clipPath
       clipPathUnits="userSpaceOnUse"
       id="clipPath31">
      <path
         d="M 51.6375,42.54375 H 711.1 V 434.15624 H 51.6375 Z"
         id="path31" />
    </clipPath>
    <clipPath
       clipPathUnits="userSpaceOnUse"
       id="clipPath33">
      <path
         d="M 51.6375,42.54375 H 711.1 V 434.15624 H 51.6375 Z"
         id="path33" />
    </clipPath>
    <clipPath
       clipPathUnits="userSpaceOnUse"
       id="clipPath35">
      <path
         d="M 51.6375,42.54375 H 711.1 V 434.15624 H 51.6375 Z"
         id="path35" />
    </clipPath>
    <clipPath
       clipPathUnits="userSpaceOnUse"
       id="clipPath37">
      <path
         d="M 51.6375,42.54375 H 711.1 V 434.15624 H 51.6375 Z"
         id="path37" />
    </clipPath>
    <clipPath
       clipPathUnits="userSpaceOnUse"
       id="clipPath39">
      <path
         d="M 51.6375,42.54375 H 711.1 V 434.15624 H 51.6375 Z"
         id="path39" />
    </clipPath>
    <clipPath
       clipPathUnits="userSpaceOnUse"
       id="clipPath41">
      <path
         d="M 51.6375,42.54375 H 711.1 V 434.15624 H 51.6375 Z"
         id="path41" />
    </clipPath>
    <clipPath
       clipPathUnits="userSpaceOnUse"
       id="clipPath43">
      <path
         d="M 51.6375,42.54375 H 711.1 V 434.15624 H 51.6375 Z"
         id="path43" />
    </clipPath>
    <clipPath
       clipPathUnits="userSpaceOnUse"
       id="clipPath45">
      <path
         d="M 51.6375,42.54375 H 711.1 V 434.15624 H 51.6375 Z"
         id="path45" />
    </clipPath>
    <clipPath
       clipPathUnits="userSpaceOnUse"
       id="clipPath47">
      <path
         d="M 51.6375,42.54375 H 711.1 V 434.15624 H 51.6375 Z"
         id="path47" />
    </clipPath>
    <clipPath
       clipPathUnits="userSpaceOnUse"
       id="clipPath49">
      <path
         d="M 51.6375,42.54375 H 711.1 V 434.15624 H 51.6375 Z"
         id="path49" />
    </clipPath>
    <clipPath
       clipPathUnits="userSpaceOnUse"
       id="clipPath51">
      <path
         d="M 51.6375,42.54375 H 711.1 V 434.15624 H 51.6375 Z"
         id="path51" />
    </clipPath>
    <clipPath
       clipPathUnits="userSpaceOnUse"
       id="clipPath53">
      <path
         d="M 51.6375,42.54375 H 711.1 V 434.15624 H 51.6375 Z"
         id="path53" />
    </clipPath>
    <clipPath
       clipPathUnits="userSpaceOnUse"
       id="clipPath55">
      <path
         d="M 51.6375,42.54375 H 711.1 V 434.15624 H 51.6375 Z"
         id="path55" />
    </clipPath>
    <clipPath
       clipPathUnits="userSpaceOnUse"
       id="clipPath57">
      <path
         d="M 51.6375,42.54375 H 711.1 V 434.15624 H 51.6375 Z"
         id="path57" />
    </clipPath>
    <clipPath
       clipPathUnits="userSpaceOnUse"
       id="clipPath59">
      <path
         d="M 51.6375,42.54375 H 711.1 V 434.15624 H 51.6375 Z"
         id="path59" />
    </clipPath>
    <clipPath
       clipPathUnits="userSpaceOnUse"
       id="clipPath61">
      <path
         d="M 51.6375,42.54375 H 711.1 V 434.15624 H 51.6375 Z"
         id="path61" />
    </clipPath>
    <clipPath
       clipPathUnits="userSpaceOnUse"
       id="clipPath63">
      <path
         d="M 51.6375,42.54375 H 711.1 V 434.15624 H 51.6375 Z"
         id="path63" />
    </clipPath>
    <clipPath
       clipPathUnits="userSpaceOnUse"
       id="clipPath65">
      <path
         d="M 51.6375,42.54375 H 711.1 V 434.15624 H 51.6375 Z"
         id="path65" />
    </clipPath>
    <clipPath
       clipPathUnits="userSpaceOnUse"
       id="clipPath67">
      <path
         d="M 51.6375,42.54375 H 711.1 V 434.15624 H 51.6375 Z"
         id="path67" />
    </clipPath>
    <clipPath
       clipPathUnits="userSpaceOnUse"
       id="clipPath69">
      <path
         d="M 51.6375,42.54375 H 711.1 V 434.15624 H 51.6375 Z"
         id="path69" />
    </clipPath>
    <clipPath
       clipPathUnits="userSpaceOnUse"
       id="clipPath71">
      <path
         d="M 51.6375,42.54375 H 711.1 V 434.15624 H 51.6375 Z"
         id="path71" />
    </clipPath>
    <clipPath
       clipPathUnits="userSpaceOnUse"
       id="clipPath73">
      <path
         d="M 51.6375,42.54375 H 711.1 V 434.15624 H 51.6375 Z"
         id="path73" />
    </clipPath>
    <clipPath
       clipPathUnits="userSpaceOnUse"
       id="clipPath75">
      <path
         d="M 51.6375,42.54375 H 711.1 V 434.15624 H 51.6375 Z"
         id="path75" />
    </clipPath>
    <clipPath
       clipPathUnits="userSpaceOnUse"
       id="clipPath77">
      <path
         d="M 51.6375,42.54375 H 711.1 V 434.15624 H 51.6375 Z"
         id="path77" />
    </clipPath>
  </defs>
  <g
     id="g1">
    <path
       id="path1"
       d="M 73.827206,42.54375 V 434.15624"
       style="fill:none;stroke:#e6e6e6;stroke-width:1;stroke-linecap:square;stroke-linejoin:round;stroke-miterlimit:10;stroke-dasharray:none;stroke-opacity:1"
       transform="matrix(1.3333333,0,0,-1.3333333,0,598.87499)"
       clip-path="url(#clipPath2)" />
    <path
       id="path3"
       d="m 73.827206,37.54375 v -3.5"
       style="fill:#000000;fill-opacity:1;fill-rule:nonzero;stroke:#000000;stroke-width:0.8;stroke-linecap:butt;stroke-linejoin:round;stroke-miterlimit:10;stroke-dasharray:none;stroke-opacity:1"
       transform="matrix(1.3333333,0,0,-1.3333333,0,598.87499)" />
    <text
       id="text3"
       xml:space="preserve"
       transform="matrix(1.3333333,0,0,1.3333333,94.196692,568.27499)"><tspan
         id="tspan3"
         style="font-variant:normal;font-weight:normal;font-size:10px;font-family:'DejaVu Sans';writing-mode:lr-tb;fill:#000000;fill-opacity:1;fill-rule:nonzero;stroke:none"
         x="0"
         y="0">0</tspan></text>
    <path
       id="path4"
       d="M 151.68582,42.54375 V 434.15624"
       style="fill:none;stroke:#e6e6e6;stroke-width:1;stroke-linecap:square;stroke-linejoin:round;stroke-miterlimit:10;stroke-dasharray:none;stroke-opacity:1"
       transform="matrix(1.3333333,0,0,-1.3333333,0,598.87499)"
       clip-path="url(#clipPath5)" />
    <path
       id="path6"
       d="m 151.68582,37.54375 v -3.5"
       style="fill:#000000;fill-opacity:1;fill-rule:nonzero;stroke:#000000;stroke-width:0.8;stroke-linecap:butt;stroke-linejoin:round;stroke-miterlimit:10;stroke-dasharray:none;stroke-opacity:1"
       transform="matrix(1.3333333,0,0,-1.3333333,0,598.87499)" />
    <text
       id="text6"
       xml:space="preserve"
       transform="matrix(1.3333333,0,0,1.3333333,193.7686,568.27499)"><tspan
         id="tspan6"
         style="font-variant:normal;font-weight:normal;font-size:10px;font-family:'DejaVu Sans';writing-mode:lr-tb;fill:#000000;fill-opacity:1;fill-rule:nonzero;stroke:none"
         x="0"
         y="0">10</tspan></text>
    <path
       id="path7"
       d="M 229.54444,42.54375 V 434.15624"
       style="fill:none;stroke:#e6e6e6;stroke-width:1;stroke-linecap:square;stroke-linejoin:round;stroke-miterlimit:10;stroke-dasharray:none;stroke-opacity:1"
       transform="matrix(1.3333333,0,0,-1.3333333,0,598.87499)"
       clip-path="url(#clipPath8)" />
    <path
       id="path9"
       d="m 229.54444,37.54375 v -3.5"
       style="fill:#000000;fill-opacity:1;fill-rule:nonzero;stroke:#000000;stroke-width:0.8;stroke-linecap:butt;stroke-linejoin:round;stroke-miterlimit:10;stroke-dasharray:none;stroke-opacity:1"
       transform="matrix(1.3333333,0,0,-1.3333333,0,598.87499)" />
    <text
       id="text9"
       xml:space="preserve"
       transform="matrix(1.3333333,0,0,1.3333333,297.58009,568.27499)"><tspan
         id="tspan9"
         style="font-variant:normal;font-weight:normal;font-size:10px;font-family:'DejaVu Sans';writing-mode:lr-tb;fill:#000000;fill-opacity:1;fill-rule:nonzero;stroke:none"
         x="0"
         y="0">20</tspan></text>
    <path
       id="path10"
       d="M 307.40306,42.54375 V 434.15624"
       style="fill:none;stroke:#e6e6e6;stroke-width:1;stroke-linecap:square;stroke-linejoin:round;stroke-miterlimit:10;stroke-dasharray:none;stroke-opacity:1"
       transform="matrix(1.3333333,0,0,-1.3333333,0,598.87499)"
       clip-path="url(#clipPath11)" />
    <path
       id="path12"
       d="m 307.40306,37.54375 v -3.5"
       style="fill:#000000;fill-opacity:1;fill-rule:nonzero;stroke:#000000;stroke-width:0.8;stroke-linecap:butt;stroke-linejoin:round;stroke-miterlimit:10;stroke-dasharray:none;stroke-opacity:1"
       transform="matrix(1.3333333,0,0,-1.3333333,0,598.87499)" />
    <text
       id="text12"
       xml:space="preserve"
       transform="matrix(1.3333333,0,0,1.3333333,401.39158,568.27499)"><tspan
         id="tspan12"
         style="font-variant:normal;font-weight:normal;font-size:10px;font-family:'DejaVu Sans';writing-mode:lr-tb;fill:#000000;fill-opacity:1;fill-rule:nonzero;stroke:none"
         x="0"
         y="0">30</tspan></text>
    <path
       id="path13"
       d="M 385.26168,42.54375 V 434.15624"
       style="fill:none;stroke:#e6e6e6;stroke-width:1;stroke-linecap:square;stroke-linejoin:round;stroke-miterlimit:10;stroke-dasharray:none;stroke-opacity:1"
       transform="matrix(1.3333333,0,0,-1.3333333,0,598.87499)"
       clip-path="url(#clipPath14)" />
    <path
       id="path15"
       d="m 385.26168,37.54375 v -3.5"
       style="fill:#000000;fill-opacity:1;fill-rule:nonzero;stroke:#000000;stroke-width:0.8;stroke-linecap:butt;stroke-linejoin:round;stroke-miterlimit:10;stroke-dasharray:none;stroke-opacity:1"
       transform="matrix(1.3333333,0,0,-1.3333333,0,598.87499)" />
    <text
       id="text15"
       xml:space="preserve"
       transform="matrix(1.3333333,0,0,1.3333333,505.20307,568.27499)"><tspan
         id="tspan15"
         style="font-variant:normal;font-weight:normal;font-size:10px;font-family:'DejaVu Sans';writing-mode:lr-tb;fill:#000000;fill-opacity:1;fill-rule:nonzero;stroke:none"
         x="0"
         y="0">40</tspan></text>
    <path
       id="path16"
       d="M 463.1203,42.54375 V 434.15624"
       style="fill:none;stroke:#e6e6e6;stroke-width:1;stroke-linecap:square;stroke-linejoin:round;stroke-miterlimit:10;stroke-dasharray:none;stroke-opacity:1"
       transform="matrix(1.3333333,0,0,-1.3333333,0,598.87499)"
       clip-path="url(#clipPath17)" />
    <path
       id="path18"
       d="m 463.1203,37.54375 v -3.5"
       style="fill:#000000;fill-opacity:1;fill-rule:nonzero;stroke:#000000;stroke-width:0.8;stroke-linecap:butt;stroke-linejoin:round;stroke-miterlimit:10;stroke-dasharray:none;stroke-opacity:1"
       transform="matrix(1.3333333,0,0,-1.3333333,0,598.87499)" />
    <text
       id="text18"
       xml:space="preserve"
       transform="matrix(1.3333333,0,0,1.3333333,609.01457,568.27499)"><tspan
         id="tspan18"
         style="font-variant:normal;font-weight:normal;font-size:10px;font-family:'DejaVu Sans';writing-mode:lr-tb;fill:#000000;fill-opacity:1;fill-rule:nonzero;stroke:none"
         x="0"
         y="0">50</tspan></text>
    <path
       id="path19"
       d="M 540.97892,42.54375 V 434.15624"
       style="fill:none;stroke:#e6e6e6;stroke-width:1;stroke-linecap:square;stroke-linejoin:round;stroke-miterlimit:10;stroke-dasharray:none;stroke-opacity:1"
       transform="matrix(1.3333333,0,0,-1.3333333,0,598.87499)"
       clip-path="url(#clipPath20)" />
    <path
       id="path21"
       d="m 540.97892,37.54375 v -3.5"
       style="fill:#000000;fill-opacity:1;fill-rule:nonzero;stroke:#000000;stroke-width:0.8;stroke-linecap:butt;stroke-linejoin:round;stroke-miterlimit:10;stroke-dasharray:none;stroke-opacity:1"
       transform="matrix(1.3333333,0,0,-1.3333333,0,598.87499)" />
    <text
       id="text21"
       xml:space="preserve"
       transform="matrix(1.3333333,0,0,1.3333333,712.82606,568.27499)"><tspan
         id="tspan21"
         style="font-variant:normal;font-weight:normal;font-size:10px;font-family:'DejaVu Sans';writing-mode:lr-tb;fill:#000000;fill-opacity:1;fill-rule:nonzero;stroke:none"
         x="0"
         y="0">60</tspan></text>
    <path
       id="path22"
       d="M 618.83754,42.54375 V 434.15624"
       style="fill:none;stroke:#e6e6e6;stroke-width:1;stroke-linecap:square;stroke-linejoin:round;stroke-miterlimit:10;stroke-dasharray:none;stroke-opacity:1"
       transform="matrix(1.3333333,0,0,-1.3333333,0,598.87499)"
       clip-path="url(#clipPath23)" />
    <path
       id="path24"
       d="m 618.83754,37.54375 v -3.5"
       style="fill:#000000;fill-opacity:1;fill-rule:nonzero;stroke:#000000;stroke-width:0.8;stroke-linecap:butt;stroke-linejoin:round;stroke-miterlimit:10;stroke-dasharray:none;stroke-opacity:1"
       transform="matrix(1.3333333,0,0,-1.3333333,0,598.87499)" />
    <text
       id="text24"
       xml:space="preserve"
       transform="matrix(1.3333333,0,0,1.3333333,816.63755,568.27499)"><tspan
         id="tspan24"
         style="font-variant:normal;font-weight:normal;font-size:10px;font-family:'DejaVu Sans';writing-mode:lr-tb;fill:#000000;fill-opacity:1;fill-rule:nonzero;stroke:none"
         x="0"
         y="0">70</tspan></text>
    <path
       id="path25"
       d="M 696.69616,42.54375 V 434.15624"
       style="fill:none;stroke:#e6e6e6;stroke-width:1;stroke-linecap:square;stroke-linejoin:round;stroke-miterlimit:10;stroke-dasharray:none;stroke-opacity:1"
       transform="matrix(1.3333333,0,0,-1.3333333,0,598.87499)"
       clip-path="url(#clipPath26)" />
    <path
       id="path27"
       d="m 696.69616,37.54375 v -3.5"
       style="fill:#000000;fill-opacity:1;fill-rule:nonzero;stroke:#000000;stroke-width:0.8;stroke-linecap:butt;stroke-linejoin:round;stroke-miterlimit:10;stroke-dasharray:none;stroke-opacity:1"
       transform="matrix(1.3333333,0,0,-1.3333333,0,598.87499)" />
    <text
       id="text27"
       xml:space="preserve"
       transform="matrix(1.3333333,0,0,1.3333333,920.44904,568.27499)"><tspan
         id="tspan27"
         style="font-variant:normal;font-weight:normal;font-size:10px;font-family:'DejaVu Sans';writing-mode:lr-tb;fill:#000000;fill-opacity:1;fill-rule:nonzero;stroke:none"
         x="0"
         y="0">80</tspan></text>
    <text
       id="text28"
       xml:space="preserve"
       transform="matrix(1.3333333,0,0,1.3333333,471.28333,586.50416)"><tspan
         id="tspan28"
         style="font-variant:normal;font-weight:normal;font-size:10px;font-family:'DejaVu Sans';writing-mode:lr-tb;fill:#000000;fill-opacity:1;fill-rule:nonzero;stroke:none"
         x="0"
         y="0">Generation</tspan></text>
    <path
       id="path28"
       d="M 51.6375,92.25054 H 711.1"
       style="fill:none;stroke:#e6e6e6;stroke-width:1;stroke-linecap:square;stroke-linejoin:round;stroke-miterlimit:10;stroke-dasharray:none;stroke-opacity:1"
       transform="matrix(1.3333333,0,0,-1.3333333,0,598.87499)"
       clip-path="url(#clipPath29)" />
    <text
       id="text29"
       xml:space="preserve"
       transform="matrix(1.3333333,0,0,1.3333333,27.829167,480.93677)"><tspan
         id="tspan29"
         style="font-variant:normal;font-weight:normal;font-size:10px;font-family:'DejaVu Sans';writing-mode:lr-tb;fill:#000000;fill-opacity:1;fill-rule:nonzero;stroke:none"
         x="0"
         y="0">0.64</tspan></text>
    <path
       id="path30"
       d="M 51.6375,165.93139 H 711.1"
       style="fill:none;stroke:#e6e6e6;stroke-width:1;stroke-linecap:square;stroke-linejoin:round;stroke-miterlimit:10;stroke-dasharray:none;stroke-opacity:1"
       transform="matrix(1.3333333,0,0,-1.3333333,0,598.87499)"
       clip-path="url(#clipPath31)" />
    <text
       id="text31"
       xml:space="preserve"
       transform="matrix(1.3333333,0,0,1.3333333,27.829167,382.69564)"><tspan
         id="tspan31"
         style="font-variant:normal;font-weight:normal;font-size:10px;font-family:'DejaVu Sans';writing-mode:lr-tb;fill:#000000;fill-opacity:1;fill-rule:nonzero;stroke:none"
         x="0"
         y="0">0.66</tspan></text>
    <path
       id="path32"
       d="M 51.6375,239.61224 H 711.1"
       style="fill:none;stroke:#e6e6e6;stroke-width:1;stroke-linecap:square;stroke-linejoin:round;stroke-miterlimit:10;stroke-dasharray:none;stroke-opacity:1"
       transform="matrix(1.3333333,0,0,-1.3333333,0,598.87499)"
       clip-path="url(#clipPath33)" />
    <text
       id="text33"
       xml:space="preserve"
       transform="matrix(1.3333333,0,0,1.3333333,27.829167,284.4545)"><tspan
         id="tspan33"
         style="font-variant:normal;font-weight:normal;font-size:10px;font-family:'DejaVu Sans';writing-mode:lr-tb;fill:#000000;fill-opacity:1;fill-rule:nonzero;stroke:none"
         x="0"
         y="0">0.68</tspan></text>
    <path
       id="path34"
       d="M 51.6375,313.29309 H 711.1"
       style="fill:none;stroke:#e6e6e6;stroke-width:1;stroke-linecap:square;stroke-linejoin:round;stroke-miterlimit:10;stroke-dasharray:none;stroke-opacity:1"
       transform="matrix(1.3333333,0,0,-1.3333333,0,598.87499)"
       clip-path="url(#clipPath35)" />
    <text
       id="text35"
       xml:space="preserve"
       transform="matrix(1.3333333,0,0,1.3333333,27.829167,186.21337)"><tspan
         id="tspan35"
         style="font-variant:normal;font-weight:normal;font-size:10px;font-family:'DejaVu Sans';writing-mode:lr-tb;fill:#000000;fill-opacity:1;fill-rule:nonzero;stroke:none"
         x="0"
         y="0">0.70</tspan></text>
    <path
       id="path36"
       d="M 51.6375,386.97394 H 711.1"
       style="fill:none;stroke:#e6e6e6;stroke-width:1;stroke-linecap:square;stroke-linejoin:round;stroke-miterlimit:10;stroke-dasharray:none;stroke-opacity:1"
       transform="matrix(1.3333333,0,0,-1.3333333,0,598.87499)"
       clip-path="url(#clipPath37)" />
    <text
       id="text37"
       xml:space="preserve"
       transform="matrix(1.3333333,0,0,1.3333333,27.829167,87.97224)"><tspan
         id="tspan37"
         style="font-variant:normal;font-weight:normal;font-size:10px;font-family:'DejaVu Sans';writing-mode:lr-tb;fill:#000000;fill-opacity:1;fill-rule:nonzero;stroke:none"
         x="0"
         y="0">0.72</tspan></text>
    <text
       id="text38"
       xml:space="preserve"
       transform="matrix(0,-1.3333333,1.3333333,0,19.725,311.84583)"><tspan
         id="tspan38"
         style="font-variant:normal;font-weight:normal;font-size:10px;font-family:'DejaVu Sans';writing-mode:lr-tb;fill:#000000;fill-opacity:1;fill-rule:nonzero;stroke:none"
         x="0"
         y="0">ROC AUC</tspan></text>
    <path
       id="path38"
       d="m 81.613068,213.6151 7.785862,137.74449 h 7.785862 l 7.785858,13.54491 h 7.78587 l 7.78586,2.04636 h 7.78586 l 7.78586,13.75062 h 7.78586 7.78586 7.78587 7.78586 7.78586 l 7.78586,1.68906 h 7.78586 l 7.78587,10.48079 h 7.78586 7.78586 7.78586 7.78586 7.78586 l 7.78587,8.58602 h 7.78586 7.78586 7.78586 7.78586 7.78587 7.78586 7.78586 7.78586 7.78586 7.78587 7.78586 7.78586 7.78586 7.78586 7.78586 7.78587 7.78586 l 7.78586,0.66047 h 7.78586 7.78586 7.78587 7.78586 l 7.78586,1.74319 h 7.78586 7.78586 7.78587 7.78586 7.78586 7.78586 7.78586 7.78587 l 7.78586,3.91947 h 7.78586 7.78586 7.78586 7.78586 7.78587 7.78586 7.78586 7.78586 7.78586 7.78587 7.78586 7.78586 7.78586 7.78586 7.78586 7.78587 7.78586 7.78586 7.78586 7.78586 7.78587 7.78586 7.78586 7.78586"
       style="fill:none;stroke:#1f77b4;stroke-width:1.5;stroke-linecap:square;stroke-linejoin:round;stroke-miterlimit:10;stroke-dasharray:none;stroke-opacity:1"
       transform="matrix(1.3333333,0,0,-1.3333333,0,598.87499)"
       clip-path="url(#clipPath39)" />
    <path
       id="path40"
       d="m 81.613068,213.6151 7.785862,137.74449 7.785862,-12.47301 7.785858,26.01792 7.78587,-9.73912 7.78586,11.78548 7.78586,-11.88834 7.78586,25.63896 7.78586,-31.85381 7.78586,28.94128 7.78587,-7.82811 7.78586,8.31534 7.78586,-8.73761 7.78586,12.85197 7.78586,-3.0154 7.78587,13.49619 7.78586,-2.39282 7.78586,-18.29808 7.78586,15.09321 7.78586,3.09659 7.78586,1.56996 7.78587,9.51716 7.78586,-15.8078 7.78586,5.26205 7.78586,2.84757 7.78586,-1.74319 7.78587,4.65572 7.78586,1.60244 7.78586,-3.68127 7.78586,5.32701 7.78586,0.38979 7.78587,-0.61716 7.78586,-0.46557 7.78586,2.17628 7.78586,-3.18322 7.78586,-1.21265 7.78586,2.43613 7.78587,1.30469 7.78586,-0.4385 7.78586,1.80815 7.78586,-1.52665 7.78586,-2.41448 7.78587,2.58772 7.78586,-0.96363 7.78586,4.06023 7.78586,-7.89308 7.78586,4.34174 7.78587,-2.98833 7.78586,-3.38894 7.78586,8.32617 7.78586,-4.53662 7.78586,0.88783 7.78587,1.40755 7.78586,7.76315 7.78586,-2.37117 7.78586,-6.82118 7.78586,3.50803 7.78586,-1.13686 7.78587,1.12604 7.78586,-1.26679 7.78586,1.62409 7.78586,0.51971 7.78586,0.62798 7.78587,-0.88784 7.78586,-0.42226 7.78586,-0.72543 7.78586,0.75791 7.78586,-1.53747 7.78586,1.33175 7.78587,0.30316 7.78586,0.17324 7.78586,-1.93808 7.78586,0.31399 7.78586,3.91947 7.78587,2.16546 7.78586,-3.38894 7.78586,-1.88394 7.78586,0.17323"
       style="fill:none;stroke:#1f77b4;stroke-width:1.5;stroke-linecap:butt;stroke-linejoin:round;stroke-miterlimit:10;stroke-dasharray:5.55, 2.4;stroke-dashoffset:0;stroke-opacity:1"
       transform="matrix(1.3333333,0,0,-1.3333333,0,598.87499)"
       clip-path="url(#clipPath41)" />
    <path
       id="path42"
       d="m 81.613068,361.62384 h 7.785862 7.785862 7.785858 l 7.78587,2.57689 7.78586,0.82287 7.78586,4.73152 h 7.78586 7.78586 l 7.78586,1.3101 h 7.78587 7.78586 7.78586 7.78586 7.78586 l 7.78587,1.12603 h 7.78586 l 7.78586,5.46777 h 7.78586 7.78586 7.78586 7.78587 7.78586 7.78586 7.78586 7.78586 7.78587 7.78586 7.78586 7.78586 7.78586 7.78587 7.78586 7.78586 7.78586 7.78586 7.78586 7.78587 7.78586 7.78586 7.78586 7.78586 7.78587 7.78586 7.78586 7.78586 7.78586 7.78587 l 7.78586,1.05025 h 7.78586 7.78586 7.78586 7.78587 7.78586 7.78586 7.78586 7.78586 7.78586 7.78587 7.78586 7.78586 7.78586 l 7.78586,3.05329 h 7.78587 7.78586 l 7.78586,1.15851 h 7.78586 7.78586 l 7.78586,2.44697 h 7.78587 7.78586 7.78586 7.78586 l 7.78586,6.36643 h 7.78587 l 7.78586,0.90949 h 7.78586 7.78586"
       style="fill:none;stroke:#ff7f0e;stroke-width:1.5;stroke-linecap:square;stroke-linejoin:round;stroke-miterlimit:10;stroke-dasharray:none;stroke-opacity:1"
       transform="matrix(1.3333333,0,0,-1.3333333,0,598.87499)"
       clip-path="url(#clipPath43)" />
    <path
       id="path44"
       d="m 81.613068,361.62384 7.785862,-14.19455 7.785862,-3.07494 7.785858,5.29453 7.78587,14.55185 7.78586,0.82287 7.78586,4.73152 7.78586,-7.27593 7.78586,6.48554 7.78586,2.10049 7.78587,-12.24564 7.78586,5.60852 7.78586,-6.07409 7.78586,-0.10828 7.78586,8.46693 7.78587,5.47859 7.78586,-12.70038 7.78586,18.16815 7.78586,-6.72373 7.78586,-2.64185 7.78586,2.29538 7.78587,-2.57148 7.78586,-1.71612 7.78586,7.84977 7.78586,-1.25596 7.78586,-4.77483 7.78587,2.19794 7.78586,-1.81898 7.78586,4.78565 7.78586,-2.31704 7.78586,2.25207 7.78587,-5.0455 7.78586,4.52579 7.78586,-0.36812 7.78586,0.62798 7.78586,-4.56911 7.78586,0.10828 7.78587,-5.93335 7.78586,4.23346 7.78586,5.99831 7.78586,4.02774 7.78586,-2.45779 7.78587,-4.16849 7.78586,3.00998 7.78586,2.04635 7.78586,-0.37895 7.78586,-5.58687 7.78587,6.07409 7.78586,3.34563 7.78586,-7.23262 7.78586,0.30317 7.78586,6.89697 7.78587,-6.79953 7.78586,-1.13686 7.78586,-1.56995 7.78586,1.16934 7.78586,4.48249 7.78586,3.86533 7.78587,-4.41752 7.78586,-1.11521 7.78586,4.15767 7.78586,0.73626 7.78586,3.71375 7.78587,-3.03164 7.78586,0.0758 7.78586,4.11436 7.78586,-4.87226 7.78586,2.30079 7.78586,5.01844 7.78587,-3.19405 7.78586,-0.54136 7.78586,-4.02233 7.78586,3.32938 7.78586,10.79479 7.78587,-6.57215 7.78586,7.48164 7.78586,-2.65268 7.78586,-1.69988"
       style="fill:none;stroke:#ff7f0e;stroke-width:1.5;stroke-linecap:butt;stroke-linejoin:round;stroke-miterlimit:10;stroke-dasharray:5.55, 2.4;stroke-dashoffset:0;stroke-opacity:1"
       transform="matrix(1.3333333,0,0,-1.3333333,0,598.87499)"
       clip-path="url(#clipPath45)" />
    <path
       id="path46"
       d="m 81.613068,60.344318 7.785862,277.903452 7.785862,10.3617 7.785858,25.66062 h 7.78587 l 7.78586,11.3578 h 7.78586 l 7.78586,2.29538 h 7.78586 7.78586 7.78587 l 7.78586,1.14769 h 7.78586 7.78586 7.78586 7.78587 7.78586 7.78586 7.78586 l 7.78586,1.01776 h 7.78586 7.78587 7.78586 7.78586 7.78586 l 7.78586,10.719 h 7.78587 7.78586 7.78586 7.78586 7.78586 7.78587 7.78586 7.78586 7.78586 7.78586 7.78586 7.78587 7.78586 7.78586 7.78586 7.78586 7.78587 l 7.78586,2.11132 7.78586,3.18321 h 7.78586 7.78586 7.78587 7.78586 7.78586 7.78586 7.78586 l 7.78587,2.41448 h 7.78586 7.78586 7.78586 7.78586 l 7.78586,5.29454 h 7.78587 7.78586 7.78586 7.78586 7.78586 7.78587 7.78586 7.78586 7.78586 l 7.78586,2.5444 h 7.78586 7.78587 7.78586 7.78586 7.78586 7.78586 7.78587 7.78586 7.78586 7.78586"
       style="fill:none;stroke:#2ca02c;stroke-width:1.5;stroke-linecap:square;stroke-linejoin:round;stroke-miterlimit:10;stroke-dasharray:none;stroke-opacity:1"
       transform="matrix(1.3333333,0,0,-1.3333333,0,598.87499)"
       clip-path="url(#clipPath47)" />
    <path
       id="path48"
       d="m 81.613068,60.344318 7.785862,277.903452 7.785862,10.3617 7.785858,25.66062 7.78587,-4.03857 7.78586,15.39637 7.78586,-4.2876 7.78586,6.58298 7.78586,-6.64794 7.78586,-9.82033 7.78587,14.05379 7.78586,3.56217 7.78586,-8.06631 7.78586,5.955 7.78586,-9.91778 7.78587,11.45525 7.78586,-1.24514 7.78586,-5.44611 7.78586,6.3556 7.78586,1.92725 7.78586,-1.1531 7.78587,-4.7261 7.78586,0.92032 7.78586,2.79343 7.78586,0.69295 7.78586,12.1915 7.78587,-4.38504 7.78586,-5.56522 7.78586,1.191 7.78586,3.54052 7.78586,-9.56048 7.78587,10.63238 7.78586,3.64879 7.78586,-3.88699 7.78586,0.32481 7.78586,2.51193 7.78586,0.10827 7.78587,-3.9303 7.78586,-9.11655 7.78586,6.1174 7.78586,1.29927 7.78586,4.75317 7.78587,-1.4725 7.78586,5.90086 7.78586,3.18321 7.78586,-6.13906 7.78586,2.01387 7.78587,3.94113 7.78586,-1.72154 7.78586,-0.61715 7.78586,-1.27762 7.78586,-3.28066 7.78587,9.49551 7.78586,-0.27068 7.78586,-3.43224 7.78586,-0.53054 7.78586,-1.74319 7.78586,11.27119 7.78587,-19.75977 7.78586,3.41059 7.78586,3.8112 7.78586,-1.89477 7.78586,-0.45475 7.78587,7.99053 7.78586,-4.68821 7.78586,6.61546 7.78586,-9.0949 7.78586,16.60902 7.78586,-10.66485 7.78587,-4.90476 7.78586,-2.86922 7.78586,3.32397 7.78586,3.25901 7.78586,-5.87921 7.78587,-1.75402 7.78586,0.10828 7.78586,-0.38979 7.78586,5.13213"
       style="fill:none;stroke:#2ca02c;stroke-width:1.5;stroke-linecap:butt;stroke-linejoin:round;stroke-miterlimit:10;stroke-dasharray:5.55, 2.4;stroke-dashoffset:0;stroke-opacity:1"
       transform="matrix(1.3333333,0,0,-1.3333333,0,598.87499)"
       clip-path="url(#clipPath49)" />
    <path
       id="path50"
       d="m 81.613068,224.13921 7.785862,99.7083 7.785862,45.59362 h 7.785858 7.78587 7.78586 7.78586 7.78586 7.78586 7.78586 7.78587 l 7.78586,11.44442 h 7.78586 7.78586 7.78586 7.78587 7.78586 l 7.78586,1.46168 7.78586,1.61326 7.78586,4.65573 h 7.78586 7.78587 l 7.78586,6.94027 h 7.78586 l 7.78586,2.63103 h 7.78586 7.78587 7.78586 7.78586 7.78586 7.78586 7.78587 7.78586 7.78586 7.78586 7.78586 7.78586 7.78587 7.78586 7.78586 7.78586 7.78586 7.78587 7.78586 l 7.78586,6.20402 7.78586,2.40366 h 7.78586 7.78587 7.78586 7.78586 7.78586 7.78586 7.78587 7.78586 7.78586 7.78586 7.78586 7.78586 7.78587 7.78586 7.78586 7.78586 7.78586 7.78587 7.78586 7.78586 7.78586 7.78586 7.78586 7.78587 7.78586 7.78586 7.78586 7.78586 7.78587 7.78586 7.78586 7.78586"
       style="fill:none;stroke:#d62728;stroke-width:1.5;stroke-linecap:square;stroke-linejoin:round;stroke-miterlimit:10;stroke-dasharray:none;stroke-opacity:1"
       transform="matrix(1.3333333,0,0,-1.3333333,0,598.87499)"
       clip-path="url(#clipPath51)" />
    <path
       id="path52"
       d="m 81.613068,224.13921 7.785862,99.7083 7.785862,45.59362 7.785858,-38.17695 7.78587,28.80053 7.78586,0.62799 7.78586,-21.7195 7.78586,17.80003 7.78586,-13.3392 7.78586,17.28032 7.78587,-6.69125 7.78586,26.86245 7.78586,-7.34089 7.78586,3.70293 7.78586,0.79039 7.78587,-13.6207 7.78586,13.23092 7.78586,4.69903 7.78586,1.61326 7.78586,4.65573 7.78586,-10.42666 7.78587,2.49027 7.78586,14.87666 7.78586,-0.94197 7.78586,3.573 7.78586,-17.77837 7.78587,15.48299 7.78586,-2.23042 7.78586,-9.46303 7.78586,-10.12349 7.78586,9.82033 7.78587,0.20572 7.78586,2.27914 7.78586,-0.46016 7.78586,2.8584 7.78586,1.08272 7.78586,6.09575 7.78587,-4.74234 7.78586,-4.23346 7.78586,10.0477 7.78586,-1.82439 7.78586,-7.74691 7.78587,-2.11132 7.78586,5.14295 7.78586,13.90221 7.78586,2.40366 7.78586,-3.91947 7.78587,-3.55135 7.78586,-11.81254 7.78586,5.55438 7.78586,-2.23041 7.78586,6.21485 7.78587,5.02385 7.78586,-15.00659 7.78586,7.63322 7.78586,6.46388 7.78586,1.3101 7.78586,-14.97411 7.78587,6.09575 7.78586,1.18017 7.78586,-1.6674 7.78586,4.45001 7.78586,-2.55524 7.78587,3.11826 7.78586,-7.24344 7.78586,4.78565 7.78586,-6.1932 7.78586,-0.87701 7.78586,11.81255 7.78587,-14.06462 7.78586,13.52326 7.78586,-3.85451 7.78586,-6.42057 7.78586,1.16935 7.78587,8.05548 7.78586,-1.0719 7.78586,5.26205 7.78586,-7.91473"
       style="fill:none;stroke:#d62728;stroke-width:1.5;stroke-linecap:butt;stroke-linejoin:round;stroke-miterlimit:10;stroke-dasharray:5.55, 2.4;stroke-dashoffset:0;stroke-opacity:1"
       transform="matrix(1.3333333,0,0,-1.3333333,0,598.87499)"
       clip-path="url(#clipPath53)" />
    <path
       id="path54"
       d="m 81.613068,344.81992 7.785862,0.0325 7.785862,4.62865 h 7.785858 l 7.78587,26.26695 h 7.78586 7.78586 7.78586 7.78586 7.78586 7.78587 7.78586 7.78586 7.78586 7.78586 7.78587 7.78586 7.78586 7.78586 7.78586 7.78586 l 7.78587,1.94349 h 7.78586 7.78586 7.78586 7.78586 7.78587 7.78586 7.78586 7.78586 7.78586 7.78587 7.78586 7.78586 7.78586 7.78586 7.78586 7.78587 7.78586 7.78586 7.78586 7.78586 l 7.78587,1.50499 h 7.78586 7.78586 7.78586 7.78586 7.78587 l 7.78586,3.90865 h 7.78586 7.78586 7.78586 7.78587 7.78586 l 7.78586,2.07883 h 7.78586 7.78586 7.78586 7.78587 7.78586 7.78586 7.78586 7.78586 7.78587 7.78586 7.78586 7.78586 7.78586 7.78586 7.78587 7.78586 7.78586 7.78586 7.78586 7.78587 7.78586 7.78586 7.78586"
       style="fill:none;stroke:#9467bd;stroke-width:1.5;stroke-linecap:square;stroke-linejoin:round;stroke-miterlimit:10;stroke-dasharray:none;stroke-opacity:1"
       transform="matrix(1.3333333,0,0,-1.3333333,0,598.87499)"
       clip-path="url(#clipPath55)" />
    <path
       id="path56"
       d="m 81.613068,344.81992 7.785862,0.0325 7.785862,4.62865 7.785858,-9.55506 7.78587,35.82201 7.78586,-17.04753 7.78586,-18.93689 7.78586,27.23058 7.78586,1.61326 7.78586,-1.29927 7.78587,-0.29234 7.78586,4.51497 7.78586,-12.01285 7.78586,6.50177 7.78586,-2.65268 7.78587,-1.3101 7.78586,3.35645 7.78586,0.14076 7.78586,0.73625 7.78586,2.89088 7.78586,-4.24429 7.78587,12.75452 7.78586,-9.44137 7.78586,1.88394 7.78586,-2.1438 7.78586,5.2404 7.78587,3.43224 7.78586,-4.42835 7.78586,-8.69429 7.78586,0.18406 7.78586,10.91389 7.78587,-11.17374 7.78586,3.99526 7.78586,-5.41364 7.78586,4.17933 7.78586,7.40585 7.78586,3.94654 7.78587,-0.005 7.78586,-4.55827 7.78586,2.7826 7.78586,-5.06716 7.78586,-5.09964 7.78587,13.56656 7.78586,-3.50803 7.78586,-7.88225 7.78586,9.13821 7.78586,-3.41059 7.78587,5.02386 7.78586,4.54745 7.78586,-2.1438 7.78586,-6.64794 7.78586,6.39891 7.78587,-2.64185 7.78586,-0.22737 7.78586,7.34088 7.78586,-12.44053 7.78586,1.53748 7.78586,1.49416 7.78587,0.69294 7.78586,-0.41143 7.78586,-1.51582 7.78586,1.20183 7.78586,0.66046 7.78587,-2.94502 7.78586,8.46693 7.78586,-7.0269 7.78586,3.86533 7.78586,-3.28066 7.78586,2.18711 7.78587,-3.30232 7.78586,2.539 7.78586,-0.33023 7.78586,-3.05329 7.78586,2.12214 7.78587,0.8337 7.78586,-0.56302 7.78586,-1.79732 7.78586,0.75791"
       style="fill:none;stroke:#9467bd;stroke-width:1.5;stroke-linecap:butt;stroke-linejoin:round;stroke-miterlimit:10;stroke-dasharray:5.55, 2.4;stroke-dashoffset:0;stroke-opacity:1"
       transform="matrix(1.3333333,0,0,-1.3333333,0,598.87499)"
       clip-path="url(#clipPath57)" />
    <path
       id="path58"
       d="m 81.613068,154.83387 7.785862,147.99791 7.785862,37.49483 h 7.785858 7.78587 l 7.78586,0.79039 h 7.78586 l 7.78586,14.06462 7.78586,2.9775 7.78586,13.75062 h 7.78587 l 7.78586,3.73541 7.78586,2.76095 h 7.78586 7.78586 7.78587 7.78586 7.78586 7.78586 l 7.78586,0.18407 7.78586,1.37506 7.78587,5.4786 h 7.78586 l 7.78586,10.57824 h 7.78586 l 7.78586,8.05548 h 7.78587 7.78586 7.78586 7.78586 7.78586 7.78587 l 7.78586,1.21807 h 7.78586 7.78586 7.78586 7.78586 7.78587 7.78586 l 7.78586,1.87853 h 7.78586 7.78586 7.78587 7.78586 7.78586 l 7.78586,2.24125 7.78586,0.2815 h 7.78587 l 7.78586,0.5522 h 7.78586 7.78586 7.78586 7.78587 7.78586 7.78586 7.78586 l 7.78586,0.5197 h 7.78586 l 7.78587,0.43309 h 7.78586 7.78586 7.78586 7.78586 7.78587 7.78586 7.78586 7.78586 7.78586 7.78586 l 7.78587,0.21655 h 7.78586 7.78586 7.78586 7.78586 7.78587 7.78586 7.78586 7.78586"
       style="fill:none;stroke:#8c564b;stroke-width:1.5;stroke-linecap:square;stroke-linejoin:round;stroke-miterlimit:10;stroke-dasharray:none;stroke-opacity:1"
       transform="matrix(1.3333333,0,0,-1.3333333,0,598.87499)"
       clip-path="url(#clipPath59)" />
    <path
       id="path60"
       d="m 81.613068,154.83387 7.785862,147.99791 7.785862,37.49483 7.785858,-60.55691 7.78587,-72.09876 7.78586,133.44606 7.78586,-3.75706 7.78586,17.82168 7.78586,2.9775 7.78586,13.75062 7.78587,-4.24428 7.78586,7.97969 7.78586,2.76095 7.78586,-17.8325 7.78586,2.95584 7.78587,-3.56217 7.78586,3.03163 7.78586,3.98444 7.78586,-3.77872 7.78586,15.38555 7.78586,1.37506 7.78587,5.4786 7.78586,-2.99915 7.78586,13.57739 7.78586,-3.2157 7.78586,11.27118 7.78587,-8.88918 7.78586,5.5219 7.78586,-12.84113 7.78586,15.5696 7.78586,-26.99237 7.78587,26.62425 7.78586,2.225 7.78586,-13.55032 7.78586,-11.49856 7.78586,14.71425 7.78586,-5.34866 7.78587,8.75925 7.78586,0.0217 7.78586,8.78091 7.78586,-3.84368 7.78586,1.65657 7.78587,-2.23041 7.78586,3.8545 7.78586,-2.08966 7.78586,4.89393 7.78586,0.2815 7.78587,-7.28675 7.78586,7.83895 7.78586,-3.03164 7.78586,0.49806 7.78586,1.90559 7.78587,-2.68516 7.78586,-2.83674 7.78586,3.41059 7.78586,-3.35104 7.78586,6.61004 7.78586,-5.82507 7.78587,6.25816 7.78586,-4.85061 7.78586,3.22652 7.78586,-3.58382 7.78586,3.58382 7.78587,-0.88783 7.78586,-2.56606 7.78586,-0.37896 7.78586,1.67823 7.78586,-1.60244 7.78586,-2.1438 7.78587,7.7415 7.78586,-6.17154 7.78586,0.64963 7.78586,1.93809 7.78586,-3.8112 7.78587,2.80426 7.78586,-0.42768 7.78586,0.60092 7.78586,-0.0325"
       style="fill:none;stroke:#8c564b;stroke-width:1.5;stroke-linecap:butt;stroke-linejoin:round;stroke-miterlimit:10;stroke-dasharray:5.55, 2.4;stroke-dashoffset:0;stroke-opacity:1"
       transform="matrix(1.3333333,0,0,-1.3333333,0,598.87499)"
       clip-path="url(#clipPath61)" />
    <path
       id="path62"
       d="m 81.613068,308.29955 7.785862,42.25882 7.785862,0.56302 7.785858,21.25393 h 7.78587 7.78586 7.78586 7.78586 l 7.78586,5.77093 h 7.78586 7.78587 7.78586 7.78586 7.78586 7.78586 7.78587 l 7.78586,8.31534 h 7.78586 7.78586 7.78586 7.78586 7.78587 7.78586 7.78586 7.78586 7.78586 7.78587 7.78586 7.78586 7.78586 7.78586 7.78587 7.78586 7.78586 7.78586 7.78586 7.78586 7.78587 7.78586 7.78586 7.78586 7.78586 7.78587 7.78586 7.78586 7.78586 7.78586 7.78587 7.78586 7.78586 7.78586 7.78586 7.78587 7.78586 7.78586 7.78586 7.78586 7.78586 7.78587 7.78586 7.78586 7.78586 7.78586 7.78587 7.78586 7.78586 7.78586 7.78586 7.78586 7.78587 7.78586 7.78586 7.78586 7.78586 7.78587 7.78586 7.78586 7.78586"
       style="fill:none;stroke:#e377c2;stroke-width:1.5;stroke-linecap:square;stroke-linejoin:round;stroke-miterlimit:10;stroke-dasharray:none;stroke-opacity:1"
       transform="matrix(1.3333333,0,0,-1.3333333,0,598.87499)"
       clip-path="url(#clipPath63)" />
    <path
       id="path64"
       d="m 81.613068,308.29955 7.785862,42.25882 7.785862,0.56302 7.785858,21.25393 7.78587,-14.4544 7.78586,-2.89088 7.78586,16.68481 7.78586,-21.95769 7.78586,28.38909 7.78586,-3.60548 7.78587,-30.95516 7.78586,4.72069 7.78586,25.42242 7.78586,-1.78649 7.78586,-0.42227 7.78587,-4.42835 7.78586,19.36998 7.78586,-16.64151 7.78586,-11.87751 7.78586,10.98968 7.78586,-2.44697 7.78587,13.68567 7.78586,-6.65877 7.78586,2.12214 7.78586,1.23431 7.78586,0.25986 7.78587,-5.01303 7.78586,-5.56521 7.78586,1.75402 7.78586,-11.39029 7.78586,24.0257 7.78587,-11.20622 7.78586,-7.94721 7.78586,11.28201 7.78586,-2.37117 7.78586,-0.0433 7.78586,-5.39198 7.78587,9.46303 7.78586,-0.0541 7.78586,2.03552 7.78586,-5.29453 7.78586,9.5713 7.78587,-0.7146 7.78586,-11.596 7.78586,2.55524 7.78586,0.89866 7.78586,-1.18017 7.78587,13.44746 7.78586,-1.11521 7.78586,0.12993 7.78586,-8.07714 7.78586,-0.82287 7.78587,-0.40061 7.78586,-3.51886 7.78586,11.24953 7.78586,-9.50634 7.78586,2.0247 7.78586,5.50025 7.78587,-17.23701 7.78586,2.91253 7.78586,8.72678 7.78586,10.14515 7.78586,-22.81305 7.78587,14.44357 7.78586,3.63797 7.78586,-21.93605 7.78586,5.91169 7.78586,9.58213 7.78586,1.0719 7.78587,7.01607 7.78586,-14.06462 7.78586,8.65099 7.78586,-1.53748 7.78586,-8.48857 7.78587,9.60378 7.78586,8.72678 7.78586,-1.10438 7.78586,-7.6224"
       style="fill:none;stroke:#e377c2;stroke-width:1.5;stroke-linecap:butt;stroke-linejoin:round;stroke-miterlimit:10;stroke-dasharray:5.55, 2.4;stroke-dashoffset:0;stroke-opacity:1"
       transform="matrix(1.3333333,0,0,-1.3333333,0,598.87499)"
       clip-path="url(#clipPath65)" />
    <path
       id="path66"
       d="m 81.613068,339.72028 h 7.785862 l 7.785862,2.90171 7.785858,15.35306 h 7.78587 l 7.78586,11.98579 h 7.78586 7.78586 l 7.78586,2.382 7.78586,5.56521 7.78587,9.31145 h 7.78586 7.78586 7.78586 7.78586 7.78587 7.78586 7.78586 7.78586 7.78586 7.78586 l 7.78587,7.88225 h 7.78586 l 7.78586,3.3348 h 7.78586 7.78586 7.78587 7.78586 7.78586 7.78586 7.78586 7.78587 7.78586 7.78586 7.78586 l 7.78586,1.80815 7.78586,3.15074 h 7.78587 7.78586 7.78586 l 7.78586,3.43224 h 7.78586 7.78587 7.78586 7.78586 7.78586 7.78586 7.78587 7.78586 7.78586 7.78586 7.78586 7.78587 7.78586 l 7.78586,6.1932 h 7.78586 7.78586 7.78586 7.78587 7.78586 7.78586 7.78586 7.78586 7.78587 7.78586 7.78586 7.78586 7.78586 7.78586 7.78587 7.78586 7.78586 7.78586 7.78586 7.78587 7.78586 7.78586 7.78586"
       style="fill:none;stroke:#7f7f7f;stroke-width:1.5;stroke-linecap:square;stroke-linejoin:round;stroke-miterlimit:10;stroke-dasharray:none;stroke-opacity:1"
       transform="matrix(1.3333333,0,0,-1.3333333,0,598.87499)"
       clip-path="url(#clipPath67)" />
    <path
       id="path68"
       d="m 81.613068,339.72028 7.785862,-23.00794 7.785862,25.90965 7.785858,15.35306 7.78587,-9.6904 7.78586,21.67619 7.78586,-1.50499 7.78586,-9.95026 7.78586,13.83725 7.78586,5.56521 7.78587,9.31145 7.78586,-4.69903 7.78586,3.16156 7.78586,-16.72813 7.78586,7.68736 7.78587,-13.17678 7.78586,12.34308 7.78586,0.0216 7.78586,6.11741 7.78586,-2.37117 7.78586,-0.33565 7.78587,15.86195 7.78586,-11.45525 7.78586,14.79005 7.78586,-8.62933 7.78586,-2.382 7.78587,0.1191 7.78586,3.56217 7.78586,-0.85536 7.78586,7.52495 7.78586,0.51971 7.78587,-4.85061 7.78586,4.32008 7.78586,0.62798 7.78586,-15.23396 7.78586,17.08542 7.78586,3.15074 7.78587,-5.41364 7.78586,-2.66351 7.78586,-0.22737 7.78586,11.73676 7.78586,-8.84588 7.78587,-9.37641 7.78586,3.89782 7.78586,-1.87312 7.78586,5.91169 7.78586,7.27592 7.78587,-3.99526 7.78586,-0.44392 7.78586,-13.53408 7.78586,10.59989 7.78586,-0.97445 7.78587,10.85975 7.78586,-8.77009 7.78586,15.46134 7.78586,-20.26865 7.78586,13.05769 7.78586,-3.3348 7.78587,7.70901 7.78586,-22.89967 7.78586,12.08323 7.78586,-4.93723 7.78586,-4.25512 7.78587,10.2426 7.78586,1.24513 7.78586,-4.94806 7.78586,-6.65877 7.78586,2.05718 7.78586,-11.92082 7.78587,4.50415 7.78586,2.05718 7.78586,-25.34663 7.78586,26.09371 7.78586,13.56656 7.78587,-8.70512 7.78586,12.13737 7.78586,0.30316 7.78586,-1.81898"
       style="fill:none;stroke:#7f7f7f;stroke-width:1.5;stroke-linecap:butt;stroke-linejoin:round;stroke-miterlimit:10;stroke-dasharray:5.55, 2.4;stroke-dashoffset:0;stroke-opacity:1"
       transform="matrix(1.3333333,0,0,-1.3333333,0,598.87499)"
       clip-path="url(#clipPath69)" />
    <path
       id="path70"
       d="m 81.613068,135.64796 7.785862,224.05945 h 7.785862 l 7.785858,0.30317 h 7.78587 l 7.78586,19.42411 h 7.78586 7.78586 7.78586 7.78586 7.78587 7.78586 7.78586 7.78586 7.78586 7.78587 7.78586 7.78586 7.78586 l 7.78586,2.18711 7.78586,3.15074 h 7.78587 7.78586 7.78586 7.78586 7.78586 7.78587 7.78586 l 7.78586,5.10505 h 7.78586 7.78586 7.78587 l 7.78586,4.50956 7.78586,1.191 h 7.78586 7.78586 7.78586 7.78587 l 7.78586,2.67434 h 7.78586 7.78586 7.78586 l 7.78587,7.83894 h 7.78586 7.78586 7.78586 7.78586 7.78587 7.78586 7.78586 7.78586 7.78586 7.78587 7.78586 7.78586 7.78586 7.78586 7.78586 7.78587 7.78586 7.78586 7.78586 7.78586 7.78587 7.78586 7.78586 7.78586 7.78586 7.78586 7.78587 7.78586 7.78586 7.78586 7.78586 7.78587 7.78586 7.78586 l 7.78586,1.58078"
       style="fill:none;stroke:#bcbd22;stroke-width:1.5;stroke-linecap:square;stroke-linejoin:round;stroke-miterlimit:10;stroke-dasharray:none;stroke-opacity:1"
       transform="matrix(1.3333333,0,0,-1.3333333,0,598.87499)"
       clip-path="url(#clipPath71)" />
    <path
       id="path72"
       d="m 81.613068,135.64796 7.785862,224.05945 7.785862,-15.50464 7.785858,15.80781 7.78587,-5.14295 7.78586,24.56706 7.78586,-18.67703 7.78586,-5.61935 7.78586,-0.54137 7.78586,9.8853 7.78587,9.56048 7.78586,-1.21266 7.78586,-11.90999 7.78586,3.78954 7.78586,9.39807 7.78587,-9.26814 7.78586,14.4544 7.78586,-0.14075 7.78586,-11.58518 7.78586,14.05379 7.78586,3.15074 7.78587,-6.20403 7.78586,-3.80578 7.78586,-7.51954 7.78586,0.0866 7.78586,-1.40754 7.78587,14.11875 7.78586,-7.65488 7.78586,17.49145 7.78586,-19.94924 7.78586,2.20877 7.78587,-7.47082 7.78586,29.72085 7.78586,1.191 7.78586,-28.46489 7.78586,16.72813 7.78586,-5.41363 7.78587,5.7168 7.78586,14.10793 7.78586,-16.7931 7.78586,-1.22348 7.78586,13.06851 7.78587,12.78701 7.78586,-17.16122 7.78586,13.77228 7.78586,-18.48214 7.78586,6.25816 7.78587,-16.78227 7.78586,21.86025 7.78586,-8.74843 7.78586,15.75368 7.78586,-2.58772 7.78587,-10.68651 7.78586,0.54136 7.78586,-4.53662 7.78586,17.7134 7.78586,-9.54965 7.78586,-7.65487 7.78587,4.73151 7.78586,-8.19624 7.78586,10.43749 7.78586,-12.57046 7.78586,4.20098 7.78587,2.17628 7.78586,1.68905 7.78586,-2.33869 7.78586,19.43495 7.78586,-8.51023 7.78586,-14.71426 7.78587,0.51971 7.78586,21.82777 7.78586,-7.10269 7.78586,3.16157 7.78586,-13.67484 7.78587,11.81254 7.78586,6.1932 7.78586,-8.55354 7.78586,11.34698"
       style="fill:none;stroke:#bcbd22;stroke-width:1.5;stroke-linecap:butt;stroke-linejoin:round;stroke-miterlimit:10;stroke-dasharray:5.55, 2.4;stroke-dashoffset:0;stroke-opacity:1"
       transform="matrix(1.3333333,0,0,-1.3333333,0,598.87499)"
       clip-path="url(#clipPath73)" />
    <path
       id="path74"
       d="m 81.613068,358.93868 7.785862,8.15293 h 7.785862 7.785858 7.78587 7.78586 7.78586 7.78586 7.78586 l 7.78586,18.85027 h 7.78587 7.78586 l 7.78586,4.33091 h 7.78586 7.78586 l 7.78587,8.39113 h 7.78586 7.78586 7.78586 7.78586 7.78586 7.78587 7.78586 7.78586 7.78586 l 7.78586,14.91997 h 7.78587 7.78586 7.78586 7.78586 7.78586 7.78587 7.78586 7.78586 7.78586 7.78586 7.78586 7.78587 7.78586 7.78586 7.78586 7.78586 7.78587 7.78586 7.78586 7.78586 7.78586 7.78587 7.78586 7.78586 7.78586 7.78586 7.78587 7.78586 7.78586 7.78586 7.78586 7.78586 7.78587 7.78586 7.78586 7.78586 7.78586 7.78587 7.78586 7.78586 7.78586 7.78586 7.78586 7.78587 7.78586 7.78586 7.78586 7.78586 7.78587 7.78586 7.78586 7.78586"
       style="fill:none;stroke:#17becf;stroke-width:1.5;stroke-linecap:square;stroke-linejoin:round;stroke-miterlimit:10;stroke-dasharray:none;stroke-opacity:1"
       transform="matrix(1.3333333,0,0,-1.3333333,0,598.87499)"
       clip-path="url(#clipPath75)" />
    <path
       id="path76"
       d="m 81.613068,358.93868 7.785862,8.15293 7.785862,-13.83725 7.785858,-1.95973 7.78587,15.14734 7.78586,-3.1399 7.78586,-9.27897 7.78586,12.71121 7.78586,-18.80696 7.78586,38.01453 7.78587,-20.45271 7.78586,8.32617 7.78586,16.45745 7.78586,-9.93943 7.78586,-10.65403 7.78587,28.98459 7.78586,-12.37557 7.78586,-17.15039 7.78586,10.9572 7.78586,5.18626 7.78586,-3.85451 7.78587,1.32093 7.78586,-6.69125 7.78586,-1.24514 7.78586,-14.64929 7.78586,53.42173 7.78587,-42.13972 7.78586,13.56657 7.78586,-3.08577 7.78586,-12.40805 7.78586,7.3084 7.78587,-0.0433 7.78586,17.12874 7.78586,-16.51158 7.78586,19.73811 7.78586,-14.77922 7.78586,4.85061 7.78587,17.1937 7.78586,-15.50464 7.78586,1.65657 7.78586,-2.03553 7.78586,-1.85146 7.78587,10.405 7.78586,-8.21789 7.78586,-14.0971 7.78586,30.80357 7.78586,-19.86804 7.78587,-4.99137 7.78586,-0.30316 7.78586,-1.52664 7.78586,11.04381 7.78586,-3.10743 7.78587,-9.6904 7.78586,12.58128 7.78586,-4.15767 7.78586,9.4089 7.78586,-7.71984 7.78586,-2.19794 7.78587,-9.60378 7.78586,9.20317 7.78586,2.33869 7.78586,-8.53188 7.78586,6.44222 7.78587,-6.50719 7.78586,12.1915 7.78586,-2.15462 7.78586,-12.99272 7.78586,3.68127 7.78586,0.8337 7.78587,1.55913 7.78586,-14.32448 7.78586,12.15902 7.78586,1.27762 7.78586,-0.46557 7.78587,-3.46473 7.78586,5.45694 7.78586,-12.03992 7.78586,7.30841"
       style="fill:none;stroke:#17becf;stroke-width:1.5;stroke-linecap:butt;stroke-linejoin:round;stroke-miterlimit:10;stroke-dasharray:5.55, 2.4;stroke-dashoffset:0;stroke-opacity:1"
       transform="matrix(1.3333333,0,0,-1.3333333,0,598.87499)"
       clip-path="url(#clipPath77)" />
    <path
       id="path78"
       d="M 52.048437,426.48437 H 669.75156 c 1.33334,0 2,0.66666 2,2 v 13.67187 c 0,1.33334 -0.66666,2 -2,2 H 52.048437 c -1.333333,0 -2,-0.66666 -2,-2 v -13.67187 c 0,-1.33334 0.666667,-2 2,-2 z"
       style="fill:#ffffff;fill-opacity:0.8;fill-rule:nonzero;stroke:#cccccc;stroke-width:1;stroke-linecap:butt;stroke-linejoin:miter;stroke-miterlimit:10;stroke-dasharray:none;stroke-opacity:0.8"
       transform="matrix(1.3333333,0,0,-1.3333333,0,598.87499)" />
    <path
       id="path79"
       d="m 54.048437,436.06249 h 20"
       style="fill:none;stroke:#1f77b4;stroke-width:1.5;stroke-linecap:square;stroke-linejoin:round;stroke-miterlimit:10;stroke-dasharray:none;stroke-opacity:1"
       transform="matrix(1.3333333,0,0,-1.3333333,0,598.87499)" />
    <text
       id="text79"
       xml:space="preserve"
       transform="matrix(1.3333333,0,0,1.3333333,109.39792,22.125)"><tspan
         id="tspan79"
         style="font-variant:normal;font-weight:normal;font-size:10px;font-family:'DejaVu Sans';writing-mode:lr-tb;fill:#000000;fill-opacity:1;fill-rule:nonzero;stroke:none"
         x="0"
         y="0">#1</tspan></text>
    <path
       id="path80"
       d="m 116.78281,436.06249 h 20"
       style="fill:none;stroke:#ff7f0e;stroke-width:1.5;stroke-linecap:square;stroke-linejoin:round;stroke-miterlimit:10;stroke-dasharray:none;stroke-opacity:1"
       transform="matrix(1.3333333,0,0,-1.3333333,0,598.87499)" />
    <text
       id="text80"
       xml:space="preserve"
       transform="matrix(1.3333333,0,0,1.3333333,193.04375,22.125)"><tspan
         id="tspan80"
         style="font-variant:normal;font-weight:normal;font-size:10px;font-family:'DejaVu Sans';writing-mode:lr-tb;fill:#000000;fill-opacity:1;fill-rule:nonzero;stroke:none"
         x="0"
         y="0">#2</tspan></text>
    <path
       id="path81"
       d="m 179.51719,436.06249 h 20"
       style="fill:none;stroke:#2ca02c;stroke-width:1.5;stroke-linecap:square;stroke-linejoin:round;stroke-miterlimit:10;stroke-dasharray:none;stroke-opacity:1"
       transform="matrix(1.3333333,0,0,-1.3333333,0,598.87499)" />
    <text
       id="text81"
       xml:space="preserve"
       transform="matrix(1.3333333,0,0,1.3333333,276.68958,22.125)"><tspan
         id="tspan81"
         style="font-variant:normal;font-weight:normal;font-size:10px;font-family:'DejaVu Sans';writing-mode:lr-tb;fill:#000000;fill-opacity:1;fill-rule:nonzero;stroke:none"
         x="0"
         y="0">#3</tspan></text>
    <path
       id="path82"
       d="m 242.25156,436.06249 h 20"
       style="fill:none;stroke:#d62728;stroke-width:1.5;stroke-linecap:square;stroke-linejoin:round;stroke-miterlimit:10;stroke-dasharray:none;stroke-opacity:1"
       transform="matrix(1.3333333,0,0,-1.3333333,0,598.87499)" />
    <text
       id="text82"
       xml:space="preserve"
       transform="matrix(1.3333333,0,0,1.3333333,360.33542,22.125)"><tspan
         id="tspan82"
         style="font-variant:normal;font-weight:normal;font-size:10px;font-family:'DejaVu Sans';writing-mode:lr-tb;fill:#000000;fill-opacity:1;fill-rule:nonzero;stroke:none"
         x="0"
         y="0">#4</tspan></text>
    <path
       id="path83"
       d="m 304.98594,436.06249 h 20"
       style="fill:none;stroke:#9467bd;stroke-width:1.5;stroke-linecap:square;stroke-linejoin:round;stroke-miterlimit:10;stroke-dasharray:none;stroke-opacity:1"
       transform="matrix(1.3333333,0,0,-1.3333333,0,598.87499)" />
    <text
       id="text83"
       xml:space="preserve"
       transform="matrix(1.3333333,0,0,1.3333333,443.98125,22.125)"><tspan
         id="tspan83"
         style="font-variant:normal;font-weight:normal;font-size:10px;font-family:'DejaVu Sans';writing-mode:lr-tb;fill:#000000;fill-opacity:1;fill-rule:nonzero;stroke:none"
         x="0"
         y="0">#5</tspan></text>
    <path
       id="path84"
       d="m 367.72031,436.06249 h 20"
       style="fill:none;stroke:#8c564b;stroke-width:1.5;stroke-linecap:square;stroke-linejoin:round;stroke-miterlimit:10;stroke-dasharray:none;stroke-opacity:1"
       transform="matrix(1.3333333,0,0,-1.3333333,0,598.87499)" />
    <text
       id="text84"
       xml:space="preserve"
       transform="matrix(1.3333333,0,0,1.3333333,527.62708,22.125)"><tspan
         id="tspan84"
         style="font-variant:normal;font-weight:normal;font-size:10px;font-family:'DejaVu Sans';writing-mode:lr-tb;fill:#000000;fill-opacity:1;fill-rule:nonzero;stroke:none"
         x="0"
         y="0">#6</tspan></text>
    <path
       id="path85"
       d="m 430.45469,436.06249 h 20"
       style="fill:none;stroke:#e377c2;stroke-width:1.5;stroke-linecap:square;stroke-linejoin:round;stroke-miterlimit:10;stroke-dasharray:none;stroke-opacity:1"
       transform="matrix(1.3333333,0,0,-1.3333333,0,598.87499)" />
    <text
       id="text85"
       xml:space="preserve"
       transform="matrix(1.3333333,0,0,1.3333333,611.27292,22.125)"><tspan
         id="tspan85"
         style="font-variant:normal;font-weight:normal;font-size:10px;font-family:'DejaVu Sans';writing-mode:lr-tb;fill:#000000;fill-opacity:1;fill-rule:nonzero;stroke:none"
         x="0"
         y="0">#7</tspan></text>
    <path
       id="path86"
       d="m 493.18906,436.06249 h 20"
       style="fill:none;stroke:#7f7f7f;stroke-width:1.5;stroke-linecap:square;stroke-linejoin:round;stroke-miterlimit:10;stroke-dasharray:none;stroke-opacity:1"
       transform="matrix(1.3333333,0,0,-1.3333333,0,598.87499)" />
    <text
       id="text86"
       xml:space="preserve"
       transform="matrix(1.3333333,0,0,1.3333333,694.91875,22.125)"><tspan
         id="tspan86"
         style="font-variant:normal;font-weight:normal;font-size:10px;font-family:'DejaVu Sans';writing-mode:lr-tb;fill:#000000;fill-opacity:1;fill-rule:nonzero;stroke:none"
         x="0"
         y="0">#8</tspan></text>
    <path
       id="path87"
       d="m 555.92344,436.06249 h 20"
       style="fill:none;stroke:#bcbd22;stroke-width:1.5;stroke-linecap:square;stroke-linejoin:round;stroke-miterlimit:10;stroke-dasharray:none;stroke-opacity:1"
       transform="matrix(1.3333333,0,0,-1.3333333,0,598.87499)" />
    <text
       id="text87"
       xml:space="preserve"
       transform="matrix(1.3333333,0,0,1.3333333,778.56458,22.125)"><tspan
         id="tspan87"
         style="font-variant:normal;font-weight:normal;font-size:10px;font-family:'DejaVu Sans';writing-mode:lr-tb;fill:#000000;fill-opacity:1;fill-rule:nonzero;stroke:none"
         x="0"
         y="0">#9</tspan></text>
    <path
       id="path88"
       d="m 618.65781,436.06249 h 20"
       style="fill:none;stroke:#17becf;stroke-width:1.5;stroke-linecap:square;stroke-linejoin:round;stroke-miterlimit:10;stroke-dasharray:none;stroke-opacity:1"
       transform="matrix(1.3333333,0,0,-1.3333333,0,598.87499)" />
    <text
       id="text88"
       xml:space="preserve"
       transform="matrix(1.3333333,0,0,1.3333333,862.21042,22.125)"><tspan
         id="tspan88"
         style="font-variant:normal;font-weight:normal;font-size:10px;font-family:'DejaVu Sans';writing-mode:lr-tb;fill:#000000;fill-opacity:1;fill-rule:nonzero;stroke:none"
         x="0"
         y="0">#10</tspan></text>
  </g>
</svg>
