<svg xmlns="http://www.w3.org/2000/svg" width="962.4" height="598.875" viewBox="0 0 962.4 598.875"><defs><clipPath id="a" clipPathUnits="userSpaceOnUse"><path d="M64.356 42.544H711.1v391.612H64.356Z"/></clipPath><clipPath id="b" clipPathUnits="userSpaceOnUse"><path d="M64.356 42.544H711.1v391.612H64.356Z"/></clipPath><clipPath id="c" clipPathUnits="userSpaceOnUse"><path d="M64.356 42.544H711.1v391.612H64.356Z"/></clipPath><clipPath id="d" clipPathUnits="userSpaceOnUse"><path d="M64.356 42.544H711.1v391.612H64.356Z"/></clipPath><clipPath id="e" clipPathUnits="userSpaceOnUse"><path d="M64.356 42.544H711.1v391.612H64.356Z"/></clipPath><clipPath id="f" clipPathUnits="userSpaceOnUse"><path d="M64.356 42.544H711.1v391.612H64.356Z"/></clipPath><clipPath id="g" clipPathUnits="userSpaceOnUse"><path d="M64.356 42.544H711.1v391.612H64.356Z"/></clipPath><clipPath id="h" clipPathUnits="userSpaceOnUse"><path d="M64.356 42.544H711.1v391.612H64.356Z"/></clipPath><clipPath id="i" clipPathUnits="userSpaceOnUse"><path d="M64.356 42.544H711.1v391.612H64.356Z"/></clipPath><clipPath id="j" clipPathUnits="userSpaceOnUse"><path d="M64.356 42.544H711.1v391.612H64.356Z"/></clipPath><clipPath id="k" clipPathUnits="userSpaceOnUse"><path d="M64.356 42.544H711.1v391.612H64.356Z"/></clipPath><clipPath id="l" clipPathUnits="userSpaceOnUse"><path d="M64.356 42.544H711.1v391.612H64.356Z"/></clipPath><clipPath id="m" clipPathUnits="userSpaceOnUse"><path d="M64.356 42.544H711.1v391.612H64.356Z"/></clipPath><clipPath id="n" clipPathUnits="userSpaceOnUse"><path d="M64.356 42.544H711.1v391.612H64.356Z"/></clipPath><clipPath id="o" clipPathUnits="userSpaceOnUse"><path d="M64.356 42.544H711.1v391.612H64.356Z"/></clipPath><clipPath id="p" clipPathUnits="userSpaceOnUse"><path d="M64.356 42.544H711.1v391.612H64.356Z"/></clipPath><clipPath id="q" clipPathUnits="userSpaceOnUse"><path d="M64.356 42.544H711.1v391.612H64.356Z"/></clipPath><clipPath id="r" clipPathUnits="userSpaceOnUse"><path d="M64.356 42.544H711.1v391.612H64.356Z"/></clipPath><clipPath id="s" clipPathUnits="userSpaceOnUse"><path d="M64.356 42.544H711.1v391.612H64.356Z"/></clipPath><clipPath id="t" clipPathUnits="userSpaceOnUse"><path d="M64.356 42.544H711.1v391.612H64.356Z"/></clipPath><clipPath id="u" clipPathUnits="userSpaceOnUse"><path d="M64.356 42.544H711.1v391.612H64.356Z"/></clipPath><clipPath id="v" clipPathUnits="userSpaceOnUse"><path d="M64.356 42.544H711.1v391.612H64.356Z"/></clipPath><clipPath id="w" clipPathUnits="userSpaceOnUse"><path d="M64.356 42.544H711.1v391.612H64.356Z"/></clipPath><clipPath id="x" clipPathUnits="userSpaceOnUse"><path d="M64.356 42.544H711.1v391.612H64.356Z"/></clipPath><clipPath id="y" clipPathUnits="userSpaceOnUse"><path d="M64.356 42.544H711.1v391.612H64.356Z"/></clipPath><clipPath id="z" clipPathUnits="userSpaceOnUse"><path d="M64.356 42.544H711.1v391.612H64.356Z"/></clipPath><clipPath id="A" clipPathUnits="userSpaceOnUse"><path d="M64.356 42.544H711.1v391.612H64.356Z"/></clipPath><clipPath id="B" clipPathUnits="userSpaceOnUse"><path d="M64.356 42.544H711.1v391.612H64.356Z"/></clipPath><clipPath id="C" clipPathUnits="userSpaceOnUse"><path d="M64.356 42.544H711.1v391.612H64.356Z"/></clipPath><clipPath id="D" clipPathUnits="userSpaceOnUse"><path d="M64.356 42.544H711.1v391.612H64.356Z"/></clipPath><clipPath id="E" clipPathUnits="userSpaceOnUse"><path d="M64.356 42.544H711.1v391.612H64.356Z"/></clipPath><clipPath id="F" clipPathUnits="userSpaceOnUse"><path d="M64.356 42.544H711.1v391.612H64.356Z"/></clipPath><clipPath id="G" clipPathUnits="userSpaceOnUse"><path d="M64.356 42.544H711.1v391.612H64.356Z"/></clipPath></defs><path d="M67.029 42.544v391.612" clip-path="url(#a)" style="fill:none;stroke:#e6e6e6;stroke-width:1;stroke-linecap:square;stroke-linejoin:round;stroke-miterlimit:10;stroke-dasharray:none;stroke-opacity:1" transform="matrix(1.33333 0 0 -1.33333 0 598.875)"/><path d="M67.029 37.544v-3.5" style="fill:#000;fill-opacity:1;fill-rule:nonzero;stroke:#000;stroke-width:.8;stroke-linecap:butt;stroke-linejoin:round;stroke-miterlimit:10;stroke-dasharray:none;stroke-opacity:1" transform="matrix(1.33333 0 0 -1.33333 0 598.875)"/><text xml:space="preserve" transform="translate(85.132 568.275)scale(1.33333)"><tspan x="0" y="0" style="font-variant:normal;font-weight:400;font-size:10px;font-family:&quot;DejaVu Sans&quot;;writing-mode:lr-tb;fill:#000;fill-opacity:1;fill-rule:nonzero;stroke:none">0</tspan></text><path d="M200.653 42.544v391.612" clip-path="url(#b)" style="fill:none;stroke:#e6e6e6;stroke-width:1;stroke-linecap:square;stroke-linejoin:round;stroke-miterlimit:10;stroke-dasharray:none;stroke-opacity:1" transform="matrix(1.33333 0 0 -1.33333 0 598.875)"/><path d="M200.653 37.544v-3.5" style="fill:#000;fill-opacity:1;fill-rule:nonzero;stroke:#000;stroke-width:.8;stroke-linecap:butt;stroke-linejoin:round;stroke-miterlimit:10;stroke-dasharray:none;stroke-opacity:1" transform="matrix(1.33333 0 0 -1.33333 0 598.875)"/><text xml:space="preserve" transform="translate(263.298 568.275)scale(1.33333)"><tspan x="0" y="0" style="font-variant:normal;font-weight:400;font-size:10px;font-family:&quot;DejaVu Sans&quot;;writing-mode:lr-tb;fill:#000;fill-opacity:1;fill-rule:nonzero;stroke:none">5</tspan></text><path d="M334.278 42.544v391.612" clip-path="url(#c)" style="fill:none;stroke:#e6e6e6;stroke-width:1;stroke-linecap:square;stroke-linejoin:round;stroke-miterlimit:10;stroke-dasharray:none;stroke-opacity:1" transform="matrix(1.33333 0 0 -1.33333 0 598.875)"/><path d="M334.278 37.544v-3.5" style="fill:#000;fill-opacity:1;fill-rule:nonzero;stroke:#000;stroke-width:.8;stroke-linecap:butt;stroke-linejoin:round;stroke-miterlimit:10;stroke-dasharray:none;stroke-opacity:1" transform="matrix(1.33333 0 0 -1.33333 0 598.875)"/><text xml:space="preserve" transform="translate(437.225 568.275)scale(1.33333)"><tspan x="0" y="0" style="font-variant:normal;font-weight:400;font-size:10px;font-family:&quot;DejaVu Sans&quot;;writing-mode:lr-tb;fill:#000;fill-opacity:1;fill-rule:nonzero;stroke:none">10</tspan></text><path d="M467.903 42.544v391.612" clip-path="url(#d)" style="fill:none;stroke:#e6e6e6;stroke-width:1;stroke-linecap:square;stroke-linejoin:round;stroke-miterlimit:10;stroke-dasharray:none;stroke-opacity:1" transform="matrix(1.33333 0 0 -1.33333 0 598.875)"/><path d="M467.903 37.544v-3.5" style="fill:#000;fill-opacity:1;fill-rule:nonzero;stroke:#000;stroke-width:.8;stroke-linecap:butt;stroke-linejoin:round;stroke-miterlimit:10;stroke-dasharray:none;stroke-opacity:1" transform="matrix(1.33333 0 0 -1.33333 0 598.875)"/><text xml:space="preserve" transform="translate(615.391 568.275)scale(1.33333)"><tspan x="0" y="0" style="font-variant:normal;font-weight:400;font-size:10px;font-family:&quot;DejaVu Sans&quot;;writing-mode:lr-tb;fill:#000;fill-opacity:1;fill-rule:nonzero;stroke:none">15</tspan></text><path d="M601.528 42.544v391.612" clip-path="url(#e)" style="fill:none;stroke:#e6e6e6;stroke-width:1;stroke-linecap:square;stroke-linejoin:round;stroke-miterlimit:10;stroke-dasharray:none;stroke-opacity:1" transform="matrix(1.33333 0 0 -1.33333 0 598.875)"/><path d="M601.528 37.544v-3.5" style="fill:#000;fill-opacity:1;fill-rule:nonzero;stroke:#000;stroke-width:.8;stroke-linecap:butt;stroke-linejoin:round;stroke-miterlimit:10;stroke-dasharray:none;stroke-opacity:1" transform="matrix(1.33333 0 0 -1.33333 0 598.875)"/><text xml:space="preserve" transform="translate(793.558 568.275)scale(1.33333)"><tspan x="0" y="0" style="font-variant:normal;font-weight:400;font-size:10px;font-family:&quot;DejaVu Sans&quot;;writing-mode:lr-tb;fill:#000;fill-opacity:1;fill-rule:nonzero;stroke:none">20</tspan></text><text xml:space="preserve" transform="translate(479.762 586.504)scale(1.33333)"><tspan x="0" y="0" style="font-variant:normal;font-weight:400;font-size:10px;font-family:&quot;DejaVu Sans&quot;;writing-mode:lr-tb;fill:#000;fill-opacity:1;fill-rule:nonzero;stroke:none">Generation</tspan></text><path d="M64.356 81.913H711.1" clip-path="url(#f)" style="fill:none;stroke:#e6e6e6;stroke-width:1;stroke-linecap:square;stroke-linejoin:round;stroke-miterlimit:10;stroke-dasharray:none;stroke-opacity:1" transform="matrix(1.33333 0 0 -1.33333 0 598.875)"/><text xml:space="preserve" transform="translate(27.83 494.72)scale(1.33333)"><tspan x="0" y="0" style="font-variant:normal;font-weight:400;font-size:10px;font-family:&quot;DejaVu Sans&quot;;writing-mode:lr-tb;fill:#000;fill-opacity:1;fill-rule:nonzero;stroke:none">0.7075</tspan></text><path d="M64.356 126.11H711.1" clip-path="url(#g)" style="fill:none;stroke:#e6e6e6;stroke-width:1;stroke-linecap:square;stroke-linejoin:round;stroke-miterlimit:10;stroke-dasharray:none;stroke-opacity:1" transform="matrix(1.33333 0 0 -1.33333 0 598.875)"/><text xml:space="preserve" transform="translate(27.83 435.791)scale(1.33333)"><tspan x="0" y="0" style="font-variant:normal;font-weight:400;font-size:10px;font-family:&quot;DejaVu Sans&quot;;writing-mode:lr-tb;fill:#000;fill-opacity:1;fill-rule:nonzero;stroke:none">0.7100</tspan></text><path d="M64.356 170.307H711.1" clip-path="url(#h)" style="fill:none;stroke:#e6e6e6;stroke-width:1;stroke-linecap:square;stroke-linejoin:round;stroke-miterlimit:10;stroke-dasharray:none;stroke-opacity:1" transform="matrix(1.33333 0 0 -1.33333 0 598.875)"/><text xml:space="preserve" transform="translate(27.83 376.862)scale(1.33333)"><tspan x="0" y="0" style="font-variant:normal;font-weight:400;font-size:10px;font-family:&quot;DejaVu Sans&quot;;writing-mode:lr-tb;fill:#000;fill-opacity:1;fill-rule:nonzero;stroke:none">0.7125</tspan></text><path d="M64.356 214.504H711.1" clip-path="url(#i)" style="fill:none;stroke:#e6e6e6;stroke-width:1;stroke-linecap:square;stroke-linejoin:round;stroke-miterlimit:10;stroke-dasharray:none;stroke-opacity:1" transform="matrix(1.33333 0 0 -1.33333 0 598.875)"/><text xml:space="preserve" transform="translate(27.83 317.933)scale(1.33333)"><tspan x="0" y="0" style="font-variant:normal;font-weight:400;font-size:10px;font-family:&quot;DejaVu Sans&quot;;writing-mode:lr-tb;fill:#000;fill-opacity:1;fill-rule:nonzero;stroke:none">0.7150</tspan></text><path d="M64.356 258.7H711.1" clip-path="url(#j)" style="fill:none;stroke:#e6e6e6;stroke-width:1;stroke-linecap:square;stroke-linejoin:round;stroke-miterlimit:10;stroke-dasharray:none;stroke-opacity:1" transform="matrix(1.33333 0 0 -1.33333 0 598.875)"/><text xml:space="preserve" transform="translate(27.83 259.003)scale(1.33333)"><tspan x="0" y="0" style="font-variant:normal;font-weight:400;font-size:10px;font-family:&quot;DejaVu Sans&quot;;writing-mode:lr-tb;fill:#000;fill-opacity:1;fill-rule:nonzero;stroke:none">0.7175</tspan></text><path d="M64.356 302.898H711.1" clip-path="url(#k)" style="fill:none;stroke:#e6e6e6;stroke-width:1;stroke-linecap:square;stroke-linejoin:round;stroke-miterlimit:10;stroke-dasharray:none;stroke-opacity:1" transform="matrix(1.33333 0 0 -1.33333 0 598.875)"/><text xml:space="preserve" transform="translate(27.83 200.074)scale(1.33333)"><tspan x="0" y="0" style="font-variant:normal;font-weight:400;font-size:10px;font-family:&quot;DejaVu Sans&quot;;writing-mode:lr-tb;fill:#000;fill-opacity:1;fill-rule:nonzero;stroke:none">0.7200</tspan></text><path d="M64.356 347.095H711.1" clip-path="url(#l)" style="fill:none;stroke:#e6e6e6;stroke-width:1;stroke-linecap:square;stroke-linejoin:round;stroke-miterlimit:10;stroke-dasharray:none;stroke-opacity:1" transform="matrix(1.33333 0 0 -1.33333 0 598.875)"/><text xml:space="preserve" transform="translate(27.83 141.145)scale(1.33333)"><tspan x="0" y="0" style="font-variant:normal;font-weight:400;font-size:10px;font-family:&quot;DejaVu Sans&quot;;writing-mode:lr-tb;fill:#000;fill-opacity:1;fill-rule:nonzero;stroke:none">0.7225</tspan></text><path d="M64.356 391.291H711.1" clip-path="url(#m)" style="fill:none;stroke:#e6e6e6;stroke-width:1;stroke-linecap:square;stroke-linejoin:round;stroke-miterlimit:10;stroke-dasharray:none;stroke-opacity:1" transform="matrix(1.33333 0 0 -1.33333 0 598.875)"/><text xml:space="preserve" transform="translate(27.83 82.216)scale(1.33333)"><tspan x="0" y="0" style="font-variant:normal;font-weight:400;font-size:10px;font-family:&quot;DejaVu Sans&quot;;writing-mode:lr-tb;fill:#000;fill-opacity:1;fill-rule:nonzero;stroke:none">0.7250</tspan></text><text xml:space="preserve" transform="rotate(-90 165.785 146.06)scale(1.33333)"><tspan x="0" y="0" style="font-variant:normal;font-weight:400;font-size:10px;font-family:&quot;DejaVu Sans&quot;;writing-mode:lr-tb;fill:#000;fill-opacity:1;fill-rule:nonzero;stroke:none">ROC AUC</tspan></text><path d="M93.754 277.266h53.45l26.725 40.735h80.174l26.725 19.743 26.725 45.93h374.15" clip-path="url(#n)" style="fill:none;stroke:#1f77b4;stroke-width:1.5;stroke-linecap:square;stroke-linejoin:round;stroke-miterlimit:10;stroke-dasharray:none;stroke-opacity:1" transform="matrix(1.33333 0 0 -1.33333 0 598.875)"/><path d="m93.754 277.266 26.725-74.455 26.725 48.736 26.725 66.454 26.724-21.926 26.725 7.066 26.725-26.758 26.725 61.361 26.725 45.93 26.725-69.57 26.725-3.014 26.725 10.911 26.725-10.028 26.725 4.053 26.725 13.301 26.725 26.239 26.725-26.706 26.725 4.416 26.725 22.342 26.725-8.677 26.725 11.015 26.725-41.306 26.725 31.538" clip-path="url(#o)" style="fill:none;stroke:#1f77b4;stroke-width:1.5;stroke-linecap:butt;stroke-linejoin:round;stroke-miterlimit:10;stroke-dasharray:5.55,2.4;stroke-dashoffset:0;stroke-opacity:1" transform="matrix(1.33333 0 0 -1.33333 0 598.875)"/><path d="M93.754 321.715h133.624l26.725 2.105h26.725l26.725 21.406h26.725l26.725 7.898 26.725 2.182h160.35l26.725 1.714h80.175l26.725 17.874" clip-path="url(#p)" style="fill:none;stroke:#ff7f0e;stroke-width:1.5;stroke-linecap:square;stroke-linejoin:round;stroke-miterlimit:10;stroke-dasharray:none;stroke-opacity:1" transform="matrix(1.33333 0 0 -1.33333 0 598.875)"/><path d="m93.754 321.715 26.725-157.456 26.725 27.901 26.725-5.611 26.724 71.805 26.725-5.092 26.725 70.558 26.725-19.458 26.725 40.864 26.725-80.17 26.725 88.068 26.725 2.182 26.725-10.86 26.725-43.384 26.725 12.574 26.725 20.056 26.725 6.338 26.725 10.86 26.725 6.13 26.725-23.017 26.725.624 26.725-7.222 26.725 47.489" clip-path="url(#q)" style="fill:none;stroke:#ff7f0e;stroke-width:1.5;stroke-linecap:butt;stroke-linejoin:round;stroke-miterlimit:10;stroke-dasharray:5.55,2.4;stroke-dashoffset:0;stroke-opacity:1" transform="matrix(1.33333 0 0 -1.33333 0 598.875)"/><path d="m93.754 112.457 26.725 85.73h26.725l26.725 59.44h26.724l26.725 94.873h133.625l26.725 6.183h106.9l26.725 57.673h160.35" clip-path="url(#r)" style="fill:none;stroke:#2ca02c;stroke-width:1.5;stroke-linecap:square;stroke-linejoin:round;stroke-miterlimit:10;stroke-dasharray:none;stroke-opacity:1" transform="matrix(1.33333 0 0 -1.33333 0 598.875)"/><path d="m93.754 112.457 26.725 85.73 26.725-137.843 26.725 197.282 26.724-12.262L227.378 352.5l26.725-120.956 26.725 41.462 26.725 1.09 26.725 15.796 26.725-8.21 26.725 77.001 26.725-28.888 26.725 9.872 26.725 13.509 26.725-3.326 26.725 66.506 26.725-56.997 26.725-16.16 26.725-.779 26.725 51.802 26.725-44.268 26.725-18.497" clip-path="url(#s)" style="fill:none;stroke:#2ca02c;stroke-width:1.5;stroke-linecap:butt;stroke-linejoin:round;stroke-miterlimit:10;stroke-dasharray:5.55,2.4;stroke-dashoffset:0;stroke-opacity:1" transform="matrix(1.33333 0 0 -1.33333 0 598.875)"/><path d="M93.754 193.095h53.45l26.725 144.13h80.174l26.725 37.669h160.35l26.725 3.065h26.725l26.725 8.989h53.45l26.725 4.26 26.725.728h53.45" clip-path="url(#t)" style="fill:none;stroke:#d62728;stroke-width:1.5;stroke-linecap:square;stroke-linejoin:round;stroke-miterlimit:10;stroke-dasharray:none;stroke-opacity:1" transform="matrix(1.33333 0 0 -1.33333 0 598.875)"/><path d="m93.754 193.095 26.725-40.89 26.725 17.405 26.725 167.615 26.724-22.394 26.725-33.097 26.725-4.78 26.725 97.94 26.725-8.158 26.725-71.337 26.725-38.812 26.725 17.873 26.725 21.667 26.725 15.275 26.725 66.557 26.725-36.37 26.725 45.359 26.725-37.098 26.725 11.327 26.725 30.031 26.725.728 26.725-11.275 26.725-41.202" clip-path="url(#u)" style="fill:none;stroke:#d62728;stroke-width:1.5;stroke-linecap:butt;stroke-linejoin:round;stroke-miterlimit:10;stroke-dasharray:5.55,2.4;stroke-dashoffset:0;stroke-opacity:1" transform="matrix(1.33333 0 0 -1.33333 0 598.875)"/><path d="m93.754 166.805 26.725 66.557h80.174l26.725 30.863h106.9l26.725 33.928h53.45l26.725 23.173h133.625l26.725 19.951 26.725 34.916h53.45" clip-path="url(#v)" style="fill:none;stroke:#9467bd;stroke-width:1.5;stroke-linecap:square;stroke-linejoin:round;stroke-miterlimit:10;stroke-dasharray:none;stroke-opacity:1" transform="matrix(1.33333 0 0 -1.33333 0 598.875)"/><path d="m93.754 166.805 26.725 66.557 26.725-117.839 26.725 105.37 26.724-25.46 26.725 68.792 26.725-12.106 26.725-29.772 26.725 18.237 26.725 22.394 26.725 35.175 26.725-48.113 26.725 5.768 26.725 65.518 26.725-72.169 26.725 30.967 26.725 29.823 26.725-4.104 26.725.207 26.725 35.227 26.725 34.916 26.725-30.551 26.725-9.404" clip-path="url(#w)" style="fill:none;stroke:#9467bd;stroke-width:1.5;stroke-linecap:butt;stroke-linejoin:round;stroke-miterlimit:10;stroke-dasharray:5.55,2.4;stroke-dashoffset:0;stroke-opacity:1" transform="matrix(1.33333 0 0 -1.33333 0 598.875)"/><path d="M93.754 189.043h26.725l26.725 1.09 26.725 85.574h267.249l26.725 37.721h26.725l26.725 6.65h160.35" clip-path="url(#x)" style="fill:none;stroke:#8c564b;stroke-width:1.5;stroke-linecap:square;stroke-linejoin:round;stroke-miterlimit:10;stroke-dasharray:none;stroke-opacity:1" transform="matrix(1.33333 0 0 -1.33333 0 598.875)"/><path d="m93.754 189.043 26.725-37.981 26.725 39.072 26.725 85.573 26.724-75.286 26.725 16.315 26.725 3.17 26.725 4.104 26.725 38.76 26.725-27.693 26.725-18.03 26.725 22.238 26.725-12.625 26.725-26.187 26.725 112.955 26.725-62.608 26.725 69.259 26.725-62.817 26.725-.103 26.725 8.676 26.725-16.47 26.725-10.08 26.725 24.212" clip-path="url(#y)" style="fill:none;stroke:#8c564b;stroke-width:1.5;stroke-linecap:butt;stroke-linejoin:round;stroke-miterlimit:10;stroke-dasharray:5.55,2.4;stroke-dashoffset:0;stroke-opacity:1" transform="matrix(1.33333 0 0 -1.33333 0 598.875)"/><path d="M93.754 207.331h26.725l26.725 85.574h133.624l26.725 32.733h240.525l26.725 4.313h106.9" clip-path="url(#z)" style="fill:none;stroke:#e377c2;stroke-width:1.5;stroke-linecap:square;stroke-linejoin:round;stroke-miterlimit:10;stroke-dasharray:none;stroke-opacity:1" transform="matrix(1.33333 0 0 -1.33333 0 598.875)"/><path d="m93.754 207.331 26.725-11.69 26.725 97.264 26.725-62.764 26.724 6.598 26.725 17.51 26.725 8.365 26.725-64.843 26.725 127.867 26.725-77.052 26.725-2.702 26.725-20.16 26.725 63.908 26.725-3.949 26.725-8.833 26.725 8.417 26.725 19.484 26.725-49.515 26.725 74.715 26.725-72.013 26.725 48.84 26.725-46.71 26.725 27.434" clip-path="url(#A)" style="fill:none;stroke:#e377c2;stroke-width:1.5;stroke-linecap:butt;stroke-linejoin:round;stroke-miterlimit:10;stroke-dasharray:5.55,2.4;stroke-dashoffset:0;stroke-opacity:1" transform="matrix(1.33333 0 0 -1.33333 0 598.875)"/><path d="m93.754 207.28 26.725 62.556h80.174l26.725 17.718h26.725l26.725 44.527 26.725 35.33h160.35l26.725.26h160.35l26.725 19.121" clip-path="url(#B)" style="fill:none;stroke:#7f7f7f;stroke-width:1.5;stroke-linecap:square;stroke-linejoin:round;stroke-miterlimit:10;stroke-dasharray:none;stroke-opacity:1" transform="matrix(1.33333 0 0 -1.33333 0 598.875)"/><path d="m93.754 207.28 26.725 62.556 26.725-10.6 26.725-9.82 26.724.053 26.725 38.085 26.725-8.937 26.725 53.464 26.725 35.33 26.725-36.993 26.725 19.225 26.725-37.721 26.725 20.419 26.725-26.498 26.725 2.078 26.725 59.75 26.725-25.978 26.725 16.834 26.725-3.429 26.725-22.342 26.725-4.884 26.725 11.015 26.725 47.905" clip-path="url(#C)" style="fill:none;stroke:#7f7f7f;stroke-width:1.5;stroke-linecap:butt;stroke-linejoin:round;stroke-miterlimit:10;stroke-dasharray:5.55,2.4;stroke-dashoffset:0;stroke-opacity:1" transform="matrix(1.33333 0 0 -1.33333 0 598.875)"/><path d="M93.754 127.785h26.725l26.725 79.962h26.725l26.724 32.525h53.45l26.725 53.205 26.725 25.51h106.9l26.725 24.784h26.725l26.725 29.564h187.075" clip-path="url(#D)" style="fill:none;stroke:#bcbd22;stroke-width:1.5;stroke-linecap:square;stroke-linejoin:round;stroke-miterlimit:10;stroke-dasharray:none;stroke-opacity:1" transform="matrix(1.33333 0 0 -1.33333 0 598.875)"/><path d="m93.754 127.785 26.725-5.248 26.725 85.21 26.725-57.309 26.724 89.834 26.725-7.637 26.725-6.807 26.725 67.649 26.725 25.51 26.725-33.875 26.725 11.378 26.725 3.17 26.725-6.599 26.725 50.71 26.725-18.237 26.725 47.801 26.725-21.77 26.725-34.292 26.725 37.461 26.725-15.95 26.725-4.469 26.725 5.612 26.725 8.572" clip-path="url(#E)" style="fill:none;stroke:#bcbd22;stroke-width:1.5;stroke-linecap:butt;stroke-linejoin:round;stroke-miterlimit:10;stroke-dasharray:5.55,2.4;stroke-dashoffset:0;stroke-opacity:1" transform="matrix(1.33333 0 0 -1.33333 0 598.875)"/><path d="m93.754 180.418 26.725 33.668h26.725l26.725 119.45h160.349l26.725 3.637 26.725 20.419 26.725 2.598h53.45l26.725 29.2h53.45l26.725 7.897h106.9" clip-path="url(#F)" style="fill:none;stroke:#17becf;stroke-width:1.5;stroke-linecap:square;stroke-linejoin:round;stroke-miterlimit:10;stroke-dasharray:none;stroke-opacity:1" transform="matrix(1.33333 0 0 -1.33333 0 598.875)"/><path d="m93.754 180.418 26.725 33.668 26.725-51.386 26.725 170.836 26.724-66.09 26.725 50.71 26.725-17.042 26.725-5.143 26.725 16.73 26.725-9.664 26.725 34.136 26.725 20.419 26.725 2.598 26.725-16.263 26.725 14.392 26.725 31.07 26.725-20.678 26.725-17.977 26.725 46.553 26.725-21.458 26.725-26.914 26.725 23.277 26.725-16.159" clip-path="url(#G)" style="fill:none;stroke:#17becf;stroke-width:1.5;stroke-linecap:butt;stroke-linejoin:round;stroke-miterlimit:10;stroke-dasharray:5.55,2.4;stroke-dashoffset:0;stroke-opacity:1" transform="matrix(1.33333 0 0 -1.33333 0 598.875)"/><path d="M52.048 426.484h617.704q2 0 2 2v13.672q0 2-2 2H52.048q-2 0-2-2v-13.672q0-2 2-2z" style="fill:#fff;fill-opacity:.8;fill-rule:nonzero;stroke:#ccc;stroke-width:1;stroke-linecap:butt;stroke-linejoin:miter;stroke-miterlimit:10;stroke-dasharray:none;stroke-opacity:.8" transform="matrix(1.33333 0 0 -1.33333 0 598.875)"/><path d="M54.048 436.062h20" style="fill:none;stroke:#1f77b4;stroke-width:1.5;stroke-linecap:square;stroke-linejoin:round;stroke-miterlimit:10;stroke-dasharray:none;stroke-opacity:1" transform="matrix(1.33333 0 0 -1.33333 0 598.875)"/><text xml:space="preserve" transform="translate(109.398 22.125)scale(1.33333)"><tspan x="0" y="0" style="font-variant:normal;font-weight:400;font-size:10px;font-family:&quot;DejaVu Sans&quot;;writing-mode:lr-tb;fill:#000;fill-opacity:1;fill-rule:nonzero;stroke:none">#1</tspan></text><path d="M116.783 436.062h20" style="fill:none;stroke:#ff7f0e;stroke-width:1.5;stroke-linecap:square;stroke-linejoin:round;stroke-miterlimit:10;stroke-dasharray:none;stroke-opacity:1" transform="matrix(1.33333 0 0 -1.33333 0 598.875)"/><text xml:space="preserve" transform="translate(193.044 22.125)scale(1.33333)"><tspan x="0" y="0" style="font-variant:normal;font-weight:400;font-size:10px;font-family:&quot;DejaVu Sans&quot;;writing-mode:lr-tb;fill:#000;fill-opacity:1;fill-rule:nonzero;stroke:none">#2</tspan></text><path d="M179.517 436.062h20" style="fill:none;stroke:#2ca02c;stroke-width:1.5;stroke-linecap:square;stroke-linejoin:round;stroke-miterlimit:10;stroke-dasharray:none;stroke-opacity:1" transform="matrix(1.33333 0 0 -1.33333 0 598.875)"/><text xml:space="preserve" transform="translate(276.69 22.125)scale(1.33333)"><tspan x="0" y="0" style="font-variant:normal;font-weight:400;font-size:10px;font-family:&quot;DejaVu Sans&quot;;writing-mode:lr-tb;fill:#000;fill-opacity:1;fill-rule:nonzero;stroke:none">#3</tspan></text><path d="M242.252 436.062h20" style="fill:none;stroke:#d62728;stroke-width:1.5;stroke-linecap:square;stroke-linejoin:round;stroke-miterlimit:10;stroke-dasharray:none;stroke-opacity:1" transform="matrix(1.33333 0 0 -1.33333 0 598.875)"/><text xml:space="preserve" transform="translate(360.335 22.125)scale(1.33333)"><tspan x="0" y="0" style="font-variant:normal;font-weight:400;font-size:10px;font-family:&quot;DejaVu Sans&quot;;writing-mode:lr-tb;fill:#000;fill-opacity:1;fill-rule:nonzero;stroke:none">#4</tspan></text><path d="M304.986 436.062h20" style="fill:none;stroke:#9467bd;stroke-width:1.5;stroke-linecap:square;stroke-linejoin:round;stroke-miterlimit:10;stroke-dasharray:none;stroke-opacity:1" transform="matrix(1.33333 0 0 -1.33333 0 598.875)"/><text xml:space="preserve" transform="translate(443.981 22.125)scale(1.33333)"><tspan x="0" y="0" style="font-variant:normal;font-weight:400;font-size:10px;font-family:&quot;DejaVu Sans&quot;;writing-mode:lr-tb;fill:#000;fill-opacity:1;fill-rule:nonzero;stroke:none">#5</tspan></text><path d="M367.72 436.062h20" style="fill:none;stroke:#8c564b;stroke-width:1.5;stroke-linecap:square;stroke-linejoin:round;stroke-miterlimit:10;stroke-dasharray:none;stroke-opacity:1" transform="matrix(1.33333 0 0 -1.33333 0 598.875)"/><text xml:space="preserve" transform="translate(527.627 22.125)scale(1.33333)"><tspan x="0" y="0" style="font-variant:normal;font-weight:400;font-size:10px;font-family:&quot;DejaVu Sans&quot;;writing-mode:lr-tb;fill:#000;fill-opacity:1;fill-rule:nonzero;stroke:none">#6</tspan></text><path d="M430.455 436.062h20" style="fill:none;stroke:#e377c2;stroke-width:1.5;stroke-linecap:square;stroke-linejoin:round;stroke-miterlimit:10;stroke-dasharray:none;stroke-opacity:1" transform="matrix(1.33333 0 0 -1.33333 0 598.875)"/><text xml:space="preserve" transform="translate(611.273 22.125)scale(1.33333)"><tspan x="0" y="0" style="font-variant:normal;font-weight:400;font-size:10px;font-family:&quot;DejaVu Sans&quot;;writing-mode:lr-tb;fill:#000;fill-opacity:1;fill-rule:nonzero;stroke:none">#7</tspan></text><path d="M493.19 436.062h20" style="fill:none;stroke:#7f7f7f;stroke-width:1.5;stroke-linecap:square;stroke-linejoin:round;stroke-miterlimit:10;stroke-dasharray:none;stroke-opacity:1" transform="matrix(1.33333 0 0 -1.33333 0 598.875)"/><text xml:space="preserve" transform="translate(694.919 22.125)scale(1.33333)"><tspan x="0" y="0" style="font-variant:normal;font-weight:400;font-size:10px;font-family:&quot;DejaVu Sans&quot;;writing-mode:lr-tb;fill:#000;fill-opacity:1;fill-rule:nonzero;stroke:none">#8</tspan></text><path d="M555.923 436.062h20" style="fill:none;stroke:#bcbd22;stroke-width:1.5;stroke-linecap:square;stroke-linejoin:round;stroke-miterlimit:10;stroke-dasharray:none;stroke-opacity:1" transform="matrix(1.33333 0 0 -1.33333 0 598.875)"/><text xml:space="preserve" transform="translate(778.565 22.125)scale(1.33333)"><tspan x="0" y="0" style="font-variant:normal;font-weight:400;font-size:10px;font-family:&quot;DejaVu Sans&quot;;writing-mode:lr-tb;fill:#000;fill-opacity:1;fill-rule:nonzero;stroke:none">#9</tspan></text><path d="M618.658 436.062h20" style="fill:none;stroke:#17becf;stroke-width:1.5;stroke-linecap:square;stroke-linejoin:round;stroke-miterlimit:10;stroke-dasharray:none;stroke-opacity:1" transform="matrix(1.33333 0 0 -1.33333 0 598.875)"/><text xml:space="preserve" transform="translate(862.21 22.125)scale(1.33333)"><tspan x="0" y="0" style="font-variant:normal;font-weight:400;font-size:10px;font-family:&quot;DejaVu Sans&quot;;writing-mode:lr-tb;fill:#000;fill-opacity:1;fill-rule:nonzero;stroke:none">#10</tspan></text></svg>