<?xml version="1.0" encoding="UTF-8" standalone="no"?>
<!-- Created with Inkscape (http://www.inkscape.org/) -->

<svg
   version="1.1"
   id="svg1"
   width="962.40002"
   height="598.875"
   viewBox="0 0 962.40002 598.875"
   xmlns="http://www.w3.org/2000/svg"
   xmlns:svg="http://www.w3.org/2000/svg">
  <defs
     id="defs1">
    <clipPath
       clipPathUnits="userSpaceOnUse"
       id="clipPath2">
      <path
         d="M 64.35625,42.54375 H 711.1 V 434.15624 H 64.35625 Z"
         id="path2" />
    </clipPath>
    <clipPath
       clipPathUnits="userSpaceOnUse"
       id="clipPath5">
      <path
         d="M 64.35625,42.54375 H 711.1 V 434.15624 H 64.35625 Z"
         id="path5" />
    </clipPath>
    <clipPath
       clipPathUnits="userSpaceOnUse"
       id="clipPath8">
      <path
         d="M 64.35625,42.54375 H 711.1 V 434.15624 H 64.35625 Z"
         id="path8" />
    </clipPath>
    <clipPath
       clipPathUnits="userSpaceOnUse"
       id="clipPath11">
      <path
         d="M 64.35625,42.54375 H 711.1 V 434.15624 H 64.35625 Z"
         id="path11" />
    </clipPath>
    <clipPath
       clipPathUnits="userSpaceOnUse"
       id="clipPath14">
      <path
         d="M 64.35625,42.54375 H 711.1 V 434.15624 H 64.35625 Z"
         id="path14" />
    </clipPath>
    <clipPath
       clipPathUnits="userSpaceOnUse"
       id="clipPath17">
      <path
         d="M 64.35625,42.54375 H 711.1 V 434.15624 H 64.35625 Z"
         id="path17" />
    </clipPath>
    <clipPath
       clipPathUnits="userSpaceOnUse"
       id="clipPath19">
      <path
         d="M 64.35625,42.54375 H 711.1 V 434.15624 H 64.35625 Z"
         id="path19" />
    </clipPath>
    <clipPath
       clipPathUnits="userSpaceOnUse"
       id="clipPath21">
      <path
         d="M 64.35625,42.54375 H 711.1 V 434.15624 H 64.35625 Z"
         id="path21" />
    </clipPath>
    <clipPath
       clipPathUnits="userSpaceOnUse"
       id="clipPath23">
      <path
         d="M 64.35625,42.54375 H 711.1 V 434.15624 H 64.35625 Z"
         id="path23" />
    </clipPath>
    <clipPath
       clipPathUnits="userSpaceOnUse"
       id="clipPath25">
      <path
         d="M 64.35625,42.54375 H 711.1 V 434.15624 H 64.35625 Z"
         id="path25" />
    </clipPath>
    <clipPath
       clipPathUnits="userSpaceOnUse"
       id="clipPath27">
      <path
         d="M 64.35625,42.54375 H 711.1 V 434.15624 H 64.35625 Z"
         id="path27" />
    </clipPath>
    <clipPath
       clipPathUnits="userSpaceOnUse"
       id="clipPath29">
      <path
         d="M 64.35625,42.54375 H 711.1 V 434.15624 H 64.35625 Z"
         id="path29" />
    </clipPath>
    <clipPath
       clipPathUnits="userSpaceOnUse"
       id="clipPath31">
      <path
         d="M 64.35625,42.54375 H 711.1 V 434.15624 H 64.35625 Z"
         id="path31" />
    </clipPath>
    <clipPath
       clipPathUnits="userSpaceOnUse"
       id="clipPath33">
      <path
         d="M 64.35625,42.54375 H 711.1 V 434.15624 H 64.35625 Z"
         id="path33" />
    </clipPath>
    <clipPath
       clipPathUnits="userSpaceOnUse"
       id="clipPath35">
      <path
         d="M 64.35625,42.54375 H 711.1 V 434.15624 H 64.35625 Z"
         id="path35" />
    </clipPath>
    <clipPath
       clipPathUnits="userSpaceOnUse"
       id="clipPath37">
      <path
         d="M 64.35625,42.54375 H 711.1 V 434.15624 H 64.35625 Z"
         id="path37" />
    </clipPath>
    <clipPath
       clipPathUnits="userSpaceOnUse"
       id="clipPath39">
      <path
         d="M 64.35625,42.54375 H 711.1 V 434.15624 H 64.35625 Z"
         id="path39" />
    </clipPath>
    <clipPath
       clipPathUnits="userSpaceOnUse"
       id="clipPath41">
      <path
         d="M 64.35625,42.54375 H 711.1 V 434.15624 H 64.35625 Z"
         id="path41" />
    </clipPath>
    <clipPath
       clipPathUnits="userSpaceOnUse"
       id="clipPath43">
      <path
         d="M 64.35625,42.54375 H 711.1 V 434.15624 H 64.35625 Z"
         id="path43" />
    </clipPath>
    <clipPath
       clipPathUnits="userSpaceOnUse"
       id="clipPath45">
      <path
         d="M 64.35625,42.54375 H 711.1 V 434.15624 H 64.35625 Z"
         id="path45" />
    </clipPath>
    <clipPath
       clipPathUnits="userSpaceOnUse"
       id="clipPath47">
      <path
         d="M 64.35625,42.54375 H 711.1 V 434.15624 H 64.35625 Z"
         id="path47" />
    </clipPath>
    <clipPath
       clipPathUnits="userSpaceOnUse"
       id="clipPath49">
      <path
         d="M 64.35625,42.54375 H 711.1 V 434.15624 H 64.35625 Z"
         id="path49" />
    </clipPath>
    <clipPath
       clipPathUnits="userSpaceOnUse"
       id="clipPath51">
      <path
         d="M 64.35625,42.54375 H 711.1 V 434.15624 H 64.35625 Z"
         id="path51" />
    </clipPath>
    <clipPath
       clipPathUnits="userSpaceOnUse"
       id="clipPath53">
      <path
         d="M 64.35625,42.54375 H 711.1 V 434.15624 H 64.35625 Z"
         id="path53" />
    </clipPath>
    <clipPath
       clipPathUnits="userSpaceOnUse"
       id="clipPath55">
      <path
         d="M 64.35625,42.54375 H 711.1 V 434.15624 H 64.35625 Z"
         id="path55" />
    </clipPath>
    <clipPath
       clipPathUnits="userSpaceOnUse"
       id="clipPath57">
      <path
         d="M 64.35625,42.54375 H 711.1 V 434.15624 H 64.35625 Z"
         id="path57" />
    </clipPath>
    <clipPath
       clipPathUnits="userSpaceOnUse"
       id="clipPath59">
      <path
         d="M 64.35625,42.54375 H 711.1 V 434.15624 H 64.35625 Z"
         id="path59" />
    </clipPath>
    <clipPath
       clipPathUnits="userSpaceOnUse"
       id="clipPath61">
      <path
         d="M 64.35625,42.54375 H 711.1 V 434.15624 H 64.35625 Z"
         id="path61" />
    </clipPath>
    <clipPath
       clipPathUnits="userSpaceOnUse"
       id="clipPath63">
      <path
         d="M 64.35625,42.54375 H 711.1 V 434.15624 H 64.35625 Z"
         id="path63" />
    </clipPath>
    <clipPath
       clipPathUnits="userSpaceOnUse"
       id="clipPath65">
      <path
         d="M 64.35625,42.54375 H 711.1 V 434.15624 H 64.35625 Z"
         id="path65" />
    </clipPath>
    <clipPath
       clipPathUnits="userSpaceOnUse"
       id="clipPath67">
      <path
         d="M 64.35625,42.54375 H 711.1 V 434.15624 H 64.35625 Z"
         id="path67" />
    </clipPath>
    <clipPath
       clipPathUnits="userSpaceOnUse"
       id="clipPath69">
      <path
         d="M 64.35625,42.54375 H 711.1 V 434.15624 H 64.35625 Z"
         id="path69" />
    </clipPath>
    <clipPath
       clipPathUnits="userSpaceOnUse"
       id="clipPath71">
      <path
         d="M 64.35625,42.54375 H 711.1 V 434.15624 H 64.35625 Z"
         id="path71" />
    </clipPath>
  </defs>
  <g
     id="g1">
    <path
       id="path1"
       d="M 67.028745,42.54375 V 434.15624"
       style="fill:none;stroke:#e6e6e6;stroke-width:1;stroke-linecap:square;stroke-linejoin:round;stroke-miterlimit:10;stroke-dasharray:none;stroke-opacity:1"
       transform="matrix(1.3333333,0,0,-1.3333333,0,598.87499)"
       clip-path="url(#clipPath2)" />
    <path
       id="path3"
       d="m 67.028745,37.54375 v -3.5"
       style="fill:#000000;fill-opacity:1;fill-rule:nonzero;stroke:#000000;stroke-width:0.8;stroke-linecap:butt;stroke-linejoin:round;stroke-miterlimit:10;stroke-dasharray:none;stroke-opacity:1"
       transform="matrix(1.3333333,0,0,-1.3333333,0,598.87499)" />
    <text
       id="text3"
       xml:space="preserve"
       transform="matrix(1.3333333,0,0,1.3333333,85.132076,568.27499)"><tspan
         id="tspan3"
         style="font-variant:normal;font-weight:normal;font-size:10px;font-family:'DejaVu Sans';writing-mode:lr-tb;fill:#000000;fill-opacity:1;fill-rule:nonzero;stroke:none"
         x="0"
         y="0">0</tspan></text>
    <path
       id="path4"
       d="M 200.65349,42.54375 V 434.15624"
       style="fill:none;stroke:#e6e6e6;stroke-width:1;stroke-linecap:square;stroke-linejoin:round;stroke-miterlimit:10;stroke-dasharray:none;stroke-opacity:1"
       transform="matrix(1.3333333,0,0,-1.3333333,0,598.87499)"
       clip-path="url(#clipPath5)" />
    <path
       id="path6"
       d="m 200.65349,37.54375 v -3.5"
       style="fill:#000000;fill-opacity:1;fill-rule:nonzero;stroke:#000000;stroke-width:0.8;stroke-linecap:butt;stroke-linejoin:round;stroke-miterlimit:10;stroke-dasharray:none;stroke-opacity:1"
       transform="matrix(1.3333333,0,0,-1.3333333,0,598.87499)" />
    <text
       id="text6"
       xml:space="preserve"
       transform="matrix(1.3333333,0,0,1.3333333,263.2984,568.27499)"><tspan
         id="tspan6"
         style="font-variant:normal;font-weight:normal;font-size:10px;font-family:'DejaVu Sans';writing-mode:lr-tb;fill:#000000;fill-opacity:1;fill-rule:nonzero;stroke:none"
         x="0"
         y="0">5</tspan></text>
    <path
       id="path7"
       d="M 334.27823,42.54375 V 434.15624"
       style="fill:none;stroke:#e6e6e6;stroke-width:1;stroke-linecap:square;stroke-linejoin:round;stroke-miterlimit:10;stroke-dasharray:none;stroke-opacity:1"
       transform="matrix(1.3333333,0,0,-1.3333333,0,598.87499)"
       clip-path="url(#clipPath8)" />
    <path
       id="path9"
       d="m 334.27823,37.54375 v -3.5"
       style="fill:#000000;fill-opacity:1;fill-rule:nonzero;stroke:#000000;stroke-width:0.8;stroke-linecap:butt;stroke-linejoin:round;stroke-miterlimit:10;stroke-dasharray:none;stroke-opacity:1"
       transform="matrix(1.3333333,0,0,-1.3333333,0,598.87499)" />
    <text
       id="text9"
       xml:space="preserve"
       transform="matrix(1.3333333,0,0,1.3333333,437.22514,568.27499)"><tspan
         id="tspan9"
         style="font-variant:normal;font-weight:normal;font-size:10px;font-family:'DejaVu Sans';writing-mode:lr-tb;fill:#000000;fill-opacity:1;fill-rule:nonzero;stroke:none"
         x="0"
         y="0">10</tspan></text>
    <path
       id="path10"
       d="M 467.90297,42.54375 V 434.15624"
       style="fill:none;stroke:#e6e6e6;stroke-width:1;stroke-linecap:square;stroke-linejoin:round;stroke-miterlimit:10;stroke-dasharray:none;stroke-opacity:1"
       transform="matrix(1.3333333,0,0,-1.3333333,0,598.87499)"
       clip-path="url(#clipPath11)" />
    <path
       id="path12"
       d="m 467.90297,37.54375 v -3.5"
       style="fill:#000000;fill-opacity:1;fill-rule:nonzero;stroke:#000000;stroke-width:0.8;stroke-linecap:butt;stroke-linejoin:round;stroke-miterlimit:10;stroke-dasharray:none;stroke-opacity:1"
       transform="matrix(1.3333333,0,0,-1.3333333,0,598.87499)" />
    <text
       id="text12"
       xml:space="preserve"
       transform="matrix(1.3333333,0,0,1.3333333,615.39146,568.27499)"><tspan
         id="tspan12"
         style="font-variant:normal;font-weight:normal;font-size:10px;font-family:'DejaVu Sans';writing-mode:lr-tb;fill:#000000;fill-opacity:1;fill-rule:nonzero;stroke:none"
         x="0"
         y="0">15</tspan></text>
    <path
       id="path13"
       d="M 601.52771,42.54375 V 434.15624"
       style="fill:none;stroke:#e6e6e6;stroke-width:1;stroke-linecap:square;stroke-linejoin:round;stroke-miterlimit:10;stroke-dasharray:none;stroke-opacity:1"
       transform="matrix(1.3333333,0,0,-1.3333333,0,598.87499)"
       clip-path="url(#clipPath14)" />
    <path
       id="path15"
       d="m 601.52771,37.54375 v -3.5"
       style="fill:#000000;fill-opacity:1;fill-rule:nonzero;stroke:#000000;stroke-width:0.8;stroke-linecap:butt;stroke-linejoin:round;stroke-miterlimit:10;stroke-dasharray:none;stroke-opacity:1"
       transform="matrix(1.3333333,0,0,-1.3333333,0,598.87499)" />
    <text
       id="text15"
       xml:space="preserve"
       transform="matrix(1.3333333,0,0,1.3333333,793.55778,568.27499)"><tspan
         id="tspan15"
         style="font-variant:normal;font-weight:normal;font-size:10px;font-family:'DejaVu Sans';writing-mode:lr-tb;fill:#000000;fill-opacity:1;fill-rule:nonzero;stroke:none"
         x="0"
         y="0">20</tspan></text>
    <text
       id="text16"
       xml:space="preserve"
       transform="matrix(1.3333333,0,0,1.3333333,479.7625,586.50416)"><tspan
         id="tspan16"
         style="font-variant:normal;font-weight:normal;font-size:10px;font-family:'DejaVu Sans';writing-mode:lr-tb;fill:#000000;fill-opacity:1;fill-rule:nonzero;stroke:none"
         x="0"
         y="0">Generation</tspan></text>
    <path
       id="path16"
       d="M 64.35625,81.912828 H 711.1"
       style="fill:none;stroke:#e6e6e6;stroke-width:1;stroke-linecap:square;stroke-linejoin:round;stroke-miterlimit:10;stroke-dasharray:none;stroke-opacity:1"
       transform="matrix(1.3333333,0,0,-1.3333333,0,598.87499)"
       clip-path="url(#clipPath17)" />
    <text
       id="text17"
       xml:space="preserve"
       transform="matrix(1.3333333,0,0,1.3333333,27.829167,494.72039)"><tspan
         id="tspan17"
         style="font-variant:normal;font-weight:normal;font-size:10px;font-family:'DejaVu Sans';writing-mode:lr-tb;fill:#000000;fill-opacity:1;fill-rule:nonzero;stroke:none"
         x="0"
         y="0">0.7075</tspan></text>
    <path
       id="path18"
       d="M 64.35625,126.10978 H 711.1"
       style="fill:none;stroke:#e6e6e6;stroke-width:1;stroke-linecap:square;stroke-linejoin:round;stroke-miterlimit:10;stroke-dasharray:none;stroke-opacity:1"
       transform="matrix(1.3333333,0,0,-1.3333333,0,598.87499)"
       clip-path="url(#clipPath19)" />
    <text
       id="text19"
       xml:space="preserve"
       transform="matrix(1.3333333,0,0,1.3333333,27.829167,435.79112)"><tspan
         id="tspan19"
         style="font-variant:normal;font-weight:normal;font-size:10px;font-family:'DejaVu Sans';writing-mode:lr-tb;fill:#000000;fill-opacity:1;fill-rule:nonzero;stroke:none"
         x="0"
         y="0">0.7100</tspan></text>
    <path
       id="path20"
       d="M 64.35625,170.30673 H 711.1"
       style="fill:none;stroke:#e6e6e6;stroke-width:1;stroke-linecap:square;stroke-linejoin:round;stroke-miterlimit:10;stroke-dasharray:none;stroke-opacity:1"
       transform="matrix(1.3333333,0,0,-1.3333333,0,598.87499)"
       clip-path="url(#clipPath21)" />
    <text
       id="text21"
       xml:space="preserve"
       transform="matrix(1.3333333,0,0,1.3333333,27.829167,376.86185)"><tspan
         id="tspan21"
         style="font-variant:normal;font-weight:normal;font-size:10px;font-family:'DejaVu Sans';writing-mode:lr-tb;fill:#000000;fill-opacity:1;fill-rule:nonzero;stroke:none"
         x="0"
         y="0">0.7125</tspan></text>
    <path
       id="path22"
       d="M 64.35625,214.50368 H 711.1"
       style="fill:none;stroke:#e6e6e6;stroke-width:1;stroke-linecap:square;stroke-linejoin:round;stroke-miterlimit:10;stroke-dasharray:none;stroke-opacity:1"
       transform="matrix(1.3333333,0,0,-1.3333333,0,598.87499)"
       clip-path="url(#clipPath23)" />
    <text
       id="text23"
       xml:space="preserve"
       transform="matrix(1.3333333,0,0,1.3333333,27.829167,317.93259)"><tspan
         id="tspan23"
         style="font-variant:normal;font-weight:normal;font-size:10px;font-family:'DejaVu Sans';writing-mode:lr-tb;fill:#000000;fill-opacity:1;fill-rule:nonzero;stroke:none"
         x="0"
         y="0">0.7150</tspan></text>
    <path
       id="path24"
       d="M 64.35625,258.70063 H 711.1"
       style="fill:none;stroke:#e6e6e6;stroke-width:1;stroke-linecap:square;stroke-linejoin:round;stroke-miterlimit:10;stroke-dasharray:none;stroke-opacity:1"
       transform="matrix(1.3333333,0,0,-1.3333333,0,598.87499)"
       clip-path="url(#clipPath25)" />
    <text
       id="text25"
       xml:space="preserve"
       transform="matrix(1.3333333,0,0,1.3333333,27.829167,259.00332)"><tspan
         id="tspan25"
         style="font-variant:normal;font-weight:normal;font-size:10px;font-family:'DejaVu Sans';writing-mode:lr-tb;fill:#000000;fill-opacity:1;fill-rule:nonzero;stroke:none"
         x="0"
         y="0">0.7175</tspan></text>
    <path
       id="path26"
       d="M 64.35625,302.89758 H 711.1"
       style="fill:none;stroke:#e6e6e6;stroke-width:1;stroke-linecap:square;stroke-linejoin:round;stroke-miterlimit:10;stroke-dasharray:none;stroke-opacity:1"
       transform="matrix(1.3333333,0,0,-1.3333333,0,598.87499)"
       clip-path="url(#clipPath27)" />
    <text
       id="text27"
       xml:space="preserve"
       transform="matrix(1.3333333,0,0,1.3333333,27.829167,200.07405)"><tspan
         id="tspan27"
         style="font-variant:normal;font-weight:normal;font-size:10px;font-family:'DejaVu Sans';writing-mode:lr-tb;fill:#000000;fill-opacity:1;fill-rule:nonzero;stroke:none"
         x="0"
         y="0">0.7200</tspan></text>
    <path
       id="path28"
       d="M 64.35625,347.09453 H 711.1"
       style="fill:none;stroke:#e6e6e6;stroke-width:1;stroke-linecap:square;stroke-linejoin:round;stroke-miterlimit:10;stroke-dasharray:none;stroke-opacity:1"
       transform="matrix(1.3333333,0,0,-1.3333333,0,598.87499)"
       clip-path="url(#clipPath29)" />
    <text
       id="text29"
       xml:space="preserve"
       transform="matrix(1.3333333,0,0,1.3333333,27.829167,141.14479)"><tspan
         id="tspan29"
         style="font-variant:normal;font-weight:normal;font-size:10px;font-family:'DejaVu Sans';writing-mode:lr-tb;fill:#000000;fill-opacity:1;fill-rule:nonzero;stroke:none"
         x="0"
         y="0">0.7225</tspan></text>
    <path
       id="path30"
       d="M 64.35625,391.29148 H 711.1"
       style="fill:none;stroke:#e6e6e6;stroke-width:1;stroke-linecap:square;stroke-linejoin:round;stroke-miterlimit:10;stroke-dasharray:none;stroke-opacity:1"
       transform="matrix(1.3333333,0,0,-1.3333333,0,598.87499)"
       clip-path="url(#clipPath31)" />
    <text
       id="text31"
       xml:space="preserve"
       transform="matrix(1.3333333,0,0,1.3333333,27.829167,82.21552)"><tspan
         id="tspan31"
         style="font-variant:normal;font-weight:normal;font-size:10px;font-family:'DejaVu Sans';writing-mode:lr-tb;fill:#000000;fill-opacity:1;fill-rule:nonzero;stroke:none"
         x="0"
         y="0">0.7250</tspan></text>
    <text
       id="text32"
       xml:space="preserve"
       transform="matrix(0,-1.3333333,1.3333333,0,19.725,311.84583)"><tspan
         id="tspan32"
         style="font-variant:normal;font-weight:normal;font-size:10px;font-family:'DejaVu Sans';writing-mode:lr-tb;fill:#000000;fill-opacity:1;fill-rule:nonzero;stroke:none"
         x="0"
         y="0">ROC AUC</tspan></text>
    <path
       id="path32"
       d="m 93.753693,277.26601 h 26.724947 26.72495 l 26.72495,40.73451 h 26.72495 26.72495 26.72494 l 26.72495,19.74377 26.72495,45.93025 h 26.72495 26.72495 26.72494 26.72495 26.72495 26.72495 26.72495 26.72495 26.72494 26.72495 26.72495 26.72495 26.72495 26.72495"
       style="fill:none;stroke:#1f77b4;stroke-width:1.5;stroke-linecap:square;stroke-linejoin:round;stroke-miterlimit:10;stroke-dasharray:none;stroke-opacity:1"
       transform="matrix(1.3333333,0,0,-1.3333333,0,598.87499)"
       clip-path="url(#clipPath33)" />
    <path
       id="path34"
       d="m 93.753693,277.26601 26.724947,-74.4548 26.72495,48.73594 26.72495,66.45337 26.72495,-21.92597 26.72495,7.06619 26.72494,-26.75801 26.72495,61.36156 26.72495,45.93025 26.72495,-69.57081 26.72495,-3.01353 26.72494,10.91103 26.72495,-10.02775 26.72495,4.05267 26.72495,13.30106 26.72495,26.23843 26.72495,-26.70604 26.72494,4.41637 26.72495,22.34163 26.72495,-8.67687 26.72495,11.01495 26.72495,-41.30605 26.72495,31.53808"
       style="fill:none;stroke:#1f77b4;stroke-width:1.5;stroke-linecap:butt;stroke-linejoin:round;stroke-miterlimit:10;stroke-dasharray:5.55, 2.4;stroke-dashoffset:0;stroke-opacity:1"
       transform="matrix(1.3333333,0,0,-1.3333333,0,598.87499)"
       clip-path="url(#clipPath35)" />
    <path
       id="path36"
       d="m 93.753693,321.71547 h 26.724947 26.72495 26.72495 26.72495 26.72495 l 26.72494,2.10427 h 26.72495 l 26.72495,21.4064 h 26.72495 l 26.72495,7.89751 26.72494,2.18221 h 26.72495 26.72495 26.72495 26.72495 26.72495 26.72494 l 26.72495,1.71459 h 26.72495 26.72495 26.72495 l 26.72495,17.87331"
       style="fill:none;stroke:#ff7f0e;stroke-width:1.5;stroke-linecap:square;stroke-linejoin:round;stroke-miterlimit:10;stroke-dasharray:none;stroke-opacity:1"
       transform="matrix(1.3333333,0,0,-1.3333333,0,598.87499)"
       clip-path="url(#clipPath37)" />
    <path
       id="path38"
       d="m 93.753693,321.71547 26.724947,-157.45657 26.72495,27.90106 26.72495,-5.61138 26.72495,71.80497 26.72495,-5.09181 26.72494,70.558 26.72495,-19.45801 26.72495,40.86441 26.72495,-80.1701 26.72495,88.06761 26.72494,2.18221 26.72495,-10.85908 26.72495,-43.38433 26.72495,12.57366 26.72495,20.05551 26.72495,6.33879 26.72494,10.85908 26.72495,6.13096 26.72495,-23.01708 26.72495,0.62349 26.72495,-7.22207 26.72495,47.48897"
       style="fill:none;stroke:#ff7f0e;stroke-width:1.5;stroke-linecap:butt;stroke-linejoin:round;stroke-miterlimit:10;stroke-dasharray:5.55, 2.4;stroke-dashoffset:0;stroke-opacity:1"
       transform="matrix(1.3333333,0,0,-1.3333333,0,598.87499)"
       clip-path="url(#clipPath39)" />
    <path
       id="path40"
       d="m 93.753693,112.45748 26.724947,85.72953 h 26.72495 l 26.72495,59.43914 h 26.72495 l 26.72495,94.87401 h 26.72494 26.72495 26.72495 26.72495 26.72495 l 26.72494,6.18292 h 26.72495 26.72495 26.72495 26.72495 l 26.72495,57.67259 h 26.72494 26.72495 26.72495 26.72495 26.72495 26.72495"
       style="fill:none;stroke:#2ca02c;stroke-width:1.5;stroke-linecap:square;stroke-linejoin:round;stroke-miterlimit:10;stroke-dasharray:none;stroke-opacity:1"
       transform="matrix(1.3333333,0,0,-1.3333333,0,598.87499)"
       clip-path="url(#clipPath41)" />
    <path
       id="path42"
       d="m 93.753693,112.45748 26.724947,85.72953 26.72495,-137.842692 26.72495,197.281832 26.72495,-12.26192 26.72495,107.13593 26.72494,-120.95657 26.72495,41.46192 26.72495,1.0911 26.72495,15.79502 26.72495,-8.20925 26.72494,77.0007 26.72495,-28.88825 26.72495,9.87188 26.72495,13.5089 26.72495,-3.32527 26.72495,66.50533 26.72494,-56.99714 26.72495,-16.15872 26.72495,-0.77936 26.72495,51.80142 26.72495,-44.26761 26.72495,-18.4968"
       style="fill:none;stroke:#2ca02c;stroke-width:1.5;stroke-linecap:butt;stroke-linejoin:round;stroke-miterlimit:10;stroke-dasharray:5.55, 2.4;stroke-dashoffset:0;stroke-opacity:1"
       transform="matrix(1.3333333,0,0,-1.3333333,0,598.87499)"
       clip-path="url(#clipPath43)" />
    <path
       id="path44"
       d="m 93.753693,193.0952 h 26.724947 26.72495 l 26.72495,144.12952 h 26.72495 26.72495 26.72494 l 26.72495,37.66904 h 26.72495 26.72495 26.72495 26.72494 26.72495 26.72495 l 26.72495,3.06548 h 26.72495 l 26.72495,8.98861 h 26.72494 26.72495 l 26.72495,4.2605 26.72495,0.7274 h 26.72495 26.72495"
       style="fill:none;stroke:#d62728;stroke-width:1.5;stroke-linecap:square;stroke-linejoin:round;stroke-miterlimit:10;stroke-dasharray:none;stroke-opacity:1"
       transform="matrix(1.3333333,0,0,-1.3333333,0,598.87499)"
       clip-path="url(#clipPath45)" />
    <path
       id="path46"
       d="m 93.753693,193.0952 26.724947,-40.89039 26.72495,17.40569 26.72495,167.61422 26.72495,-22.39359 26.72495,-33.0968 26.72494,-4.78007 26.72495,97.9395 26.72495,-8.1573 26.72495,-71.33736 26.72495,-38.8121 26.72494,17.87331 26.72495,21.66619 26.72495,15.27545 26.72495,66.55729 26.72495,-36.37011 26.72495,45.35872 26.72494,-37.09751 26.72495,11.32669 26.72495,30.03132 26.72495,0.7274 26.72495,-11.27473 26.72495,-41.20214"
       style="fill:none;stroke:#d62728;stroke-width:1.5;stroke-linecap:butt;stroke-linejoin:round;stroke-miterlimit:10;stroke-dasharray:5.55, 2.4;stroke-dashoffset:0;stroke-opacity:1"
       transform="matrix(1.3333333,0,0,-1.3333333,0,598.87499)"
       clip-path="url(#clipPath47)" />
    <path
       id="path48"
       d="m 93.753693,166.80481 26.724947,66.55729 h 26.72495 26.72495 26.72495 l 26.72495,30.86263 h 26.72494 26.72495 26.72495 26.72495 l 26.72495,33.92811 h 26.72494 26.72495 l 26.72495,23.17295 h 26.72495 26.72495 26.72495 26.72494 26.72495 l 26.72495,19.9516 26.72495,34.9153 h 26.72495 26.72495"
       style="fill:none;stroke:#9467bd;stroke-width:1.5;stroke-linecap:square;stroke-linejoin:round;stroke-miterlimit:10;stroke-dasharray:none;stroke-opacity:1"
       transform="matrix(1.3333333,0,0,-1.3333333,0,598.87499)"
       clip-path="url(#clipPath49)" />
    <path
       id="path50"
       d="m 93.753693,166.80481 26.724947,66.55729 26.72495,-117.83914 26.72495,105.36939 26.72495,-25.45908 26.72495,68.79146 26.72494,-12.10605 26.72495,-29.77153 26.72495,18.23701 26.72495,22.39359 26.72495,35.17509 26.72494,-48.11245 26.72495,5.76726 26.72495,65.51814 26.72495,-72.16868 26.72495,30.96655 26.72495,29.82348 26.72494,-4.10462 26.72495,0.20783 26.72495,35.22704 26.72495,34.9153 26.72495,-30.55089 26.72495,-9.40427"
       style="fill:none;stroke:#9467bd;stroke-width:1.5;stroke-linecap:butt;stroke-linejoin:round;stroke-miterlimit:10;stroke-dasharray:5.55, 2.4;stroke-dashoffset:0;stroke-opacity:1"
       transform="matrix(1.3333333,0,0,-1.3333333,0,598.87499)"
       clip-path="url(#clipPath51)" />
    <path
       id="path52"
       d="m 93.753693,189.04253 h 26.724947 l 26.72495,1.0911 26.72495,85.57366 h 26.72495 26.72495 26.72494 26.72495 26.72495 26.72495 26.72495 26.72494 26.72495 26.72495 l 26.72495,37.72099 h 26.72495 l 26.72495,6.65053 h 26.72494 26.72495 26.72495 26.72495 26.72495 26.72495"
       style="fill:none;stroke:#8c564b;stroke-width:1.5;stroke-linecap:square;stroke-linejoin:round;stroke-miterlimit:10;stroke-dasharray:none;stroke-opacity:1"
       transform="matrix(1.3333333,0,0,-1.3333333,0,598.87499)"
       clip-path="url(#clipPath53)" />
    <path
       id="path54"
       d="m 93.753693,189.04253 26.724947,-37.98078 26.72495,39.07188 26.72495,85.57366 26.72495,-75.28612 26.72495,16.31459 26.72494,3.1694 26.72495,4.10462 26.72495,38.76014 26.72495,-27.69323 26.72495,-18.02918 26.72494,22.23772 26.72495,-12.62562 26.72495,-26.18648 26.72495,112.95515 26.72495,-62.60853 26.72495,69.25906 26.72494,-62.81636 26.72495,-0.10392 26.72495,8.67687 26.72495,-16.47046 26.72495,-10.07971 26.72495,24.21209"
       style="fill:none;stroke:#8c564b;stroke-width:1.5;stroke-linecap:butt;stroke-linejoin:round;stroke-miterlimit:10;stroke-dasharray:5.55, 2.4;stroke-dashoffset:0;stroke-opacity:1"
       transform="matrix(1.3333333,0,0,-1.3333333,0,598.87499)"
       clip-path="url(#clipPath55)" />
    <path
       id="path56"
       d="m 93.753693,207.33149 h 26.724947 l 26.72495,85.57366 h 26.72495 26.72495 26.72495 26.72494 26.72495 l 26.72495,32.73309 h 26.72495 26.72495 26.72494 26.72495 26.72495 26.72495 26.72495 26.72495 26.72494 l 26.72495,4.31246 h 26.72495 26.72495 26.72495 26.72495"
       style="fill:none;stroke:#e377c2;stroke-width:1.5;stroke-linecap:square;stroke-linejoin:round;stroke-miterlimit:10;stroke-dasharray:none;stroke-opacity:1"
       transform="matrix(1.3333333,0,0,-1.3333333,0,598.87499)"
       clip-path="url(#clipPath57)" />
    <path
       id="path58"
       d="m 93.753693,207.33149 26.724947,-11.69039 26.72495,97.26405 26.72495,-62.76441 26.72495,6.59858 26.72495,17.50961 26.72494,8.36512 26.72495,-64.8427 26.72495,127.86689 26.72495,-77.05266 26.72495,-2.70178 26.72494,-20.15943 26.72495,63.90747 26.72495,-3.94875 26.72495,-8.83274 26.72495,8.41708 26.72495,19.48398 26.72494,-49.51529 26.72495,74.71458 26.72495,-72.01281 26.72495,48.83986 26.72495,-46.70961 26.72495,27.43345"
       style="fill:none;stroke:#e377c2;stroke-width:1.5;stroke-linecap:butt;stroke-linejoin:round;stroke-miterlimit:10;stroke-dasharray:5.55, 2.4;stroke-dashoffset:0;stroke-opacity:1"
       transform="matrix(1.3333333,0,0,-1.3333333,0,598.87499)"
       clip-path="url(#clipPath59)" />
    <path
       id="path60"
       d="m 93.753693,207.27954 26.724947,62.55657 h 26.72495 26.72495 26.72495 l 26.72495,17.71744 h 26.72494 l 26.72495,44.5274 26.72495,35.33096 h 26.72495 26.72495 26.72494 26.72495 26.72495 26.72495 l 26.72495,0.25978 h 26.72495 26.72494 26.72495 26.72495 26.72495 26.72495 l 26.72495,19.12029"
       style="fill:none;stroke:#7f7f7f;stroke-width:1.5;stroke-linecap:square;stroke-linejoin:round;stroke-miterlimit:10;stroke-dasharray:none;stroke-opacity:1"
       transform="matrix(1.3333333,0,0,-1.3333333,0,598.87499)"
       clip-path="url(#clipPath61)" />
    <path
       id="path62"
       d="m 93.753693,207.27954 26.724947,62.55657 26.72495,-10.59928 26.72495,-9.81993 26.72495,0.052 26.72495,38.08469 26.72494,-8.93665 26.72495,53.46405 26.72495,35.33096 26.72495,-36.9936 26.72495,19.2242 26.72494,-37.72099 26.72495,20.41921 26.72495,-26.49821 26.72495,2.07829 26.72495,59.75088 26.72495,-25.97864 26.72494,16.83416 26.72495,-3.42918 26.72495,-22.34164 26.72495,-4.88398 26.72495,11.01494 26.72495,47.90463"
       style="fill:none;stroke:#7f7f7f;stroke-width:1.5;stroke-linecap:butt;stroke-linejoin:round;stroke-miterlimit:10;stroke-dasharray:5.55, 2.4;stroke-dashoffset:0;stroke-opacity:1"
       transform="matrix(1.3333333,0,0,-1.3333333,0,598.87499)"
       clip-path="url(#clipPath63)" />
    <path
       id="path64"
       d="m 93.753693,127.78488 h 26.724947 l 26.72495,79.96227 h 26.72495 l 26.72495,32.52527 h 26.72495 26.72494 l 26.72495,53.20426 26.72495,25.51103 h 26.72495 26.72495 26.72494 26.72495 l 26.72495,24.78363 h 26.72495 l 26.72495,29.5637 h 26.72495 26.72494 26.72495 26.72495 26.72495 26.72495 26.72495"
       style="fill:none;stroke:#bcbd22;stroke-width:1.5;stroke-linecap:square;stroke-linejoin:round;stroke-miterlimit:10;stroke-dasharray:none;stroke-opacity:1"
       transform="matrix(1.3333333,0,0,-1.3333333,0,598.87499)"
       clip-path="url(#clipPath65)" />
    <path
       id="path66"
       d="m 93.753693,127.78488 26.724947,-5.24768 26.72495,85.20995 26.72495,-57.30889 26.72495,89.83416 26.72495,-7.63773 26.72494,-6.8064 26.72495,67.64839 26.72495,25.51103 26.72495,-33.87615 26.72495,11.37864 26.72494,3.1694 26.72495,-6.59858 26.72495,50.71032 26.72495,-18.23701 26.72495,47.80071 26.72495,-21.77011 26.72494,-34.29181 26.72495,37.46121 26.72495,-15.95089 26.72495,-4.46833 26.72495,5.61139 26.72495,8.57295"
       style="fill:none;stroke:#bcbd22;stroke-width:1.5;stroke-linecap:butt;stroke-linejoin:round;stroke-miterlimit:10;stroke-dasharray:5.55, 2.4;stroke-dashoffset:0;stroke-opacity:1"
       transform="matrix(1.3333333,0,0,-1.3333333,0,598.87499)"
       clip-path="url(#clipPath67)" />
    <path
       id="path68"
       d="m 93.753693,180.41762 26.724947,33.66832 h 26.72495 l 26.72495,119.44981 h 26.72495 26.72495 26.72494 26.72495 26.72495 26.72495 l 26.72495,3.63701 26.72494,20.41922 26.72495,2.59786 h 26.72495 26.72495 l 26.72495,29.2 h 26.72495 26.72494 l 26.72495,7.89751 h 26.72495 26.72495 26.72495 26.72495"
       style="fill:none;stroke:#17becf;stroke-width:1.5;stroke-linecap:square;stroke-linejoin:round;stroke-miterlimit:10;stroke-dasharray:none;stroke-opacity:1"
       transform="matrix(1.3333333,0,0,-1.3333333,0,598.87499)"
       clip-path="url(#clipPath69)" />
    <path
       id="path70"
       d="m 93.753693,180.41762 26.724947,33.66832 26.72495,-51.38576 26.72495,170.83557 26.72495,-66.08967 26.72495,50.71031 26.72494,-17.04199 26.72495,-5.14377 26.72495,16.73025 26.72495,-9.66406 26.72495,34.13594 26.72494,20.41922 26.72495,2.59786 26.72495,-16.26263 26.72495,14.39217 26.72495,31.07046 26.72495,-20.679 26.72494,-17.97722 26.72495,46.55373 26.72495,-21.45836 26.72495,-26.91388 26.72495,23.27687 26.72495,-16.15872"
       style="fill:none;stroke:#17becf;stroke-width:1.5;stroke-linecap:butt;stroke-linejoin:round;stroke-miterlimit:10;stroke-dasharray:5.55, 2.4;stroke-dashoffset:0;stroke-opacity:1"
       transform="matrix(1.3333333,0,0,-1.3333333,0,598.87499)"
       clip-path="url(#clipPath71)" />
    <path
       id="path72"
       d="M 52.048437,426.48437 H 669.75156 c 1.33334,0 2,0.66666 2,2 v 13.67187 c 0,1.33334 -0.66666,2 -2,2 H 52.048437 c -1.333333,0 -2,-0.66666 -2,-2 v -13.67187 c 0,-1.33334 0.666667,-2 2,-2 z"
       style="fill:#ffffff;fill-opacity:0.8;fill-rule:nonzero;stroke:#cccccc;stroke-width:1;stroke-linecap:butt;stroke-linejoin:miter;stroke-miterlimit:10;stroke-dasharray:none;stroke-opacity:0.8"
       transform="matrix(1.3333333,0,0,-1.3333333,0,598.87499)" />
    <path
       id="path73"
       d="m 54.048437,436.06249 h 20"
       style="fill:none;stroke:#1f77b4;stroke-width:1.5;stroke-linecap:square;stroke-linejoin:round;stroke-miterlimit:10;stroke-dasharray:none;stroke-opacity:1"
       transform="matrix(1.3333333,0,0,-1.3333333,0,598.87499)" />
    <text
       id="text73"
       xml:space="preserve"
       transform="matrix(1.3333333,0,0,1.3333333,109.39792,22.125)"><tspan
         id="tspan73"
         style="font-variant:normal;font-weight:normal;font-size:10px;font-family:'DejaVu Sans';writing-mode:lr-tb;fill:#000000;fill-opacity:1;fill-rule:nonzero;stroke:none"
         x="0"
         y="0">#1</tspan></text>
    <path
       id="path74"
       d="m 116.78281,436.06249 h 20"
       style="fill:none;stroke:#ff7f0e;stroke-width:1.5;stroke-linecap:square;stroke-linejoin:round;stroke-miterlimit:10;stroke-dasharray:none;stroke-opacity:1"
       transform="matrix(1.3333333,0,0,-1.3333333,0,598.87499)" />
    <text
       id="text74"
       xml:space="preserve"
       transform="matrix(1.3333333,0,0,1.3333333,193.04375,22.125)"><tspan
         id="tspan74"
         style="font-variant:normal;font-weight:normal;font-size:10px;font-family:'DejaVu Sans';writing-mode:lr-tb;fill:#000000;fill-opacity:1;fill-rule:nonzero;stroke:none"
         x="0"
         y="0">#2</tspan></text>
    <path
       id="path75"
       d="m 179.51719,436.06249 h 20"
       style="fill:none;stroke:#2ca02c;stroke-width:1.5;stroke-linecap:square;stroke-linejoin:round;stroke-miterlimit:10;stroke-dasharray:none;stroke-opacity:1"
       transform="matrix(1.3333333,0,0,-1.3333333,0,598.87499)" />
    <text
       id="text75"
       xml:space="preserve"
       transform="matrix(1.3333333,0,0,1.3333333,276.68958,22.125)"><tspan
         id="tspan75"
         style="font-variant:normal;font-weight:normal;font-size:10px;font-family:'DejaVu Sans';writing-mode:lr-tb;fill:#000000;fill-opacity:1;fill-rule:nonzero;stroke:none"
         x="0"
         y="0">#3</tspan></text>
    <path
       id="path76"
       d="m 242.25156,436.06249 h 20"
       style="fill:none;stroke:#d62728;stroke-width:1.5;stroke-linecap:square;stroke-linejoin:round;stroke-miterlimit:10;stroke-dasharray:none;stroke-opacity:1"
       transform="matrix(1.3333333,0,0,-1.3333333,0,598.87499)" />
    <text
       id="text76"
       xml:space="preserve"
       transform="matrix(1.3333333,0,0,1.3333333,360.33542,22.125)"><tspan
         id="tspan76"
         style="font-variant:normal;font-weight:normal;font-size:10px;font-family:'DejaVu Sans';writing-mode:lr-tb;fill:#000000;fill-opacity:1;fill-rule:nonzero;stroke:none"
         x="0"
         y="0">#4</tspan></text>
    <path
       id="path77"
       d="m 304.98594,436.06249 h 20"
       style="fill:none;stroke:#9467bd;stroke-width:1.5;stroke-linecap:square;stroke-linejoin:round;stroke-miterlimit:10;stroke-dasharray:none;stroke-opacity:1"
       transform="matrix(1.3333333,0,0,-1.3333333,0,598.87499)" />
    <text
       id="text77"
       xml:space="preserve"
       transform="matrix(1.3333333,0,0,1.3333333,443.98125,22.125)"><tspan
         id="tspan77"
         style="font-variant:normal;font-weight:normal;font-size:10px;font-family:'DejaVu Sans';writing-mode:lr-tb;fill:#000000;fill-opacity:1;fill-rule:nonzero;stroke:none"
         x="0"
         y="0">#5</tspan></text>
    <path
       id="path78"
       d="m 367.72031,436.06249 h 20"
       style="fill:none;stroke:#8c564b;stroke-width:1.5;stroke-linecap:square;stroke-linejoin:round;stroke-miterlimit:10;stroke-dasharray:none;stroke-opacity:1"
       transform="matrix(1.3333333,0,0,-1.3333333,0,598.87499)" />
    <text
       id="text78"
       xml:space="preserve"
       transform="matrix(1.3333333,0,0,1.3333333,527.62708,22.125)"><tspan
         id="tspan78"
         style="font-variant:normal;font-weight:normal;font-size:10px;font-family:'DejaVu Sans';writing-mode:lr-tb;fill:#000000;fill-opacity:1;fill-rule:nonzero;stroke:none"
         x="0"
         y="0">#6</tspan></text>
    <path
       id="path79"
       d="m 430.45469,436.06249 h 20"
       style="fill:none;stroke:#e377c2;stroke-width:1.5;stroke-linecap:square;stroke-linejoin:round;stroke-miterlimit:10;stroke-dasharray:none;stroke-opacity:1"
       transform="matrix(1.3333333,0,0,-1.3333333,0,598.87499)" />
    <text
       id="text79"
       xml:space="preserve"
       transform="matrix(1.3333333,0,0,1.3333333,611.27292,22.125)"><tspan
         id="tspan79"
         style="font-variant:normal;font-weight:normal;font-size:10px;font-family:'DejaVu Sans';writing-mode:lr-tb;fill:#000000;fill-opacity:1;fill-rule:nonzero;stroke:none"
         x="0"
         y="0">#7</tspan></text>
    <path
       id="path80"
       d="m 493.18906,436.06249 h 20"
       style="fill:none;stroke:#7f7f7f;stroke-width:1.5;stroke-linecap:square;stroke-linejoin:round;stroke-miterlimit:10;stroke-dasharray:none;stroke-opacity:1"
       transform="matrix(1.3333333,0,0,-1.3333333,0,598.87499)" />
    <text
       id="text80"
       xml:space="preserve"
       transform="matrix(1.3333333,0,0,1.3333333,694.91875,22.125)"><tspan
         id="tspan80"
         style="font-variant:normal;font-weight:normal;font-size:10px;font-family:'DejaVu Sans';writing-mode:lr-tb;fill:#000000;fill-opacity:1;fill-rule:nonzero;stroke:none"
         x="0"
         y="0">#8</tspan></text>
    <path
       id="path81"
       d="m 555.92344,436.06249 h 20"
       style="fill:none;stroke:#bcbd22;stroke-width:1.5;stroke-linecap:square;stroke-linejoin:round;stroke-miterlimit:10;stroke-dasharray:none;stroke-opacity:1"
       transform="matrix(1.3333333,0,0,-1.3333333,0,598.87499)" />
    <text
       id="text81"
       xml:space="preserve"
       transform="matrix(1.3333333,0,0,1.3333333,778.56458,22.125)"><tspan
         id="tspan81"
         style="font-variant:normal;font-weight:normal;font-size:10px;font-family:'DejaVu Sans';writing-mode:lr-tb;fill:#000000;fill-opacity:1;fill-rule:nonzero;stroke:none"
         x="0"
         y="0">#9</tspan></text>
    <path
       id="path82"
       d="m 618.65781,436.06249 h 20"
       style="fill:none;stroke:#17becf;stroke-width:1.5;stroke-linecap:square;stroke-linejoin:round;stroke-miterlimit:10;stroke-dasharray:none;stroke-opacity:1"
       transform="matrix(1.3333333,0,0,-1.3333333,0,598.87499)" />
    <text
       id="text82"
       xml:space="preserve"
       transform="matrix(1.3333333,0,0,1.3333333,862.21042,22.125)"><tspan
         id="tspan82"
         style="font-variant:normal;font-weight:normal;font-size:10px;font-family:'DejaVu Sans';writing-mode:lr-tb;fill:#000000;fill-opacity:1;fill-rule:nonzero;stroke:none"
         x="0"
         y="0">#10</tspan></text>
  </g>
</svg>
