<svg xmlns="http://www.w3.org/2000/svg" width="962.4" height="591.142" viewBox="0 0 962.4 591.142"><defs><clipPath id="a" clipPathUnits="userSpaceOnUse"><path d="M37.966 28.872H711.1v405.284H37.966Z"/></clipPath><clipPath id="b" clipPathUnits="userSpaceOnUse"><path d="M37.966 28.872H711.1v405.284H37.966Z"/></clipPath><clipPath id="c" clipPathUnits="userSpaceOnUse"><path d="M37.966 28.872H711.1v405.284H37.966Z"/></clipPath><clipPath id="d" clipPathUnits="userSpaceOnUse"><path d="M37.966 28.872H711.1v405.284H37.966Z"/></clipPath><clipPath id="e" clipPathUnits="userSpaceOnUse"><path d="M37.966 28.872H711.1v405.284H37.966Z"/></clipPath><clipPath id="f" clipPathUnits="userSpaceOnUse"><path d="M37.966 28.872H711.1v405.284H37.966Z"/></clipPath><clipPath id="g" clipPathUnits="userSpaceOnUse"><path d="M37.966 28.872H711.1v405.284H37.966Z"/></clipPath><clipPath id="h" clipPathUnits="userSpaceOnUse"><path d="M37.966 28.872H711.1v405.284H37.966Z"/></clipPath><clipPath id="i" clipPathUnits="userSpaceOnUse"><path d="M37.966 28.872H711.1v405.284H37.966Z"/></clipPath><clipPath id="j" clipPathUnits="userSpaceOnUse"><path d="M37.966 28.872H711.1v405.284H37.966Z"/></clipPath><clipPath id="k" clipPathUnits="userSpaceOnUse"><path d="M37.966 28.872H711.1v405.284H37.966Z"/></clipPath><clipPath id="l" clipPathUnits="userSpaceOnUse"><path d="M37.966 28.872H711.1v405.284H37.966Z"/></clipPath><clipPath id="m" clipPathUnits="userSpaceOnUse"><path d="M37.966 28.872H711.1v405.284H37.966Z"/></clipPath><clipPath id="n" clipPathUnits="userSpaceOnUse"><path d="M37.966 28.872H711.1v405.284H37.966Z"/></clipPath><clipPath id="o" clipPathUnits="userSpaceOnUse"><path d="M37.966 28.872H711.1v405.284H37.966Z"/></clipPath><clipPath id="p" clipPathUnits="userSpaceOnUse"><path d="M37.966 28.872H711.1v405.284H37.966Z"/></clipPath><clipPath id="q" clipPathUnits="userSpaceOnUse"><path d="M37.966 28.872H711.1v405.284H37.966Z"/></clipPath><clipPath id="r" clipPathUnits="userSpaceOnUse"><path d="M37.966 28.872H711.1v405.284H37.966Z"/></clipPath><clipPath id="s" clipPathUnits="userSpaceOnUse"><path d="M37.966 28.872H711.1v405.284H37.966Z"/></clipPath><clipPath id="t" clipPathUnits="userSpaceOnUse"><path d="M37.966 28.872H711.1v405.284H37.966Z"/></clipPath><clipPath id="u" clipPathUnits="userSpaceOnUse"><path d="M37.966 28.872H711.1v405.284H37.966Z"/></clipPath><clipPath id="v" clipPathUnits="userSpaceOnUse"><path d="M37.966 28.872H711.1v405.284H37.966Z"/></clipPath><clipPath id="w" clipPathUnits="userSpaceOnUse"><path d="M37.966 28.872H711.1v405.284H37.966Z"/></clipPath><clipPath id="y" clipPathUnits="userSpaceOnUse"><path d="M-3.5-3.5h7v7h-7z"/></clipPath><clipPath id="x" clipPathUnits="userSpaceOnUse"><path d="M50.62 552.646h897.513V12.266H50.621Z"/></clipPath><clipPath id="A" clipPathUnits="userSpaceOnUse"><path d="M-3.5-3.5h7v7h-7z"/></clipPath><clipPath id="z" clipPathUnits="userSpaceOnUse"><path d="M50.62 552.646h897.513V12.266H50.621Z"/></clipPath><clipPath id="C" clipPathUnits="userSpaceOnUse"><path d="M-3.5-3.5h7v7h-7z"/></clipPath><clipPath id="B" clipPathUnits="userSpaceOnUse"><path d="M50.62 552.646h897.513V12.266H50.621Z"/></clipPath><clipPath id="E" clipPathUnits="userSpaceOnUse"><path d="M-3.5-3.5h7v7h-7z"/></clipPath><clipPath id="D" clipPathUnits="userSpaceOnUse"><path d="M50.62 552.646h897.513V12.266H50.621Z"/></clipPath><clipPath id="G" clipPathUnits="userSpaceOnUse"><path d="M-3.5-3.5h7v7h-7z"/></clipPath><clipPath id="F" clipPathUnits="userSpaceOnUse"><path d="M50.62 552.646h897.513V12.266H50.621Z"/></clipPath><clipPath id="I" clipPathUnits="userSpaceOnUse"><path d="M-3.5-3.5h7v7h-7z"/></clipPath><clipPath id="H" clipPathUnits="userSpaceOnUse"><path d="M50.62 552.646h897.513V12.266H50.621Z"/></clipPath><clipPath id="K" clipPathUnits="userSpaceOnUse"><path d="M-3.5-3.5h7v7h-7z"/></clipPath><clipPath id="J" clipPathUnits="userSpaceOnUse"><path d="M50.62 552.646h897.513V12.266H50.621Z"/></clipPath><clipPath id="M" clipPathUnits="userSpaceOnUse"><path d="M-3.5-3.5h7v7h-7z"/></clipPath><clipPath id="L" clipPathUnits="userSpaceOnUse"><path d="M50.62 552.646h897.513V12.266H50.621Z"/></clipPath><clipPath id="O" clipPathUnits="userSpaceOnUse"><path d="M-3.5-3.5h7v7h-7z"/></clipPath><clipPath id="N" clipPathUnits="userSpaceOnUse"><path d="M50.62 552.646h897.513V12.266H50.621Z"/></clipPath><clipPath id="Q" clipPathUnits="userSpaceOnUse"><path d="M-3.5-3.5h7v7h-7z"/></clipPath><clipPath id="P" clipPathUnits="userSpaceOnUse"><path d="M50.62 552.646h897.513V12.266H50.621Z"/></clipPath><clipPath id="S" clipPathUnits="userSpaceOnUse"><path d="M-3.5-3.5h7v7h-7z"/></clipPath><clipPath id="R" clipPathUnits="userSpaceOnUse"><path d="M50.62 552.646h897.513V12.266H50.621Z"/></clipPath><clipPath id="U" clipPathUnits="userSpaceOnUse"><path d="M-3.5-3.5h7v7h-7z"/></clipPath><clipPath id="T" clipPathUnits="userSpaceOnUse"><path d="M50.62 552.646h897.513V12.266H50.621Z"/></clipPath><clipPath id="W" clipPathUnits="userSpaceOnUse"><path d="M-3.5-3.5h7v7h-7z"/></clipPath><clipPath id="V" clipPathUnits="userSpaceOnUse"><path d="M50.62 552.646h897.513V12.266H50.621Z"/></clipPath><clipPath id="Y" clipPathUnits="userSpaceOnUse"><path d="M-3.5-3.5h7v7h-7z"/></clipPath><clipPath id="X" clipPathUnits="userSpaceOnUse"><path d="M50.62 552.646h897.513V12.266H50.621Z"/></clipPath><clipPath id="aa" clipPathUnits="userSpaceOnUse"><path d="M-3.5-3.5h7v7h-7z"/></clipPath><clipPath id="Z" clipPathUnits="userSpaceOnUse"><path d="M50.62 552.646h897.513V12.266H50.621Z"/></clipPath><clipPath id="ac" clipPathUnits="userSpaceOnUse"><path d="M-3.5-3.5h7v7h-7z"/></clipPath><clipPath id="ab" clipPathUnits="userSpaceOnUse"><path d="M50.62 552.646h897.513V12.266H50.621Z"/></clipPath><clipPath id="ae" clipPathUnits="userSpaceOnUse"><path d="M-3.5-3.5h7v7h-7z"/></clipPath><clipPath id="ad" clipPathUnits="userSpaceOnUse"><path d="M50.62 552.646h897.513V12.266H50.621Z"/></clipPath><clipPath id="ag" clipPathUnits="userSpaceOnUse"><path d="M-3.5-3.5h7v7h-7z"/></clipPath><clipPath id="af" clipPathUnits="userSpaceOnUse"><path d="M50.62 552.646h897.513V12.266H50.621Z"/></clipPath><clipPath id="ai" clipPathUnits="userSpaceOnUse"><path d="M-3.5-3.5h7v7h-7z"/></clipPath><clipPath id="ah" clipPathUnits="userSpaceOnUse"><path d="M50.62 552.646h897.513V12.266H50.621Z"/></clipPath><clipPath id="ak" clipPathUnits="userSpaceOnUse"><path d="M-3.5-3.5h7v7h-7z"/></clipPath><clipPath id="aj" clipPathUnits="userSpaceOnUse"><path d="M50.62 552.646h897.513V12.266H50.621Z"/></clipPath><clipPath id="am" clipPathUnits="userSpaceOnUse"><path d="M-3.5-3.5h7v7h-7z"/></clipPath><clipPath id="al" clipPathUnits="userSpaceOnUse"><path d="M50.62 552.646h897.513V12.266H50.621Z"/></clipPath><clipPath id="ao" clipPathUnits="userSpaceOnUse"><path d="M-3.5-3.5h7v7h-7z"/></clipPath><clipPath id="an" clipPathUnits="userSpaceOnUse"><path d="M50.62 552.646h897.513V12.266H50.621Z"/></clipPath><clipPath id="aq" clipPathUnits="userSpaceOnUse"><path d="M-3.5-3.5h7v7h-7z"/></clipPath><clipPath id="ap" clipPathUnits="userSpaceOnUse"><path d="M50.62 552.646h897.513V12.266H50.621Z"/></clipPath><clipPath id="as" clipPathUnits="userSpaceOnUse"><path d="M-3.5-3.5h7v7h-7z"/></clipPath><clipPath id="ar" clipPathUnits="userSpaceOnUse"><path d="M50.62 552.646h897.513V12.266H50.621Z"/></clipPath><clipPath id="au" clipPathUnits="userSpaceOnUse"><path d="M-3.5-3.5h7v7h-7z"/></clipPath><clipPath id="at" clipPathUnits="userSpaceOnUse"><path d="M50.62 552.646h897.513V12.266H50.621Z"/></clipPath><clipPath id="aw" clipPathUnits="userSpaceOnUse"><path d="M-3.5-3.5h7v7h-7z"/></clipPath><clipPath id="av" clipPathUnits="userSpaceOnUse"><path d="M50.62 552.646h897.513V12.266H50.621Z"/></clipPath><clipPath id="ay" clipPathUnits="userSpaceOnUse"><path d="M-3.5-3.5h7v7h-7z"/></clipPath><clipPath id="ax" clipPathUnits="userSpaceOnUse"><path d="M50.62 552.646h897.513V12.266H50.621Z"/></clipPath><clipPath id="aA" clipPathUnits="userSpaceOnUse"><path d="M-3.5-3.5h7v7h-7z"/></clipPath><clipPath id="az" clipPathUnits="userSpaceOnUse"><path d="M50.62 552.646h897.513V12.266H50.621Z"/></clipPath><clipPath id="aC" clipPathUnits="userSpaceOnUse"><path d="M-3.5-3.5h7v7h-7z"/></clipPath><clipPath id="aB" clipPathUnits="userSpaceOnUse"><path d="M50.62 552.646h897.513V12.266H50.621Z"/></clipPath><clipPath id="aE" clipPathUnits="userSpaceOnUse"><path d="M-3.5-3.5h7v7h-7z"/></clipPath><clipPath id="aD" clipPathUnits="userSpaceOnUse"><path d="M50.62 552.646h897.513V12.266H50.621Z"/></clipPath><clipPath id="aG" clipPathUnits="userSpaceOnUse"><path d="M-3.5-3.5h7v7h-7z"/></clipPath><clipPath id="aF" clipPathUnits="userSpaceOnUse"><path d="M50.62 552.646h897.513V12.266H50.621Z"/></clipPath><clipPath id="aI" clipPathUnits="userSpaceOnUse"><path d="M-3.5-3.5h7v7h-7z"/></clipPath><clipPath id="aH" clipPathUnits="userSpaceOnUse"><path d="M50.62 552.646h897.513V12.266H50.621Z"/></clipPath><clipPath id="aK" clipPathUnits="userSpaceOnUse"><path d="M-3.5-3.5h7v7h-7z"/></clipPath><clipPath id="aJ" clipPathUnits="userSpaceOnUse"><path d="M50.62 552.646h897.513V12.266H50.621Z"/></clipPath><clipPath id="aM" clipPathUnits="userSpaceOnUse"><path d="M-3.5-3.5h7v7h-7z"/></clipPath><clipPath id="aL" clipPathUnits="userSpaceOnUse"><path d="M50.62 552.646h897.513V12.266H50.621Z"/></clipPath><clipPath id="aO" clipPathUnits="userSpaceOnUse"><path d="M-3.5-3.5h7v7h-7z"/></clipPath><clipPath id="aN" clipPathUnits="userSpaceOnUse"><path d="M50.62 552.646h897.513V12.266H50.621Z"/></clipPath><clipPath id="aQ" clipPathUnits="userSpaceOnUse"><path d="M-3.5-3.5h7v7h-7z"/></clipPath><clipPath id="aP" clipPathUnits="userSpaceOnUse"><path d="M50.62 552.646h897.513V12.266H50.621Z"/></clipPath><clipPath id="aS" clipPathUnits="userSpaceOnUse"><path d="M-3.5-3.5h7v7h-7z"/></clipPath><clipPath id="aR" clipPathUnits="userSpaceOnUse"><path d="M50.62 552.646h897.513V12.266H50.621Z"/></clipPath><clipPath id="aU" clipPathUnits="userSpaceOnUse"><path d="M-3.5-3.5h7v7h-7z"/></clipPath><clipPath id="aT" clipPathUnits="userSpaceOnUse"><path d="M50.62 552.646h897.513V12.266H50.621Z"/></clipPath><clipPath id="aW" clipPathUnits="userSpaceOnUse"><path d="M-3.5-3.5h7v7h-7z"/></clipPath><clipPath id="aV" clipPathUnits="userSpaceOnUse"><path d="M50.62 552.646h897.513V12.266H50.621Z"/></clipPath><clipPath id="aY" clipPathUnits="userSpaceOnUse"><path d="M-3.5-3.5h7v7h-7z"/></clipPath><clipPath id="aX" clipPathUnits="userSpaceOnUse"><path d="M50.62 552.646h897.513V12.266H50.621Z"/></clipPath></defs><path d="M0 0h721.8v443.356H0Z" style="fill:#fff;fill-opacity:1;fill-rule:nonzero;stroke:none" transform="matrix(1.33333 0 0 -1.33333 0 591.142)"/><path d="M37.966 28.872H711.1v405.284H37.966Z" style="fill:#fff;fill-opacity:1;fill-rule:nonzero;stroke:none" transform="matrix(1.33333 0 0 -1.33333 0 591.142)"/><path d="M122.107 23.872v-3.5" style="fill:#000;fill-opacity:1;fill-rule:nonzero;stroke:#000;stroke-width:.8;stroke-linecap:butt;stroke-linejoin:round;stroke-miterlimit:10;stroke-dasharray:none;stroke-opacity:1" transform="matrix(1.33333 0 0 -1.33333 0 591.142)"/><text xml:space="preserve" transform="translate(149.237 578.77)scale(1.33333)"><tspan x="0" y="0" style="font-variant:normal;font-weight:400;font-size:10px;font-family:&quot;DejaVu Sans&quot;;writing-mode:lr-tb;fill:#000;fill-opacity:1;fill-rule:nonzero;stroke:none">DES</tspan></text><path d="M290.391 23.872v-3.5" style="fill:#000;fill-opacity:1;fill-rule:nonzero;stroke:#000;stroke-width:.8;stroke-linecap:butt;stroke-linejoin:round;stroke-miterlimit:10;stroke-dasharray:none;stroke-opacity:1" transform="matrix(1.33333 0 0 -1.33333 0 591.142)"/><text xml:space="preserve" transform="translate(361.376 578.77)scale(1.33333)"><tspan x="0" y="0" style="font-variant:normal;font-weight:400;font-size:10px;font-family:&quot;DejaVu Sans&quot;;writing-mode:lr-tb;fill:#000;fill-opacity:1;fill-rule:nonzero;stroke:none">CMA-ES</tspan></text><path d="M458.675 23.872v-3.5" style="fill:#000;fill-opacity:1;fill-rule:nonzero;stroke:#000;stroke-width:.8;stroke-linecap:butt;stroke-linejoin:round;stroke-miterlimit:10;stroke-dasharray:none;stroke-opacity:1" transform="matrix(1.33333 0 0 -1.33333 0 591.142)"/><text xml:space="preserve" transform="translate(600.233 578.77)scale(1.33333)"><tspan x="0" y="0" style="font-variant:normal;font-weight:400;font-size:10px;font-family:&quot;DejaVu Sans&quot;;writing-mode:lr-tb;fill:#000;fill-opacity:1;fill-rule:nonzero;stroke:none">jSO</tspan></text><path d="M626.958 23.872v-3.5" style="fill:#000;fill-opacity:1;fill-rule:nonzero;stroke:#000;stroke-width:.8;stroke-linecap:butt;stroke-linejoin:round;stroke-miterlimit:10;stroke-dasharray:none;stroke-opacity:1" transform="matrix(1.33333 0 0 -1.33333 0 591.142)"/><text xml:space="preserve" transform="translate(771.382 578.77)scale(1.33333)"><tspan x="0" y="0" style="font-variant:normal;font-weight:400;font-size:10px;font-family:&quot;DejaVu Sans&quot;;writing-mode:lr-tb;fill:#000;fill-opacity:1;fill-rule:nonzero;stroke:none">Logistic Regression</tspan></text><path d="M37.966 79.635H711.1" clip-path="url(#a)" style="fill:none;stroke:#e6e6e6;stroke-width:1;stroke-linecap:square;stroke-linejoin:round;stroke-miterlimit:10;stroke-dasharray:none;stroke-opacity:1" transform="matrix(1.33333 0 0 -1.33333 0 591.142)"/><text xml:space="preserve" transform="translate(9.6 490.024)scale(1.33333)"><tspan x="0" y="0" style="font-variant:normal;font-weight:400;font-size:10px;font-family:&quot;DejaVu Sans&quot;;writing-mode:lr-tb;fill:#000;fill-opacity:1;fill-rule:nonzero;stroke:none">0.35</tspan></text><path d="M37.966 147.802H711.1" clip-path="url(#b)" style="fill:none;stroke:#e6e6e6;stroke-width:1;stroke-linecap:square;stroke-linejoin:round;stroke-miterlimit:10;stroke-dasharray:none;stroke-opacity:1" transform="matrix(1.33333 0 0 -1.33333 0 591.142)"/><text xml:space="preserve" transform="translate(9.6 399.135)scale(1.33333)"><tspan x="0" y="0" style="font-variant:normal;font-weight:400;font-size:10px;font-family:&quot;DejaVu Sans&quot;;writing-mode:lr-tb;fill:#000;fill-opacity:1;fill-rule:nonzero;stroke:none">0.36</tspan></text><path d="M37.966 215.969H711.1" clip-path="url(#c)" style="fill:none;stroke:#e6e6e6;stroke-width:1;stroke-linecap:square;stroke-linejoin:round;stroke-miterlimit:10;stroke-dasharray:none;stroke-opacity:1" transform="matrix(1.33333 0 0 -1.33333 0 591.142)"/><text xml:space="preserve" transform="translate(9.6 308.246)scale(1.33333)"><tspan x="0" y="0" style="font-variant:normal;font-weight:400;font-size:10px;font-family:&quot;DejaVu Sans&quot;;writing-mode:lr-tb;fill:#000;fill-opacity:1;fill-rule:nonzero;stroke:none">0.37</tspan></text><path d="M37.966 284.135H711.1" clip-path="url(#d)" style="fill:none;stroke:#e6e6e6;stroke-width:1;stroke-linecap:square;stroke-linejoin:round;stroke-miterlimit:10;stroke-dasharray:none;stroke-opacity:1" transform="matrix(1.33333 0 0 -1.33333 0 591.142)"/><text xml:space="preserve" transform="translate(9.6 217.357)scale(1.33333)"><tspan x="0" y="0" style="font-variant:normal;font-weight:400;font-size:10px;font-family:&quot;DejaVu Sans&quot;;writing-mode:lr-tb;fill:#000;fill-opacity:1;fill-rule:nonzero;stroke:none">0.38</tspan></text><path d="M37.966 352.302H711.1" clip-path="url(#e)" style="fill:none;stroke:#e6e6e6;stroke-width:1;stroke-linecap:square;stroke-linejoin:round;stroke-miterlimit:10;stroke-dasharray:none;stroke-opacity:1" transform="matrix(1.33333 0 0 -1.33333 0 591.142)"/><text xml:space="preserve" transform="translate(9.6 126.468)scale(1.33333)"><tspan x="0" y="0" style="font-variant:normal;font-weight:400;font-size:10px;font-family:&quot;DejaVu Sans&quot;;writing-mode:lr-tb;fill:#000;fill-opacity:1;fill-rule:nonzero;stroke:none">0.39</tspan></text><path d="M37.966 420.469H711.1" clip-path="url(#f)" style="fill:none;stroke:#e6e6e6;stroke-width:1;stroke-linecap:square;stroke-linejoin:round;stroke-miterlimit:10;stroke-dasharray:none;stroke-opacity:1" transform="matrix(1.33333 0 0 -1.33333 0 591.142)"/><text xml:space="preserve" transform="translate(9.6 35.579)scale(1.33333)"><tspan x="0" y="0" style="font-variant:normal;font-weight:400;font-size:10px;font-family:&quot;DejaVu Sans&quot;;writing-mode:lr-tb;fill:#000;fill-opacity:1;fill-rule:nonzero;stroke:none">0.40</tspan></text><path d="M54.794 158.168h134.627v127.224H54.794Z" clip-path="url(#g)" style="fill:none;stroke:#3d3d3d;stroke-width:1.5;stroke-linecap:butt;stroke-linejoin:miter;stroke-miterlimit:10;stroke-dasharray:none;stroke-opacity:1" transform="matrix(1.33333 0 0 -1.33333 0 591.142)"/><path d="M223.078 133.823h134.626v192.406H223.078Z" clip-path="url(#h)" style="fill:none;stroke:#3d3d3d;stroke-width:1.5;stroke-linecap:butt;stroke-linejoin:miter;stroke-miterlimit:10;stroke-dasharray:none;stroke-opacity:1" transform="matrix(1.33333 0 0 -1.33333 0 591.142)"/><path d="M391.361 165.236h134.627v83.245H391.361Z" clip-path="url(#i)" style="fill:none;stroke:#3d3d3d;stroke-width:1.5;stroke-linecap:butt;stroke-linejoin:miter;stroke-miterlimit:10;stroke-dasharray:none;stroke-opacity:1" transform="matrix(1.33333 0 0 -1.33333 0 591.142)"/><path d="M559.645 363.925h134.627z" clip-path="url(#j)" style="fill:none;stroke:#3d3d3d;stroke-width:1.5;stroke-linecap:butt;stroke-linejoin:miter;stroke-miterlimit:10;stroke-dasharray:none;stroke-opacity:1" transform="matrix(1.33333 0 0 -1.33333 0 591.142)"/><path d="M122.107 158.168V93.771" clip-path="url(#k)" style="fill:none;stroke:#3d3d3d;stroke-width:1.5;stroke-linecap:square;stroke-linejoin:round;stroke-miterlimit:10;stroke-dasharray:none;stroke-opacity:1" transform="matrix(1.33333 0 0 -1.33333 0 591.142)"/><path d="M122.107 285.392v87.957" clip-path="url(#l)" style="fill:none;stroke:#3d3d3d;stroke-width:1.5;stroke-linecap:square;stroke-linejoin:round;stroke-miterlimit:10;stroke-dasharray:none;stroke-opacity:1" transform="matrix(1.33333 0 0 -1.33333 0 591.142)"/><path d="M290.391 133.823v-80.89" clip-path="url(#m)" style="fill:none;stroke:#3d3d3d;stroke-width:1.5;stroke-linecap:square;stroke-linejoin:round;stroke-miterlimit:10;stroke-dasharray:none;stroke-opacity:1" transform="matrix(1.33333 0 0 -1.33333 0 591.142)"/><path d="M290.391 326.23v69.108" clip-path="url(#n)" style="fill:none;stroke:#3d3d3d;stroke-width:1.5;stroke-linecap:square;stroke-linejoin:round;stroke-miterlimit:10;stroke-dasharray:none;stroke-opacity:1" transform="matrix(1.33333 0 0 -1.33333 0 591.142)"/><path d="M458.675 165.236V49.792" clip-path="url(#o)" style="fill:none;stroke:#3d3d3d;stroke-width:1.5;stroke-linecap:square;stroke-linejoin:round;stroke-miterlimit:10;stroke-dasharray:none;stroke-opacity:1" transform="matrix(1.33333 0 0 -1.33333 0 591.142)"/><path d="M458.675 248.481v55.759" clip-path="url(#p)" style="fill:none;stroke:#3d3d3d;stroke-width:1.5;stroke-linecap:square;stroke-linejoin:round;stroke-miterlimit:10;stroke-dasharray:none;stroke-opacity:1" transform="matrix(1.33333 0 0 -1.33333 0 591.142)"/><path d="M626.958 363.925v0" clip-path="url(#q)" style="fill:none;stroke:#3d3d3d;stroke-width:1.5;stroke-linecap:square;stroke-linejoin:round;stroke-miterlimit:10;stroke-dasharray:none;stroke-opacity:1" transform="matrix(1.33333 0 0 -1.33333 0 591.142)"/><path d="M626.958 363.925v0" clip-path="url(#r)" style="fill:none;stroke:#3d3d3d;stroke-width:1.5;stroke-linecap:square;stroke-linejoin:round;stroke-miterlimit:10;stroke-dasharray:none;stroke-opacity:1" transform="matrix(1.33333 0 0 -1.33333 0 591.142)"/><path d="M37.966 363.925H711.1" clip-path="url(#s)" style="fill:none;stroke:#9467bd;stroke-width:1.5;stroke-linecap:butt;stroke-linejoin:round;stroke-miterlimit:10;stroke-dasharray:5.55,2.4;stroke-dashoffset:0;stroke-opacity:1" transform="matrix(1.33333 0 0 -1.33333 0 591.142)"/><path d="M54.794 205.288h134.627" clip-path="url(#t)" style="fill:none;stroke:#3d3d3d;stroke-width:1.5;stroke-linecap:square;stroke-linejoin:round;stroke-miterlimit:10;stroke-dasharray:none;stroke-opacity:1" transform="matrix(1.33333 0 0 -1.33333 0 591.142)"/><path d="M223.078 213.141h134.626" clip-path="url(#u)" style="fill:none;stroke:#3d3d3d;stroke-width:1.5;stroke-linecap:square;stroke-linejoin:round;stroke-miterlimit:10;stroke-dasharray:none;stroke-opacity:1" transform="matrix(1.33333 0 0 -1.33333 0 591.142)"/><path d="M391.361 205.288h134.627" clip-path="url(#v)" style="fill:none;stroke:#3d3d3d;stroke-width:1.5;stroke-linecap:square;stroke-linejoin:round;stroke-miterlimit:10;stroke-dasharray:none;stroke-opacity:1" transform="matrix(1.33333 0 0 -1.33333 0 591.142)"/><path d="M559.645 363.925h134.627" clip-path="url(#w)" style="fill:none;stroke:#3d3d3d;stroke-width:1.5;stroke-linecap:square;stroke-linejoin:round;stroke-miterlimit:10;stroke-dasharray:none;stroke-opacity:1" transform="matrix(1.33333 0 0 -1.33333 0 591.142)"/><g clip-path="url(#x)"><path d="M0-3.5a3.5 3.5 0 1 1 0 7 3.5 3.5 0 0 1 0-7" clip-path="url(#y)" style="fill:#1f77b4;fill-opacity:1;fill-rule:nonzero;stroke:none" transform="matrix(1.33333 0 0 -1.33333 162.81 466.114)"/></g><g clip-path="url(#z)"><path d="M0-3.5a3.5 3.5 0 1 1 0 7 3.5 3.5 0 0 1 0-7" clip-path="url(#A)" style="fill:#1f77b4;fill-opacity:1;fill-rule:nonzero;stroke:none" transform="matrix(1.33333 0 0 -1.33333 162.81 403.287)"/></g><g clip-path="url(#B)"><path d="M0-3.5a3.5 3.5 0 1 1 0 7 3.5 3.5 0 0 1 0-7" clip-path="url(#C)" style="fill:#1f77b4;fill-opacity:1;fill-rule:nonzero;stroke:none" transform="matrix(1.33333 0 0 -1.33333 162.81 390.722)"/></g><g clip-path="url(#D)"><path d="M0-3.5a3.5 3.5 0 1 1 0 7 3.5 3.5 0 0 1 0-7" clip-path="url(#E)" style="fill:#1f77b4;fill-opacity:1;fill-rule:nonzero;stroke:none" transform="matrix(1.33333 0 0 -1.33333 162.81 348.838)"/></g><g clip-path="url(#F)"><path d="M0-3.5a3.5 3.5 0 1 1 0 7 3.5 3.5 0 0 1 0-7" clip-path="url(#G)" style="fill:#1f77b4;fill-opacity:1;fill-rule:nonzero;stroke:none" transform="matrix(1.33333 0 0 -1.33333 158.488 340.46)"/></g><g clip-path="url(#H)"><path d="M0-3.5a3.5 3.5 0 1 1 0 7 3.5 3.5 0 0 1 0-7" clip-path="url(#I)" style="fill:#1f77b4;fill-opacity:1;fill-rule:nonzero;stroke:none" transform="matrix(1.33333 0 0 -1.33333 162.81 294.388)"/></g><g clip-path="url(#J)"><path d="M0-3.5a3.5 3.5 0 1 1 0 7 3.5 3.5 0 0 1 0-7" clip-path="url(#K)" style="fill:#1f77b4;fill-opacity:1;fill-rule:nonzero;stroke:none" transform="matrix(1.33333 0 0 -1.33333 162.81 223.184)"/></g><g clip-path="url(#L)"><path d="M0-3.5a3.5 3.5 0 1 1 0 7 3.5 3.5 0 0 1 0-7" clip-path="url(#M)" style="fill:#1f77b4;fill-opacity:1;fill-rule:nonzero;stroke:none" transform="matrix(1.33333 0 0 -1.33333 162.81 206.43)"/></g><g clip-path="url(#N)"><path d="M0-3.5a3.5 3.5 0 1 1 0 7 3.5 3.5 0 0 1 0-7" clip-path="url(#O)" style="fill:#1f77b4;fill-opacity:1;fill-rule:nonzero;stroke:none" transform="matrix(1.33333 0 0 -1.33333 162.81 185.488)"/></g><g clip-path="url(#P)"><path d="M0-3.5a3.5 3.5 0 1 1 0 7 3.5 3.5 0 0 1 0-7" clip-path="url(#Q)" style="fill:#1f77b4;fill-opacity:1;fill-rule:nonzero;stroke:none" transform="matrix(1.33333 0 0 -1.33333 162.81 93.343)"/></g><g clip-path="url(#R)"><path d="M0-3.5a3.5 3.5 0 1 1 0 7 3.5 3.5 0 0 1 0-7" clip-path="url(#S)" style="fill:#ff7f0e;fill-opacity:1;fill-rule:nonzero;stroke:none" transform="matrix(1.33333 0 0 -1.33333 387.188 520.563)"/></g><g clip-path="url(#T)"><path d="M0-3.5a3.5 3.5 0 1 1 0 7 3.5 3.5 0 0 1 0-7" clip-path="url(#U)" style="fill:#ff7f0e;fill-opacity:1;fill-rule:nonzero;stroke:none" transform="matrix(1.33333 0 0 -1.33333 387.188 432.606)"/></g><g clip-path="url(#V)"><path d="M0-3.5a3.5 3.5 0 1 1 0 7 3.5 3.5 0 0 1 0-7" clip-path="url(#W)" style="fill:#ff7f0e;fill-opacity:1;fill-rule:nonzero;stroke:none" transform="matrix(1.33333 0 0 -1.33333 382.867 424.23)"/></g><g clip-path="url(#X)"><path d="M0-3.5a3.5 3.5 0 1 1 0 7 3.5 3.5 0 0 1 0-7" clip-path="url(#Y)" style="fill:#ff7f0e;fill-opacity:1;fill-rule:nonzero;stroke:none" transform="matrix(1.33333 0 0 -1.33333 387.188 378.157)"/></g><g clip-path="url(#Z)"><path d="M0-3.5a3.5 3.5 0 1 1 0 7 3.5 3.5 0 0 1 0-7" clip-path="url(#aa)" style="fill:#ff7f0e;fill-opacity:1;fill-rule:nonzero;stroke:none" transform="matrix(1.33333 0 0 -1.33333 387.188 327.895)"/></g><g clip-path="url(#ab)"><path d="M0-3.5a3.5 3.5 0 1 1 0 7 3.5 3.5 0 0 1 0-7" clip-path="url(#ac)" style="fill:#ff7f0e;fill-opacity:1;fill-rule:nonzero;stroke:none" transform="matrix(1.33333 0 0 -1.33333 387.188 286.011)"/></g><g clip-path="url(#ad)"><path d="M0-3.5a3.5 3.5 0 1 1 0 7 3.5 3.5 0 0 1 0-7" clip-path="url(#ae)" style="fill:#ff7f0e;fill-opacity:1;fill-rule:nonzero;stroke:none" transform="matrix(1.33333 0 0 -1.33333 387.188 218.996)"/></g><g clip-path="url(#af)"><path d="M0-3.5a3.5 3.5 0 1 1 0 7 3.5 3.5 0 0 1 0-7" clip-path="url(#ag)" style="fill:#ff7f0e;fill-opacity:1;fill-rule:nonzero;stroke:none" transform="matrix(1.33333 0 0 -1.33333 387.188 135.227)"/></g><g clip-path="url(#ah)"><path d="M0-3.5a3.5 3.5 0 1 1 0 7 3.5 3.5 0 0 1 0-7" clip-path="url(#ai)" style="fill:#ff7f0e;fill-opacity:1;fill-rule:nonzero;stroke:none" transform="matrix(1.33333 0 0 -1.33333 387.188 101.72)"/></g><g clip-path="url(#aj)"><path d="M0-3.5a3.5 3.5 0 1 1 0 7 3.5 3.5 0 0 1 0-7" clip-path="url(#ak)" style="fill:#ff7f0e;fill-opacity:1;fill-rule:nonzero;stroke:none" transform="matrix(1.33333 0 0 -1.33333 387.188 64.024)"/></g><g clip-path="url(#al)"><path d="M0-3.5a3.5 3.5 0 1 1 0 7 3.5 3.5 0 0 1 0-7" clip-path="url(#am)" style="fill:#2ca02c;fill-opacity:1;fill-rule:nonzero;stroke:none" transform="matrix(1.33333 0 0 -1.33333 611.566 524.752)"/></g><g clip-path="url(#an)"><path d="M0-3.5a3.5 3.5 0 1 1 0 7 3.5 3.5 0 0 1 0-7" clip-path="url(#ao)" style="fill:#2ca02c;fill-opacity:1;fill-rule:nonzero;stroke:none" transform="matrix(1.33333 0 0 -1.33333 611.566 461.925)"/></g><g clip-path="url(#ap)"><path d="M0-3.5a3.5 3.5 0 1 1 0 7 3.5 3.5 0 0 1 0-7" clip-path="url(#aq)" style="fill:#2ca02c;fill-opacity:1;fill-rule:nonzero;stroke:none" transform="matrix(1.33333 0 0 -1.33333 611.566 378.157)"/></g><g clip-path="url(#ar)"><path d="M0-3.5a3.5 3.5 0 1 1 0 7 3.5 3.5 0 0 1 0-7" clip-path="url(#as)" style="fill:#2ca02c;fill-opacity:1;fill-rule:nonzero;stroke:none" transform="matrix(1.33333 0 0 -1.33333 611.566 348.838)"/></g><g clip-path="url(#at)"><path d="M0-3.5a3.5 3.5 0 1 1 0 7 3.5 3.5 0 0 1 0-7" clip-path="url(#au)" style="fill:#2ca02c;fill-opacity:1;fill-rule:nonzero;stroke:none" transform="matrix(1.33333 0 0 -1.33333 602.808 344.65)"/></g><g clip-path="url(#av)"><path d="M0-3.5a3.5 3.5 0 1 1 0 7 3.5 3.5 0 0 1 0-7" clip-path="url(#aw)" style="fill:#2ca02c;fill-opacity:1;fill-rule:nonzero;stroke:none" transform="matrix(1.33333 0 0 -1.33333 611.566 290.2)"/></g><g clip-path="url(#ax)"><path d="M0-3.5a3.5 3.5 0 1 1 0 7 3.5 3.5 0 0 1 0-7" clip-path="url(#ay)" style="fill:#2ca02c;fill-opacity:1;fill-rule:nonzero;stroke:none" transform="matrix(1.33333 0 0 -1.33333 607.245 281.823)"/></g><g clip-path="url(#az)"><path d="M0-3.5a3.5 3.5 0 1 1 0 7 3.5 3.5 0 0 1 0-7" clip-path="url(#aA)" style="fill:#2ca02c;fill-opacity:1;fill-rule:nonzero;stroke:none" transform="matrix(1.33333 0 0 -1.33333 611.566 252.503)"/></g><g clip-path="url(#aB)"><path d="M0-3.5a3.5 3.5 0 1 1 0 7 3.5 3.5 0 0 1 0-7" clip-path="url(#aC)" style="fill:#2ca02c;fill-opacity:1;fill-rule:nonzero;stroke:none" transform="matrix(1.33333 0 0 -1.33333 602.808 248.315)"/></g><g clip-path="url(#aD)"><path d="M0-3.5a3.5 3.5 0 1 1 0 7 3.5 3.5 0 0 1 0-7" clip-path="url(#aE)" style="fill:#2ca02c;fill-opacity:1;fill-rule:nonzero;stroke:none" transform="matrix(1.33333 0 0 -1.33333 611.566 185.488)"/></g><g clip-path="url(#aF)"><path d="M0-3.5a3.5 3.5 0 1 1 0 7 3.5 3.5 0 0 1 0-7" clip-path="url(#aG)" style="fill:#9467bd;fill-opacity:1;fill-rule:nonzero;stroke:none" transform="matrix(1.33333 0 0 -1.33333 835.944 105.908)"/></g><g clip-path="url(#aH)"><path d="M0-3.5a3.5 3.5 0 1 1 0 7 3.5 3.5 0 0 1 0-7" clip-path="url(#aI)" style="fill:#9467bd;fill-opacity:1;fill-rule:nonzero;stroke:none" transform="matrix(1.33333 0 0 -1.33333 826.144 105.908)"/></g><g clip-path="url(#aJ)"><path d="M0-3.5a3.5 3.5 0 1 1 0 7 3.5 3.5 0 0 1 0-7" clip-path="url(#aK)" style="fill:#9467bd;fill-opacity:1;fill-rule:nonzero;stroke:none" transform="matrix(1.33333 0 0 -1.33333 845.744 105.908)"/></g><g clip-path="url(#aL)"><path d="M0-3.5a3.5 3.5 0 1 1 0 7 3.5 3.5 0 0 1 0-7" clip-path="url(#aM)" style="fill:#9467bd;fill-opacity:1;fill-rule:nonzero;stroke:none" transform="matrix(1.33333 0 0 -1.33333 816.344 105.908)"/></g><g clip-path="url(#aN)"><path d="M0-3.5a3.5 3.5 0 1 1 0 7 3.5 3.5 0 0 1 0-7" clip-path="url(#aO)" style="fill:#9467bd;fill-opacity:1;fill-rule:nonzero;stroke:none" transform="matrix(1.33333 0 0 -1.33333 855.544 105.908)"/></g><g clip-path="url(#aP)"><path d="M0-3.5a3.5 3.5 0 1 1 0 7 3.5 3.5 0 0 1 0-7" clip-path="url(#aQ)" style="fill:#9467bd;fill-opacity:1;fill-rule:nonzero;stroke:none" transform="matrix(1.33333 0 0 -1.33333 806.544 105.908)"/></g><g clip-path="url(#aR)"><path d="M0-3.5a3.5 3.5 0 1 1 0 7 3.5 3.5 0 0 1 0-7" clip-path="url(#aS)" style="fill:#9467bd;fill-opacity:1;fill-rule:nonzero;stroke:none" transform="matrix(1.33333 0 0 -1.33333 865.344 105.908)"/></g><g clip-path="url(#aT)"><path d="M0-3.5a3.5 3.5 0 1 1 0 7 3.5 3.5 0 0 1 0-7" clip-path="url(#aU)" style="fill:#9467bd;fill-opacity:1;fill-rule:nonzero;stroke:none" transform="matrix(1.33333 0 0 -1.33333 796.744 105.908)"/></g><g clip-path="url(#aV)"><path d="M0-3.5a3.5 3.5 0 1 1 0 7 3.5 3.5 0 0 1 0-7" clip-path="url(#aW)" style="fill:#9467bd;fill-opacity:1;fill-rule:nonzero;stroke:none" transform="matrix(1.33333 0 0 -1.33333 875.144 105.908)"/></g><g clip-path="url(#aX)"><path d="M0-3.5a3.5 3.5 0 1 1 0 7 3.5 3.5 0 0 1 0-7" clip-path="url(#aY)" style="fill:#9467bd;fill-opacity:1;fill-rule:nonzero;stroke:none" transform="matrix(1.33333 0 0 -1.33333 786.944 105.908)"/></g></svg>