<?xml version="1.0" encoding="UTF-8" standalone="no"?>
<!-- Created with Inkscape (http://www.inkscape.org/) -->

<svg
   version="1.1"
   id="svg1"
   width="962.40002"
   height="591.14166"
   viewBox="0 0 962.40002 591.14166"
   xmlns="http://www.w3.org/2000/svg"
   xmlns:svg="http://www.w3.org/2000/svg">
  <defs
     id="defs1">
    <clipPath
       clipPathUnits="userSpaceOnUse"
       id="clipPath8">
      <path
         d="M 37.965625,28.871875 H 711.1 V 434.15624 H 37.965625 Z"
         id="path8" />
    </clipPath>
    <clipPath
       clipPathUnits="userSpaceOnUse"
       id="clipPath10">
      <path
         d="M 37.965625,28.871875 H 711.1 V 434.15624 H 37.965625 Z"
         id="path10" />
    </clipPath>
    <clipPath
       clipPathUnits="userSpaceOnUse"
       id="clipPath12">
      <path
         d="M 37.965625,28.871875 H 711.1 V 434.15624 H 37.965625 Z"
         id="path12" />
    </clipPath>
    <clipPath
       clipPathUnits="userSpaceOnUse"
       id="clipPath14">
      <path
         d="M 37.965625,28.871875 H 711.1 V 434.15624 H 37.965625 Z"
         id="path14" />
    </clipPath>
    <clipPath
       clipPathUnits="userSpaceOnUse"
       id="clipPath16">
      <path
         d="M 37.965625,28.871875 H 711.1 V 434.15624 H 37.965625 Z"
         id="path16" />
    </clipPath>
    <clipPath
       clipPathUnits="userSpaceOnUse"
       id="clipPath18">
      <path
         d="M 37.965625,28.871875 H 711.1 V 434.15624 H 37.965625 Z"
         id="path18" />
    </clipPath>
    <clipPath
       clipPathUnits="userSpaceOnUse"
       id="clipPath20">
      <path
         d="M 37.965625,28.871875 H 711.1 V 434.15624 H 37.965625 Z"
         id="path20" />
    </clipPath>
    <clipPath
       clipPathUnits="userSpaceOnUse"
       id="clipPath22">
      <path
         d="M 37.965625,28.871875 H 711.1 V 434.15624 H 37.965625 Z"
         id="path22" />
    </clipPath>
    <clipPath
       clipPathUnits="userSpaceOnUse"
       id="clipPath24">
      <path
         d="M 37.965625,28.871875 H 711.1 V 434.15624 H 37.965625 Z"
         id="path24" />
    </clipPath>
    <clipPath
       clipPathUnits="userSpaceOnUse"
       id="clipPath26">
      <path
         d="M 37.965625,28.871875 H 711.1 V 434.15624 H 37.965625 Z"
         id="path26" />
    </clipPath>
    <clipPath
       clipPathUnits="userSpaceOnUse"
       id="clipPath28">
      <path
         d="M 37.965625,28.871875 H 711.1 V 434.15624 H 37.965625 Z"
         id="path28" />
    </clipPath>
    <clipPath
       clipPathUnits="userSpaceOnUse"
       id="clipPath30">
      <path
         d="M 37.965625,28.871875 H 711.1 V 434.15624 H 37.965625 Z"
         id="path30" />
    </clipPath>
    <clipPath
       clipPathUnits="userSpaceOnUse"
       id="clipPath32">
      <path
         d="M 37.965625,28.871875 H 711.1 V 434.15624 H 37.965625 Z"
         id="path32" />
    </clipPath>
    <clipPath
       clipPathUnits="userSpaceOnUse"
       id="clipPath34">
      <path
         d="M 37.965625,28.871875 H 711.1 V 434.15624 H 37.965625 Z"
         id="path34" />
    </clipPath>
    <clipPath
       clipPathUnits="userSpaceOnUse"
       id="clipPath36">
      <path
         d="M 37.965625,28.871875 H 711.1 V 434.15624 H 37.965625 Z"
         id="path36" />
    </clipPath>
    <clipPath
       clipPathUnits="userSpaceOnUse"
       id="clipPath38">
      <path
         d="M 37.965625,28.871875 H 711.1 V 434.15624 H 37.965625 Z"
         id="path38" />
    </clipPath>
    <clipPath
       clipPathUnits="userSpaceOnUse"
       id="clipPath40">
      <path
         d="M 37.965625,28.871875 H 711.1 V 434.15624 H 37.965625 Z"
         id="path40" />
    </clipPath>
    <clipPath
       clipPathUnits="userSpaceOnUse"
       id="clipPath42">
      <path
         d="M 37.965625,28.871875 H 711.1 V 434.15624 H 37.965625 Z"
         id="path42" />
    </clipPath>
    <clipPath
       clipPathUnits="userSpaceOnUse"
       id="clipPath44">
      <path
         d="M 37.965625,28.871875 H 711.1 V 434.15624 H 37.965625 Z"
         id="path44" />
    </clipPath>
    <clipPath
       clipPathUnits="userSpaceOnUse"
       id="clipPath46">
      <path
         d="M 37.965625,28.871875 H 711.1 V 434.15624 H 37.965625 Z"
         id="path46" />
    </clipPath>
    <clipPath
       clipPathUnits="userSpaceOnUse"
       id="clipPath48">
      <path
         d="M 37.965625,28.871875 H 711.1 V 434.15624 H 37.965625 Z"
         id="path48" />
    </clipPath>
    <clipPath
       clipPathUnits="userSpaceOnUse"
       id="clipPath50">
      <path
         d="M 37.965625,28.871875 H 711.1 V 434.15624 H 37.965625 Z"
         id="path50" />
    </clipPath>
    <clipPath
       clipPathUnits="userSpaceOnUse"
       id="clipPath52">
      <path
         d="M 37.965625,28.871875 H 711.1 V 434.15624 H 37.965625 Z"
         id="path52" />
    </clipPath>
    <clipPath
       clipPathUnits="userSpaceOnUse"
       id="clipPath53">
      <path
         d="m -3.5,-3.5 h 7 v 7 h -7 z"
         transform="translate(-3.1250001e-6)"
         id="path53" />
    </clipPath>
    <clipPath
       clipPathUnits="userSpaceOnUse"
       id="clipPath55">
      <path
         d="M 37.965625,28.871875 H 711.1 V 434.15624 H 37.965625 Z"
         transform="matrix(1.3333333,0,0,-1.3333333,0,591.14166)"
         id="path55" />
    </clipPath>
    <clipPath
       clipPathUnits="userSpaceOnUse"
       id="clipPath56">
      <path
         d="m -3.5,-3.5 h 7 v 7 h -7 z"
         transform="translate(-3.1250001e-6)"
         id="path56" />
    </clipPath>
    <clipPath
       clipPathUnits="userSpaceOnUse"
       id="clipPath58">
      <path
         d="M 37.965625,28.871875 H 711.1 V 434.15624 H 37.965625 Z"
         transform="matrix(1.3333333,0,0,-1.3333333,0,591.14166)"
         id="path58" />
    </clipPath>
    <clipPath
       clipPathUnits="userSpaceOnUse"
       id="clipPath59">
      <path
         d="m -3.5,-3.5 h 7 v 7 h -7 z"
         transform="translate(-3.1250001e-6)"
         id="path59" />
    </clipPath>
    <clipPath
       clipPathUnits="userSpaceOnUse"
       id="clipPath61">
      <path
         d="M 37.965625,28.871875 H 711.1 V 434.15624 H 37.965625 Z"
         transform="matrix(1.3333333,0,0,-1.3333333,0,591.14166)"
         id="path61" />
    </clipPath>
    <clipPath
       clipPathUnits="userSpaceOnUse"
       id="clipPath62">
      <path
         d="m -3.5,-3.5 h 7 v 7 h -7 z"
         transform="translate(-3.1250001e-6)"
         id="path62" />
    </clipPath>
    <clipPath
       clipPathUnits="userSpaceOnUse"
       id="clipPath64">
      <path
         d="M 37.965625,28.871875 H 711.1 V 434.15624 H 37.965625 Z"
         transform="matrix(1.3333333,0,0,-1.3333333,0,591.14166)"
         id="path64" />
    </clipPath>
    <clipPath
       clipPathUnits="userSpaceOnUse"
       id="clipPath65">
      <path
         d="m -3.5,-3.5 h 7 v 7 h -7 z"
         transform="translate(-3.5284001e-6)"
         id="path65" />
    </clipPath>
    <clipPath
       clipPathUnits="userSpaceOnUse"
       id="clipPath67">
      <path
         d="M 37.965625,28.871875 H 711.1 V 434.15624 H 37.965625 Z"
         transform="matrix(1.3333333,0,0,-1.3333333,0,591.14166)"
         id="path67" />
    </clipPath>
    <clipPath
       clipPathUnits="userSpaceOnUse"
       id="clipPath68">
      <path
         d="m -3.5,-3.5 h 7 v 7 h -7 z"
         transform="translate(-3.1250001e-6)"
         id="path68" />
    </clipPath>
    <clipPath
       clipPathUnits="userSpaceOnUse"
       id="clipPath70">
      <path
         d="M 37.965625,28.871875 H 711.1 V 434.15624 H 37.965625 Z"
         transform="matrix(1.3333333,0,0,-1.3333333,0,591.14166)"
         id="path70" />
    </clipPath>
    <clipPath
       clipPathUnits="userSpaceOnUse"
       id="clipPath71">
      <path
         d="m -3.5,-3.5 h 7 v 7 h -7 z"
         transform="translate(-3.1250001e-6)"
         id="path71" />
    </clipPath>
    <clipPath
       clipPathUnits="userSpaceOnUse"
       id="clipPath73">
      <path
         d="M 37.965625,28.871875 H 711.1 V 434.15624 H 37.965625 Z"
         transform="matrix(1.3333333,0,0,-1.3333333,0,591.14166)"
         id="path73" />
    </clipPath>
    <clipPath
       clipPathUnits="userSpaceOnUse"
       id="clipPath74">
      <path
         d="m -3.5,-3.5 h 7 v 7 h -7 z"
         transform="translate(-3.1250001e-6)"
         id="path74" />
    </clipPath>
    <clipPath
       clipPathUnits="userSpaceOnUse"
       id="clipPath76">
      <path
         d="M 37.965625,28.871875 H 711.1 V 434.15624 H 37.965625 Z"
         transform="matrix(1.3333333,0,0,-1.3333333,0,591.14166)"
         id="path76" />
    </clipPath>
    <clipPath
       clipPathUnits="userSpaceOnUse"
       id="clipPath77">
      <path
         d="m -3.5,-3.5 h 7 v 7 h -7 z"
         transform="translate(-3.1250001e-6)"
         id="path77" />
    </clipPath>
    <clipPath
       clipPathUnits="userSpaceOnUse"
       id="clipPath79">
      <path
         d="M 37.965625,28.871875 H 711.1 V 434.15624 H 37.965625 Z"
         transform="matrix(1.3333333,0,0,-1.3333333,0,591.14166)"
         id="path79" />
    </clipPath>
    <clipPath
       clipPathUnits="userSpaceOnUse"
       id="clipPath80">
      <path
         d="m -3.5,-3.5 h 7 v 7 h -7 z"
         transform="translate(-3.1250001e-6)"
         id="path80" />
    </clipPath>
    <clipPath
       clipPathUnits="userSpaceOnUse"
       id="clipPath82">
      <path
         d="M 37.965625,28.871875 H 711.1 V 434.15624 H 37.965625 Z"
         transform="matrix(1.3333333,0,0,-1.3333333,0,591.14166)"
         id="path82" />
    </clipPath>
    <clipPath
       clipPathUnits="userSpaceOnUse"
       id="clipPath83">
      <path
         d="m -3.5,-3.5 h 7 v 7 h -7 z"
         id="path83" />
    </clipPath>
    <clipPath
       clipPathUnits="userSpaceOnUse"
       id="clipPath85">
      <path
         d="M 37.965625,28.871875 H 711.1 V 434.15624 H 37.965625 Z"
         transform="matrix(1.3333333,0,0,-1.3333333,0,591.14166)"
         id="path85" />
    </clipPath>
    <clipPath
       clipPathUnits="userSpaceOnUse"
       id="clipPath86">
      <path
         d="m -3.5,-3.5 h 7 v 7 h -7 z"
         id="path86" />
    </clipPath>
    <clipPath
       clipPathUnits="userSpaceOnUse"
       id="clipPath88">
      <path
         d="M 37.965625,28.871875 H 711.1 V 434.15624 H 37.965625 Z"
         transform="matrix(1.3333333,0,0,-1.3333333,0,591.14166)"
         id="path88" />
    </clipPath>
    <clipPath
       clipPathUnits="userSpaceOnUse"
       id="clipPath89">
      <path
         d="m -3.5,-3.5 h 7 v 7 h -7 z"
         id="path89" />
    </clipPath>
    <clipPath
       clipPathUnits="userSpaceOnUse"
       id="clipPath91">
      <path
         d="M 37.965625,28.871875 H 711.1 V 434.15624 H 37.965625 Z"
         transform="matrix(1.3333333,0,0,-1.3333333,0,591.14166)"
         id="path91" />
    </clipPath>
    <clipPath
       clipPathUnits="userSpaceOnUse"
       id="clipPath92">
      <path
         d="m -3.5,-3.5 h 7 v 7 h -7 z"
         id="path92" />
    </clipPath>
    <clipPath
       clipPathUnits="userSpaceOnUse"
       id="clipPath94">
      <path
         d="M 37.965625,28.871875 H 711.1 V 434.15624 H 37.965625 Z"
         transform="matrix(1.3333333,0,0,-1.3333333,0,591.14166)"
         id="path94" />
    </clipPath>
    <clipPath
       clipPathUnits="userSpaceOnUse"
       id="clipPath95">
      <path
         d="m -3.5,-3.5 h 7 v 7 h -7 z"
         id="path95" />
    </clipPath>
    <clipPath
       clipPathUnits="userSpaceOnUse"
       id="clipPath97">
      <path
         d="M 37.965625,28.871875 H 711.1 V 434.15624 H 37.965625 Z"
         transform="matrix(1.3333333,0,0,-1.3333333,0,591.14166)"
         id="path97" />
    </clipPath>
    <clipPath
       clipPathUnits="userSpaceOnUse"
       id="clipPath98">
      <path
         d="m -3.5,-3.5 h 7 v 7 h -7 z"
         id="path98" />
    </clipPath>
    <clipPath
       clipPathUnits="userSpaceOnUse"
       id="clipPath100">
      <path
         d="M 37.965625,28.871875 H 711.1 V 434.15624 H 37.965625 Z"
         transform="matrix(1.3333333,0,0,-1.3333333,0,591.14166)"
         id="path100" />
    </clipPath>
    <clipPath
       clipPathUnits="userSpaceOnUse"
       id="clipPath101">
      <path
         d="m -3.5,-3.5 h 7 v 7 h -7 z"
         id="path101" />
    </clipPath>
    <clipPath
       clipPathUnits="userSpaceOnUse"
       id="clipPath103">
      <path
         d="M 37.965625,28.871875 H 711.1 V 434.15624 H 37.965625 Z"
         transform="matrix(1.3333333,0,0,-1.3333333,0,591.14166)"
         id="path103" />
    </clipPath>
    <clipPath
       clipPathUnits="userSpaceOnUse"
       id="clipPath104">
      <path
         d="m -3.5,-3.5 h 7 v 7 h -7 z"
         id="path104" />
    </clipPath>
    <clipPath
       clipPathUnits="userSpaceOnUse"
       id="clipPath106">
      <path
         d="M 37.965625,28.871875 H 711.1 V 434.15624 H 37.965625 Z"
         transform="matrix(1.3333333,0,0,-1.3333333,0,591.14166)"
         id="path106" />
    </clipPath>
    <clipPath
       clipPathUnits="userSpaceOnUse"
       id="clipPath107">
      <path
         d="m -3.5,-3.5 h 7 v 7 h -7 z"
         id="path107" />
    </clipPath>
    <clipPath
       clipPathUnits="userSpaceOnUse"
       id="clipPath109">
      <path
         d="M 37.965625,28.871875 H 711.1 V 434.15624 H 37.965625 Z"
         transform="matrix(1.3333333,0,0,-1.3333333,0,591.14166)"
         id="path109" />
    </clipPath>
    <clipPath
       clipPathUnits="userSpaceOnUse"
       id="clipPath110">
      <path
         d="m -3.5,-3.5 h 7 v 7 h -7 z"
         id="path110" />
    </clipPath>
    <clipPath
       clipPathUnits="userSpaceOnUse"
       id="clipPath112">
      <path
         d="M 37.965625,28.871875 H 711.1 V 434.15624 H 37.965625 Z"
         transform="matrix(1.3333333,0,0,-1.3333333,0,591.14166)"
         id="path112" />
    </clipPath>
    <clipPath
       clipPathUnits="userSpaceOnUse"
       id="clipPath113">
      <path
         d="m -3.5,-3.5 h 7 v 7 h -7 z"
         transform="translate(-3.125e-6)"
         id="path113" />
    </clipPath>
    <clipPath
       clipPathUnits="userSpaceOnUse"
       id="clipPath115">
      <path
         d="M 37.965625,28.871875 H 711.1 V 434.15624 H 37.965625 Z"
         transform="matrix(1.3333333,0,0,-1.3333333,0,591.14166)"
         id="path115" />
    </clipPath>
    <clipPath
       clipPathUnits="userSpaceOnUse"
       id="clipPath116">
      <path
         d="m -3.5,-3.5 h 7 v 7 h -7 z"
         transform="translate(-3.125e-6)"
         id="path116" />
    </clipPath>
    <clipPath
       clipPathUnits="userSpaceOnUse"
       id="clipPath118">
      <path
         d="M 37.965625,28.871875 H 711.1 V 434.15624 H 37.965625 Z"
         transform="matrix(1.3333333,0,0,-1.3333333,0,591.14166)"
         id="path118" />
    </clipPath>
    <clipPath
       clipPathUnits="userSpaceOnUse"
       id="clipPath119">
      <path
         d="m -3.5,-3.5 h 7 v 7 h -7 z"
         transform="translate(-3.125e-6)"
         id="path119" />
    </clipPath>
    <clipPath
       clipPathUnits="userSpaceOnUse"
       id="clipPath121">
      <path
         d="M 37.965625,28.871875 H 711.1 V 434.15624 H 37.965625 Z"
         transform="matrix(1.3333333,0,0,-1.3333333,0,591.14166)"
         id="path121" />
    </clipPath>
    <clipPath
       clipPathUnits="userSpaceOnUse"
       id="clipPath122">
      <path
         d="m -3.5,-3.5 h 7 v 7 h -7 z"
         transform="translate(-3.125e-6)"
         id="path122" />
    </clipPath>
    <clipPath
       clipPathUnits="userSpaceOnUse"
       id="clipPath124">
      <path
         d="M 37.965625,28.871875 H 711.1 V 434.15624 H 37.965625 Z"
         transform="matrix(1.3333333,0,0,-1.3333333,0,591.14166)"
         id="path124" />
    </clipPath>
    <clipPath
       clipPathUnits="userSpaceOnUse"
       id="clipPath125">
      <path
         d="m -3.5,-3.5 h 7 v 7 h -7 z"
         transform="translate(-1.2427e-6)"
         id="path125" />
    </clipPath>
    <clipPath
       clipPathUnits="userSpaceOnUse"
       id="clipPath127">
      <path
         d="M 37.965625,28.871875 H 711.1 V 434.15624 H 37.965625 Z"
         transform="matrix(1.3333333,0,0,-1.3333333,0,591.14166)"
         id="path127" />
    </clipPath>
    <clipPath
       clipPathUnits="userSpaceOnUse"
       id="clipPath128">
      <path
         d="m -3.5,-3.5 h 7 v 7 h -7 z"
         transform="translate(-3.125e-6)"
         id="path128" />
    </clipPath>
    <clipPath
       clipPathUnits="userSpaceOnUse"
       id="clipPath130">
      <path
         d="M 37.965625,28.871875 H 711.1 V 434.15624 H 37.965625 Z"
         transform="matrix(1.3333333,0,0,-1.3333333,0,591.14166)"
         id="path130" />
    </clipPath>
    <clipPath
       clipPathUnits="userSpaceOnUse"
       id="clipPath131">
      <path
         d="m -3.5,-3.5 h 7 v 7 h -7 z"
         transform="translate(-3.5284e-6)"
         id="path131" />
    </clipPath>
    <clipPath
       clipPathUnits="userSpaceOnUse"
       id="clipPath133">
      <path
         d="M 37.965625,28.871875 H 711.1 V 434.15624 H 37.965625 Z"
         transform="matrix(1.3333333,0,0,-1.3333333,0,591.14166)"
         id="path133" />
    </clipPath>
    <clipPath
       clipPathUnits="userSpaceOnUse"
       id="clipPath134">
      <path
         d="m -3.5,-3.5 h 7 v 7 h -7 z"
         transform="translate(-3.125e-6)"
         id="path134" />
    </clipPath>
    <clipPath
       clipPathUnits="userSpaceOnUse"
       id="clipPath136">
      <path
         d="M 37.965625,28.871875 H 711.1 V 434.15624 H 37.965625 Z"
         transform="matrix(1.3333333,0,0,-1.3333333,0,591.14166)"
         id="path136" />
    </clipPath>
    <clipPath
       clipPathUnits="userSpaceOnUse"
       id="clipPath137">
      <path
         d="m -3.5,-3.5 h 7 v 7 h -7 z"
         transform="translate(-1.2427e-6)"
         id="path137" />
    </clipPath>
    <clipPath
       clipPathUnits="userSpaceOnUse"
       id="clipPath139">
      <path
         d="M 37.965625,28.871875 H 711.1 V 434.15624 H 37.965625 Z"
         transform="matrix(1.3333333,0,0,-1.3333333,0,591.14166)"
         id="path139" />
    </clipPath>
    <clipPath
       clipPathUnits="userSpaceOnUse"
       id="clipPath140">
      <path
         d="m -3.5,-3.5 h 7 v 7 h -7 z"
         transform="translate(-3.125e-6)"
         id="path140" />
    </clipPath>
    <clipPath
       clipPathUnits="userSpaceOnUse"
       id="clipPath142">
      <path
         d="M 37.965625,28.871875 H 711.1 V 434.15624 H 37.965625 Z"
         transform="matrix(1.3333333,0,0,-1.3333333,0,591.14166)"
         id="path142" />
    </clipPath>
    <clipPath
       clipPathUnits="userSpaceOnUse"
       id="clipPath143">
      <path
         d="m -3.5,-3.5 h 7 v 7 h -7 z"
         id="path143" />
    </clipPath>
    <clipPath
       clipPathUnits="userSpaceOnUse"
       id="clipPath145">
      <path
         d="M 37.965625,28.871875 H 711.1 V 434.15624 H 37.965625 Z"
         transform="matrix(1.3333333,0,0,-1.3333333,0,591.14166)"
         id="path145" />
    </clipPath>
    <clipPath
       clipPathUnits="userSpaceOnUse"
       id="clipPath146">
      <path
         d="m -3.5,-3.5 h 7 v 7 h -7 z"
         id="path146" />
    </clipPath>
    <clipPath
       clipPathUnits="userSpaceOnUse"
       id="clipPath148">
      <path
         d="M 37.965625,28.871875 H 711.1 V 434.15624 H 37.965625 Z"
         transform="matrix(1.3333333,0,0,-1.3333333,0,591.14166)"
         id="path148" />
    </clipPath>
    <clipPath
       clipPathUnits="userSpaceOnUse"
       id="clipPath149">
      <path
         d="m -3.5,-3.5 h 7 v 7 h -7 z"
         id="path149" />
    </clipPath>
    <clipPath
       clipPathUnits="userSpaceOnUse"
       id="clipPath151">
      <path
         d="M 37.965625,28.871875 H 711.1 V 434.15624 H 37.965625 Z"
         transform="matrix(1.3333333,0,0,-1.3333333,0,591.14166)"
         id="path151" />
    </clipPath>
    <clipPath
       clipPathUnits="userSpaceOnUse"
       id="clipPath152">
      <path
         d="m -3.5,-3.5 h 7 v 7 h -7 z"
         id="path152" />
    </clipPath>
    <clipPath
       clipPathUnits="userSpaceOnUse"
       id="clipPath154">
      <path
         d="M 37.965625,28.871875 H 711.1 V 434.15624 H 37.965625 Z"
         transform="matrix(1.3333333,0,0,-1.3333333,0,591.14166)"
         id="path154" />
    </clipPath>
    <clipPath
       clipPathUnits="userSpaceOnUse"
       id="clipPath155">
      <path
         d="m -3.5,-3.5 h 7 v 7 h -7 z"
         id="path155" />
    </clipPath>
    <clipPath
       clipPathUnits="userSpaceOnUse"
       id="clipPath157">
      <path
         d="M 37.965625,28.871875 H 711.1 V 434.15624 H 37.965625 Z"
         transform="matrix(1.3333333,0,0,-1.3333333,0,591.14166)"
         id="path157" />
    </clipPath>
    <clipPath
       clipPathUnits="userSpaceOnUse"
       id="clipPath158">
      <path
         d="m -3.5,-3.5 h 7 v 7 h -7 z"
         id="path158" />
    </clipPath>
    <clipPath
       clipPathUnits="userSpaceOnUse"
       id="clipPath160">
      <path
         d="M 37.965625,28.871875 H 711.1 V 434.15624 H 37.965625 Z"
         transform="matrix(1.3333333,0,0,-1.3333333,0,591.14166)"
         id="path160" />
    </clipPath>
    <clipPath
       clipPathUnits="userSpaceOnUse"
       id="clipPath161">
      <path
         d="m -3.5,-3.5 h 7 v 7 h -7 z"
         id="path161" />
    </clipPath>
    <clipPath
       clipPathUnits="userSpaceOnUse"
       id="clipPath163">
      <path
         d="M 37.965625,28.871875 H 711.1 V 434.15624 H 37.965625 Z"
         transform="matrix(1.3333333,0,0,-1.3333333,0,591.14166)"
         id="path163" />
    </clipPath>
    <clipPath
       clipPathUnits="userSpaceOnUse"
       id="clipPath164">
      <path
         d="m -3.5,-3.5 h 7 v 7 h -7 z"
         id="path164" />
    </clipPath>
    <clipPath
       clipPathUnits="userSpaceOnUse"
       id="clipPath166">
      <path
         d="M 37.965625,28.871875 H 711.1 V 434.15624 H 37.965625 Z"
         transform="matrix(1.3333333,0,0,-1.3333333,0,591.14166)"
         id="path166" />
    </clipPath>
    <clipPath
       clipPathUnits="userSpaceOnUse"
       id="clipPath167">
      <path
         d="m -3.5,-3.5 h 7 v 7 h -7 z"
         id="path167" />
    </clipPath>
    <clipPath
       clipPathUnits="userSpaceOnUse"
       id="clipPath169">
      <path
         d="M 37.965625,28.871875 H 711.1 V 434.15624 H 37.965625 Z"
         transform="matrix(1.3333333,0,0,-1.3333333,0,591.14166)"
         id="path169" />
    </clipPath>
    <clipPath
       clipPathUnits="userSpaceOnUse"
       id="clipPath170">
      <path
         d="m -3.5,-3.5 h 7 v 7 h -7 z"
         id="path170" />
    </clipPath>
    <clipPath
       clipPathUnits="userSpaceOnUse"
       id="clipPath172">
      <path
         d="M 37.965625,28.871875 H 711.1 V 434.15624 H 37.965625 Z"
         transform="matrix(1.3333333,0,0,-1.3333333,0,591.14166)"
         id="path172" />
    </clipPath>
  </defs>
  <g
     id="g1">
    <path
       id="path1"
       d="M 0,0 H 721.8 V 443.35624 H 0 Z"
       style="fill:#ffffff;fill-opacity:1;fill-rule:nonzero;stroke:none"
       transform="matrix(1.3333333,0,0,-1.3333333,0,591.14166)" />
    <path
       id="path2"
       d="M 37.965625,28.871875 H 711.1 V 434.15624 H 37.965625 Z"
       style="fill:#ffffff;fill-opacity:1;fill-rule:nonzero;stroke:none"
       transform="matrix(1.3333333,0,0,-1.3333333,0,591.14166)" />
    <path
       id="path3"
       d="m 122.10742,23.871875 v -3.5"
       style="fill:#000000;fill-opacity:1;fill-rule:nonzero;stroke:#000000;stroke-width:0.8;stroke-linecap:butt;stroke-linejoin:round;stroke-miterlimit:10;stroke-dasharray:none;stroke-opacity:1"
       transform="matrix(1.3333333,0,0,-1.3333333,0,591.14166)" />
    <text
       id="text3"
       xml:space="preserve"
       transform="matrix(1.3333333,0,0,1.3333333,149.23698,578.77082)"><tspan
         id="tspan3"
         style="font-variant:normal;font-weight:normal;font-size:10px;font-family:'DejaVu Sans';writing-mode:lr-tb;fill:#000000;fill-opacity:1;fill-rule:nonzero;stroke:none"
         x="0"
         y="0">DES</tspan></text>
    <path
       id="path4"
       d="m 290.39102,23.871875 v -3.5"
       style="fill:#000000;fill-opacity:1;fill-rule:nonzero;stroke:#000000;stroke-width:0.8;stroke-linecap:butt;stroke-linejoin:round;stroke-miterlimit:10;stroke-dasharray:none;stroke-opacity:1"
       transform="matrix(1.3333333,0,0,-1.3333333,0,591.14166)" />
    <text
       id="text4"
       xml:space="preserve"
       transform="matrix(1.3333333,0,0,1.3333333,361.37552,578.77082)"><tspan
         id="tspan4"
         style="font-variant:normal;font-weight:normal;font-size:10px;font-family:'DejaVu Sans';writing-mode:lr-tb;fill:#000000;fill-opacity:1;fill-rule:nonzero;stroke:none"
         x="0"
         y="0">CMA-ES</tspan></text>
    <path
       id="path5"
       d="m 458.67461,23.871875 v -3.5"
       style="fill:#000000;fill-opacity:1;fill-rule:nonzero;stroke:#000000;stroke-width:0.8;stroke-linecap:butt;stroke-linejoin:round;stroke-miterlimit:10;stroke-dasharray:none;stroke-opacity:1"
       transform="matrix(1.3333333,0,0,-1.3333333,0,591.14166)" />
    <text
       id="text5"
       xml:space="preserve"
       transform="matrix(1.3333333,0,0,1.3333333,600.23281,578.77082)"><tspan
         id="tspan5"
         style="font-variant:normal;font-weight:normal;font-size:10px;font-family:'DejaVu Sans';writing-mode:lr-tb;fill:#000000;fill-opacity:1;fill-rule:nonzero;stroke:none"
         x="0"
         y="0">jSO</tspan></text>
    <path
       id="path6"
       d="m 626.9582,23.871875 v -3.5"
       style="fill:#000000;fill-opacity:1;fill-rule:nonzero;stroke:#000000;stroke-width:0.8;stroke-linecap:butt;stroke-linejoin:round;stroke-miterlimit:10;stroke-dasharray:none;stroke-opacity:1"
       transform="matrix(1.3333333,0,0,-1.3333333,0,591.14166)" />
    <text
       id="text6"
       xml:space="preserve"
       transform="matrix(1.3333333,0,0,1.3333333,771.38177,578.77082)"><tspan
         id="tspan6"
         style="font-variant:normal;font-weight:normal;font-size:10px;font-family:'DejaVu Sans';writing-mode:lr-tb;fill:#000000;fill-opacity:1;fill-rule:nonzero;stroke:none"
         x="0"
         y="0">Logistic Regression</tspan></text>
    <path
       id="path7"
       d="M 37.965625,79.634972 H 711.1"
       style="fill:none;stroke:#e6e6e6;stroke-width:1;stroke-linecap:square;stroke-linejoin:round;stroke-miterlimit:10;stroke-dasharray:none;stroke-opacity:1"
       transform="matrix(1.3333333,0,0,-1.3333333,0,591.14166)"
       clip-path="url(#clipPath8)" />
    <text
       id="text8"
       xml:space="preserve"
       transform="matrix(1.3333333,0,0,1.3333333,9.6,490.02419)"><tspan
         id="tspan8"
         style="font-variant:normal;font-weight:normal;font-size:10px;font-family:'DejaVu Sans';writing-mode:lr-tb;fill:#000000;fill-opacity:1;fill-rule:nonzero;stroke:none"
         x="0"
         y="0">0.35</tspan></text>
    <path
       id="path9"
       d="M 37.965625,147.80178 H 711.1"
       style="fill:none;stroke:#e6e6e6;stroke-width:1;stroke-linecap:square;stroke-linejoin:round;stroke-miterlimit:10;stroke-dasharray:none;stroke-opacity:1"
       transform="matrix(1.3333333,0,0,-1.3333333,0,591.14166)"
       clip-path="url(#clipPath10)" />
    <text
       id="text10"
       xml:space="preserve"
       transform="matrix(1.3333333,0,0,1.3333333,9.6,399.13512)"><tspan
         id="tspan10"
         style="font-variant:normal;font-weight:normal;font-size:10px;font-family:'DejaVu Sans';writing-mode:lr-tb;fill:#000000;fill-opacity:1;fill-rule:nonzero;stroke:none"
         x="0"
         y="0">0.36</tspan></text>
    <path
       id="path11"
       d="M 37.965625,215.96858 H 711.1"
       style="fill:none;stroke:#e6e6e6;stroke-width:1;stroke-linecap:square;stroke-linejoin:round;stroke-miterlimit:10;stroke-dasharray:none;stroke-opacity:1"
       transform="matrix(1.3333333,0,0,-1.3333333,0,591.14166)"
       clip-path="url(#clipPath12)" />
    <text
       id="text12"
       xml:space="preserve"
       transform="matrix(1.3333333,0,0,1.3333333,9.6,308.24605)"><tspan
         id="tspan12"
         style="font-variant:normal;font-weight:normal;font-size:10px;font-family:'DejaVu Sans';writing-mode:lr-tb;fill:#000000;fill-opacity:1;fill-rule:nonzero;stroke:none"
         x="0"
         y="0">0.37</tspan></text>
    <path
       id="path13"
       d="M 37.965625,284.13539 H 711.1"
       style="fill:none;stroke:#e6e6e6;stroke-width:1;stroke-linecap:square;stroke-linejoin:round;stroke-miterlimit:10;stroke-dasharray:none;stroke-opacity:1"
       transform="matrix(1.3333333,0,0,-1.3333333,0,591.14166)"
       clip-path="url(#clipPath14)" />
    <text
       id="text14"
       xml:space="preserve"
       transform="matrix(1.3333333,0,0,1.3333333,9.6,217.35697)"><tspan
         id="tspan14"
         style="font-variant:normal;font-weight:normal;font-size:10px;font-family:'DejaVu Sans';writing-mode:lr-tb;fill:#000000;fill-opacity:1;fill-rule:nonzero;stroke:none"
         x="0"
         y="0">0.38</tspan></text>
    <path
       id="path15"
       d="M 37.965625,352.30219 H 711.1"
       style="fill:none;stroke:#e6e6e6;stroke-width:1;stroke-linecap:square;stroke-linejoin:round;stroke-miterlimit:10;stroke-dasharray:none;stroke-opacity:1"
       transform="matrix(1.3333333,0,0,-1.3333333,0,591.14166)"
       clip-path="url(#clipPath16)" />
    <text
       id="text16"
       xml:space="preserve"
       transform="matrix(1.3333333,0,0,1.3333333,9.6,126.4679)"><tspan
         id="tspan16"
         style="font-variant:normal;font-weight:normal;font-size:10px;font-family:'DejaVu Sans';writing-mode:lr-tb;fill:#000000;fill-opacity:1;fill-rule:nonzero;stroke:none"
         x="0"
         y="0">0.39</tspan></text>
    <path
       id="path17"
       d="M 37.965625,420.469 H 711.1"
       style="fill:none;stroke:#e6e6e6;stroke-width:1;stroke-linecap:square;stroke-linejoin:round;stroke-miterlimit:10;stroke-dasharray:none;stroke-opacity:1"
       transform="matrix(1.3333333,0,0,-1.3333333,0,591.14166)"
       clip-path="url(#clipPath18)" />
    <text
       id="text18"
       xml:space="preserve"
       transform="matrix(1.3333333,0,0,1.3333333,9.6,35.578828)"><tspan
         id="tspan18"
         style="font-variant:normal;font-weight:normal;font-size:10px;font-family:'DejaVu Sans';writing-mode:lr-tb;fill:#000000;fill-opacity:1;fill-rule:nonzero;stroke:none"
         x="0"
         y="0">0.40</tspan></text>
    <path
       id="path19"
       d="M 54.793984,158.16816 H 189.42086 V 285.39192 H 54.793984 Z"
       style="fill:none;stroke:#3d3d3d;stroke-width:1.5;stroke-linecap:butt;stroke-linejoin:miter;stroke-miterlimit:10;stroke-dasharray:none;stroke-opacity:1"
       transform="matrix(1.3333333,0,0,-1.3333333,0,591.14166)"
       clip-path="url(#clipPath20)" />
    <path
       id="path21"
       d="m 223.07758,133.82287 h 134.62687 v 192.4063 H 223.07758 Z"
       style="fill:none;stroke:#3d3d3d;stroke-width:1.5;stroke-linecap:butt;stroke-linejoin:miter;stroke-miterlimit:10;stroke-dasharray:none;stroke-opacity:1"
       transform="matrix(1.3333333,0,0,-1.3333333,0,591.14166)"
       clip-path="url(#clipPath22)" />
    <path
       id="path23"
       d="m 391.36117,165.23614 h 134.62688 v 83.24518 H 391.36117 Z"
       style="fill:none;stroke:#3d3d3d;stroke-width:1.5;stroke-linecap:butt;stroke-linejoin:miter;stroke-miterlimit:10;stroke-dasharray:none;stroke-opacity:1"
       transform="matrix(1.3333333,0,0,-1.3333333,0,591.14166)"
       clip-path="url(#clipPath24)" />
    <path
       id="path25"
       d="m 559.64477,363.9251 h 134.62687 v 0 H 559.64477 Z"
       style="fill:none;stroke:#3d3d3d;stroke-width:1.5;stroke-linecap:butt;stroke-linejoin:miter;stroke-miterlimit:10;stroke-dasharray:none;stroke-opacity:1"
       transform="matrix(1.3333333,0,0,-1.3333333,0,591.14166)"
       clip-path="url(#clipPath26)" />
    <path
       id="path27"
       d="M 122.10742,158.16816 V 93.770946"
       style="fill:none;stroke:#3d3d3d;stroke-width:1.5;stroke-linecap:square;stroke-linejoin:round;stroke-miterlimit:10;stroke-dasharray:none;stroke-opacity:1"
       transform="matrix(1.3333333,0,0,-1.3333333,0,591.14166)"
       clip-path="url(#clipPath28)" />
    <path
       id="path29"
       d="m 122.10742,285.39192 v 87.95717"
       style="fill:none;stroke:#3d3d3d;stroke-width:1.5;stroke-linecap:square;stroke-linejoin:round;stroke-miterlimit:10;stroke-dasharray:none;stroke-opacity:1"
       transform="matrix(1.3333333,0,0,-1.3333333,0,591.14166)"
       clip-path="url(#clipPath30)" />
    <path
       id="path31"
       d="M 290.39102,133.82287 V 52.933689"
       style="fill:none;stroke:#3d3d3d;stroke-width:1.5;stroke-linecap:square;stroke-linejoin:round;stroke-miterlimit:10;stroke-dasharray:none;stroke-opacity:1"
       transform="matrix(1.3333333,0,0,-1.3333333,0,591.14166)"
       clip-path="url(#clipPath32)" />
    <path
       id="path33"
       d="m 290.39102,326.22917 v 69.10921"
       style="fill:none;stroke:#3d3d3d;stroke-width:1.5;stroke-linecap:square;stroke-linejoin:round;stroke-miterlimit:10;stroke-dasharray:none;stroke-opacity:1"
       transform="matrix(1.3333333,0,0,-1.3333333,0,591.14166)"
       clip-path="url(#clipPath34)" />
    <path
       id="path35"
       d="M 458.67461,165.23614 V 49.792362"
       style="fill:none;stroke:#3d3d3d;stroke-width:1.5;stroke-linecap:square;stroke-linejoin:round;stroke-miterlimit:10;stroke-dasharray:none;stroke-opacity:1"
       transform="matrix(1.3333333,0,0,-1.3333333,0,591.14166)"
       clip-path="url(#clipPath36)" />
    <path
       id="path37"
       d="m 458.67461,248.48132 v 55.75856"
       style="fill:none;stroke:#3d3d3d;stroke-width:1.5;stroke-linecap:square;stroke-linejoin:round;stroke-miterlimit:10;stroke-dasharray:none;stroke-opacity:1"
       transform="matrix(1.3333333,0,0,-1.3333333,0,591.14166)"
       clip-path="url(#clipPath38)" />
    <path
       id="path39"
       d="m 626.9582,363.9251 v 0"
       style="fill:none;stroke:#3d3d3d;stroke-width:1.5;stroke-linecap:square;stroke-linejoin:round;stroke-miterlimit:10;stroke-dasharray:none;stroke-opacity:1"
       transform="matrix(1.3333333,0,0,-1.3333333,0,591.14166)"
       clip-path="url(#clipPath40)" />
    <path
       id="path41"
       d="m 626.9582,363.9251 v 0"
       style="fill:none;stroke:#3d3d3d;stroke-width:1.5;stroke-linecap:square;stroke-linejoin:round;stroke-miterlimit:10;stroke-dasharray:none;stroke-opacity:1"
       transform="matrix(1.3333333,0,0,-1.3333333,0,591.14166)"
       clip-path="url(#clipPath42)" />
    <path
       id="path43"
       d="M 37.965625,363.9251 H 711.1"
       style="fill:none;stroke:#9467bd;stroke-width:1.5;stroke-linecap:butt;stroke-linejoin:round;stroke-miterlimit:10;stroke-dasharray:5.55, 2.4;stroke-dashoffset:0;stroke-opacity:1"
       transform="matrix(1.3333333,0,0,-1.3333333,0,591.14166)"
       clip-path="url(#clipPath44)" />
    <path
       id="path45"
       d="M 54.793984,205.28807 H 189.42086"
       style="fill:none;stroke:#3d3d3d;stroke-width:1.5;stroke-linecap:square;stroke-linejoin:round;stroke-miterlimit:10;stroke-dasharray:none;stroke-opacity:1"
       transform="matrix(1.3333333,0,0,-1.3333333,0,591.14166)"
       clip-path="url(#clipPath46)" />
    <path
       id="path47"
       d="M 223.07758,213.14139 H 357.70445"
       style="fill:none;stroke:#3d3d3d;stroke-width:1.5;stroke-linecap:square;stroke-linejoin:round;stroke-miterlimit:10;stroke-dasharray:none;stroke-opacity:1"
       transform="matrix(1.3333333,0,0,-1.3333333,0,591.14166)"
       clip-path="url(#clipPath48)" />
    <path
       id="path49"
       d="M 391.36117,205.28807 H 525.98805"
       style="fill:none;stroke:#3d3d3d;stroke-width:1.5;stroke-linecap:square;stroke-linejoin:round;stroke-miterlimit:10;stroke-dasharray:none;stroke-opacity:1"
       transform="matrix(1.3333333,0,0,-1.3333333,0,591.14166)"
       clip-path="url(#clipPath50)" />
    <path
       id="path51"
       d="M 559.64477,363.9251 H 694.27164"
       style="fill:none;stroke:#3d3d3d;stroke-width:1.5;stroke-linecap:square;stroke-linejoin:round;stroke-miterlimit:10;stroke-dasharray:none;stroke-opacity:1"
       transform="matrix(1.3333333,0,0,-1.3333333,0,591.14166)"
       clip-path="url(#clipPath52)" />
    <g
       id="g54"
       clip-path="url(#clipPath55)">
      <path
         d="m 0,-3.5 c 0.928211,0 1.81853,0.368782 2.474874,1.025126 C 3.131218,-1.81853 3.5,-0.928211 3.5,0 3.5,0.928211 3.131218,1.81853 2.474874,2.474874 1.81853,3.131218 0.928211,3.5 0,3.5 -0.928211,3.5 -1.81853,3.131218 -2.474874,2.474874 -3.131218,1.81853 -3.5,0.928211 -3.5,0 c 0,-0.928211 0.368782,-1.81853 1.025126,-2.474874 C -1.81853,-3.131218 -0.928211,-3.5 0,-3.5 Z"
         style="fill:#1f77b4;fill-opacity:1;fill-rule:nonzero;stroke:none"
         transform="matrix(1.3333333,0,0,-1.3333333,162.8099,466.11373)"
         clip-path="url(#clipPath53)"
         id="path54" />
    </g>
    <g
       id="g57"
       clip-path="url(#clipPath58)">
      <path
         d="m 0,-3.5 c 0.928211,0 1.81853,0.368782 2.474874,1.025126 C 3.131218,-1.81853 3.5,-0.928211 3.5,0 3.5,0.928211 3.131218,1.81853 2.474874,2.474874 1.81853,3.131218 0.928211,3.5 0,3.5 -0.928211,3.5 -1.81853,3.131218 -2.474874,2.474874 -3.131218,1.81853 -3.5,0.928211 -3.5,0 c 0,-0.928211 0.368782,-1.81853 1.025126,-2.474874 C -1.81853,-3.131218 -0.928211,-3.5 0,-3.5 Z"
         style="fill:#1f77b4;fill-opacity:1;fill-rule:nonzero;stroke:none"
         transform="matrix(1.3333333,0,0,-1.3333333,162.8099,403.28718)"
         clip-path="url(#clipPath56)"
         id="path57" />
    </g>
    <g
       id="g60"
       clip-path="url(#clipPath61)">
      <path
         d="m 0,-3.5 c 0.928211,0 1.81853,0.368782 2.474874,1.025126 C 3.131218,-1.81853 3.5,-0.928211 3.5,0 3.5,0.928211 3.131218,1.81853 2.474874,2.474874 1.81853,3.131218 0.928211,3.5 0,3.5 -0.928211,3.5 -1.81853,3.131218 -2.474874,2.474874 -3.131218,1.81853 -3.5,0.928211 -3.5,0 c 0,-0.928211 0.368782,-1.81853 1.025126,-2.474874 C -1.81853,-3.131218 -0.928211,-3.5 0,-3.5 Z"
         style="fill:#1f77b4;fill-opacity:1;fill-rule:nonzero;stroke:none"
         transform="matrix(1.3333333,0,0,-1.3333333,162.8099,390.72187)"
         clip-path="url(#clipPath59)"
         id="path60" />
    </g>
    <g
       id="g63"
       clip-path="url(#clipPath64)">
      <path
         d="m 0,-3.5 c 0.928211,0 1.81853,0.368782 2.474874,1.025126 C 3.131218,-1.81853 3.5,-0.928211 3.5,0 3.5,0.928211 3.131218,1.81853 2.474874,2.474874 1.81853,3.131218 0.928211,3.5 0,3.5 -0.928211,3.5 -1.81853,3.131218 -2.474874,2.474874 -3.131218,1.81853 -3.5,0.928211 -3.5,0 c 0,-0.928211 0.368782,-1.81853 1.025126,-2.474874 C -1.81853,-3.131218 -0.928211,-3.5 0,-3.5 Z"
         style="fill:#1f77b4;fill-opacity:1;fill-rule:nonzero;stroke:none"
         transform="matrix(1.3333333,0,0,-1.3333333,162.8099,348.83751)"
         clip-path="url(#clipPath62)"
         id="path63" />
    </g>
    <g
       id="g66"
       clip-path="url(#clipPath67)">
      <path
         d="m 0,-3.5 c 0.928211,0 1.81853,0.368782 2.474874,1.025126 C 3.131218,-1.81853 3.5,-0.928211 3.5,0 3.5,0.928211 3.131218,1.81853 2.474874,2.474874 1.81853,3.131218 0.928211,3.5 0,3.5 -0.928211,3.5 -1.81853,3.131218 -2.474874,2.474874 -3.131218,1.81853 -3.5,0.928211 -3.5,0 c 0,-0.928211 0.368782,-1.81853 1.025126,-2.474874 C -1.81853,-3.131218 -0.928211,-3.5 0,-3.5 Z"
         style="fill:#1f77b4;fill-opacity:1;fill-rule:nonzero;stroke:none"
         transform="matrix(1.3333333,0,0,-1.3333333,158.4884,340.46063)"
         clip-path="url(#clipPath65)"
         id="path66" />
    </g>
    <g
       id="g69"
       clip-path="url(#clipPath70)">
      <path
         d="m 0,-3.5 c 0.928211,0 1.81853,0.368782 2.474874,1.025126 C 3.131218,-1.81853 3.5,-0.928211 3.5,0 3.5,0.928211 3.131218,1.81853 2.474874,2.474874 1.81853,3.131218 0.928211,3.5 0,3.5 -0.928211,3.5 -1.81853,3.131218 -2.474874,2.474874 -3.131218,1.81853 -3.5,0.928211 -3.5,0 c 0,-0.928211 0.368782,-1.81853 1.025126,-2.474874 C -1.81853,-3.131218 -0.928211,-3.5 0,-3.5 Z"
         style="fill:#1f77b4;fill-opacity:1;fill-rule:nonzero;stroke:none"
         transform="matrix(1.3333333,0,0,-1.3333333,162.8099,294.38783)"
         clip-path="url(#clipPath68)"
         id="path69" />
    </g>
    <g
       id="g72"
       clip-path="url(#clipPath73)">
      <path
         d="m 0,-3.5 c 0.928211,0 1.81853,0.368782 2.474874,1.025126 C 3.131218,-1.81853 3.5,-0.928211 3.5,0 3.5,0.928211 3.131218,1.81853 2.474874,2.474874 1.81853,3.131218 0.928211,3.5 0,3.5 -0.928211,3.5 -1.81853,3.131218 -2.474874,2.474874 -3.131218,1.81853 -3.5,0.928211 -3.5,0 c 0,-0.928211 0.368782,-1.81853 1.025126,-2.474874 C -1.81853,-3.131218 -0.928211,-3.5 0,-3.5 Z"
         style="fill:#1f77b4;fill-opacity:1;fill-rule:nonzero;stroke:none"
         transform="matrix(1.3333333,0,0,-1.3333333,162.8099,223.18441)"
         clip-path="url(#clipPath71)"
         id="path72" />
    </g>
    <g
       id="g75"
       clip-path="url(#clipPath76)">
      <path
         d="m 0,-3.5 c 0.928211,0 1.81853,0.368782 2.474874,1.025126 C 3.131218,-1.81853 3.5,-0.928211 3.5,0 3.5,0.928211 3.131218,1.81853 2.474874,2.474874 1.81853,3.131218 0.928211,3.5 0,3.5 -0.928211,3.5 -1.81853,3.131218 -2.474874,2.474874 -3.131218,1.81853 -3.5,0.928211 -3.5,0 c 0,-0.928211 0.368782,-1.81853 1.025126,-2.474874 C -1.81853,-3.131218 -0.928211,-3.5 0,-3.5 Z"
         style="fill:#1f77b4;fill-opacity:1;fill-rule:nonzero;stroke:none"
         transform="matrix(1.3333333,0,0,-1.3333333,162.8099,206.43066)"
         clip-path="url(#clipPath74)"
         id="path75" />
    </g>
    <g
       id="g78"
       clip-path="url(#clipPath79)">
      <path
         d="m 0,-3.5 c 0.928211,0 1.81853,0.368782 2.474874,1.025126 C 3.131218,-1.81853 3.5,-0.928211 3.5,0 3.5,0.928211 3.131218,1.81853 2.474874,2.474874 1.81853,3.131218 0.928211,3.5 0,3.5 -0.928211,3.5 -1.81853,3.131218 -2.474874,2.474874 -3.131218,1.81853 -3.5,0.928211 -3.5,0 c 0,-0.928211 0.368782,-1.81853 1.025126,-2.474874 C -1.81853,-3.131218 -0.928211,-3.5 0,-3.5 Z"
         style="fill:#1f77b4;fill-opacity:1;fill-rule:nonzero;stroke:none"
         transform="matrix(1.3333333,0,0,-1.3333333,162.8099,185.48848)"
         clip-path="url(#clipPath77)"
         id="path78" />
    </g>
    <g
       id="g81"
       clip-path="url(#clipPath82)">
      <path
         d="m 0,-3.5 c 0.928211,0 1.81853,0.368782 2.474874,1.025126 C 3.131218,-1.81853 3.5,-0.928211 3.5,0 3.5,0.928211 3.131218,1.81853 2.474874,2.474874 1.81853,3.131218 0.928211,3.5 0,3.5 -0.928211,3.5 -1.81853,3.131218 -2.474874,2.474874 -3.131218,1.81853 -3.5,0.928211 -3.5,0 c 0,-0.928211 0.368782,-1.81853 1.025126,-2.474874 C -1.81853,-3.131218 -0.928211,-3.5 0,-3.5 Z"
         style="fill:#1f77b4;fill-opacity:1;fill-rule:nonzero;stroke:none"
         transform="matrix(1.3333333,0,0,-1.3333333,162.8099,93.342876)"
         clip-path="url(#clipPath80)"
         id="path81" />
    </g>
    <g
       id="g84"
       clip-path="url(#clipPath85)">
      <path
         d="m 0,-3.5 c 0.928211,0 1.81853,0.368782 2.474874,1.025126 C 3.131218,-1.81853 3.5,-0.928211 3.5,0 3.5,0.928211 3.131218,1.81853 2.474874,2.474874 1.81853,3.131218 0.928211,3.5 0,3.5 -0.928211,3.5 -1.81853,3.131218 -2.474874,2.474874 -3.131218,1.81853 -3.5,0.928211 -3.5,0 c 0,-0.928211 0.368782,-1.81853 1.025126,-2.474874 C -1.81853,-3.131218 -0.928211,-3.5 0,-3.5 Z"
         style="fill:#ff7f0e;fill-opacity:1;fill-rule:nonzero;stroke:none"
         transform="matrix(1.3333333,0,0,-1.3333333,387.18802,520.5634)"
         clip-path="url(#clipPath83)"
         id="path84" />
    </g>
    <g
       id="g87"
       clip-path="url(#clipPath88)">
      <path
         d="m 0,-3.5 c 0.928211,0 1.81853,0.368782 2.474874,1.025126 C 3.131218,-1.81853 3.5,-0.928211 3.5,0 3.5,0.928211 3.131218,1.81853 2.474874,2.474874 1.81853,3.131218 0.928211,3.5 0,3.5 -0.928211,3.5 -1.81853,3.131218 -2.474874,2.474874 -3.131218,1.81853 -3.5,0.928211 -3.5,0 c 0,-0.928211 0.368782,-1.81853 1.025126,-2.474874 C -1.81853,-3.131218 -0.928211,-3.5 0,-3.5 Z"
         style="fill:#ff7f0e;fill-opacity:1;fill-rule:nonzero;stroke:none"
         transform="matrix(1.3333333,0,0,-1.3333333,387.18802,432.60624)"
         clip-path="url(#clipPath86)"
         id="path87" />
    </g>
    <g
       id="g90"
       clip-path="url(#clipPath91)">
      <path
         d="m 0,-3.5 c 0.928211,0 1.81853,0.368782 2.474874,1.025126 C 3.131218,-1.81853 3.5,-0.928211 3.5,0 3.5,0.928211 3.131218,1.81853 2.474874,2.474874 1.81853,3.131218 0.928211,3.5 0,3.5 -0.928211,3.5 -1.81853,3.131218 -2.474874,2.474874 -3.131218,1.81853 -3.5,0.928211 -3.5,0 c 0,-0.928211 0.368782,-1.81853 1.025126,-2.474874 C -1.81853,-3.131218 -0.928211,-3.5 0,-3.5 Z"
         style="fill:#ff7f0e;fill-opacity:1;fill-rule:nonzero;stroke:none"
         transform="matrix(1.3333333,0,0,-1.3333333,382.86652,424.22936)"
         clip-path="url(#clipPath89)"
         id="path90" />
    </g>
    <g
       id="g93"
       clip-path="url(#clipPath94)">
      <path
         d="m 0,-3.5 c 0.928211,0 1.81853,0.368782 2.474874,1.025126 C 3.131218,-1.81853 3.5,-0.928211 3.5,0 3.5,0.928211 3.131218,1.81853 2.474874,2.474874 1.81853,3.131218 0.928211,3.5 0,3.5 -0.928211,3.5 -1.81853,3.131218 -2.474874,2.474874 -3.131218,1.81853 -3.5,0.928211 -3.5,0 c 0,-0.928211 0.368782,-1.81853 1.025126,-2.474874 C -1.81853,-3.131218 -0.928211,-3.5 0,-3.5 Z"
         style="fill:#ff7f0e;fill-opacity:1;fill-rule:nonzero;stroke:none"
         transform="matrix(1.3333333,0,0,-1.3333333,387.18802,378.15656)"
         clip-path="url(#clipPath92)"
         id="path93" />
    </g>
    <g
       id="g96"
       clip-path="url(#clipPath97)">
      <path
         d="m 0,-3.5 c 0.928211,0 1.81853,0.368782 2.474874,1.025126 C 3.131218,-1.81853 3.5,-0.928211 3.5,0 3.5,0.928211 3.131218,1.81853 2.474874,2.474874 1.81853,3.131218 0.928211,3.5 0,3.5 -0.928211,3.5 -1.81853,3.131218 -2.474874,2.474874 -3.131218,1.81853 -3.5,0.928211 -3.5,0 c 0,-0.928211 0.368782,-1.81853 1.025126,-2.474874 C -1.81853,-3.131218 -0.928211,-3.5 0,-3.5 Z"
         style="fill:#ff7f0e;fill-opacity:1;fill-rule:nonzero;stroke:none"
         transform="matrix(1.3333333,0,0,-1.3333333,387.18802,327.89532)"
         clip-path="url(#clipPath95)"
         id="path96" />
    </g>
    <g
       id="g99"
       clip-path="url(#clipPath100)">
      <path
         d="m 0,-3.5 c 0.928211,0 1.81853,0.368782 2.474874,1.025126 C 3.131218,-1.81853 3.5,-0.928211 3.5,0 3.5,0.928211 3.131218,1.81853 2.474874,2.474874 1.81853,3.131218 0.928211,3.5 0,3.5 -0.928211,3.5 -1.81853,3.131218 -2.474874,2.474874 -3.131218,1.81853 -3.5,0.928211 -3.5,0 c 0,-0.928211 0.368782,-1.81853 1.025126,-2.474874 C -1.81853,-3.131218 -0.928211,-3.5 0,-3.5 Z"
         style="fill:#ff7f0e;fill-opacity:1;fill-rule:nonzero;stroke:none"
         transform="matrix(1.3333333,0,0,-1.3333333,387.18802,286.01096)"
         clip-path="url(#clipPath98)"
         id="path99" />
    </g>
    <g
       id="g102"
       clip-path="url(#clipPath103)">
      <path
         d="m 0,-3.5 c 0.928211,0 1.81853,0.368782 2.474874,1.025126 C 3.131218,-1.81853 3.5,-0.928211 3.5,0 3.5,0.928211 3.131218,1.81853 2.474874,2.474874 1.81853,3.131218 0.928211,3.5 0,3.5 -0.928211,3.5 -1.81853,3.131218 -2.474874,2.474874 -3.131218,1.81853 -3.5,0.928211 -3.5,0 c 0,-0.928211 0.368782,-1.81853 1.025126,-2.474874 C -1.81853,-3.131218 -0.928211,-3.5 0,-3.5 Z"
         style="fill:#ff7f0e;fill-opacity:1;fill-rule:nonzero;stroke:none"
         transform="matrix(1.3333333,0,0,-1.3333333,387.18802,218.99597)"
         clip-path="url(#clipPath101)"
         id="path102" />
    </g>
    <g
       id="g105"
       clip-path="url(#clipPath106)">
      <path
         d="m 0,-3.5 c 0.928211,0 1.81853,0.368782 2.474874,1.025126 C 3.131218,-1.81853 3.5,-0.928211 3.5,0 3.5,0.928211 3.131218,1.81853 2.474874,2.474874 1.81853,3.131218 0.928211,3.5 0,3.5 -0.928211,3.5 -1.81853,3.131218 -2.474874,2.474874 -3.131218,1.81853 -3.5,0.928211 -3.5,0 c 0,-0.928211 0.368782,-1.81853 1.025126,-2.474874 C -1.81853,-3.131218 -0.928211,-3.5 0,-3.5 Z"
         style="fill:#ff7f0e;fill-opacity:1;fill-rule:nonzero;stroke:none"
         transform="matrix(1.3333333,0,0,-1.3333333,387.18802,135.22724)"
         clip-path="url(#clipPath104)"
         id="path105" />
    </g>
    <g
       id="g108"
       clip-path="url(#clipPath109)">
      <path
         d="m 0,-3.5 c 0.928211,0 1.81853,0.368782 2.474874,1.025126 C 3.131218,-1.81853 3.5,-0.928211 3.5,0 3.5,0.928211 3.131218,1.81853 2.474874,2.474874 1.81853,3.131218 0.928211,3.5 0,3.5 -0.928211,3.5 -1.81853,3.131218 -2.474874,2.474874 -3.131218,1.81853 -3.5,0.928211 -3.5,0 c 0,-0.928211 0.368782,-1.81853 1.025126,-2.474874 C -1.81853,-3.131218 -0.928211,-3.5 0,-3.5 Z"
         style="fill:#ff7f0e;fill-opacity:1;fill-rule:nonzero;stroke:none"
         transform="matrix(1.3333333,0,0,-1.3333333,387.18802,101.71975)"
         clip-path="url(#clipPath107)"
         id="path108" />
    </g>
    <g
       id="g111"
       clip-path="url(#clipPath112)">
      <path
         d="m 0,-3.5 c 0.928211,0 1.81853,0.368782 2.474874,1.025126 C 3.131218,-1.81853 3.5,-0.928211 3.5,0 3.5,0.928211 3.131218,1.81853 2.474874,2.474874 1.81853,3.131218 0.928211,3.5 0,3.5 -0.928211,3.5 -1.81853,3.131218 -2.474874,2.474874 -3.131218,1.81853 -3.5,0.928211 -3.5,0 c 0,-0.928211 0.368782,-1.81853 1.025126,-2.474874 C -1.81853,-3.131218 -0.928211,-3.5 0,-3.5 Z"
         style="fill:#ff7f0e;fill-opacity:1;fill-rule:nonzero;stroke:none"
         transform="matrix(1.3333333,0,0,-1.3333333,387.18802,64.02382)"
         clip-path="url(#clipPath110)"
         id="path111" />
    </g>
    <g
       id="g114"
       clip-path="url(#clipPath115)">
      <path
         d="m 0,-3.5 c 0.928211,0 1.81853,0.368782 2.474874,1.025126 C 3.131218,-1.81853 3.5,-0.928211 3.5,0 3.5,0.928211 3.131218,1.81853 2.474874,2.474874 1.81853,3.131218 0.928211,3.5 0,3.5 -0.928211,3.5 -1.81853,3.131218 -2.474874,2.474874 -3.131218,1.81853 -3.5,0.928211 -3.5,0 c 0,-0.928211 0.368782,-1.81853 1.025126,-2.474874 C -1.81853,-3.131218 -0.928211,-3.5 0,-3.5 Z"
         style="fill:#2ca02c;fill-opacity:1;fill-rule:nonzero;stroke:none"
         transform="matrix(1.3333333,0,0,-1.3333333,611.56615,524.75184)"
         clip-path="url(#clipPath113)"
         id="path114" />
    </g>
    <g
       id="g117"
       clip-path="url(#clipPath118)">
      <path
         d="m 0,-3.5 c 0.928211,0 1.81853,0.368782 2.474874,1.025126 C 3.131218,-1.81853 3.5,-0.928211 3.5,0 3.5,0.928211 3.131218,1.81853 2.474874,2.474874 1.81853,3.131218 0.928211,3.5 0,3.5 -0.928211,3.5 -1.81853,3.131218 -2.474874,2.474874 -3.131218,1.81853 -3.5,0.928211 -3.5,0 c 0,-0.928211 0.368782,-1.81853 1.025126,-2.474874 C -1.81853,-3.131218 -0.928211,-3.5 0,-3.5 Z"
         style="fill:#2ca02c;fill-opacity:1;fill-rule:nonzero;stroke:none"
         transform="matrix(1.3333333,0,0,-1.3333333,611.56615,461.92529)"
         clip-path="url(#clipPath116)"
         id="path117" />
    </g>
    <g
       id="g120"
       clip-path="url(#clipPath121)">
      <path
         d="m 0,-3.5 c 0.928211,0 1.81853,0.368782 2.474874,1.025126 C 3.131218,-1.81853 3.5,-0.928211 3.5,0 3.5,0.928211 3.131218,1.81853 2.474874,2.474874 1.81853,3.131218 0.928211,3.5 0,3.5 -0.928211,3.5 -1.81853,3.131218 -2.474874,2.474874 -3.131218,1.81853 -3.5,0.928211 -3.5,0 c 0,-0.928211 0.368782,-1.81853 1.025126,-2.474874 C -1.81853,-3.131218 -0.928211,-3.5 0,-3.5 Z"
         style="fill:#2ca02c;fill-opacity:1;fill-rule:nonzero;stroke:none"
         transform="matrix(1.3333333,0,0,-1.3333333,611.56615,378.15656)"
         clip-path="url(#clipPath119)"
         id="path120" />
    </g>
    <g
       id="g123"
       clip-path="url(#clipPath124)">
      <path
         d="m 0,-3.5 c 0.928211,0 1.81853,0.368782 2.474874,1.025126 C 3.131218,-1.81853 3.5,-0.928211 3.5,0 3.5,0.928211 3.131218,1.81853 2.474874,2.474874 1.81853,3.131218 0.928211,3.5 0,3.5 -0.928211,3.5 -1.81853,3.131218 -2.474874,2.474874 -3.131218,1.81853 -3.5,0.928211 -3.5,0 c 0,-0.928211 0.368782,-1.81853 1.025126,-2.474874 C -1.81853,-3.131218 -0.928211,-3.5 0,-3.5 Z"
         style="fill:#2ca02c;fill-opacity:1;fill-rule:nonzero;stroke:none"
         transform="matrix(1.3333333,0,0,-1.3333333,611.56615,348.83751)"
         clip-path="url(#clipPath122)"
         id="path123" />
    </g>
    <g
       id="g126"
       clip-path="url(#clipPath127)">
      <path
         d="m 0,-3.5 c 0.928211,0 1.81853,0.368782 2.474874,1.025126 C 3.131218,-1.81853 3.5,-0.928211 3.5,0 3.5,0.928211 3.131218,1.81853 2.474874,2.474874 1.81853,3.131218 0.928211,3.5 0,3.5 -0.928211,3.5 -1.81853,3.131218 -2.474874,2.474874 -3.131218,1.81853 -3.5,0.928211 -3.5,0 c 0,-0.928211 0.368782,-1.81853 1.025126,-2.474874 C -1.81853,-3.131218 -0.928211,-3.5 0,-3.5 Z"
         style="fill:#2ca02c;fill-opacity:1;fill-rule:nonzero;stroke:none"
         transform="matrix(1.3333333,0,0,-1.3333333,602.80836,344.64907)"
         clip-path="url(#clipPath125)"
         id="path126" />
    </g>
    <g
       id="g129"
       clip-path="url(#clipPath130)">
      <path
         d="m 0,-3.5 c 0.928211,0 1.81853,0.368782 2.474874,1.025126 C 3.131218,-1.81853 3.5,-0.928211 3.5,0 3.5,0.928211 3.131218,1.81853 2.474874,2.474874 1.81853,3.131218 0.928211,3.5 0,3.5 -0.928211,3.5 -1.81853,3.131218 -2.474874,2.474874 -3.131218,1.81853 -3.5,0.928211 -3.5,0 c 0,-0.928211 0.368782,-1.81853 1.025126,-2.474874 C -1.81853,-3.131218 -0.928211,-3.5 0,-3.5 Z"
         style="fill:#2ca02c;fill-opacity:1;fill-rule:nonzero;stroke:none"
         transform="matrix(1.3333333,0,0,-1.3333333,611.56615,290.19939)"
         clip-path="url(#clipPath128)"
         id="path129" />
    </g>
    <g
       id="g132"
       clip-path="url(#clipPath133)">
      <path
         d="m 0,-3.5 c 0.928211,0 1.81853,0.368782 2.474874,1.025126 C 3.131218,-1.81853 3.5,-0.928211 3.5,0 3.5,0.928211 3.131218,1.81853 2.474874,2.474874 1.81853,3.131218 0.928211,3.5 0,3.5 -0.928211,3.5 -1.81853,3.131218 -2.474874,2.474874 -3.131218,1.81853 -3.5,0.928211 -3.5,0 c 0,-0.928211 0.368782,-1.81853 1.025126,-2.474874 C -1.81853,-3.131218 -0.928211,-3.5 0,-3.5 Z"
         style="fill:#2ca02c;fill-opacity:1;fill-rule:nonzero;stroke:none"
         transform="matrix(1.3333333,0,0,-1.3333333,607.24465,281.82252)"
         clip-path="url(#clipPath131)"
         id="path132" />
    </g>
    <g
       id="g135"
       clip-path="url(#clipPath136)">
      <path
         d="m 0,-3.5 c 0.928211,0 1.81853,0.368782 2.474874,1.025126 C 3.131218,-1.81853 3.5,-0.928211 3.5,0 3.5,0.928211 3.131218,1.81853 2.474874,2.474874 1.81853,3.131218 0.928211,3.5 0,3.5 -0.928211,3.5 -1.81853,3.131218 -2.474874,2.474874 -3.131218,1.81853 -3.5,0.928211 -3.5,0 c 0,-0.928211 0.368782,-1.81853 1.025126,-2.474874 C -1.81853,-3.131218 -0.928211,-3.5 0,-3.5 Z"
         style="fill:#2ca02c;fill-opacity:1;fill-rule:nonzero;stroke:none"
         transform="matrix(1.3333333,0,0,-1.3333333,611.56615,252.50346)"
         clip-path="url(#clipPath134)"
         id="path135" />
    </g>
    <g
       id="g138"
       clip-path="url(#clipPath139)">
      <path
         d="m 0,-3.5 c 0.928211,0 1.81853,0.368782 2.474874,1.025126 C 3.131218,-1.81853 3.5,-0.928211 3.5,0 3.5,0.928211 3.131218,1.81853 2.474874,2.474874 1.81853,3.131218 0.928211,3.5 0,3.5 -0.928211,3.5 -1.81853,3.131218 -2.474874,2.474874 -3.131218,1.81853 -3.5,0.928211 -3.5,0 c 0,-0.928211 0.368782,-1.81853 1.025126,-2.474874 C -1.81853,-3.131218 -0.928211,-3.5 0,-3.5 Z"
         style="fill:#2ca02c;fill-opacity:1;fill-rule:nonzero;stroke:none"
         transform="matrix(1.3333333,0,0,-1.3333333,602.80836,248.31503)"
         clip-path="url(#clipPath137)"
         id="path138" />
    </g>
    <g
       id="g141"
       clip-path="url(#clipPath142)">
      <path
         d="m 0,-3.5 c 0.928211,0 1.81853,0.368782 2.474874,1.025126 C 3.131218,-1.81853 3.5,-0.928211 3.5,0 3.5,0.928211 3.131218,1.81853 2.474874,2.474874 1.81853,3.131218 0.928211,3.5 0,3.5 -0.928211,3.5 -1.81853,3.131218 -2.474874,2.474874 -3.131218,1.81853 -3.5,0.928211 -3.5,0 c 0,-0.928211 0.368782,-1.81853 1.025126,-2.474874 C -1.81853,-3.131218 -0.928211,-3.5 0,-3.5 Z"
         style="fill:#2ca02c;fill-opacity:1;fill-rule:nonzero;stroke:none"
         transform="matrix(1.3333333,0,0,-1.3333333,611.56615,185.48848)"
         clip-path="url(#clipPath140)"
         id="path141" />
    </g>
    <g
       id="g144"
       clip-path="url(#clipPath145)">
      <path
         d="m 0,-3.5 c 0.928211,0 1.81853,0.368782 2.474874,1.025126 C 3.131218,-1.81853 3.5,-0.928211 3.5,0 3.5,0.928211 3.131218,1.81853 2.474874,2.474874 1.81853,3.131218 0.928211,3.5 0,3.5 -0.928211,3.5 -1.81853,3.131218 -2.474874,2.474874 -3.131218,1.81853 -3.5,0.928211 -3.5,0 c 0,-0.928211 0.368782,-1.81853 1.025126,-2.474874 C -1.81853,-3.131218 -0.928211,-3.5 0,-3.5 Z"
         style="fill:#9467bd;fill-opacity:1;fill-rule:nonzero;stroke:none"
         transform="matrix(1.3333333,0,0,-1.3333333,835.94427,105.90819)"
         clip-path="url(#clipPath143)"
         id="path144" />
    </g>
    <g
       id="g147"
       clip-path="url(#clipPath148)">
      <path
         d="m 0,-3.5 c 0.928211,0 1.81853,0.368782 2.474874,1.025126 C 3.131218,-1.81853 3.5,-0.928211 3.5,0 3.5,0.928211 3.131218,1.81853 2.474874,2.474874 1.81853,3.131218 0.928211,3.5 0,3.5 -0.928211,3.5 -1.81853,3.131218 -2.474874,2.474874 -3.131218,1.81853 -3.5,0.928211 -3.5,0 c 0,-0.928211 0.368782,-1.81853 1.025126,-2.474874 C -1.81853,-3.131218 -0.928211,-3.5 0,-3.5 Z"
         style="fill:#9467bd;fill-opacity:1;fill-rule:nonzero;stroke:none"
         transform="matrix(1.3333333,0,0,-1.3333333,826.14427,105.90819)"
         clip-path="url(#clipPath146)"
         id="path147" />
    </g>
    <g
       id="g150"
       clip-path="url(#clipPath151)">
      <path
         d="m 0,-3.5 c 0.928211,0 1.81853,0.368782 2.474874,1.025126 C 3.131218,-1.81853 3.5,-0.928211 3.5,0 3.5,0.928211 3.131218,1.81853 2.474874,2.474874 1.81853,3.131218 0.928211,3.5 0,3.5 -0.928211,3.5 -1.81853,3.131218 -2.474874,2.474874 -3.131218,1.81853 -3.5,0.928211 -3.5,0 c 0,-0.928211 0.368782,-1.81853 1.025126,-2.474874 C -1.81853,-3.131218 -0.928211,-3.5 0,-3.5 Z"
         style="fill:#9467bd;fill-opacity:1;fill-rule:nonzero;stroke:none"
         transform="matrix(1.3333333,0,0,-1.3333333,845.74427,105.90819)"
         clip-path="url(#clipPath149)"
         id="path150" />
    </g>
    <g
       id="g153"
       clip-path="url(#clipPath154)">
      <path
         d="m 0,-3.5 c 0.928211,0 1.81853,0.368782 2.474874,1.025126 C 3.131218,-1.81853 3.5,-0.928211 3.5,0 3.5,0.928211 3.131218,1.81853 2.474874,2.474874 1.81853,3.131218 0.928211,3.5 0,3.5 -0.928211,3.5 -1.81853,3.131218 -2.474874,2.474874 -3.131218,1.81853 -3.5,0.928211 -3.5,0 c 0,-0.928211 0.368782,-1.81853 1.025126,-2.474874 C -1.81853,-3.131218 -0.928211,-3.5 0,-3.5 Z"
         style="fill:#9467bd;fill-opacity:1;fill-rule:nonzero;stroke:none"
         transform="matrix(1.3333333,0,0,-1.3333333,816.34427,105.90819)"
         clip-path="url(#clipPath152)"
         id="path153" />
    </g>
    <g
       id="g156"
       clip-path="url(#clipPath157)">
      <path
         d="m 0,-3.5 c 0.928211,0 1.81853,0.368782 2.474874,1.025126 C 3.131218,-1.81853 3.5,-0.928211 3.5,0 3.5,0.928211 3.131218,1.81853 2.474874,2.474874 1.81853,3.131218 0.928211,3.5 0,3.5 -0.928211,3.5 -1.81853,3.131218 -2.474874,2.474874 -3.131218,1.81853 -3.5,0.928211 -3.5,0 c 0,-0.928211 0.368782,-1.81853 1.025126,-2.474874 C -1.81853,-3.131218 -0.928211,-3.5 0,-3.5 Z"
         style="fill:#9467bd;fill-opacity:1;fill-rule:nonzero;stroke:none"
         transform="matrix(1.3333333,0,0,-1.3333333,855.54427,105.90819)"
         clip-path="url(#clipPath155)"
         id="path156" />
    </g>
    <g
       id="g159"
       clip-path="url(#clipPath160)">
      <path
         d="m 0,-3.5 c 0.928211,0 1.81853,0.368782 2.474874,1.025126 C 3.131218,-1.81853 3.5,-0.928211 3.5,0 3.5,0.928211 3.131218,1.81853 2.474874,2.474874 1.81853,3.131218 0.928211,3.5 0,3.5 -0.928211,3.5 -1.81853,3.131218 -2.474874,2.474874 -3.131218,1.81853 -3.5,0.928211 -3.5,0 c 0,-0.928211 0.368782,-1.81853 1.025126,-2.474874 C -1.81853,-3.131218 -0.928211,-3.5 0,-3.5 Z"
         style="fill:#9467bd;fill-opacity:1;fill-rule:nonzero;stroke:none"
         transform="matrix(1.3333333,0,0,-1.3333333,806.54427,105.90819)"
         clip-path="url(#clipPath158)"
         id="path159" />
    </g>
    <g
       id="g162"
       clip-path="url(#clipPath163)">
      <path
         d="m 0,-3.5 c 0.928211,0 1.81853,0.368782 2.474874,1.025126 C 3.131218,-1.81853 3.5,-0.928211 3.5,0 3.5,0.928211 3.131218,1.81853 2.474874,2.474874 1.81853,3.131218 0.928211,3.5 0,3.5 -0.928211,3.5 -1.81853,3.131218 -2.474874,2.474874 -3.131218,1.81853 -3.5,0.928211 -3.5,0 c 0,-0.928211 0.368782,-1.81853 1.025126,-2.474874 C -1.81853,-3.131218 -0.928211,-3.5 0,-3.5 Z"
         style="fill:#9467bd;fill-opacity:1;fill-rule:nonzero;stroke:none"
         transform="matrix(1.3333333,0,0,-1.3333333,865.34427,105.90819)"
         clip-path="url(#clipPath161)"
         id="path162" />
    </g>
    <g
       id="g165"
       clip-path="url(#clipPath166)">
      <path
         d="m 0,-3.5 c 0.928211,0 1.81853,0.368782 2.474874,1.025126 C 3.131218,-1.81853 3.5,-0.928211 3.5,0 3.5,0.928211 3.131218,1.81853 2.474874,2.474874 1.81853,3.131218 0.928211,3.5 0,3.5 -0.928211,3.5 -1.81853,3.131218 -2.474874,2.474874 -3.131218,1.81853 -3.5,0.928211 -3.5,0 c 0,-0.928211 0.368782,-1.81853 1.025126,-2.474874 C -1.81853,-3.131218 -0.928211,-3.5 0,-3.5 Z"
         style="fill:#9467bd;fill-opacity:1;fill-rule:nonzero;stroke:none"
         transform="matrix(1.3333333,0,0,-1.3333333,796.74427,105.90819)"
         clip-path="url(#clipPath164)"
         id="path165" />
    </g>
    <g
       id="g168"
       clip-path="url(#clipPath169)">
      <path
         d="m 0,-3.5 c 0.928211,0 1.81853,0.368782 2.474874,1.025126 C 3.131218,-1.81853 3.5,-0.928211 3.5,0 3.5,0.928211 3.131218,1.81853 2.474874,2.474874 1.81853,3.131218 0.928211,3.5 0,3.5 -0.928211,3.5 -1.81853,3.131218 -2.474874,2.474874 -3.131218,1.81853 -3.5,0.928211 -3.5,0 c 0,-0.928211 0.368782,-1.81853 1.025126,-2.474874 C -1.81853,-3.131218 -0.928211,-3.5 0,-3.5 Z"
         style="fill:#9467bd;fill-opacity:1;fill-rule:nonzero;stroke:none"
         transform="matrix(1.3333333,0,0,-1.3333333,875.14427,105.90819)"
         clip-path="url(#clipPath167)"
         id="path168" />
    </g>
    <g
       id="g171"
       clip-path="url(#clipPath172)">
      <path
         d="m 0,-3.5 c 0.928211,0 1.81853,0.368782 2.474874,1.025126 C 3.131218,-1.81853 3.5,-0.928211 3.5,0 3.5,0.928211 3.131218,1.81853 2.474874,2.474874 1.81853,3.131218 0.928211,3.5 0,3.5 -0.928211,3.5 -1.81853,3.131218 -2.474874,2.474874 -3.131218,1.81853 -3.5,0.928211 -3.5,0 c 0,-0.928211 0.368782,-1.81853 1.025126,-2.474874 C -1.81853,-3.131218 -0.928211,-3.5 0,-3.5 Z"
         style="fill:#9467bd;fill-opacity:1;fill-rule:nonzero;stroke:none"
         transform="matrix(1.3333333,0,0,-1.3333333,786.94427,105.90819)"
         clip-path="url(#clipPath170)"
         id="path171" />
    </g>
  </g>
</svg>
