<svg xmlns="http://www.w3.org/2000/svg" width="962.4" height="598.875" viewBox="0 0 962.4 598.875"><defs><clipPath id="a" clipPathUnits="userSpaceOnUse"><path d="M57.997 42.544H711.1v391.612H57.997Z"/></clipPath><clipPath id="b" clipPathUnits="userSpaceOnUse"><path d="M57.997 42.544H711.1v391.612H57.997Z"/></clipPath><clipPath id="c" clipPathUnits="userSpaceOnUse"><path d="M57.997 42.544H711.1v391.612H57.997Z"/></clipPath><clipPath id="d" clipPathUnits="userSpaceOnUse"><path d="M57.997 42.544H711.1v391.612H57.997Z"/></clipPath><clipPath id="e" clipPathUnits="userSpaceOnUse"><path d="M57.997 42.544H711.1v391.612H57.997Z"/></clipPath><clipPath id="f" clipPathUnits="userSpaceOnUse"><path d="M57.997 42.544H711.1v391.612H57.997Z"/></clipPath><clipPath id="g" clipPathUnits="userSpaceOnUse"><path d="M57.997 42.544H711.1v391.612H57.997Z"/></clipPath><clipPath id="h" clipPathUnits="userSpaceOnUse"><path d="M57.997 42.544H711.1v391.612H57.997Z"/></clipPath><clipPath id="i" clipPathUnits="userSpaceOnUse"><path d="M57.997 42.544H711.1v391.612H57.997Z"/></clipPath><clipPath id="j" clipPathUnits="userSpaceOnUse"><path d="M57.997 42.544H711.1v391.612H57.997Z"/></clipPath><clipPath id="k" clipPathUnits="userSpaceOnUse"><path d="M57.997 42.544H711.1v391.612H57.997Z"/></clipPath><clipPath id="l" clipPathUnits="userSpaceOnUse"><path d="M57.997 42.544H711.1v391.612H57.997Z"/></clipPath><clipPath id="m" clipPathUnits="userSpaceOnUse"><path d="M57.997 42.544H711.1v391.612H57.997Z"/></clipPath><clipPath id="n" clipPathUnits="userSpaceOnUse"><path d="M57.997 42.544H711.1v391.612H57.997Z"/></clipPath><clipPath id="o" clipPathUnits="userSpaceOnUse"><path d="M57.997 42.544H711.1v391.612H57.997Z"/></clipPath><clipPath id="p" clipPathUnits="userSpaceOnUse"><path d="M57.997 42.544H711.1v391.612H57.997Z"/></clipPath><clipPath id="q" clipPathUnits="userSpaceOnUse"><path d="M57.997 42.544H711.1v391.612H57.997Z"/></clipPath><clipPath id="r" clipPathUnits="userSpaceOnUse"><path d="M57.997 42.544H711.1v391.612H57.997Z"/></clipPath><clipPath id="s" clipPathUnits="userSpaceOnUse"><path d="M57.997 42.544H711.1v391.612H57.997Z"/></clipPath><clipPath id="t" clipPathUnits="userSpaceOnUse"><path d="M57.997 42.544H711.1v391.612H57.997Z"/></clipPath><clipPath id="u" clipPathUnits="userSpaceOnUse"><path d="M57.997 42.544H711.1v391.612H57.997Z"/></clipPath><clipPath id="v" clipPathUnits="userSpaceOnUse"><path d="M57.997 42.544H711.1v391.612H57.997Z"/></clipPath><clipPath id="w" clipPathUnits="userSpaceOnUse"><path d="M57.997 42.544H711.1v391.612H57.997Z"/></clipPath><clipPath id="x" clipPathUnits="userSpaceOnUse"><path d="M57.997 42.544H711.1v391.612H57.997Z"/></clipPath><clipPath id="y" clipPathUnits="userSpaceOnUse"><path d="M57.997 42.544H711.1v391.612H57.997Z"/></clipPath><clipPath id="z" clipPathUnits="userSpaceOnUse"><path d="M57.997 42.544H711.1v391.612H57.997Z"/></clipPath><clipPath id="A" clipPathUnits="userSpaceOnUse"><path d="M57.997 42.544H711.1v391.612H57.997Z"/></clipPath><clipPath id="B" clipPathUnits="userSpaceOnUse"><path d="M57.997 42.544H711.1v391.612H57.997Z"/></clipPath><clipPath id="C" clipPathUnits="userSpaceOnUse"><path d="M57.997 42.544H711.1v391.612H57.997Z"/></clipPath><clipPath id="D" clipPathUnits="userSpaceOnUse"><path d="M57.997 42.544H711.1v391.612H57.997Z"/></clipPath><clipPath id="E" clipPathUnits="userSpaceOnUse"><path d="M57.997 42.544H711.1v391.612H57.997Z"/></clipPath><clipPath id="F" clipPathUnits="userSpaceOnUse"><path d="M57.997 42.544H711.1v391.612H57.997Z"/></clipPath><clipPath id="G" clipPathUnits="userSpaceOnUse"><path d="M57.997 42.544H711.1v391.612H57.997Z"/></clipPath><clipPath id="H" clipPathUnits="userSpaceOnUse"><path d="M57.997 42.544H711.1v391.612H57.997Z"/></clipPath><clipPath id="I" clipPathUnits="userSpaceOnUse"><path d="M57.997 42.544H711.1v391.612H57.997Z"/></clipPath><clipPath id="J" clipPathUnits="userSpaceOnUse"><path d="M57.997 42.544H711.1v391.612H57.997Z"/></clipPath></defs><path d="M140.071 42.544v391.612" clip-path="url(#a)" style="fill:none;stroke:#e6e6e6;stroke-width:1;stroke-linecap:square;stroke-linejoin:round;stroke-miterlimit:10;stroke-dasharray:none;stroke-opacity:1" transform="matrix(1.33333 0 0 -1.33333 0 598.875)"/><path d="M140.071 37.544v-3.5" style="fill:#000;fill-opacity:1;fill-rule:nonzero;stroke:#000;stroke-width:.8;stroke-linecap:butt;stroke-linejoin:round;stroke-miterlimit:10;stroke-dasharray:none;stroke-opacity:1" transform="matrix(1.33333 0 0 -1.33333 0 598.875)"/><text xml:space="preserve" transform="translate(176.158 568.275)scale(1.33333)"><tspan x="0" y="0" style="font-variant:normal;font-weight:400;font-size:10px;font-family:&quot;DejaVu Sans&quot;;writing-mode:lr-tb;fill:#000;fill-opacity:1;fill-rule:nonzero;stroke:none">2.5</tspan></text><path d="M227.385 42.544v391.612" clip-path="url(#b)" style="fill:none;stroke:#e6e6e6;stroke-width:1;stroke-linecap:square;stroke-linejoin:round;stroke-miterlimit:10;stroke-dasharray:none;stroke-opacity:1" transform="matrix(1.33333 0 0 -1.33333 0 598.875)"/><path d="M227.385 37.544v-3.5" style="fill:#000;fill-opacity:1;fill-rule:nonzero;stroke:#000;stroke-width:.8;stroke-linecap:butt;stroke-linejoin:round;stroke-miterlimit:10;stroke-dasharray:none;stroke-opacity:1" transform="matrix(1.33333 0 0 -1.33333 0 598.875)"/><text xml:space="preserve" transform="translate(292.575 568.275)scale(1.33333)"><tspan x="0" y="0" style="font-variant:normal;font-weight:400;font-size:10px;font-family:&quot;DejaVu Sans&quot;;writing-mode:lr-tb;fill:#000;fill-opacity:1;fill-rule:nonzero;stroke:none">5.0</tspan></text><path d="M314.698 42.544v391.612" clip-path="url(#c)" style="fill:none;stroke:#e6e6e6;stroke-width:1;stroke-linecap:square;stroke-linejoin:round;stroke-miterlimit:10;stroke-dasharray:none;stroke-opacity:1" transform="matrix(1.33333 0 0 -1.33333 0 598.875)"/><path d="M314.698 37.544v-3.5" style="fill:#000;fill-opacity:1;fill-rule:nonzero;stroke:#000;stroke-width:.8;stroke-linecap:butt;stroke-linejoin:round;stroke-miterlimit:10;stroke-dasharray:none;stroke-opacity:1" transform="matrix(1.33333 0 0 -1.33333 0 598.875)"/><text xml:space="preserve" transform="translate(408.993 568.275)scale(1.33333)"><tspan x="0" y="0" style="font-variant:normal;font-weight:400;font-size:10px;font-family:&quot;DejaVu Sans&quot;;writing-mode:lr-tb;fill:#000;fill-opacity:1;fill-rule:nonzero;stroke:none">7.5</tspan></text><path d="M402.011 42.544v391.612" clip-path="url(#d)" style="fill:none;stroke:#e6e6e6;stroke-width:1;stroke-linecap:square;stroke-linejoin:round;stroke-miterlimit:10;stroke-dasharray:none;stroke-opacity:1" transform="matrix(1.33333 0 0 -1.33333 0 598.875)"/><path d="M402.011 37.544v-3.5" style="fill:#000;fill-opacity:1;fill-rule:nonzero;stroke:#000;stroke-width:.8;stroke-linecap:butt;stroke-linejoin:round;stroke-miterlimit:10;stroke-dasharray:none;stroke-opacity:1" transform="matrix(1.33333 0 0 -1.33333 0 598.875)"/><text xml:space="preserve" transform="translate(521.171 568.275)scale(1.33333)"><tspan x="0" y="0" style="font-variant:normal;font-weight:400;font-size:10px;font-family:&quot;DejaVu Sans&quot;;writing-mode:lr-tb;fill:#000;fill-opacity:1;fill-rule:nonzero;stroke:none">10.0</tspan></text><path d="M489.324 42.544v391.612" clip-path="url(#e)" style="fill:none;stroke:#e6e6e6;stroke-width:1;stroke-linecap:square;stroke-linejoin:round;stroke-miterlimit:10;stroke-dasharray:none;stroke-opacity:1" transform="matrix(1.33333 0 0 -1.33333 0 598.875)"/><path d="M489.324 37.544v-3.5" style="fill:#000;fill-opacity:1;fill-rule:nonzero;stroke:#000;stroke-width:.8;stroke-linecap:butt;stroke-linejoin:round;stroke-miterlimit:10;stroke-dasharray:none;stroke-opacity:1" transform="matrix(1.33333 0 0 -1.33333 0 598.875)"/><text xml:space="preserve" transform="translate(637.589 568.275)scale(1.33333)"><tspan x="0" y="0" style="font-variant:normal;font-weight:400;font-size:10px;font-family:&quot;DejaVu Sans&quot;;writing-mode:lr-tb;fill:#000;fill-opacity:1;fill-rule:nonzero;stroke:none">12.5</tspan></text><path d="M576.638 42.544v391.612" clip-path="url(#f)" style="fill:none;stroke:#e6e6e6;stroke-width:1;stroke-linecap:square;stroke-linejoin:round;stroke-miterlimit:10;stroke-dasharray:none;stroke-opacity:1" transform="matrix(1.33333 0 0 -1.33333 0 598.875)"/><path d="M576.638 37.544v-3.5" style="fill:#000;fill-opacity:1;fill-rule:nonzero;stroke:#000;stroke-width:.8;stroke-linecap:butt;stroke-linejoin:round;stroke-miterlimit:10;stroke-dasharray:none;stroke-opacity:1" transform="matrix(1.33333 0 0 -1.33333 0 598.875)"/><text xml:space="preserve" transform="translate(754.006 568.275)scale(1.33333)"><tspan x="0" y="0" style="font-variant:normal;font-weight:400;font-size:10px;font-family:&quot;DejaVu Sans&quot;;writing-mode:lr-tb;fill:#000;fill-opacity:1;fill-rule:nonzero;stroke:none">15.0</tspan></text><path d="M663.95 42.544v391.612" clip-path="url(#g)" style="fill:none;stroke:#e6e6e6;stroke-width:1;stroke-linecap:square;stroke-linejoin:round;stroke-miterlimit:10;stroke-dasharray:none;stroke-opacity:1" transform="matrix(1.33333 0 0 -1.33333 0 598.875)"/><path d="M663.95 37.544v-3.5" style="fill:#000;fill-opacity:1;fill-rule:nonzero;stroke:#000;stroke-width:.8;stroke-linecap:butt;stroke-linejoin:round;stroke-miterlimit:10;stroke-dasharray:none;stroke-opacity:1" transform="matrix(1.33333 0 0 -1.33333 0 598.875)"/><text xml:space="preserve" transform="translate(870.424 568.275)scale(1.33333)"><tspan x="0" y="0" style="font-variant:normal;font-weight:400;font-size:10px;font-family:&quot;DejaVu Sans&quot;;writing-mode:lr-tb;fill:#000;fill-opacity:1;fill-rule:nonzero;stroke:none">17.5</tspan></text><text xml:space="preserve" transform="translate(475.523 586.504)scale(1.33333)"><tspan x="0" y="0" style="font-variant:normal;font-weight:400;font-size:10px;font-family:&quot;DejaVu Sans&quot;;writing-mode:lr-tb;fill:#000;fill-opacity:1;fill-rule:nonzero;stroke:none">Generation</tspan></text><path d="M57.997 57.18H711.1" clip-path="url(#h)" style="fill:none;stroke:#e6e6e6;stroke-width:1;stroke-linecap:square;stroke-linejoin:round;stroke-miterlimit:10;stroke-dasharray:none;stroke-opacity:1" transform="matrix(1.33333 0 0 -1.33333 0 598.875)"/><text xml:space="preserve" transform="translate(27.83 527.697)scale(1.33333)"><tspan x="0" y="0" style="font-variant:normal;font-weight:400;font-size:10px;font-family:&quot;DejaVu Sans&quot;;writing-mode:lr-tb;fill:#000;fill-opacity:1;fill-rule:nonzero;stroke:none">0.710</tspan></text><path d="M57.997 100.904H711.1" clip-path="url(#i)" style="fill:none;stroke:#e6e6e6;stroke-width:1;stroke-linecap:square;stroke-linejoin:round;stroke-miterlimit:10;stroke-dasharray:none;stroke-opacity:1" transform="matrix(1.33333 0 0 -1.33333 0 598.875)"/><text xml:space="preserve" transform="translate(27.83 469.4)scale(1.33333)"><tspan x="0" y="0" style="font-variant:normal;font-weight:400;font-size:10px;font-family:&quot;DejaVu Sans&quot;;writing-mode:lr-tb;fill:#000;fill-opacity:1;fill-rule:nonzero;stroke:none">0.712</tspan></text><path d="M57.997 144.627H711.1" clip-path="url(#j)" style="fill:none;stroke:#e6e6e6;stroke-width:1;stroke-linecap:square;stroke-linejoin:round;stroke-miterlimit:10;stroke-dasharray:none;stroke-opacity:1" transform="matrix(1.33333 0 0 -1.33333 0 598.875)"/><text xml:space="preserve" transform="translate(27.83 411.102)scale(1.33333)"><tspan x="0" y="0" style="font-variant:normal;font-weight:400;font-size:10px;font-family:&quot;DejaVu Sans&quot;;writing-mode:lr-tb;fill:#000;fill-opacity:1;fill-rule:nonzero;stroke:none">0.714</tspan></text><path d="M57.997 188.35H711.1" clip-path="url(#k)" style="fill:none;stroke:#e6e6e6;stroke-width:1;stroke-linecap:square;stroke-linejoin:round;stroke-miterlimit:10;stroke-dasharray:none;stroke-opacity:1" transform="matrix(1.33333 0 0 -1.33333 0 598.875)"/><text xml:space="preserve" transform="translate(27.83 352.804)scale(1.33333)"><tspan x="0" y="0" style="font-variant:normal;font-weight:400;font-size:10px;font-family:&quot;DejaVu Sans&quot;;writing-mode:lr-tb;fill:#000;fill-opacity:1;fill-rule:nonzero;stroke:none">0.716</tspan></text><path d="M57.997 232.073H711.1" clip-path="url(#l)" style="fill:none;stroke:#e6e6e6;stroke-width:1;stroke-linecap:square;stroke-linejoin:round;stroke-miterlimit:10;stroke-dasharray:none;stroke-opacity:1" transform="matrix(1.33333 0 0 -1.33333 0 598.875)"/><text xml:space="preserve" transform="translate(27.83 294.506)scale(1.33333)"><tspan x="0" y="0" style="font-variant:normal;font-weight:400;font-size:10px;font-family:&quot;DejaVu Sans&quot;;writing-mode:lr-tb;fill:#000;fill-opacity:1;fill-rule:nonzero;stroke:none">0.718</tspan></text><path d="M57.997 275.796H711.1" clip-path="url(#m)" style="fill:none;stroke:#e6e6e6;stroke-width:1;stroke-linecap:square;stroke-linejoin:round;stroke-miterlimit:10;stroke-dasharray:none;stroke-opacity:1" transform="matrix(1.33333 0 0 -1.33333 0 598.875)"/><text xml:space="preserve" transform="translate(27.83 236.209)scale(1.33333)"><tspan x="0" y="0" style="font-variant:normal;font-weight:400;font-size:10px;font-family:&quot;DejaVu Sans&quot;;writing-mode:lr-tb;fill:#000;fill-opacity:1;fill-rule:nonzero;stroke:none">0.720</tspan></text><path d="M57.997 319.52H711.1" clip-path="url(#n)" style="fill:none;stroke:#e6e6e6;stroke-width:1;stroke-linecap:square;stroke-linejoin:round;stroke-miterlimit:10;stroke-dasharray:none;stroke-opacity:1" transform="matrix(1.33333 0 0 -1.33333 0 598.875)"/><text xml:space="preserve" transform="translate(27.83 177.911)scale(1.33333)"><tspan x="0" y="0" style="font-variant:normal;font-weight:400;font-size:10px;font-family:&quot;DejaVu Sans&quot;;writing-mode:lr-tb;fill:#000;fill-opacity:1;fill-rule:nonzero;stroke:none">0.722</tspan></text><path d="M57.997 363.243H711.1" clip-path="url(#o)" style="fill:none;stroke:#e6e6e6;stroke-width:1;stroke-linecap:square;stroke-linejoin:round;stroke-miterlimit:10;stroke-dasharray:none;stroke-opacity:1" transform="matrix(1.33333 0 0 -1.33333 0 598.875)"/><text xml:space="preserve" transform="translate(27.83 119.614)scale(1.33333)"><tspan x="0" y="0" style="font-variant:normal;font-weight:400;font-size:10px;font-family:&quot;DejaVu Sans&quot;;writing-mode:lr-tb;fill:#000;fill-opacity:1;fill-rule:nonzero;stroke:none">0.724</tspan></text><path d="M57.997 406.966H711.1" clip-path="url(#p)" style="fill:none;stroke:#e6e6e6;stroke-width:1;stroke-linecap:square;stroke-linejoin:round;stroke-miterlimit:10;stroke-dasharray:none;stroke-opacity:1" transform="matrix(1.33333 0 0 -1.33333 0 598.875)"/><text xml:space="preserve" transform="translate(27.83 61.316)scale(1.33333)"><tspan x="0" y="0" style="font-variant:normal;font-weight:400;font-size:10px;font-family:&quot;DejaVu Sans&quot;;writing-mode:lr-tb;fill:#000;fill-opacity:1;fill-rule:nonzero;stroke:none">0.726</tspan></text><text xml:space="preserve" transform="rotate(-90 165.785 146.06)scale(1.33333)"><tspan x="0" y="0" style="font-variant:normal;font-weight:400;font-size:10px;font-family:&quot;DejaVu Sans&quot;;writing-mode:lr-tb;fill:#000;fill-opacity:1;fill-rule:nonzero;stroke:none">ROC AUC</tspan></text><path d="m87.683 236.583 34.926 13.685 34.925 90.465h384.178l34.926 16.32h104.775" clip-path="url(#q)" style="fill:none;stroke:#1f77b4;stroke-width:1.5;stroke-linecap:square;stroke-linejoin:round;stroke-miterlimit:10;stroke-dasharray:none;stroke-opacity:1" transform="matrix(1.33333 0 0 -1.33333 0 598.875)"/><path d="m87.683 236.583 34.926 13.685 34.925 90.465 34.925-132.292 34.926-22.616 34.925 49.794 34.925 36.944 34.925 4.305 34.926-103.829 34.925 55.898 34.925-34.052 34.926 12.014 34.925 51.722 34.925 57.825 34.926 40.607 34.925-23.902 34.925 23.452 34.925-34.053" clip-path="url(#r)" style="fill:none;stroke:#1f77b4;stroke-width:1.5;stroke-linecap:butt;stroke-linejoin:round;stroke-miterlimit:10;stroke-dasharray:5.55,2.4;stroke-dashoffset:0;stroke-opacity:1" transform="matrix(1.33333 0 0 -1.33333 0 598.875)"/><path d="M87.683 229.516H262.31l34.925 84.489h69.851l34.925 5.204h34.925l34.926 20.175h209.551" clip-path="url(#s)" style="fill:none;stroke:#ff7f0e;stroke-width:1.5;stroke-linecap:square;stroke-linejoin:round;stroke-miterlimit:10;stroke-dasharray:none;stroke-opacity:1" transform="matrix(1.33333 0 0 -1.33333 0 598.875)"/><path d="m87.683 229.516 34.926-64.83 34.925-12.335 34.925-65.728 34.926 109.868 34.925-83.975 34.925 201.489 34.925-105.95 34.926 94.063 34.925 17.091 34.925-58.532 34.926 78.707 34.925-68.877 34.925 65.6 34.926-75.173 34.925-103.315 34.925-37.65 34.925 128.886" clip-path="url(#t)" style="fill:none;stroke:#ff7f0e;stroke-width:1.5;stroke-linecap:butt;stroke-linejoin:round;stroke-miterlimit:10;stroke-dasharray:5.55,2.4;stroke-dashoffset:0;stroke-opacity:1" transform="matrix(1.33333 0 0 -1.33333 0 598.875)"/><path d="M87.683 264.404h34.926l34.925 101.58h523.879" clip-path="url(#u)" style="fill:none;stroke:#2ca02c;stroke-width:1.5;stroke-linecap:square;stroke-linejoin:round;stroke-miterlimit:10;stroke-dasharray:none;stroke-opacity:1" transform="matrix(1.33333 0 0 -1.33333 0 598.875)"/><path d="m87.683 264.404 34.926-100.36 34.925 201.94 34.925-120.534 34.926-45.94 34.925 117.836 34.925-7.389 34.925-31.611 34.926-75.109 34.925 43.24 34.925-74.466 34.926-38.678 34.925 79.606 34.925-19.596 34.926 89.05 34.925-36.494 34.925-29.04 34.925 28.14" clip-path="url(#v)" style="fill:none;stroke:#2ca02c;stroke-width:1.5;stroke-linecap:butt;stroke-linejoin:round;stroke-miterlimit:10;stroke-dasharray:5.55,2.4;stroke-dashoffset:0;stroke-opacity:1" transform="matrix(1.33333 0 0 -1.33333 0 598.875)"/><path d="M87.683 221.292h139.702l34.925 2.056h69.85l34.926 11.404 34.925 18.086h34.925l34.926 125.16h209.551" clip-path="url(#w)" style="fill:none;stroke:#d62728;stroke-width:1.5;stroke-linecap:square;stroke-linejoin:round;stroke-miterlimit:10;stroke-dasharray:none;stroke-opacity:1" transform="matrix(1.33333 0 0 -1.33333 0 598.875)"/><path d="m87.683 221.292 34.926-53.907 34.925-31.932 34.925 67.27 34.926-45.553 34.925 66.178 34.925-108.327 34.925 78.322 34.926 41.409 34.925 18.086 34.925-23.772 34.926 148.932 34.925-194.036 34.925 22.102 34.926 35.338 34.925 50.05 34.925-24.928 34.925 4.626" clip-path="url(#x)" style="fill:none;stroke:#d62728;stroke-width:1.5;stroke-linecap:butt;stroke-linejoin:round;stroke-miterlimit:10;stroke-dasharray:5.55,2.4;stroke-dashoffset:0;stroke-opacity:1" transform="matrix(1.33333 0 0 -1.33333 0 598.875)"/><path d="m87.683 236.39 34.926 7.453 34.925 6.49h34.925l34.926 30.294h454.028" clip-path="url(#y)" style="fill:none;stroke:#9467bd;stroke-width:1.5;stroke-linecap:square;stroke-linejoin:round;stroke-miterlimit:10;stroke-dasharray:none;stroke-opacity:1" transform="matrix(1.33333 0 0 -1.33333 0 598.875)"/><path d="m87.683 236.39 34.926 7.453 34.925 6.49 34.925-88.73 34.926 119.024L262.31 123.63l34.925 39.9 34.925-16.898 34.926 4.369L402.01 264.66l34.925-90.786 34.926-48.702 34.925 74.852 34.925-28.399 34.926-1.157 34.925 64.058 34.925 8.417 34.925-182.6" clip-path="url(#z)" style="fill:none;stroke:#9467bd;stroke-width:1.5;stroke-linecap:butt;stroke-linejoin:round;stroke-miterlimit:10;stroke-dasharray:5.55,2.4;stroke-dashoffset:0;stroke-opacity:1" transform="matrix(1.33333 0 0 -1.33333 0 598.875)"/><path d="m87.683 161.667 34.926 4.626 34.925 117.386h523.879" clip-path="url(#A)" style="fill:none;stroke:#8c564b;stroke-width:1.5;stroke-linecap:square;stroke-linejoin:round;stroke-miterlimit:10;stroke-dasharray:none;stroke-opacity:1" transform="matrix(1.33333 0 0 -1.33333 0 598.875)"/><path d="m87.683 161.667 34.926 4.626 34.925 117.386 34.925-14.714 34.926-18.568 34.925-5.975 34.925-30.776 34.925 57.183 34.926-48.83 34.925-39 34.925 71.831 34.926 25.443 34.925-63.929 34.925 30.52 34.926-15.806 34.925-120.92 34.925 74.916 34.925-56.604" clip-path="url(#B)" style="fill:none;stroke:#8c564b;stroke-width:1.5;stroke-linecap:butt;stroke-linejoin:round;stroke-miterlimit:10;stroke-dasharray:5.55,2.4;stroke-dashoffset:0;stroke-opacity:1" transform="matrix(1.33333 0 0 -1.33333 0 598.875)"/><path d="m87.683 213.132 34.926 28.977h34.925l34.925 43.112h34.926l34.925 28.655 34.925 12.272h384.178" clip-path="url(#C)" style="fill:none;stroke:#e377c2;stroke-width:1.5;stroke-linecap:square;stroke-linejoin:round;stroke-miterlimit:10;stroke-dasharray:none;stroke-opacity:1" transform="matrix(1.33333 0 0 -1.33333 0 598.875)"/><path d="m87.683 213.132 34.926 28.977 34.925-73.696 34.925 116.808 34.926-80.313 34.925 108.968 34.925 12.272 34.925-91.043 34.926 77.23 34.925-58.661 34.925-15.677 34.926-21.203 34.925 76.265 34.925-70.29 34.926 90.658 34.925-40.157 34.925 6.682 34.925-47.16" clip-path="url(#D)" style="fill:none;stroke:#e377c2;stroke-width:1.5;stroke-linecap:butt;stroke-linejoin:round;stroke-miterlimit:10;stroke-dasharray:5.55,2.4;stroke-dashoffset:0;stroke-opacity:1" transform="matrix(1.33333 0 0 -1.33333 0 598.875)"/><path d="M87.683 268.13h279.403l34.925 37.587h279.402" clip-path="url(#E)" style="fill:none;stroke:#7f7f7f;stroke-width:1.5;stroke-linecap:square;stroke-linejoin:round;stroke-miterlimit:10;stroke-dasharray:none;stroke-opacity:1" transform="matrix(1.33333 0 0 -1.33333 0 598.875)"/><path d="m87.683 268.13 34.926-88.601 34.925 8.802 34.925-2.634 34.926-25.957 34.925-24.801 34.925 33.988 34.925 43.755 34.926-72.282 34.925 165.317 34.925-102.544 34.926-20.881 34.925 29.876 34.925-9.83 34.926 65.342 34.925-112.18 34.925 38.1 34.925-48.895" clip-path="url(#F)" style="fill:none;stroke:#7f7f7f;stroke-width:1.5;stroke-linecap:butt;stroke-linejoin:round;stroke-miterlimit:10;stroke-dasharray:5.55,2.4;stroke-dashoffset:0;stroke-opacity:1" transform="matrix(1.33333 0 0 -1.33333 0 598.875)"/><path d="M87.683 220.07h34.926l34.925 127.024h523.879" clip-path="url(#G)" style="fill:none;stroke:#bcbd22;stroke-width:1.5;stroke-linecap:square;stroke-linejoin:round;stroke-miterlimit:10;stroke-dasharray:none;stroke-opacity:1" transform="matrix(1.33333 0 0 -1.33333 0 598.875)"/><path d="m87.683 220.07 34.926-101.322 34.925 228.346 34.925-139.295 34.926 58.789 34.925-84.329 34.925-9.22 34.925 84.233 34.926 22.423 34.925-24.03 34.925-87.958 34.926 63.415 34.925 3.34 34.925 32.576 34.926-59.24 34.925 137.882 34.925-120.662 34.925-45.553" clip-path="url(#H)" style="fill:none;stroke:#bcbd22;stroke-width:1.5;stroke-linecap:butt;stroke-linejoin:round;stroke-miterlimit:10;stroke-dasharray:5.55,2.4;stroke-dashoffset:0;stroke-opacity:1" transform="matrix(1.33333 0 0 -1.33333 0 598.875)"/><path d="m87.683 176.766 34.926 74.659H332.16l34.926 78.835h244.477l34.925 86.096h34.925" clip-path="url(#I)" style="fill:none;stroke:#17becf;stroke-width:1.5;stroke-linecap:square;stroke-linejoin:round;stroke-miterlimit:10;stroke-dasharray:none;stroke-opacity:1" transform="matrix(1.33333 0 0 -1.33333 0 598.875)"/><path d="m87.683 176.766 34.926 74.659 34.925-61.745 34.925-60.106 34.926 80.345 34.925 35.723 34.925-104.214L332.16 248.02l34.926 82.24 34.925-43.947 34.925-64.7 34.926-50.308 34.925 88.151 34.925-51.336 34.926 98.432 34.925-80.056 34.925 189.86 34.925-17.284" clip-path="url(#J)" style="fill:none;stroke:#17becf;stroke-width:1.5;stroke-linecap:butt;stroke-linejoin:round;stroke-miterlimit:10;stroke-dasharray:5.55,2.4;stroke-dashoffset:0;stroke-opacity:1" transform="matrix(1.33333 0 0 -1.33333 0 598.875)"/><path d="M52.048 426.484h617.704q2 0 2 2v13.672q0 2-2 2H52.048q-2 0-2-2v-13.672q0-2 2-2z" style="fill:#fff;fill-opacity:.8;fill-rule:nonzero;stroke:#ccc;stroke-width:1;stroke-linecap:butt;stroke-linejoin:miter;stroke-miterlimit:10;stroke-dasharray:none;stroke-opacity:.8" transform="matrix(1.33333 0 0 -1.33333 0 598.875)"/><path d="M54.048 436.062h20" style="fill:none;stroke:#1f77b4;stroke-width:1.5;stroke-linecap:square;stroke-linejoin:round;stroke-miterlimit:10;stroke-dasharray:none;stroke-opacity:1" transform="matrix(1.33333 0 0 -1.33333 0 598.875)"/><text xml:space="preserve" transform="translate(109.398 22.125)scale(1.33333)"><tspan x="0" y="0" style="font-variant:normal;font-weight:400;font-size:10px;font-family:&quot;DejaVu Sans&quot;;writing-mode:lr-tb;fill:#000;fill-opacity:1;fill-rule:nonzero;stroke:none">#1</tspan></text><path d="M116.783 436.062h20" style="fill:none;stroke:#ff7f0e;stroke-width:1.5;stroke-linecap:square;stroke-linejoin:round;stroke-miterlimit:10;stroke-dasharray:none;stroke-opacity:1" transform="matrix(1.33333 0 0 -1.33333 0 598.875)"/><text xml:space="preserve" transform="translate(193.044 22.125)scale(1.33333)"><tspan x="0" y="0" style="font-variant:normal;font-weight:400;font-size:10px;font-family:&quot;DejaVu Sans&quot;;writing-mode:lr-tb;fill:#000;fill-opacity:1;fill-rule:nonzero;stroke:none">#2</tspan></text><path d="M179.517 436.062h20" style="fill:none;stroke:#2ca02c;stroke-width:1.5;stroke-linecap:square;stroke-linejoin:round;stroke-miterlimit:10;stroke-dasharray:none;stroke-opacity:1" transform="matrix(1.33333 0 0 -1.33333 0 598.875)"/><text xml:space="preserve" transform="translate(276.69 22.125)scale(1.33333)"><tspan x="0" y="0" style="font-variant:normal;font-weight:400;font-size:10px;font-family:&quot;DejaVu Sans&quot;;writing-mode:lr-tb;fill:#000;fill-opacity:1;fill-rule:nonzero;stroke:none">#3</tspan></text><path d="M242.252 436.062h20" style="fill:none;stroke:#d62728;stroke-width:1.5;stroke-linecap:square;stroke-linejoin:round;stroke-miterlimit:10;stroke-dasharray:none;stroke-opacity:1" transform="matrix(1.33333 0 0 -1.33333 0 598.875)"/><text xml:space="preserve" transform="translate(360.335 22.125)scale(1.33333)"><tspan x="0" y="0" style="font-variant:normal;font-weight:400;font-size:10px;font-family:&quot;DejaVu Sans&quot;;writing-mode:lr-tb;fill:#000;fill-opacity:1;fill-rule:nonzero;stroke:none">#4</tspan></text><path d="M304.986 436.062h20" style="fill:none;stroke:#9467bd;stroke-width:1.5;stroke-linecap:square;stroke-linejoin:round;stroke-miterlimit:10;stroke-dasharray:none;stroke-opacity:1" transform="matrix(1.33333 0 0 -1.33333 0 598.875)"/><text xml:space="preserve" transform="translate(443.981 22.125)scale(1.33333)"><tspan x="0" y="0" style="font-variant:normal;font-weight:400;font-size:10px;font-family:&quot;DejaVu Sans&quot;;writing-mode:lr-tb;fill:#000;fill-opacity:1;fill-rule:nonzero;stroke:none">#5</tspan></text><path d="M367.72 436.062h20" style="fill:none;stroke:#8c564b;stroke-width:1.5;stroke-linecap:square;stroke-linejoin:round;stroke-miterlimit:10;stroke-dasharray:none;stroke-opacity:1" transform="matrix(1.33333 0 0 -1.33333 0 598.875)"/><text xml:space="preserve" transform="translate(527.627 22.125)scale(1.33333)"><tspan x="0" y="0" style="font-variant:normal;font-weight:400;font-size:10px;font-family:&quot;DejaVu Sans&quot;;writing-mode:lr-tb;fill:#000;fill-opacity:1;fill-rule:nonzero;stroke:none">#6</tspan></text><path d="M430.455 436.062h20" style="fill:none;stroke:#e377c2;stroke-width:1.5;stroke-linecap:square;stroke-linejoin:round;stroke-miterlimit:10;stroke-dasharray:none;stroke-opacity:1" transform="matrix(1.33333 0 0 -1.33333 0 598.875)"/><text xml:space="preserve" transform="translate(611.273 22.125)scale(1.33333)"><tspan x="0" y="0" style="font-variant:normal;font-weight:400;font-size:10px;font-family:&quot;DejaVu Sans&quot;;writing-mode:lr-tb;fill:#000;fill-opacity:1;fill-rule:nonzero;stroke:none">#7</tspan></text><path d="M493.19 436.062h20" style="fill:none;stroke:#7f7f7f;stroke-width:1.5;stroke-linecap:square;stroke-linejoin:round;stroke-miterlimit:10;stroke-dasharray:none;stroke-opacity:1" transform="matrix(1.33333 0 0 -1.33333 0 598.875)"/><text xml:space="preserve" transform="translate(694.919 22.125)scale(1.33333)"><tspan x="0" y="0" style="font-variant:normal;font-weight:400;font-size:10px;font-family:&quot;DejaVu Sans&quot;;writing-mode:lr-tb;fill:#000;fill-opacity:1;fill-rule:nonzero;stroke:none">#8</tspan></text><path d="M555.923 436.062h20" style="fill:none;stroke:#bcbd22;stroke-width:1.5;stroke-linecap:square;stroke-linejoin:round;stroke-miterlimit:10;stroke-dasharray:none;stroke-opacity:1" transform="matrix(1.33333 0 0 -1.33333 0 598.875)"/><text xml:space="preserve" transform="translate(778.565 22.125)scale(1.33333)"><tspan x="0" y="0" style="font-variant:normal;font-weight:400;font-size:10px;font-family:&quot;DejaVu Sans&quot;;writing-mode:lr-tb;fill:#000;fill-opacity:1;fill-rule:nonzero;stroke:none">#9</tspan></text><path d="M618.658 436.062h20" style="fill:none;stroke:#17becf;stroke-width:1.5;stroke-linecap:square;stroke-linejoin:round;stroke-miterlimit:10;stroke-dasharray:none;stroke-opacity:1" transform="matrix(1.33333 0 0 -1.33333 0 598.875)"/><text xml:space="preserve" transform="translate(862.21 22.125)scale(1.33333)"><tspan x="0" y="0" style="font-variant:normal;font-weight:400;font-size:10px;font-family:&quot;DejaVu Sans&quot;;writing-mode:lr-tb;fill:#000;fill-opacity:1;fill-rule:nonzero;stroke:none">#10</tspan></text></svg>