<?xml version="1.0" encoding="UTF-8" standalone="no"?>
<!-- Created with Inkscape (http://www.inkscape.org/) -->

<svg
   version="1.1"
   id="svg1"
   width="962.40002"
   height="598.875"
   viewBox="0 0 962.40002 598.875"
   xmlns="http://www.w3.org/2000/svg"
   xmlns:svg="http://www.w3.org/2000/svg">
  <defs
     id="defs1">
    <clipPath
       clipPathUnits="userSpaceOnUse"
       id="clipPath2">
      <path
         d="M 57.996875,42.54375 H 711.1 V 434.15624 H 57.996875 Z"
         id="path2" />
    </clipPath>
    <clipPath
       clipPathUnits="userSpaceOnUse"
       id="clipPath5">
      <path
         d="M 57.996875,42.54375 H 711.1 V 434.15624 H 57.996875 Z"
         id="path5" />
    </clipPath>
    <clipPath
       clipPathUnits="userSpaceOnUse"
       id="clipPath8">
      <path
         d="M 57.996875,42.54375 H 711.1 V 434.15624 H 57.996875 Z"
         id="path8" />
    </clipPath>
    <clipPath
       clipPathUnits="userSpaceOnUse"
       id="clipPath11">
      <path
         d="M 57.996875,42.54375 H 711.1 V 434.15624 H 57.996875 Z"
         id="path11" />
    </clipPath>
    <clipPath
       clipPathUnits="userSpaceOnUse"
       id="clipPath14">
      <path
         d="M 57.996875,42.54375 H 711.1 V 434.15624 H 57.996875 Z"
         id="path14" />
    </clipPath>
    <clipPath
       clipPathUnits="userSpaceOnUse"
       id="clipPath17">
      <path
         d="M 57.996875,42.54375 H 711.1 V 434.15624 H 57.996875 Z"
         id="path17" />
    </clipPath>
    <clipPath
       clipPathUnits="userSpaceOnUse"
       id="clipPath20">
      <path
         d="M 57.996875,42.54375 H 711.1 V 434.15624 H 57.996875 Z"
         id="path20" />
    </clipPath>
    <clipPath
       clipPathUnits="userSpaceOnUse"
       id="clipPath23">
      <path
         d="M 57.996875,42.54375 H 711.1 V 434.15624 H 57.996875 Z"
         id="path23" />
    </clipPath>
    <clipPath
       clipPathUnits="userSpaceOnUse"
       id="clipPath25">
      <path
         d="M 57.996875,42.54375 H 711.1 V 434.15624 H 57.996875 Z"
         id="path25" />
    </clipPath>
    <clipPath
       clipPathUnits="userSpaceOnUse"
       id="clipPath27">
      <path
         d="M 57.996875,42.54375 H 711.1 V 434.15624 H 57.996875 Z"
         id="path27" />
    </clipPath>
    <clipPath
       clipPathUnits="userSpaceOnUse"
       id="clipPath29">
      <path
         d="M 57.996875,42.54375 H 711.1 V 434.15624 H 57.996875 Z"
         id="path29" />
    </clipPath>
    <clipPath
       clipPathUnits="userSpaceOnUse"
       id="clipPath31">
      <path
         d="M 57.996875,42.54375 H 711.1 V 434.15624 H 57.996875 Z"
         id="path31" />
    </clipPath>
    <clipPath
       clipPathUnits="userSpaceOnUse"
       id="clipPath33">
      <path
         d="M 57.996875,42.54375 H 711.1 V 434.15624 H 57.996875 Z"
         id="path33" />
    </clipPath>
    <clipPath
       clipPathUnits="userSpaceOnUse"
       id="clipPath35">
      <path
         d="M 57.996875,42.54375 H 711.1 V 434.15624 H 57.996875 Z"
         id="path35" />
    </clipPath>
    <clipPath
       clipPathUnits="userSpaceOnUse"
       id="clipPath37">
      <path
         d="M 57.996875,42.54375 H 711.1 V 434.15624 H 57.996875 Z"
         id="path37" />
    </clipPath>
    <clipPath
       clipPathUnits="userSpaceOnUse"
       id="clipPath39">
      <path
         d="M 57.996875,42.54375 H 711.1 V 434.15624 H 57.996875 Z"
         id="path39" />
    </clipPath>
    <clipPath
       clipPathUnits="userSpaceOnUse"
       id="clipPath41">
      <path
         d="M 57.996875,42.54375 H 711.1 V 434.15624 H 57.996875 Z"
         id="path41" />
    </clipPath>
    <clipPath
       clipPathUnits="userSpaceOnUse"
       id="clipPath43">
      <path
         d="M 57.996875,42.54375 H 711.1 V 434.15624 H 57.996875 Z"
         id="path43" />
    </clipPath>
    <clipPath
       clipPathUnits="userSpaceOnUse"
       id="clipPath45">
      <path
         d="M 57.996875,42.54375 H 711.1 V 434.15624 H 57.996875 Z"
         id="path45" />
    </clipPath>
    <clipPath
       clipPathUnits="userSpaceOnUse"
       id="clipPath47">
      <path
         d="M 57.996875,42.54375 H 711.1 V 434.15624 H 57.996875 Z"
         id="path47" />
    </clipPath>
    <clipPath
       clipPathUnits="userSpaceOnUse"
       id="clipPath49">
      <path
         d="M 57.996875,42.54375 H 711.1 V 434.15624 H 57.996875 Z"
         id="path49" />
    </clipPath>
    <clipPath
       clipPathUnits="userSpaceOnUse"
       id="clipPath51">
      <path
         d="M 57.996875,42.54375 H 711.1 V 434.15624 H 57.996875 Z"
         id="path51" />
    </clipPath>
    <clipPath
       clipPathUnits="userSpaceOnUse"
       id="clipPath53">
      <path
         d="M 57.996875,42.54375 H 711.1 V 434.15624 H 57.996875 Z"
         id="path53" />
    </clipPath>
    <clipPath
       clipPathUnits="userSpaceOnUse"
       id="clipPath55">
      <path
         d="M 57.996875,42.54375 H 711.1 V 434.15624 H 57.996875 Z"
         id="path55" />
    </clipPath>
    <clipPath
       clipPathUnits="userSpaceOnUse"
       id="clipPath57">
      <path
         d="M 57.996875,42.54375 H 711.1 V 434.15624 H 57.996875 Z"
         id="path57" />
    </clipPath>
    <clipPath
       clipPathUnits="userSpaceOnUse"
       id="clipPath59">
      <path
         d="M 57.996875,42.54375 H 711.1 V 434.15624 H 57.996875 Z"
         id="path59" />
    </clipPath>
    <clipPath
       clipPathUnits="userSpaceOnUse"
       id="clipPath61">
      <path
         d="M 57.996875,42.54375 H 711.1 V 434.15624 H 57.996875 Z"
         id="path61" />
    </clipPath>
    <clipPath
       clipPathUnits="userSpaceOnUse"
       id="clipPath63">
      <path
         d="M 57.996875,42.54375 H 711.1 V 434.15624 H 57.996875 Z"
         id="path63" />
    </clipPath>
    <clipPath
       clipPathUnits="userSpaceOnUse"
       id="clipPath65">
      <path
         d="M 57.996875,42.54375 H 711.1 V 434.15624 H 57.996875 Z"
         id="path65" />
    </clipPath>
    <clipPath
       clipPathUnits="userSpaceOnUse"
       id="clipPath67">
      <path
         d="M 57.996875,42.54375 H 711.1 V 434.15624 H 57.996875 Z"
         id="path67" />
    </clipPath>
    <clipPath
       clipPathUnits="userSpaceOnUse"
       id="clipPath69">
      <path
         d="M 57.996875,42.54375 H 711.1 V 434.15624 H 57.996875 Z"
         id="path69" />
    </clipPath>
    <clipPath
       clipPathUnits="userSpaceOnUse"
       id="clipPath71">
      <path
         d="M 57.996875,42.54375 H 711.1 V 434.15624 H 57.996875 Z"
         id="path71" />
    </clipPath>
    <clipPath
       clipPathUnits="userSpaceOnUse"
       id="clipPath73">
      <path
         d="M 57.996875,42.54375 H 711.1 V 434.15624 H 57.996875 Z"
         id="path73" />
    </clipPath>
    <clipPath
       clipPathUnits="userSpaceOnUse"
       id="clipPath75">
      <path
         d="M 57.996875,42.54375 H 711.1 V 434.15624 H 57.996875 Z"
         id="path75" />
    </clipPath>
    <clipPath
       clipPathUnits="userSpaceOnUse"
       id="clipPath77">
      <path
         d="M 57.996875,42.54375 H 711.1 V 434.15624 H 57.996875 Z"
         id="path77" />
    </clipPath>
    <clipPath
       clipPathUnits="userSpaceOnUse"
       id="clipPath79">
      <path
         d="M 57.996875,42.54375 H 711.1 V 434.15624 H 57.996875 Z"
         id="path79" />
    </clipPath>
  </defs>
  <g
     id="g1">
    <path
       id="path1"
       d="M 140.07133,42.54375 V 434.15624"
       style="fill:none;stroke:#e6e6e6;stroke-width:1;stroke-linecap:square;stroke-linejoin:round;stroke-miterlimit:10;stroke-dasharray:none;stroke-opacity:1"
       transform="matrix(1.3333333,0,0,-1.3333333,0,598.87499)"
       clip-path="url(#clipPath2)" />
    <path
       id="path3"
       d="m 140.07133,37.54375 v -3.5"
       style="fill:#000000;fill-opacity:1;fill-rule:nonzero;stroke:#000000;stroke-width:0.8;stroke-linecap:butt;stroke-linejoin:round;stroke-miterlimit:10;stroke-dasharray:none;stroke-opacity:1"
       transform="matrix(1.3333333,0,0,-1.3333333,0,598.87499)" />
    <text
       id="text3"
       xml:space="preserve"
       transform="matrix(1.3333333,0,0,1.3333333,176.15761,568.27499)"><tspan
         id="tspan3"
         style="font-variant:normal;font-weight:normal;font-size:10px;font-family:'DejaVu Sans';writing-mode:lr-tb;fill:#000000;fill-opacity:1;fill-rule:nonzero;stroke:none"
         x="0"
         y="0">2.5</tspan></text>
    <path
       id="path4"
       d="M 227.38458,42.54375 V 434.15624"
       style="fill:none;stroke:#e6e6e6;stroke-width:1;stroke-linecap:square;stroke-linejoin:round;stroke-miterlimit:10;stroke-dasharray:none;stroke-opacity:1"
       transform="matrix(1.3333333,0,0,-1.3333333,0,598.87499)"
       clip-path="url(#clipPath5)" />
    <path
       id="path6"
       d="m 227.38458,37.54375 v -3.5"
       style="fill:#000000;fill-opacity:1;fill-rule:nonzero;stroke:#000000;stroke-width:0.8;stroke-linecap:butt;stroke-linejoin:round;stroke-miterlimit:10;stroke-dasharray:none;stroke-opacity:1"
       transform="matrix(1.3333333,0,0,-1.3333333,0,598.87499)" />
    <text
       id="text6"
       xml:space="preserve"
       transform="matrix(1.3333333,0,0,1.3333333,292.57528,568.27499)"><tspan
         id="tspan6"
         style="font-variant:normal;font-weight:normal;font-size:10px;font-family:'DejaVu Sans';writing-mode:lr-tb;fill:#000000;fill-opacity:1;fill-rule:nonzero;stroke:none"
         x="0"
         y="0">5.0</tspan></text>
    <path
       id="path7"
       d="M 314.69784,42.54375 V 434.15624"
       style="fill:none;stroke:#e6e6e6;stroke-width:1;stroke-linecap:square;stroke-linejoin:round;stroke-miterlimit:10;stroke-dasharray:none;stroke-opacity:1"
       transform="matrix(1.3333333,0,0,-1.3333333,0,598.87499)"
       clip-path="url(#clipPath8)" />
    <path
       id="path9"
       d="m 314.69784,37.54375 v -3.5"
       style="fill:#000000;fill-opacity:1;fill-rule:nonzero;stroke:#000000;stroke-width:0.8;stroke-linecap:butt;stroke-linejoin:round;stroke-miterlimit:10;stroke-dasharray:none;stroke-opacity:1"
       transform="matrix(1.3333333,0,0,-1.3333333,0,598.87499)" />
    <text
       id="text9"
       xml:space="preserve"
       transform="matrix(1.3333333,0,0,1.3333333,408.99295,568.27499)"><tspan
         id="tspan9"
         style="font-variant:normal;font-weight:normal;font-size:10px;font-family:'DejaVu Sans';writing-mode:lr-tb;fill:#000000;fill-opacity:1;fill-rule:nonzero;stroke:none"
         x="0"
         y="0">7.5</tspan></text>
    <path
       id="path10"
       d="M 402.01109,42.54375 V 434.15624"
       style="fill:none;stroke:#e6e6e6;stroke-width:1;stroke-linecap:square;stroke-linejoin:round;stroke-miterlimit:10;stroke-dasharray:none;stroke-opacity:1"
       transform="matrix(1.3333333,0,0,-1.3333333,0,598.87499)"
       clip-path="url(#clipPath11)" />
    <path
       id="path12"
       d="m 402.01109,37.54375 v -3.5"
       style="fill:#000000;fill-opacity:1;fill-rule:nonzero;stroke:#000000;stroke-width:0.8;stroke-linecap:butt;stroke-linejoin:round;stroke-miterlimit:10;stroke-dasharray:none;stroke-opacity:1"
       transform="matrix(1.3333333,0,0,-1.3333333,0,598.87499)" />
    <text
       id="text12"
       xml:space="preserve"
       transform="matrix(1.3333333,0,0,1.3333333,521.17103,568.27499)"><tspan
         id="tspan12"
         style="font-variant:normal;font-weight:normal;font-size:10px;font-family:'DejaVu Sans';writing-mode:lr-tb;fill:#000000;fill-opacity:1;fill-rule:nonzero;stroke:none"
         x="0"
         y="0">10.0</tspan></text>
    <path
       id="path13"
       d="M 489.32434,42.54375 V 434.15624"
       style="fill:none;stroke:#e6e6e6;stroke-width:1;stroke-linecap:square;stroke-linejoin:round;stroke-miterlimit:10;stroke-dasharray:none;stroke-opacity:1"
       transform="matrix(1.3333333,0,0,-1.3333333,0,598.87499)"
       clip-path="url(#clipPath14)" />
    <path
       id="path15"
       d="m 489.32434,37.54375 v -3.5"
       style="fill:#000000;fill-opacity:1;fill-rule:nonzero;stroke:#000000;stroke-width:0.8;stroke-linecap:butt;stroke-linejoin:round;stroke-miterlimit:10;stroke-dasharray:none;stroke-opacity:1"
       transform="matrix(1.3333333,0,0,-1.3333333,0,598.87499)" />
    <text
       id="text15"
       xml:space="preserve"
       transform="matrix(1.3333333,0,0,1.3333333,637.5887,568.27499)"><tspan
         id="tspan15"
         style="font-variant:normal;font-weight:normal;font-size:10px;font-family:'DejaVu Sans';writing-mode:lr-tb;fill:#000000;fill-opacity:1;fill-rule:nonzero;stroke:none"
         x="0"
         y="0">12.5</tspan></text>
    <path
       id="path16"
       d="M 576.63759,42.54375 V 434.15624"
       style="fill:none;stroke:#e6e6e6;stroke-width:1;stroke-linecap:square;stroke-linejoin:round;stroke-miterlimit:10;stroke-dasharray:none;stroke-opacity:1"
       transform="matrix(1.3333333,0,0,-1.3333333,0,598.87499)"
       clip-path="url(#clipPath17)" />
    <path
       id="path18"
       d="m 576.63759,37.54375 v -3.5"
       style="fill:#000000;fill-opacity:1;fill-rule:nonzero;stroke:#000000;stroke-width:0.8;stroke-linecap:butt;stroke-linejoin:round;stroke-miterlimit:10;stroke-dasharray:none;stroke-opacity:1"
       transform="matrix(1.3333333,0,0,-1.3333333,0,598.87499)" />
    <text
       id="text18"
       xml:space="preserve"
       transform="matrix(1.3333333,0,0,1.3333333,754.00637,568.27499)"><tspan
         id="tspan18"
         style="font-variant:normal;font-weight:normal;font-size:10px;font-family:'DejaVu Sans';writing-mode:lr-tb;fill:#000000;fill-opacity:1;fill-rule:nonzero;stroke:none"
         x="0"
         y="0">15.0</tspan></text>
    <path
       id="path19"
       d="M 663.95084,42.54375 V 434.15624"
       style="fill:none;stroke:#e6e6e6;stroke-width:1;stroke-linecap:square;stroke-linejoin:round;stroke-miterlimit:10;stroke-dasharray:none;stroke-opacity:1"
       transform="matrix(1.3333333,0,0,-1.3333333,0,598.87499)"
       clip-path="url(#clipPath20)" />
    <path
       id="path21"
       d="m 663.95084,37.54375 v -3.5"
       style="fill:#000000;fill-opacity:1;fill-rule:nonzero;stroke:#000000;stroke-width:0.8;stroke-linecap:butt;stroke-linejoin:round;stroke-miterlimit:10;stroke-dasharray:none;stroke-opacity:1"
       transform="matrix(1.3333333,0,0,-1.3333333,0,598.87499)" />
    <text
       id="text21"
       xml:space="preserve"
       transform="matrix(1.3333333,0,0,1.3333333,870.42404,568.27499)"><tspan
         id="tspan21"
         style="font-variant:normal;font-weight:normal;font-size:10px;font-family:'DejaVu Sans';writing-mode:lr-tb;fill:#000000;fill-opacity:1;fill-rule:nonzero;stroke:none"
         x="0"
         y="0">17.5</tspan></text>
    <text
       id="text22"
       xml:space="preserve"
       transform="matrix(1.3333333,0,0,1.3333333,475.52292,586.50416)"><tspan
         id="tspan22"
         style="font-variant:normal;font-weight:normal;font-size:10px;font-family:'DejaVu Sans';writing-mode:lr-tb;fill:#000000;fill-opacity:1;fill-rule:nonzero;stroke:none"
         x="0"
         y="0">Generation</tspan></text>
    <path
       id="path22"
       d="M 57.996875,57.180629 H 711.1"
       style="fill:none;stroke:#e6e6e6;stroke-width:1;stroke-linecap:square;stroke-linejoin:round;stroke-miterlimit:10;stroke-dasharray:none;stroke-opacity:1"
       transform="matrix(1.3333333,0,0,-1.3333333,0,598.87499)"
       clip-path="url(#clipPath23)" />
    <text
       id="text23"
       xml:space="preserve"
       transform="matrix(1.3333333,0,0,1.3333333,27.829167,527.69665)"><tspan
         id="tspan23"
         style="font-variant:normal;font-weight:normal;font-size:10px;font-family:'DejaVu Sans';writing-mode:lr-tb;fill:#000000;fill-opacity:1;fill-rule:nonzero;stroke:none"
         x="0"
         y="0">0.710</tspan></text>
    <path
       id="path24"
       d="M 57.996875,100.90378 H 711.1"
       style="fill:none;stroke:#e6e6e6;stroke-width:1;stroke-linecap:square;stroke-linejoin:round;stroke-miterlimit:10;stroke-dasharray:none;stroke-opacity:1"
       transform="matrix(1.3333333,0,0,-1.3333333,0,598.87499)"
       clip-path="url(#clipPath25)" />
    <text
       id="text25"
       xml:space="preserve"
       transform="matrix(1.3333333,0,0,1.3333333,27.829167,469.39911)"><tspan
         id="tspan25"
         style="font-variant:normal;font-weight:normal;font-size:10px;font-family:'DejaVu Sans';writing-mode:lr-tb;fill:#000000;fill-opacity:1;fill-rule:nonzero;stroke:none"
         x="0"
         y="0">0.712</tspan></text>
    <path
       id="path26"
       d="M 57.996875,144.62694 H 711.1"
       style="fill:none;stroke:#e6e6e6;stroke-width:1;stroke-linecap:square;stroke-linejoin:round;stroke-miterlimit:10;stroke-dasharray:none;stroke-opacity:1"
       transform="matrix(1.3333333,0,0,-1.3333333,0,598.87499)"
       clip-path="url(#clipPath27)" />
    <text
       id="text27"
       xml:space="preserve"
       transform="matrix(1.3333333,0,0,1.3333333,27.829167,411.10157)"><tspan
         id="tspan27"
         style="font-variant:normal;font-weight:normal;font-size:10px;font-family:'DejaVu Sans';writing-mode:lr-tb;fill:#000000;fill-opacity:1;fill-rule:nonzero;stroke:none"
         x="0"
         y="0">0.714</tspan></text>
    <path
       id="path28"
       d="M 57.996875,188.35009 H 711.1"
       style="fill:none;stroke:#e6e6e6;stroke-width:1;stroke-linecap:square;stroke-linejoin:round;stroke-miterlimit:10;stroke-dasharray:none;stroke-opacity:1"
       transform="matrix(1.3333333,0,0,-1.3333333,0,598.87499)"
       clip-path="url(#clipPath29)" />
    <text
       id="text29"
       xml:space="preserve"
       transform="matrix(1.3333333,0,0,1.3333333,27.829167,352.80403)"><tspan
         id="tspan29"
         style="font-variant:normal;font-weight:normal;font-size:10px;font-family:'DejaVu Sans';writing-mode:lr-tb;fill:#000000;fill-opacity:1;fill-rule:nonzero;stroke:none"
         x="0"
         y="0">0.716</tspan></text>
    <path
       id="path30"
       d="M 57.996875,232.07325 H 711.1"
       style="fill:none;stroke:#e6e6e6;stroke-width:1;stroke-linecap:square;stroke-linejoin:round;stroke-miterlimit:10;stroke-dasharray:none;stroke-opacity:1"
       transform="matrix(1.3333333,0,0,-1.3333333,0,598.87499)"
       clip-path="url(#clipPath31)" />
    <text
       id="text31"
       xml:space="preserve"
       transform="matrix(1.3333333,0,0,1.3333333,27.829167,294.50649)"><tspan
         id="tspan31"
         style="font-variant:normal;font-weight:normal;font-size:10px;font-family:'DejaVu Sans';writing-mode:lr-tb;fill:#000000;fill-opacity:1;fill-rule:nonzero;stroke:none"
         x="0"
         y="0">0.718</tspan></text>
    <path
       id="path32"
       d="M 57.996875,275.7964 H 711.1"
       style="fill:none;stroke:#e6e6e6;stroke-width:1;stroke-linecap:square;stroke-linejoin:round;stroke-miterlimit:10;stroke-dasharray:none;stroke-opacity:1"
       transform="matrix(1.3333333,0,0,-1.3333333,0,598.87499)"
       clip-path="url(#clipPath33)" />
    <text
       id="text33"
       xml:space="preserve"
       transform="matrix(1.3333333,0,0,1.3333333,27.829167,236.20895)"><tspan
         id="tspan33"
         style="font-variant:normal;font-weight:normal;font-size:10px;font-family:'DejaVu Sans';writing-mode:lr-tb;fill:#000000;fill-opacity:1;fill-rule:nonzero;stroke:none"
         x="0"
         y="0">0.720</tspan></text>
    <path
       id="path34"
       d="M 57.996875,319.51956 H 711.1"
       style="fill:none;stroke:#e6e6e6;stroke-width:1;stroke-linecap:square;stroke-linejoin:round;stroke-miterlimit:10;stroke-dasharray:none;stroke-opacity:1"
       transform="matrix(1.3333333,0,0,-1.3333333,0,598.87499)"
       clip-path="url(#clipPath35)" />
    <text
       id="text35"
       xml:space="preserve"
       transform="matrix(1.3333333,0,0,1.3333333,27.829167,177.91141)"><tspan
         id="tspan35"
         style="font-variant:normal;font-weight:normal;font-size:10px;font-family:'DejaVu Sans';writing-mode:lr-tb;fill:#000000;fill-opacity:1;fill-rule:nonzero;stroke:none"
         x="0"
         y="0">0.722</tspan></text>
    <path
       id="path36"
       d="M 57.996875,363.24271 H 711.1"
       style="fill:none;stroke:#e6e6e6;stroke-width:1;stroke-linecap:square;stroke-linejoin:round;stroke-miterlimit:10;stroke-dasharray:none;stroke-opacity:1"
       transform="matrix(1.3333333,0,0,-1.3333333,0,598.87499)"
       clip-path="url(#clipPath37)" />
    <text
       id="text37"
       xml:space="preserve"
       transform="matrix(1.3333333,0,0,1.3333333,27.829167,119.61387)"><tspan
         id="tspan37"
         style="font-variant:normal;font-weight:normal;font-size:10px;font-family:'DejaVu Sans';writing-mode:lr-tb;fill:#000000;fill-opacity:1;fill-rule:nonzero;stroke:none"
         x="0"
         y="0">0.724</tspan></text>
    <path
       id="path38"
       d="M 57.996875,406.96587 H 711.1"
       style="fill:none;stroke:#e6e6e6;stroke-width:1;stroke-linecap:square;stroke-linejoin:round;stroke-miterlimit:10;stroke-dasharray:none;stroke-opacity:1"
       transform="matrix(1.3333333,0,0,-1.3333333,0,598.87499)"
       clip-path="url(#clipPath39)" />
    <text
       id="text39"
       xml:space="preserve"
       transform="matrix(1.3333333,0,0,1.3333333,27.829167,61.316334)"><tspan
         id="tspan39"
         style="font-variant:normal;font-weight:normal;font-size:10px;font-family:'DejaVu Sans';writing-mode:lr-tb;fill:#000000;fill-opacity:1;fill-rule:nonzero;stroke:none"
         x="0"
         y="0">0.726</tspan></text>
    <text
       id="text40"
       xml:space="preserve"
       transform="matrix(0,-1.3333333,1.3333333,0,19.725,311.84583)"><tspan
         id="tspan40"
         style="font-variant:normal;font-weight:normal;font-size:10px;font-family:'DejaVu Sans';writing-mode:lr-tb;fill:#000000;fill-opacity:1;fill-rule:nonzero;stroke:none"
         x="0"
         y="0">ROC AUC</tspan></text>
    <path
       id="path40"
       d="m 87.683381,236.58311 34.925299,13.68533 34.9253,90.46454 h 34.9253 34.9253 34.92531 34.92529 34.92531 34.9253 34.9253 34.9253 34.9253 34.9253 34.9253 l 34.9253,16.31959 h 34.9253 34.9253 34.9253"
       style="fill:none;stroke:#1f77b4;stroke-width:1.5;stroke-linecap:square;stroke-linejoin:round;stroke-miterlimit:10;stroke-dasharray:none;stroke-opacity:1"
       transform="matrix(1.3333333,0,0,-1.3333333,0,598.87499)"
       clip-path="url(#clipPath41)" />
    <path
       id="path42"
       d="m 87.683381,236.58311 34.925299,13.68533 34.9253,90.46454 34.9253,-132.29154 34.9253,-22.61613 34.92531,49.79404 34.92529,36.94397 34.92531,4.30478 34.9253,-103.82862 34.9253,55.89783 34.9253,-34.0527 34.9253,12.01482 34.9253,51.72156 34.9253,57.82534 34.9253,40.60624 34.9253,-23.90114 34.9253,23.45139 34.9253,-34.0527"
       style="fill:none;stroke:#1f77b4;stroke-width:1.5;stroke-linecap:butt;stroke-linejoin:round;stroke-miterlimit:10;stroke-dasharray:5.55, 2.4;stroke-dashoffset:0;stroke-opacity:1"
       transform="matrix(1.3333333,0,0,-1.3333333,0,598.87499)"
       clip-path="url(#clipPath43)" />
    <path
       id="path44"
       d="m 87.683381,229.51557 h 34.925299 34.9253 34.9253 34.9253 34.92531 l 34.92529,84.48925 h 34.92531 34.9253 l 34.9253,5.20428 h 34.9253 l 34.9253,20.17462 h 34.9253 34.9253 34.9253 34.9253 34.9253 34.9253"
       style="fill:none;stroke:#ff7f0e;stroke-width:1.5;stroke-linecap:square;stroke-linejoin:round;stroke-miterlimit:10;stroke-dasharray:none;stroke-opacity:1"
       transform="matrix(1.3333333,0,0,-1.3333333,0,598.87499)"
       clip-path="url(#clipPath45)" />
    <path
       id="path46"
       d="m 87.683381,229.51557 34.925299,-64.82864 34.9253,-12.33607 34.9253,-65.728137 34.9253,109.868147 34.92531,-83.97524 34.92529,201.48919 34.92531,-105.94888 34.9253,94.06256 34.9253,17.0906 34.9253,-58.5321 34.9253,78.70672 34.9253,-68.87641 34.9253,65.59964 34.9253,-75.17295 34.9253,-103.31461 34.9253,-37.65072 34.9253,128.88626"
       style="fill:none;stroke:#ff7f0e;stroke-width:1.5;stroke-linecap:butt;stroke-linejoin:round;stroke-miterlimit:10;stroke-dasharray:5.55, 2.4;stroke-dashoffset:0;stroke-opacity:1"
       transform="matrix(1.3333333,0,0,-1.3333333,0,598.87499)"
       clip-path="url(#clipPath47)" />
    <path
       id="path48"
       d="m 87.683381,264.40352 h 34.925299 l 34.9253,101.57986 h 34.9253 34.9253 34.92531 34.92529 34.92531 34.9253 34.9253 34.9253 34.9253 34.9253 34.9253 34.9253 34.9253 34.9253 34.9253"
       style="fill:none;stroke:#2ca02c;stroke-width:1.5;stroke-linecap:square;stroke-linejoin:round;stroke-miterlimit:10;stroke-dasharray:none;stroke-opacity:1"
       transform="matrix(1.3333333,0,0,-1.3333333,0,598.87499)"
       clip-path="url(#clipPath49)" />
    <path
       id="path50"
       d="m 87.683381,264.40352 34.925299,-100.35909 34.9253,201.93895 34.9253,-120.53372 34.9253,-45.93902 34.92531,117.8352 34.92529,-7.3888 34.92531,-31.61118 34.9253,-75.1087 34.9253,43.24051 34.9253,-74.46619 34.9253,-38.67873 34.9253,79.60622 34.9253,-19.59637 34.9253,89.05103 34.9253,-36.49421 34.9253,-29.04118 34.9253,28.14167"
       style="fill:none;stroke:#2ca02c;stroke-width:1.5;stroke-linecap:butt;stroke-linejoin:round;stroke-miterlimit:10;stroke-dasharray:5.55, 2.4;stroke-dashoffset:0;stroke-opacity:1"
       transform="matrix(1.3333333,0,0,-1.3333333,0,598.87499)"
       clip-path="url(#clipPath51)" />
    <path
       id="path52"
       d="m 87.683381,221.29152 h 34.925299 34.9253 34.9253 34.9253 l 34.92531,2.05601 h 34.92529 34.92531 l 34.9253,11.40444 34.9253,18.08649 h 34.9253 l 34.9253,125.15974 h 34.9253 34.9253 34.9253 34.9253 34.9253 34.9253"
       style="fill:none;stroke:#d62728;stroke-width:1.5;stroke-linecap:square;stroke-linejoin:round;stroke-miterlimit:10;stroke-dasharray:none;stroke-opacity:1"
       transform="matrix(1.3333333,0,0,-1.3333333,0,598.87499)"
       clip-path="url(#clipPath53)" />
    <path
       id="path54"
       d="m 87.683381,221.29152 34.925299,-53.90607 34.9253,-31.93244 34.9253,67.27015 34.9253,-45.55352 34.92531,66.17789 34.92529,-108.32614 34.92531,78.32121 34.9253,41.40937 34.9253,18.08649 34.9253,-23.77264 34.9253,148.93238 34.9253,-194.03615 34.9253,22.10213 34.9253,35.33771 34.9253,50.05104 34.9253,-24.92914 34.9253,4.62603"
       style="fill:none;stroke:#d62728;stroke-width:1.5;stroke-linecap:butt;stroke-linejoin:round;stroke-miterlimit:10;stroke-dasharray:5.55, 2.4;stroke-dashoffset:0;stroke-opacity:1"
       transform="matrix(1.3333333,0,0,-1.3333333,0,598.87499)"
       clip-path="url(#clipPath55)" />
    <path
       id="path56"
       d="m 87.683381,236.39036 34.925299,7.45304 34.9253,6.48929 h 34.9253 l 34.9253,30.29406 h 34.92531 34.92529 34.92531 34.9253 34.9253 34.9253 34.9253 34.9253 34.9253 34.9253 34.9253 34.9253 34.9253"
       style="fill:none;stroke:#9467bd;stroke-width:1.5;stroke-linecap:square;stroke-linejoin:round;stroke-miterlimit:10;stroke-dasharray:none;stroke-opacity:1"
       transform="matrix(1.3333333,0,0,-1.3333333,0,598.87499)"
       clip-path="url(#clipPath57)" />
    <path
       id="path58"
       d="m 87.683381,236.39036 34.925299,7.45304 34.9253,6.48929 34.9253,-88.72977 34.9253,119.02383 34.92531,-156.99581 34.92529,39.89949 34.92531,-16.89785 34.9253,4.36902 34.9253,113.65893 34.9253,-90.78579 34.9253,-48.70179 34.9253,74.85169 34.9253,-28.39866 34.9253,-1.15651 34.9253,64.05763 34.9253,8.4168 34.9253,-182.599582"
       style="fill:none;stroke:#9467bd;stroke-width:1.5;stroke-linecap:butt;stroke-linejoin:round;stroke-miterlimit:10;stroke-dasharray:5.55, 2.4;stroke-dashoffset:0;stroke-opacity:1"
       transform="matrix(1.3333333,0,0,-1.3333333,0,598.87499)"
       clip-path="url(#clipPath59)" />
    <path
       id="path60"
       d="m 87.683381,161.66717 34.925299,4.62602 34.9253,117.38545 h 34.9253 34.9253 34.92531 34.92529 34.92531 34.9253 34.9253 34.9253 34.9253 34.9253 34.9253 34.9253 34.9253 34.9253 34.9253"
       style="fill:none;stroke:#8c564b;stroke-width:1.5;stroke-linecap:square;stroke-linejoin:round;stroke-miterlimit:10;stroke-dasharray:none;stroke-opacity:1"
       transform="matrix(1.3333333,0,0,-1.3333333,0,598.87499)"
       clip-path="url(#clipPath61)" />
    <path
       id="path62"
       d="m 87.683381,161.66717 34.925299,4.62602 34.9253,117.38545 34.9253,-14.71334 34.9253,-18.56836 34.92531,-5.97528 34.92529,-30.77594 34.92531,57.18284 34.9253,-48.83029 34.9253,-38.99998 34.9253,71.83193 34.9253,25.44315 34.9253,-63.92913 34.9253,30.51893 34.9253,-15.80559 34.9253,-120.91922 34.9253,74.91595 34.9253,-56.60459"
       style="fill:none;stroke:#8c564b;stroke-width:1.5;stroke-linecap:butt;stroke-linejoin:round;stroke-miterlimit:10;stroke-dasharray:5.55, 2.4;stroke-dashoffset:0;stroke-opacity:1"
       transform="matrix(1.3333333,0,0,-1.3333333,0,598.87499)"
       clip-path="url(#clipPath63)" />
    <path
       id="path64"
       d="m 87.683381,213.13172 34.925299,28.97692 h 34.9253 l 34.9253,43.11201 h 34.9253 l 34.92531,28.65567 34.92529,12.27182 h 34.92531 34.9253 34.9253 34.9253 34.9253 34.9253 34.9253 34.9253 34.9253 34.9253 34.9253"
       style="fill:none;stroke:#e377c2;stroke-width:1.5;stroke-linecap:square;stroke-linejoin:round;stroke-miterlimit:10;stroke-dasharray:none;stroke-opacity:1"
       transform="matrix(1.3333333,0,0,-1.3333333,0,598.87499)"
       clip-path="url(#clipPath65)" />
    <path
       id="path66"
       d="m 87.683381,213.13172 34.925299,28.97692 34.9253,-73.69518 34.9253,116.80719 34.9253,-80.31298 34.92531,108.96865 34.92529,12.27182 34.92531,-91.04279 34.9253,77.22896 34.9253,-58.6606 34.9253,-15.67709 34.9253,-21.20263 34.9253,76.2652 34.9253,-70.28991 34.9253,90.65728 34.9253,-40.15648 34.9253,6.68204 34.9253,-47.15978"
       style="fill:none;stroke:#e377c2;stroke-width:1.5;stroke-linecap:butt;stroke-linejoin:round;stroke-miterlimit:10;stroke-dasharray:5.55, 2.4;stroke-dashoffset:0;stroke-opacity:1"
       transform="matrix(1.3333333,0,0,-1.3333333,0,598.87499)"
       clip-path="url(#clipPath67)" />
    <path
       id="path68"
       d="m 87.683381,268.13005 h 34.925299 34.9253 34.9253 34.9253 34.92531 34.92529 34.92531 34.9253 l 34.9253,37.58647 h 34.9253 34.9253 34.9253 34.9253 34.9253 34.9253 34.9253 34.9253"
       style="fill:none;stroke:#7f7f7f;stroke-width:1.5;stroke-linecap:square;stroke-linejoin:round;stroke-miterlimit:10;stroke-dasharray:none;stroke-opacity:1"
       transform="matrix(1.3333333,0,0,-1.3333333,0,598.87499)"
       clip-path="url(#clipPath69)" />
    <path
       id="path70"
       d="m 87.683381,268.13005 34.925299,-88.60128 34.9253,8.8023 34.9253,-2.63426 34.9253,-25.95715 34.92531,-24.80065 34.92529,33.98845 34.92531,43.75451 34.9253,-72.28168 34.9253,165.31623 34.9253,-102.54361 34.9253,-20.88137 34.9253,29.87643 34.9253,-9.83031 34.9253,65.34263 34.9253,-112.18116 34.9253,38.10048 34.9253,-48.89454"
       style="fill:none;stroke:#7f7f7f;stroke-width:1.5;stroke-linecap:butt;stroke-linejoin:round;stroke-miterlimit:10;stroke-dasharray:5.55, 2.4;stroke-dashoffset:0;stroke-opacity:1"
       transform="matrix(1.3333333,0,0,-1.3333333,0,598.87499)"
       clip-path="url(#clipPath71)" />
    <path
       id="path72"
       d="m 87.683381,220.07076 h 34.925299 l 34.9253,127.023 h 34.9253 34.9253 34.92531 34.92529 34.92531 34.9253 34.9253 34.9253 34.9253 34.9253 34.9253 34.9253 34.9253 34.9253 34.9253"
       style="fill:none;stroke:#bcbd22;stroke-width:1.5;stroke-linecap:square;stroke-linejoin:round;stroke-miterlimit:10;stroke-dasharray:none;stroke-opacity:1"
       transform="matrix(1.3333333,0,0,-1.3333333,0,598.87499)"
       clip-path="url(#clipPath73)" />
    <path
       id="path74"
       d="m 87.683381,220.07076 34.925299,-101.32285 34.9253,228.34585 34.9253,-139.29482 34.9253,58.7891 34.92531,-84.32863 34.92529,-9.21993 34.92531,84.23225 34.9253,22.42339 34.9253,-24.02965 34.9253,-87.95877 34.9253,63.41513 34.9253,3.34102 34.9253,32.57494 34.9253,-59.23885 34.9253,137.88132 34.9253,-120.66222 34.9253,-45.55352"
       style="fill:none;stroke:#bcbd22;stroke-width:1.5;stroke-linecap:butt;stroke-linejoin:round;stroke-miterlimit:10;stroke-dasharray:5.55, 2.4;stroke-dashoffset:0;stroke-opacity:1"
       transform="matrix(1.3333333,0,0,-1.3333333,0,598.87499)"
       clip-path="url(#clipPath75)" />
    <path
       id="path76"
       d="m 87.683381,176.76601 34.925299,74.65894 h 34.9253 34.9253 34.9253 34.92531 34.92529 34.92531 l 34.9253,78.83521 h 34.9253 34.9253 34.9253 34.9253 34.9253 34.9253 34.9253 l 34.9253,86.09551 h 34.9253"
       style="fill:none;stroke:#17becf;stroke-width:1.5;stroke-linecap:square;stroke-linejoin:round;stroke-miterlimit:10;stroke-dasharray:none;stroke-opacity:1"
       transform="matrix(1.3333333,0,0,-1.3333333,0,598.87499)"
       clip-path="url(#clipPath77)" />
    <path
       id="path78"
       d="m 87.683381,176.76601 34.925299,74.65894 34.9253,-61.74462 34.9253,-60.10623 34.9253,80.3451 34.92531,35.72321 34.92529,-104.21411 34.92531,106.59138 34.9253,82.24048 34.9253,-43.94726 34.9253,-64.70013 34.9253,-50.30805 34.9253,88.15153 34.9253,-51.33606 34.9253,98.43158 34.9253,-80.05597 34.9253,189.85987 34.9253,-17.28335"
       style="fill:none;stroke:#17becf;stroke-width:1.5;stroke-linecap:butt;stroke-linejoin:round;stroke-miterlimit:10;stroke-dasharray:5.55, 2.4;stroke-dashoffset:0;stroke-opacity:1"
       transform="matrix(1.3333333,0,0,-1.3333333,0,598.87499)"
       clip-path="url(#clipPath79)" />
    <path
       id="path80"
       d="M 52.048437,426.48437 H 669.75156 c 1.33334,0 2,0.66666 2,2 v 13.67187 c 0,1.33334 -0.66666,2 -2,2 H 52.048437 c -1.333333,0 -2,-0.66666 -2,-2 v -13.67187 c 0,-1.33334 0.666667,-2 2,-2 z"
       style="fill:#ffffff;fill-opacity:0.8;fill-rule:nonzero;stroke:#cccccc;stroke-width:1;stroke-linecap:butt;stroke-linejoin:miter;stroke-miterlimit:10;stroke-dasharray:none;stroke-opacity:0.8"
       transform="matrix(1.3333333,0,0,-1.3333333,0,598.87499)" />
    <path
       id="path81"
       d="m 54.048437,436.06249 h 20"
       style="fill:none;stroke:#1f77b4;stroke-width:1.5;stroke-linecap:square;stroke-linejoin:round;stroke-miterlimit:10;stroke-dasharray:none;stroke-opacity:1"
       transform="matrix(1.3333333,0,0,-1.3333333,0,598.87499)" />
    <text
       id="text81"
       xml:space="preserve"
       transform="matrix(1.3333333,0,0,1.3333333,109.39792,22.125)"><tspan
         id="tspan81"
         style="font-variant:normal;font-weight:normal;font-size:10px;font-family:'DejaVu Sans';writing-mode:lr-tb;fill:#000000;fill-opacity:1;fill-rule:nonzero;stroke:none"
         x="0"
         y="0">#1</tspan></text>
    <path
       id="path82"
       d="m 116.78281,436.06249 h 20"
       style="fill:none;stroke:#ff7f0e;stroke-width:1.5;stroke-linecap:square;stroke-linejoin:round;stroke-miterlimit:10;stroke-dasharray:none;stroke-opacity:1"
       transform="matrix(1.3333333,0,0,-1.3333333,0,598.87499)" />
    <text
       id="text82"
       xml:space="preserve"
       transform="matrix(1.3333333,0,0,1.3333333,193.04375,22.125)"><tspan
         id="tspan82"
         style="font-variant:normal;font-weight:normal;font-size:10px;font-family:'DejaVu Sans';writing-mode:lr-tb;fill:#000000;fill-opacity:1;fill-rule:nonzero;stroke:none"
         x="0"
         y="0">#2</tspan></text>
    <path
       id="path83"
       d="m 179.51719,436.06249 h 20"
       style="fill:none;stroke:#2ca02c;stroke-width:1.5;stroke-linecap:square;stroke-linejoin:round;stroke-miterlimit:10;stroke-dasharray:none;stroke-opacity:1"
       transform="matrix(1.3333333,0,0,-1.3333333,0,598.87499)" />
    <text
       id="text83"
       xml:space="preserve"
       transform="matrix(1.3333333,0,0,1.3333333,276.68958,22.125)"><tspan
         id="tspan83"
         style="font-variant:normal;font-weight:normal;font-size:10px;font-family:'DejaVu Sans';writing-mode:lr-tb;fill:#000000;fill-opacity:1;fill-rule:nonzero;stroke:none"
         x="0"
         y="0">#3</tspan></text>
    <path
       id="path84"
       d="m 242.25156,436.06249 h 20"
       style="fill:none;stroke:#d62728;stroke-width:1.5;stroke-linecap:square;stroke-linejoin:round;stroke-miterlimit:10;stroke-dasharray:none;stroke-opacity:1"
       transform="matrix(1.3333333,0,0,-1.3333333,0,598.87499)" />
    <text
       id="text84"
       xml:space="preserve"
       transform="matrix(1.3333333,0,0,1.3333333,360.33542,22.125)"><tspan
         id="tspan84"
         style="font-variant:normal;font-weight:normal;font-size:10px;font-family:'DejaVu Sans';writing-mode:lr-tb;fill:#000000;fill-opacity:1;fill-rule:nonzero;stroke:none"
         x="0"
         y="0">#4</tspan></text>
    <path
       id="path85"
       d="m 304.98594,436.06249 h 20"
       style="fill:none;stroke:#9467bd;stroke-width:1.5;stroke-linecap:square;stroke-linejoin:round;stroke-miterlimit:10;stroke-dasharray:none;stroke-opacity:1"
       transform="matrix(1.3333333,0,0,-1.3333333,0,598.87499)" />
    <text
       id="text85"
       xml:space="preserve"
       transform="matrix(1.3333333,0,0,1.3333333,443.98125,22.125)"><tspan
         id="tspan85"
         style="font-variant:normal;font-weight:normal;font-size:10px;font-family:'DejaVu Sans';writing-mode:lr-tb;fill:#000000;fill-opacity:1;fill-rule:nonzero;stroke:none"
         x="0"
         y="0">#5</tspan></text>
    <path
       id="path86"
       d="m 367.72031,436.06249 h 20"
       style="fill:none;stroke:#8c564b;stroke-width:1.5;stroke-linecap:square;stroke-linejoin:round;stroke-miterlimit:10;stroke-dasharray:none;stroke-opacity:1"
       transform="matrix(1.3333333,0,0,-1.3333333,0,598.87499)" />
    <text
       id="text86"
       xml:space="preserve"
       transform="matrix(1.3333333,0,0,1.3333333,527.62708,22.125)"><tspan
         id="tspan86"
         style="font-variant:normal;font-weight:normal;font-size:10px;font-family:'DejaVu Sans';writing-mode:lr-tb;fill:#000000;fill-opacity:1;fill-rule:nonzero;stroke:none"
         x="0"
         y="0">#6</tspan></text>
    <path
       id="path87"
       d="m 430.45469,436.06249 h 20"
       style="fill:none;stroke:#e377c2;stroke-width:1.5;stroke-linecap:square;stroke-linejoin:round;stroke-miterlimit:10;stroke-dasharray:none;stroke-opacity:1"
       transform="matrix(1.3333333,0,0,-1.3333333,0,598.87499)" />
    <text
       id="text87"
       xml:space="preserve"
       transform="matrix(1.3333333,0,0,1.3333333,611.27292,22.125)"><tspan
         id="tspan87"
         style="font-variant:normal;font-weight:normal;font-size:10px;font-family:'DejaVu Sans';writing-mode:lr-tb;fill:#000000;fill-opacity:1;fill-rule:nonzero;stroke:none"
         x="0"
         y="0">#7</tspan></text>
    <path
       id="path88"
       d="m 493.18906,436.06249 h 20"
       style="fill:none;stroke:#7f7f7f;stroke-width:1.5;stroke-linecap:square;stroke-linejoin:round;stroke-miterlimit:10;stroke-dasharray:none;stroke-opacity:1"
       transform="matrix(1.3333333,0,0,-1.3333333,0,598.87499)" />
    <text
       id="text88"
       xml:space="preserve"
       transform="matrix(1.3333333,0,0,1.3333333,694.91875,22.125)"><tspan
         id="tspan88"
         style="font-variant:normal;font-weight:normal;font-size:10px;font-family:'DejaVu Sans';writing-mode:lr-tb;fill:#000000;fill-opacity:1;fill-rule:nonzero;stroke:none"
         x="0"
         y="0">#8</tspan></text>
    <path
       id="path89"
       d="m 555.92344,436.06249 h 20"
       style="fill:none;stroke:#bcbd22;stroke-width:1.5;stroke-linecap:square;stroke-linejoin:round;stroke-miterlimit:10;stroke-dasharray:none;stroke-opacity:1"
       transform="matrix(1.3333333,0,0,-1.3333333,0,598.87499)" />
    <text
       id="text89"
       xml:space="preserve"
       transform="matrix(1.3333333,0,0,1.3333333,778.56458,22.125)"><tspan
         id="tspan89"
         style="font-variant:normal;font-weight:normal;font-size:10px;font-family:'DejaVu Sans';writing-mode:lr-tb;fill:#000000;fill-opacity:1;fill-rule:nonzero;stroke:none"
         x="0"
         y="0">#9</tspan></text>
    <path
       id="path90"
       d="m 618.65781,436.06249 h 20"
       style="fill:none;stroke:#17becf;stroke-width:1.5;stroke-linecap:square;stroke-linejoin:round;stroke-miterlimit:10;stroke-dasharray:none;stroke-opacity:1"
       transform="matrix(1.3333333,0,0,-1.3333333,0,598.87499)" />
    <text
       id="text90"
       xml:space="preserve"
       transform="matrix(1.3333333,0,0,1.3333333,862.21042,22.125)"><tspan
         id="tspan90"
         style="font-variant:normal;font-weight:normal;font-size:10px;font-family:'DejaVu Sans';writing-mode:lr-tb;fill:#000000;fill-opacity:1;fill-rule:nonzero;stroke:none"
         x="0"
         y="0">#10</tspan></text>
  </g>
</svg>
