<?xml version="1.0" encoding="UTF-8" standalone="no"?>
<!-- Created with Inkscape (http://www.inkscape.org/) -->

<svg
   version="1.1"
   id="svg1"
   width="962.40002"
   height="591.14166"
   viewBox="0 0 962.40002 591.14166"
   xmlns="http://www.w3.org/2000/svg"
   xmlns:svg="http://www.w3.org/2000/svg">
  <defs
     id="defs1">
    <clipPath
       clipPathUnits="userSpaceOnUse"
       id="clipPath2">
      <path
         d="M 51.6375,42.54375 H 711.1 V 434.15624 H 51.6375 Z"
         id="path2" />
    </clipPath>
    <clipPath
       clipPathUnits="userSpaceOnUse"
       id="clipPath5">
      <path
         d="M 51.6375,42.54375 H 711.1 V 434.15624 H 51.6375 Z"
         id="path5" />
    </clipPath>
    <clipPath
       clipPathUnits="userSpaceOnUse"
       id="clipPath8">
      <path
         d="M 51.6375,42.54375 H 711.1 V 434.15624 H 51.6375 Z"
         id="path8" />
    </clipPath>
    <clipPath
       clipPathUnits="userSpaceOnUse"
       id="clipPath11">
      <path
         d="M 51.6375,42.54375 H 711.1 V 434.15624 H 51.6375 Z"
         id="path11" />
    </clipPath>
    <clipPath
       clipPathUnits="userSpaceOnUse"
       id="clipPath14">
      <path
         d="M 51.6375,42.54375 H 711.1 V 434.15624 H 51.6375 Z"
         id="path14" />
    </clipPath>
    <clipPath
       clipPathUnits="userSpaceOnUse"
       id="clipPath17">
      <path
         d="M 51.6375,42.54375 H 711.1 V 434.15624 H 51.6375 Z"
         id="path17" />
    </clipPath>
    <clipPath
       clipPathUnits="userSpaceOnUse"
       id="clipPath20">
      <path
         d="M 51.6375,42.54375 H 711.1 V 434.15624 H 51.6375 Z"
         id="path20" />
    </clipPath>
    <clipPath
       clipPathUnits="userSpaceOnUse"
       id="clipPath23">
      <path
         d="M 51.6375,42.54375 H 711.1 V 434.15624 H 51.6375 Z"
         id="path23" />
    </clipPath>
    <clipPath
       clipPathUnits="userSpaceOnUse"
       id="clipPath25">
      <path
         d="M 51.6375,42.54375 H 711.1 V 434.15624 H 51.6375 Z"
         id="path25" />
    </clipPath>
    <clipPath
       clipPathUnits="userSpaceOnUse"
       id="clipPath27">
      <path
         d="M 51.6375,42.54375 H 711.1 V 434.15624 H 51.6375 Z"
         id="path27" />
    </clipPath>
    <clipPath
       clipPathUnits="userSpaceOnUse"
       id="clipPath29">
      <path
         d="M 51.6375,42.54375 H 711.1 V 434.15624 H 51.6375 Z"
         id="path29" />
    </clipPath>
    <clipPath
       clipPathUnits="userSpaceOnUse"
       id="clipPath31">
      <path
         d="M 51.6375,42.54375 H 711.1 V 434.15624 H 51.6375 Z"
         id="path31" />
    </clipPath>
    <clipPath
       clipPathUnits="userSpaceOnUse"
       id="clipPath33">
      <path
         d="M 51.6375,42.54375 H 711.1 V 434.15624 H 51.6375 Z"
         id="path33" />
    </clipPath>
    <clipPath
       clipPathUnits="userSpaceOnUse"
       id="clipPath35">
      <path
         d="M 51.6375,42.54375 H 711.1 V 434.15624 H 51.6375 Z"
         id="path35" />
    </clipPath>
    <clipPath
       clipPathUnits="userSpaceOnUse"
       id="clipPath37">
      <path
         d="M 51.6375,42.54375 H 711.1 V 434.15624 H 51.6375 Z"
         id="path37" />
    </clipPath>
    <clipPath
       clipPathUnits="userSpaceOnUse"
       id="clipPath39">
      <path
         d="M 51.6375,42.54375 H 711.1 V 434.15624 H 51.6375 Z"
         id="path39" />
    </clipPath>
    <clipPath
       clipPathUnits="userSpaceOnUse"
       id="clipPath41">
      <path
         d="M 51.6375,42.54375 H 711.1 V 434.15624 H 51.6375 Z"
         id="path41" />
    </clipPath>
    <clipPath
       clipPathUnits="userSpaceOnUse"
       id="clipPath43">
      <path
         d="M 51.6375,42.54375 H 711.1 V 434.15624 H 51.6375 Z"
         id="path43" />
    </clipPath>
    <clipPath
       clipPathUnits="userSpaceOnUse"
       id="clipPath45">
      <path
         d="M 51.6375,42.54375 H 711.1 V 434.15624 H 51.6375 Z"
         id="path45" />
    </clipPath>
    <clipPath
       clipPathUnits="userSpaceOnUse"
       id="clipPath47">
      <path
         d="M 51.6375,42.54375 H 711.1 V 434.15624 H 51.6375 Z"
         id="path47" />
    </clipPath>
    <clipPath
       clipPathUnits="userSpaceOnUse"
       id="clipPath49">
      <path
         d="M 51.6375,42.54375 H 711.1 V 434.15624 H 51.6375 Z"
         id="path49" />
    </clipPath>
    <clipPath
       clipPathUnits="userSpaceOnUse"
       id="clipPath51">
      <path
         d="M 51.6375,42.54375 H 711.1 V 434.15624 H 51.6375 Z"
         id="path51" />
    </clipPath>
    <clipPath
       clipPathUnits="userSpaceOnUse"
       id="clipPath53">
      <path
         d="M 51.6375,42.54375 H 711.1 V 434.15624 H 51.6375 Z"
         id="path53" />
    </clipPath>
    <clipPath
       clipPathUnits="userSpaceOnUse"
       id="clipPath55">
      <path
         d="M 51.6375,42.54375 H 711.1 V 434.15624 H 51.6375 Z"
         id="path55" />
    </clipPath>
    <clipPath
       clipPathUnits="userSpaceOnUse"
       id="clipPath57">
      <path
         d="M 51.6375,42.54375 H 711.1 V 434.15624 H 51.6375 Z"
         id="path57" />
    </clipPath>
    <clipPath
       clipPathUnits="userSpaceOnUse"
       id="clipPath59">
      <path
         d="M 51.6375,42.54375 H 711.1 V 434.15624 H 51.6375 Z"
         id="path59" />
    </clipPath>
    <clipPath
       clipPathUnits="userSpaceOnUse"
       id="clipPath61">
      <path
         d="M 51.6375,42.54375 H 711.1 V 434.15624 H 51.6375 Z"
         id="path61" />
    </clipPath>
    <clipPath
       clipPathUnits="userSpaceOnUse"
       id="clipPath63">
      <path
         d="M 51.6375,42.54375 H 711.1 V 434.15624 H 51.6375 Z"
         id="path63" />
    </clipPath>
    <clipPath
       clipPathUnits="userSpaceOnUse"
       id="clipPath65">
      <path
         d="M 51.6375,42.54375 H 711.1 V 434.15624 H 51.6375 Z"
         id="path65" />
    </clipPath>
    <clipPath
       clipPathUnits="userSpaceOnUse"
       id="clipPath67">
      <path
         d="M 51.6375,42.54375 H 711.1 V 434.15624 H 51.6375 Z"
         id="path67" />
    </clipPath>
    <clipPath
       clipPathUnits="userSpaceOnUse"
       id="clipPath69">
      <path
         d="M 51.6375,42.54375 H 711.1 V 434.15624 H 51.6375 Z"
         id="path69" />
    </clipPath>
    <clipPath
       clipPathUnits="userSpaceOnUse"
       id="clipPath71">
      <path
         d="M 51.6375,42.54375 H 711.1 V 434.15624 H 51.6375 Z"
         id="path71" />
    </clipPath>
    <clipPath
       clipPathUnits="userSpaceOnUse"
       id="clipPath73">
      <path
         d="M 51.6375,42.54375 H 711.1 V 434.15624 H 51.6375 Z"
         id="path73" />
    </clipPath>
    <clipPath
       clipPathUnits="userSpaceOnUse"
       id="clipPath75">
      <path
         d="M 51.6375,42.54375 H 711.1 V 434.15624 H 51.6375 Z"
         id="path75" />
    </clipPath>
    <clipPath
       clipPathUnits="userSpaceOnUse"
       id="clipPath77">
      <path
         d="M 51.6375,42.54375 H 711.1 V 434.15624 H 51.6375 Z"
         id="path77" />
    </clipPath>
    <clipPath
       clipPathUnits="userSpaceOnUse"
       id="clipPath79">
      <path
         d="M 51.6375,42.54375 H 711.1 V 434.15624 H 51.6375 Z"
         id="path79" />
    </clipPath>
  </defs>
  <g
     id="g1">
    <path
       id="path1"
       d="M 81.613068,42.54375 V 434.15624"
       style="fill:none;stroke:#e6e6e6;stroke-width:1;stroke-linecap:square;stroke-linejoin:round;stroke-miterlimit:10;stroke-dasharray:none;stroke-opacity:1"
       transform="matrix(1.3333333,0,0,-1.3333333,0,591.14166)"
       clip-path="url(#clipPath2)" />
    <path
       id="path3"
       d="m 81.613068,37.54375 v -3.5"
       style="fill:#000000;fill-opacity:1;fill-rule:nonzero;stroke:#000000;stroke-width:0.8;stroke-linecap:butt;stroke-linejoin:round;stroke-miterlimit:10;stroke-dasharray:none;stroke-opacity:1"
       transform="matrix(1.3333333,0,0,-1.3333333,0,591.14166)" />
    <text
       id="text3"
       xml:space="preserve"
       transform="matrix(1.3333333,0,0,1.3333333,104.57784,560.54166)"><tspan
         id="tspan3"
         style="font-variant:normal;font-weight:normal;font-size:10px;font-family:'DejaVu Sans';writing-mode:lr-tb;fill:#000000;fill-opacity:1;fill-rule:nonzero;stroke:none"
         x="0"
         y="0">0</tspan></text>
    <path
       id="path4"
       d="M 183.22516,42.54375 V 434.15624"
       style="fill:none;stroke:#e6e6e6;stroke-width:1;stroke-linecap:square;stroke-linejoin:round;stroke-miterlimit:10;stroke-dasharray:none;stroke-opacity:1"
       transform="matrix(1.3333333,0,0,-1.3333333,0,591.14166)"
       clip-path="url(#clipPath5)" />
    <path
       id="path6"
       d="m 183.22516,37.54375 v -3.5"
       style="fill:#000000;fill-opacity:1;fill-rule:nonzero;stroke:#000000;stroke-width:0.8;stroke-linecap:butt;stroke-linejoin:round;stroke-miterlimit:10;stroke-dasharray:none;stroke-opacity:1"
       transform="matrix(1.3333333,0,0,-1.3333333,0,591.14166)" />
    <text
       id="text6"
       xml:space="preserve"
       transform="matrix(1.3333333,0,0,1.3333333,235.82105,560.54166)"><tspan
         id="tspan6"
         style="font-variant:normal;font-weight:normal;font-size:10px;font-family:'DejaVu Sans';writing-mode:lr-tb;fill:#000000;fill-opacity:1;fill-rule:nonzero;stroke:none"
         x="0"
         y="0">10</tspan></text>
    <path
       id="path7"
       d="M 284.83726,42.54375 V 434.15624"
       style="fill:none;stroke:#e6e6e6;stroke-width:1;stroke-linecap:square;stroke-linejoin:round;stroke-miterlimit:10;stroke-dasharray:none;stroke-opacity:1"
       transform="matrix(1.3333333,0,0,-1.3333333,0,591.14166)"
       clip-path="url(#clipPath8)" />
    <path
       id="path9"
       d="m 284.83726,37.54375 v -3.5"
       style="fill:#000000;fill-opacity:1;fill-rule:nonzero;stroke:#000000;stroke-width:0.8;stroke-linecap:butt;stroke-linejoin:round;stroke-miterlimit:10;stroke-dasharray:none;stroke-opacity:1"
       transform="matrix(1.3333333,0,0,-1.3333333,0,591.14166)" />
    <text
       id="text9"
       xml:space="preserve"
       transform="matrix(1.3333333,0,0,1.3333333,371.30385,560.54166)"><tspan
         id="tspan9"
         style="font-variant:normal;font-weight:normal;font-size:10px;font-family:'DejaVu Sans';writing-mode:lr-tb;fill:#000000;fill-opacity:1;fill-rule:nonzero;stroke:none"
         x="0"
         y="0">20</tspan></text>
    <path
       id="path10"
       d="M 386.44935,42.54375 V 434.15624"
       style="fill:none;stroke:#e6e6e6;stroke-width:1;stroke-linecap:square;stroke-linejoin:round;stroke-miterlimit:10;stroke-dasharray:none;stroke-opacity:1"
       transform="matrix(1.3333333,0,0,-1.3333333,0,591.14166)"
       clip-path="url(#clipPath11)" />
    <path
       id="path12"
       d="m 386.44935,37.54375 v -3.5"
       style="fill:#000000;fill-opacity:1;fill-rule:nonzero;stroke:#000000;stroke-width:0.8;stroke-linecap:butt;stroke-linejoin:round;stroke-miterlimit:10;stroke-dasharray:none;stroke-opacity:1"
       transform="matrix(1.3333333,0,0,-1.3333333,0,591.14166)" />
    <text
       id="text12"
       xml:space="preserve"
       transform="matrix(1.3333333,0,0,1.3333333,506.78664,560.54166)"><tspan
         id="tspan12"
         style="font-variant:normal;font-weight:normal;font-size:10px;font-family:'DejaVu Sans';writing-mode:lr-tb;fill:#000000;fill-opacity:1;fill-rule:nonzero;stroke:none"
         x="0"
         y="0">30</tspan></text>
    <path
       id="path13"
       d="M 488.06145,42.54375 V 434.15624"
       style="fill:none;stroke:#e6e6e6;stroke-width:1;stroke-linecap:square;stroke-linejoin:round;stroke-miterlimit:10;stroke-dasharray:none;stroke-opacity:1"
       transform="matrix(1.3333333,0,0,-1.3333333,0,591.14166)"
       clip-path="url(#clipPath14)" />
    <path
       id="path15"
       d="m 488.06145,37.54375 v -3.5"
       style="fill:#000000;fill-opacity:1;fill-rule:nonzero;stroke:#000000;stroke-width:0.8;stroke-linecap:butt;stroke-linejoin:round;stroke-miterlimit:10;stroke-dasharray:none;stroke-opacity:1"
       transform="matrix(1.3333333,0,0,-1.3333333,0,591.14166)" />
    <text
       id="text15"
       xml:space="preserve"
       transform="matrix(1.3333333,0,0,1.3333333,642.26943,560.54166)"><tspan
         id="tspan15"
         style="font-variant:normal;font-weight:normal;font-size:10px;font-family:'DejaVu Sans';writing-mode:lr-tb;fill:#000000;fill-opacity:1;fill-rule:nonzero;stroke:none"
         x="0"
         y="0">40</tspan></text>
    <path
       id="path16"
       d="M 589.67355,42.54375 V 434.15624"
       style="fill:none;stroke:#e6e6e6;stroke-width:1;stroke-linecap:square;stroke-linejoin:round;stroke-miterlimit:10;stroke-dasharray:none;stroke-opacity:1"
       transform="matrix(1.3333333,0,0,-1.3333333,0,591.14166)"
       clip-path="url(#clipPath17)" />
    <path
       id="path18"
       d="m 589.67355,37.54375 v -3.5"
       style="fill:#000000;fill-opacity:1;fill-rule:nonzero;stroke:#000000;stroke-width:0.8;stroke-linecap:butt;stroke-linejoin:round;stroke-miterlimit:10;stroke-dasharray:none;stroke-opacity:1"
       transform="matrix(1.3333333,0,0,-1.3333333,0,591.14166)" />
    <text
       id="text18"
       xml:space="preserve"
       transform="matrix(1.3333333,0,0,1.3333333,777.75223,560.54166)"><tspan
         id="tspan18"
         style="font-variant:normal;font-weight:normal;font-size:10px;font-family:'DejaVu Sans';writing-mode:lr-tb;fill:#000000;fill-opacity:1;fill-rule:nonzero;stroke:none"
         x="0"
         y="0">50</tspan></text>
    <path
       id="path19"
       d="M 691.28564,42.54375 V 434.15624"
       style="fill:none;stroke:#e6e6e6;stroke-width:1;stroke-linecap:square;stroke-linejoin:round;stroke-miterlimit:10;stroke-dasharray:none;stroke-opacity:1"
       transform="matrix(1.3333333,0,0,-1.3333333,0,591.14166)"
       clip-path="url(#clipPath20)" />
    <path
       id="path21"
       d="m 691.28564,37.54375 v -3.5"
       style="fill:#000000;fill-opacity:1;fill-rule:nonzero;stroke:#000000;stroke-width:0.8;stroke-linecap:butt;stroke-linejoin:round;stroke-miterlimit:10;stroke-dasharray:none;stroke-opacity:1"
       transform="matrix(1.3333333,0,0,-1.3333333,0,591.14166)" />
    <text
       id="text21"
       xml:space="preserve"
       transform="matrix(1.3333333,0,0,1.3333333,913.23502,560.54166)"><tspan
         id="tspan21"
         style="font-variant:normal;font-weight:normal;font-size:10px;font-family:'DejaVu Sans';writing-mode:lr-tb;fill:#000000;fill-opacity:1;fill-rule:nonzero;stroke:none"
         x="0"
         y="0">60</tspan></text>
    <text
       id="text22"
       xml:space="preserve"
       transform="matrix(1.3333333,0,0,1.3333333,488.17917,578.77082)"><tspan
         id="tspan22"
         style="font-variant:normal;font-weight:normal;font-size:10px;font-family:'DejaVu Sans';writing-mode:lr-tb;fill:#000000;fill-opacity:1;fill-rule:nonzero;stroke:none"
         x="0"
         y="0">epoch</tspan></text>
    <path
       id="path22"
       d="M 51.6375,68.949583 H 711.1"
       style="fill:none;stroke:#e6e6e6;stroke-width:1;stroke-linecap:square;stroke-linejoin:round;stroke-miterlimit:10;stroke-dasharray:none;stroke-opacity:1"
       transform="matrix(1.3333333,0,0,-1.3333333,0,591.14166)"
       clip-path="url(#clipPath23)" />
    <text
       id="text23"
       xml:space="preserve"
       transform="matrix(1.3333333,0,0,1.3333333,27.829167,504.27138)"><tspan
         id="tspan23"
         style="font-variant:normal;font-weight:normal;font-size:10px;font-family:'DejaVu Sans';writing-mode:lr-tb;fill:#000000;fill-opacity:1;fill-rule:nonzero;stroke:none"
         x="0"
         y="0">0.66</tspan></text>
    <path
       id="path24"
       d="M 51.6375,113.98316 H 711.1"
       style="fill:none;stroke:#e6e6e6;stroke-width:1;stroke-linecap:square;stroke-linejoin:round;stroke-miterlimit:10;stroke-dasharray:none;stroke-opacity:1"
       transform="matrix(1.3333333,0,0,-1.3333333,0,591.14166)"
       clip-path="url(#clipPath25)" />
    <text
       id="text25"
       xml:space="preserve"
       transform="matrix(1.3333333,0,0,1.3333333,27.829167,444.22661)"><tspan
         id="tspan25"
         style="font-variant:normal;font-weight:normal;font-size:10px;font-family:'DejaVu Sans';writing-mode:lr-tb;fill:#000000;fill-opacity:1;fill-rule:nonzero;stroke:none"
         x="0"
         y="0">0.68</tspan></text>
    <path
       id="path26"
       d="M 51.6375,159.01673 H 711.1"
       style="fill:none;stroke:#e6e6e6;stroke-width:1;stroke-linecap:square;stroke-linejoin:round;stroke-miterlimit:10;stroke-dasharray:none;stroke-opacity:1"
       transform="matrix(1.3333333,0,0,-1.3333333,0,591.14166)"
       clip-path="url(#clipPath27)" />
    <text
       id="text27"
       xml:space="preserve"
       transform="matrix(1.3333333,0,0,1.3333333,27.829167,384.18185)"><tspan
         id="tspan27"
         style="font-variant:normal;font-weight:normal;font-size:10px;font-family:'DejaVu Sans';writing-mode:lr-tb;fill:#000000;fill-opacity:1;fill-rule:nonzero;stroke:none"
         x="0"
         y="0">0.70</tspan></text>
    <path
       id="path28"
       d="M 51.6375,204.05031 H 711.1"
       style="fill:none;stroke:#e6e6e6;stroke-width:1;stroke-linecap:square;stroke-linejoin:round;stroke-miterlimit:10;stroke-dasharray:none;stroke-opacity:1"
       transform="matrix(1.3333333,0,0,-1.3333333,0,591.14166)"
       clip-path="url(#clipPath29)" />
    <text
       id="text29"
       xml:space="preserve"
       transform="matrix(1.3333333,0,0,1.3333333,27.829167,324.13708)"><tspan
         id="tspan29"
         style="font-variant:normal;font-weight:normal;font-size:10px;font-family:'DejaVu Sans';writing-mode:lr-tb;fill:#000000;fill-opacity:1;fill-rule:nonzero;stroke:none"
         x="0"
         y="0">0.72</tspan></text>
    <path
       id="path30"
       d="M 51.6375,249.08388 H 711.1"
       style="fill:none;stroke:#e6e6e6;stroke-width:1;stroke-linecap:square;stroke-linejoin:round;stroke-miterlimit:10;stroke-dasharray:none;stroke-opacity:1"
       transform="matrix(1.3333333,0,0,-1.3333333,0,591.14166)"
       clip-path="url(#clipPath31)" />
    <text
       id="text31"
       xml:space="preserve"
       transform="matrix(1.3333333,0,0,1.3333333,27.829167,264.09231)"><tspan
         id="tspan31"
         style="font-variant:normal;font-weight:normal;font-size:10px;font-family:'DejaVu Sans';writing-mode:lr-tb;fill:#000000;fill-opacity:1;fill-rule:nonzero;stroke:none"
         x="0"
         y="0">0.74</tspan></text>
    <path
       id="path32"
       d="M 51.6375,294.11746 H 711.1"
       style="fill:none;stroke:#e6e6e6;stroke-width:1;stroke-linecap:square;stroke-linejoin:round;stroke-miterlimit:10;stroke-dasharray:none;stroke-opacity:1"
       transform="matrix(1.3333333,0,0,-1.3333333,0,591.14166)"
       clip-path="url(#clipPath33)" />
    <text
       id="text33"
       xml:space="preserve"
       transform="matrix(1.3333333,0,0,1.3333333,27.829167,204.04755)"><tspan
         id="tspan33"
         style="font-variant:normal;font-weight:normal;font-size:10px;font-family:'DejaVu Sans';writing-mode:lr-tb;fill:#000000;fill-opacity:1;fill-rule:nonzero;stroke:none"
         x="0"
         y="0">0.76</tspan></text>
    <path
       id="path34"
       d="M 51.6375,339.15103 H 711.1"
       style="fill:none;stroke:#e6e6e6;stroke-width:1;stroke-linecap:square;stroke-linejoin:round;stroke-miterlimit:10;stroke-dasharray:none;stroke-opacity:1"
       transform="matrix(1.3333333,0,0,-1.3333333,0,591.14166)"
       clip-path="url(#clipPath35)" />
    <text
       id="text35"
       xml:space="preserve"
       transform="matrix(1.3333333,0,0,1.3333333,27.829167,144.00278)"><tspan
         id="tspan35"
         style="font-variant:normal;font-weight:normal;font-size:10px;font-family:'DejaVu Sans';writing-mode:lr-tb;fill:#000000;fill-opacity:1;fill-rule:nonzero;stroke:none"
         x="0"
         y="0">0.78</tspan></text>
    <path
       id="path36"
       d="M 51.6375,384.18461 H 711.1"
       style="fill:none;stroke:#e6e6e6;stroke-width:1;stroke-linecap:square;stroke-linejoin:round;stroke-miterlimit:10;stroke-dasharray:none;stroke-opacity:1"
       transform="matrix(1.3333333,0,0,-1.3333333,0,591.14166)"
       clip-path="url(#clipPath37)" />
    <text
       id="text37"
       xml:space="preserve"
       transform="matrix(1.3333333,0,0,1.3333333,27.829167,83.958014)"><tspan
         id="tspan37"
         style="font-variant:normal;font-weight:normal;font-size:10px;font-family:'DejaVu Sans';writing-mode:lr-tb;fill:#000000;fill-opacity:1;fill-rule:nonzero;stroke:none"
         x="0"
         y="0">0.80</tspan></text>
    <path
       id="path38"
       d="M 51.6375,429.21818 H 711.1"
       style="fill:none;stroke:#e6e6e6;stroke-width:1;stroke-linecap:square;stroke-linejoin:round;stroke-miterlimit:10;stroke-dasharray:none;stroke-opacity:1"
       transform="matrix(1.3333333,0,0,-1.3333333,0,591.14166)"
       clip-path="url(#clipPath39)" />
    <text
       id="text39"
       xml:space="preserve"
       transform="matrix(1.3333333,0,0,1.3333333,27.829167,23.913248)"><tspan
         id="tspan39"
         style="font-variant:normal;font-weight:normal;font-size:10px;font-family:'DejaVu Sans';writing-mode:lr-tb;fill:#000000;fill-opacity:1;fill-rule:nonzero;stroke:none"
         x="0"
         y="0">0.82</tspan></text>
    <text
       id="text40"
       xml:space="preserve"
       transform="matrix(0,-1.3333333,1.3333333,0,19.725,292.08124)"><tspan
         id="tspan40"
         style="font-variant:normal;font-weight:normal;font-size:10px;font-family:'DejaVu Sans';writing-mode:lr-tb;fill:#000000;fill-opacity:1;fill-rule:nonzero;stroke:none"
         x="0"
         y="0">RAUC</tspan></text>
    <path
       id="path40"
       d="M 437.2554,-1 V 310.83035"
       style="fill:none;stroke:#1f77b4;stroke-width:1.5;stroke-linecap:butt;stroke-linejoin:round;stroke-miterlimit:10;stroke-dasharray:1.5, 2.475;stroke-dashoffset:0;stroke-opacity:1"
       transform="matrix(1.3333333,0,0,-1.3333333,0,591.14166)"
       clip-path="url(#clipPath41)" />
    <path
       id="path42"
       d="M 447.41661,-1 V 315.18866"
       style="fill:none;stroke:#1f77b4;stroke-width:1.5;stroke-linecap:butt;stroke-linejoin:round;stroke-miterlimit:10;stroke-dasharray:1.5, 2.475;stroke-dashoffset:0;stroke-opacity:1"
       transform="matrix(1.3333333,0,0,-1.3333333,0,591.14166)"
       clip-path="url(#clipPath43)" />
    <path
       id="path44"
       d="M 528.70629,-1 V 342.50906"
       style="fill:none;stroke:#1f77b4;stroke-width:1.5;stroke-linecap:butt;stroke-linejoin:round;stroke-miterlimit:10;stroke-dasharray:1.5, 2.475;stroke-dashoffset:0;stroke-opacity:1"
       transform="matrix(1.3333333,0,0,-1.3333333,0,591.14166)"
       clip-path="url(#clipPath45)" />
    <path
       id="path46"
       d="M 609.99596,-1 V 343.60757"
       style="fill:none;stroke:#1f77b4;stroke-width:1.5;stroke-linecap:butt;stroke-linejoin:round;stroke-miterlimit:10;stroke-dasharray:1.5, 2.475;stroke-dashoffset:0;stroke-opacity:1"
       transform="matrix(1.3333333,0,0,-1.3333333,0,591.14166)"
       clip-path="url(#clipPath47)" />
    <path
       id="path48"
       d="M 345.80452,-1 V 313.85009"
       style="fill:none;stroke:#ff7f0e;stroke-width:1.5;stroke-linecap:butt;stroke-linejoin:round;stroke-miterlimit:10;stroke-dasharray:1.5, 2.475;stroke-dashoffset:0;stroke-opacity:1"
       transform="matrix(1.3333333,0,0,-1.3333333,0,591.14166)"
       clip-path="url(#clipPath49)" />
    <path
       id="path50"
       d="M 447.41661,-1 V 324.02443"
       style="fill:none;stroke:#ff7f0e;stroke-width:1.5;stroke-linecap:butt;stroke-linejoin:round;stroke-miterlimit:10;stroke-dasharray:1.5, 2.475;stroke-dashoffset:0;stroke-opacity:1"
       transform="matrix(1.3333333,0,0,-1.3333333,0,591.14166)"
       clip-path="url(#clipPath51)" />
    <path
       id="path52"
       d="M 528.70629,-1 V 353.32932"
       style="fill:none;stroke:#ff7f0e;stroke-width:1.5;stroke-linecap:butt;stroke-linejoin:round;stroke-miterlimit:10;stroke-dasharray:1.5, 2.475;stroke-dashoffset:0;stroke-opacity:1"
       transform="matrix(1.3333333,0,0,-1.3333333,0,591.14166)"
       clip-path="url(#clipPath53)" />
    <path
       id="path54"
       d="M 549.02871,-1 V 349.27139"
       style="fill:none;stroke:#ff7f0e;stroke-width:1.5;stroke-linecap:butt;stroke-linejoin:round;stroke-miterlimit:10;stroke-dasharray:1.5, 2.475;stroke-dashoffset:0;stroke-opacity:1"
       transform="matrix(1.3333333,0,0,-1.3333333,0,591.14166)"
       clip-path="url(#clipPath55)" />
    <path
       id="path56"
       d="M 569.35113,-1 V 358.52156"
       style="fill:none;stroke:#ff7f0e;stroke-width:1.5;stroke-linecap:butt;stroke-linejoin:round;stroke-miterlimit:10;stroke-dasharray:1.5, 2.475;stroke-dashoffset:0;stroke-opacity:1"
       transform="matrix(1.3333333,0,0,-1.3333333,0,591.14166)"
       clip-path="url(#clipPath57)" />
    <path
       id="path58"
       d="M 437.2554,-1 V 337.08731"
       style="fill:none;stroke:#2ca02c;stroke-width:1.5;stroke-linecap:butt;stroke-linejoin:round;stroke-miterlimit:10;stroke-dasharray:1.5, 2.475;stroke-dashoffset:0;stroke-opacity:1"
       transform="matrix(1.3333333,0,0,-1.3333333,0,591.14166)"
       clip-path="url(#clipPath59)" />
    <path
       id="path60"
       d="M 447.41661,-1 V 342.3913"
       style="fill:none;stroke:#2ca02c;stroke-width:1.5;stroke-linecap:butt;stroke-linejoin:round;stroke-miterlimit:10;stroke-dasharray:1.5, 2.475;stroke-dashoffset:0;stroke-opacity:1"
       transform="matrix(1.3333333,0,0,-1.3333333,0,591.14166)"
       clip-path="url(#clipPath61)" />
    <path
       id="path62"
       d="M 528.70629,-1 V 362.45169"
       style="fill:none;stroke:#2ca02c;stroke-width:1.5;stroke-linecap:butt;stroke-linejoin:round;stroke-miterlimit:10;stroke-dasharray:1.5, 2.475;stroke-dashoffset:0;stroke-opacity:1"
       transform="matrix(1.3333333,0,0,-1.3333333,0,591.14166)"
       clip-path="url(#clipPath63)" />
    <path
       id="path64"
       d="M 549.02871,-1 V 366.63455"
       style="fill:none;stroke:#2ca02c;stroke-width:1.5;stroke-linecap:butt;stroke-linejoin:round;stroke-miterlimit:10;stroke-dasharray:1.5, 2.475;stroke-dashoffset:0;stroke-opacity:1"
       transform="matrix(1.3333333,0,0,-1.3333333,0,591.14166)"
       clip-path="url(#clipPath65)" />
    <path
       id="path66"
       d="M 630.31838,-1 V 348.10198"
       style="fill:none;stroke:#2ca02c;stroke-width:1.5;stroke-linecap:butt;stroke-linejoin:round;stroke-miterlimit:10;stroke-dasharray:1.5, 2.475;stroke-dashoffset:0;stroke-opacity:1"
       transform="matrix(1.3333333,0,0,-1.3333333,0,591.14166)"
       clip-path="url(#clipPath67)" />
    <path
       id="path68"
       d="m 81.613068,68.17703 10.16121,79.88395 10.161212,36.87998 10.16121,16.88614 10.16121,10.44702 10.16121,16.95699 10.16121,-16.35353 10.1612,29.51565 10.16121,-4.3146 10.16121,-0.46177 10.16121,14.42722 10.16121,1.50521 10.16121,4.53386 10.16121,-3.52039 10.16121,11.19943 10.16121,-1.25399 10.16121,-4.5588 10.16121,14.40691 10.16121,-13.23175 10.16121,9.72576 10.16121,11.07977 10.16121,2.6206 10.16121,-18.69269 10.16121,27.13968 10.16121,-4.07792 10.16121,-6.46849 10.16121,12.0779 10.16121,0.33523 10.16121,-1.73923 10.1612,6.54852 10.16121,7.10023 10.16121,0.13143 10.16121,1.23305 10.16121,4.59141 10.16121,-7.84925 10.16121,5.94979 10.16121,4.35831 10.16121,12.04297 10.16121,2.04059 10.16121,8.60503 10.16121,-0.97457 10.16121,-5.97 10.16121,10.08828 10.16121,2.94302 10.16121,-1.45492 10.16121,-7.14806 10.16121,-3.63159 10.16121,5.71157 10.16121,-4.58045 10.16121,9.97785 10.16121,-3.87277 10.1612,8.66741 10.16121,-4.02545 10.16121,4.75481 10.16121,-2.49338 10.16121,10.09613 10.16121,0.19403 10.16121,-5.92432 10.16121,7.03993 10.16121,3.4036"
       style="fill:none;stroke:#1f77b4;stroke-width:1.5;stroke-linecap:square;stroke-linejoin:round;stroke-miterlimit:10;stroke-dasharray:none;stroke-opacity:1"
       transform="matrix(1.3333333,0,0,-1.3333333,0,591.14166)"
       clip-path="url(#clipPath69)" />
    <path
       id="path70"
       d="m 81.613068,60.344318 10.16121,58.873492 10.161212,-7.8981 10.16121,37.17702 10.16121,6.78801 10.16121,31.55967 10.16121,-7.75848 10.1612,-7.42759 10.16121,-15.5699 10.16121,31.71155 10.16121,2.31649 10.16121,0.0129 10.16121,-3.10167 10.16121,2.48027 10.16121,-3.85905 10.16121,20.38718 10.16121,8.98207 10.16121,-40.92458 10.16121,41.4884 10.16121,-6.18283 10.16121,-6.61164 10.16121,-10.57228 10.16121,4.02217 10.16121,-16.0629 10.16121,36.20093 10.16121,-44.39882 10.16121,33.58169 10.16121,-9.5952 10.16121,2.23576 10.1612,-25.02645 10.16121,22.1425 10.16121,6.04915 10.16121,6.28341 10.16121,-27.71121 10.16121,23.97756 10.16121,7.41502 10.16121,-3.40513 10.16121,-4.89632 10.16121,0.85864 10.16121,-4.99629 10.16121,8.84111 10.16121,1.70238 10.16121,-23.38329 10.16121,17.46385 10.16121,5.58029 10.16121,2.05697 10.16121,5.48158 10.16121,-5.4882 10.16121,6.22055 10.16121,-10.91243 10.16121,13.74256 10.1612,-11.42419 10.16121,3.86909 10.16121,1.12279 10.16121,0.30441 10.16121,-20.13406 10.16121,13.26499 10.16121,14.78041 10.16121,-3.78527 10.16121,-8.56317"
       style="fill:none;stroke:#1f77b4;stroke-width:1.5;stroke-linecap:butt;stroke-linejoin:round;stroke-miterlimit:10;stroke-dasharray:9.6, 2.4, 1.5, 2.4;stroke-dashoffset:0;stroke-opacity:1"
       transform="matrix(1.3333333,0,0,-1.3333333,0,591.14166)"
       clip-path="url(#clipPath71)" />
    <path
       id="path72"
       d="m 81.613068,91.079955 10.16121,65.386715 10.161212,34.49982 10.16121,19.74826 10.16121,11.68366 10.16121,20.16949 10.16121,-13.23919 10.1612,27.96612 10.16121,-0.49657 10.16121,1.09591 10.16121,13.18444 10.16121,3.06531 10.16121,5.33288 10.16121,-6.95359 10.16121,10.71389 10.16121,-0.26152 10.16121,-2.83734 10.16121,13.73919 10.16121,-11.95723 10.16121,6.8304 10.16121,11.81486 10.16121,2.33666 10.16121,-15.73866 10.16121,24.41026 10.16121,-4.91477 10.16121,3.052 10.16121,4.13914 10.16121,-6.77792 10.16121,-1.31723 10.1612,6.00591 10.16121,5.25478 10.16121,1.14874 10.16121,-1.42853 10.16121,5.99868 10.16121,-4.35886 10.16121,1.98069 10.16121,3.66808 10.16121,12.29666 10.16121,-0.13215 10.16121,9.46522 10.16121,-0.28887 10.16121,-9.13894 10.16121,13.11732 10.16121,3.99514 10.16121,-0.009 10.16121,3.68897 10.16121,-7.7469 10.16121,17.0386 10.16121,-7.78843 10.16121,30.72279 10.16121,-1.53248 10.1612,6.67034 10.16121,1.14647 10.16121,2.38686 10.16121,-0.40975 10.16121,11.17861 10.16121,-0.10941 10.16121,-2.36973 10.16121,5.53625 10.16121,4.61416"
       style="fill:none;stroke:#ff7f0e;stroke-width:1.5;stroke-linecap:square;stroke-linejoin:round;stroke-miterlimit:10;stroke-dasharray:none;stroke-opacity:1"
       transform="matrix(1.3333333,0,0,-1.3333333,0,591.14166)"
       clip-path="url(#clipPath73)" />
    <path
       id="path74"
       d="m 81.613068,60.639794 10.16121,54.984326 10.161212,-14.66162 10.16121,42.96411 10.16121,11.41702 10.16121,33.47746 10.16121,-2.27149 10.1612,-15.59074 10.16121,-16.74585 10.16121,33.50757 10.16121,6.61098 10.16121,-3.24725 10.16121,-0.83978 10.16121,-0.51948 10.16121,-3.74192 10.16121,15.09706 10.16121,12.40536 10.16121,-39.89487 10.16121,41.56515 10.16121,-2.76417 10.16121,-9.18986 10.16121,-5.58658 10.16121,-0.74448 10.16121,-14.50115 10.16121,36.02821 10.16121,-37.17372 10.16121,30.12266 10.16121,-13.5691 10.16121,5.88967 10.1612,-24.99027 10.16121,17.75686 10.16121,5.44739 10.16121,6.60878 10.16121,-20.89545 10.16121,21.91236 10.16121,2.49079 10.16121,-2.35109 10.16121,-8.7895 10.16121,3.79586 10.16121,-10.06273 10.16121,14.72152 10.16121,1.9469 10.16121,-27.38496 10.16121,20.80177 10.16121,6.8115 10.16121,-4.4102 10.16121,10.16464 10.16121,-7.27385 10.16121,2.35918 10.16121,-13.2352 10.16121,9.94956 10.1612,-7.104 10.16121,1.1647 10.16121,1.09852 10.16121,4.3213 10.16121,-13.94329 10.16121,6.82937 10.16121,9.89993 10.16121,-2.35587 10.16121,-5.21467"
       style="fill:none;stroke:#ff7f0e;stroke-width:1.5;stroke-linecap:butt;stroke-linejoin:round;stroke-miterlimit:10;stroke-dasharray:9.6, 2.4, 1.5, 2.4;stroke-dashoffset:0;stroke-opacity:1"
       transform="matrix(1.3333333,0,0,-1.3333333,0,591.14166)"
       clip-path="url(#clipPath75)" />
    <path
       id="path76"
       d="m 81.613068,106.99501 10.16121,66.01948 10.161212,31.469 10.16121,20.75333 10.16121,8.2795 10.16121,18.39612 10.16121,-13.82118 10.1612,28.32416 10.16121,-0.66439 10.16121,0.55775 10.16121,15.58385 10.16121,0.57416 10.16121,5.27308 10.16121,-4.97139 10.16121,10.10768 10.16121,0.3807 10.16121,-5.16723 10.16121,14.25304 10.16121,-14.46101 10.16121,6.61399 10.16121,12.66443 10.16121,2.91526 10.16121,-15.98174 10.16121,24.25761 10.16121,-4.08081 10.16121,-3.06834 10.16121,8.99853 10.16121,1.12437 10.16121,-1.19992 10.1612,5.30785 10.16121,4.73145 10.16121,-0.38496 10.16121,0.68307 10.16121,6.99023 10.16121,-7.17454 10.16121,6.80917 10.16121,5.30399 10.16121,4.16566 10.16121,2.99797 10.16121,8.57134 10.16121,-3.19475 10.16121,-5.90291 10.16121,10.99029 10.16121,6.27705 10.16121,-3.84426 10.16121,12.36751 10.16121,-8.18465 10.16121,-23.55814 10.16121,-2.37034 10.16121,15.24605 10.16121,-4.08077 10.1612,12.44976 10.16121,-11.08468 10.16121,7.28083 10.16121,-12.41528 10.16121,26.31422 10.16121,-2.2723 10.16121,-9.78773 10.16121,7.47105 10.16121,4.09026"
       style="fill:none;stroke:#2ca02c;stroke-width:1.5;stroke-linecap:square;stroke-linejoin:round;stroke-miterlimit:10;stroke-dasharray:none;stroke-opacity:1"
       transform="matrix(1.3333333,0,0,-1.3333333,0,591.14166)"
       clip-path="url(#clipPath77)" />
    <path
       id="path78"
       d="m 81.613068,73.40614 10.16121,48.11129 10.161212,-13.66535 10.16121,42.99588 10.16121,6.59709 10.16121,32.76176 10.16121,-4.5635 10.1612,-10.3539 10.16121,-16.70117 10.16121,28.00073 10.16121,4.40931 10.16121,-1.07007 10.16121,-3.48119 10.16121,1.33841 10.16121,-3.08446 10.16121,17.60745 10.16121,10.16431 10.16121,-40.07057 10.16121,41.04964 10.16121,-2.70594 10.16121,-8.34678 10.16121,-11.53117 10.16121,2.46539 10.16121,-13.50553 10.16121,35.7774 10.16121,-45.39807 10.16121,34.31756 10.16121,-9.88538 10.16121,5.04063 10.1612,-29.09164 10.16121,18.61399 10.16121,10.23379 10.16121,5.47044 10.16121,-27.27147 10.16121,26.2967 10.16121,3.56325 10.16121,-4.08124 10.16121,-8.04701 10.16121,-0.11498 10.16121,-9.08597 10.16121,19.00907 10.16121,-2.50477 10.16121,-30.71063 10.16121,25.22133 10.16121,4.52313 10.16121,-2.29906 10.16121,11.15286 10.16121,0.0452 10.16121,-8.29516 10.16121,-6.10474 10.16121,14.22454 10.1612,-8.92218 10.16121,-1.39797 10.16121,6.82605 10.16121,4.00034 10.16121,-16.97745 10.16121,9.73118 10.16121,11.59735 10.16121,-1.89925 10.16121,-8.52348"
       style="fill:none;stroke:#2ca02c;stroke-width:1.5;stroke-linecap:butt;stroke-linejoin:round;stroke-miterlimit:10;stroke-dasharray:9.6, 2.4, 1.5, 2.4;stroke-dashoffset:0;stroke-opacity:1"
       transform="matrix(1.3333333,0,0,-1.3333333,0,591.14166)"
       clip-path="url(#clipPath79)" />
    <path
       id="path80"
       d="m 58.6375,338.12499 h 186.01562 c 1.33334,0 2,0.66667 2,2 v 87.03125 c 0,1.33334 -0.66666,2 -2,2 H 58.6375 c -1.333333,0 -2,-0.66666 -2,-2 v -87.03125 c 0,-1.33333 0.666667,-2 2,-2 z"
       style="fill:#ffffff;fill-opacity:0.8;fill-rule:nonzero;stroke:#cccccc;stroke-width:1;stroke-linecap:butt;stroke-linejoin:miter;stroke-miterlimit:10;stroke-dasharray:none;stroke-opacity:0.8"
       transform="matrix(1.3333333,0,0,-1.3333333,0,591.14166)" />
    <path
       id="path81"
       d="m 60.6375,421.06249 h 20"
       style="fill:none;stroke:#1f77b4;stroke-width:1.5;stroke-linecap:square;stroke-linejoin:round;stroke-miterlimit:10;stroke-dasharray:none;stroke-opacity:1"
       transform="matrix(1.3333333,0,0,-1.3333333,0,591.14166)" />
    <text
       id="text81"
       xml:space="preserve"
       transform="matrix(1.3333333,0,0,1.3333333,118.18333,34.391667)"><tspan
         id="tspan81"
         style="font-variant:normal;font-weight:normal;font-size:10px;font-family:'DejaVu Sans';writing-mode:lr-tb;fill:#000000;fill-opacity:1;fill-rule:nonzero;stroke:none"
         x="0"
         y="0">DES mean train RAUC</tspan></text>
    <path
       id="path82"
       d="m 60.6375,406.39062 h 20"
       style="fill:none;stroke:#1f77b4;stroke-width:1.5;stroke-linecap:butt;stroke-linejoin:round;stroke-miterlimit:10;stroke-dasharray:9.6, 2.4, 1.5, 2.4;stroke-dashoffset:0;stroke-opacity:1"
       transform="matrix(1.3333333,0,0,-1.3333333,0,591.14166)" />
    <text
       id="text82"
       xml:space="preserve"
       transform="matrix(1.3333333,0,0,1.3333333,118.18333,53.954167)"><tspan
         id="tspan82"
         style="font-variant:normal;font-weight:normal;font-size:10px;font-family:'DejaVu Sans';writing-mode:lr-tb;fill:#000000;fill-opacity:1;fill-rule:nonzero;stroke:none"
         x="0"
         y="0">DES mean validation RAUC</tspan></text>
    <path
       id="path83"
       d="m 60.6375,391.71874 h 20"
       style="fill:none;stroke:#ff7f0e;stroke-width:1.5;stroke-linecap:square;stroke-linejoin:round;stroke-miterlimit:10;stroke-dasharray:none;stroke-opacity:1"
       transform="matrix(1.3333333,0,0,-1.3333333,0,591.14166)" />
    <text
       id="text83"
       xml:space="preserve"
       transform="matrix(1.3333333,0,0,1.3333333,118.18333,73.516667)"><tspan
         id="tspan83"
         style="font-variant:normal;font-weight:normal;font-size:10px;font-family:'DejaVu Sans';writing-mode:lr-tb;fill:#000000;fill-opacity:1;fill-rule:nonzero;stroke:none"
         x="0"
         y="0">CMA-ES mean train RAUC</tspan></text>
    <path
       id="path84"
       d="m 60.6375,377.04687 h 20"
       style="fill:none;stroke:#ff7f0e;stroke-width:1.5;stroke-linecap:butt;stroke-linejoin:round;stroke-miterlimit:10;stroke-dasharray:9.6, 2.4, 1.5, 2.4;stroke-dashoffset:0;stroke-opacity:1"
       transform="matrix(1.3333333,0,0,-1.3333333,0,591.14166)" />
    <text
       id="text84"
       xml:space="preserve"
       transform="matrix(1.3333333,0,0,1.3333333,118.18333,93.079167)"><tspan
         id="tspan84"
         style="font-variant:normal;font-weight:normal;font-size:10px;font-family:'DejaVu Sans';writing-mode:lr-tb;fill:#000000;fill-opacity:1;fill-rule:nonzero;stroke:none"
         x="0"
         y="0">CMA-ES mean validation RAUC</tspan></text>
    <path
       id="path85"
       d="m 60.6375,362.37499 h 20"
       style="fill:none;stroke:#2ca02c;stroke-width:1.5;stroke-linecap:square;stroke-linejoin:round;stroke-miterlimit:10;stroke-dasharray:none;stroke-opacity:1"
       transform="matrix(1.3333333,0,0,-1.3333333,0,591.14166)" />
    <text
       id="text85"
       xml:space="preserve"
       transform="matrix(1.3333333,0,0,1.3333333,118.18333,112.64167)"><tspan
         id="tspan85"
         style="font-variant:normal;font-weight:normal;font-size:10px;font-family:'DejaVu Sans';writing-mode:lr-tb;fill:#000000;fill-opacity:1;fill-rule:nonzero;stroke:none"
         x="0"
         y="0">jSO mean train RAUC</tspan></text>
    <path
       id="path86"
       d="m 60.6375,347.70312 h 20"
       style="fill:none;stroke:#2ca02c;stroke-width:1.5;stroke-linecap:butt;stroke-linejoin:round;stroke-miterlimit:10;stroke-dasharray:9.6, 2.4, 1.5, 2.4;stroke-dashoffset:0;stroke-opacity:1"
       transform="matrix(1.3333333,0,0,-1.3333333,0,591.14166)" />
    <text
       id="text86"
       xml:space="preserve"
       transform="matrix(1.3333333,0,0,1.3333333,118.18333,132.20417)"><tspan
         id="tspan86"
         style="font-variant:normal;font-weight:normal;font-size:10px;font-family:'DejaVu Sans';writing-mode:lr-tb;fill:#000000;fill-opacity:1;fill-rule:nonzero;stroke:none"
         x="0"
         y="0">jSO mean validation RAUC</tspan></text>
  </g>
</svg>
