<svg xmlns="http://www.w3.org/2000/svg" width="962.4" height="591.142" viewBox="0 0 962.4 591.142"><defs><clipPath id="a" clipPathUnits="userSpaceOnUse"><path d="M51.638 42.544H711.1v391.612H51.638Z"/></clipPath><clipPath id="b" clipPathUnits="userSpaceOnUse"><path d="M51.638 42.544H711.1v391.612H51.638Z"/></clipPath><clipPath id="c" clipPathUnits="userSpaceOnUse"><path d="M51.638 42.544H711.1v391.612H51.638Z"/></clipPath><clipPath id="d" clipPathUnits="userSpaceOnUse"><path d="M51.638 42.544H711.1v391.612H51.638Z"/></clipPath><clipPath id="e" clipPathUnits="userSpaceOnUse"><path d="M51.638 42.544H711.1v391.612H51.638Z"/></clipPath><clipPath id="f" clipPathUnits="userSpaceOnUse"><path d="M51.638 42.544H711.1v391.612H51.638Z"/></clipPath><clipPath id="g" clipPathUnits="userSpaceOnUse"><path d="M51.638 42.544H711.1v391.612H51.638Z"/></clipPath><clipPath id="h" clipPathUnits="userSpaceOnUse"><path d="M51.638 42.544H711.1v391.612H51.638Z"/></clipPath><clipPath id="i" clipPathUnits="userSpaceOnUse"><path d="M51.638 42.544H711.1v391.612H51.638Z"/></clipPath><clipPath id="j" clipPathUnits="userSpaceOnUse"><path d="M51.638 42.544H711.1v391.612H51.638Z"/></clipPath><clipPath id="k" clipPathUnits="userSpaceOnUse"><path d="M51.638 42.544H711.1v391.612H51.638Z"/></clipPath><clipPath id="l" clipPathUnits="userSpaceOnUse"><path d="M51.638 42.544H711.1v391.612H51.638Z"/></clipPath><clipPath id="m" clipPathUnits="userSpaceOnUse"><path d="M51.638 42.544H711.1v391.612H51.638Z"/></clipPath><clipPath id="n" clipPathUnits="userSpaceOnUse"><path d="M51.638 42.544H711.1v391.612H51.638Z"/></clipPath><clipPath id="o" clipPathUnits="userSpaceOnUse"><path d="M51.638 42.544H711.1v391.612H51.638Z"/></clipPath><clipPath id="p" clipPathUnits="userSpaceOnUse"><path d="M51.638 42.544H711.1v391.612H51.638Z"/></clipPath><clipPath id="q" clipPathUnits="userSpaceOnUse"><path d="M51.638 42.544H711.1v391.612H51.638Z"/></clipPath><clipPath id="r" clipPathUnits="userSpaceOnUse"><path d="M51.638 42.544H711.1v391.612H51.638Z"/></clipPath><clipPath id="s" clipPathUnits="userSpaceOnUse"><path d="M51.638 42.544H711.1v391.612H51.638Z"/></clipPath><clipPath id="t" clipPathUnits="userSpaceOnUse"><path d="M51.638 42.544H711.1v391.612H51.638Z"/></clipPath><clipPath id="u" clipPathUnits="userSpaceOnUse"><path d="M51.638 42.544H711.1v391.612H51.638Z"/></clipPath><clipPath id="v" clipPathUnits="userSpaceOnUse"><path d="M51.638 42.544H711.1v391.612H51.638Z"/></clipPath><clipPath id="w" clipPathUnits="userSpaceOnUse"><path d="M51.638 42.544H711.1v391.612H51.638Z"/></clipPath><clipPath id="x" clipPathUnits="userSpaceOnUse"><path d="M51.638 42.544H711.1v391.612H51.638Z"/></clipPath><clipPath id="y" clipPathUnits="userSpaceOnUse"><path d="M51.638 42.544H711.1v391.612H51.638Z"/></clipPath><clipPath id="z" clipPathUnits="userSpaceOnUse"><path d="M51.638 42.544H711.1v391.612H51.638Z"/></clipPath><clipPath id="A" clipPathUnits="userSpaceOnUse"><path d="M51.638 42.544H711.1v391.612H51.638Z"/></clipPath><clipPath id="B" clipPathUnits="userSpaceOnUse"><path d="M51.638 42.544H711.1v391.612H51.638Z"/></clipPath><clipPath id="C" clipPathUnits="userSpaceOnUse"><path d="M51.638 42.544H711.1v391.612H51.638Z"/></clipPath><clipPath id="D" clipPathUnits="userSpaceOnUse"><path d="M51.638 42.544H711.1v391.612H51.638Z"/></clipPath><clipPath id="E" clipPathUnits="userSpaceOnUse"><path d="M51.638 42.544H711.1v391.612H51.638Z"/></clipPath><clipPath id="F" clipPathUnits="userSpaceOnUse"><path d="M51.638 42.544H711.1v391.612H51.638Z"/></clipPath><clipPath id="G" clipPathUnits="userSpaceOnUse"><path d="M51.638 42.544H711.1v391.612H51.638Z"/></clipPath><clipPath id="H" clipPathUnits="userSpaceOnUse"><path d="M51.638 42.544H711.1v391.612H51.638Z"/></clipPath><clipPath id="I" clipPathUnits="userSpaceOnUse"><path d="M51.638 42.544H711.1v391.612H51.638Z"/></clipPath><clipPath id="J" clipPathUnits="userSpaceOnUse"><path d="M51.638 42.544H711.1v391.612H51.638Z"/></clipPath></defs><path d="M81.613 42.544v391.612" clip-path="url(#a)" style="fill:none;stroke:#e6e6e6;stroke-width:1;stroke-linecap:square;stroke-linejoin:round;stroke-miterlimit:10;stroke-dasharray:none;stroke-opacity:1" transform="matrix(1.33333 0 0 -1.33333 0 591.142)"/><path d="M81.613 37.544v-3.5" style="fill:#000;fill-opacity:1;fill-rule:nonzero;stroke:#000;stroke-width:.8;stroke-linecap:butt;stroke-linejoin:round;stroke-miterlimit:10;stroke-dasharray:none;stroke-opacity:1" transform="matrix(1.33333 0 0 -1.33333 0 591.142)"/><text xml:space="preserve" transform="translate(104.578 560.542)scale(1.33333)"><tspan x="0" y="0" style="font-variant:normal;font-weight:400;font-size:10px;font-family:&quot;DejaVu Sans&quot;;writing-mode:lr-tb;fill:#000;fill-opacity:1;fill-rule:nonzero;stroke:none">0</tspan></text><path d="M183.225 42.544v391.612" clip-path="url(#b)" style="fill:none;stroke:#e6e6e6;stroke-width:1;stroke-linecap:square;stroke-linejoin:round;stroke-miterlimit:10;stroke-dasharray:none;stroke-opacity:1" transform="matrix(1.33333 0 0 -1.33333 0 591.142)"/><path d="M183.225 37.544v-3.5" style="fill:#000;fill-opacity:1;fill-rule:nonzero;stroke:#000;stroke-width:.8;stroke-linecap:butt;stroke-linejoin:round;stroke-miterlimit:10;stroke-dasharray:none;stroke-opacity:1" transform="matrix(1.33333 0 0 -1.33333 0 591.142)"/><text xml:space="preserve" transform="translate(235.821 560.542)scale(1.33333)"><tspan x="0" y="0" style="font-variant:normal;font-weight:400;font-size:10px;font-family:&quot;DejaVu Sans&quot;;writing-mode:lr-tb;fill:#000;fill-opacity:1;fill-rule:nonzero;stroke:none">10</tspan></text><path d="M284.837 42.544v391.612" clip-path="url(#c)" style="fill:none;stroke:#e6e6e6;stroke-width:1;stroke-linecap:square;stroke-linejoin:round;stroke-miterlimit:10;stroke-dasharray:none;stroke-opacity:1" transform="matrix(1.33333 0 0 -1.33333 0 591.142)"/><path d="M284.837 37.544v-3.5" style="fill:#000;fill-opacity:1;fill-rule:nonzero;stroke:#000;stroke-width:.8;stroke-linecap:butt;stroke-linejoin:round;stroke-miterlimit:10;stroke-dasharray:none;stroke-opacity:1" transform="matrix(1.33333 0 0 -1.33333 0 591.142)"/><text xml:space="preserve" transform="translate(371.304 560.542)scale(1.33333)"><tspan x="0" y="0" style="font-variant:normal;font-weight:400;font-size:10px;font-family:&quot;DejaVu Sans&quot;;writing-mode:lr-tb;fill:#000;fill-opacity:1;fill-rule:nonzero;stroke:none">20</tspan></text><path d="M386.45 42.544v391.612" clip-path="url(#d)" style="fill:none;stroke:#e6e6e6;stroke-width:1;stroke-linecap:square;stroke-linejoin:round;stroke-miterlimit:10;stroke-dasharray:none;stroke-opacity:1" transform="matrix(1.33333 0 0 -1.33333 0 591.142)"/><path d="M386.45 37.544v-3.5" style="fill:#000;fill-opacity:1;fill-rule:nonzero;stroke:#000;stroke-width:.8;stroke-linecap:butt;stroke-linejoin:round;stroke-miterlimit:10;stroke-dasharray:none;stroke-opacity:1" transform="matrix(1.33333 0 0 -1.33333 0 591.142)"/><text xml:space="preserve" transform="translate(506.787 560.542)scale(1.33333)"><tspan x="0" y="0" style="font-variant:normal;font-weight:400;font-size:10px;font-family:&quot;DejaVu Sans&quot;;writing-mode:lr-tb;fill:#000;fill-opacity:1;fill-rule:nonzero;stroke:none">30</tspan></text><path d="M488.061 42.544v391.612" clip-path="url(#e)" style="fill:none;stroke:#e6e6e6;stroke-width:1;stroke-linecap:square;stroke-linejoin:round;stroke-miterlimit:10;stroke-dasharray:none;stroke-opacity:1" transform="matrix(1.33333 0 0 -1.33333 0 591.142)"/><path d="M488.061 37.544v-3.5" style="fill:#000;fill-opacity:1;fill-rule:nonzero;stroke:#000;stroke-width:.8;stroke-linecap:butt;stroke-linejoin:round;stroke-miterlimit:10;stroke-dasharray:none;stroke-opacity:1" transform="matrix(1.33333 0 0 -1.33333 0 591.142)"/><text xml:space="preserve" transform="translate(642.27 560.542)scale(1.33333)"><tspan x="0" y="0" style="font-variant:normal;font-weight:400;font-size:10px;font-family:&quot;DejaVu Sans&quot;;writing-mode:lr-tb;fill:#000;fill-opacity:1;fill-rule:nonzero;stroke:none">40</tspan></text><path d="M589.674 42.544v391.612" clip-path="url(#f)" style="fill:none;stroke:#e6e6e6;stroke-width:1;stroke-linecap:square;stroke-linejoin:round;stroke-miterlimit:10;stroke-dasharray:none;stroke-opacity:1" transform="matrix(1.33333 0 0 -1.33333 0 591.142)"/><path d="M589.674 37.544v-3.5" style="fill:#000;fill-opacity:1;fill-rule:nonzero;stroke:#000;stroke-width:.8;stroke-linecap:butt;stroke-linejoin:round;stroke-miterlimit:10;stroke-dasharray:none;stroke-opacity:1" transform="matrix(1.33333 0 0 -1.33333 0 591.142)"/><text xml:space="preserve" transform="translate(777.752 560.542)scale(1.33333)"><tspan x="0" y="0" style="font-variant:normal;font-weight:400;font-size:10px;font-family:&quot;DejaVu Sans&quot;;writing-mode:lr-tb;fill:#000;fill-opacity:1;fill-rule:nonzero;stroke:none">50</tspan></text><path d="M691.286 42.544v391.612" clip-path="url(#g)" style="fill:none;stroke:#e6e6e6;stroke-width:1;stroke-linecap:square;stroke-linejoin:round;stroke-miterlimit:10;stroke-dasharray:none;stroke-opacity:1" transform="matrix(1.33333 0 0 -1.33333 0 591.142)"/><path d="M691.286 37.544v-3.5" style="fill:#000;fill-opacity:1;fill-rule:nonzero;stroke:#000;stroke-width:.8;stroke-linecap:butt;stroke-linejoin:round;stroke-miterlimit:10;stroke-dasharray:none;stroke-opacity:1" transform="matrix(1.33333 0 0 -1.33333 0 591.142)"/><text xml:space="preserve" transform="translate(913.235 560.542)scale(1.33333)"><tspan x="0" y="0" style="font-variant:normal;font-weight:400;font-size:10px;font-family:&quot;DejaVu Sans&quot;;writing-mode:lr-tb;fill:#000;fill-opacity:1;fill-rule:nonzero;stroke:none">60</tspan></text><text xml:space="preserve" transform="translate(488.18 578.77)scale(1.33333)"><tspan x="0" y="0" style="font-variant:normal;font-weight:400;font-size:10px;font-family:&quot;DejaVu Sans&quot;;writing-mode:lr-tb;fill:#000;fill-opacity:1;fill-rule:nonzero;stroke:none">epoch</tspan></text><path d="M51.638 68.95H711.1" clip-path="url(#h)" style="fill:none;stroke:#e6e6e6;stroke-width:1;stroke-linecap:square;stroke-linejoin:round;stroke-miterlimit:10;stroke-dasharray:none;stroke-opacity:1" transform="matrix(1.33333 0 0 -1.33333 0 591.142)"/><text xml:space="preserve" transform="translate(27.83 504.271)scale(1.33333)"><tspan x="0" y="0" style="font-variant:normal;font-weight:400;font-size:10px;font-family:&quot;DejaVu Sans&quot;;writing-mode:lr-tb;fill:#000;fill-opacity:1;fill-rule:nonzero;stroke:none">0.66</tspan></text><path d="M51.638 113.983H711.1" clip-path="url(#i)" style="fill:none;stroke:#e6e6e6;stroke-width:1;stroke-linecap:square;stroke-linejoin:round;stroke-miterlimit:10;stroke-dasharray:none;stroke-opacity:1" transform="matrix(1.33333 0 0 -1.33333 0 591.142)"/><text xml:space="preserve" transform="translate(27.83 444.227)scale(1.33333)"><tspan x="0" y="0" style="font-variant:normal;font-weight:400;font-size:10px;font-family:&quot;DejaVu Sans&quot;;writing-mode:lr-tb;fill:#000;fill-opacity:1;fill-rule:nonzero;stroke:none">0.68</tspan></text><path d="M51.638 159.017H711.1" clip-path="url(#j)" style="fill:none;stroke:#e6e6e6;stroke-width:1;stroke-linecap:square;stroke-linejoin:round;stroke-miterlimit:10;stroke-dasharray:none;stroke-opacity:1" transform="matrix(1.33333 0 0 -1.33333 0 591.142)"/><text xml:space="preserve" transform="translate(27.83 384.182)scale(1.33333)"><tspan x="0" y="0" style="font-variant:normal;font-weight:400;font-size:10px;font-family:&quot;DejaVu Sans&quot;;writing-mode:lr-tb;fill:#000;fill-opacity:1;fill-rule:nonzero;stroke:none">0.70</tspan></text><path d="M51.638 204.05H711.1" clip-path="url(#k)" style="fill:none;stroke:#e6e6e6;stroke-width:1;stroke-linecap:square;stroke-linejoin:round;stroke-miterlimit:10;stroke-dasharray:none;stroke-opacity:1" transform="matrix(1.33333 0 0 -1.33333 0 591.142)"/><text xml:space="preserve" transform="translate(27.83 324.137)scale(1.33333)"><tspan x="0" y="0" style="font-variant:normal;font-weight:400;font-size:10px;font-family:&quot;DejaVu Sans&quot;;writing-mode:lr-tb;fill:#000;fill-opacity:1;fill-rule:nonzero;stroke:none">0.72</tspan></text><path d="M51.638 249.084H711.1" clip-path="url(#l)" style="fill:none;stroke:#e6e6e6;stroke-width:1;stroke-linecap:square;stroke-linejoin:round;stroke-miterlimit:10;stroke-dasharray:none;stroke-opacity:1" transform="matrix(1.33333 0 0 -1.33333 0 591.142)"/><text xml:space="preserve" transform="translate(27.83 264.092)scale(1.33333)"><tspan x="0" y="0" style="font-variant:normal;font-weight:400;font-size:10px;font-family:&quot;DejaVu Sans&quot;;writing-mode:lr-tb;fill:#000;fill-opacity:1;fill-rule:nonzero;stroke:none">0.74</tspan></text><path d="M51.638 294.117H711.1" clip-path="url(#m)" style="fill:none;stroke:#e6e6e6;stroke-width:1;stroke-linecap:square;stroke-linejoin:round;stroke-miterlimit:10;stroke-dasharray:none;stroke-opacity:1" transform="matrix(1.33333 0 0 -1.33333 0 591.142)"/><text xml:space="preserve" transform="translate(27.83 204.048)scale(1.33333)"><tspan x="0" y="0" style="font-variant:normal;font-weight:400;font-size:10px;font-family:&quot;DejaVu Sans&quot;;writing-mode:lr-tb;fill:#000;fill-opacity:1;fill-rule:nonzero;stroke:none">0.76</tspan></text><path d="M51.638 339.151H711.1" clip-path="url(#n)" style="fill:none;stroke:#e6e6e6;stroke-width:1;stroke-linecap:square;stroke-linejoin:round;stroke-miterlimit:10;stroke-dasharray:none;stroke-opacity:1" transform="matrix(1.33333 0 0 -1.33333 0 591.142)"/><text xml:space="preserve" transform="translate(27.83 144.003)scale(1.33333)"><tspan x="0" y="0" style="font-variant:normal;font-weight:400;font-size:10px;font-family:&quot;DejaVu Sans&quot;;writing-mode:lr-tb;fill:#000;fill-opacity:1;fill-rule:nonzero;stroke:none">0.78</tspan></text><path d="M51.638 384.185H711.1" clip-path="url(#o)" style="fill:none;stroke:#e6e6e6;stroke-width:1;stroke-linecap:square;stroke-linejoin:round;stroke-miterlimit:10;stroke-dasharray:none;stroke-opacity:1" transform="matrix(1.33333 0 0 -1.33333 0 591.142)"/><text xml:space="preserve" transform="translate(27.83 83.958)scale(1.33333)"><tspan x="0" y="0" style="font-variant:normal;font-weight:400;font-size:10px;font-family:&quot;DejaVu Sans&quot;;writing-mode:lr-tb;fill:#000;fill-opacity:1;fill-rule:nonzero;stroke:none">0.80</tspan></text><path d="M51.638 429.218H711.1" clip-path="url(#p)" style="fill:none;stroke:#e6e6e6;stroke-width:1;stroke-linecap:square;stroke-linejoin:round;stroke-miterlimit:10;stroke-dasharray:none;stroke-opacity:1" transform="matrix(1.33333 0 0 -1.33333 0 591.142)"/><text xml:space="preserve" transform="translate(27.83 23.913)scale(1.33333)"><tspan x="0" y="0" style="font-variant:normal;font-weight:400;font-size:10px;font-family:&quot;DejaVu Sans&quot;;writing-mode:lr-tb;fill:#000;fill-opacity:1;fill-rule:nonzero;stroke:none">0.82</tspan></text><text xml:space="preserve" transform="rotate(-90 155.903 136.178)scale(1.33333)"><tspan x="0" y="0" style="font-variant:normal;font-weight:400;font-size:10px;font-family:&quot;DejaVu Sans&quot;;writing-mode:lr-tb;fill:#000;fill-opacity:1;fill-rule:nonzero;stroke:none">RAUC</tspan></text><path d="M437.255-1v311.83" clip-path="url(#q)" style="fill:none;stroke:#1f77b4;stroke-width:1.5;stroke-linecap:butt;stroke-linejoin:round;stroke-miterlimit:10;stroke-dasharray:1.5,2.475;stroke-dashoffset:0;stroke-opacity:1" transform="matrix(1.33333 0 0 -1.33333 0 591.142)"/><path d="M447.417-1v316.189" clip-path="url(#r)" style="fill:none;stroke:#1f77b4;stroke-width:1.5;stroke-linecap:butt;stroke-linejoin:round;stroke-miterlimit:10;stroke-dasharray:1.5,2.475;stroke-dashoffset:0;stroke-opacity:1" transform="matrix(1.33333 0 0 -1.33333 0 591.142)"/><path d="M528.706-1v343.51" clip-path="url(#s)" style="fill:none;stroke:#1f77b4;stroke-width:1.5;stroke-linecap:butt;stroke-linejoin:round;stroke-miterlimit:10;stroke-dasharray:1.5,2.475;stroke-dashoffset:0;stroke-opacity:1" transform="matrix(1.33333 0 0 -1.33333 0 591.142)"/><path d="M609.996-1v344.608" clip-path="url(#t)" style="fill:none;stroke:#1f77b4;stroke-width:1.5;stroke-linecap:butt;stroke-linejoin:round;stroke-miterlimit:10;stroke-dasharray:1.5,2.475;stroke-dashoffset:0;stroke-opacity:1" transform="matrix(1.33333 0 0 -1.33333 0 591.142)"/><path d="M345.805-1v314.85" clip-path="url(#u)" style="fill:none;stroke:#ff7f0e;stroke-width:1.5;stroke-linecap:butt;stroke-linejoin:round;stroke-miterlimit:10;stroke-dasharray:1.5,2.475;stroke-dashoffset:0;stroke-opacity:1" transform="matrix(1.33333 0 0 -1.33333 0 591.142)"/><path d="M447.417-1v325.024" clip-path="url(#v)" style="fill:none;stroke:#ff7f0e;stroke-width:1.5;stroke-linecap:butt;stroke-linejoin:round;stroke-miterlimit:10;stroke-dasharray:1.5,2.475;stroke-dashoffset:0;stroke-opacity:1" transform="matrix(1.33333 0 0 -1.33333 0 591.142)"/><path d="M528.706-1v354.33" clip-path="url(#w)" style="fill:none;stroke:#ff7f0e;stroke-width:1.5;stroke-linecap:butt;stroke-linejoin:round;stroke-miterlimit:10;stroke-dasharray:1.5,2.475;stroke-dashoffset:0;stroke-opacity:1" transform="matrix(1.33333 0 0 -1.33333 0 591.142)"/><path d="M549.029-1v350.271" clip-path="url(#x)" style="fill:none;stroke:#ff7f0e;stroke-width:1.5;stroke-linecap:butt;stroke-linejoin:round;stroke-miterlimit:10;stroke-dasharray:1.5,2.475;stroke-dashoffset:0;stroke-opacity:1" transform="matrix(1.33333 0 0 -1.33333 0 591.142)"/><path d="M569.351-1v359.522" clip-path="url(#y)" style="fill:none;stroke:#ff7f0e;stroke-width:1.5;stroke-linecap:butt;stroke-linejoin:round;stroke-miterlimit:10;stroke-dasharray:1.5,2.475;stroke-dashoffset:0;stroke-opacity:1" transform="matrix(1.33333 0 0 -1.33333 0 591.142)"/><path d="M437.255-1v338.087" clip-path="url(#z)" style="fill:none;stroke:#2ca02c;stroke-width:1.5;stroke-linecap:butt;stroke-linejoin:round;stroke-miterlimit:10;stroke-dasharray:1.5,2.475;stroke-dashoffset:0;stroke-opacity:1" transform="matrix(1.33333 0 0 -1.33333 0 591.142)"/><path d="M447.417-1v343.391" clip-path="url(#A)" style="fill:none;stroke:#2ca02c;stroke-width:1.5;stroke-linecap:butt;stroke-linejoin:round;stroke-miterlimit:10;stroke-dasharray:1.5,2.475;stroke-dashoffset:0;stroke-opacity:1" transform="matrix(1.33333 0 0 -1.33333 0 591.142)"/><path d="M528.706-1v363.452" clip-path="url(#B)" style="fill:none;stroke:#2ca02c;stroke-width:1.5;stroke-linecap:butt;stroke-linejoin:round;stroke-miterlimit:10;stroke-dasharray:1.5,2.475;stroke-dashoffset:0;stroke-opacity:1" transform="matrix(1.33333 0 0 -1.33333 0 591.142)"/><path d="M549.029-1v367.635" clip-path="url(#C)" style="fill:none;stroke:#2ca02c;stroke-width:1.5;stroke-linecap:butt;stroke-linejoin:round;stroke-miterlimit:10;stroke-dasharray:1.5,2.475;stroke-dashoffset:0;stroke-opacity:1" transform="matrix(1.33333 0 0 -1.33333 0 591.142)"/><path d="M630.318-1v349.102" clip-path="url(#D)" style="fill:none;stroke:#2ca02c;stroke-width:1.5;stroke-linecap:butt;stroke-linejoin:round;stroke-miterlimit:10;stroke-dasharray:1.5,2.475;stroke-dashoffset:0;stroke-opacity:1" transform="matrix(1.33333 0 0 -1.33333 0 591.142)"/><path d="m81.613 68.177 10.161 79.884 10.161 36.88 10.162 16.886 10.16 10.447 10.162 16.957 10.161-16.353 10.162 29.515 10.16-4.314 10.162-.462 10.161 14.427 10.161 1.505 10.162 4.534 10.16-3.52 10.162 11.2 10.161-1.255 10.161-4.559 10.162 14.407 10.16-13.231 10.162 9.725 10.161 11.08 10.161 2.62 10.162-18.692 10.16 27.14 10.162-4.078 10.161-6.469 10.162 12.078 10.16.335 10.162-1.739 10.161 6.549 10.161 7.1 10.162.131 10.16 1.233 10.162 4.592 10.161-7.85 10.161 5.95 10.162 4.359 10.16 12.043 10.162 2.04 10.161 8.605 10.161-.974 10.162-5.97 10.16 10.088 10.162 2.943 10.161-1.455 10.161-7.148 10.162-3.632 10.16 5.712 10.162-4.58 10.161 9.977 10.162-3.872 10.16 8.667 10.162-4.025 10.161 4.754 10.161-2.493 10.162 10.096 10.16.194 10.162-5.924 10.161 7.04 10.161 3.403" clip-path="url(#E)" style="fill:none;stroke:#1f77b4;stroke-width:1.5;stroke-linecap:square;stroke-linejoin:round;stroke-miterlimit:10;stroke-dasharray:none;stroke-opacity:1" transform="matrix(1.33333 0 0 -1.33333 0 591.142)"/><path d="m81.613 60.344 10.161 58.874 10.161-7.898 10.162 37.177 10.16 6.788 10.162 31.56 10.161-7.76 10.162-7.427 10.16-15.57 10.162 31.712 10.161 2.316 10.161.013 10.162-3.101 10.16 2.48 10.162-3.86 10.161 20.388 10.161 8.982 10.162-40.924 10.16 41.488 10.162-6.183 10.161-6.611 10.161-10.573 10.162 4.022 10.16-16.062 10.162 36.2 10.161-44.398 10.162 33.581 10.16-9.595 10.162 2.236 10.161-25.027 10.161 22.143 10.162 6.05 10.16 6.282 10.162-27.71 10.161 23.977 10.161 7.415 10.162-3.405 10.16-4.897 10.162.859 10.161-4.996 10.161 8.84 10.162 1.703 10.16-23.383 10.162 17.464 10.161 5.58 10.161 2.057 10.162 5.482 10.16-5.489 10.162 6.221 10.161-10.912 10.162 13.742 10.16-11.424 10.162 3.869 10.161 1.123 10.161.304 10.162-20.134 10.16 13.265 10.162 14.78 10.161-3.785 10.161-8.563" clip-path="url(#F)" style="fill:none;stroke:#1f77b4;stroke-width:1.5;stroke-linecap:butt;stroke-linejoin:round;stroke-miterlimit:10;stroke-dasharray:9.6,2.4,1.5,2.4;stroke-dashoffset:0;stroke-opacity:1" transform="matrix(1.33333 0 0 -1.33333 0 591.142)"/><path d="m81.613 91.08 10.161 65.387 10.161 34.5 10.162 19.748 10.16 11.683 10.162 20.17 10.161-13.24 10.162 27.967 10.16-.497 10.162 1.096 10.161 13.185 10.161 3.065 10.162 5.333 10.16-6.954 10.162 10.714 10.161-.261 10.161-2.838 10.162 13.74 10.16-11.958 10.162 6.83 10.161 11.815 10.161 2.337 10.162-15.739 10.16 24.41 10.162-4.914 10.161 3.052 10.162 4.14 10.16-6.779 10.162-1.317 10.161 6.006 10.161 5.255 10.162 1.148 10.16-1.428 10.162 5.999 10.161-4.36 10.161 1.981 10.162 3.668 10.16 12.297 10.162-.132 10.161 9.465 10.161-.289 10.162-9.139 10.16 13.118 10.162 3.995 10.161-.01 10.161 3.69 10.162-7.747 10.16 17.038 10.162-7.788 10.161 30.723 10.162-1.533 10.16 6.67 10.162 1.147 10.161 2.387 10.161-.41 10.162 11.179 10.16-.11 10.162-2.37 10.161 5.537 10.161 4.614" clip-path="url(#G)" style="fill:none;stroke:#ff7f0e;stroke-width:1.5;stroke-linecap:square;stroke-linejoin:round;stroke-miterlimit:10;stroke-dasharray:none;stroke-opacity:1" transform="matrix(1.33333 0 0 -1.33333 0 591.142)"/><path d="m81.613 60.64 10.161 54.984 10.161-14.661 10.162 42.964 10.16 11.417 10.162 33.477 10.161-2.271 10.162-15.591 10.16-16.746 10.162 33.508 10.161 6.61 10.161-3.247 10.162-.84 10.16-.519 10.162-3.742 10.161 15.097 10.161 12.406 10.162-39.895 10.16 41.565 10.162-2.764 10.161-9.19 10.161-5.587 10.162-.744 10.16-14.501 10.162 36.028 10.161-37.174 10.162 30.123 10.16-13.57 10.162 5.89 10.161-24.99 10.161 17.757 10.162 5.447 10.16 6.61 10.162-20.896 10.161 21.912 10.161 2.49 10.162-2.35 10.16-8.79 10.162 3.796L477.9 194.59l10.161 14.722 10.162 1.947 10.16-27.385 10.162 20.802 10.161 6.811 10.161-4.41 10.162 10.164 10.16-7.273 10.162 2.359 10.161-13.235 10.162 9.95 10.16-7.105 10.162 1.165 10.161 1.098 10.161 4.322 10.162-13.944 10.16 6.83 10.162 9.9 10.161-2.356 10.161-5.215" clip-path="url(#H)" style="fill:none;stroke:#ff7f0e;stroke-width:1.5;stroke-linecap:butt;stroke-linejoin:round;stroke-miterlimit:10;stroke-dasharray:9.6,2.4,1.5,2.4;stroke-dashoffset:0;stroke-opacity:1" transform="matrix(1.33333 0 0 -1.33333 0 591.142)"/><path d="m81.613 106.995 10.161 66.02 10.161 31.468 10.162 20.754 10.16 8.28 10.162 18.395 10.161-13.82 10.162 28.323 10.16-.664 10.162.558 10.161 15.584 10.161.574 10.162 5.273 10.16-4.972 10.162 10.108 10.161.38 10.161-5.166 10.162 14.253 10.16-14.461 10.162 6.614 10.161 12.664 10.161 2.915 10.162-15.981 10.16 24.257 10.162-4.08 10.161-3.069 10.162 8.999 10.16 1.124 10.162-1.2 10.161 5.308 10.161 4.731 10.162-.385 10.16.683 10.162 6.99 10.161-7.174 10.161 6.81 10.162 5.303 10.16 4.166 10.162 2.998 10.161 8.571 10.161-3.194 10.162-5.903 10.16 10.99 10.162 6.277 10.161-3.844 10.161 12.367 10.162-8.184 10.16-23.559 10.162-2.37 10.161 15.246 10.162-4.08 10.16 12.45 10.162-11.086 10.161 7.281 10.161-12.415 10.162 26.314 10.16-2.272 10.162-9.788 10.161 7.471 10.161 4.09" clip-path="url(#I)" style="fill:none;stroke:#2ca02c;stroke-width:1.5;stroke-linecap:square;stroke-linejoin:round;stroke-miterlimit:10;stroke-dasharray:none;stroke-opacity:1" transform="matrix(1.33333 0 0 -1.33333 0 591.142)"/><path d="m81.613 73.406 10.161 48.111 10.161-13.665 10.162 42.996 10.16 6.597 10.162 32.762 10.161-4.564 10.162-10.354 10.16-16.7 10.162 28 10.161 4.41 10.161-1.07 10.162-3.482 10.16 1.338 10.162-3.084 10.161 17.607 10.161 10.165 10.162-40.07 10.16 41.049 10.162-2.706 10.161-8.347 10.161-11.531 10.162 2.465 10.16-13.505 10.162 35.777 10.161-45.398 10.162 34.318 10.16-9.886 10.162 5.04 10.161-29.09 10.161 18.613 10.162 10.234 10.16 5.47 10.162-27.271 10.161 26.297 10.161 3.563 10.162-4.081 10.16-8.047 10.162-.115 10.161-9.086 10.161 19.009 10.162-2.505 10.16-30.71 10.162 25.22 10.161 4.524 10.161-2.3 10.162 11.154 10.16.045 10.162-8.295 10.161-6.105 10.162 14.225 10.16-8.923 10.162-1.398 10.161 6.826 10.161 4 10.162-16.977 10.16 9.732 10.162 11.597 10.161-1.9 10.161-8.523" clip-path="url(#J)" style="fill:none;stroke:#2ca02c;stroke-width:1.5;stroke-linecap:butt;stroke-linejoin:round;stroke-miterlimit:10;stroke-dasharray:9.6,2.4,1.5,2.4;stroke-dashoffset:0;stroke-opacity:1" transform="matrix(1.33333 0 0 -1.33333 0 591.142)"/><path d="M58.638 338.125h186.015q2 0 2 2v87.031q0 2-2 2H58.638q-2 0-2-2v-87.031q0-2 2-2z" style="fill:#fff;fill-opacity:.8;fill-rule:nonzero;stroke:#ccc;stroke-width:1;stroke-linecap:butt;stroke-linejoin:miter;stroke-miterlimit:10;stroke-dasharray:none;stroke-opacity:.8" transform="matrix(1.33333 0 0 -1.33333 0 591.142)"/><path d="M60.638 421.062h20" style="fill:none;stroke:#1f77b4;stroke-width:1.5;stroke-linecap:square;stroke-linejoin:round;stroke-miterlimit:10;stroke-dasharray:none;stroke-opacity:1" transform="matrix(1.33333 0 0 -1.33333 0 591.142)"/><text xml:space="preserve" transform="translate(118.183 34.392)scale(1.33333)"><tspan x="0" y="0" style="font-variant:normal;font-weight:400;font-size:10px;font-family:&quot;DejaVu Sans&quot;;writing-mode:lr-tb;fill:#000;fill-opacity:1;fill-rule:nonzero;stroke:none">DES mean train RAUC</tspan></text><path d="M60.638 406.39h20" style="fill:none;stroke:#1f77b4;stroke-width:1.5;stroke-linecap:butt;stroke-linejoin:round;stroke-miterlimit:10;stroke-dasharray:9.6,2.4,1.5,2.4;stroke-dashoffset:0;stroke-opacity:1" transform="matrix(1.33333 0 0 -1.33333 0 591.142)"/><text xml:space="preserve" transform="translate(118.183 53.954)scale(1.33333)"><tspan x="0" y="0" style="font-variant:normal;font-weight:400;font-size:10px;font-family:&quot;DejaVu Sans&quot;;writing-mode:lr-tb;fill:#000;fill-opacity:1;fill-rule:nonzero;stroke:none">DES mean validation RAUC</tspan></text><path d="M60.638 391.719h20" style="fill:none;stroke:#ff7f0e;stroke-width:1.5;stroke-linecap:square;stroke-linejoin:round;stroke-miterlimit:10;stroke-dasharray:none;stroke-opacity:1" transform="matrix(1.33333 0 0 -1.33333 0 591.142)"/><text xml:space="preserve" transform="translate(118.183 73.517)scale(1.33333)"><tspan x="0" y="0" style="font-variant:normal;font-weight:400;font-size:10px;font-family:&quot;DejaVu Sans&quot;;writing-mode:lr-tb;fill:#000;fill-opacity:1;fill-rule:nonzero;stroke:none">CMA-ES mean train RAUC</tspan></text><path d="M60.638 377.047h20" style="fill:none;stroke:#ff7f0e;stroke-width:1.5;stroke-linecap:butt;stroke-linejoin:round;stroke-miterlimit:10;stroke-dasharray:9.6,2.4,1.5,2.4;stroke-dashoffset:0;stroke-opacity:1" transform="matrix(1.33333 0 0 -1.33333 0 591.142)"/><text xml:space="preserve" transform="translate(118.183 93.08)scale(1.33333)"><tspan x="0" y="0" style="font-variant:normal;font-weight:400;font-size:10px;font-family:&quot;DejaVu Sans&quot;;writing-mode:lr-tb;fill:#000;fill-opacity:1;fill-rule:nonzero;stroke:none">CMA-ES mean validation RAUC</tspan></text><path d="M60.638 362.375h20" style="fill:none;stroke:#2ca02c;stroke-width:1.5;stroke-linecap:square;stroke-linejoin:round;stroke-miterlimit:10;stroke-dasharray:none;stroke-opacity:1" transform="matrix(1.33333 0 0 -1.33333 0 591.142)"/><text xml:space="preserve" transform="translate(118.183 112.642)scale(1.33333)"><tspan x="0" y="0" style="font-variant:normal;font-weight:400;font-size:10px;font-family:&quot;DejaVu Sans&quot;;writing-mode:lr-tb;fill:#000;fill-opacity:1;fill-rule:nonzero;stroke:none">jSO mean train RAUC</tspan></text><path d="M60.638 347.703h20" style="fill:none;stroke:#2ca02c;stroke-width:1.5;stroke-linecap:butt;stroke-linejoin:round;stroke-miterlimit:10;stroke-dasharray:9.6,2.4,1.5,2.4;stroke-dashoffset:0;stroke-opacity:1" transform="matrix(1.33333 0 0 -1.33333 0 591.142)"/><text xml:space="preserve" transform="translate(118.183 132.204)scale(1.33333)"><tspan x="0" y="0" style="font-variant:normal;font-weight:400;font-size:10px;font-family:&quot;DejaVu Sans&quot;;writing-mode:lr-tb;fill:#000;fill-opacity:1;fill-rule:nonzero;stroke:none">jSO mean validation RAUC</tspan></text></svg>