<svg xmlns="http://www.w3.org/2000/svg" width="600.227" height="591.142" viewBox="0 0 600.227 591.142"><defs><clipPath id="a" clipPathUnits="userSpaceOnUse"><path d="M43.778 37.544h395.113v395.112H43.778Z"/></clipPath><clipPath id="b" clipPathUnits="userSpaceOnUse"><path d="M43.778 37.544h395.113v395.112H43.778Z"/></clipPath><clipPath id="c" clipPathUnits="userSpaceOnUse"><path d="M43.778 37.544h395.113v395.112H43.778Z"/></clipPath><clipPath id="d" clipPathUnits="userSpaceOnUse"><path d="M43.778 37.544h395.113v395.112H43.778Z"/></clipPath><clipPath id="e" clipPathUnits="userSpaceOnUse"><path d="M43.778 37.544h395.113v395.112H43.778Z"/></clipPath><clipPath id="f" clipPathUnits="userSpaceOnUse"><path d="M43.778 37.544h395.113v395.112H43.778Z"/></clipPath><clipPath id="g" clipPathUnits="userSpaceOnUse"><path d="M43.778 37.544h395.113v395.112H43.778Z"/></clipPath><clipPath id="h" clipPathUnits="userSpaceOnUse"><path d="M43.778 37.544h395.113v395.112H43.778Z"/></clipPath><clipPath id="i" clipPathUnits="userSpaceOnUse"><path d="M43.778 37.544h395.113v395.112H43.778Z"/></clipPath><clipPath id="j" clipPathUnits="userSpaceOnUse"><path d="M43.778 37.544h395.113v395.112H43.778Z"/></clipPath><clipPath id="k" clipPathUnits="userSpaceOnUse"><path d="M43.778 37.544h395.113v395.112H43.778Z"/></clipPath><clipPath id="l" clipPathUnits="userSpaceOnUse"><path d="M43.778 37.544h395.113v395.112H43.778Z"/></clipPath><clipPath id="m" clipPathUnits="userSpaceOnUse"><path d="M43.778 37.544h395.113v395.112H43.778Z"/></clipPath><clipPath id="n" clipPathUnits="userSpaceOnUse"><path d="M43.778 37.544h395.113v395.112H43.778Z"/></clipPath><clipPath id="o" clipPathUnits="userSpaceOnUse"><path d="M43.778 37.544h395.113v395.112H43.778Z"/></clipPath><clipPath id="p" clipPathUnits="userSpaceOnUse"><path d="M43.778 37.544h395.113v395.112H43.778Z"/></clipPath><clipPath id="q" clipPathUnits="userSpaceOnUse"><path d="M43.778 37.544h395.113v395.112H43.778Z"/></clipPath><clipPath id="r" clipPathUnits="userSpaceOnUse"><path d="M43.778 37.544h395.113v395.112H43.778Z"/></clipPath><clipPath id="s" clipPathUnits="userSpaceOnUse"><path d="M43.778 37.544h395.113v395.112H43.778Z"/></clipPath><clipPath id="t" clipPathUnits="userSpaceOnUse"><path d="M43.778 37.544h395.113v395.112H43.778Z"/></clipPath><clipPath id="u" clipPathUnits="userSpaceOnUse"><path d="M43.778 37.544h395.113v395.112H43.778Z"/></clipPath><clipPath id="v" clipPathUnits="userSpaceOnUse"><path d="M43.778 37.544h395.113v395.112H43.778Z"/></clipPath><clipPath id="w" clipPathUnits="userSpaceOnUse"><path d="M43.778 37.544h395.113v395.112H43.778Z"/></clipPath><clipPath id="x" clipPathUnits="userSpaceOnUse"><path d="M43.778 37.544h395.113v395.112H43.778Z"/></clipPath><clipPath id="y" clipPathUnits="userSpaceOnUse"><path d="M43.778 37.544h395.113v395.112H43.778Z"/></clipPath><clipPath id="z" clipPathUnits="userSpaceOnUse"><path d="M43.778 37.544h395.113v395.112H43.778Z"/></clipPath><clipPath id="A" clipPathUnits="userSpaceOnUse"><path d="M43.778 37.544h395.113v395.112H43.778Z"/></clipPath><clipPath id="B" clipPathUnits="userSpaceOnUse"><path d="M43.778 37.544h395.113v395.112H43.778Z"/></clipPath><clipPath id="C" clipPathUnits="userSpaceOnUse"><path d="M43.778 37.544h395.113v395.112H43.778Z"/></clipPath><clipPath id="D" clipPathUnits="userSpaceOnUse"><path d="M43.778 37.544h395.113v395.112H43.778Z"/></clipPath><clipPath id="E" clipPathUnits="userSpaceOnUse"><path d="M43.778 37.544h395.113v395.112H43.778Z"/></clipPath></defs><path d="M0 0h450.17v443.356H0Z" style="fill:#fff;fill-opacity:1;fill-rule:nonzero;stroke:none" transform="matrix(1.33333 0 0 -1.33333 0 591.142)"/><path d="M43.778 37.544h395.113v395.112H43.778Z" style="fill:#fff;fill-opacity:1;fill-rule:nonzero;stroke:none" transform="matrix(1.33333 0 0 -1.33333 0 591.142)"/><path d="M47.652 37.544v395.112" clip-path="url(#a)" style="fill:none;stroke:#b0b0b0;stroke-width:.8;stroke-linecap:square;stroke-linejoin:round;stroke-miterlimit:10;stroke-dasharray:none;stroke-opacity:1" transform="matrix(1.33333 0 0 -1.33333 0 591.142)"/><path d="M47.652 37.544v-3.5" style="fill:#000;fill-opacity:1;fill-rule:nonzero;stroke:#000;stroke-width:.8;stroke-linecap:butt;stroke-linejoin:round;stroke-miterlimit:10;stroke-dasharray:none;stroke-opacity:1" transform="matrix(1.33333 0 0 -1.33333 0 591.142)"/><text xml:space="preserve" transform="translate(52.932 560.542)scale(1.33333)"><tspan x="0" y="0" style="font-variant:normal;font-weight:400;font-size:10px;font-family:&quot;DejaVu Sans&quot;;writing-mode:lr-tb;fill:#000;fill-opacity:1;fill-rule:nonzero;stroke:none">0.0</tspan></text><path d="M86.388 37.544v395.112" clip-path="url(#b)" style="fill:none;stroke:#b0b0b0;stroke-width:.8;stroke-linecap:square;stroke-linejoin:round;stroke-miterlimit:10;stroke-dasharray:none;stroke-opacity:1" transform="matrix(1.33333 0 0 -1.33333 0 591.142)"/><path d="M86.388 37.544v-3.5" style="fill:#000;fill-opacity:1;fill-rule:nonzero;stroke:#000;stroke-width:.8;stroke-linecap:butt;stroke-linejoin:round;stroke-miterlimit:10;stroke-dasharray:none;stroke-opacity:1" transform="matrix(1.33333 0 0 -1.33333 0 591.142)"/><text xml:space="preserve" transform="translate(104.58 560.542)scale(1.33333)"><tspan x="0" y="0" style="font-variant:normal;font-weight:400;font-size:10px;font-family:&quot;DejaVu Sans&quot;;writing-mode:lr-tb;fill:#000;fill-opacity:1;fill-rule:nonzero;stroke:none">0.1</tspan></text><path d="M125.125 37.544v395.112" clip-path="url(#c)" style="fill:none;stroke:#b0b0b0;stroke-width:.8;stroke-linecap:square;stroke-linejoin:round;stroke-miterlimit:10;stroke-dasharray:none;stroke-opacity:1" transform="matrix(1.33333 0 0 -1.33333 0 591.142)"/><path d="M125.125 37.544v-3.5" style="fill:#000;fill-opacity:1;fill-rule:nonzero;stroke:#000;stroke-width:.8;stroke-linecap:butt;stroke-linejoin:round;stroke-miterlimit:10;stroke-dasharray:none;stroke-opacity:1" transform="matrix(1.33333 0 0 -1.33333 0 591.142)"/><text xml:space="preserve" transform="translate(156.229 560.542)scale(1.33333)"><tspan x="0" y="0" style="font-variant:normal;font-weight:400;font-size:10px;font-family:&quot;DejaVu Sans&quot;;writing-mode:lr-tb;fill:#000;fill-opacity:1;fill-rule:nonzero;stroke:none">0.2</tspan></text><path d="M163.861 37.544v395.112" clip-path="url(#d)" style="fill:none;stroke:#b0b0b0;stroke-width:.8;stroke-linecap:square;stroke-linejoin:round;stroke-miterlimit:10;stroke-dasharray:none;stroke-opacity:1" transform="matrix(1.33333 0 0 -1.33333 0 591.142)"/><path d="M163.861 37.544v-3.5" style="fill:#000;fill-opacity:1;fill-rule:nonzero;stroke:#000;stroke-width:.8;stroke-linecap:butt;stroke-linejoin:round;stroke-miterlimit:10;stroke-dasharray:none;stroke-opacity:1" transform="matrix(1.33333 0 0 -1.33333 0 591.142)"/><text xml:space="preserve" transform="translate(207.878 560.542)scale(1.33333)"><tspan x="0" y="0" style="font-variant:normal;font-weight:400;font-size:10px;font-family:&quot;DejaVu Sans&quot;;writing-mode:lr-tb;fill:#000;fill-opacity:1;fill-rule:nonzero;stroke:none">0.3</tspan></text><path d="M202.598 37.544v395.112" clip-path="url(#e)" style="fill:none;stroke:#b0b0b0;stroke-width:.8;stroke-linecap:square;stroke-linejoin:round;stroke-miterlimit:10;stroke-dasharray:none;stroke-opacity:1" transform="matrix(1.33333 0 0 -1.33333 0 591.142)"/><path d="M202.598 37.544v-3.5" style="fill:#000;fill-opacity:1;fill-rule:nonzero;stroke:#000;stroke-width:.8;stroke-linecap:butt;stroke-linejoin:round;stroke-miterlimit:10;stroke-dasharray:none;stroke-opacity:1" transform="matrix(1.33333 0 0 -1.33333 0 591.142)"/><text xml:space="preserve" transform="translate(259.526 560.542)scale(1.33333)"><tspan x="0" y="0" style="font-variant:normal;font-weight:400;font-size:10px;font-family:&quot;DejaVu Sans&quot;;writing-mode:lr-tb;fill:#000;fill-opacity:1;fill-rule:nonzero;stroke:none">0.4</tspan></text><path d="M241.334 37.544v395.112" clip-path="url(#f)" style="fill:none;stroke:#b0b0b0;stroke-width:.8;stroke-linecap:square;stroke-linejoin:round;stroke-miterlimit:10;stroke-dasharray:none;stroke-opacity:1" transform="matrix(1.33333 0 0 -1.33333 0 591.142)"/><path d="M241.334 37.544v-3.5" style="fill:#000;fill-opacity:1;fill-rule:nonzero;stroke:#000;stroke-width:.8;stroke-linecap:butt;stroke-linejoin:round;stroke-miterlimit:10;stroke-dasharray:none;stroke-opacity:1" transform="matrix(1.33333 0 0 -1.33333 0 591.142)"/><text xml:space="preserve" transform="translate(311.175 560.542)scale(1.33333)"><tspan x="0" y="0" style="font-variant:normal;font-weight:400;font-size:10px;font-family:&quot;DejaVu Sans&quot;;writing-mode:lr-tb;fill:#000;fill-opacity:1;fill-rule:nonzero;stroke:none">0.5</tspan></text><path d="M280.07 37.544v395.112" clip-path="url(#g)" style="fill:none;stroke:#b0b0b0;stroke-width:.8;stroke-linecap:square;stroke-linejoin:round;stroke-miterlimit:10;stroke-dasharray:none;stroke-opacity:1" transform="matrix(1.33333 0 0 -1.33333 0 591.142)"/><path d="M280.07 37.544v-3.5" style="fill:#000;fill-opacity:1;fill-rule:nonzero;stroke:#000;stroke-width:.8;stroke-linecap:butt;stroke-linejoin:round;stroke-miterlimit:10;stroke-dasharray:none;stroke-opacity:1" transform="matrix(1.33333 0 0 -1.33333 0 591.142)"/><text xml:space="preserve" transform="translate(362.824 560.542)scale(1.33333)"><tspan x="0" y="0" style="font-variant:normal;font-weight:400;font-size:10px;font-family:&quot;DejaVu Sans&quot;;writing-mode:lr-tb;fill:#000;fill-opacity:1;fill-rule:nonzero;stroke:none">0.6</tspan></text><path d="M318.807 37.544v395.112" clip-path="url(#h)" style="fill:none;stroke:#b0b0b0;stroke-width:.8;stroke-linecap:square;stroke-linejoin:round;stroke-miterlimit:10;stroke-dasharray:none;stroke-opacity:1" transform="matrix(1.33333 0 0 -1.33333 0 591.142)"/><path d="M318.807 37.544v-3.5" style="fill:#000;fill-opacity:1;fill-rule:nonzero;stroke:#000;stroke-width:.8;stroke-linecap:butt;stroke-linejoin:round;stroke-miterlimit:10;stroke-dasharray:none;stroke-opacity:1" transform="matrix(1.33333 0 0 -1.33333 0 591.142)"/><text xml:space="preserve" transform="translate(414.472 560.542)scale(1.33333)"><tspan x="0" y="0" style="font-variant:normal;font-weight:400;font-size:10px;font-family:&quot;DejaVu Sans&quot;;writing-mode:lr-tb;fill:#000;fill-opacity:1;fill-rule:nonzero;stroke:none">0.7</tspan></text><path d="M357.544 37.544v395.112" clip-path="url(#i)" style="fill:none;stroke:#b0b0b0;stroke-width:.8;stroke-linecap:square;stroke-linejoin:round;stroke-miterlimit:10;stroke-dasharray:none;stroke-opacity:1" transform="matrix(1.33333 0 0 -1.33333 0 591.142)"/><path d="M357.544 37.544v-3.5" style="fill:#000;fill-opacity:1;fill-rule:nonzero;stroke:#000;stroke-width:.8;stroke-linecap:butt;stroke-linejoin:round;stroke-miterlimit:10;stroke-dasharray:none;stroke-opacity:1" transform="matrix(1.33333 0 0 -1.33333 0 591.142)"/><text xml:space="preserve" transform="translate(466.121 560.542)scale(1.33333)"><tspan x="0" y="0" style="font-variant:normal;font-weight:400;font-size:10px;font-family:&quot;DejaVu Sans&quot;;writing-mode:lr-tb;fill:#000;fill-opacity:1;fill-rule:nonzero;stroke:none">0.8</tspan></text><path d="M396.28 37.544v395.112" clip-path="url(#j)" style="fill:none;stroke:#b0b0b0;stroke-width:.8;stroke-linecap:square;stroke-linejoin:round;stroke-miterlimit:10;stroke-dasharray:none;stroke-opacity:1" transform="matrix(1.33333 0 0 -1.33333 0 591.142)"/><path d="M396.28 37.544v-3.5" style="fill:#000;fill-opacity:1;fill-rule:nonzero;stroke:#000;stroke-width:.8;stroke-linecap:butt;stroke-linejoin:round;stroke-miterlimit:10;stroke-dasharray:none;stroke-opacity:1" transform="matrix(1.33333 0 0 -1.33333 0 591.142)"/><text xml:space="preserve" transform="translate(517.77 560.542)scale(1.33333)"><tspan x="0" y="0" style="font-variant:normal;font-weight:400;font-size:10px;font-family:&quot;DejaVu Sans&quot;;writing-mode:lr-tb;fill:#000;fill-opacity:1;fill-rule:nonzero;stroke:none">0.9</tspan></text><path d="M435.017 37.544v395.112" clip-path="url(#k)" style="fill:none;stroke:#b0b0b0;stroke-width:.8;stroke-linecap:square;stroke-linejoin:round;stroke-miterlimit:10;stroke-dasharray:none;stroke-opacity:1" transform="matrix(1.33333 0 0 -1.33333 0 591.142)"/><path d="M435.017 37.544v-3.5" style="fill:#000;fill-opacity:1;fill-rule:nonzero;stroke:#000;stroke-width:.8;stroke-linecap:butt;stroke-linejoin:round;stroke-miterlimit:10;stroke-dasharray:none;stroke-opacity:1" transform="matrix(1.33333 0 0 -1.33333 0 591.142)"/><text xml:space="preserve" transform="translate(569.418 560.542)scale(1.33333)"><tspan x="0" y="0" style="font-variant:normal;font-weight:400;font-size:10px;font-family:&quot;DejaVu Sans&quot;;writing-mode:lr-tb;fill:#000;fill-opacity:1;fill-rule:nonzero;stroke:none">1.0</tspan></text><text xml:space="preserve" transform="translate(258.78 578.77)scale(1.33333)"><tspan x="0" y="0" style="font-variant:normal;font-weight:400;font-size:10px;font-family:&quot;DejaVu Sans&quot;;writing-mode:lr-tb;fill:#000;fill-opacity:1;fill-rule:nonzero;stroke:none">False Positive Rate</tspan></text><path d="M43.778 41.417h395.113" clip-path="url(#l)" style="fill:none;stroke:#b0b0b0;stroke-width:.8;stroke-linecap:square;stroke-linejoin:round;stroke-miterlimit:10;stroke-dasharray:none;stroke-opacity:1" transform="matrix(1.33333 0 0 -1.33333 0 591.142)"/><path d="M43.778 41.417h-3.5" style="fill:#000;fill-opacity:1;fill-rule:nonzero;stroke:#000;stroke-width:.8;stroke-linecap:butt;stroke-linejoin:round;stroke-miterlimit:10;stroke-dasharray:none;stroke-opacity:1" transform="matrix(1.33333 0 0 -1.33333 0 591.142)"/><text xml:space="preserve" transform="translate(27.83 540.98)scale(1.33333)"><tspan x="0" y="0" style="font-variant:normal;font-weight:400;font-size:10px;font-family:&quot;DejaVu Sans&quot;;writing-mode:lr-tb;fill:#000;fill-opacity:1;fill-rule:nonzero;stroke:none">0.0</tspan></text><path d="M43.778 80.154h395.113" clip-path="url(#m)" style="fill:none;stroke:#b0b0b0;stroke-width:.8;stroke-linecap:square;stroke-linejoin:round;stroke-miterlimit:10;stroke-dasharray:none;stroke-opacity:1" transform="matrix(1.33333 0 0 -1.33333 0 591.142)"/><path d="M43.778 80.154h-3.5" style="fill:#000;fill-opacity:1;fill-rule:nonzero;stroke:#000;stroke-width:.8;stroke-linecap:butt;stroke-linejoin:round;stroke-miterlimit:10;stroke-dasharray:none;stroke-opacity:1" transform="matrix(1.33333 0 0 -1.33333 0 591.142)"/><text xml:space="preserve" transform="translate(27.83 489.332)scale(1.33333)"><tspan x="0" y="0" style="font-variant:normal;font-weight:400;font-size:10px;font-family:&quot;DejaVu Sans&quot;;writing-mode:lr-tb;fill:#000;fill-opacity:1;fill-rule:nonzero;stroke:none">0.1</tspan></text><path d="M43.778 118.89h395.113" clip-path="url(#n)" style="fill:none;stroke:#b0b0b0;stroke-width:.8;stroke-linecap:square;stroke-linejoin:round;stroke-miterlimit:10;stroke-dasharray:none;stroke-opacity:1" transform="matrix(1.33333 0 0 -1.33333 0 591.142)"/><path d="M43.778 118.89h-3.5" style="fill:#000;fill-opacity:1;fill-rule:nonzero;stroke:#000;stroke-width:.8;stroke-linecap:butt;stroke-linejoin:round;stroke-miterlimit:10;stroke-dasharray:none;stroke-opacity:1" transform="matrix(1.33333 0 0 -1.33333 0 591.142)"/><text xml:space="preserve" transform="translate(27.83 437.684)scale(1.33333)"><tspan x="0" y="0" style="font-variant:normal;font-weight:400;font-size:10px;font-family:&quot;DejaVu Sans&quot;;writing-mode:lr-tb;fill:#000;fill-opacity:1;fill-rule:nonzero;stroke:none">0.2</tspan></text><path d="M43.778 157.627h395.113" clip-path="url(#o)" style="fill:none;stroke:#b0b0b0;stroke-width:.8;stroke-linecap:square;stroke-linejoin:round;stroke-miterlimit:10;stroke-dasharray:none;stroke-opacity:1" transform="matrix(1.33333 0 0 -1.33333 0 591.142)"/><path d="M43.778 157.627h-3.5" style="fill:#000;fill-opacity:1;fill-rule:nonzero;stroke:#000;stroke-width:.8;stroke-linecap:butt;stroke-linejoin:round;stroke-miterlimit:10;stroke-dasharray:none;stroke-opacity:1" transform="matrix(1.33333 0 0 -1.33333 0 591.142)"/><text xml:space="preserve" transform="translate(27.83 386.035)scale(1.33333)"><tspan x="0" y="0" style="font-variant:normal;font-weight:400;font-size:10px;font-family:&quot;DejaVu Sans&quot;;writing-mode:lr-tb;fill:#000;fill-opacity:1;fill-rule:nonzero;stroke:none">0.3</tspan></text><path d="M43.778 196.363h395.113" clip-path="url(#p)" style="fill:none;stroke:#b0b0b0;stroke-width:.8;stroke-linecap:square;stroke-linejoin:round;stroke-miterlimit:10;stroke-dasharray:none;stroke-opacity:1" transform="matrix(1.33333 0 0 -1.33333 0 591.142)"/><path d="M43.778 196.363h-3.5" style="fill:#000;fill-opacity:1;fill-rule:nonzero;stroke:#000;stroke-width:.8;stroke-linecap:butt;stroke-linejoin:round;stroke-miterlimit:10;stroke-dasharray:none;stroke-opacity:1" transform="matrix(1.33333 0 0 -1.33333 0 591.142)"/><text xml:space="preserve" transform="translate(27.83 334.386)scale(1.33333)"><tspan x="0" y="0" style="font-variant:normal;font-weight:400;font-size:10px;font-family:&quot;DejaVu Sans&quot;;writing-mode:lr-tb;fill:#000;fill-opacity:1;fill-rule:nonzero;stroke:none">0.4</tspan></text><path d="M43.778 235.1h395.113" clip-path="url(#q)" style="fill:none;stroke:#b0b0b0;stroke-width:.8;stroke-linecap:square;stroke-linejoin:round;stroke-miterlimit:10;stroke-dasharray:none;stroke-opacity:1" transform="matrix(1.33333 0 0 -1.33333 0 591.142)"/><path d="M43.778 235.1h-3.5" style="fill:#000;fill-opacity:1;fill-rule:nonzero;stroke:#000;stroke-width:.8;stroke-linecap:butt;stroke-linejoin:round;stroke-miterlimit:10;stroke-dasharray:none;stroke-opacity:1" transform="matrix(1.33333 0 0 -1.33333 0 591.142)"/><text xml:space="preserve" transform="translate(27.83 282.737)scale(1.33333)"><tspan x="0" y="0" style="font-variant:normal;font-weight:400;font-size:10px;font-family:&quot;DejaVu Sans&quot;;writing-mode:lr-tb;fill:#000;fill-opacity:1;fill-rule:nonzero;stroke:none">0.5</tspan></text><path d="M43.778 273.837h395.113" clip-path="url(#r)" style="fill:none;stroke:#b0b0b0;stroke-width:.8;stroke-linecap:square;stroke-linejoin:round;stroke-miterlimit:10;stroke-dasharray:none;stroke-opacity:1" transform="matrix(1.33333 0 0 -1.33333 0 591.142)"/><path d="M43.778 273.837h-3.5" style="fill:#000;fill-opacity:1;fill-rule:nonzero;stroke:#000;stroke-width:.8;stroke-linecap:butt;stroke-linejoin:round;stroke-miterlimit:10;stroke-dasharray:none;stroke-opacity:1" transform="matrix(1.33333 0 0 -1.33333 0 591.142)"/><text xml:space="preserve" transform="translate(27.83 231.089)scale(1.33333)"><tspan x="0" y="0" style="font-variant:normal;font-weight:400;font-size:10px;font-family:&quot;DejaVu Sans&quot;;writing-mode:lr-tb;fill:#000;fill-opacity:1;fill-rule:nonzero;stroke:none">0.6</tspan></text><path d="M43.778 312.573h395.113" clip-path="url(#s)" style="fill:none;stroke:#b0b0b0;stroke-width:.8;stroke-linecap:square;stroke-linejoin:round;stroke-miterlimit:10;stroke-dasharray:none;stroke-opacity:1" transform="matrix(1.33333 0 0 -1.33333 0 591.142)"/><path d="M43.778 312.573h-3.5" style="fill:#000;fill-opacity:1;fill-rule:nonzero;stroke:#000;stroke-width:.8;stroke-linecap:butt;stroke-linejoin:round;stroke-miterlimit:10;stroke-dasharray:none;stroke-opacity:1" transform="matrix(1.33333 0 0 -1.33333 0 591.142)"/><text xml:space="preserve" transform="translate(27.83 179.44)scale(1.33333)"><tspan x="0" y="0" style="font-variant:normal;font-weight:400;font-size:10px;font-family:&quot;DejaVu Sans&quot;;writing-mode:lr-tb;fill:#000;fill-opacity:1;fill-rule:nonzero;stroke:none">0.7</tspan></text><path d="M43.778 351.31h395.113" clip-path="url(#t)" style="fill:none;stroke:#b0b0b0;stroke-width:.8;stroke-linecap:square;stroke-linejoin:round;stroke-miterlimit:10;stroke-dasharray:none;stroke-opacity:1" transform="matrix(1.33333 0 0 -1.33333 0 591.142)"/><path d="M43.778 351.31h-3.5" style="fill:#000;fill-opacity:1;fill-rule:nonzero;stroke:#000;stroke-width:.8;stroke-linecap:butt;stroke-linejoin:round;stroke-miterlimit:10;stroke-dasharray:none;stroke-opacity:1" transform="matrix(1.33333 0 0 -1.33333 0 591.142)"/><text xml:space="preserve" transform="translate(27.83 127.791)scale(1.33333)"><tspan x="0" y="0" style="font-variant:normal;font-weight:400;font-size:10px;font-family:&quot;DejaVu Sans&quot;;writing-mode:lr-tb;fill:#000;fill-opacity:1;fill-rule:nonzero;stroke:none">0.8</tspan></text><path d="M43.778 390.046h395.113" clip-path="url(#u)" style="fill:none;stroke:#b0b0b0;stroke-width:.8;stroke-linecap:square;stroke-linejoin:round;stroke-miterlimit:10;stroke-dasharray:none;stroke-opacity:1" transform="matrix(1.33333 0 0 -1.33333 0 591.142)"/><path d="M43.778 390.046h-3.5" style="fill:#000;fill-opacity:1;fill-rule:nonzero;stroke:#000;stroke-width:.8;stroke-linecap:butt;stroke-linejoin:round;stroke-miterlimit:10;stroke-dasharray:none;stroke-opacity:1" transform="matrix(1.33333 0 0 -1.33333 0 591.142)"/><text xml:space="preserve" transform="translate(27.83 76.143)scale(1.33333)"><tspan x="0" y="0" style="font-variant:normal;font-weight:400;font-size:10px;font-family:&quot;DejaVu Sans&quot;;writing-mode:lr-tb;fill:#000;fill-opacity:1;fill-rule:nonzero;stroke:none">0.9</tspan></text><path d="M43.778 428.783h395.113" clip-path="url(#v)" style="fill:none;stroke:#b0b0b0;stroke-width:.8;stroke-linecap:square;stroke-linejoin:round;stroke-miterlimit:10;stroke-dasharray:none;stroke-opacity:1" transform="matrix(1.33333 0 0 -1.33333 0 591.142)"/><path d="M43.778 428.783h-3.5" style="fill:#000;fill-opacity:1;fill-rule:nonzero;stroke:#000;stroke-width:.8;stroke-linecap:butt;stroke-linejoin:round;stroke-miterlimit:10;stroke-dasharray:none;stroke-opacity:1" transform="matrix(1.33333 0 0 -1.33333 0 591.142)"/><text xml:space="preserve" transform="translate(27.83 24.494)scale(1.33333)"><tspan x="0" y="0" style="font-variant:normal;font-weight:400;font-size:10px;font-family:&quot;DejaVu Sans&quot;;writing-mode:lr-tb;fill:#000;fill-opacity:1;fill-rule:nonzero;stroke:none">1.0</tspan></text><text xml:space="preserve" transform="rotate(-90 179.09 159.366)scale(1.33333)"><tspan x="0" y="0" style="font-variant:normal;font-weight:400;font-size:10px;font-family:&quot;DejaVu Sans&quot;;writing-mode:lr-tb;fill:#000;fill-opacity:1;fill-rule:nonzero;stroke:none">True Positive Rate</tspan></text><path d="m47.652 41.417 3.913 15.653 3.912 10.91 3.913 11.383 3.913 8.222 3.913 9.803 3.912 10.751 3.913 8.38 3.913 9.328 3.913 7.906 3.913 10.277 3.912 6.798 3.913 8.38 3.913 7.115 3.913 5.376 3.912 4.743 3.913 5.692 3.913 4.585 3.913 6.482 3.913 6.483 3.912 4.269 3.913 3.952 3.913 3.479 3.913 7.43 3.912 6.958 3.913 5.85 3.913 5.533 3.913 3.32 3.913 4.902 3.912 5.06 3.913 4.427 3.913 4.9 3.913 5.377 3.913 4.268 3.912 5.85 3.913 4.744 3.913 3.794 3.913 4.902 3.912 4.269 3.913 3.952 3.913 3.32 3.913 3.163 3.913 3.636 3.912 2.688 3.913 3.953 3.913 1.897 3.913 2.214 3.912 2.371 3.913 1.265 3.913 2.846 3.913 2.688 3.913 1.897 3.912 3.162 3.913 3.163 3.913 2.845 3.913 1.582 3.912 1.739 3.913 1.739 3.913 2.372 3.913 3.32 3.913 2.371 3.912 3.32 3.913 1.424 3.913 1.265 3.913 3.636 3.912 2.055 3.913 2.846 3.913 2.688 3.913 2.056 3.913 1.423 3.912 2.055 3.913 1.74 3.913 2.055 3.913 2.53 3.912 2.687 3.913 2.214 3.913 3.162 3.913 1.581 3.913 2.055 3.912 2.372 3.913 2.372 3.913 2.371 3.913 1.423 3.912 2.846 3.913 2.688 3.913 3.32 3.913 2.372 3.913 2.688 3.912 2.213 3.913 1.581 3.913 1.423 3.913 1.581 3.913 1.423 3.912.79 3.913.475 3.913.949 3.913 1.74 3.912 2.054 3.913.159h3.913" clip-path="url(#w)" style="fill:none;stroke:#1f77b4;stroke-width:2;stroke-linecap:square;stroke-linejoin:round;stroke-miterlimit:10;stroke-dasharray:none;stroke-opacity:.8" transform="matrix(1.33333 0 0 -1.33333 0 591.142)"/><path d="M188.512 281.797a2 2 0 1 1 0 4 2 2 0 0 1 0-4z" clip-path="url(#x)" style="fill:#1f77b4;fill-opacity:.8;fill-rule:nonzero;stroke:#1f77b4;stroke-width:1;stroke-linecap:butt;stroke-linejoin:round;stroke-miterlimit:10;stroke-dasharray:none;stroke-opacity:.8" transform="matrix(1.33333 0 0 -1.33333 0 591.142)"/><path d="m47.652 41.417 3.913 17.55 3.912 9.961 3.913 7.273 3.913 9.803 3.913 10.277 3.912 10.119 3.913 8.38 3.913 8.537 3.913 7.273 3.913 11.7 3.912 6.641 3.913 5.376 3.913 7.115 3.913 5.85 3.912 7.747 3.913 4.901 3.913 5.06 3.913 4.901 3.913 5.692 3.912 6.799 3.913 4.743 3.913 6.64 3.913 4.744 3.912 6.008 3.913 5.375 3.913 4.902 3.913 5.375 3.913 4.586 3.912 4.585 3.913 5.692 3.913 3.32 3.913 4.743 3.913 4.743 3.912 3.953 3.913 4.743 3.913 5.376 3.913 5.218 3.912 3.32 3.913 3.794 3.913 3.953 3.913 3.162 3.913 3.795 3.912 2.53 3.913 3.478 3.913 2.846 3.913 2.53 3.912 3.794 3.913 1.74 3.913 3.32 3.913 1.739 3.913 2.055 3.912 1.581 3.913 1.107 3.913 2.372 3.913 3.004 3.912 1.74 3.913 1.896 3.913 3.32 3.913 2.847 3.913 2.213 3.912 3.637 3.913 2.213 3.913 2.056 3.913 2.53 3.912 1.738 3.913 2.372 3.913 3.004 3.913 3.479 3.913 2.845 3.912 2.372 3.913 1.423 3.913 2.055 3.913 2.688 3.912 2.53 3.913 1.74 3.913 2.055 3.913 2.055 3.913 2.372 3.912 2.688 3.913 1.897 3.913 3.004 3.913 1.423 3.912 2.53 3.913 3.004 3.913 1.739 3.913 2.846 3.913 2.371 3.912 2.372 3.913 1.74 3.913.948 3.913 1.107 3.913.632 3.912 1.265 3.913 1.423 3.913 1.107 3.913 2.371 3.912 1.265 3.913.316 3.913.317" clip-path="url(#y)" style="fill:none;stroke:#ff7f0e;stroke-width:2;stroke-linecap:square;stroke-linejoin:round;stroke-miterlimit:10;stroke-dasharray:none;stroke-opacity:.8" transform="matrix(1.33333 0 0 -1.33333 0 591.142)"/><path d="M192.425 285.118a2 2 0 1 1 0 4 2 2 0 0 1 0-4z" clip-path="url(#z)" style="fill:#ff7f0e;fill-opacity:.8;fill-rule:nonzero;stroke:#ff7f0e;stroke-width:1;stroke-linecap:butt;stroke-linejoin:round;stroke-miterlimit:10;stroke-dasharray:none;stroke-opacity:.8" transform="matrix(1.33333 0 0 -1.33333 0 591.142)"/><path d="m47.652 41.417 3.913 15.97 3.912 11.541 3.913 7.431 3.913 9.961 3.913 10.752 3.912 10.277 3.913 8.537 3.913 7.59 3.913 9.802 3.913 7.59 3.912 7.905 3.913 6.799 3.913 6.956 3.913 7.431 3.912 6.167 3.913 4.585 3.913 4.901 3.913 7.115 3.913 4.743 3.912 5.218 3.913 6.166 3.913 5.218 3.913 2.687 3.912 5.692 3.913 4.902 3.913 4.11 3.913 4.902 3.913 6.799 3.912 5.059 3.913 4.585 3.913 6.008 3.913 6.008 3.913 6.325 3.912 5.85 3.913 5.06 3.913 3.794 3.913 3.794 3.912 4.111 3.913 3.162 3.913 3.953 3.913 3.004 3.913 3.162 3.912 3.32 3.913 3.637 3.913 2.372 3.913 3.636 3.912 1.74 3.913 3.32 3.913 2.53 3.913 2.37 3.913 2.214 3.912 2.214 3.913 2.213 3.913 2.688 3.913 2.372 3.912 2.372 3.913 1.423 3.913 2.055 3.913 1.581 3.913 1.74 3.912 1.58 3.913 1.898 3.913 3.004 3.913 2.055 3.912 1.897 3.913 1.898 3.913 1.897 3.913 3.636 3.913 2.056 3.912 3.004 3.913 1.107 3.913 2.213 3.913 2.53 3.912 1.897 3.913 1.898 3.913 2.213 3.913 2.214 3.913 3.478 3.912 2.372 3.913 2.055 3.913 2.055 3.913 3.479 3.912 2.688 3.913 3.004 3.913 2.055 3.913 2.214 3.913 2.055 3.912 2.53 3.913 1.58 3.913.95 3.913 2.213 3.913.949 3.912.79 3.913 2.056 3.913 1.58 3.913.791 3.912 1.897 3.913.159h3.913" clip-path="url(#A)" style="fill:none;stroke:#2ca02c;stroke-width:2;stroke-linecap:square;stroke-linejoin:round;stroke-miterlimit:10;stroke-dasharray:none;stroke-opacity:.8" transform="matrix(1.33333 0 0 -1.33333 0 591.142)"/><path d="M188.512 283.853a2 2 0 1 1 0 4 2 2 0 0 1 0-4z" clip-path="url(#B)" style="fill:#2ca02c;fill-opacity:.8;fill-rule:nonzero;stroke:#2ca02c;stroke-width:1;stroke-linecap:butt;stroke-linejoin:round;stroke-miterlimit:10;stroke-dasharray:none;stroke-opacity:.8" transform="matrix(1.33333 0 0 -1.33333 0 591.142)"/><path d="m47.652 41.417 3.913 15.811 3.912 11.068 3.913 12.648 3.913 9.487 3.913 3.162 3.912 9.487 3.913 15.81 3.913 11.068 3.913 9.487 3.913 6.324 3.912 3.162 3.913 3.162 3.913 1.581L102.43 160l3.912 6.324 3.913 7.905 3.913 6.325 3.913 4.743 3.913 6.324 3.912 6.325 3.913 4.743 3.913 3.162 3.913 4.743 3.912 6.325 3.913 3.162 3.913 3.162 3.913 4.743 3.913 4.743 3.912 3.163 3.913 12.648 3.913 4.743 3.913 4.744 3.913 3.162h3.912l3.913 7.905 3.913 1.581 3.913 4.744 3.912 3.162 3.913 1.58 3.913 4.744 3.913 4.743 3.913 6.325 3.912 4.743 3.913 3.162 3.913 1.581h3.913l3.912 6.324h3.913l3.913 6.325 3.913 3.162 3.913 1.581 3.912 4.743 3.913 1.581 3.913 3.163 3.913 1.58 3.912 1.582 3.913 1.58 3.913 1.582 3.913 3.162 3.913 1.581 3.912 1.581 3.913 3.162 3.913 3.163 3.913 3.162h3.912l3.913 3.162h3.913l3.913 1.581h3.913l3.912 1.581 3.913 6.324 3.913 1.581 3.913 4.744 3.912 3.162 3.913 6.324 3.913 4.743 3.913 4.744h3.913l3.912 1.58 3.913 3.163 3.913 4.743 3.913 1.581 3.912 4.744 3.913 1.58 3.913 3.163 3.913 1.58h3.913l3.912 1.582 3.913 1.581 3.913 1.581h3.913l3.913 1.581h3.912l3.913 1.581 3.913 1.581h3.913l3.912 1.581 3.913 3.163h3.913" clip-path="url(#C)" style="fill:none;stroke:#9467bd;stroke-width:2;stroke-linecap:square;stroke-linejoin:round;stroke-miterlimit:10;stroke-dasharray:none;stroke-opacity:.8" transform="matrix(1.33333 0 0 -1.33333 0 591.142)"/><path d="M196.337 276.58a2 2 0 1 1 0 4 2 2 0 0 1 0-4z" clip-path="url(#D)" style="fill:#9467bd;fill-opacity:.8;fill-rule:nonzero;stroke:#9467bd;stroke-width:1;stroke-linecap:butt;stroke-linejoin:round;stroke-miterlimit:10;stroke-dasharray:none;stroke-opacity:.8" transform="matrix(1.33333 0 0 -1.33333 0 591.142)"/><path d="m47.652 41.417 387.365 387.366" clip-path="url(#E)" style="fill:none;stroke:#c31;stroke-width:2;stroke-linecap:butt;stroke-linejoin:round;stroke-miterlimit:10;stroke-dasharray:7.4,3.2;stroke-dashoffset:0;stroke-opacity:.8" transform="matrix(1.33333 0 0 -1.33333 0 591.142)"/><path d="M303.047 42.544H431.89q2 0 2 2v72.36q0 1.999-2 2H303.047q-2-.001-2-2v-72.36q0-2 2-2z" style="fill:#fff;fill-opacity:.8;fill-rule:nonzero;stroke:#ccc;stroke-width:1;stroke-linecap:butt;stroke-linejoin:miter;stroke-miterlimit:10;stroke-dasharray:none;stroke-opacity:.8" transform="matrix(1.33333 0 0 -1.33333 0 591.142)"/><path d="M305.047 110.81h20" style="fill:none;stroke:#1f77b4;stroke-width:2;stroke-linecap:square;stroke-linejoin:round;stroke-miterlimit:10;stroke-dasharray:none;stroke-opacity:.8" transform="matrix(1.33333 0 0 -1.33333 0 591.142)"/><path d="M315.047 108.81a2 2 0 1 1 0 4 2 2 0 0 1 0-4z" style="fill:#1f77b4;fill-opacity:.8;fill-rule:nonzero;stroke:#1f77b4;stroke-width:1;stroke-linecap:butt;stroke-linejoin:round;stroke-miterlimit:10;stroke-dasharray:none;stroke-opacity:.8" transform="matrix(1.33333 0 0 -1.33333 0 591.142)"/><text xml:space="preserve" transform="translate(444.062 448.062)scale(1.33333)"><tspan x="0" y="0" style="font-variant:normal;font-weight:400;font-size:10px;font-family:&quot;DejaVu Sans&quot;;writing-mode:lr-tb;fill:#000;fill-opacity:1;fill-rule:nonzero;stroke:none">DES</tspan></text><path d="M305.047 96.138h20" style="fill:none;stroke:#ff7f0e;stroke-width:2;stroke-linecap:square;stroke-linejoin:round;stroke-miterlimit:10;stroke-dasharray:none;stroke-opacity:.8" transform="matrix(1.33333 0 0 -1.33333 0 591.142)"/><path d="M315.047 94.138a2 2 0 1 1 0 4 2 2 0 0 1 0-4z" style="fill:#ff7f0e;fill-opacity:.8;fill-rule:nonzero;stroke:#ff7f0e;stroke-width:1;stroke-linecap:butt;stroke-linejoin:round;stroke-miterlimit:10;stroke-dasharray:none;stroke-opacity:.8" transform="matrix(1.33333 0 0 -1.33333 0 591.142)"/><text xml:space="preserve" transform="translate(444.062 467.625)scale(1.33333)"><tspan x="0" y="0" style="font-variant:normal;font-weight:400;font-size:10px;font-family:&quot;DejaVu Sans&quot;;writing-mode:lr-tb;fill:#000;fill-opacity:1;fill-rule:nonzero;stroke:none">CMA-ES</tspan></text><path d="M305.047 81.466h20" style="fill:none;stroke:#2ca02c;stroke-width:2;stroke-linecap:square;stroke-linejoin:round;stroke-miterlimit:10;stroke-dasharray:none;stroke-opacity:.8" transform="matrix(1.33333 0 0 -1.33333 0 591.142)"/><path d="M315.047 79.466a2 2 0 1 1 0 4 2 2 0 0 1 0-4z" style="fill:#2ca02c;fill-opacity:.8;fill-rule:nonzero;stroke:#2ca02c;stroke-width:1;stroke-linecap:butt;stroke-linejoin:round;stroke-miterlimit:10;stroke-dasharray:none;stroke-opacity:.8" transform="matrix(1.33333 0 0 -1.33333 0 591.142)"/><text xml:space="preserve" transform="translate(444.062 487.187)scale(1.33333)"><tspan x="0" y="0" style="font-variant:normal;font-weight:400;font-size:10px;font-family:&quot;DejaVu Sans&quot;;writing-mode:lr-tb;fill:#000;fill-opacity:1;fill-rule:nonzero;stroke:none">jSO</tspan></text><path d="M305.047 66.794h20" style="fill:none;stroke:#9467bd;stroke-width:2;stroke-linecap:square;stroke-linejoin:round;stroke-miterlimit:10;stroke-dasharray:none;stroke-opacity:.8" transform="matrix(1.33333 0 0 -1.33333 0 591.142)"/><path d="M315.047 64.794a2 2 0 1 1 0 4 2 2 0 0 1 0-4z" style="fill:#9467bd;fill-opacity:.8;fill-rule:nonzero;stroke:#9467bd;stroke-width:1;stroke-linecap:butt;stroke-linejoin:round;stroke-miterlimit:10;stroke-dasharray:none;stroke-opacity:.8" transform="matrix(1.33333 0 0 -1.33333 0 591.142)"/><text xml:space="preserve" transform="translate(444.062 506.75)scale(1.33333)"><tspan x="0" y="0" style="font-variant:normal;font-weight:400;font-size:10px;font-family:&quot;DejaVu Sans&quot;;writing-mode:lr-tb;fill:#000;fill-opacity:1;fill-rule:nonzero;stroke:none">Logistic Regression</tspan></text><path d="M305.047 52.122h20" style="fill:none;stroke:#c31;stroke-width:2;stroke-linecap:butt;stroke-linejoin:round;stroke-miterlimit:10;stroke-dasharray:7.4,3.2;stroke-dashoffset:0;stroke-opacity:.8" transform="matrix(1.33333 0 0 -1.33333 0 591.142)"/><text xml:space="preserve" transform="translate(444.062 526.312)scale(1.33333)"><tspan x="0" y="0" style="font-variant:normal;font-weight:400;font-size:10px;font-family:&quot;DejaVu Sans&quot;;writing-mode:lr-tb;fill:#000;fill-opacity:1;fill-rule:nonzero;stroke:none">Luck</tspan></text></svg>