<?xml version="1.0" encoding="UTF-8" standalone="no"?>
<!-- Created with Inkscape (http://www.inkscape.org/) -->

<svg
   version="1.1"
   id="svg1"
   width="600.22681"
   height="591.14166"
   viewBox="0 0 600.22681 591.14166"
   xmlns="http://www.w3.org/2000/svg"
   xmlns:svg="http://www.w3.org/2000/svg">
  <defs
     id="defs1">
    <clipPath
       clipPathUnits="userSpaceOnUse"
       id="clipPath4">
      <path
         d="M 43.778125,37.54375 H 438.89062 V 432.65624 H 43.778125 Z"
         id="path4" />
    </clipPath>
    <clipPath
       clipPathUnits="userSpaceOnUse"
       id="clipPath7">
      <path
         d="M 43.778125,37.54375 H 438.89062 V 432.65624 H 43.778125 Z"
         id="path7" />
    </clipPath>
    <clipPath
       clipPathUnits="userSpaceOnUse"
       id="clipPath10">
      <path
         d="M 43.778125,37.54375 H 438.89062 V 432.65624 H 43.778125 Z"
         id="path10" />
    </clipPath>
    <clipPath
       clipPathUnits="userSpaceOnUse"
       id="clipPath13">
      <path
         d="M 43.778125,37.54375 H 438.89062 V 432.65624 H 43.778125 Z"
         id="path13" />
    </clipPath>
    <clipPath
       clipPathUnits="userSpaceOnUse"
       id="clipPath16">
      <path
         d="M 43.778125,37.54375 H 438.89062 V 432.65624 H 43.778125 Z"
         id="path16" />
    </clipPath>
    <clipPath
       clipPathUnits="userSpaceOnUse"
       id="clipPath19">
      <path
         d="M 43.778125,37.54375 H 438.89062 V 432.65624 H 43.778125 Z"
         id="path19" />
    </clipPath>
    <clipPath
       clipPathUnits="userSpaceOnUse"
       id="clipPath22">
      <path
         d="M 43.778125,37.54375 H 438.89062 V 432.65624 H 43.778125 Z"
         id="path22" />
    </clipPath>
    <clipPath
       clipPathUnits="userSpaceOnUse"
       id="clipPath25">
      <path
         d="M 43.778125,37.54375 H 438.89062 V 432.65624 H 43.778125 Z"
         id="path25" />
    </clipPath>
    <clipPath
       clipPathUnits="userSpaceOnUse"
       id="clipPath28">
      <path
         d="M 43.778125,37.54375 H 438.89062 V 432.65624 H 43.778125 Z"
         id="path28" />
    </clipPath>
    <clipPath
       clipPathUnits="userSpaceOnUse"
       id="clipPath31">
      <path
         d="M 43.778125,37.54375 H 438.89062 V 432.65624 H 43.778125 Z"
         id="path31" />
    </clipPath>
    <clipPath
       clipPathUnits="userSpaceOnUse"
       id="clipPath34">
      <path
         d="M 43.778125,37.54375 H 438.89062 V 432.65624 H 43.778125 Z"
         id="path34" />
    </clipPath>
    <clipPath
       clipPathUnits="userSpaceOnUse"
       id="clipPath37">
      <path
         d="M 43.778125,37.54375 H 438.89062 V 432.65624 H 43.778125 Z"
         id="path37" />
    </clipPath>
    <clipPath
       clipPathUnits="userSpaceOnUse"
       id="clipPath40">
      <path
         d="M 43.778125,37.54375 H 438.89062 V 432.65624 H 43.778125 Z"
         id="path40" />
    </clipPath>
    <clipPath
       clipPathUnits="userSpaceOnUse"
       id="clipPath43">
      <path
         d="M 43.778125,37.54375 H 438.89062 V 432.65624 H 43.778125 Z"
         id="path43" />
    </clipPath>
    <clipPath
       clipPathUnits="userSpaceOnUse"
       id="clipPath46">
      <path
         d="M 43.778125,37.54375 H 438.89062 V 432.65624 H 43.778125 Z"
         id="path46" />
    </clipPath>
    <clipPath
       clipPathUnits="userSpaceOnUse"
       id="clipPath49">
      <path
         d="M 43.778125,37.54375 H 438.89062 V 432.65624 H 43.778125 Z"
         id="path49" />
    </clipPath>
    <clipPath
       clipPathUnits="userSpaceOnUse"
       id="clipPath52">
      <path
         d="M 43.778125,37.54375 H 438.89062 V 432.65624 H 43.778125 Z"
         id="path52" />
    </clipPath>
    <clipPath
       clipPathUnits="userSpaceOnUse"
       id="clipPath55">
      <path
         d="M 43.778125,37.54375 H 438.89062 V 432.65624 H 43.778125 Z"
         id="path55" />
    </clipPath>
    <clipPath
       clipPathUnits="userSpaceOnUse"
       id="clipPath58">
      <path
         d="M 43.778125,37.54375 H 438.89062 V 432.65624 H 43.778125 Z"
         id="path58" />
    </clipPath>
    <clipPath
       clipPathUnits="userSpaceOnUse"
       id="clipPath61">
      <path
         d="M 43.778125,37.54375 H 438.89062 V 432.65624 H 43.778125 Z"
         id="path61" />
    </clipPath>
    <clipPath
       clipPathUnits="userSpaceOnUse"
       id="clipPath64">
      <path
         d="M 43.778125,37.54375 H 438.89062 V 432.65624 H 43.778125 Z"
         id="path64" />
    </clipPath>
    <clipPath
       clipPathUnits="userSpaceOnUse"
       id="clipPath67">
      <path
         d="M 43.778125,37.54375 H 438.89062 V 432.65624 H 43.778125 Z"
         id="path67" />
    </clipPath>
    <clipPath
       clipPathUnits="userSpaceOnUse"
       id="clipPath70">
      <path
         d="M 43.778125,37.54375 H 438.89062 V 432.65624 H 43.778125 Z"
         id="path70" />
    </clipPath>
    <clipPath
       clipPathUnits="userSpaceOnUse"
       id="clipPath72">
      <path
         d="M 43.778125,37.54375 H 438.89062 V 432.65624 H 43.778125 Z"
         id="path72" />
    </clipPath>
    <clipPath
       clipPathUnits="userSpaceOnUse"
       id="clipPath74">
      <path
         d="M 43.778125,37.54375 H 438.89062 V 432.65624 H 43.778125 Z"
         id="path74" />
    </clipPath>
    <clipPath
       clipPathUnits="userSpaceOnUse"
       id="clipPath76">
      <path
         d="M 43.778125,37.54375 H 438.89062 V 432.65624 H 43.778125 Z"
         id="path76" />
    </clipPath>
    <clipPath
       clipPathUnits="userSpaceOnUse"
       id="clipPath78">
      <path
         d="M 43.778125,37.54375 H 438.89062 V 432.65624 H 43.778125 Z"
         id="path78" />
    </clipPath>
    <clipPath
       clipPathUnits="userSpaceOnUse"
       id="clipPath80">
      <path
         d="M 43.778125,37.54375 H 438.89062 V 432.65624 H 43.778125 Z"
         id="path80" />
    </clipPath>
    <clipPath
       clipPathUnits="userSpaceOnUse"
       id="clipPath82">
      <path
         d="M 43.778125,37.54375 H 438.89062 V 432.65624 H 43.778125 Z"
         id="path82" />
    </clipPath>
    <clipPath
       clipPathUnits="userSpaceOnUse"
       id="clipPath84">
      <path
         d="M 43.778125,37.54375 H 438.89062 V 432.65624 H 43.778125 Z"
         id="path84" />
    </clipPath>
    <clipPath
       clipPathUnits="userSpaceOnUse"
       id="clipPath86">
      <path
         d="M 43.778125,37.54375 H 438.89062 V 432.65624 H 43.778125 Z"
         id="path86" />
    </clipPath>
  </defs>
  <g
     id="g1">
    <path
       id="path1"
       d="M 0,0 H 450.17009 V 443.35624 H 0 Z"
       style="fill:#ffffff;fill-opacity:1;fill-rule:nonzero;stroke:none"
       transform="matrix(1.3333333,0,0,-1.3333333,0,591.14166)" />
    <path
       id="path2"
       d="M 43.778125,37.54375 H 438.89062 V 432.65624 H 43.778125 Z"
       style="fill:#ffffff;fill-opacity:1;fill-rule:nonzero;stroke:none"
       transform="matrix(1.3333333,0,0,-1.3333333,0,591.14166)" />
    <path
       id="path3"
       d="M 47.651777,37.54375 V 432.65624"
       style="fill:none;stroke:#b0b0b0;stroke-width:0.8;stroke-linecap:square;stroke-linejoin:round;stroke-miterlimit:10;stroke-dasharray:none;stroke-opacity:1"
       transform="matrix(1.3333333,0,0,-1.3333333,0,591.14166)"
       clip-path="url(#clipPath4)" />
    <path
       id="path5"
       d="m 47.651777,37.54375 v -3.5"
       style="fill:#000000;fill-opacity:1;fill-rule:nonzero;stroke:#000000;stroke-width:0.8;stroke-linecap:butt;stroke-linejoin:round;stroke-miterlimit:10;stroke-dasharray:none;stroke-opacity:1"
       transform="matrix(1.3333333,0,0,-1.3333333,0,591.14166)" />
    <text
       id="text5"
       xml:space="preserve"
       transform="matrix(1.3333333,0,0,1.3333333,52.931536,560.54166)"><tspan
         id="tspan5"
         style="font-variant:normal;font-weight:normal;font-size:10px;font-family:'DejaVu Sans';writing-mode:lr-tb;fill:#000000;fill-opacity:1;fill-rule:nonzero;stroke:none"
         x="0"
         y="0">0.0</tspan></text>
    <path
       id="path6"
       d="M 86.388296,37.54375 V 432.65624"
       style="fill:none;stroke:#b0b0b0;stroke-width:0.8;stroke-linecap:square;stroke-linejoin:round;stroke-miterlimit:10;stroke-dasharray:none;stroke-opacity:1"
       transform="matrix(1.3333333,0,0,-1.3333333,0,591.14166)"
       clip-path="url(#clipPath7)" />
    <path
       id="path8"
       d="m 86.388296,37.54375 v -3.5"
       style="fill:#000000;fill-opacity:1;fill-rule:nonzero;stroke:#000000;stroke-width:0.8;stroke-linecap:butt;stroke-linejoin:round;stroke-miterlimit:10;stroke-dasharray:none;stroke-opacity:1"
       transform="matrix(1.3333333,0,0,-1.3333333,0,591.14166)" />
    <text
       id="text8"
       xml:space="preserve"
       transform="matrix(1.3333333,0,0,1.3333333,104.58023,560.54166)"><tspan
         id="tspan8"
         style="font-variant:normal;font-weight:normal;font-size:10px;font-family:'DejaVu Sans';writing-mode:lr-tb;fill:#000000;fill-opacity:1;fill-rule:nonzero;stroke:none"
         x="0"
         y="0">0.1</tspan></text>
    <path
       id="path9"
       d="M 125.12481,37.54375 V 432.65624"
       style="fill:none;stroke:#b0b0b0;stroke-width:0.8;stroke-linecap:square;stroke-linejoin:round;stroke-miterlimit:10;stroke-dasharray:none;stroke-opacity:1"
       transform="matrix(1.3333333,0,0,-1.3333333,0,591.14166)"
       clip-path="url(#clipPath10)" />
    <path
       id="path11"
       d="m 125.12481,37.54375 v -3.5"
       style="fill:#000000;fill-opacity:1;fill-rule:nonzero;stroke:#000000;stroke-width:0.8;stroke-linecap:butt;stroke-linejoin:round;stroke-miterlimit:10;stroke-dasharray:none;stroke-opacity:1"
       transform="matrix(1.3333333,0,0,-1.3333333,0,591.14166)" />
    <text
       id="text11"
       xml:space="preserve"
       transform="matrix(1.3333333,0,0,1.3333333,156.22892,560.54166)"><tspan
         id="tspan11"
         style="font-variant:normal;font-weight:normal;font-size:10px;font-family:'DejaVu Sans';writing-mode:lr-tb;fill:#000000;fill-opacity:1;fill-rule:nonzero;stroke:none"
         x="0"
         y="0">0.2</tspan></text>
    <path
       id="path12"
       d="M 163.86133,37.54375 V 432.65624"
       style="fill:none;stroke:#b0b0b0;stroke-width:0.8;stroke-linecap:square;stroke-linejoin:round;stroke-miterlimit:10;stroke-dasharray:none;stroke-opacity:1"
       transform="matrix(1.3333333,0,0,-1.3333333,0,591.14166)"
       clip-path="url(#clipPath13)" />
    <path
       id="path14"
       d="m 163.86133,37.54375 v -3.5"
       style="fill:#000000;fill-opacity:1;fill-rule:nonzero;stroke:#000000;stroke-width:0.8;stroke-linecap:butt;stroke-linejoin:round;stroke-miterlimit:10;stroke-dasharray:none;stroke-opacity:1"
       transform="matrix(1.3333333,0,0,-1.3333333,0,591.14166)" />
    <text
       id="text14"
       xml:space="preserve"
       transform="matrix(1.3333333,0,0,1.3333333,207.87761,560.54166)"><tspan
         id="tspan14"
         style="font-variant:normal;font-weight:normal;font-size:10px;font-family:'DejaVu Sans';writing-mode:lr-tb;fill:#000000;fill-opacity:1;fill-rule:nonzero;stroke:none"
         x="0"
         y="0">0.3</tspan></text>
    <path
       id="path15"
       d="M 202.59785,37.54375 V 432.65624"
       style="fill:none;stroke:#b0b0b0;stroke-width:0.8;stroke-linecap:square;stroke-linejoin:round;stroke-miterlimit:10;stroke-dasharray:none;stroke-opacity:1"
       transform="matrix(1.3333333,0,0,-1.3333333,0,591.14166)"
       clip-path="url(#clipPath16)" />
    <path
       id="path17"
       d="m 202.59785,37.54375 v -3.5"
       style="fill:#000000;fill-opacity:1;fill-rule:nonzero;stroke:#000000;stroke-width:0.8;stroke-linecap:butt;stroke-linejoin:round;stroke-miterlimit:10;stroke-dasharray:none;stroke-opacity:1"
       transform="matrix(1.3333333,0,0,-1.3333333,0,591.14166)" />
    <text
       id="text17"
       xml:space="preserve"
       transform="matrix(1.3333333,0,0,1.3333333,259.5263,560.54166)"><tspan
         id="tspan17"
         style="font-variant:normal;font-weight:normal;font-size:10px;font-family:'DejaVu Sans';writing-mode:lr-tb;fill:#000000;fill-opacity:1;fill-rule:nonzero;stroke:none"
         x="0"
         y="0">0.4</tspan></text>
    <path
       id="path18"
       d="M 241.33437,37.54375 V 432.65624"
       style="fill:none;stroke:#b0b0b0;stroke-width:0.8;stroke-linecap:square;stroke-linejoin:round;stroke-miterlimit:10;stroke-dasharray:none;stroke-opacity:1"
       transform="matrix(1.3333333,0,0,-1.3333333,0,591.14166)"
       clip-path="url(#clipPath19)" />
    <path
       id="path20"
       d="m 241.33437,37.54375 v -3.5"
       style="fill:#000000;fill-opacity:1;fill-rule:nonzero;stroke:#000000;stroke-width:0.8;stroke-linecap:butt;stroke-linejoin:round;stroke-miterlimit:10;stroke-dasharray:none;stroke-opacity:1"
       transform="matrix(1.3333333,0,0,-1.3333333,0,591.14166)" />
    <text
       id="text20"
       xml:space="preserve"
       transform="matrix(1.3333333,0,0,1.3333333,311.17499,560.54166)"><tspan
         id="tspan20"
         style="font-variant:normal;font-weight:normal;font-size:10px;font-family:'DejaVu Sans';writing-mode:lr-tb;fill:#000000;fill-opacity:1;fill-rule:nonzero;stroke:none"
         x="0"
         y="0">0.5</tspan></text>
    <path
       id="path21"
       d="M 280.07089,37.54375 V 432.65624"
       style="fill:none;stroke:#b0b0b0;stroke-width:0.8;stroke-linecap:square;stroke-linejoin:round;stroke-miterlimit:10;stroke-dasharray:none;stroke-opacity:1"
       transform="matrix(1.3333333,0,0,-1.3333333,0,591.14166)"
       clip-path="url(#clipPath22)" />
    <path
       id="path23"
       d="m 280.07089,37.54375 v -3.5"
       style="fill:#000000;fill-opacity:1;fill-rule:nonzero;stroke:#000000;stroke-width:0.8;stroke-linecap:butt;stroke-linejoin:round;stroke-miterlimit:10;stroke-dasharray:none;stroke-opacity:1"
       transform="matrix(1.3333333,0,0,-1.3333333,0,591.14166)" />
    <text
       id="text23"
       xml:space="preserve"
       transform="matrix(1.3333333,0,0,1.3333333,362.82369,560.54166)"><tspan
         id="tspan23"
         style="font-variant:normal;font-weight:normal;font-size:10px;font-family:'DejaVu Sans';writing-mode:lr-tb;fill:#000000;fill-opacity:1;fill-rule:nonzero;stroke:none"
         x="0"
         y="0">0.6</tspan></text>
    <path
       id="path24"
       d="M 318.80741,37.54375 V 432.65624"
       style="fill:none;stroke:#b0b0b0;stroke-width:0.8;stroke-linecap:square;stroke-linejoin:round;stroke-miterlimit:10;stroke-dasharray:none;stroke-opacity:1"
       transform="matrix(1.3333333,0,0,-1.3333333,0,591.14166)"
       clip-path="url(#clipPath25)" />
    <path
       id="path26"
       d="m 318.80741,37.54375 v -3.5"
       style="fill:#000000;fill-opacity:1;fill-rule:nonzero;stroke:#000000;stroke-width:0.8;stroke-linecap:butt;stroke-linejoin:round;stroke-miterlimit:10;stroke-dasharray:none;stroke-opacity:1"
       transform="matrix(1.3333333,0,0,-1.3333333,0,591.14166)" />
    <text
       id="text26"
       xml:space="preserve"
       transform="matrix(1.3333333,0,0,1.3333333,414.47238,560.54166)"><tspan
         id="tspan26"
         style="font-variant:normal;font-weight:normal;font-size:10px;font-family:'DejaVu Sans';writing-mode:lr-tb;fill:#000000;fill-opacity:1;fill-rule:nonzero;stroke:none"
         x="0"
         y="0">0.7</tspan></text>
    <path
       id="path27"
       d="M 357.54393,37.54375 V 432.65624"
       style="fill:none;stroke:#b0b0b0;stroke-width:0.8;stroke-linecap:square;stroke-linejoin:round;stroke-miterlimit:10;stroke-dasharray:none;stroke-opacity:1"
       transform="matrix(1.3333333,0,0,-1.3333333,0,591.14166)"
       clip-path="url(#clipPath28)" />
    <path
       id="path29"
       d="m 357.54393,37.54375 v -3.5"
       style="fill:#000000;fill-opacity:1;fill-rule:nonzero;stroke:#000000;stroke-width:0.8;stroke-linecap:butt;stroke-linejoin:round;stroke-miterlimit:10;stroke-dasharray:none;stroke-opacity:1"
       transform="matrix(1.3333333,0,0,-1.3333333,0,591.14166)" />
    <text
       id="text29"
       xml:space="preserve"
       transform="matrix(1.3333333,0,0,1.3333333,466.12107,560.54166)"><tspan
         id="tspan29"
         style="font-variant:normal;font-weight:normal;font-size:10px;font-family:'DejaVu Sans';writing-mode:lr-tb;fill:#000000;fill-opacity:1;fill-rule:nonzero;stroke:none"
         x="0"
         y="0">0.8</tspan></text>
    <path
       id="path30"
       d="M 396.28045,37.54375 V 432.65624"
       style="fill:none;stroke:#b0b0b0;stroke-width:0.8;stroke-linecap:square;stroke-linejoin:round;stroke-miterlimit:10;stroke-dasharray:none;stroke-opacity:1"
       transform="matrix(1.3333333,0,0,-1.3333333,0,591.14166)"
       clip-path="url(#clipPath31)" />
    <path
       id="path32"
       d="m 396.28045,37.54375 v -3.5"
       style="fill:#000000;fill-opacity:1;fill-rule:nonzero;stroke:#000000;stroke-width:0.8;stroke-linecap:butt;stroke-linejoin:round;stroke-miterlimit:10;stroke-dasharray:none;stroke-opacity:1"
       transform="matrix(1.3333333,0,0,-1.3333333,0,591.14166)" />
    <text
       id="text32"
       xml:space="preserve"
       transform="matrix(1.3333333,0,0,1.3333333,517.76976,560.54166)"><tspan
         id="tspan32"
         style="font-variant:normal;font-weight:normal;font-size:10px;font-family:'DejaVu Sans';writing-mode:lr-tb;fill:#000000;fill-opacity:1;fill-rule:nonzero;stroke:none"
         x="0"
         y="0">0.9</tspan></text>
    <path
       id="path33"
       d="M 435.01696,37.54375 V 432.65624"
       style="fill:none;stroke:#b0b0b0;stroke-width:0.8;stroke-linecap:square;stroke-linejoin:round;stroke-miterlimit:10;stroke-dasharray:none;stroke-opacity:1"
       transform="matrix(1.3333333,0,0,-1.3333333,0,591.14166)"
       clip-path="url(#clipPath34)" />
    <path
       id="path35"
       d="m 435.01696,37.54375 v -3.5"
       style="fill:#000000;fill-opacity:1;fill-rule:nonzero;stroke:#000000;stroke-width:0.8;stroke-linecap:butt;stroke-linejoin:round;stroke-miterlimit:10;stroke-dasharray:none;stroke-opacity:1"
       transform="matrix(1.3333333,0,0,-1.3333333,0,591.14166)" />
    <text
       id="text35"
       xml:space="preserve"
       transform="matrix(1.3333333,0,0,1.3333333,569.41845,560.54166)"><tspan
         id="tspan35"
         style="font-variant:normal;font-weight:normal;font-size:10px;font-family:'DejaVu Sans';writing-mode:lr-tb;fill:#000000;fill-opacity:1;fill-rule:nonzero;stroke:none"
         x="0"
         y="0">1.0</tspan></text>
    <text
       id="text36"
       xml:space="preserve"
       transform="matrix(1.3333333,0,0,1.3333333,258.77916,578.77082)"><tspan
         id="tspan36"
         style="font-variant:normal;font-weight:normal;font-size:10px;font-family:'DejaVu Sans';writing-mode:lr-tb;fill:#000000;fill-opacity:1;fill-rule:nonzero;stroke:none"
         x="0"
         y="0">False Positive Rate</tspan></text>
    <path
       id="path36"
       d="M 43.778125,41.417402 H 438.89062"
       style="fill:none;stroke:#b0b0b0;stroke-width:0.8;stroke-linecap:square;stroke-linejoin:round;stroke-miterlimit:10;stroke-dasharray:none;stroke-opacity:1"
       transform="matrix(1.3333333,0,0,-1.3333333,0,591.14166)"
       clip-path="url(#clipPath37)" />
    <path
       id="path38"
       d="m 43.778125,41.417402 h -3.5"
       style="fill:#000000;fill-opacity:1;fill-rule:nonzero;stroke:#000000;stroke-width:0.8;stroke-linecap:butt;stroke-linejoin:round;stroke-miterlimit:10;stroke-dasharray:none;stroke-opacity:1"
       transform="matrix(1.3333333,0,0,-1.3333333,0,591.14166)" />
    <text
       id="text38"
       xml:space="preserve"
       transform="matrix(1.3333333,0,0,1.3333333,27.829167,540.98095)"><tspan
         id="tspan38"
         style="font-variant:normal;font-weight:normal;font-size:10px;font-family:'DejaVu Sans';writing-mode:lr-tb;fill:#000000;fill-opacity:1;fill-rule:nonzero;stroke:none"
         x="0"
         y="0">0.0</tspan></text>
    <path
       id="path39"
       d="M 43.778125,80.153921 H 438.89062"
       style="fill:none;stroke:#b0b0b0;stroke-width:0.8;stroke-linecap:square;stroke-linejoin:round;stroke-miterlimit:10;stroke-dasharray:none;stroke-opacity:1"
       transform="matrix(1.3333333,0,0,-1.3333333,0,591.14166)"
       clip-path="url(#clipPath40)" />
    <path
       id="path41"
       d="m 43.778125,80.153921 h -3.5"
       style="fill:#000000;fill-opacity:1;fill-rule:nonzero;stroke:#000000;stroke-width:0.8;stroke-linecap:butt;stroke-linejoin:round;stroke-miterlimit:10;stroke-dasharray:none;stroke-opacity:1"
       transform="matrix(1.3333333,0,0,-1.3333333,0,591.14166)" />
    <text
       id="text41"
       xml:space="preserve"
       transform="matrix(1.3333333,0,0,1.3333333,27.829167,489.33226)"><tspan
         id="tspan41"
         style="font-variant:normal;font-weight:normal;font-size:10px;font-family:'DejaVu Sans';writing-mode:lr-tb;fill:#000000;fill-opacity:1;fill-rule:nonzero;stroke:none"
         x="0"
         y="0">0.1</tspan></text>
    <path
       id="path42"
       d="M 43.778125,118.89044 H 438.89062"
       style="fill:none;stroke:#b0b0b0;stroke-width:0.8;stroke-linecap:square;stroke-linejoin:round;stroke-miterlimit:10;stroke-dasharray:none;stroke-opacity:1"
       transform="matrix(1.3333333,0,0,-1.3333333,0,591.14166)"
       clip-path="url(#clipPath43)" />
    <path
       id="path44"
       d="m 43.778125,118.89044 h -3.5"
       style="fill:#000000;fill-opacity:1;fill-rule:nonzero;stroke:#000000;stroke-width:0.8;stroke-linecap:butt;stroke-linejoin:round;stroke-miterlimit:10;stroke-dasharray:none;stroke-opacity:1"
       transform="matrix(1.3333333,0,0,-1.3333333,0,591.14166)" />
    <text
       id="text44"
       xml:space="preserve"
       transform="matrix(1.3333333,0,0,1.3333333,27.829167,437.68357)"><tspan
         id="tspan44"
         style="font-variant:normal;font-weight:normal;font-size:10px;font-family:'DejaVu Sans';writing-mode:lr-tb;fill:#000000;fill-opacity:1;fill-rule:nonzero;stroke:none"
         x="0"
         y="0">0.2</tspan></text>
    <path
       id="path45"
       d="M 43.778125,157.62696 H 438.89062"
       style="fill:none;stroke:#b0b0b0;stroke-width:0.8;stroke-linecap:square;stroke-linejoin:round;stroke-miterlimit:10;stroke-dasharray:none;stroke-opacity:1"
       transform="matrix(1.3333333,0,0,-1.3333333,0,591.14166)"
       clip-path="url(#clipPath46)" />
    <path
       id="path47"
       d="m 43.778125,157.62696 h -3.5"
       style="fill:#000000;fill-opacity:1;fill-rule:nonzero;stroke:#000000;stroke-width:0.8;stroke-linecap:butt;stroke-linejoin:round;stroke-miterlimit:10;stroke-dasharray:none;stroke-opacity:1"
       transform="matrix(1.3333333,0,0,-1.3333333,0,591.14166)" />
    <text
       id="text47"
       xml:space="preserve"
       transform="matrix(1.3333333,0,0,1.3333333,27.829167,386.03488)"><tspan
         id="tspan47"
         style="font-variant:normal;font-weight:normal;font-size:10px;font-family:'DejaVu Sans';writing-mode:lr-tb;fill:#000000;fill-opacity:1;fill-rule:nonzero;stroke:none"
         x="0"
         y="0">0.3</tspan></text>
    <path
       id="path48"
       d="M 43.778125,196.36348 H 438.89062"
       style="fill:none;stroke:#b0b0b0;stroke-width:0.8;stroke-linecap:square;stroke-linejoin:round;stroke-miterlimit:10;stroke-dasharray:none;stroke-opacity:1"
       transform="matrix(1.3333333,0,0,-1.3333333,0,591.14166)"
       clip-path="url(#clipPath49)" />
    <path
       id="path50"
       d="m 43.778125,196.36348 h -3.5"
       style="fill:#000000;fill-opacity:1;fill-rule:nonzero;stroke:#000000;stroke-width:0.8;stroke-linecap:butt;stroke-linejoin:round;stroke-miterlimit:10;stroke-dasharray:none;stroke-opacity:1"
       transform="matrix(1.3333333,0,0,-1.3333333,0,591.14166)" />
    <text
       id="text50"
       xml:space="preserve"
       transform="matrix(1.3333333,0,0,1.3333333,27.829167,334.38619)"><tspan
         id="tspan50"
         style="font-variant:normal;font-weight:normal;font-size:10px;font-family:'DejaVu Sans';writing-mode:lr-tb;fill:#000000;fill-opacity:1;fill-rule:nonzero;stroke:none"
         x="0"
         y="0">0.4</tspan></text>
    <path
       id="path51"
       d="M 43.778125,235.1 H 438.89062"
       style="fill:none;stroke:#b0b0b0;stroke-width:0.8;stroke-linecap:square;stroke-linejoin:round;stroke-miterlimit:10;stroke-dasharray:none;stroke-opacity:1"
       transform="matrix(1.3333333,0,0,-1.3333333,0,591.14166)"
       clip-path="url(#clipPath52)" />
    <path
       id="path53"
       d="m 43.778125,235.1 h -3.5"
       style="fill:#000000;fill-opacity:1;fill-rule:nonzero;stroke:#000000;stroke-width:0.8;stroke-linecap:butt;stroke-linejoin:round;stroke-miterlimit:10;stroke-dasharray:none;stroke-opacity:1"
       transform="matrix(1.3333333,0,0,-1.3333333,0,591.14166)" />
    <text
       id="text53"
       xml:space="preserve"
       transform="matrix(1.3333333,0,0,1.3333333,27.829167,282.73749)"><tspan
         id="tspan53"
         style="font-variant:normal;font-weight:normal;font-size:10px;font-family:'DejaVu Sans';writing-mode:lr-tb;fill:#000000;fill-opacity:1;fill-rule:nonzero;stroke:none"
         x="0"
         y="0">0.5</tspan></text>
    <path
       id="path54"
       d="M 43.778125,273.83651 H 438.89062"
       style="fill:none;stroke:#b0b0b0;stroke-width:0.8;stroke-linecap:square;stroke-linejoin:round;stroke-miterlimit:10;stroke-dasharray:none;stroke-opacity:1"
       transform="matrix(1.3333333,0,0,-1.3333333,0,591.14166)"
       clip-path="url(#clipPath55)" />
    <path
       id="path56"
       d="m 43.778125,273.83651 h -3.5"
       style="fill:#000000;fill-opacity:1;fill-rule:nonzero;stroke:#000000;stroke-width:0.8;stroke-linecap:butt;stroke-linejoin:round;stroke-miterlimit:10;stroke-dasharray:none;stroke-opacity:1"
       transform="matrix(1.3333333,0,0,-1.3333333,0,591.14166)" />
    <text
       id="text56"
       xml:space="preserve"
       transform="matrix(1.3333333,0,0,1.3333333,27.829167,231.0888)"><tspan
         id="tspan56"
         style="font-variant:normal;font-weight:normal;font-size:10px;font-family:'DejaVu Sans';writing-mode:lr-tb;fill:#000000;fill-opacity:1;fill-rule:nonzero;stroke:none"
         x="0"
         y="0">0.6</tspan></text>
    <path
       id="path57"
       d="M 43.778125,312.57303 H 438.89062"
       style="fill:none;stroke:#b0b0b0;stroke-width:0.8;stroke-linecap:square;stroke-linejoin:round;stroke-miterlimit:10;stroke-dasharray:none;stroke-opacity:1"
       transform="matrix(1.3333333,0,0,-1.3333333,0,591.14166)"
       clip-path="url(#clipPath58)" />
    <path
       id="path59"
       d="m 43.778125,312.57303 h -3.5"
       style="fill:#000000;fill-opacity:1;fill-rule:nonzero;stroke:#000000;stroke-width:0.8;stroke-linecap:butt;stroke-linejoin:round;stroke-miterlimit:10;stroke-dasharray:none;stroke-opacity:1"
       transform="matrix(1.3333333,0,0,-1.3333333,0,591.14166)" />
    <text
       id="text59"
       xml:space="preserve"
       transform="matrix(1.3333333,0,0,1.3333333,27.829167,179.44011)"><tspan
         id="tspan59"
         style="font-variant:normal;font-weight:normal;font-size:10px;font-family:'DejaVu Sans';writing-mode:lr-tb;fill:#000000;fill-opacity:1;fill-rule:nonzero;stroke:none"
         x="0"
         y="0">0.7</tspan></text>
    <path
       id="path60"
       d="M 43.778125,351.30955 H 438.89062"
       style="fill:none;stroke:#b0b0b0;stroke-width:0.8;stroke-linecap:square;stroke-linejoin:round;stroke-miterlimit:10;stroke-dasharray:none;stroke-opacity:1"
       transform="matrix(1.3333333,0,0,-1.3333333,0,591.14166)"
       clip-path="url(#clipPath61)" />
    <path
       id="path62"
       d="m 43.778125,351.30955 h -3.5"
       style="fill:#000000;fill-opacity:1;fill-rule:nonzero;stroke:#000000;stroke-width:0.8;stroke-linecap:butt;stroke-linejoin:round;stroke-miterlimit:10;stroke-dasharray:none;stroke-opacity:1"
       transform="matrix(1.3333333,0,0,-1.3333333,0,591.14166)" />
    <text
       id="text62"
       xml:space="preserve"
       transform="matrix(1.3333333,0,0,1.3333333,27.829167,127.79142)"><tspan
         id="tspan62"
         style="font-variant:normal;font-weight:normal;font-size:10px;font-family:'DejaVu Sans';writing-mode:lr-tb;fill:#000000;fill-opacity:1;fill-rule:nonzero;stroke:none"
         x="0"
         y="0">0.8</tspan></text>
    <path
       id="path63"
       d="M 43.778125,390.04607 H 438.89062"
       style="fill:none;stroke:#b0b0b0;stroke-width:0.8;stroke-linecap:square;stroke-linejoin:round;stroke-miterlimit:10;stroke-dasharray:none;stroke-opacity:1"
       transform="matrix(1.3333333,0,0,-1.3333333,0,591.14166)"
       clip-path="url(#clipPath64)" />
    <path
       id="path65"
       d="m 43.778125,390.04607 h -3.5"
       style="fill:#000000;fill-opacity:1;fill-rule:nonzero;stroke:#000000;stroke-width:0.8;stroke-linecap:butt;stroke-linejoin:round;stroke-miterlimit:10;stroke-dasharray:none;stroke-opacity:1"
       transform="matrix(1.3333333,0,0,-1.3333333,0,591.14166)" />
    <text
       id="text65"
       xml:space="preserve"
       transform="matrix(1.3333333,0,0,1.3333333,27.829167,76.142728)"><tspan
         id="tspan65"
         style="font-variant:normal;font-weight:normal;font-size:10px;font-family:'DejaVu Sans';writing-mode:lr-tb;fill:#000000;fill-opacity:1;fill-rule:nonzero;stroke:none"
         x="0"
         y="0">0.9</tspan></text>
    <path
       id="path66"
       d="M 43.778125,428.78259 H 438.89062"
       style="fill:none;stroke:#b0b0b0;stroke-width:0.8;stroke-linecap:square;stroke-linejoin:round;stroke-miterlimit:10;stroke-dasharray:none;stroke-opacity:1"
       transform="matrix(1.3333333,0,0,-1.3333333,0,591.14166)"
       clip-path="url(#clipPath67)" />
    <path
       id="path68"
       d="m 43.778125,428.78259 h -3.5"
       style="fill:#000000;fill-opacity:1;fill-rule:nonzero;stroke:#000000;stroke-width:0.8;stroke-linecap:butt;stroke-linejoin:round;stroke-miterlimit:10;stroke-dasharray:none;stroke-opacity:1"
       transform="matrix(1.3333333,0,0,-1.3333333,0,591.14166)" />
    <text
       id="text68"
       xml:space="preserve"
       transform="matrix(1.3333333,0,0,1.3333333,27.829167,24.494036)"><tspan
         id="tspan68"
         style="font-variant:normal;font-weight:normal;font-size:10px;font-family:'DejaVu Sans';writing-mode:lr-tb;fill:#000000;fill-opacity:1;fill-rule:nonzero;stroke:none"
         x="0"
         y="0">1.0</tspan></text>
    <text
       id="text69"
       xml:space="preserve"
       transform="matrix(0,-1.3333333,1.3333333,0,19.725,338.45624)"><tspan
         id="tspan69"
         style="font-variant:normal;font-weight:normal;font-size:10px;font-family:'DejaVu Sans';writing-mode:lr-tb;fill:#000000;fill-opacity:1;fill-rule:nonzero;stroke:none"
         x="0"
         y="0">True Positive Rate</tspan></text>
    <path
       id="path69"
       d="m 47.651777,41.417402 3.91278,15.652716 3.912779,10.909468 3.91278,11.383794 3.91278,8.221628 3.912779,9.802711 3.91278,10.751361 3.91278,8.37974 3.912779,9.32838 3.91278,7.90541 3.91278,10.27704 3.912779,6.79865 3.91278,8.37974 3.91278,7.11487 3.912777,5.37568 3.91278,4.74325 3.91278,5.6919 3.91278,4.58513 3.91278,6.48244 3.91278,6.48244 3.91278,4.26892 3.91278,3.95271 3.91278,3.47838 3.91278,7.43109 3.91278,6.95676 3.91278,5.85 3.91278,5.53379 3.91278,3.32028 3.91278,4.90135 3.91278,5.05946 3.91278,4.42704 3.91278,4.90135 3.91278,5.37568 3.91278,4.26892 3.91278,5.85001 3.91278,4.74325 3.91277,3.79459 3.91278,4.90136 3.91279,4.26892 3.91277,3.95271 3.91278,3.32027 3.91278,3.16217 3.91278,3.63648 3.91278,2.68785 3.91278,3.9527 3.91278,1.8973 3.91278,2.21352 3.91278,2.37162 3.91278,1.26486 3.91278,2.84595 3.91278,2.68784 3.91278,1.8973 3.91278,3.16217 3.91278,3.16216 3.91278,2.84595 3.91278,1.58108 3.91278,1.73919 3.91278,1.73919 3.91278,2.37163 3.91278,3.32027 3.91278,2.37162 3.91278,3.32028 3.91278,1.42297 3.91278,1.26487 3.91278,3.63649 3.91278,2.0554 3.91278,2.84595 3.91278,2.68784 3.91277,2.05541 3.91278,1.42297 3.91278,2.05541 3.91278,1.73919 3.91278,2.05541 3.91278,2.52973 3.91278,2.68784 3.91278,2.21352 3.91278,3.16216 3.91278,1.58108 3.91278,2.05541 3.91278,2.37162 3.91278,2.37163 3.91278,2.37162 3.91278,1.42297 3.91278,2.84595 3.91278,2.68784 3.91278,3.32028 3.91278,2.37162 3.91278,2.68784 3.91278,2.21352 3.91278,1.58108 3.91278,1.42297 3.91278,1.58108 3.91278,1.42298 3.91278,0.79054 3.91278,0.47432 3.91278,0.94865 3.91278,1.73919 3.91278,2.05541 3.91278,0.15811 h 3.91277"
       style="fill:none;stroke:#1f77b4;stroke-width:2;stroke-linecap:square;stroke-linejoin:round;stroke-miterlimit:10;stroke-dasharray:none;stroke-opacity:0.8"
       transform="matrix(1.3333333,0,0,-1.3333333,0,591.14166)"
       clip-path="url(#clipPath70)" />
    <path
       id="path71"
       d="m 188.51184,281.79733 c 0.53041,0 1.03916,0.21074 1.41422,0.58579 0.37505,0.37505 0.58578,0.88381 0.58578,1.41421 0,0.53041 -0.21073,1.03916 -0.58578,1.41422 -0.37506,0.37505 -0.88381,0.58578 -1.41422,0.58578 -0.5304,0 -1.03915,-0.21073 -1.41421,-0.58578 -0.37505,-0.37506 -0.58579,-0.88381 -0.58579,-1.41422 0,-0.5304 0.21074,-1.03916 0.58579,-1.41421 0.37506,-0.37505 0.88381,-0.58579 1.41421,-0.58579 z"
       style="fill:#1f77b4;fill-opacity:0.8;fill-rule:nonzero;stroke:#1f77b4;stroke-width:1;stroke-linecap:butt;stroke-linejoin:round;stroke-miterlimit:10;stroke-dasharray:none;stroke-opacity:0.8"
       transform="matrix(1.3333333,0,0,-1.3333333,0,591.14166)"
       clip-path="url(#clipPath72)" />
    <path
       id="path73"
       d="m 47.651777,41.417402 3.91278,17.550015 3.912779,9.960819 3.91278,7.272979 3.91278,9.802711 3.912779,10.277035 3.91278,10.118929 3.91278,8.37974 3.912779,8.53784 3.91278,7.27298 3.91278,11.70001 3.912779,6.64054 3.91278,5.37568 3.91278,7.11488 3.912777,5.85 3.91278,7.7473 3.91278,4.90136 3.91278,5.05946 3.91278,4.90136 3.91278,5.6919 3.91278,6.79865 3.91278,4.74325 3.91278,6.64054 3.91278,4.74325 3.91278,6.00811 3.91278,5.37568 3.91278,4.90136 3.91278,5.37568 3.91278,4.58514 3.91278,4.58514 3.91278,5.69189 3.91278,3.32028 3.91278,4.74324 3.91278,4.74325 3.91278,3.95271 3.91278,4.74324 3.91277,5.37568 3.91278,5.21758 3.91279,3.32027 3.91277,3.7946 3.91278,3.9527 3.91278,3.16217 3.91278,3.7946 3.91278,2.52973 3.91278,3.47838 3.91278,2.84595 3.91278,2.52973 3.91278,3.7946 3.91278,1.73919 3.91278,3.32027 3.91278,1.73919 3.91278,2.05541 3.91278,1.58108 3.91278,1.10676 3.91278,2.37162 3.91278,3.00406 3.91278,1.73919 3.91278,1.8973 3.91278,3.32027 3.91278,2.84595 3.91278,2.21352 3.91278,3.63648 3.91278,2.21352 3.91278,2.05541 3.91278,2.52973 3.91278,1.73919 3.91278,2.37162 3.91278,3.00406 3.91277,3.47838 3.91278,2.84595 3.91278,2.37162 3.91278,1.42298 3.91278,2.0554 3.91278,2.68784 3.91278,2.52974 3.91278,1.73919 3.91278,2.0554 3.91278,2.05541 3.91278,2.37162 3.91278,2.68784 3.91278,1.8973 3.91278,3.00406 3.91278,1.42297 3.91278,2.52974 3.91278,3.00405 3.91278,1.73919 3.91278,2.84595 3.91278,2.37163 3.91278,2.37162 3.91278,1.73919 3.91278,0.94865 3.91278,1.10676 3.91278,0.63243 3.91278,1.26487 3.91278,1.42297 3.91278,1.10676 3.91278,2.37162 3.91278,1.26487 3.91278,0.31621 3.91277,0.31622"
       style="fill:none;stroke:#ff7f0e;stroke-width:2;stroke-linecap:square;stroke-linejoin:round;stroke-miterlimit:10;stroke-dasharray:none;stroke-opacity:0.8"
       transform="matrix(1.3333333,0,0,-1.3333333,0,591.14166)"
       clip-path="url(#clipPath74)" />
    <path
       id="path75"
       d="m 192.42462,285.11761 c 0.53041,0 1.03916,0.21073 1.41422,0.58578 0.37505,0.37506 0.58578,0.88381 0.58578,1.41422 0,0.5304 -0.21073,1.03916 -0.58578,1.41421 -0.37506,0.37505 -0.88381,0.58579 -1.41422,0.58579 -0.5304,0 -1.03916,-0.21074 -1.41421,-0.58579 -0.37505,-0.37505 -0.58579,-0.88381 -0.58579,-1.41421 0,-0.53041 0.21074,-1.03916 0.58579,-1.41422 0.37505,-0.37505 0.88381,-0.58578 1.41421,-0.58578 z"
       style="fill:#ff7f0e;fill-opacity:0.8;fill-rule:nonzero;stroke:#ff7f0e;stroke-width:1;stroke-linecap:butt;stroke-linejoin:round;stroke-miterlimit:10;stroke-dasharray:none;stroke-opacity:0.8"
       transform="matrix(1.3333333,0,0,-1.3333333,0,591.14166)"
       clip-path="url(#clipPath76)" />
    <path
       id="path77"
       d="m 47.651777,41.417402 3.91278,15.968932 3.912779,11.541902 3.91278,7.431087 3.91278,9.960819 3.912779,10.75136 3.91278,10.277038 3.91278,8.53784 3.912779,7.5892 3.91278,9.80271 3.91278,7.5892 3.912779,7.90541 3.91278,6.79865 3.91278,6.95676 3.912777,7.43109 3.91278,6.16622 3.91278,4.58514 3.91278,4.90136 3.91278,7.11487 3.91278,4.74324 3.91278,5.21758 3.91278,6.16622 3.91278,5.21757 3.91278,2.68784 3.91278,5.6919 3.91278,4.90135 3.91278,4.11082 3.91278,4.90135 3.91278,6.79866 3.91278,5.05946 3.91278,4.58514 3.91278,6.00811 3.91278,6.00811 3.91278,6.32434 3.91278,5.85 3.91278,5.05946 3.91277,3.7946 3.91278,3.7946 3.91279,4.11081 3.91277,3.16217 3.91278,3.9527 3.91278,3.00406 3.91278,3.16216 3.91278,3.32028 3.91278,3.63649 3.91278,2.37162 3.91278,3.63649 3.91278,1.73919 3.91278,3.32027 3.91278,2.52974 3.91278,2.37162 3.91278,2.21352 3.91278,2.21351 3.91278,2.21352 3.91278,2.68784 3.91278,2.37162 3.91278,2.37162 3.91278,1.42298 3.91278,2.0554 3.91278,1.58109 3.91278,1.73919 3.91278,1.58108 3.91278,1.8973 3.91278,3.00406 3.91278,2.0554 3.91278,1.8973 3.91278,1.8973 3.91278,1.8973 3.91277,3.63649 3.91278,2.05541 3.91278,3.00405 3.91278,1.10676 3.91278,2.21352 3.91278,2.52973 3.91278,1.8973 3.91278,1.89729 3.91278,2.21352 3.91278,2.21352 3.91278,3.47838 3.91278,2.37162 3.91278,2.05541 3.91278,2.0554 3.91278,3.47839 3.91278,2.68784 3.91278,3.00405 3.91278,2.05541 3.91278,2.21352 3.91278,2.0554 3.91278,2.52973 3.91278,1.58109 3.91278,0.94865 3.91278,2.21351 3.91278,0.94865 3.91278,0.79054 3.91278,2.05541 3.91278,1.58108 3.91278,0.79054 3.91278,1.8973 3.91278,0.15811 h 3.91277"
       style="fill:none;stroke:#2ca02c;stroke-width:2;stroke-linecap:square;stroke-linejoin:round;stroke-miterlimit:10;stroke-dasharray:none;stroke-opacity:0.8"
       transform="matrix(1.3333333,0,0,-1.3333333,0,591.14166)"
       clip-path="url(#clipPath78)" />
    <path
       id="path79"
       d="m 188.51184,283.85274 c 0.53041,0 1.03916,0.21073 1.41422,0.58579 0.37505,0.37505 0.58578,0.8838 0.58578,1.41421 0,0.53041 -0.21073,1.03916 -0.58578,1.41421 -0.37506,0.37506 -0.88381,0.58579 -1.41422,0.58579 -0.5304,0 -1.03915,-0.21073 -1.41421,-0.58579 -0.37505,-0.37505 -0.58579,-0.8838 -0.58579,-1.41421 0,-0.53041 0.21074,-1.03916 0.58579,-1.41421 0.37506,-0.37506 0.88381,-0.58579 1.41421,-0.58579 z"
       style="fill:#2ca02c;fill-opacity:0.8;fill-rule:nonzero;stroke:#2ca02c;stroke-width:1;stroke-linecap:butt;stroke-linejoin:round;stroke-miterlimit:10;stroke-dasharray:none;stroke-opacity:0.8"
       transform="matrix(1.3333333,0,0,-1.3333333,0,591.14166)"
       clip-path="url(#clipPath80)" />
    <path
       id="path81"
       d="m 47.651777,41.417402 3.91278,15.810824 3.912779,11.067577 3.91278,12.648659 3.91278,9.486494 3.912779,3.162165 3.91278,9.486499 3.91278,15.81082 3.912779,11.06758 3.91278,9.48649 3.91278,6.32433 3.912779,3.16216 3.91278,3.16217 3.91278,1.58108 3.912777,6.32433 3.91278,6.32433 3.91278,7.90541 3.91278,6.32433 3.91278,4.74325 3.91278,6.32433 3.91278,6.32433 3.91278,4.74325 3.91278,3.16216 3.91278,4.74325 3.91278,6.32433 3.91278,3.16216 3.91278,3.16217 3.91278,4.74324 3.91278,4.74325 3.91278,3.16217 3.91278,12.64866 3.91278,4.74324 3.91278,4.74325 3.91278,3.16217 h 3.91278 l 3.91278,7.90541 3.91277,1.58108 3.91278,4.74325 3.91279,3.16216 3.91277,1.58109 3.91278,4.74324 3.91278,4.74325 3.91278,6.32433 3.91278,4.74325 3.91278,3.16216 3.91278,1.58108 h 3.91278 l 3.91278,6.32433 h 3.91278 l 3.91278,6.32433 3.91278,3.16217 3.91278,1.58108 3.91278,4.74325 3.91278,1.58108 3.91278,3.16216 3.91278,1.58109 3.91278,1.58108 3.91278,1.58108 3.91278,1.58108 3.91278,3.16217 3.91278,1.58108 3.91278,1.58108 3.91278,3.16217 3.91278,3.16216 3.91278,3.16217 h 3.91278 l 3.91278,3.16216 h 3.91278 l 3.91277,1.58108 h 3.91278 l 3.91278,1.58109 3.91278,6.32433 3.91278,1.58108 3.91278,4.74325 3.91278,3.16216 3.91278,6.32433 3.91278,4.74325 3.91278,4.74324 h 3.91278 l 3.91278,1.58109 3.91278,3.16216 3.91278,4.74325 3.91278,1.58108 3.91278,4.74325 3.91278,1.58108 3.91278,3.16217 3.91278,1.58108 h 3.91278 l 3.91278,1.58108 3.91278,1.58108 3.91278,1.58109 h 3.91278 l 3.91278,1.58108 h 3.91278 l 3.91278,1.58108 3.91278,1.58108 h 3.91278 l 3.91278,1.58109 3.91278,3.16216 h 3.91277"
       style="fill:none;stroke:#9467bd;stroke-width:2;stroke-linecap:square;stroke-linejoin:round;stroke-miterlimit:10;stroke-dasharray:none;stroke-opacity:0.8"
       transform="matrix(1.3333333,0,0,-1.3333333,0,591.14166)"
       clip-path="url(#clipPath82)" />
    <path
       id="path83"
       d="m 196.33741,276.57976 c 0.5304,0 1.03915,0.21073 1.41421,0.58579 0.37505,0.37505 0.58579,0.88381 0.58579,1.41421 0,0.53041 -0.21074,1.03916 -0.58579,1.41422 -0.37506,0.37505 -0.88381,0.58578 -1.41421,0.58578 -0.53041,0 -1.03917,-0.21073 -1.41422,-0.58578 -0.37505,-0.37506 -0.58578,-0.88381 -0.58578,-1.41422 0,-0.5304 0.21073,-1.03916 0.58578,-1.41421 0.37505,-0.37506 0.88381,-0.58579 1.41422,-0.58579 z"
       style="fill:#9467bd;fill-opacity:0.8;fill-rule:nonzero;stroke:#9467bd;stroke-width:1;stroke-linecap:butt;stroke-linejoin:round;stroke-miterlimit:10;stroke-dasharray:none;stroke-opacity:0.8"
       transform="matrix(1.3333333,0,0,-1.3333333,0,591.14166)"
       clip-path="url(#clipPath84)" />
    <path
       id="path85"
       d="M 47.651777,41.417402 435.01696,428.78259"
       style="fill:none;stroke:#cc3311;stroke-width:2;stroke-linecap:butt;stroke-linejoin:round;stroke-miterlimit:10;stroke-dasharray:7.4, 3.2;stroke-dashoffset:0;stroke-opacity:0.8"
       transform="matrix(1.3333333,0,0,-1.3333333,0,591.14166)"
       clip-path="url(#clipPath86)" />
    <path
       id="path87"
       d="m 303.04687,42.54375 h 128.84375 c 1.33333,0 2,0.666667 2,2 v 72.35938 c 0,1.33333 -0.66667,2 -2,2 H 303.04687 c -1.33334,0 -2,-0.66667 -2,-2 V 44.54375 c 0,-1.333333 0.66666,-2 2,-2 z"
       style="fill:#ffffff;fill-opacity:0.8;fill-rule:nonzero;stroke:#cccccc;stroke-width:1;stroke-linecap:butt;stroke-linejoin:miter;stroke-miterlimit:10;stroke-dasharray:none;stroke-opacity:0.8"
       transform="matrix(1.3333333,0,0,-1.3333333,0,591.14166)" />
    <path
       id="path88"
       d="m 305.04687,110.80937 h 20"
       style="fill:none;stroke:#1f77b4;stroke-width:2;stroke-linecap:square;stroke-linejoin:round;stroke-miterlimit:10;stroke-dasharray:none;stroke-opacity:0.8"
       transform="matrix(1.3333333,0,0,-1.3333333,0,591.14166)" />
    <path
       id="path89"
       d="m 315.04687,108.80937 c 0.5304,0 1.03916,0.21074 1.41421,0.58579 0.37505,0.37506 0.58579,0.88381 0.58579,1.41421 0,0.53041 -0.21074,1.03916 -0.58579,1.41422 -0.37505,0.37505 -0.88381,0.58578 -1.41421,0.58578 -0.53041,0 -1.03916,-0.21073 -1.41422,-0.58578 -0.37505,-0.37506 -0.58578,-0.88381 -0.58578,-1.41422 0,-0.5304 0.21073,-1.03915 0.58578,-1.41421 0.37506,-0.37505 0.88381,-0.58579 1.41422,-0.58579 z"
       style="fill:#1f77b4;fill-opacity:0.8;fill-rule:nonzero;stroke:#1f77b4;stroke-width:1;stroke-linecap:butt;stroke-linejoin:round;stroke-miterlimit:10;stroke-dasharray:none;stroke-opacity:0.8"
       transform="matrix(1.3333333,0,0,-1.3333333,0,591.14166)" />
    <text
       id="text89"
       xml:space="preserve"
       transform="matrix(1.3333333,0,0,1.3333333,444.06249,448.06249)"><tspan
         id="tspan89"
         style="font-variant:normal;font-weight:normal;font-size:10px;font-family:'DejaVu Sans';writing-mode:lr-tb;fill:#000000;fill-opacity:1;fill-rule:nonzero;stroke:none"
         x="0"
         y="0">DES</tspan></text>
    <path
       id="path90"
       d="m 305.04687,96.1375 h 20"
       style="fill:none;stroke:#ff7f0e;stroke-width:2;stroke-linecap:square;stroke-linejoin:round;stroke-miterlimit:10;stroke-dasharray:none;stroke-opacity:0.8"
       transform="matrix(1.3333333,0,0,-1.3333333,0,591.14166)" />
    <path
       id="path91"
       d="m 315.04687,94.1375 c 0.5304,0 1.03916,0.210733 1.41421,0.585786 0.37505,0.375054 0.58579,0.883808 0.58579,1.414214 0,0.530406 -0.21074,1.03916 -0.58579,1.414214 -0.37505,0.375053 -0.88381,0.585786 -1.41421,0.585786 -0.53041,0 -1.03916,-0.210733 -1.41422,-0.585786 -0.37505,-0.375054 -0.58578,-0.883808 -0.58578,-1.414214 0,-0.530406 0.21073,-1.03916 0.58578,-1.414214 0.37506,-0.375053 0.88381,-0.585786 1.41422,-0.585786 z"
       style="fill:#ff7f0e;fill-opacity:0.8;fill-rule:nonzero;stroke:#ff7f0e;stroke-width:1;stroke-linecap:butt;stroke-linejoin:round;stroke-miterlimit:10;stroke-dasharray:none;stroke-opacity:0.8"
       transform="matrix(1.3333333,0,0,-1.3333333,0,591.14166)" />
    <text
       id="text91"
       xml:space="preserve"
       transform="matrix(1.3333333,0,0,1.3333333,444.06249,467.62499)"><tspan
         id="tspan91"
         style="font-variant:normal;font-weight:normal;font-size:10px;font-family:'DejaVu Sans';writing-mode:lr-tb;fill:#000000;fill-opacity:1;fill-rule:nonzero;stroke:none"
         x="0"
         y="0">CMA-ES</tspan></text>
    <path
       id="path92"
       d="m 305.04687,81.465625 h 20"
       style="fill:none;stroke:#2ca02c;stroke-width:2;stroke-linecap:square;stroke-linejoin:round;stroke-miterlimit:10;stroke-dasharray:none;stroke-opacity:0.8"
       transform="matrix(1.3333333,0,0,-1.3333333,0,591.14166)" />
    <path
       id="path93"
       d="m 315.04687,79.465625 c 0.5304,0 1.03916,0.210733 1.41421,0.585786 0.37505,0.375054 0.58579,0.883808 0.58579,1.414214 0,0.530406 -0.21074,1.03916 -0.58579,1.414214 -0.37505,0.375053 -0.88381,0.585786 -1.41421,0.585786 -0.53041,0 -1.03916,-0.210733 -1.41422,-0.585786 -0.37505,-0.375054 -0.58578,-0.883808 -0.58578,-1.414214 0,-0.530406 0.21073,-1.03916 0.58578,-1.414214 0.37506,-0.375053 0.88381,-0.585786 1.41422,-0.585786 z"
       style="fill:#2ca02c;fill-opacity:0.8;fill-rule:nonzero;stroke:#2ca02c;stroke-width:1;stroke-linecap:butt;stroke-linejoin:round;stroke-miterlimit:10;stroke-dasharray:none;stroke-opacity:0.8"
       transform="matrix(1.3333333,0,0,-1.3333333,0,591.14166)" />
    <text
       id="text93"
       xml:space="preserve"
       transform="matrix(1.3333333,0,0,1.3333333,444.06249,487.18749)"><tspan
         id="tspan93"
         style="font-variant:normal;font-weight:normal;font-size:10px;font-family:'DejaVu Sans';writing-mode:lr-tb;fill:#000000;fill-opacity:1;fill-rule:nonzero;stroke:none"
         x="0"
         y="0">jSO</tspan></text>
    <path
       id="path94"
       d="m 305.04687,66.79375 h 20"
       style="fill:none;stroke:#9467bd;stroke-width:2;stroke-linecap:square;stroke-linejoin:round;stroke-miterlimit:10;stroke-dasharray:none;stroke-opacity:0.8"
       transform="matrix(1.3333333,0,0,-1.3333333,0,591.14166)" />
    <path
       id="path95"
       d="m 315.04687,64.79375 c 0.5304,0 1.03916,0.210733 1.41421,0.585786 0.37505,0.375054 0.58579,0.883808 0.58579,1.414214 0,0.530406 -0.21074,1.03916 -0.58579,1.414214 -0.37505,0.375053 -0.88381,0.585786 -1.41421,0.585786 -0.53041,0 -1.03916,-0.210733 -1.41422,-0.585786 -0.37505,-0.375054 -0.58578,-0.883808 -0.58578,-1.414214 0,-0.530406 0.21073,-1.03916 0.58578,-1.414214 0.37506,-0.375053 0.88381,-0.585786 1.41422,-0.585786 z"
       style="fill:#9467bd;fill-opacity:0.8;fill-rule:nonzero;stroke:#9467bd;stroke-width:1;stroke-linecap:butt;stroke-linejoin:round;stroke-miterlimit:10;stroke-dasharray:none;stroke-opacity:0.8"
       transform="matrix(1.3333333,0,0,-1.3333333,0,591.14166)" />
    <text
       id="text95"
       xml:space="preserve"
       transform="matrix(1.3333333,0,0,1.3333333,444.06249,506.74999)"><tspan
         id="tspan95"
         style="font-variant:normal;font-weight:normal;font-size:10px;font-family:'DejaVu Sans';writing-mode:lr-tb;fill:#000000;fill-opacity:1;fill-rule:nonzero;stroke:none"
         x="0"
         y="0">Logistic Regression</tspan></text>
    <path
       id="path96"
       d="m 305.04687,52.121875 h 20"
       style="fill:none;stroke:#cc3311;stroke-width:2;stroke-linecap:butt;stroke-linejoin:round;stroke-miterlimit:10;stroke-dasharray:7.4, 3.2;stroke-dashoffset:0;stroke-opacity:0.8"
       transform="matrix(1.3333333,0,0,-1.3333333,0,591.14166)" />
    <text
       id="text96"
       xml:space="preserve"
       transform="matrix(1.3333333,0,0,1.3333333,444.06249,526.31249)"><tspan
         id="tspan96"
         style="font-variant:normal;font-weight:normal;font-size:10px;font-family:'DejaVu Sans';writing-mode:lr-tb;fill:#000000;fill-opacity:1;fill-rule:nonzero;stroke:none"
         x="0"
         y="0">Luck</tspan></text>
  </g>
</svg>
