<svg xmlns="http://www.w3.org/2000/svg" width="962.4" height="591.142" viewBox="0 0 962.4 591.142"><defs><clipPath id="a" clipPathUnits="userSpaceOnUse"><path d="M37.966 28.872H711.1v405.284H37.966Z"/></clipPath><clipPath id="b" clipPathUnits="userSpaceOnUse"><path d="M37.966 28.872H711.1v405.284H37.966Z"/></clipPath><clipPath id="c" clipPathUnits="userSpaceOnUse"><path d="M37.966 28.872H711.1v405.284H37.966Z"/></clipPath><clipPath id="d" clipPathUnits="userSpaceOnUse"><path d="M37.966 28.872H711.1v405.284H37.966Z"/></clipPath><clipPath id="e" clipPathUnits="userSpaceOnUse"><path d="M37.966 28.872H711.1v405.284H37.966Z"/></clipPath><clipPath id="f" clipPathUnits="userSpaceOnUse"><path d="M37.966 28.872H711.1v405.284H37.966Z"/></clipPath><clipPath id="g" clipPathUnits="userSpaceOnUse"><path d="M37.966 28.872H711.1v405.284H37.966Z"/></clipPath><clipPath id="h" clipPathUnits="userSpaceOnUse"><path d="M37.966 28.872H711.1v405.284H37.966Z"/></clipPath><clipPath id="i" clipPathUnits="userSpaceOnUse"><path d="M37.966 28.872H711.1v405.284H37.966Z"/></clipPath><clipPath id="j" clipPathUnits="userSpaceOnUse"><path d="M37.966 28.872H711.1v405.284H37.966Z"/></clipPath><clipPath id="k" clipPathUnits="userSpaceOnUse"><path d="M37.966 28.872H711.1v405.284H37.966Z"/></clipPath><clipPath id="l" clipPathUnits="userSpaceOnUse"><path d="M37.966 28.872H711.1v405.284H37.966Z"/></clipPath><clipPath id="m" clipPathUnits="userSpaceOnUse"><path d="M37.966 28.872H711.1v405.284H37.966Z"/></clipPath><clipPath id="n" clipPathUnits="userSpaceOnUse"><path d="M37.966 28.872H711.1v405.284H37.966Z"/></clipPath><clipPath id="o" clipPathUnits="userSpaceOnUse"><path d="M37.966 28.872H711.1v405.284H37.966Z"/></clipPath><clipPath id="p" clipPathUnits="userSpaceOnUse"><path d="M37.966 28.872H711.1v405.284H37.966Z"/></clipPath><clipPath id="q" clipPathUnits="userSpaceOnUse"><path d="M37.966 28.872H711.1v405.284H37.966Z"/></clipPath><clipPath id="r" clipPathUnits="userSpaceOnUse"><path d="M37.966 28.872H711.1v405.284H37.966Z"/></clipPath><clipPath id="s" clipPathUnits="userSpaceOnUse"><path d="M37.966 28.872H711.1v405.284H37.966Z"/></clipPath><clipPath id="t" clipPathUnits="userSpaceOnUse"><path d="M37.966 28.872H711.1v405.284H37.966Z"/></clipPath><clipPath id="u" clipPathUnits="userSpaceOnUse"><path d="M37.966 28.872H711.1v405.284H37.966Z"/></clipPath><clipPath id="v" clipPathUnits="userSpaceOnUse"><path d="M37.966 28.872H711.1v405.284H37.966Z"/></clipPath><clipPath id="x" clipPathUnits="userSpaceOnUse"><path d="M-3.5-3.5h7v7h-7z"/></clipPath><clipPath id="w" clipPathUnits="userSpaceOnUse"><path d="M50.62 552.646h897.513V12.266H50.621Z"/></clipPath><clipPath id="z" clipPathUnits="userSpaceOnUse"><path d="M-3.5-3.5h7v7h-7z"/></clipPath><clipPath id="y" clipPathUnits="userSpaceOnUse"><path d="M50.62 552.646h897.513V12.266H50.621Z"/></clipPath><clipPath id="B" clipPathUnits="userSpaceOnUse"><path d="M-3.5-3.5h7v7h-7z"/></clipPath><clipPath id="A" clipPathUnits="userSpaceOnUse"><path d="M50.62 552.646h897.513V12.266H50.621Z"/></clipPath><clipPath id="D" clipPathUnits="userSpaceOnUse"><path d="M-3.5-3.5h7v7h-7z"/></clipPath><clipPath id="C" clipPathUnits="userSpaceOnUse"><path d="M50.62 552.646h897.513V12.266H50.621Z"/></clipPath><clipPath id="F" clipPathUnits="userSpaceOnUse"><path d="M-3.5-3.5h7v7h-7z"/></clipPath><clipPath id="E" clipPathUnits="userSpaceOnUse"><path d="M50.62 552.646h897.513V12.266H50.621Z"/></clipPath><clipPath id="H" clipPathUnits="userSpaceOnUse"><path d="M-3.5-3.5h7v7h-7z"/></clipPath><clipPath id="G" clipPathUnits="userSpaceOnUse"><path d="M50.62 552.646h897.513V12.266H50.621Z"/></clipPath><clipPath id="J" clipPathUnits="userSpaceOnUse"><path d="M-3.5-3.5h7v7h-7z"/></clipPath><clipPath id="I" clipPathUnits="userSpaceOnUse"><path d="M50.62 552.646h897.513V12.266H50.621Z"/></clipPath><clipPath id="L" clipPathUnits="userSpaceOnUse"><path d="M-3.5-3.5h7v7h-7z"/></clipPath><clipPath id="K" clipPathUnits="userSpaceOnUse"><path d="M50.62 552.646h897.513V12.266H50.621Z"/></clipPath><clipPath id="N" clipPathUnits="userSpaceOnUse"><path d="M-3.5-3.5h7v7h-7z"/></clipPath><clipPath id="M" clipPathUnits="userSpaceOnUse"><path d="M50.62 552.646h897.513V12.266H50.621Z"/></clipPath><clipPath id="P" clipPathUnits="userSpaceOnUse"><path d="M-3.5-3.5h7v7h-7z"/></clipPath><clipPath id="O" clipPathUnits="userSpaceOnUse"><path d="M50.62 552.646h897.513V12.266H50.621Z"/></clipPath><clipPath id="R" clipPathUnits="userSpaceOnUse"><path d="M-3.5-3.5h7v7h-7z"/></clipPath><clipPath id="Q" clipPathUnits="userSpaceOnUse"><path d="M50.62 552.646h897.513V12.266H50.621Z"/></clipPath><clipPath id="T" clipPathUnits="userSpaceOnUse"><path d="M-3.5-3.5h7v7h-7z"/></clipPath><clipPath id="S" clipPathUnits="userSpaceOnUse"><path d="M50.62 552.646h897.513V12.266H50.621Z"/></clipPath><clipPath id="V" clipPathUnits="userSpaceOnUse"><path d="M-3.5-3.5h7v7h-7z"/></clipPath><clipPath id="U" clipPathUnits="userSpaceOnUse"><path d="M50.62 552.646h897.513V12.266H50.621Z"/></clipPath><clipPath id="X" clipPathUnits="userSpaceOnUse"><path d="M-3.5-3.5h7v7h-7z"/></clipPath><clipPath id="W" clipPathUnits="userSpaceOnUse"><path d="M50.62 552.646h897.513V12.266H50.621Z"/></clipPath><clipPath id="Z" clipPathUnits="userSpaceOnUse"><path d="M-3.5-3.5h7v7h-7z"/></clipPath><clipPath id="Y" clipPathUnits="userSpaceOnUse"><path d="M50.62 552.646h897.513V12.266H50.621Z"/></clipPath><clipPath id="ab" clipPathUnits="userSpaceOnUse"><path d="M-3.5-3.5h7v7h-7z"/></clipPath><clipPath id="aa" clipPathUnits="userSpaceOnUse"><path d="M50.62 552.646h897.513V12.266H50.621Z"/></clipPath><clipPath id="ad" clipPathUnits="userSpaceOnUse"><path d="M-3.5-3.5h7v7h-7z"/></clipPath><clipPath id="ac" clipPathUnits="userSpaceOnUse"><path d="M50.62 552.646h897.513V12.266H50.621Z"/></clipPath><clipPath id="af" clipPathUnits="userSpaceOnUse"><path d="M-3.5-3.5h7v7h-7z"/></clipPath><clipPath id="ae" clipPathUnits="userSpaceOnUse"><path d="M50.62 552.646h897.513V12.266H50.621Z"/></clipPath><clipPath id="ah" clipPathUnits="userSpaceOnUse"><path d="M-3.5-3.5h7v7h-7z"/></clipPath><clipPath id="ag" clipPathUnits="userSpaceOnUse"><path d="M50.62 552.646h897.513V12.266H50.621Z"/></clipPath><clipPath id="aj" clipPathUnits="userSpaceOnUse"><path d="M-3.5-3.5h7v7h-7z"/></clipPath><clipPath id="ai" clipPathUnits="userSpaceOnUse"><path d="M50.62 552.646h897.513V12.266H50.621Z"/></clipPath><clipPath id="al" clipPathUnits="userSpaceOnUse"><path d="M-3.5-3.5h7v7h-7z"/></clipPath><clipPath id="ak" clipPathUnits="userSpaceOnUse"><path d="M50.62 552.646h897.513V12.266H50.621Z"/></clipPath><clipPath id="an" clipPathUnits="userSpaceOnUse"><path d="M-3.5-3.5h7v7h-7z"/></clipPath><clipPath id="am" clipPathUnits="userSpaceOnUse"><path d="M50.62 552.646h897.513V12.266H50.621Z"/></clipPath><clipPath id="ap" clipPathUnits="userSpaceOnUse"><path d="M-3.5-3.5h7v7h-7z"/></clipPath><clipPath id="ao" clipPathUnits="userSpaceOnUse"><path d="M50.62 552.646h897.513V12.266H50.621Z"/></clipPath><clipPath id="ar" clipPathUnits="userSpaceOnUse"><path d="M-3.5-3.5h7v7h-7z"/></clipPath><clipPath id="aq" clipPathUnits="userSpaceOnUse"><path d="M50.62 552.646h897.513V12.266H50.621Z"/></clipPath><clipPath id="at" clipPathUnits="userSpaceOnUse"><path d="M-3.5-3.5h7v7h-7z"/></clipPath><clipPath id="as" clipPathUnits="userSpaceOnUse"><path d="M50.62 552.646h897.513V12.266H50.621Z"/></clipPath><clipPath id="av" clipPathUnits="userSpaceOnUse"><path d="M-3.5-3.5h7v7h-7z"/></clipPath><clipPath id="au" clipPathUnits="userSpaceOnUse"><path d="M50.62 552.646h897.513V12.266H50.621Z"/></clipPath><clipPath id="ax" clipPathUnits="userSpaceOnUse"><path d="M-3.5-3.5h7v7h-7z"/></clipPath><clipPath id="aw" clipPathUnits="userSpaceOnUse"><path d="M50.62 552.646h897.513V12.266H50.621Z"/></clipPath><clipPath id="az" clipPathUnits="userSpaceOnUse"><path d="M-3.5-3.5h7v7h-7z"/></clipPath><clipPath id="ay" clipPathUnits="userSpaceOnUse"><path d="M50.62 552.646h897.513V12.266H50.621Z"/></clipPath><clipPath id="aB" clipPathUnits="userSpaceOnUse"><path d="M-3.5-3.5h7v7h-7z"/></clipPath><clipPath id="aA" clipPathUnits="userSpaceOnUse"><path d="M50.62 552.646h897.513V12.266H50.621Z"/></clipPath><clipPath id="aD" clipPathUnits="userSpaceOnUse"><path d="M-3.5-3.5h7v7h-7z"/></clipPath><clipPath id="aC" clipPathUnits="userSpaceOnUse"><path d="M50.62 552.646h897.513V12.266H50.621Z"/></clipPath><clipPath id="aF" clipPathUnits="userSpaceOnUse"><path d="M-3.5-3.5h7v7h-7z"/></clipPath><clipPath id="aE" clipPathUnits="userSpaceOnUse"><path d="M50.62 552.646h897.513V12.266H50.621Z"/></clipPath><clipPath id="aH" clipPathUnits="userSpaceOnUse"><path d="M-3.5-3.5h7v7h-7z"/></clipPath><clipPath id="aG" clipPathUnits="userSpaceOnUse"><path d="M50.62 552.646h897.513V12.266H50.621Z"/></clipPath><clipPath id="aJ" clipPathUnits="userSpaceOnUse"><path d="M-3.5-3.5h7v7h-7z"/></clipPath><clipPath id="aI" clipPathUnits="userSpaceOnUse"><path d="M50.62 552.646h897.513V12.266H50.621Z"/></clipPath><clipPath id="aL" clipPathUnits="userSpaceOnUse"><path d="M-3.5-3.5h7v7h-7z"/></clipPath><clipPath id="aK" clipPathUnits="userSpaceOnUse"><path d="M50.62 552.646h897.513V12.266H50.621Z"/></clipPath><clipPath id="aN" clipPathUnits="userSpaceOnUse"><path d="M-3.5-3.5h7v7h-7z"/></clipPath><clipPath id="aM" clipPathUnits="userSpaceOnUse"><path d="M50.62 552.646h897.513V12.266H50.621Z"/></clipPath><clipPath id="aP" clipPathUnits="userSpaceOnUse"><path d="M-3.5-3.5h7v7h-7z"/></clipPath><clipPath id="aO" clipPathUnits="userSpaceOnUse"><path d="M50.62 552.646h897.513V12.266H50.621Z"/></clipPath><clipPath id="aR" clipPathUnits="userSpaceOnUse"><path d="M-3.5-3.5h7v7h-7z"/></clipPath><clipPath id="aQ" clipPathUnits="userSpaceOnUse"><path d="M50.62 552.646h897.513V12.266H50.621Z"/></clipPath><clipPath id="aT" clipPathUnits="userSpaceOnUse"><path d="M-3.5-3.5h7v7h-7z"/></clipPath><clipPath id="aS" clipPathUnits="userSpaceOnUse"><path d="M50.62 552.646h897.513V12.266H50.621Z"/></clipPath><clipPath id="aV" clipPathUnits="userSpaceOnUse"><path d="M-3.5-3.5h7v7h-7z"/></clipPath><clipPath id="aU" clipPathUnits="userSpaceOnUse"><path d="M50.62 552.646h897.513V12.266H50.621Z"/></clipPath><clipPath id="aX" clipPathUnits="userSpaceOnUse"><path d="M-3.5-3.5h7v7h-7z"/></clipPath><clipPath id="aW" clipPathUnits="userSpaceOnUse"><path d="M50.62 552.646h897.513V12.266H50.621Z"/></clipPath></defs><path d="M0 0h721.8v443.356H0Z" style="fill:#fff;fill-opacity:1;fill-rule:nonzero;stroke:none" transform="matrix(1.33333 0 0 -1.33333 0 591.142)"/><path d="M37.966 28.872H711.1v405.284H37.966Z" style="fill:#fff;fill-opacity:1;fill-rule:nonzero;stroke:none" transform="matrix(1.33333 0 0 -1.33333 0 591.142)"/><path d="M122.107 23.872v-3.5" style="fill:#000;fill-opacity:1;fill-rule:nonzero;stroke:#000;stroke-width:.8;stroke-linecap:butt;stroke-linejoin:round;stroke-miterlimit:10;stroke-dasharray:none;stroke-opacity:1" transform="matrix(1.33333 0 0 -1.33333 0 591.142)"/><text xml:space="preserve" transform="translate(149.237 578.77)scale(1.33333)"><tspan x="0" y="0" style="font-variant:normal;font-weight:400;font-size:10px;font-family:&quot;DejaVu Sans&quot;;writing-mode:lr-tb;fill:#000;fill-opacity:1;fill-rule:nonzero;stroke:none">DES</tspan></text><path d="M290.391 23.872v-3.5" style="fill:#000;fill-opacity:1;fill-rule:nonzero;stroke:#000;stroke-width:.8;stroke-linecap:butt;stroke-linejoin:round;stroke-miterlimit:10;stroke-dasharray:none;stroke-opacity:1" transform="matrix(1.33333 0 0 -1.33333 0 591.142)"/><text xml:space="preserve" transform="translate(361.376 578.77)scale(1.33333)"><tspan x="0" y="0" style="font-variant:normal;font-weight:400;font-size:10px;font-family:&quot;DejaVu Sans&quot;;writing-mode:lr-tb;fill:#000;fill-opacity:1;fill-rule:nonzero;stroke:none">CMA-ES</tspan></text><path d="M458.675 23.872v-3.5" style="fill:#000;fill-opacity:1;fill-rule:nonzero;stroke:#000;stroke-width:.8;stroke-linecap:butt;stroke-linejoin:round;stroke-miterlimit:10;stroke-dasharray:none;stroke-opacity:1" transform="matrix(1.33333 0 0 -1.33333 0 591.142)"/><text xml:space="preserve" transform="translate(600.233 578.77)scale(1.33333)"><tspan x="0" y="0" style="font-variant:normal;font-weight:400;font-size:10px;font-family:&quot;DejaVu Sans&quot;;writing-mode:lr-tb;fill:#000;fill-opacity:1;fill-rule:nonzero;stroke:none">jSO</tspan></text><path d="M626.958 23.872v-3.5" style="fill:#000;fill-opacity:1;fill-rule:nonzero;stroke:#000;stroke-width:.8;stroke-linecap:butt;stroke-linejoin:round;stroke-miterlimit:10;stroke-dasharray:none;stroke-opacity:1" transform="matrix(1.33333 0 0 -1.33333 0 591.142)"/><text xml:space="preserve" transform="translate(771.382 578.77)scale(1.33333)"><tspan x="0" y="0" style="font-variant:normal;font-weight:400;font-size:10px;font-family:&quot;DejaVu Sans&quot;;writing-mode:lr-tb;fill:#000;fill-opacity:1;fill-rule:nonzero;stroke:none">Logistic Regression</tspan></text><path d="M37.966 36.734H711.1" clip-path="url(#a)" style="fill:none;stroke:#e6e6e6;stroke-width:1;stroke-linecap:square;stroke-linejoin:round;stroke-miterlimit:10;stroke-dasharray:none;stroke-opacity:1" transform="matrix(1.33333 0 0 -1.33333 0 591.142)"/><text xml:space="preserve" transform="translate(9.6 547.226)scale(1.33333)"><tspan x="0" y="0" style="font-variant:normal;font-weight:400;font-size:10px;font-family:&quot;DejaVu Sans&quot;;writing-mode:lr-tb;fill:#000;fill-opacity:1;fill-rule:nonzero;stroke:none">0.64</tspan></text><path d="M37.966 119.028H711.1" clip-path="url(#b)" style="fill:none;stroke:#e6e6e6;stroke-width:1;stroke-linecap:square;stroke-linejoin:round;stroke-miterlimit:10;stroke-dasharray:none;stroke-opacity:1" transform="matrix(1.33333 0 0 -1.33333 0 591.142)"/><text xml:space="preserve" transform="translate(9.6 437.5)scale(1.33333)"><tspan x="0" y="0" style="font-variant:normal;font-weight:400;font-size:10px;font-family:&quot;DejaVu Sans&quot;;writing-mode:lr-tb;fill:#000;fill-opacity:1;fill-rule:nonzero;stroke:none">0.65</tspan></text><path d="M37.966 201.322H711.1" clip-path="url(#c)" style="fill:none;stroke:#e6e6e6;stroke-width:1;stroke-linecap:square;stroke-linejoin:round;stroke-miterlimit:10;stroke-dasharray:none;stroke-opacity:1" transform="matrix(1.33333 0 0 -1.33333 0 591.142)"/><text xml:space="preserve" transform="translate(9.6 327.775)scale(1.33333)"><tspan x="0" y="0" style="font-variant:normal;font-weight:400;font-size:10px;font-family:&quot;DejaVu Sans&quot;;writing-mode:lr-tb;fill:#000;fill-opacity:1;fill-rule:nonzero;stroke:none">0.66</tspan></text><path d="M37.966 283.616H711.1" clip-path="url(#d)" style="fill:none;stroke:#e6e6e6;stroke-width:1;stroke-linecap:square;stroke-linejoin:round;stroke-miterlimit:10;stroke-dasharray:none;stroke-opacity:1" transform="matrix(1.33333 0 0 -1.33333 0 591.142)"/><text xml:space="preserve" transform="translate(9.6 218.049)scale(1.33333)"><tspan x="0" y="0" style="font-variant:normal;font-weight:400;font-size:10px;font-family:&quot;DejaVu Sans&quot;;writing-mode:lr-tb;fill:#000;fill-opacity:1;fill-rule:nonzero;stroke:none">0.67</tspan></text><path d="M37.966 365.91H711.1" clip-path="url(#e)" style="fill:none;stroke:#e6e6e6;stroke-width:1;stroke-linecap:square;stroke-linejoin:round;stroke-miterlimit:10;stroke-dasharray:none;stroke-opacity:1" transform="matrix(1.33333 0 0 -1.33333 0 591.142)"/><text xml:space="preserve" transform="translate(9.6 108.323)scale(1.33333)"><tspan x="0" y="0" style="font-variant:normal;font-weight:400;font-size:10px;font-family:&quot;DejaVu Sans&quot;;writing-mode:lr-tb;fill:#000;fill-opacity:1;fill-rule:nonzero;stroke:none">0.68</tspan></text><path d="M54.794 242.291h134.627v102.29H54.794Z" clip-path="url(#f)" style="fill:none;stroke:#3d3d3d;stroke-width:1.5;stroke-linecap:butt;stroke-linejoin:miter;stroke-miterlimit:10;stroke-dasharray:none;stroke-opacity:1" transform="matrix(1.33333 0 0 -1.33333 0 591.142)"/><path d="M223.078 165.28h134.626v165.865H223.078Z" clip-path="url(#g)" style="fill:none;stroke:#3d3d3d;stroke-width:1.5;stroke-linecap:butt;stroke-linejoin:miter;stroke-miterlimit:10;stroke-dasharray:none;stroke-opacity:1" transform="matrix(1.33333 0 0 -1.33333 0 591.142)"/><path d="M391.361 207.394h134.627v126.9H391.361Z" clip-path="url(#h)" style="fill:none;stroke:#3d3d3d;stroke-width:1.5;stroke-linecap:butt;stroke-linejoin:miter;stroke-miterlimit:10;stroke-dasharray:none;stroke-opacity:1" transform="matrix(1.33333 0 0 -1.33333 0 591.142)"/><path d="M559.645 154.545h134.627z" clip-path="url(#i)" style="fill:none;stroke:#3d3d3d;stroke-width:1.5;stroke-linecap:butt;stroke-linejoin:miter;stroke-miterlimit:10;stroke-dasharray:none;stroke-opacity:1" transform="matrix(1.33333 0 0 -1.33333 0 591.142)"/><path d="M122.107 242.291v-135.22" clip-path="url(#j)" style="fill:none;stroke:#3d3d3d;stroke-width:1.5;stroke-linecap:square;stroke-linejoin:round;stroke-miterlimit:10;stroke-dasharray:none;stroke-opacity:1" transform="matrix(1.33333 0 0 -1.33333 0 591.142)"/><path d="M122.107 344.58v11.378" clip-path="url(#k)" style="fill:none;stroke:#3d3d3d;stroke-width:1.5;stroke-linecap:square;stroke-linejoin:round;stroke-miterlimit:10;stroke-dasharray:none;stroke-opacity:1" transform="matrix(1.33333 0 0 -1.33333 0 591.142)"/><path d="M290.391 165.28V89.005" clip-path="url(#l)" style="fill:none;stroke:#3d3d3d;stroke-width:1.5;stroke-linecap:square;stroke-linejoin:round;stroke-miterlimit:10;stroke-dasharray:none;stroke-opacity:1" transform="matrix(1.33333 0 0 -1.33333 0 591.142)"/><path d="M290.391 331.145v62.365" clip-path="url(#m)" style="fill:none;stroke:#3d3d3d;stroke-width:1.5;stroke-linecap:square;stroke-linejoin:round;stroke-miterlimit:10;stroke-dasharray:none;stroke-opacity:1" transform="matrix(1.33333 0 0 -1.33333 0 591.142)"/><path d="M458.675 207.394V131.96" clip-path="url(#n)" style="fill:none;stroke:#3d3d3d;stroke-width:1.5;stroke-linecap:square;stroke-linejoin:round;stroke-miterlimit:10;stroke-dasharray:none;stroke-opacity:1" transform="matrix(1.33333 0 0 -1.33333 0 591.142)"/><path d="M458.675 334.295v32.127" clip-path="url(#o)" style="fill:none;stroke:#3d3d3d;stroke-width:1.5;stroke-linecap:square;stroke-linejoin:round;stroke-miterlimit:10;stroke-dasharray:none;stroke-opacity:1" transform="matrix(1.33333 0 0 -1.33333 0 591.142)"/><path d="M626.958 154.545v0" clip-path="url(#p)" style="fill:none;stroke:#3d3d3d;stroke-width:1.5;stroke-linecap:square;stroke-linejoin:round;stroke-miterlimit:10;stroke-dasharray:none;stroke-opacity:1" transform="matrix(1.33333 0 0 -1.33333 0 591.142)"/><path d="M626.958 154.545v0" clip-path="url(#q)" style="fill:none;stroke:#3d3d3d;stroke-width:1.5;stroke-linecap:square;stroke-linejoin:round;stroke-miterlimit:10;stroke-dasharray:none;stroke-opacity:1" transform="matrix(1.33333 0 0 -1.33333 0 591.142)"/><path d="M37.966 154.545H711.1" clip-path="url(#r)" style="fill:none;stroke:#9467bd;stroke-width:1.5;stroke-linecap:butt;stroke-linejoin:round;stroke-miterlimit:10;stroke-dasharray:5.55,2.4;stroke-dashoffset:0;stroke-opacity:1" transform="matrix(1.33333 0 0 -1.33333 0 591.142)"/><path d="M54.794 313.228h134.627" clip-path="url(#s)" style="fill:none;stroke:#3d3d3d;stroke-width:1.5;stroke-linecap:square;stroke-linejoin:round;stroke-miterlimit:10;stroke-dasharray:none;stroke-opacity:1" transform="matrix(1.33333 0 0 -1.33333 0 591.142)"/><path d="M223.078 283.06h134.626" clip-path="url(#t)" style="fill:none;stroke:#3d3d3d;stroke-width:1.5;stroke-linecap:square;stroke-linejoin:round;stroke-miterlimit:10;stroke-dasharray:none;stroke-opacity:1" transform="matrix(1.33333 0 0 -1.33333 0 591.142)"/><path d="M391.361 272.131h134.627" clip-path="url(#u)" style="fill:none;stroke:#3d3d3d;stroke-width:1.5;stroke-linecap:square;stroke-linejoin:round;stroke-miterlimit:10;stroke-dasharray:none;stroke-opacity:1" transform="matrix(1.33333 0 0 -1.33333 0 591.142)"/><path d="M559.645 154.545h134.627" clip-path="url(#v)" style="fill:none;stroke:#3d3d3d;stroke-width:1.5;stroke-linecap:square;stroke-linejoin:round;stroke-miterlimit:10;stroke-dasharray:none;stroke-opacity:1" transform="matrix(1.33333 0 0 -1.33333 0 591.142)"/><g clip-path="url(#w)"><path d="M0-3.5a3.5 3.5 0 1 1 0 7 3.5 3.5 0 0 1 0-7" clip-path="url(#x)" style="fill:#1f77b4;fill-opacity:1;fill-rule:nonzero;stroke:none" transform="matrix(1.33333 0 0 -1.33333 162.81 448.381)"/></g><g clip-path="url(#y)"><path d="M0-3.5a3.5 3.5 0 1 1 0 7 3.5 3.5 0 0 1 0-7" clip-path="url(#z)" style="fill:#1f77b4;fill-opacity:1;fill-rule:nonzero;stroke:none" transform="matrix(1.33333 0 0 -1.33333 162.81 417.464)"/></g><g clip-path="url(#A)"><path d="M0-3.5a3.5 3.5 0 1 1 0 7 3.5 3.5 0 0 1 0-7" clip-path="url(#B)" style="fill:#1f77b4;fill-opacity:1;fill-rule:nonzero;stroke:none" transform="matrix(1.33333 0 0 -1.33333 162.81 270.331)"/></g><g clip-path="url(#C)"><path d="M0-3.5a3.5 3.5 0 1 1 0 7 3.5 3.5 0 0 1 0-7" clip-path="url(#D)" style="fill:#1f77b4;fill-opacity:1;fill-rule:nonzero;stroke:none" transform="matrix(1.33333 0 0 -1.33333 156.184 261.353)"/></g><g clip-path="url(#E)"><path d="M0-3.5a3.5 3.5 0 1 1 0 7 3.5 3.5 0 0 1 0-7" clip-path="url(#F)" style="fill:#1f77b4;fill-opacity:1;fill-rule:nonzero;stroke:none" transform="matrix(1.33333 0 0 -1.33333 162.81 182.348)"/></g><g clip-path="url(#G)"><path d="M0-3.5a3.5 3.5 0 1 1 0 7 3.5 3.5 0 0 1 0-7" clip-path="url(#H)" style="fill:#1f77b4;fill-opacity:1;fill-rule:nonzero;stroke:none" transform="matrix(1.33333 0 0 -1.33333 162.81 164.66)"/></g><g clip-path="url(#I)"><path d="M0-3.5a3.5 3.5 0 1 1 0 7 3.5 3.5 0 0 1 0-7" clip-path="url(#J)" style="fill:#1f77b4;fill-opacity:1;fill-rule:nonzero;stroke:none" transform="matrix(1.33333 0 0 -1.33333 162.81 150.523)"/></g><g clip-path="url(#K)"><path d="M0-3.5a3.5 3.5 0 1 1 0 7 3.5 3.5 0 0 1 0-7" clip-path="url(#L)" style="fill:#1f77b4;fill-opacity:1;fill-rule:nonzero;stroke:none" transform="matrix(1.33333 0 0 -1.33333 162.81 125.427)"/></g><g clip-path="url(#M)"><path d="M0-3.5a3.5 3.5 0 1 1 0 7 3.5 3.5 0 0 1 0-7" clip-path="url(#N)" style="fill:#1f77b4;fill-opacity:1;fill-rule:nonzero;stroke:none" transform="matrix(1.33333 0 0 -1.33333 151.51 122.682)"/></g><g clip-path="url(#O)"><path d="M0-3.5a3.5 3.5 0 1 1 0 7 3.5 3.5 0 0 1 0-7" clip-path="url(#P)" style="fill:#1f77b4;fill-opacity:1;fill-rule:nonzero;stroke:none" transform="matrix(1.33333 0 0 -1.33333 169.562 116.531)"/></g><g clip-path="url(#Q)"><path d="M0-3.5a3.5 3.5 0 1 1 0 7 3.5 3.5 0 0 1 0-7" clip-path="url(#R)" style="fill:#ff7f0e;fill-opacity:1;fill-rule:nonzero;stroke:none" transform="matrix(1.33333 0 0 -1.33333 387.188 472.467)"/></g><g clip-path="url(#S)"><path d="M0-3.5a3.5 3.5 0 1 1 0 7 3.5 3.5 0 0 1 0-7" clip-path="url(#T)" style="fill:#ff7f0e;fill-opacity:1;fill-rule:nonzero;stroke:none" transform="matrix(1.33333 0 0 -1.33333 387.188 457.813)"/></g><g clip-path="url(#U)"><path d="M0-3.5a3.5 3.5 0 1 1 0 7 3.5 3.5 0 0 1 0-7" clip-path="url(#V)" style="fill:#ff7f0e;fill-opacity:1;fill-rule:nonzero;stroke:none" transform="matrix(1.33333 0 0 -1.33333 387.188 374.495)"/></g><g clip-path="url(#W)"><path d="M0-3.5a3.5 3.5 0 1 1 0 7 3.5 3.5 0 0 1 0-7" clip-path="url(#X)" style="fill:#ff7f0e;fill-opacity:1;fill-rule:nonzero;stroke:none" transform="matrix(1.33333 0 0 -1.33333 387.188 359.593)"/></g><g clip-path="url(#Y)"><path d="M0-3.5a3.5 3.5 0 1 1 0 7 3.5 3.5 0 0 1 0-7" clip-path="url(#Z)" style="fill:#ff7f0e;fill-opacity:1;fill-rule:nonzero;stroke:none" transform="matrix(1.33333 0 0 -1.33333 387.188 236.195)"/></g><g clip-path="url(#aa)"><path d="M0-3.5a3.5 3.5 0 1 1 0 7 3.5 3.5 0 0 1 0-7" clip-path="url(#ab)" style="fill:#ff7f0e;fill-opacity:1;fill-rule:nonzero;stroke:none" transform="matrix(1.33333 0 0 -1.33333 387.188 191.264)"/></g><g clip-path="url(#ac)"><path d="M0-3.5a3.5 3.5 0 1 1 0 7 3.5 3.5 0 0 1 0-7" clip-path="url(#ad)" style="fill:#ff7f0e;fill-opacity:1;fill-rule:nonzero;stroke:none" transform="matrix(1.33333 0 0 -1.33333 387.188 166.58)"/></g><g clip-path="url(#ae)"><path d="M0-3.5a3.5 3.5 0 1 1 0 7 3.5 3.5 0 0 1 0-7" clip-path="url(#af)" style="fill:#ff7f0e;fill-opacity:1;fill-rule:nonzero;stroke:none" transform="matrix(1.33333 0 0 -1.33333 387.188 143.96)"/></g><g clip-path="url(#ag)"><path d="M0-3.5a3.5 3.5 0 1 1 0 7 3.5 3.5 0 0 1 0-7" clip-path="url(#ah)" style="fill:#ff7f0e;fill-opacity:1;fill-rule:nonzero;stroke:none" transform="matrix(1.33333 0 0 -1.33333 387.188 93.25)"/></g><g clip-path="url(#ai)"><path d="M0-3.5a3.5 3.5 0 1 1 0 7 3.5 3.5 0 0 1 0-7" clip-path="url(#aj)" style="fill:#ff7f0e;fill-opacity:1;fill-rule:nonzero;stroke:none" transform="matrix(1.33333 0 0 -1.33333 387.188 66.462)"/></g><g clip-path="url(#ak)"><path d="M0-3.5a3.5 3.5 0 1 1 0 7 3.5 3.5 0 0 1 0-7" clip-path="url(#al)" style="fill:#2ca02c;fill-opacity:1;fill-rule:nonzero;stroke:none" transform="matrix(1.33333 0 0 -1.33333 611.566 415.194)"/></g><g clip-path="url(#am)"><path d="M0-3.5a3.5 3.5 0 1 1 0 7 3.5 3.5 0 0 1 0-7" clip-path="url(#an)" style="fill:#2ca02c;fill-opacity:1;fill-rule:nonzero;stroke:none" transform="matrix(1.33333 0 0 -1.33333 611.566 403.059)"/></g><g clip-path="url(#ao)"><path d="M0-3.5a3.5 3.5 0 1 1 0 7 3.5 3.5 0 0 1 0-7" clip-path="url(#ap)" style="fill:#2ca02c;fill-opacity:1;fill-rule:nonzero;stroke:none" transform="matrix(1.33333 0 0 -1.33333 611.566 330.493)"/></g><g clip-path="url(#aq)"><path d="M0-3.5a3.5 3.5 0 1 1 0 7 3.5 3.5 0 0 1 0-7" clip-path="url(#ar)" style="fill:#2ca02c;fill-opacity:1;fill-rule:nonzero;stroke:none" transform="matrix(1.33333 0 0 -1.33333 611.566 266.988)"/></g><g clip-path="url(#as)"><path d="M0-3.5a3.5 3.5 0 1 1 0 7 3.5 3.5 0 0 1 0-7" clip-path="url(#at)" style="fill:#2ca02c;fill-opacity:1;fill-rule:nonzero;stroke:none" transform="matrix(1.33333 0 0 -1.33333 604.909 258.03)"/></g><g clip-path="url(#au)"><path d="M0-3.5a3.5 3.5 0 1 1 0 7 3.5 3.5 0 0 1 0-7" clip-path="url(#av)" style="fill:#2ca02c;fill-opacity:1;fill-rule:nonzero;stroke:none" transform="matrix(1.33333 0 0 -1.33333 611.566 198.57)"/></g><g clip-path="url(#aw)"><path d="M0-3.5a3.5 3.5 0 1 1 0 7 3.5 3.5 0 0 1 0-7" clip-path="url(#ax)" style="fill:#2ca02c;fill-opacity:1;fill-rule:nonzero;stroke:none" transform="matrix(1.33333 0 0 -1.33333 611.566 158.077)"/></g><g clip-path="url(#ay)"><path d="M0-3.5a3.5 3.5 0 1 1 0 7 3.5 3.5 0 0 1 0-7" clip-path="url(#az)" style="fill:#2ca02c;fill-opacity:1;fill-rule:nonzero;stroke:none" transform="matrix(1.33333 0 0 -1.33333 611.566 141.195)"/></g><g clip-path="url(#aA)"><path d="M0-3.5a3.5 3.5 0 1 1 0 7 3.5 3.5 0 0 1 0-7" clip-path="url(#aB)" style="fill:#2ca02c;fill-opacity:1;fill-rule:nonzero;stroke:none" transform="matrix(1.33333 0 0 -1.33333 611.566 109.267)"/></g><g clip-path="url(#aC)"><path d="M0-3.5a3.5 3.5 0 1 1 0 7 3.5 3.5 0 0 1 0-7" clip-path="url(#aD)" style="fill:#2ca02c;fill-opacity:1;fill-rule:nonzero;stroke:none" transform="matrix(1.33333 0 0 -1.33333 602.344 102.58)"/></g><g clip-path="url(#aE)"><path d="M0-3.5a3.5 3.5 0 1 1 0 7 3.5 3.5 0 0 1 0-7" clip-path="url(#aF)" style="fill:#9467bd;fill-opacity:1;fill-rule:nonzero;stroke:none" transform="matrix(1.33333 0 0 -1.33333 835.944 385.082)"/></g><g clip-path="url(#aG)"><path d="M0-3.5a3.5 3.5 0 1 1 0 7 3.5 3.5 0 0 1 0-7" clip-path="url(#aH)" style="fill:#9467bd;fill-opacity:1;fill-rule:nonzero;stroke:none" transform="matrix(1.33333 0 0 -1.33333 824.268 385.082)"/></g><g clip-path="url(#aI)"><path d="M0-3.5a3.5 3.5 0 1 1 0 7 3.5 3.5 0 0 1 0-7" clip-path="url(#aJ)" style="fill:#9467bd;fill-opacity:1;fill-rule:nonzero;stroke:none" transform="matrix(1.33333 0 0 -1.33333 847.62 385.082)"/></g><g clip-path="url(#aK)"><path d="M0-3.5a3.5 3.5 0 1 1 0 7 3.5 3.5 0 0 1 0-7" clip-path="url(#aL)" style="fill:#9467bd;fill-opacity:1;fill-rule:nonzero;stroke:none" transform="matrix(1.33333 0 0 -1.33333 812.592 385.082)"/></g><g clip-path="url(#aM)"><path d="M0-3.5a3.5 3.5 0 1 1 0 7 3.5 3.5 0 0 1 0-7" clip-path="url(#aN)" style="fill:#9467bd;fill-opacity:1;fill-rule:nonzero;stroke:none" transform="matrix(1.33333 0 0 -1.33333 859.297 385.082)"/></g><g clip-path="url(#aO)"><path d="M0-3.5a3.5 3.5 0 1 1 0 7 3.5 3.5 0 0 1 0-7" clip-path="url(#aP)" style="fill:#9467bd;fill-opacity:1;fill-rule:nonzero;stroke:none" transform="matrix(1.33333 0 0 -1.33333 800.916 385.082)"/></g><g clip-path="url(#aQ)"><path d="M0-3.5a3.5 3.5 0 1 1 0 7 3.5 3.5 0 0 1 0-7" clip-path="url(#aR)" style="fill:#9467bd;fill-opacity:1;fill-rule:nonzero;stroke:none" transform="matrix(1.33333 0 0 -1.33333 870.973 385.082)"/></g><g clip-path="url(#aS)"><path d="M0-3.5a3.5 3.5 0 1 1 0 7 3.5 3.5 0 0 1 0-7" clip-path="url(#aT)" style="fill:#9467bd;fill-opacity:1;fill-rule:nonzero;stroke:none" transform="matrix(1.33333 0 0 -1.33333 789.24 385.082)"/></g><g clip-path="url(#aU)"><path d="M0-3.5a3.5 3.5 0 1 1 0 7 3.5 3.5 0 0 1 0-7" clip-path="url(#aV)" style="fill:#9467bd;fill-opacity:1;fill-rule:nonzero;stroke:none" transform="matrix(1.33333 0 0 -1.33333 882.649 385.082)"/></g><g clip-path="url(#aW)"><path d="M0-3.5a3.5 3.5 0 1 1 0 7 3.5 3.5 0 0 1 0-7" clip-path="url(#aX)" style="fill:#9467bd;fill-opacity:1;fill-rule:nonzero;stroke:none" transform="matrix(1.33333 0 0 -1.33333 777.564 385.082)"/></g></svg>